<svg xmlns="http://www.w3.org/2000/svg" width="354.236" height="342.088" viewBox="0 0 354.236 342.088">
  <g id="Business_deal-pana" data-name="Business deal-pana" transform="translate(-31.076 -41.97)">
    <g id="freepik--background-complete--inject-3" transform="translate(31.076 41.97)">
      <path id="Path_2347" data-name="Path 2347" d="M44.678,303.316S51.631,301,54.969,317.084s3.863,24.933,3.863,24.933,1.1,3.469,3.647,2.094,6.83-6.1,10.044-4.165,3.384,6.313,1.1,11.991-6.892,18.327-7.294,19.44-.209,2.99,1.684,2.318,13.838-8.36,17.153-2.472-5.64,20.668-6.591,22.3-.773,2.48-.093,3.145,4.489-2.318,7.981-4.35,7.889-3.825,9.519-.263-.881,15.793-17.663,32.2l-8.275,7.1-10.377-3.469c-21.773-8.77-28.758-19.123-28.588-23.033s4.9-3.956,8.9-3.384,8.63,1.87,9.04.981.216-1.723-1.29-2.874-15.453-11.389-14.6-18.1,14.8-4.149,16.8-4.257,1.468-1.916.672-2.8S40.776,363.605,36.5,359.2s-5.833-8.4-3.554-11.5,7.958-.263,10.817.039,2.573-3.33,2.573-3.33-2.913-8.4-5.957-24.508,4.45-16.635,4.45-16.635" transform="translate(-31.076 -101.362)" fill="#f5f5f5"/>
      <path id="Path_2348" data-name="Path 2348" d="M74.99,433.335c-2.318-11.829-5.563-28.14-9.272-46.15s-7-34.29-9.341-46.111c-1.159-5.9-2.109-10.67-2.758-13.993-.325-1.638-.579-2.921-.773-3.8-.093-.425-.155-.773-.209-.989s-.077-.34-.077-.34a2.285,2.285,0,0,0,.039.348c.039.224.1.564.17.989.162.889.394,2.179.688,3.817.6,3.315,1.507,8.105,2.65,14.016,2.272,11.829,5.563,28.14,9.272,46.142s7.016,34.313,9.357,46.127" transform="translate(-35.961 -105.625)" fill="#e0e0e0"/>
      <path id="Path_2349" data-name="Path 2349" d="M74.355,359.61a3.64,3.64,0,0,0-.464.634c-.278.425-.664,1.051-1.136,1.823-.943,1.545-2.179,3.724-3.5,6.143l-3.353,6.22-1,1.885a3.616,3.616,0,0,0-.348.7,2.758,2.758,0,0,0,.471-.634c.278-.417.672-1.043,1.128-1.823.927-1.545,2.132-3.747,3.454-6.181L73,362.2c.41-.734.773-1.36,1.035-1.878A3.181,3.181,0,0,0,74.355,359.61Z" transform="translate(-38.687 -114.187)" fill="#e0e0e0"/>
      <path id="Path_2350" data-name="Path 2350" d="M57.412,378.464c.054-.085-4.319-2.836-9.751-6.181s-9.9-5.918-9.952-5.833,4.311,2.843,9.751,6.181S57.358,378.588,57.412,378.464Z" transform="translate(-32.584 -115.742)" fill="#e0e0e0"/>
      <path id="Path_2351" data-name="Path 2351" d="M66.432,415.7a3.253,3.253,0,0,0-.773-.255l-2.109-.572c-1.777-.487-4.234-1.167-6.954-2.017s-5.092-1.677-6.822-2.318l-2-.719A3.545,3.545,0,0,0,47,409.59a3.321,3.321,0,0,0,.719.363c.471.216,1.159.51,2.017.85,1.723.688,4.118,1.545,6.815,2.418s5.169,1.483,6.954,1.908c.9.209,1.63.363,2.14.456A3.388,3.388,0,0,0,66.432,415.7Z" transform="translate(-34.696 -125.55)" fill="#e0e0e0"/>
      <path id="Path_2352" data-name="Path 2352" d="M85.382,400a3.026,3.026,0,0,0-.579.471c-.355.325-.858.773-1.476,1.383-1.236,1.182-2.921,2.828-4.767,4.636s-3.469,3.554-4.7,4.767c-.587.61-1.066,1.113-1.391,1.468A2.783,2.783,0,0,0,72,413.3a2.917,2.917,0,0,0,.579-.471c.348-.317.858-.773,1.468-1.383,1.236-1.174,2.928-2.828,4.775-4.636s3.5-3.516,4.69-4.744c.595-.61,1.066-1.113,1.391-1.468a3.09,3.09,0,0,0,.479-.595Z" transform="translate(-40.38 -123.37)" fill="#e0e0e0"/>
      <path id="Path_2353" data-name="Path 2353" d="M96.077,430.3a4.574,4.574,0,0,0-.773.61l-1.893,1.762c-1.592,1.507-3.771,3.6-6.181,5.934s-4.543,4.45-6.081,6l-1.816,1.854a5.057,5.057,0,0,0-.634.711,4.715,4.715,0,0,0,.773-.61l1.9-1.769c1.545-1.5,3.763-3.593,6.181-5.926s4.512-4.45,6.058-6l1.816-1.854a5.256,5.256,0,0,0,.649-.711Z" transform="translate(-41.904 -130.259)" fill="#e0e0e0"/>
      <path id="Path_2354" data-name="Path 2354" d="M71.97,449a5.409,5.409,0,0,0-.958-.348l-2.65-.788c-2.233-.7-5.324-1.669-8.7-2.836s-6.405-2.318-8.6-3.091l-2.6-1.028a5.646,5.646,0,0,0-.966-.317,5.536,5.536,0,0,0,.912.456c.595.27,1.468.641,2.557,1.089,2.163.9,5.184,2.063,8.576,3.23s6.482,2.1,8.739,2.727c1.136.317,2.048.556,2.689.711a5.846,5.846,0,0,0,1,.193Z" transform="translate(-34.81 -132.598)" fill="#e0e0e0"/>
      <rect id="Rectangle_528" data-name="Rectangle 528" width="72.343" height="104.856" transform="translate(257.773 16.751)" fill="#e0e0e0"/>
      <rect id="Rectangle_529" data-name="Rectangle 529" width="72.343" height="104.856" transform="translate(254.149 16.751)" fill="#f5f5f5"/>
      <rect id="Rectangle_530" data-name="Rectangle 530" width="54.363" height="82.14" transform="translate(263.143 28.109)" fill="#fff"/>
      <path id="Path_2355" data-name="Path 2355" d="M425.969,160.406v-6.073c0-3.941,0-9.674-.046-16.921,0-14.487-.054-34.993-.093-59.146l.185.178H371.652l.193-.193v82.14l-.155-.155,39.567.077,10.933.039h.062l-10.894.039-39.668.085h-.162v-.155c0-22.584,0-51.157-.039-82.14v-.2h54.742v.185c-.039,24.2-.07,44.752-.085,59.262,0,7.232-.039,12.957-.054,16.882v5.617A1.034,1.034,0,0,1,425.969,160.406Z" transform="translate(-108.471 -50.157)" fill="#e0e0e0"/>
      <path id="Path_2356" data-name="Path 2356" d="M451,63.65a12.048,12.048,0,0,1-1.29,1.87c-.834,1.128-2.032,2.658-3.392,4.3s-2.635,3.091-3.577,4.157a12.572,12.572,0,0,1-1.592,1.63,13.907,13.907,0,0,1,1.383-1.808l3.485-4.226,3.477-4.226A13.336,13.336,0,0,1,451,63.65Z" transform="translate(-124.308 -46.899)" fill="#e0e0e0"/>
      <path id="Path_2357" data-name="Path 2357" d="M442.37,184.32a67.334,67.334,0,0,0,9.48,11.852" transform="translate(-124.586 -74.334)" fill="#fff"/>
      <path id="Path_2358" data-name="Path 2358" d="M451.85,196.172a10.251,10.251,0,0,1-1.654-1.5,51.45,51.45,0,0,1-3.577-4.033,53.5,53.5,0,0,1-3.152-4.381,10.584,10.584,0,0,1-1.1-1.939A15.054,15.054,0,0,1,443.7,186.1c.773,1.12,1.924,2.65,3.23,4.288s2.557,3.091,3.469,4.087A15.773,15.773,0,0,1,451.85,196.172Z" transform="translate(-124.586 -74.334)" fill="#e0e0e0"/>
      <path id="Path_2359" data-name="Path 2359" d="M360,195.81l9.473-11.69" transform="translate(-105.859 -74.288)" fill="#fff"/>
      <path id="Path_2360" data-name="Path 2360" d="M369.473,184.12a69.767,69.767,0,0,1-4.582,5.965A72.585,72.585,0,0,1,360,195.81a72.551,72.551,0,0,1,4.582-5.973A73.256,73.256,0,0,1,369.473,184.12Z" transform="translate(-105.859 -74.288)" fill="#e0e0e0"/>
      <path id="Path_2361" data-name="Path 2361" d="M360,63.65a65.432,65.432,0,0,1,4.636,5.494,65.974,65.974,0,0,1,4.288,5.748,65.5,65.5,0,0,1-4.6-5.5A65.833,65.833,0,0,1,360,63.65Z" transform="translate(-105.859 -46.899)" fill="#e0e0e0"/>
      <rect id="Rectangle_531" data-name="Rectangle 531" width="18.204" height="51.682" transform="translate(282.366 44.783)" fill="#e0e0e0"/>
      <path id="Path_2362" data-name="Path 2362" d="M139.124,41.97V99.741H56.142L53.16,42.372Z" transform="translate(-36.097 -41.97)" fill="#e0e0e0"/>
      <rect id="Rectangle_532" data-name="Rectangle 532" width="57.245" height="82.982" transform="translate(17.063 57.647) rotate(-90)" fill="#fff"/>
      <path id="Path_2363" data-name="Path 2363" d="M136.412,100.018H52.65V42h83.762ZM53.43,99.245h82.163V42.773H53.43Z" transform="translate(-35.981 -41.977)" fill="#e0e0e0"/>
      <rect id="Rectangle_533" data-name="Rectangle 533" width="65.003" height="43.021" transform="translate(26.049 7.518)" fill="#fff"/>
      <path id="Path_2364" data-name="Path 2364" d="M129.7,51.643h-4.814l-13.4.054-46.791.093.162-.147V94.656h0l-.2-.209,65,.046-.162.162c0-13.1.062-23.828.085-31.308,0-3.732,0-6.652.039-8.654v-.023c0,1.993,0,4.9.039,8.615,0,7.5.046,18.273.085,31.408v.162H64.37v-.2h0V51.45h.193l46.915.093,13.351.054h4.435Z" transform="translate(-38.646 -44.125)" fill="#e0e0e0"/>
      <path id="Path_2365" data-name="Path 2365" d="M53.15,42.28a7.023,7.023,0,0,1,1.429.927c.85.61,2.009,1.483,3.253,2.48s2.318,1.947,3.091,2.65a6.907,6.907,0,0,1,1.19,1.221A53.953,53.953,0,0,1,57.546,46a45.741,45.741,0,0,1-4.4-3.724Z" transform="translate(-36.095 -42.04)" fill="#e0e0e0"/>
      <path id="Path_2366" data-name="Path 2366" d="M157.9,42.49a39.746,39.746,0,0,1-4.365,3.716,41.336,41.336,0,0,1-4.636,3.4,40.269,40.269,0,0,1,4.365-3.724A40.625,40.625,0,0,1,157.9,42.49Z" transform="translate(-57.864 -42.088)" fill="#e0e0e0"/>
      <path id="Path_2367" data-name="Path 2367" d="M157.742,114.392l-9.272-7.5" transform="translate(-57.766 -56.73)" fill="#fff"/>
      <path id="Path_2368" data-name="Path 2368" d="M148.49,106.89a44.428,44.428,0,0,1,4.759,3.593,43.561,43.561,0,0,1,4.5,3.91,43.546,43.546,0,0,1-4.759-3.593,44.689,44.689,0,0,1-4.5-3.91Z" transform="translate(-57.771 -56.73)" fill="#e0e0e0"/>
      <path id="Path_2369" data-name="Path 2369" d="M53.15,114.511a41.02,41.02,0,0,1,4.327-3.678,39.175,39.175,0,0,1,4.574-3.353,39.406,39.406,0,0,1-4.319,3.678,38.131,38.131,0,0,1-4.582,3.353Z" transform="translate(-36.095 -56.864)" fill="#e0e0e0"/>
      <rect id="Rectangle_534" data-name="Rectangle 534" width="14.402" height="40.904" transform="translate(39.246 35.325) rotate(-90)" fill="#e0e0e0"/>
      <path id="Path_2370" data-name="Path 2370" d="M401.213,275.453a29.152,29.152,0,1,1,1.059-41.136,29.152,29.152,0,0,1-1.059,41.136Z" transform="translate(-104.027 -83.628)" fill="#ebebeb"/>
      <path id="Path_2371" data-name="Path 2371" d="M398.487,272.461a22.221,22.221,0,1,1,.773-31.377A22.221,22.221,0,0,1,398.487,272.461Z" transform="translate(-106.069 -85.666)" fill="#f5f5f5"/>
      <path id="Path_2372" data-name="Path 2372" d="M400.9,271.751c-.1-.093.541-.834,1.545-2.264a23.381,23.381,0,0,0,3.183-6.544,22.977,22.977,0,0,0,.9-4.914,21.876,21.876,0,0,0-.371-5.671,20.263,20.263,0,0,0-.773-2.982,21.5,21.5,0,0,0-3.029-5.787,23.476,23.476,0,0,0-2.233-2.6,24.274,24.274,0,0,0-2.619-2.217,22.184,22.184,0,0,0-2.843-1.731,20.8,20.8,0,0,0-2.967-1.236,20.477,20.477,0,0,0-2.99-.773,22.2,22.2,0,0,0-5.7-.294,22.829,22.829,0,0,0-4.906.95,23.628,23.628,0,0,0-6.513,3.245c-1.422,1-2.148,1.646-2.248,1.545s.5-.881,1.839-2.078a20.661,20.661,0,0,1,6.537-3.863,22.31,22.31,0,0,1,5.154-1.221,22.608,22.608,0,0,1,6.1.155,21.487,21.487,0,0,1,3.23.773,21.038,21.038,0,0,1,3.214,1.3,22.529,22.529,0,0,1,3.091,1.839,25.774,25.774,0,0,1,2.836,2.387,24.142,24.142,0,0,1,2.4,2.8,22.675,22.675,0,0,1,1.878,3.091,22.185,22.185,0,0,1,1.321,3.2,20.855,20.855,0,0,1,.773,3.222,22.763,22.763,0,0,1,.209,6.1,22.522,22.522,0,0,1-1.167,5.161,20.769,20.769,0,0,1-3.8,6.575C401.772,271.241,400.969,271.821,400.9,271.751Z" transform="translate(-107.979 -85.443)" fill="#e0e0e0"/>
      <path id="Path_2373" data-name="Path 2373" d="M377.632,270.393l-2.735,2.712-2.411-2.472,2.689-2.627a16.447,16.447,0,0,1-4.025-8.09l4.342-1.584a13.97,13.97,0,0,0,2.928,6.513l4.126-4.033c-2.009-3.392-4.087-7.356-.549-10.817,2.627-2.557,6.73-2.843,10.987.626l2.751-2.681,2.411,2.48-2.7,2.627a15.678,15.678,0,0,1,3.4,6.529l-4.25,1.738a14.364,14.364,0,0,0-2.4-5.045l-4.25,4.08c2.04,3.376,4.064,7.286.579,10.686C385.954,273.538,381.89,273.831,377.632,270.393Zm8.5-13.135,3.516-3.431c-1.545-1.02-2.8-.834-3.616,0s-.595,2.017.124,3.431ZM384.324,267.3c.865-.842.634-2.017,0-3.446l-3.415,3.33c1.468,1,2.642.889,3.438.116Z" transform="translate(-108.394 -88.798)" fill="#e0e0e0"/>
      <path id="Path_2374" data-name="Path 2374" d="M250.355,328.956a30.612,30.612,0,1,1-38.918-18.837,30.612,30.612,0,0,1,38.918,18.837Z" transform="translate(-67.398 -102.547)" fill="#ebebeb"/>
      <path id="Path_2375" data-name="Path 2375" d="M245.654,333.464a23.326,23.326,0,1,1-29.662-14.356,23.326,23.326,0,0,1,29.662,14.356Z" transform="translate(-69.549 -104.684)" fill="#f5f5f5"/>
      <path id="Path_2376" data-name="Path 2376" d="M245.2,332.514a13.284,13.284,0,0,1-1.5-2.449,24.965,24.965,0,0,0-4.883-5.872,24.052,24.052,0,0,0-4.311-3,23.238,23.238,0,0,0-5.594-2.133,21.425,21.425,0,0,0-3.2-.533,22.685,22.685,0,0,0-6.838.386,25.5,25.5,0,0,0-3.454,1.012,25.192,25.192,0,0,0-3.253,1.545,21.856,21.856,0,0,0-2.89,1.97,21.255,21.255,0,0,0-2.472,2.318,22.042,22.042,0,0,0-2.024,2.534,23.179,23.179,0,0,0-2.751,5.324,24.261,24.261,0,0,0-1.213,5.1,24.725,24.725,0,0,0,.278,7.634,13.639,13.639,0,0,1,.518,2.828c-.131.054-.626-.865-1.19-2.658a21.634,21.634,0,0,1-.865-7.966,23.264,23.264,0,0,1,3.863-11.227,22.161,22.161,0,0,1,2.133-2.758,22.535,22.535,0,0,1,2.627-2.511,23.312,23.312,0,0,1,3.091-2.148,24.73,24.73,0,0,1,3.5-1.677,25.316,25.316,0,0,1,3.732-1.089,24,24,0,0,1,3.74-.464,22.718,22.718,0,0,1,3.639.116,23.1,23.1,0,0,1,3.423.634,24.378,24.378,0,0,1,5.926,2.442,23.9,23.9,0,0,1,4.435,3.361,21.534,21.534,0,0,1,4.636,6.475C245.093,331.455,245.3,332.475,245.2,332.514Z" transform="translate(-69.367 -104.421)" fill="#e0e0e0"/>
      <path id="Path_2377" data-name="Path 2377" d="M234.238,355.541l1.383,3.817-3.407,1.236-1.352-3.716a17.168,17.168,0,0,1-9.48.348l.371-4.837a14.719,14.719,0,0,0,7.495,0l-2.071-5.7c-4.118.456-8.808.726-10.578-4.149-1.306-3.616.193-7.672,5.362-10.238l-1.375-3.786,3.407-1.244,1.352,3.724a16.3,16.3,0,0,1,7.672-.433l-.178,4.814a14.989,14.989,0,0,0-5.864.116l2.1,5.8c4.11-.487,8.731-.734,10.469,4.072C240.837,348.935,239.361,352.945,234.238,355.541ZM225.361,341.7l-1.762-4.837c-1.653,1.059-2.009,2.318-1.607,3.438s1.692,1.445,3.369,1.4Zm8.847,6.1c-.433-1.2-1.653-1.483-3.307-1.46l1.708,4.705C234.177,350.04,234.578,348.881,234.207,347.791Z" transform="translate(-73.154 -106.834)" fill="#e0e0e0"/>
      <path id="Path_2378" data-name="Path 2378" d="M102.242,229.693a25.69,25.69,0,1,1-26.007-25.3,25.69,25.69,0,0,1,26.007,25.3Z" transform="translate(-35.575 -78.896)" fill="#ebebeb"/>
      <path id="Path_2379" data-name="Path 2379" d="M97.928,231.556a19.548,19.548,0,1,1-5.9-13.769A19.579,19.579,0,0,1,97.928,231.556Z" transform="translate(-37.373 -80.681)" fill="#f5f5f5"/>
      <path id="Path_2380" data-name="Path 2380" d="M97.846,230.733a11.013,11.013,0,0,1-.549-2.318,20.738,20.738,0,0,0-2.318-5.973,19.416,19.416,0,0,0-6.544-6.737,18.278,18.278,0,0,0-2.411-1.275,17.54,17.54,0,0,0-2.666-.943,18.45,18.45,0,0,0-2.882-.556,20.638,20.638,0,0,0-3.021-.108,21.189,21.189,0,0,0-3,.371,19.737,19.737,0,0,0-2.82.773,17.434,17.434,0,0,0-2.581,1.182,18.111,18.111,0,0,0-2.318,1.476,19.392,19.392,0,0,0-3.593,3.508,19.92,19.92,0,0,0-2.318,3.747,20.861,20.861,0,0,0-1.8,6.181,10.609,10.609,0,0,1-.34,2.388c-.124,0-.27-.85-.24-2.434a18.064,18.064,0,0,1,1.406-6.537,20,20,0,0,1,2.318-4.064,20.445,20.445,0,0,1,3.747-3.863,19.265,19.265,0,0,1,2.426-1.63,19.918,19.918,0,0,1,5.8-2.194,22.2,22.2,0,0,1,3.237-.41,22.738,22.738,0,0,1,3.253.124,20.287,20.287,0,0,1,3.091.626,18.36,18.36,0,0,1,2.866,1.059,18.878,18.878,0,0,1,2.557,1.406,20.089,20.089,0,0,1,4.072,3.516,19.7,19.7,0,0,1,2.642,3.863,18,18,0,0,1,1.978,6.39A5.54,5.54,0,0,1,97.846,230.733Z" transform="translate(-37.298 -80.469)" fill="#e0e0e0"/>
      <path id="Path_2381" data-name="Path 2381" d="M84.026,245.224l.093,3.407-3.044.085-.093-3.322a14.459,14.459,0,0,1-7.641-2.225l1.545-3.763a12.293,12.293,0,0,0,5.965,2l-.131-5.084c-3.407-.726-7.209-1.754-7.325-6.1-.085-3.23,2.179-6.065,6.954-6.737l-.093-3.384,3.044-.077.093,3.315a13.823,13.823,0,0,1,6.228,1.692L88.2,228.813a12.555,12.555,0,0,0-4.7-1.46l.139,5.177c3.4.7,7.139,1.731,7.255,6.019C91.026,241.716,88.785,244.513,84.026,245.224Zm-3.407-13.375L80.5,227.53c-1.607.4-2.217,1.306-2.194,2.318s.95,1.615,2.31,2Zm5.409,7.193c0-1.066-.927-1.615-2.248-2.04l.116,4.2c1.545-.34,2.187-1.19,2.156-2.163Z" transform="translate(-40.685 -82.451)" fill="#e0e0e0"/>
      <path id="Path_2382" data-name="Path 2382" d="M267.381,83.995a22.7,22.7,0,0,0,2.859-11.057A22.407,22.407,0,0,0,247.957,50.4a22.036,22.036,0,0,0-5.957.811,22.615,22.615,0,0,1,0,43.461,22.067,22.067,0,0,0,17.771-2.612l10.477,4.049Z" transform="translate(-79.031 -43.887)" fill="#ebebeb"/>
    </g>
    <g id="freepik--Floor--inject-3" transform="translate(36.14 371.766)">
      <path id="Path_2383" data-name="Path 2383" d="M365.8,469.019c0,.108-73.471.2-164.079.2s-164.094-.093-164.094-.2,73.455-.209,164.094-.209S365.8,468.9,365.8,469.019Z" transform="translate(-37.63 -468.81)" fill="#263238"/>
    </g>
    <g id="freepik--Characters--inject-3" transform="translate(93.571 69.798)">
      <path id="Path_2384" data-name="Path 2384" d="M147.964,437l.626,19.223,4.883,15.067a1.97,1.97,0,0,1-1.391,2.519h0a1.963,1.963,0,0,1-1.762-.409c-3.091-2.65-14.394-12.447-14.363-13.854,0-1.638-2.017-20.243-2.017-20.243Z" transform="translate(-116.957 -159.61)" fill="#0761e9"/>
      <path id="Path_2385" data-name="Path 2385" d="M152.646,480.031,136.42,464.47l.046.773a2.967,2.967,0,0,0,.811,1.885c1.3,1.36,4.968,5.053,13.529,12.455a1.963,1.963,0,0,0,1.816.409Z" transform="translate(-117.521 -165.856)" fill="#e0e0e0"/>
      <path id="Path_2386" data-name="Path 2386" d="M140.607,456.12a1.19,1.19,0,0,1,.409,1.545,1.136,1.136,0,0,1-1.545.425,1.252,1.252,0,0,1-.433-1.63,1.19,1.19,0,0,1,1.63-.263" transform="translate(-118.084 -163.927)" fill="#fff"/>
      <path id="Path_2387" data-name="Path 2387" d="M151.123,473.375c.108.046.487-.989,1.6-1.592a6.067,6.067,0,0,1,2.187-.549c0-.046-.232-.178-.688-.216a3.044,3.044,0,0,0-1.708.394,3.091,3.091,0,0,0-1.221,1.252C151.085,473.073,151.077,473.359,151.123,473.375Z" transform="translate(-120.859 -167.343)" fill="#263238"/>
      <path id="Path_2388" data-name="Path 2388" d="M153.088,476.846a14.436,14.436,0,0,1,1.653-.927,15.364,15.364,0,0,1,1.862-.34,2.156,2.156,0,0,0-2.009-.054A2.268,2.268,0,0,0,153.088,476.846Z" transform="translate(-121.309 -168.319)" fill="#263238"/>
      <path id="Path_2389" data-name="Path 2389" d="M147.59,469.273a20.737,20.737,0,0,1,2.465-1.592,19.789,19.789,0,0,1,2.812-.827,5.408,5.408,0,0,0-5.277,2.418Z" transform="translate(-120.061 -166.387)" fill="#263238"/>
      <path id="Path_2390" data-name="Path 2390" d="M146.71,462.138c.062.108,1.1-.394,2.472-.518s2.5.139,2.527,0a3.8,3.8,0,0,0-2.565-.448A3.863,3.863,0,0,0,146.71,462.138Z" transform="translate(-119.861 -165.093)" fill="#263238"/>
      <path id="Path_2391" data-name="Path 2391" d="M146.289,454.837a9.659,9.659,0,0,1,2.557-.61,9.388,9.388,0,0,1,2.581.5c0-.046-.193-.27-.649-.5a4.2,4.2,0,0,0-1.939-.417,4.272,4.272,0,0,0-1.924.495C146.475,454.559,146.258,454.8,146.289,454.837Z" transform="translate(-119.764 -163.432)" fill="#263238"/>
      <path id="Path_2392" data-name="Path 2392" d="M148.644,451.908a1.692,1.692,0,0,0,0-.773,5.146,5.146,0,0,0-.68-1.87,2.318,2.318,0,0,0-1.02-1.012.773.773,0,0,0-.881.224,1.252,1.252,0,0,0-.255.889,2.782,2.782,0,0,0,2.581,2.434,3.23,3.23,0,0,0,3.091-1.862,1.128,1.128,0,0,0,0-.935.773.773,0,0,0-.834-.363,2.727,2.727,0,0,0-1.228.726,5.593,5.593,0,0,0-1.229,1.545,1.7,1.7,0,0,0-.255.68,9.061,9.061,0,0,1,1.677-2.017,2.635,2.635,0,0,1,1.089-.61.417.417,0,0,1,.456.2.773.773,0,0,1-.039.61,2.9,2.9,0,0,1-2.689,1.592,2.426,2.426,0,0,1-2.218-2.04.9.9,0,0,1,.155-.626.417.417,0,0,1,.479-.131,2.017,2.017,0,0,1,.881.842A7.5,7.5,0,0,1,148.644,451.908Z" transform="translate(-119.654 -162.156)" fill="#263238"/>
      <path id="Path_2393" data-name="Path 2393" d="M196.238,440.508l-1,14.379s14.286,5.841,14.356,8.5l-27.947-.927.634-22.469Z" transform="translate(-127.804 -160.29)" fill="#0761e9"/>
      <path id="Path_2394" data-name="Path 2394" d="M187.854,457.33a1.151,1.151,0,0,0-.858,1.29,1.1,1.1,0,0,0,1.259.842,1.205,1.205,0,0,0,.873-1.36,1.136,1.136,0,0,0-1.4-.726" transform="translate(-129.017 -164.232)" fill="#e0e0e0"/>
      <path id="Path_2395" data-name="Path 2395" d="M181.65,468.424l.155-2.264,26.741,1.738s1.221.587,1.051,1.453Z" transform="translate(-127.804 -166.24)" fill="#e0e0e0"/>
      <path id="Path_2396" data-name="Path 2396" d="M199.076,459.072c0,.131-.7.17-1.383.587s-1.059.981-1.182.919.1-.834.943-1.329A1.636,1.636,0,0,1,199.076,459.072Z" transform="translate(-131.176 -164.599)" fill="#263238"/>
      <path id="Path_2397" data-name="Path 2397" d="M203.015,460.782c0,.131-.572.348-1.059.912s-.634,1.167-.773,1.151-.193-.773.417-1.468S203.015,460.651,203.015,460.782Z" transform="translate(-132.225 -165.003)" fill="#263238"/>
      <path id="Path_2398" data-name="Path 2398" d="M205.537,464.727c-.124,0-.294-.657.085-1.4s1.02-1.012,1.074-.9-.348.5-.649,1.113S205.676,464.719,205.537,464.727Z" transform="translate(-133.202 -165.387)" fill="#263238"/>
      <path id="Path_2399" data-name="Path 2399" d="M198.8,454.673c-.062.124-.68-.085-1.453-.054s-1.383.247-1.453.124.525-.587,1.437-.6S198.873,454.573,198.8,454.673Z" transform="translate(-131.042 -163.507)" fill="#263238"/>
      <path id="Path_2400" data-name="Path 2400" d="M198.611,450.374a2.542,2.542,0,0,1-1.429-.054,6.1,6.1,0,0,1-1.453-.495,6.441,6.441,0,0,1-.773-.456,1.546,1.546,0,0,1-.41-.34.587.587,0,0,1-.039-.726.773.773,0,0,1,.61-.294,1.953,1.953,0,0,1,.518.085,5.407,5.407,0,0,1,.865.332,4.876,4.876,0,0,1,1.259.889c.626.626.834,1.136.773,1.167s-.371-.394-1.012-.912a5.33,5.33,0,0,0-1.221-.773,5.058,5.058,0,0,0-.773-.27c-.294-.093-.549-.1-.626,0s-.039.069,0,.155a1.545,1.545,0,0,0,.3.255,8.294,8.294,0,0,0,.726.44,7.362,7.362,0,0,0,1.337.564,11.2,11.2,0,0,1,1.344.433Z" transform="translate(-130.703 -162.114)" fill="#263238"/>
      <path id="Path_2401" data-name="Path 2401" d="M199.513,450.024a2.318,2.318,0,0,1-.325-1.368,4.729,4.729,0,0,1,.626-2.364,1.151,1.151,0,0,1,.919-.672.657.657,0,0,1,.572.409,1.784,1.784,0,0,1,.124.518,2.944,2.944,0,0,1,0,.943,3.152,3.152,0,0,1-.641,1.422c-.572.711-1.143.858-1.159.773s.44-.317.889-1a3.3,3.3,0,0,0,.487-1.3,3.168,3.168,0,0,0,0-.811c-.039-.3-.139-.541-.255-.518a.97.97,0,0,0-.5.448,4.433,4.433,0,0,0-.371.773,4.93,4.93,0,0,0-.317,1.391C199.458,449.491,199.59,450.009,199.513,450.024Z" transform="translate(-131.79 -161.57)" fill="#263238"/>
      <path id="Path_2402" data-name="Path 2402" d="M126.17,255.469l4.126,154.56,22.051-.657L157.6,250.2Z" transform="translate(-115.191 -117.141)" fill="#263238"/>
      <path id="Path_2403" data-name="Path 2403" d="M178.778,249.86s16.365,65.52,16.867,76.693-3.5,81.035-3.5,81.035H170.557l1.808-79.582L156,260.739l3.964-10.531Z" transform="translate(-121.973 -117.063)" fill="#263238"/>
      <path id="Path_2404" data-name="Path 2404" d="M166.992,260.27a.95.95,0,0,1,0,.216v.61c0,.572-.046,1.352-.085,2.357-.093,2.071-.232,5.022-.394,8.654-.379,7.332-.9,17.415-1.468,28.588s-1.174,21.209-1.545,28.542c-.216,3.631-.4,6.575-.525,8.654-.07,1-.124,1.785-.162,2.318a5.243,5.243,0,0,1-.054.61.878.878,0,0,1,0,.209.852.852,0,0,1,0-.209v-.61c0-.572.054-1.36.093-2.357.093-2.071.232-5.022.394-8.654.379-7.332.9-17.415,1.46-28.588s1.174-21.209,1.584-28.542c.216-3.631.394-6.575.525-8.646.07-1,.124-1.785.162-2.357a5.411,5.411,0,0,1,.054-.61A.556.556,0,0,1,166.992,260.27Z" transform="translate(-123.508 -119.43)" fill="#455a64"/>
      <path id="Path_2405" data-name="Path 2405" d="M157.529,140.524s8.012,39.745,8.128,50.94,4.049,33.077,4.049,33.077H135.045l-.773-60.552L131.8,145.933l5.208-7.433Z" transform="translate(-116.471 -91.745)" fill="#f5f5f5"/>
      <path id="Path_2406" data-name="Path 2406" d="M165.65,142.63s8.275,2.434,10.462,5.493c1.723,2.418,4.056,48.128,4.056,48.128l3.523,40.27-3.469-.325-4.9-15.074Z" transform="translate(-124.167 -92.684)" fill="#0761e9"/>
      <path id="Path_2407" data-name="Path 2407" d="M179.19,149.74l23.365,21.441,28.75-9.318,5.733,12.076-30.682,13.908c-4.381,1.87-7.132.842-10.176-1.6L180.086,173.36Z" transform="translate(-127.245 -94.3)" fill="#0761e9"/>
      <path id="Path_2408" data-name="Path 2408" d="M239.37,170.313a.641.641,0,0,1-.263.858.626.626,0,0,1-.85-.263.618.618,0,0,1,.255-.85A.641.641,0,0,1,239.37,170.313Z" transform="translate(-140.656 -98.903)" fill="#263238"/>
      <path id="Path_2409" data-name="Path 2409" d="M238.808,171.267a.533.533,0,0,1-.193,0,.649.649,0,0,1-.386-.317.68.68,0,0,1-.046-.495.664.664,0,0,1,.811-.433.657.657,0,0,1,.386.317.649.649,0,0,1,.046.494.634.634,0,0,1-.317.386A.6.6,0,0,1,238.808,171.267Zm0-1.259a.649.649,0,0,0-.286.07.626.626,0,0,0-.294.363.609.609,0,0,0,.873.711.587.587,0,0,0,.294-.355.626.626,0,0,0-.046-.471.61.61,0,0,0-.541-.324Z" transform="translate(-140.651 -98.906)" fill="#263238"/>
      <path id="Path_2410" data-name="Path 2410" d="M242.49,169.572a.641.641,0,0,1-.263.858.626.626,0,0,1-.85-.263.618.618,0,0,1,.255-.85.626.626,0,0,1,.858.255Z" transform="translate(-141.366 -98.733)" fill="#263238"/>
      <path id="Path_2411" data-name="Path 2411" d="M241.928,170.526a.533.533,0,0,1-.193,0,.649.649,0,0,1-.386-.317.652.652,0,0,1,1.151-.61.649.649,0,0,1,.046.494.657.657,0,0,1-.317.386.7.7,0,0,1-.3.046Zm0-1.267a.664.664,0,0,0-.286.077.61.61,0,0,0-.247.827.579.579,0,0,0,.363.294.61.61,0,1,0,.348-1.167.657.657,0,0,0-.185-.031Z" transform="translate(-141.36 -98.737)" fill="#263238"/>
      <path id="Path_2412" data-name="Path 2412" d="M245.451,168.972a.626.626,0,0,1-.255.858.641.641,0,0,1-.858-.263.626.626,0,0,1,.263-.85.618.618,0,0,1,.85.255Z" transform="translate(-142.04 -98.597)" fill="#263238"/>
      <path id="Path_2413" data-name="Path 2413" d="M244.9,169.929a.534.534,0,0,1-.193,0,.649.649,0,0,1-.433-.773.618.618,0,0,1,.317-.379.649.649,0,0,1,.881.263h0a.657.657,0,0,1-.27.881.7.7,0,0,1-.3.008Zm0-1.259a.649.649,0,0,0-.286.07.61.61,0,0,0-.247.827.579.579,0,0,0,.355.294.626.626,0,0,0,.471-.046.61.61,0,0,0,.247-.827h0a.61.61,0,0,0-.549-.317Z" transform="translate(-142.038 -98.604)" fill="#263238"/>
      <path id="Path_2414" data-name="Path 2414" d="M247.01,165.971l2.225-.811,5.107,10.755-2.171.927Z" transform="translate(-142.664 -97.806)" fill="#e0e0e0"/>
      <path id="Path_2415" data-name="Path 2415" d="M180.148,160.71a6.953,6.953,0,0,1,.131,1.2c.085.85.2,1.947.34,3.276.317,2.836.773,6.614,1.221,10.817s.842,8.043,1.012,10.817c.093,1.391.131,2.519.139,3.3a5.85,5.85,0,0,1-.039,1.205,7.093,7.093,0,0,1-.116-1.2c-.054-.773-.139-1.9-.27-3.284-.247-2.766-.657-6.591-1.128-10.817s-.873-8.036-1.1-10.817c-.116-1.391-.178-2.519-.209-3.3a6.056,6.056,0,0,1,.023-1.2Z" transform="translate(-127.453 -96.795)" fill="#263238"/>
      <path id="Path_2416" data-name="Path 2416" d="M185.795,167.65a44.933,44.933,0,0,1-1.468,5.764,45.32,45.32,0,0,1-1.847,5.648,44.039,44.039,0,0,1,1.46-5.764A44.042,44.042,0,0,1,185.795,167.65Z" transform="translate(-127.993 -98.372)" fill="#263238"/>
      <path id="Path_2417" data-name="Path 2417" d="M208.852,184.689a2.442,2.442,0,0,1-.518-1.02,7.394,7.394,0,0,1,.34-5.408,2.573,2.573,0,0,1,.641-.95,10.169,10.169,0,0,0-.464,7.379Z" transform="translate(-133.79 -100.569)" fill="#263238"/>
      <path id="Path_2418" data-name="Path 2418" d="M205.332,219.01l2.99.232-1.182,12.47-2.89-.324Z" transform="translate(-132.942 -110.049)" fill="#e0e0e0"/>
      <path id="Path_2419" data-name="Path 2419" d="M132.5,139.62,116.372,149.9a10.462,10.462,0,0,0-3.863,11.876l12.362,38.856-4.458,35.31,35.341-1.5-.865-15.453-3-27.692a54.858,54.858,0,0,0-3.794-14.943Z" transform="translate(-111.96 -92)" fill="#0761e9"/>
      <path id="Path_2420" data-name="Path 2420" d="M116.412,166.831l16.125,33.749a9.983,9.983,0,0,0,6.707,5.409L184,216.59l1.144-13.027L150.98,190.745,133.8,157.768a9.813,9.813,0,0,0-13.769-3.863h0A9.8,9.8,0,0,0,116.412,166.831Z" transform="translate(-112.719 -94.927)" fill="#0761e9"/>
      <path id="Path_2421" data-name="Path 2421" d="M186.4,203.763a.6.6,0,0,1-.185-.046l-.525-.178-2.024-.726-7.495-2.758-25.258-9.442h-.07v-.077l-2.975-5.888c-2.8-5.455-5.586-10.593-8.2-15.229-1.306-2.318-2.565-4.5-3.755-6.544l-1.731-2.951c-.278-.479-.556-.935-.85-1.36a11.4,11.4,0,0,0-.912-1.221,10.74,10.74,0,0,0-4.3-3.091,9.7,9.7,0,0,0-3.964-.711,7.023,7.023,0,0,0-3.322.889.918.918,0,0,1,.185-.131,3.393,3.393,0,0,1,.595-.332,7.078,7.078,0,0,1,2.534-.579,9.813,9.813,0,0,1,4.049.649,10.987,10.987,0,0,1,4.435,3.145,11.591,11.591,0,0,1,.943,1.236c.309.44.595.9.865,1.375l1.754,2.936q1.808,3.091,3.794,6.537c2.627,4.636,5.409,9.759,8.236,15.221,1.028,2.017,2.032,4,2.967,5.9l-.108-.1,25.211,9.565,7.448,2.867,2,.773.518.209Z" transform="translate(-113.979 -95.126)" fill="#263238"/>
      <path id="Path_2422" data-name="Path 2422" d="M195.477,228.914a.634.634,0,1,1-.634-.634.634.634,0,0,1,.634.634Z" transform="translate(-130.66 -112.157)" fill="#263238"/>
      <path id="Path_2423" data-name="Path 2423" d="M194.809,229.558a.649.649,0,1,1,.649-.649.649.649,0,0,1-.649.649Zm0-1.259a.61.61,0,1,0,.61.61.61.61,0,0,0-.61-.61Z" transform="translate(-130.648 -112.152)" fill="#263238"/>
      <path id="Path_2424" data-name="Path 2424" d="M198.627,229.734a.634.634,0,1,1-.634-.634.634.634,0,0,1,.634.634Z" transform="translate(-131.376 -112.343)" fill="#263238"/>
      <path id="Path_2425" data-name="Path 2425" d="M197.939,230.378a.649.649,0,1,1,.649-.649A.657.657,0,0,1,197.939,230.378Zm0-1.259a.61.61,0,1,0,.61.61.61.61,0,0,0-.61-.61Z" transform="translate(-131.36 -112.339)" fill="#263238"/>
      <circle id="Ellipse_81" data-name="Ellipse 81" cx="0.634" cy="0.634" r="0.634" transform="translate(68.186 117.429)" fill="#263238"/>
      <path id="Path_2426" data-name="Path 2426" d="M200.809,231.248a.649.649,0,1,1,.649-.649A.657.657,0,0,1,200.809,231.248Zm0-1.259a.61.61,0,1,0,.61.61A.61.61,0,0,0,200.809,229.989Z" transform="translate(-132.013 -112.537)" fill="#263238"/>
      <path id="Path_2427" data-name="Path 2427" d="M185.246,222.7a.673.673,0,0,1-.216,0l-.626-.139-2.411-.579-8.855-2.179c-7.471-1.831-17.771-4.427-29.221-7.077-1.429-.34-2.843-.61-4.242-.989a9.45,9.45,0,0,1-3.825-1.908,11.211,11.211,0,0,1-2.318-3.4l-1.684-3.523-5.818-12.231-3.863-8.252c-.433-.958-.773-1.708-1.028-2.248l-.263-.595a1.1,1.1,0,0,1-.077-.2,1.867,1.867,0,0,1,.116.185c.07.124.17.34.294.572l1.1,2.225c.95,1.963,2.318,4.752,3.987,8.19s3.655,7.6,5.864,12.185c.549,1.144,1.12,2.318,1.692,3.516a11.1,11.1,0,0,0,2.264,3.276,9.009,9.009,0,0,0,3.67,1.816c1.368.371,2.8.641,4.226.981,11.443,2.658,21.742,5.293,29.2,7.193,3.7.974,6.707,1.754,8.824,2.318l2.387.657.618.178Z" transform="translate(-113.97 -101.039)" fill="#263238"/>
      <path id="Path_2428" data-name="Path 2428" d="M152.628,232.72a4.637,4.637,0,0,1-.533.448c-.363.27-.881.641-1.545,1.089a25.128,25.128,0,0,1-5.563,2.89,12.8,12.8,0,0,1-6.228.626,8.438,8.438,0,0,1-1.839-.533,1.854,1.854,0,0,1-.61-.332,20.155,20.155,0,0,0,2.488.579,13.514,13.514,0,0,0,6.058-.719,30.2,30.2,0,0,0,5.54-2.751,18.708,18.708,0,0,1,2.233-1.3Z" transform="translate(-117.496 -113.166)" fill="#263238"/>
      <path id="Path_2429" data-name="Path 2429" d="M154.506,238.52a1.135,1.135,0,0,1,.108.286,7.185,7.185,0,0,1,.209.865,9.719,9.719,0,0,1,0,3.284,10.114,10.114,0,0,1-2.009,4.42,9.913,9.913,0,0,1-10.91,3.091,10.044,10.044,0,0,1-4.01-2.743,9.689,9.689,0,0,1-1.731-2.789,8.149,8.149,0,0,1-.27-.85c-.046-.193-.07-.3-.054-.3a11.745,11.745,0,0,0,2.264,3.747,9.967,9.967,0,0,0,3.925,2.581,9.658,9.658,0,0,0,10.493-2.928,9.968,9.968,0,0,0,2.017-4.242A11.76,11.76,0,0,0,154.506,238.52Z" transform="translate(-117.388 -114.485)" fill="#263238"/>
      <path id="Path_2430" data-name="Path 2430" d="M140.788,95.693l.1,28.789a8.561,8.561,0,0,0,9.017,8.5h0a8.576,8.576,0,0,0,8.113-8.553v-4.2s7.325-.711,7.827-7.966c.247-3.508.155-10.771,0-17.346A13.537,13.537,0,0,0,153.073,81.7h-.7C144.813,81.669,140.563,88.113,140.788,95.693Z" transform="translate(-118.512 -78.831)" fill="#b78876"/>
      <path id="Path_2431" data-name="Path 2431" d="M160.37,130.46a16.929,16.929,0,0,1-9.31-3.23s1.939,5.354,9.218,5.107Z" transform="translate(-120.849 -89.183)" fill="#aa6550"/>
      <path id="Path_2432" data-name="Path 2432" d="M170.288,104.017a1.043,1.043,0,0,1-1.066.989.989.989,0,0,1-1.012-1,1.043,1.043,0,0,1,1.059-.989,1,1,0,0,1,1.02,1Z" transform="translate(-124.749 -83.678)" fill="#263238"/>
      <path id="Path_2433" data-name="Path 2433" d="M169.951,102.364c-.131.131-.889-.494-2-.556s-1.97.448-2.078.309.085-.3.456-.541a2.89,2.89,0,0,1,1.677-.417,2.7,2.7,0,0,1,1.584.618C169.92,102.055,170.02,102.31,169.951,102.364Z" transform="translate(-124.21 -83.254)" fill="#263238"/>
      <path id="Path_2434" data-name="Path 2434" d="M156.251,103.907a1.035,1.035,0,0,1-1.059.989.989.989,0,0,1-1.012-1,1.035,1.035,0,0,1,1.059-.989.989.989,0,0,1,1.012,1Z" transform="translate(-121.559 -83.653)" fill="#263238"/>
      <path id="Path_2435" data-name="Path 2435" d="M155.578,102.043c-.139.124-.889-.5-2.009-.564s-1.963.456-2.078.309.093-.3.464-.541a2.8,2.8,0,0,1,1.669-.41,2.751,2.751,0,0,1,1.592.61C155.539,101.734,155.64,101.981,155.578,102.043Z" transform="translate(-120.94 -83.181)" fill="#263238"/>
      <path id="Path_2436" data-name="Path 2436" d="M161.36,111.006a7.417,7.417,0,0,1,1.831-.224c.286,0,.564-.054.618-.247a1.46,1.46,0,0,0-.139-.85c-.232-.711-.471-1.445-.719-2.225a32.178,32.178,0,0,1-1.545-5.779,34.491,34.491,0,0,1,2.032,5.64c.232.773.464,1.545.68,2.233a1.63,1.63,0,0,1,.085,1.128.719.719,0,0,1-.494.386,1.862,1.862,0,0,1-.487,0,7.24,7.24,0,0,1-1.862-.062Z" transform="translate(-123.191 -83.374)" fill="#263238"/>
      <path id="Path_2437" data-name="Path 2437" d="M155.863,99.116c-.131.3-1.236.093-2.55.178s-2.4.379-2.557.093c-.07-.131.131-.409.572-.68a4.211,4.211,0,0,1,1.924-.549,4.273,4.273,0,0,1,1.97.348C155.693,98.722,155.917,98.977,155.863,99.116Z" transform="translate(-120.777 -82.571)" fill="#263238"/>
      <path id="Path_2438" data-name="Path 2438" d="M169.885,98.906c-.209.24-.966-.07-1.885-.131s-1.715.07-1.885-.2c-.07-.131.07-.379.425-.6a2.751,2.751,0,0,1,3.036.27C169.885,98.52,170.009,98.783,169.885,98.906Z" transform="translate(-124.268 -82.455)" fill="#263238"/>
      <path id="Path_2439" data-name="Path 2439" d="M139.679,106.713c-.124-.062-4.906-1.762-5.03,3.214s4.891,4.072,4.906,3.933S139.679,106.713,139.679,106.713Z" transform="translate(-117.118 -84.443)" fill="#b78876"/>
      <path id="Path_2440" data-name="Path 2440" d="M138.449,112.407a2.342,2.342,0,0,1-.232.124.85.85,0,0,1-.649,0,2.14,2.14,0,0,1-.943-1.947,2.874,2.874,0,0,1,.27-1.236,1.02,1.02,0,0,1,.672-.649.433.433,0,0,1,.5.255c.062.139,0,.24.054.247s.108-.085.077-.286a.587.587,0,0,0-.193-.317.641.641,0,0,0-.471-.139,1.221,1.221,0,0,0-.927.773,2.921,2.921,0,0,0-.332,1.375,2.241,2.241,0,0,0,1.213,2.179.95.95,0,0,0,.773-.108C138.441,112.523,138.472,112.415,138.449,112.407Z" transform="translate(-117.487 -84.914)" fill="#aa6550"/>
      <path id="Path_2441" data-name="Path 2441" d="M137.464,100.466a2.619,2.619,0,0,1,2.318,1.36c.278.726.309,1.545.587,2.264a1.762,1.762,0,0,0,1.738,1.275,1.545,1.545,0,0,0,1.1-1.074,4.28,4.28,0,0,0,.1-1.6c-.155-2.318-.518-4.636-.471-7.008a11.945,11.945,0,0,1,1.885-6.66,6.537,6.537,0,0,1,6-2.936c1.545.216,2.905,1.1,4.42,1.4A6.088,6.088,0,0,0,160.28,86.1a1.753,1.753,0,0,1,.247-.178,1.337,1.337,0,0,0,.564-1.545,1.313,1.313,0,0,0-.263-.494c-2.882-2.982-8.321-4.08-12.362-3.3a14.534,14.534,0,0,0-9.944,7.07c-1.939,3.67-1.731,8.932-.989,12.8" transform="translate(-117.653 -78.521)" fill="#263238"/>
      <path id="Path_2442" data-name="Path 2442" d="M157.94,114.88c.185,0,.185,1.2,1.221,2.055s2.318.726,2.318.9-.286.24-.834.247a2.975,2.975,0,0,1-1.947-.672,2.627,2.627,0,0,1-.943-1.723C157.685,115.174,157.824,114.872,157.94,114.88Z" transform="translate(-122.367 -86.375)" fill="#263238"/>
      <path id="Path_2443" data-name="Path 2443" d="M247.81,166.188s5.447-4.783,6.475-5.138,9.233-.5,9.782-.093,8.854,4.96,7.479,5.663-7.132-2.6-7.132-2.6l-.966.131s5.022,2.681,5.911,3.709.039,2.094-.9,1.653-5.246-2.921-5.586-2.828,4.59,2.975,5.045,3.516c.61.711.216,2.1-.734,1.7-.556-.232-5.1-3.245-5.1-3.245a45.456,45.456,0,0,1,3.678,3.361c.4.773-.371,1.476-1.167.989-.541-.332-2.882-2.635-3.608-3.091,0,0-.773-.062-1.986,1.205s-5.857,2.99-5.857,2.99Z" transform="translate(-142.846 -96.794)" fill="#b78876"/>
      <path id="Path_2444" data-name="Path 2444" d="M275.16,167.527a4.373,4.373,0,0,1-1.762-.108,10.261,10.261,0,0,1-1.847-.556c-.641-.309-1.344-.665-2.086-1.043l-1.545-.773h.108a26.483,26.483,0,0,1-4.219-.116,24.426,24.426,0,0,1,4.211-.3h.1l1.545.773,2.017,1.059a12.12,12.12,0,0,0,1.754.618C274.5,167.388,275.168,167.457,275.16,167.527Z" transform="translate(-146.484 -97.685)" fill="#aa6550"/>
      <path id="Path_2445" data-name="Path 2445" d="M250.43,168.478a1.847,1.847,0,0,0,2.047.7c.773-.162,1.445-.572,2.187-.773,2.233-.641,4.713.549,6.907-.2.309-.108.649-.332.618-.649s-.371-.448-.657-.541l-7.325-2.318" transform="translate(-143.442 -97.702)" fill="#b78876"/>
      <path id="Path_2446" data-name="Path 2446" d="M254.2,164.66a2.882,2.882,0,0,1,.819.17c.518.139,1.259.355,2.179.626l3.214.974.927.286c.294.116.719.139,1,.595a.641.641,0,0,1-.116.711,1.329,1.329,0,0,1-.525.348,4.938,4.938,0,0,1-1.113.247,29.707,29.707,0,0,1-4.134-.224,5.888,5.888,0,0,0-1.723.162c-.518.139-1,.371-1.453.533a2.7,2.7,0,0,1-2.318,0c-.495-.286-.572-.641-.556-.634a2.319,2.319,0,0,0,.634.487,2.635,2.635,0,0,0,2.148-.155,15.566,15.566,0,0,1,1.468-.595,5.918,5.918,0,0,1,1.839-.216,34.586,34.586,0,0,0,4.072.193,5.071,5.071,0,0,0,1-.224c.3-.108.51-.325.417-.464a1.546,1.546,0,0,0-.773-.379l-.927-.3-3.183-1.066c-.9-.309-1.638-.564-2.14-.773A2.936,2.936,0,0,1,254.2,164.66Z" transform="translate(-143.434 -97.693)" fill="#aa6550"/>
      <path id="Path_2447" data-name="Path 2447" d="M206.882,219.136l9.032-.9s11.945,8.182,10.817,9.983-3.091,0-3.091,0,2.125,2.619-1.314,3.438c0,0-.819,1.8-2.125,1.638h-.819s-.773,2.279-1.847,1.785a38.516,38.516,0,0,1-4.435-3.431l-9.272-.819Z" transform="translate(-132.847 -109.874)" fill="#b78876"/>
      <path id="Path_2448" data-name="Path 2448" d="M214.116,231.41s-2.318.889-2.789,1.823-.773,3.091.726,3.516a13.689,13.689,0,0,0,2.635-.085l-.572-2.434a17.214,17.214,0,0,1,1.375-1.422C215.986,232.4,215.445,230.8,214.116,231.41Z" transform="translate(-134.464 -112.837)" fill="#ffbe9d"/>
      <path id="Path_2449" data-name="Path 2449" d="M217.536,233.01s-2.318.889-2.789,1.816a2.04,2.04,0,0,0,1.329,2.89,10.708,10.708,0,0,0,2.387-.077l-.247-.471c-.464-.912-.664-1.653.155-2.264a5.39,5.39,0,0,0,.541-.494,1.012,1.012,0,0,0-1.375-1.4Z" transform="translate(-135.28 -113.201)" fill="#ffbe9d"/>
      <path id="Path_2450" data-name="Path 2450" d="M219.034,238.147a1.36,1.36,0,0,1-.185-1.592,2.2,2.2,0,0,1,1.36-.989,1.012,1.012,0,0,1,1.059.17.912.912,0,0,1,.147.7,3.67,3.67,0,0,1-.943,1.692c-.216.27-.479.564-.827.556s-.6-.332-.773-.626" transform="translate(-136.222 -113.795)" fill="#ffbe9d"/>
      <path id="Path_2451" data-name="Path 2451" d="M155.569,144.445l2.032-.765,1.754,3.145-.981,3.361-2.071.51-2.063-2.6Z" transform="translate(-121.572 -92.923)" fill="#0761e9"/>
      <path id="Path_2452" data-name="Path 2452" d="M156.91,152.61s2.635,14.456,4.821,24.624c0,0,1.8,8.5,2.527,10.415a27.67,27.67,0,0,0,3.315,5.409l2.542.989-1.545-14.286L158.988,152.1Z" transform="translate(-122.18 -94.837)" fill="#0761e9"/>
      <g id="Group_59" data-name="Group 59" transform="translate(32.668 50.757)" opacity="0.4">
        <path id="Path_2453" data-name="Path 2453" d="M155.569,144.445l2.032-.765,1.754,3.145-.981,3.361-2.071.51-2.063-2.6Z" transform="translate(-154.24 -143.68)"/>
      </g>
      <g id="Group_60" data-name="Group 60" transform="translate(34.73 57.263)" opacity="0.4">
        <path id="Path_2454" data-name="Path 2454" d="M156.91,152.61s2.635,14.456,4.821,24.624c0,0,2.063,8.391,2.527,10.415.27,1.2,3.315,5.409,3.315,5.409l2.542.989-1.545-14.286L158.988,152.1Z" transform="translate(-156.91 -152.1)"/>
      </g>
      <path id="Path_2455" data-name="Path 2455" d="M139.728,133.3l12.192,8.785-2.635,7.247-11.1-11.42Z" transform="translate(-117.923 -90.563)" fill="#f5f5f5"/>
      <path id="Path_2456" data-name="Path 2456" d="M158.59,141.443l3.4-7.6,1.932,6.274L161.24,146.7Z" transform="translate(-122.561 -90.685)" fill="#f5f5f5"/>
      <path id="Path_2457" data-name="Path 2457" d="M152.037,143.267a2.318,2.318,0,0,1-.139.556l-.494,1.545c-.433,1.29-1.066,3.091-1.831,5.239l-.1.294-.216-.232-2.836-3.137c-2.21-2.449-4.2-4.682-5.609-6.313l-1.669-1.947a4.412,4.412,0,0,1-.572-.773,4.636,4.636,0,0,1,.688.649L141.019,141c1.476,1.545,3.492,3.786,5.694,6.235,1,1.113,1.947,2.179,2.828,3.152l-.317.062c.773-2.117,1.468-3.917,1.963-5.192l.595-1.476a2.024,2.024,0,0,1,.255-.518Z" transform="translate(-118.01 -91.745)" fill="#263238"/>
      <path id="Path_2458" data-name="Path 2458" d="M163.93,142a9.155,9.155,0,0,1-.572,1.777c-.394,1.074-.974,2.557-1.638,4.18l-.286.7-.2.487-.17-.494a33.609,33.609,0,0,0-2.434-4.991,5.037,5.037,0,0,1,1.02,1.267,16.79,16.79,0,0,1,1.793,3.593h-.379c.093-.232.193-.464.286-.7.664-1.63,1.283-3.091,1.746-4.141A8.059,8.059,0,0,1,163.93,142Z" transform="translate(-122.571 -92.541)" fill="#263238"/>
      <path id="Path_2459" data-name="Path 2459" d="M362.11,438.07l4.7,18.652,7.974,13.684a1.97,1.97,0,0,1-.827,2.758h0a1.947,1.947,0,0,1-1.8,0c-3.585-1.932-16.72-9.11-17-10.493-.309-1.6-6.266-19.316-6.266-19.316Z" transform="translate(-165.827 -159.854)" fill="#0761e9"/>
      <g id="Group_61" data-name="Group 61" transform="translate(189.028 301.542)" opacity="0.6">
        <path id="Path_2460" data-name="Path 2460" d="M375.741,480.027,356.61,468.26l.216.773a2.967,2.967,0,0,0,1.19,1.669c1.545,1.059,5.934,3.863,15.862,9.272a1.986,1.986,0,0,0,1.862,0Z" transform="translate(-356.61 -468.26)" fill="#fff"/>
      </g>
      <g id="Group_62" data-name="Group 62" transform="translate(189.695 294.462)" opacity="0.6">
        <path id="Path_2461" data-name="Path 2461" d="M358.954,459.145a1.19,1.19,0,0,1,.734,1.414,1.143,1.143,0,0,1-1.4.734,1.252,1.252,0,0,1-.773-1.5,1.182,1.182,0,0,1,1.545-.6" transform="translate(-357.474 -459.095)" fill="#fff"/>
      </g>
      <path id="Path_2462" data-name="Path 2462" d="M372.981,473.644a5.958,5.958,0,0,1,1.221-1.893,6.182,6.182,0,0,1,2.024-1c0-.046-.27-.124-.719-.07a3.168,3.168,0,0,0-2.519,2.233C372.873,473.366,372.919,473.644,372.981,473.644Z" transform="translate(-171.29 -167.264)" fill="#263238"/>
      <path id="Path_2463" data-name="Path 2463" d="M375.574,476.649c.116.062.541-.711,1.422-1.252a17.657,17.657,0,0,1,1.746-.734,2.187,2.187,0,0,0-1.97.379C375.775,475.676,375.466,476.626,375.574,476.649Z" transform="translate(-171.889 -168.153)" fill="#263238"/>
      <path id="Path_2464" data-name="Path 2464" d="M368.67,470.257a10.091,10.091,0,0,1,4.636-3.477,5.409,5.409,0,0,0-4.636,3.477Z" transform="translate(-170.324 -166.381)" fill="#263238"/>
      <path id="Path_2465" data-name="Path 2465" d="M366.2,463.592c.085.093.989-.618,2.318-1.028s2.465-.394,2.472-.518a3.778,3.778,0,0,0-2.6.108A3.863,3.863,0,0,0,366.2,463.592Z" transform="translate(-169.763 -165.264)" fill="#263238"/>
      <path id="Path_2466" data-name="Path 2466" d="M364.238,456.568a9.273,9.273,0,0,1,2.372-1.136,9.627,9.627,0,0,1,2.627-.07c0-.046-.247-.216-.773-.348a4.264,4.264,0,0,0-1.986,0,4.21,4.21,0,0,0-1.769.9C364.354,456.252,364.2,456.522,364.238,456.568Z" transform="translate(-169.315 -163.68)" fill="#263238"/>
      <path id="Path_2467" data-name="Path 2467" d="M365.9,453.187a1.646,1.646,0,0,0-.162-.711,5.093,5.093,0,0,0-1.066-1.684,2.272,2.272,0,0,0-1.213-.773.773.773,0,0,0-.811.409,1.244,1.244,0,0,0-.062.912,2.782,2.782,0,0,0,3.036,1.839,3.245,3.245,0,0,0,2.612-2.48,1.136,1.136,0,0,0-.2-.912.773.773,0,0,0-.889-.178,2.751,2.751,0,0,0-1.051.974,5.6,5.6,0,0,0-.865,1.793,1.738,1.738,0,0,0-.108.719,8.917,8.917,0,0,1,1.213-2.318,2.6,2.6,0,0,1,.935-.827.417.417,0,0,1,.487.1.773.773,0,0,1,.093.6,2.89,2.89,0,0,1-2.318,2.125,2.418,2.418,0,0,1-2.6-1.545.95.95,0,0,1,0-.641.425.425,0,0,1,.448-.232,2.047,2.047,0,0,1,1.035.634,7.442,7.442,0,0,1,1.491,2.194Z" transform="translate(-168.927 -162.461)" fill="#263238"/>
      <path id="Path_2468" data-name="Path 2468" d="M286.7,442.422l1,14.379s-14.279,5.841-14.356,8.5l27.947-.912-.626-22.469Z" transform="translate(-148.65 -160.729)" fill="#0761e9"/>
      <path id="Path_2469" data-name="Path 2469" d="M302.663,459.24a1.144,1.144,0,0,1,.834,1.283,1.1,1.1,0,0,1-1.259.85,1.205,1.205,0,0,1-.873-1.36,1.144,1.144,0,0,1,1.406-.726" transform="translate(-155.018 -164.666)" fill="#e0e0e0"/>
      <path id="Path_2470" data-name="Path 2470" d="M301.282,470.334l-.147-2.264-26.741,1.738s-1.229.587-1.059,1.46Z" transform="translate(-148.646 -166.674)" fill="#e0e0e0"/>
      <path id="Path_2471" data-name="Path 2471" d="M291.33,460.96c0,.131.7.178,1.375.587s1.066.981,1.19.927-.108-.842-.943-1.337S291.3,460.851,291.33,460.96Z" transform="translate(-152.74 -165.026)" fill="#263238"/>
      <path id="Path_2472" data-name="Path 2472" d="M287.59,462.693c0,.139.572.348,1.051.912s.641,1.167.773,1.159.2-.773-.417-1.476S287.59,462.569,287.59,462.693Z" transform="translate(-151.89 -165.438)" fill="#263238"/>
      <path id="Path_2473" data-name="Path 2473" d="M285.237,466.647c.131,0,.294-.664-.077-1.4s-1.028-1.012-1.082-.9.355.5.657,1.1S285.106,466.632,285.237,466.647Z" transform="translate(-151.091 -165.823)" fill="#263238"/>
      <path id="Path_2474" data-name="Path 2474" d="M291.508,456.591c.062.116.68-.093,1.453-.062s1.383.247,1.445.131-.525-.587-1.437-.61S291.431,456.482,291.508,456.591Z" transform="translate(-152.78 -163.941)" fill="#263238"/>
      <path id="Path_2475" data-name="Path 2475" d="M291.32,452.3a2.744,2.744,0,0,0,1.4-.054,6.345,6.345,0,0,0,1.445-.5,5.907,5.907,0,0,0,.773-.456,1.545,1.545,0,0,0,.417-.34.6.6,0,0,0,.039-.726.773.773,0,0,0-.61-.294,1.732,1.732,0,0,0-.525.093,4.7,4.7,0,0,0-.858.325,4.877,4.877,0,0,0-1.259.888c-.634.626-.834,1.144-.773,1.167s.363-.394,1-.912a5.682,5.682,0,0,1,1.229-.773,4.806,4.806,0,0,1,.773-.27c.294-.085.541-.1.626,0s0,.07,0,.155a1.358,1.358,0,0,1-.309.255,7.389,7.389,0,0,1-.726.448,8.6,8.6,0,0,1-1.329.564,8.4,8.4,0,0,0-1.313.433Z" transform="translate(-152.738 -162.55)" fill="#263238"/>
      <path id="Path_2476" data-name="Path 2476" d="M290.976,451.93a2.2,2.2,0,0,0,.324-1.36,4.636,4.636,0,0,0-.24-1.545,4.256,4.256,0,0,0-.386-.834,1.167,1.167,0,0,0-.912-.68.657.657,0,0,0-.572.409,1.824,1.824,0,0,0-.131.518,3.169,3.169,0,0,0,0,.943,3.229,3.229,0,0,0,.649,1.429c.572.7,1.143.85,1.151.773a7.463,7.463,0,0,1-.881-1,3.183,3.183,0,0,1-.487-1.3,2.85,2.85,0,0,1,0-.811c0-.294.139-.541.247-.51a1.068,1.068,0,0,1,.51.44,5.528,5.528,0,0,1,.371.773,4.929,4.929,0,0,1,.317,1.391C291.03,451.4,290.906,451.914,290.976,451.93Z" transform="translate(-152.216 -162)" fill="#263238"/>
      <path id="Path_2477" data-name="Path 2477" d="M280.76,240.14l4.5,167.324,22.051-.664-1.7-143.6,28.093,147.6,19.911-5.2-25.706-165.13Z" transform="translate(-150.337 -114.853)" fill="#263238"/>
      <path id="Path_2478" data-name="Path 2478" d="M296.341,411.411c-.116,0-.2-34.684-.2-77.465s.085-77.465.2-77.465.2,34.676.2,77.465S296.449,411.411,296.341,411.411Z" transform="translate(-153.834 -118.568)" fill="#455a64"/>
      <path id="Path_2479" data-name="Path 2479" d="M350.769,417.215c-.108,0-5.254-33.224-11.5-74.259s-11.234-74.321-11.1-74.336,5.254,33.224,11.5,74.274S350.885,417.2,350.769,417.215Z" transform="translate(-161.116 -121.328)" fill="#455a64"/>
      <path id="Path_2480" data-name="Path 2480" d="M312.708,98.642a33.711,33.711,0,0,0,1.862-5.324c.263-1.391.68-3.469.124-4.767a3.338,3.338,0,0,0-3.608-2.194,8.09,8.09,0,0,0-4.674-6.328,20.476,20.476,0,0,0-7.727-2.009,6.529,6.529,0,0,0-2.9.363,3.716,3.716,0,0,0-1.746,1.878,6.405,6.405,0,0,0-5.679-.9c-2.133.572-4.559,1.723-5.493,3.716a6.251,6.251,0,0,0-.162,4.721c.41,1.3,1.785,3.338,3.091,2.859" transform="translate(-150.692 -77.987)" fill="#263238"/>
      <path id="Path_2481" data-name="Path 2481" d="M302.832,136.938h0a9.542,9.542,0,0,1-9.333-10.044c.131-2.666.255-4.821.255-4.821s-7.278-.943-7.549-8.19.572-23.906.572-23.906h0a25.188,25.188,0,0,1,25.381,2.588l1.089.773-.672,34.236a9.55,9.55,0,0,1-9.743,9.364Z" transform="translate(-151.563 -80.193)" fill="#ffbe9d"/>
      <path id="Path_2482" data-name="Path 2482" d="M295.97,131.231a16.89,16.89,0,0,0,9.38-2.921s-2.233,5.617-9.48,5.146Z" transform="translate(-153.773 -89.428)" fill="#eb996e"/>
      <path id="Path_2483" data-name="Path 2483" d="M320.28,104.671c.124-.054,4.945-1.6,4.906,3.361s-5,3.9-5.007,3.755S320.28,104.671,320.28,104.671Z" transform="translate(-159.3 -83.992)" fill="#ffbe9d"/>
      <path id="Path_2484" data-name="Path 2484" d="M322.149,110.384a2.372,2.372,0,0,0,.232.131.834.834,0,0,0,.649,0,2.125,2.125,0,0,0,1-1.908,2.781,2.781,0,0,0-.24-1.236.981.981,0,0,0-.641-.664.433.433,0,0,0-.51.232c-.069.139-.039.232-.062.24s-.108-.077-.07-.286a.564.564,0,0,1,.2-.309.688.688,0,0,1,.479-.124,1.236,1.236,0,0,1,.9.773,2.844,2.844,0,0,1,.286,1.383,2.248,2.248,0,0,1-1.275,2.132.95.95,0,0,1-.773-.139C322.157,110.507,322.133,110.4,322.149,110.384Z" transform="translate(-159.746 -84.459)" fill="#eb996e"/>
      <path id="Path_2485" data-name="Path 2485" d="M289.39,105.038a1.043,1.043,0,0,0,1.028,1.02.989.989,0,0,0,1.043-.958,1.035,1.035,0,0,0-1.028-1.02,1,1,0,0,0-1.043.958Z" transform="translate(-152.299 -83.919)" fill="#263238"/>
      <path id="Path_2486" data-name="Path 2486" d="M289.057,103.485c.131.131.9-.464,2.017-.487s1.947.51,2.063.371-.077-.3-.44-.556a2.859,2.859,0,0,0-1.654-.464,2.72,2.72,0,0,0-1.6.564C289.1,103.184,289.01,103.431,289.057,103.485Z" transform="translate(-152.221 -83.526)" fill="#263238"/>
      <path id="Path_2487" data-name="Path 2487" d="M303.51,105.025a1.043,1.043,0,0,0,1.028,1.012.981.981,0,0,0,1.043-.958,1.035,1.035,0,0,0-1.02-1.02,1,1,0,0,0-1.051.966Z" transform="translate(-155.51 -83.915)" fill="#263238"/>
      <path id="Path_2488" data-name="Path 2488" d="M303.225,103.4c.139.131.9-.471,2.017-.494s1.947.51,2.063.371-.077-.3-.44-.549a2.82,2.82,0,0,0-1.654-.471,2.72,2.72,0,0,0-1.6.564C303.271,103.094,303.163,103.341,303.225,103.4Z" transform="translate(-155.441 -83.505)" fill="#263238"/>
      <path id="Path_2489" data-name="Path 2489" d="M297.422,111.817a7.5,7.5,0,0,0-1.816-.278c-.286,0-.556-.07-.61-.263a1.545,1.545,0,0,1,.17-.85c.255-.7.518-1.422.773-2.187a36.715,36.715,0,0,0,1.746-5.71,37.513,37.513,0,0,0-2.2,5.555l-.773,2.2a1.646,1.646,0,0,0-.124,1.12.773.773,0,0,0,.479.4,1.947,1.947,0,0,0,.487.054A6.869,6.869,0,0,0,297.422,111.817Z" transform="translate(-153.47 -83.567)" fill="#263238"/>
      <path id="Path_2490" data-name="Path 2490" d="M301.515,115.45c-.185,0-.155,1.2-1.167,2.086s-2.318.773-2.318.95.294.224.842.224a2.982,2.982,0,0,0,1.924-.726,2.619,2.619,0,0,0,.9-1.746C301.739,115.736,301.6,115.434,301.515,115.45Z" transform="translate(-154.264 -86.504)" fill="#263238"/>
      <path id="Path_2491" data-name="Path 2491" d="M302.718,97.837c.116.3,1.229.131,2.534.255s2.38.448,2.542.178c.077-.131-.116-.417-.549-.7a4.2,4.2,0,0,0-1.893-.61,4.281,4.281,0,0,0-1.978.278C302.935,97.451,302.672,97.691,302.718,97.837Z" transform="translate(-155.329 -82.297)" fill="#263238"/>
      <path id="Path_2492" data-name="Path 2492" d="M289.48,99.286c.2.247.958,0,1.885-.07s1.708.124,1.878-.139c.077-.131-.054-.386-.4-.618a2.727,2.727,0,0,0-3.029.178C289.488,98.9,289.388,99.163,289.48,99.286Z" transform="translate(-152.313 -82.556)" fill="#263238"/>
      <path id="Path_2493" data-name="Path 2493" d="M313.106,93.384c-.046,2.117.487,4.458.162,6.537-.046.317-.834,1.174-.9,1.483-.379,1.847-1.12,2.65-2.256.773a15.75,15.75,0,0,1-.943-3.554l-1.483-6.652a11.644,11.644,0,0,1-5.478,1.445,5.633,5.633,0,0,1-4.775-2.666,5.849,5.849,0,0,1-9.04,1.422,2.434,2.434,0,0,1-3.206.773,2.9,2.9,0,0,1-1.259-3.168c.456-1.777,2.318-2.782,4.072-3.346,6.838-2.2,14.5-.773,20.784,2.673a10.508,10.508,0,0,1,2.55,1.823c.726.773,1.731,1.638,1.785,2.689" transform="translate(-151.036 -79.668)" fill="#263238"/>
      <path id="Path_2494" data-name="Path 2494" d="M315,94.942a3.539,3.539,0,0,1,1.12.178,3.8,3.8,0,0,1,1.035.664c.355.309.7.711,1.128,1.1a3.709,3.709,0,0,0,1.406.889,2.519,2.519,0,0,0,1.375,0c.773-.216,1.066-.634,1.035-.664a7.771,7.771,0,0,1-1.1.371,2.387,2.387,0,0,1-1.19-.1,3.5,3.5,0,0,1-1.244-.819c-.4-.379-.773-.773-1.159-1.1a3.577,3.577,0,0,0-1.19-.649A1.338,1.338,0,0,0,315,94.942Z" transform="translate(-158.121 -81.797)" fill="#455a64"/>
      <path id="Path_2495" data-name="Path 2495" d="M316.069,97.773c0,.062.371,0,.773.348a4.418,4.418,0,0,1,.634.719,3.23,3.23,0,0,0,.943.873,3.392,3.392,0,0,0,2.256.479c.595-.093.9-.309.881-.355s-.363.046-.912.054a3.624,3.624,0,0,1-2-.541c-.711-.394-1.066-1.151-1.63-1.476S316.015,97.719,316.069,97.773Z" transform="translate(-158.364 -82.464)" fill="#455a64"/>
      <path id="Path_2496" data-name="Path 2496" d="M290.5,79.555a1.286,1.286,0,0,0-.641.062,2.735,2.735,0,0,0-1.391,1.051,6.63,6.63,0,0,0-.409,5.586,7.889,7.889,0,0,0,3.554,4.365,6.885,6.885,0,0,0,1.584.672,1.654,1.654,0,0,0,.626.108,21.932,21.932,0,0,1-2.04-1.043,8,8,0,0,1-3.3-4.242,6.654,6.654,0,0,1,.247-5.285,2.827,2.827,0,0,1,1.205-1.059C290.277,79.61,290.5,79.594,290.5,79.555Z" transform="translate(-151.904 -78.34)" fill="#455a64"/>
      <path id="Path_2497" data-name="Path 2497" d="M283.555,83.45a3.206,3.206,0,0,0,.062,1.4,8.661,8.661,0,0,0,3.67,5.517,3.23,3.23,0,0,0,1.267.6,14.241,14.241,0,0,1-3.3-3.23A14.255,14.255,0,0,1,283.555,83.45Z" transform="translate(-150.962 -79.229)" fill="#455a64"/>
      <path id="Path_2498" data-name="Path 2498" d="M228.038,214.14l-10.6.533a2.519,2.519,0,0,0-2.387,2.55c.054,2.426.464,5.741,2.318,5.408l1.205-5.277,8.8,7.726a6.39,6.39,0,0,0,3.168,1.545l2.071-.216Z" transform="translate(-135.398 -108.942)" fill="#ffbe9d"/>
      <path id="Path_2499" data-name="Path 2499" d="M295.03,140.079l-5.54,1.831-2.751,46.011V228.74l34.02,3.763.394-58.86-2.194-29.291-5.2-6.212Z" transform="translate(-151.697 -91.663)" fill="#e0e0e0"/>
      <path id="Path_2500" data-name="Path 2500" d="M295.26,141.361V136.9l20.22-2.812-.811,10.268-4.644,8.051-7.6.425-5.486-3.384Z" transform="translate(-153.634 -90.742)" fill="#e0e0e0"/>
      <path id="Path_2501" data-name="Path 2501" d="M297.561,141.634a5.231,5.231,0,0,1-.116-2.04,5.408,5.408,0,0,1,.286-2.024,5.231,5.231,0,0,1,.116,2.04,5.409,5.409,0,0,1-.286,2.024Z" transform="translate(-154.119 -91.534)" fill="#263238"/>
      <path id="Path_2502" data-name="Path 2502" d="M304.11,141.015a6.761,6.761,0,0,1-.07-2.279,6.513,6.513,0,0,1,.34-2.256,6.655,6.655,0,0,1,.062,2.318A6.367,6.367,0,0,1,304.11,141.015Z" transform="translate(-155.616 -91.286)" fill="#263238"/>
      <path id="Path_2503" data-name="Path 2503" d="M310.451,140.28a7.357,7.357,0,0,1,0-2.411,7.264,7.264,0,0,1,.379-2.38,7.617,7.617,0,0,1,0,2.411A7.51,7.51,0,0,1,310.451,140.28Z" transform="translate(-157.065 -91.061)" fill="#263238"/>
      <path id="Path_2504" data-name="Path 2504" d="M316.5,139.355a9.272,9.272,0,0,1,.209-4.535,8.446,8.446,0,0,1,0,2.272A8.639,8.639,0,0,1,316.5,139.355Z" transform="translate(-158.422 -90.908)" fill="#263238"/>
      <path id="Path_2505" data-name="Path 2505" d="M310.6,165.86a2.921,2.921,0,0,1-.27.773c-.193.479-.495,1.159-.889,1.993-.773,1.661-1.955,3.925-3.392,6.336s-2.866,4.528-3.956,6.011c-.541.773-.989,1.337-1.313,1.738a3.207,3.207,0,0,1-.541.595,27.345,27.345,0,0,1,1.623-2.5c1.028-1.545,2.411-3.647,3.863-6.05s2.635-4.636,3.485-6.266a28.588,28.588,0,0,1,1.391-2.635Z" transform="translate(-154.766 -97.965)" fill="#263238"/>
      <path id="Path_2506" data-name="Path 2506" d="M320.577,137.21l5.486,2.642,10.6,2.6a8.831,8.831,0,0,1,7.247,9.82l-5.555,43.268,6.629,41.955-26.27-.773-1.545-15.607V177.851Z" transform="translate(-158.615 -91.452)" fill="#455a64"/>
      <path id="Path_2507" data-name="Path 2507" d="M317.17,188.014a3.723,3.723,0,0,1,.077-.541c.077-.386.178-.889.3-1.545l1.167-5.579,4.01-18.366c.44-1.97.865-3.863,1.275-5.733l.054.185-1.823-1.908-.1-.108.077-.124,3.052-5.076v.147l-3.369-8.159c-.379-.95-.688-1.715-.912-2.318a5.336,5.336,0,0,1-.294-.819,4.207,4.207,0,0,1,.386.773l1,2.248,3.461,8.167.039.077-.046.077c-.935,1.545-1.947,3.284-3.021,5.107v-.232l1.823,1.893.077.077v.1c-.409,1.847-.834,3.763-1.267,5.733-1.607,7.147-3.091,13.614-4.126,18.343-.533,2.318-.974,4.2-1.29,5.555l-.371,1.5a2.689,2.689,0,0,1-.185.525Z" transform="translate(-158.615 -91.647)" fill="#263238"/>
      <path id="Path_2508" data-name="Path 2508" d="M232.44,196l23.241-12.957,11.257-30.373a16.326,16.326,0,0,1,9.017-9.38l2.99-1.244v79.961l.595,18.945-12.594-3.771,6.428-38.076-2.225-18.737-2.2,9.063a12.285,12.285,0,0,1-5.741,7.726l-24.153,12.548Z" transform="translate(-139.352 -92.552)" fill="#455a64"/>
      <path id="Path_2509" data-name="Path 2509" d="M232.225,212.64l-1.955.587,5.5,13.12,2.565-1Z" transform="translate(-138.858 -108.601)" fill="#e0e0e0"/>
      <path id="Path_2510" data-name="Path 2510" d="M266.731,200.562a16.923,16.923,0,0,0-1.738-2.944,17.254,17.254,0,0,0-2.573-2.248A6.506,6.506,0,0,1,266.731,200.562Z" transform="translate(-146.168 -104.675)" fill="#263238"/>
      <path id="Path_2511" data-name="Path 2511" d="M235.918,212.062a1.185,1.185,0,0,0-.131.379c-.015.224.131.487.44.394a.332.332,0,0,0,.155-.564c-.131-.185-.3-.193-.309-.255s.216-.17.51.046a.7.7,0,0,1,.263.564.68.68,0,0,1-.5.595.657.657,0,0,1-.834-.842C235.64,212.031,235.879,211.985,235.918,212.062Z" transform="translate(-140.04 -108.44)" fill="#263238"/>
      <path id="Path_2512" data-name="Path 2512" d="M238.34,211.042a1.064,1.064,0,0,0-.124.379c-.008.224.131.487.44.394a.34.34,0,0,0,.155-.572c-.131-.178-.3-.193-.317-.247s.216-.178.518.046a.68.68,0,0,1,.263.556.711.711,0,0,1-1.259.371.7.7,0,0,1-.077-.618C238.07,210.98,238.34,210.98,238.34,211.042Z" transform="translate(-140.593 -108.208)" fill="#263238"/>
      <path id="Path_2513" data-name="Path 2513" d="M291.577,190.138a2.108,2.108,0,0,1-.1-.487c-.054-.371-.131-.842-.216-1.429-.178-1.29-.417-3.091-.711-5.246-.572-4.481-1.344-10.593-2.2-17.338-.116-.958-.232-1.9-.348-2.836v-.093c.587-1.491,1.159-2.936,1.7-4.319v.147c-.587-1.337-1.151-2.619-1.677-3.863v-.116c1.035-3.716,1.9-6.846,2.519-9.1.309-1.066.556-1.916.734-2.55a5.9,5.9,0,0,1,.3-.9,6.125,6.125,0,0,1-.193.919c-.155.641-.371,1.507-.641,2.581-.587,2.264-1.406,5.409-2.372,9.14v-.116l1.708,3.817v.147l-1.692,4.365v-.1c.116.927.232,1.878.355,2.836.773,6.753,1.545,12.865,2.078,17.346.247,2.187.448,3.971.587,5.269l.139,1.429a2.053,2.053,0,0,1,.031.494Z" transform="translate(-151.983 -92.543)" fill="#263238"/>
      <path id="Path_2514" data-name="Path 2514" d="M283.912,205.156a2,2,0,0,1-.077-.379c-.039-.294-.093-.657-.155-1.089-.124-1.012-.286-2.372-.495-4.025-.409-3.4-.989-8.09-1.684-13.266s-1.375-9.859-1.87-13.243c-.24-1.646-.44-3.006-.587-4.01-.054-.44-.1-.773-.139-1.1a1.228,1.228,0,0,1,0-.386,1.884,1.884,0,0,1,.1.371c.062.294.131.649.216,1.082.178.943.425,2.318.711,3.995.572,3.376,1.3,8.051,1.993,13.235s1.228,9.882,1.545,13.289c.17,1.7.294,3.091.371,4.033,0,.44.054.773.07,1.1A1.229,1.229,0,0,1,283.912,205.156Z" transform="translate(-149.912 -98.375)" fill="#263238"/>
      <path id="Path_2515" data-name="Path 2515" d="M281.238,248.7a3.221,3.221,0,0,0,.533.649,2.472,2.472,0,0,0,2.125.479,3.585,3.585,0,0,0,2.318-2.264,14,14,0,0,0,.649-4.157,9.5,9.5,0,0,0-.425-4.149,7.587,7.587,0,0,0-2.109-2.658,9.853,9.853,0,0,1-1.607-1.754,2.009,2.009,0,0,1-.379-.773,8.477,8.477,0,0,0,.5.7,12.168,12.168,0,0,0,1.677,1.638,7.471,7.471,0,0,1,2.256,2.727,9.434,9.434,0,0,1,.487,4.311,13.714,13.714,0,0,1-.7,4.273,3.863,3.863,0,0,1-2.581,2.4,2.527,2.527,0,0,1-2.318-.634,1.877,1.877,0,0,1-.379-.541C281.238,248.758,281.223,248.7,281.238,248.7Z" transform="translate(-150.445 -113.473)" fill="#263238"/>
      <path id="Path_2516" data-name="Path 2516" d="M270.06,211.291s.773-8.862,7.788-9.681A10.368,10.368,0,0,1,270.06,211.291Z" transform="translate(-147.905 -106.093)" fill="#263238"/>
      <path id="Path_2517" data-name="Path 2517" d="M318.74,247.325l20.436,13.367,2.318-1.847,1.089-29.955-19.463-14.75-2.673.919Z" transform="translate(-158.972 -108.942)" fill="#0761e9"/>
      <path id="Path_2518" data-name="Path 2518" d="M323.09,214.69l.8,32.42h-4.3l1.437-31.779Z" transform="translate(-159.166 -109.067)" fill="#e0e0e0"/>
      <path id="Path_2519" data-name="Path 2519" d="M330.862,261.952a2.511,2.511,0,0,0,2.318,1.545.263.263,0,0,1,.17.147,2.318,2.318,0,0,0,1.939,1.205,4.142,4.142,0,0,0,2.194-.634c1.066-.649,2.967-4.914,2.967-4.914l4.5-10.044-7.572-2.048-9.627,3c0,.178-2.256,9.272-2.256,9.272a2.318,2.318,0,0,0,2.7-1.437,24.929,24.929,0,0,1,1.7-3.183l.719,4.1-2.743.935a1.823,1.823,0,0,0,1.174,2.086Z" transform="translate(-160.509 -116.461)" fill="#ffbe9d"/>
      <path id="Path_2520" data-name="Path 2520" d="M336.84,169.215l12.617,23.226-10.268,30.481,11.412,6.436,14.518-33.919a9.65,9.65,0,0,0-.124-7.85L347.224,149.35Z" transform="translate(-163.087 -94.212)" fill="#455a64"/>
      <path id="Path_2521" data-name="Path 2521" d="M339.566,244.57l-1.066,2.364,10.771,5.81,1.128-2.071Z" transform="translate(-163.465 -115.861)" fill="#e0e0e0"/>
      <path id="Path_2522" data-name="Path 2522" d="M338.116,222.669v-.155a2.54,2.54,0,0,1,.131-.448l.549-1.723c.5-1.545,1.213-3.7,2.094-6.405,1.823-5.47,4.365-13.089,7.271-21.812v.162c-1.468-2.5-2.982-5.13-4.5-7.85-2.782-4.968-5.331-9.759-7.518-14.186-1.082-2.217-2.086-4.335-2.936-6.367a12.7,12.7,0,0,1-1.051-6.019,13.815,13.815,0,0,1,1.12-4.922,9.642,9.642,0,0,1,2.233-3.091,7.332,7.332,0,0,1,2.009-1.329,4.527,4.527,0,0,1,.773-.286,8.862,8.862,0,0,0-2.689,1.731,9.426,9.426,0,0,0-2.133,3.091,13.783,13.783,0,0,0-1.051,4.844,12.578,12.578,0,0,0,1.074,5.872c.865,2.017,1.878,4.126,2.967,6.336,2.194,4.412,4.759,9.187,7.541,14.147,1.545,2.72,3.021,5.354,4.481,7.85l.046.077v.085c-2.967,8.708-5.548,16.311-7.41,21.765l-2.133,6.351c-.263.719-.464,1.283-.61,1.7l-.17.44a1.014,1.014,0,0,1-.085.139Z" transform="translate(-162.014 -93.959)" fill="#263238"/>
      <path id="Path_2523" data-name="Path 2523" d="M361.684,204.463a9.493,9.493,0,0,1-1.244-.44,8.893,8.893,0,0,0-6.127.193,9.123,9.123,0,0,1-1.213.518,2.936,2.936,0,0,1,1.1-.773,7.619,7.619,0,0,1,3.152-.773,7.541,7.541,0,0,1,3.191.587,2.951,2.951,0,0,1,1.143.688Z" transform="translate(-166.784 -106.451)" fill="#263238"/>
      <path id="Path_2524" data-name="Path 2524" d="M333.57,167.91l9.063,30.334,1.283-9.975Z" transform="translate(-162.344 -98.431)" fill="#263238"/>
      <path id="Path_2525" data-name="Path 2525" d="M352.863,245.013a1.063,1.063,0,0,0-.124.379c-.008.224.131.487.44.394a.34.34,0,0,0,.155-.572c-.131-.178-.3-.193-.309-.247s.209-.17.51.046a.68.68,0,0,1,.263.564.688.688,0,0,1-.51.595.672.672,0,0,1-.773-.232.688.688,0,0,1-.077-.61C352.554,244.974,352.863,244.974,352.863,245.013Z" transform="translate(-166.625 -115.932)" fill="#263238"/>
      <path id="Path_2526" data-name="Path 2526" d="M354,242.182a1.064,1.064,0,0,0-.124.386.348.348,0,1,0,.595-.178c-.131-.185-.309-.193-.317-.255s.216-.17.518.046a.7.7,0,0,1,.263.564.688.688,0,1,1-1.337-.247C353.73,242.151,354,242.128,354,242.182Z" transform="translate(-166.889 -115.288)" fill="#263238"/>
      <path id="Path_2527" data-name="Path 2527" d="M369.661,192.21c-1.352.711-1.823,2.7-1.669,4.226a36.5,36.5,0,0,1,.68,4.52,19.178,19.178,0,0,1-.579,3.222,5.509,5.509,0,0,0,.093,3.222,2.472,2.472,0,0,0,2.557,1.615l1.074-2.163a11.922,11.922,0,0,0-.155-10.863Z" transform="translate(-170.148 -103.956)" fill="#263238"/>
    </g>
    <g id="freepik--Plants--inject-3" transform="translate(51.356 246.961)">
      <path id="Path_2528" data-name="Path 2528" d="M455.261,398.174a8.667,8.667,0,0,1,4.481-5.725c2.295-.989,5.169-.448,7.618.448s4.86,2.078,7.464,2.241,5.532-1.074,6.313-3.562c.734-2.318-.672-4.837-2.442-6.537A15.453,15.453,0,0,0,453.43,391.1" transform="translate(-147.38 -323.985)" fill="#0761e9"/>
      <g id="Group_63" data-name="Group 63" transform="translate(306.05 56.77)" opacity="0.5">
        <path id="Path_2529" data-name="Path 2529" d="M455.261,398.174a8.667,8.667,0,0,1,4.481-5.725c2.295-.989,5.169-.448,7.618.448s4.86,2.078,7.464,2.241,5.532-1.074,6.313-3.562c.734-2.318-.672-4.837-2.442-6.537A15.453,15.453,0,0,0,453.43,391.1" transform="translate(-453.43 -380.755)"/>
      </g>
      <path id="Path_2530" data-name="Path 2530" d="M428.224,408.031c-3.817-3.624-3.624-9.936-1.723-14.85s6.058-8.677,10.7-11.157a33.873,33.873,0,0,1,29.561-.958,14.024,14.024,0,0,0-11.342,6.652c-2.086,3.477-2.557,7.727-4.281,11.358a17.887,17.887,0,0,1-22.9,8.955" transform="translate(-140.957 -323.388)" fill="#0761e9"/>
      <path id="Path_2531" data-name="Path 2531" d="M425.032,370.135c-4.226-4.991-4.783-13-4.165-19.509s2.133-13.058,1.1-19.517c-.61-3.825-2.094-7.471-2.6-11.319s.209-8.182,3.191-10.662c3.415-2.851,8.808-2.179,12.362.5s5.625,6.877,7.132,11.064c3.307,9.21,4.52,19.417,1.8,28.812s-9.094,17.771-18.458,20.63" transform="translate(-139.604 -307.28)" fill="#0761e9"/>
      <path id="Path_2532" data-name="Path 2532" d="M424.116,428.151a3.276,3.276,0,0,1,0-.572v-1.654c.054-1.429.193-3.5.51-6.042a81.8,81.8,0,0,1,1.623-8.847,40.951,40.951,0,0,1,4.041-10.245,42.873,42.873,0,0,1,6.6-8.824,42.291,42.291,0,0,1,6.915-5.749c1.059-.734,2.078-1.283,2.959-1.8s1.684-.858,2.318-1.174l1.545-.634a2.774,2.774,0,0,1,.533-.2,3.784,3.784,0,0,1-.51.263l-1.491.7c-.634.332-1.406.773-2.318,1.221a22.887,22.887,0,0,0-2.913,1.831,43.547,43.547,0,0,0-13.351,14.541c-3.863,6.8-4.945,13.946-5.718,18.953-.348,2.534-.525,4.6-.626,6.019l-.093,1.646a4.108,4.108,0,0,1-.023.572Z" transform="translate(-140.712 -324.361)" fill="#263238"/>
      <path id="Path_2533" data-name="Path 2533" d="M374.838,363.16c-7.819,4.721-7.8,9.009-6.49,13.065s6.1,6.869,10.044,5.354c2.248-.858,3.863-2.812,5.269-4.783s2.7-4.064,4.636-5.478,4.775-1.947,6.737-.549" transform="translate(-127.888 -319.985)" fill="#0761e9"/>
      <g id="Group_64" data-name="Group 64" transform="translate(239.808 43.175)" opacity="0.5">
        <path id="Path_2534" data-name="Path 2534" d="M374.838,363.16c-7.819,4.721-7.8,9.009-6.49,13.065s6.1,6.869,10.044,5.354c2.248-.858,3.863-2.812,5.269-4.783s2.7-4.064,4.636-5.478,4.775-1.947,6.737-.549" transform="translate(-367.696 -363.16)"/>
      </g>
      <path id="Path_2535" data-name="Path 2535" d="M369.36,366.731c2.048-2.82,7.093-3.639,10.284-2.233s5.524,4.211,7.618,7,4.126,5.733,7.023,7.68,6.954,2.642,9.828.688a8.445,8.445,0,0,0,3.346-5.787,19.316,19.316,0,0,0-.464-6.815c-.688-3.276-1.816-6.707-4.443-8.785-2.921-2.318-6.954-2.434-10.717-2.318-4.28.139-8.63.456-12.648,1.939s-8.121,4.7-9.828,8.623" transform="translate(-128.266 -318.387)" fill="#0761e9"/>
      <path id="Path_2536" data-name="Path 2536" d="M409.781,416.172a.558.558,0,0,1,0-.178v-.5c0-.471,0-1.12-.07-1.939-.054-1.715-.124-4.149-.209-7.139s-.216-6.6-.433-10.577-.518-8.352-1.12-12.9a41.324,41.324,0,0,0-1.344-6.56,34.768,34.768,0,0,0-5.408-10.485,31.311,31.311,0,0,0-3.307-3.624,24.115,24.115,0,0,0-5.849-3.987c-.379-.178-.719-.348-1.012-.471l-.773-.294-.471-.193-.155-.07.17.039.479.155.773.27c.3.108.641.27,1.028.44a23.426,23.426,0,0,1,5.965,3.933,29.665,29.665,0,0,1,3.361,3.624,32.758,32.758,0,0,1,3.091,4.775,34.079,34.079,0,0,1,2.442,5.787,41.661,41.661,0,0,1,1.314,6.606c.6,4.566.889,8.947,1.1,12.934s.294,7.572.355,10.585.085,5.455.093,7.139v2.449A.767.767,0,0,1,409.781,416.172Z" transform="translate(-132.875 -318.641)" fill="#263238"/>
      <path id="Path_2537" data-name="Path 2537" d="M418.944,412.68a21.961,21.961,0,0,1-.858-3.361,35.176,35.176,0,0,1-.355-9.434,62.692,62.692,0,0,1,2.975-13.683c1.607-5.038,3.786-10.415,5.648-16.226a75.96,75.96,0,0,0,2.248-8.569,76.728,76.728,0,0,0,1.1-8.175,118.269,118.269,0,0,0,.247-13.985c-.131-3.979-.348-7.2-.479-9.426-.062-1.1-.116-1.955-.147-2.565v-.664a.874.874,0,0,1,0-.232,1.049,1.049,0,0,1,0,.224,2.592,2.592,0,0,0,.07.672c.054.6.124,1.46.216,2.557.17,2.217.425,5.409.587,9.426a115.71,115.71,0,0,1-.17,14.016,77.333,77.333,0,0,1-1.1,8.213,72.639,72.639,0,0,1-2.248,8.654c-1.87,5.8-4.056,11.18-5.671,16.187a63.642,63.642,0,0,0-3.036,13.614,36.421,36.421,0,0,0,.239,9.388c.193,1.1.371,1.947.525,2.511.062.27.116.487.155.649A.84.84,0,0,1,418.944,412.68Z" transform="translate(-139.226 -311.618)" fill="#263238"/>
      <path id="Path_2538" data-name="Path 2538" d="M433.388,440.57H396.672l-.842-7.07h37.558Z" transform="translate(-134.284 -335.977)" fill="#455a64"/>
      <path id="Path_2539" data-name="Path 2539" d="M402.02,441.61l4.59,21.2h19.95l4.3-21.2Z" transform="translate(-135.692 -337.821)" fill="#455a64"/>
      <path id="Path_2540" data-name="Path 2540" d="M433.829,442.581c0,.1-8.074.155-18.026.124s-18.034-.124-18.034-.224,8.074-.155,18.034-.124S433.829,442.489,433.829,442.581Z" transform="translate(-134.725 -337.989)" fill="#455a64"/>
      <path id="Path_2541" data-name="Path 2541" d="M429.116,455.331a14.68,14.68,0,0,0-3.23-1.854,11.343,11.343,0,0,0-3.933-.773,13.76,13.76,0,0,0-4.837.881c-1.669.572-3.237,1.228-4.76,1.592a11.52,11.52,0,0,1-4.11.124,8.639,8.639,0,0,1-2.643-.834,5.791,5.791,0,0,1-.634-.41c-.139-.1-.209-.162-.2-.17s.309.178.9.456a9.4,9.4,0,0,0,2.619.711,11.427,11.427,0,0,0,4-.193c1.468-.363,3.036-1.035,4.721-1.607a13.691,13.691,0,0,1,4.953-.873,11.266,11.266,0,0,1,4.018.881,10.178,10.178,0,0,1,2.4,1.4,6.792,6.792,0,0,1,.564.487C429.069,455.254,429.124,455.316,429.116,455.331Z" transform="translate(-136.317 -340.269)" fill="#263238"/>
      <path id="Path_2542" data-name="Path 2542" d="M429.006,457.143a15.678,15.678,0,0,0-3.091-1.831,10.532,10.532,0,0,0-3.786-.773,13.752,13.752,0,0,0-4.682.842c-1.615.541-3.129,1.167-4.582,1.545a11.761,11.761,0,0,1-3.956.44,6.644,6.644,0,0,1-2.588-.7,4.5,4.5,0,0,1-.618-.386c-.131-.1-.2-.162-.193-.17s.309.178.873.433a6.955,6.955,0,0,0,2.542.572,12.021,12.021,0,0,0,3.863-.51c1.414-.394,2.921-1.028,4.559-1.545a13.691,13.691,0,0,1,4.8-.834,10.361,10.361,0,0,1,3.863.881,10.534,10.534,0,0,1,2.318,1.383c.247.2.425.363.541.479S429.014,457.143,429.006,457.143Z" transform="translate(-136.485 -340.69)" fill="#fff"/>
      <path id="Path_2543" data-name="Path 2543" d="M429.363,453.428a16.722,16.722,0,0,0-3.315-1.962,12.269,12.269,0,0,0-4.033-.966,13.135,13.135,0,0,0-4.991.881,44.32,44.32,0,0,1-4.922,1.607,12.616,12.616,0,0,1-4.25,0,9.511,9.511,0,0,1-2.727-.865,4.782,4.782,0,0,1-.664-.41c-.139-.108-.209-.17-.2-.178s.317.193.927.464a10.411,10.411,0,0,0,2.7.773,12.591,12.591,0,0,0,4.149-.077,48.582,48.582,0,0,0,4.875-1.623,13.019,13.019,0,0,1,5.123-.873,12.362,12.362,0,0,1,6.56,2.542,7.11,7.11,0,0,1,.587.51C429.309,453.35,429.379,453.42,429.363,453.428Z" transform="translate(-136.201 -339.772)" fill="#fff"/>
      <path id="Path_2544" data-name="Path 2544" d="M434,442.64c0,.1-8.26.178-18.443.178s-18.451-.077-18.451-.178,8.26-.17,18.451-.17S434,442.547,434,442.64Z" transform="translate(-134.575 -338.016)" fill="#263238"/>
      <path id="Path_2545" data-name="Path 2545" d="M81.345,426.491c1.321,1.885,3.863,1.259,5.084.108a9.253,9.253,0,0,0,2.148-4.4c1.043-3.639,2.1-7.456,1.321-11.157a6.181,6.181,0,0,0-1.422-3.029,3.237,3.237,0,0,0-3.044-1.028c-1.3.34-2.1,1.607-2.681,2.812a26.633,26.633,0,0,0-2.627,11.412,9.21,9.21,0,0,0,1.244,5.277" transform="translate(-62.502 -329.934)" fill="#0761e9"/>
      <g id="Group_65" data-name="Group 65" transform="translate(17.601 76.988)" opacity="0.2">
        <path id="Path_2546" data-name="Path 2546" d="M81.345,426.491c1.321,1.885,3.863,1.259,5.084.108a9.253,9.253,0,0,0,2.148-4.4c1.043-3.639,2.1-7.456,1.321-11.157a6.181,6.181,0,0,0-1.422-3.029,3.237,3.237,0,0,0-3.044-1.028c-1.3.34-2.1,1.607-2.681,2.812a26.633,26.633,0,0,0-2.627,11.412,9.21,9.21,0,0,0,1.244,5.277" transform="translate(-80.103 -406.922)"/>
      </g>
      <path id="Path_2547" data-name="Path 2547" d="M87.347,444.292a11.412,11.412,0,0,1,7.1-.858,5.9,5.9,0,0,1,3.508,1.545,2.5,2.5,0,0,1,0,3.508,3.354,3.354,0,0,1-2.21.556c-1.878,0-3.956-.348-5.455.773-.858.641-1.429,1.715-2.449,2.032a2.434,2.434,0,0,1-2.666-1.182,4.165,4.165,0,0,1-.294-3.052A4.636,4.636,0,0,1,87.347,444.292Z" transform="translate(-63.552 -338.184)" fill="#0761e9"/>
      <path id="Path_2548" data-name="Path 2548" d="M72.526,430.984a6.838,6.838,0,0,0,1.066-6.313,12.1,12.1,0,0,0-3.74-5.409,20.088,20.088,0,0,0-6.7-3.956,7.085,7.085,0,0,0-3.013-.51,3.168,3.168,0,0,0-2.527,1.545c-.7,1.344,0,2.975.7,4.3a50.779,50.779,0,0,0,4.412,6.668,11.992,11.992,0,0,0,4.844,4.149c2.009.773,4.1.68,5.161-.719" transform="translate(-57.323 -331.723)" fill="#0761e9"/>
      <path id="Path_2549" data-name="Path 2549" d="M81.583,463.975a4.529,4.529,0,0,0,.116-.858c.062-.626.139-1.414.232-2.318a32.356,32.356,0,0,1,.525-3.431A26.052,26.052,0,0,1,83.7,453.32a14.85,14.85,0,0,1,2.055-3.686,7.726,7.726,0,0,1,2.612-2.179,7.239,7.239,0,0,1,2.2-.68,4.85,4.85,0,0,0,.858-.124,3.477,3.477,0,0,0-.873,0,6.72,6.72,0,0,0-2.318.595,7.726,7.726,0,0,0-2.758,2.194,14.57,14.57,0,0,0-2.14,3.74,24.291,24.291,0,0,0-1.236,4.11,28.413,28.413,0,0,0-.456,3.477c-.077.989-.108,1.8-.116,2.318a4.057,4.057,0,0,0,.054.889Z" transform="translate(-62.825 -338.961)" fill="#263238"/>
      <path id="Path_2550" data-name="Path 2550" d="M81.751,455.378a2.72,2.72,0,0,0,0-.4V453.84c0-.989,0-2.418.054-4.18.085-3.523.386-8.4.974-13.745s1.375-10.168,2.094-13.622c.162-.873.332-1.646.494-2.318s.286-1.275.41-1.746l.263-1.1a1.275,1.275,0,0,0,.07-.394,1.981,1.981,0,0,0-.131.371c-.093.286-.2.649-.332,1.089s-.3,1.059-.471,1.738-.363,1.46-.549,2.318a128.874,128.874,0,0,0-2.194,13.637c-.587,5.362-.85,10.245-.881,13.784,0,1.762,0,3.2.062,4.18q.046.7.07,1.136a1.545,1.545,0,0,0,.07.394Z" transform="translate(-62.831 -332.164)" fill="#263238"/>
      <path id="Path_2551" data-name="Path 2551" d="M78.13,446.8a8.764,8.764,0,0,0,0-1.19c-.046-.773-.155-1.87-.363-3.222a43.553,43.553,0,0,0-1.059-4.69,40.409,40.409,0,0,0-1.963-5.548,29.476,29.476,0,0,0-5.764-8.963,13.905,13.905,0,0,0-1.352-1.259c-.209-.178-.394-.355-.579-.495l-.525-.355a7.056,7.056,0,0,0-1-.641,34.629,34.629,0,0,1,3.284,2.921A30.968,30.968,0,0,1,74.39,432.3a44.558,44.558,0,0,1,1.978,5.493c.51,1.723.85,3.307,1.113,4.636s.386,2.426.471,3.183a7.728,7.728,0,0,0,.178,1.19Z" transform="translate(-59.187 -333.007)" fill="#263238"/>
    </g>
    <g id="freepik--speech-bubble--inject-3" transform="translate(161.847 48.427)">
      <path id="Path_2552" data-name="Path 2552" d="M222.705,50.391a1.893,1.893,0,0,1,.394,0h1.159a12.362,12.362,0,0,1,1.87.178c.371.062.773.1,1.19.185l1.337.332a21.634,21.634,0,0,1,6.428,2.874,22.352,22.352,0,0,1-3.848,39.266,21.812,21.812,0,0,1-7.448,1.638A21.309,21.309,0,0,1,216,93.9l-.232-.077h.178l-13.019,4.512-.525.185.162-.541,3.384-10.817.054.263a22.3,22.3,0,0,1-5.223-19.316,21.9,21.9,0,0,1,3.361-7.989,22.19,22.19,0,0,1,5.154-5.409,20,20,0,0,1,5.293-2.928,17.268,17.268,0,0,1,2.318-.773,14.61,14.61,0,0,1,2.009-.417c.61-.085,1.151-.178,1.615-.216l1.19-.039h.765a.773.773,0,0,1,.247,0,1.63,1.63,0,0,1-.247.039l-.719.054-1.174.085c-.464.054-1,.155-1.6.255a14.518,14.518,0,0,0-1.978.456,16.874,16.874,0,0,0-2.318.773,25.5,25.5,0,0,0-2.542,1.2,22.985,22.985,0,0,0-2.642,1.754,22.314,22.314,0,0,0-5.022,5.339,21.541,21.541,0,0,0-3.245,7.889,21.835,21.835,0,0,0,5.177,18.829l.108.116-.046.147q-1.615,5.215-3.361,10.817l-.363-.348,13-4.4h.185l.224.07a20.9,20.9,0,0,0,7.587.943,21.449,21.449,0,0,0,7.263-1.584A21.93,21.93,0,0,0,228.593,51.4l-1.314-.355c-.417-.093-.811-.139-1.174-.209a12.292,12.292,0,0,0-1.854-.232l-1.151-.093a2.58,2.58,0,0,1-.394-.116Z" transform="translate(-200.327 -50.327)" fill="#0761e9"/>
      <path id="Path_2553" data-name="Path 2553" d="M212.35,78.2l3.423-3.431,6.606,5.872L235.352,68.16l3.176,3.431L221.892,87.244Z" transform="translate(-203.061 -54.382)" fill="#0761e9"/>
    </g>
  </g>
</svg>
