<svg xmlns="http://www.w3.org/2000/svg" xmlns:xlink="http://www.w3.org/1999/xlink" width="243.703" height="224.529" viewBox="0 0 243.703 224.529">
  <defs>
    <clipPath id="clip-path">
      <path id="Path_3097" data-name="Path 3097" d="M257.159,373.9c-.091,6.325-5.617,24.067-8.249,32.173h27.743l7.084-46.529-6.645-3.2s-5.1-2.375-8.563-1.547a35.284,35.284,0,0,0-7.832,3.425l-3.676,1.307S257.273,365.6,257.159,373.9Z" transform="translate(-248.91 -354.623)" fill="#fff" stroke="#263238" stroke-linejoin="round" stroke-width="1.055"/>
    </clipPath>
    <clipPath id="clip-path-2">
      <path id="Path_3101" data-name="Path 3101" d="M269.18,341.129s2.226,2.432,2.632,4.253-1.01,8.917,2.432,10.737,7.29-1.621,9.316-5.674,1.016-6.462,1.016-6.462a60.488,60.488,0,0,1-7.09-8.505A31.587,31.587,0,0,1,274.243,328s-1.216,6.685-2.854,9.133A22.078,22.078,0,0,0,269.18,341.129Z" transform="translate(-269.18 -328)" fill="#fff" stroke="#263238" stroke-linecap="round" stroke-linejoin="round" stroke-width="1.055"/>
    </clipPath>
  </defs>
  <g id="Group_94" data-name="Group 94" transform="translate(-92.148 -296.999)">
    <g id="Setup_Wizard-bro" data-name="Setup Wizard-bro" transform="translate(52.72 244.636)">
      <g id="freepik--background-simple--inject-57" transform="translate(40.068 52.363)">
        <path id="Path_2986" data-name="Path 2986" d="M236.468,65.856s-27.834-21.3-62.781-10.378-48.79,41.774-68.375,63.295c-10.275,11.274-25.773,15.8-38.1,24.609-39.388,28.182-31.556,88.531.194,110.406,27.486,18.929,61.12,19.951,104.349,4s74.209-25.688,100.011-68.3S270.821,94.877,236.468,65.856Z" transform="translate(-40.55 -52.363)" fill="#076aff"/>
        <path id="Path_2987" data-name="Path 2987" d="M236.468,65.856s-27.834-21.3-62.781-10.378-48.79,41.774-68.375,63.295c-10.275,11.274-25.773,15.8-38.1,24.609-39.388,28.182-31.556,88.531.194,110.406,27.486,18.929,61.12,19.951,104.349,4s74.209-25.688,100.011-68.3S270.821,94.877,236.468,65.856Z" transform="translate(-40.55 -52.363)" fill="#fff" opacity="0.8"/>
      </g>
      <g id="freepik--Mug--inject-57" transform="translate(209.408 244.294)">
        <rect id="Rectangle_719" data-name="Rectangle 719" width="10.401" height="15.367" transform="translate(0 16.623)" fill="#fff" stroke="#263238" stroke-linecap="round" stroke-linejoin="round" stroke-width="1.055"/>
        <path id="Path_2988" data-name="Path 2988" d="M352.909,433.181h-1.085a.862.862,0,0,1,0-1.713h1.085a1.633,1.633,0,0,0,1.627-1.627v-3.722a1.633,1.633,0,0,0-1.627-1.627h-1.393a.856.856,0,1,1,0-1.713h1.393a3.339,3.339,0,0,1,3.339,3.339v3.722a3.345,3.345,0,0,1-3.339,3.339Z" transform="translate(-342.977 -403.263)" fill="#fff" stroke="#263238" stroke-linecap="round" stroke-linejoin="round" stroke-width="1.055"/>
        <path id="Path_2989" data-name="Path 2989" d="M339.192,390.736a6.9,6.9,0,0,1-1.142-2.146" transform="translate(-337.565 -388.59)" fill="none" stroke="#263238" stroke-linejoin="round" stroke-width="1.055"/>
        <path id="Path_2990" data-name="Path 2990" d="M339.568,406.888s-.434-.434,3.271-2.4,3.922-5.229.217-7.843a15.871,15.871,0,0,1-1.792-1.467" transform="translate(-338.21 -391.418)" fill="none" stroke="#263238" stroke-linejoin="round" stroke-width="1.055"/>
        <path id="Path_2991" data-name="Path 2991" d="M348,407.774s3.488-1.524,3.922-4.355a6.04,6.04,0,0,0-2.181-5.668" transform="translate(-341.835 -392.521)" fill="none" stroke="#263238" stroke-linejoin="round" stroke-width="1.055"/>
        <path id="Path_2992" data-name="Path 2992" d="M386.053,436.25c-2.352,0-4.253.959-4.253,2.141s1.9,2.141,4.253,2.141,4.247-.959,4.247-2.141S388.4,436.25,386.053,436.25Zm0,2.9c-.833,0-1.5-.342-1.5-.759s.668-.753,1.5-.753,1.5.337,1.5.753S386.88,439.15,386.053,439.15Z" transform="translate(-356.341 -409.044)" fill="#076aff" stroke="#263238" stroke-linejoin="round" stroke-width="1.055"/>
        <path id="Path_2993" data-name="Path 2993" d="M375.092,430.58c-3.328,0-6.022,1.752-6.022,3.916s2.694,3.916,6.022,3.916,6.022-1.752,6.022-3.916S378.42,430.58,375.092,430.58Zm0,4.749c-.708,0-1.284-.377-1.284-.833s.571-.833,1.284-.833,1.284.371,1.284.833S375.8,435.329,375.092,435.329Z" transform="translate(-350.877 -406.61)" fill="#076aff" stroke="#263238" stroke-linejoin="round" stroke-width="1.055"/>
        <path id="Path_2994" data-name="Path 2994" d="M387.024,439.99H364.99l2.546,2.649h16.943Z" transform="translate(-349.126 -410.649)" fill="#fff" stroke="#263238" stroke-linejoin="round" stroke-width="1.055"/>
      </g>
      <g id="freepik--Plants--inject-57" transform="translate(39.428 164.702)">
        <path id="Path_2995" data-name="Path 2995" d="M437.615,262.86s.228-2.791-3.362-7.027-5.925-6.673-5.925-6.673-2.483,6.279.828,10.475a68.628,68.628,0,0,0,8.049,8.271Z" transform="translate(-205.945 -249.16)" fill="#076aff"/>
        <path id="Path_2996" data-name="Path 2996" d="M425.16,292.61s.228-2.791-3.357-7.027-5.925-6.673-5.925-6.673-2.483,6.279.828,10.475a68.615,68.615,0,0,0,8.043,8.254Z" transform="translate(-200.602 -261.928)" fill="#076aff"/>
        <path id="Path_2997" data-name="Path 2997" d="M443.459,273.4s.525-2.757,5.138-5.88,7.489-4.852,7.489-4.852.719,6.7-3.591,9.876a69.073,69.073,0,0,1-9.955,5.811Z" transform="translate(-212.428 -254.958)" fill="#076aff"/>
        <path id="Path_2998" data-name="Path 2998" d="M428.08,309.55s.811-2.683,5.708-5.309,7.957-4.042,7.957-4.042,0,6.742-4.612,9.447a69.338,69.338,0,0,1-10.5,4.732Z" transform="translate(-205.6 -271.064)" fill="#076aff"/>
        <path id="Path_2999" data-name="Path 2999" d="M427.881,347.1s.228-2.791,4.464-6.382,6.93-5.617,6.93-5.617,1.427,6.587-2.523,10.2a68.82,68.82,0,0,1-9.282,6.85Z" transform="translate(-205.96 -286.042)" fill="#076aff"/>
        <path id="Path_3000" data-name="Path 3000" d="M420.562,354.54s.622-2.734-2.329-7.421-4.909-7.449-4.909-7.449-3.351,5.851-.674,10.486a68.617,68.617,0,0,0,6.787,9.316Z" transform="translate(-199.155 -288.003)" fill="#076aff"/>
        <path id="Path_3001" data-name="Path 3001" d="M417.877,384.615s.228-2.8,4.464-6.388,6.93-5.617,6.93-5.617,1.427,6.588-2.529,10.2a68.73,68.73,0,0,1-9.282,6.85Z" transform="translate(-201.665 -302.14)" fill="#076aff"/>
        <path id="Path_3002" data-name="Path 3002" d="M420.62,408.929s-.485-2.763,2.7-7.307,5.286-7.193,5.286-7.193,3.048,6.011.137,10.509a68.782,68.782,0,0,1-7.25,8.956Z" transform="translate(-203.009 -311.504)" fill="#076aff"/>
        <path id="Path_3003" data-name="Path 3003" d="M433.717,272a80.489,80.489,0,0,1-1.781,8.563c-2.2,7.866-6.5,12.7-8.637,19.791s1.536,16.748-.417,25.916-5.982,14.031-5.457,20.3,4.567,23.467,4.567,23.467" transform="translate(-201.629 -258.962)" fill="none" stroke="#263238" stroke-linecap="round" stroke-linejoin="round" stroke-width="0.528"/>
        <line id="Line_137" data-name="Line 137" y1="2.888" x2="4.481" transform="translate(230.843 17.405)" fill="none" stroke="#263238" stroke-linecap="round" stroke-linejoin="round" stroke-width="0.528"/>
        <line id="Line_138" data-name="Line 138" x1="1.507" y1="3.282" transform="translate(229.838 13.306)" fill="none" stroke="#263238" stroke-linecap="round" stroke-linejoin="round" stroke-width="0.528"/>
        <path id="Path_3004" data-name="Path 3004" d="M428.2,317.584s3.75-2.358,7.592-4.7" transform="translate(-206.274 -276.506)" fill="none" stroke="#263238" stroke-linecap="round" stroke-linejoin="round" stroke-width="0.528"/>
        <path id="Path_3005" data-name="Path 3005" d="M427.966,304.124a56.442,56.442,0,0,0-5.486-10.1" transform="translate(-203.819 -268.412)" fill="none" stroke="#263238" stroke-linecap="round" stroke-linejoin="round" stroke-width="0.528"/>
        <path id="Path_3006" data-name="Path 3006" d="M427.86,355.986a43.881,43.881,0,0,1,8.38-9.476" transform="translate(-206.128 -290.939)" fill="none" stroke="#263238" stroke-linecap="round" stroke-linejoin="round" stroke-width="0.528"/>
        <path id="Path_3007" data-name="Path 3007" d="M422.107,361.464a49.344,49.344,0,0,0-3.225-7.569c-1.81-3.208-2.072-3.625-2.072-3.625" transform="translate(-201.386 -292.552)" fill="none" stroke="#263238" stroke-linecap="round" stroke-linejoin="round" stroke-width="0.528"/>
        <path id="Path_3008" data-name="Path 3008" d="M417.45,394.2a47.151,47.151,0,0,1,3.7-6.165,40.969,40.969,0,0,1,4.567-5.052" transform="translate(-201.66 -306.59)" fill="none" stroke="#263238" stroke-linecap="round" stroke-linejoin="round" stroke-width="0.528"/>
        <path id="Path_3009" data-name="Path 3009" d="M422.169,418.136a12.017,12.017,0,0,1,1.564-6.1c1.712-2.723,3.682-6.314,4.487-7.729" transform="translate(-203.685 -315.744)" fill="none" stroke="#263238" stroke-linecap="round" stroke-linejoin="round" stroke-width="0.528"/>
        <path id="Path_3010" data-name="Path 3010" d="M395,328.272s-.16-1.775,2.106-4.487,3.733-4.276,3.733-4.276,1.615,4-.474,6.673a44.058,44.058,0,0,1-5.08,5.292Z" transform="translate(-192.024 -279.351)" fill="#076aff"/>
        <path id="Path_3011" data-name="Path 3011" d="M403.088,347.152s-.16-1.781,2.106-4.487,3.733-4.276,3.733-4.276,1.61,4-.474,6.667a44.056,44.056,0,0,1-5.08,5.292Z" transform="translate(-195.496 -287.454)" fill="#076aff"/>
        <path id="Path_3012" data-name="Path 3012" d="M389.687,335.05s-.348-1.753-3.282-3.716-4.784-3.054-4.784-3.054-.434,4.27,2.329,6.279a44.044,44.044,0,0,0,6.359,3.653Z" transform="translate(-186.273 -283.115)" fill="#076aff"/>
        <path id="Path_3013" data-name="Path 3013" d="M398.9,357.991s-.531-1.712-3.653-3.351-5.08-2.54-5.08-2.54,0,4.293,2.974,5.994a44.364,44.364,0,0,0,6.707,2.963Z" transform="translate(-189.953 -293.338)" fill="#076aff"/>
        <path id="Path_3014" data-name="Path 3014" d="M400.674,381.876s-.16-1.781-2.854-4.042-4.441-3.545-4.441-3.545-.879,4.2,1.655,6.479a43.644,43.644,0,0,0,5.942,4.3Z" transform="translate(-191.267 -302.861)" fill="#076aff"/>
        <path id="Path_3015" data-name="Path 3015" d="M406.861,386.534s-.411-1.713,1.45-4.738,3.088-4.767,3.088-4.767,2.158,3.7.479,6.673a44.066,44.066,0,0,1-4.276,5.96Z" transform="translate(-197.099 -304.037)" fill="#076aff"/>
        <path id="Path_3016" data-name="Path 3016" d="M412.988,414.064s.348-1.753,3.282-3.716,4.789-3.048,4.789-3.048.428,4.27-2.335,6.279a43.653,43.653,0,0,1-6.365,3.642Z" transform="translate(-199.476 -317.027)" fill="#076aff"/>
        <path id="Path_3017" data-name="Path 3017" d="M407.214,405.706s-.16-1.781-2.854-4.047-4.441-3.539-4.441-3.539-.879,4.2,1.655,6.479a44.341,44.341,0,0,0,5.937,4.3Z" transform="translate(-194.073 -313.088)" fill="#076aff"/>
        <path id="Path_3018" data-name="Path 3018" d="M406.853,421.162s.3-1.758-1.753-4.635-3.391-4.567-3.391-4.567-1.918,3.836-.04,6.685a43.915,43.915,0,0,0,4.652,5.668Z" transform="translate(-194.534 -319.027)" fill="#076aff"/>
        <path id="Path_3019" data-name="Path 3019" d="M394.55,334.1a52.145,52.145,0,0,0,1.176,5.457c1.439,4.995,4.19,8.049,5.589,12.558s-.9,10.663.382,16.492,3.876,8.9,3.568,12.9-2.786,14.95-2.786,14.95" transform="translate(-191.832 -285.613)" fill="none" stroke="#263238" stroke-linecap="round" stroke-linejoin="round" stroke-width="0.528"/>
        <line id="Line_139" data-name="Line 139" x1="2.866" y1="1.821" transform="translate(200.68 51.296)" fill="none" stroke="#263238" stroke-linecap="round" stroke-linejoin="round" stroke-width="0.528"/>
        <line id="Line_140" data-name="Line 140" y1="2.095" x2="0.942" transform="translate(203.209 48.658)" fill="none" stroke="#263238" stroke-linecap="round" stroke-linejoin="round" stroke-width="0.528"/>
        <path id="Path_3020" data-name="Path 3020" d="M402.452,363.077s-2.392-1.478-4.852-2.957" transform="translate(-193.141 -296.78)" fill="none" stroke="#263238" stroke-linecap="round" stroke-linejoin="round" stroke-width="0.528"/>
        <path id="Path_3021" data-name="Path 3021" d="M403.59,354.486a35.9,35.9,0,0,1,3.425-6.456" transform="translate(-195.712 -291.591)" fill="none" stroke="#263238" stroke-linecap="round" stroke-linejoin="round" stroke-width="0.528"/>
        <path id="Path_3022" data-name="Path 3022" d="M402.477,387.494A28.02,28.02,0,0,0,397.1,381.5" transform="translate(-192.927 -305.955)" fill="none" stroke="#263238" stroke-linecap="round" stroke-linejoin="round" stroke-width="0.528"/>
        <path id="Path_3023" data-name="Path 3023" d="M407.67,390.947a31.666,31.666,0,0,1,2.021-4.829c1.142-2.055,1.3-2.318,1.3-2.318" transform="translate(-197.463 -306.942)" fill="none" stroke="#263238" stroke-linecap="round" stroke-linejoin="round" stroke-width="0.528"/>
        <path id="Path_3024" data-name="Path 3024" d="M412.65,418.857a26.194,26.194,0,0,1,3.494-3.077,17.194,17.194,0,0,0,2.243-1.65" transform="translate(-199.6 -319.959)" fill="none" stroke="#263238" stroke-linecap="round" stroke-linejoin="round" stroke-width="0.528"/>
        <path id="Path_3025" data-name="Path 3025" d="M409.329,411.791a29.68,29.68,0,0,0-2.386-3.91,26.258,26.258,0,0,0-2.923-3.191" transform="translate(-195.897 -315.907)" fill="none" stroke="#263238" stroke-linecap="round" stroke-linejoin="round" stroke-width="0.528"/>
        <path id="Path_3026" data-name="Path 3026" d="M407.5,427.038a7.609,7.609,0,0,0-1.028-3.876c-1.1-1.712-2.369-4-2.888-4.892" transform="translate(-195.708 -321.735)" fill="none" stroke="#263238" stroke-linecap="round" stroke-linejoin="round" stroke-width="0.528"/>
        <path id="Path_3027" data-name="Path 3027" d="M95.459,262.86s.228-2.791-3.362-7.027-5.92-6.673-5.92-6.673-2.483,6.279.822,10.475a68.619,68.619,0,0,0,8.043,8.271Z" transform="translate(-59.107 -249.16)" fill="#076aff"/>
        <path id="Path_3028" data-name="Path 3028" d="M83,292.61s.228-2.791-3.362-7.027-5.92-6.673-5.92-6.673-2.483,6.279.828,10.475a68.314,68.314,0,0,0,8.037,8.254Z" transform="translate(-53.76 -261.928)" fill="#076aff"/>
        <path id="Path_3029" data-name="Path 3029" d="M101.309,273.4s.525-2.757,5.138-5.88,7.484-4.852,7.484-4.852.725,6.7-3.591,9.876a69.147,69.147,0,0,1-9.95,5.811Z" transform="translate(-65.59 -254.958)" fill="#076aff"/>
        <path id="Path_3030" data-name="Path 3030" d="M85.906,309.55s.8-2.683,5.708-5.309,7.957-4.042,7.957-4.042,0,6.742-4.607,9.447a69.282,69.282,0,0,1-10.515,4.709Z" transform="translate(-58.75 -271.064)" fill="#076aff"/>
        <path id="Path_3031" data-name="Path 3031" d="M85.7,347.1s.228-2.791,4.458-6.382,6.959-5.617,6.959-5.617,1.427,6.587-2.529,10.2a68.431,68.431,0,0,1-9.282,6.85Z" transform="translate(-59.119 -286.042)" fill="#076aff"/>
        <path id="Path_3032" data-name="Path 3032" d="M78.392,354.54s.628-2.734-2.329-7.421-4.909-7.449-4.909-7.449-3.351,5.84-.674,10.463a69.167,69.167,0,0,0,6.787,9.316Z" transform="translate(-52.309 -288.003)" fill="#076aff"/>
        <path id="Path_3033" data-name="Path 3033" d="M75.708,384.615s.234-2.8,4.464-6.388,6.953-5.617,6.953-5.617,1.427,6.587-2.523,10.2a69.124,69.124,0,0,1-9.282,6.85Z" transform="translate(-54.831 -302.14)" fill="#076aff"/>
        <path id="Path_3034" data-name="Path 3034" d="M78.46,408.916s-.491-2.757,2.7-7.324,5.28-7.193,5.28-7.193,3.048,6.011.137,10.509a68.459,68.459,0,0,1-7.25,8.974Z" transform="translate(-56.167 -311.491)" fill="#076aff"/>
        <path id="Path_3035" data-name="Path 3035" d="M91.543,272a79.1,79.1,0,0,1-1.787,8.563c-2.2,7.866-6.49,12.7-8.631,19.791s1.536,16.748-.417,25.916-5.982,14.031-5.463,20.3,4.567,23.467,4.567,23.467" transform="translate(-54.78 -258.962)" fill="none" stroke="#263238" stroke-linecap="round" stroke-linejoin="round" stroke-width="0.528"/>
        <line id="Line_141" data-name="Line 141" y1="2.888" x2="4.481" transform="translate(35.519 17.405)" fill="none" stroke="#263238" stroke-linecap="round" stroke-linejoin="round" stroke-width="0.528"/>
        <line id="Line_142" data-name="Line 142" x1="1.507" y1="3.282" transform="translate(34.514 13.306)" fill="none" stroke="#263238" stroke-linecap="round" stroke-linejoin="round" stroke-width="0.528"/>
        <path id="Path_3036" data-name="Path 3036" d="M86,317.584s3.745-2.358,7.592-4.7" transform="translate(-59.415 -276.506)" fill="none" stroke="#263238" stroke-linecap="round" stroke-linejoin="round" stroke-width="0.528"/>
        <path id="Path_3037" data-name="Path 3037" d="M85.8,304.115A56.773,56.773,0,0,0,80.31,294" transform="translate(-56.973 -268.404)" fill="none" stroke="#263238" stroke-linecap="round" stroke-linejoin="round" stroke-width="0.528"/>
        <path id="Path_3038" data-name="Path 3038" d="M85.7,355.986a43.755,43.755,0,0,1,8.374-9.476" transform="translate(-59.286 -290.939)" fill="none" stroke="#263238" stroke-linecap="round" stroke-linejoin="round" stroke-width="0.528"/>
        <path id="Path_3039" data-name="Path 3039" d="M79.947,361.464a49.993,49.993,0,0,0-3.225-7.569c-1.81-3.208-2.072-3.625-2.072-3.625" transform="translate(-54.544 -292.552)" fill="none" stroke="#263238" stroke-linecap="round" stroke-linejoin="round" stroke-width="0.528"/>
        <path id="Path_3040" data-name="Path 3040" d="M75.28,394.2a47.53,47.53,0,0,1,3.71-6.165,40.968,40.968,0,0,1,4.567-5.052" transform="translate(-54.814 -306.59)" fill="none" stroke="#263238" stroke-linecap="round" stroke-linejoin="round" stroke-width="0.528"/>
        <path id="Path_3041" data-name="Path 3041" d="M80,418.136a11.948,11.948,0,0,1,1.564-6.1c1.713-2.723,3.676-6.314,4.487-7.729" transform="translate(-56.839 -315.744)" fill="none" stroke="#263238" stroke-linecap="round" stroke-linejoin="round" stroke-width="0.528"/>
        <path id="Path_3042" data-name="Path 3042" d="M52.848,328.272s-.154-1.775,2.106-4.487,3.739-4.276,3.739-4.276,1.61,4-.479,6.673a43.746,43.746,0,0,1-5.075,5.292Z" transform="translate(-45.186 -279.351)" fill="#076aff"/>
        <path id="Path_3043" data-name="Path 3043" d="M60.918,347.152s-.16-1.781,2.106-4.487,3.739-4.276,3.739-4.276,1.61,4-.479,6.667a44.055,44.055,0,0,1-5.08,5.292Z" transform="translate(-48.65 -287.454)" fill="#076aff"/>
        <path id="Path_3044" data-name="Path 3044" d="M47.518,335.05s-.343-1.753-3.277-3.716-4.789-3.054-4.789-3.054-.428,4.27,2.329,6.279a44.381,44.381,0,0,0,6.359,3.653Z" transform="translate(-39.428 -283.115)" fill="#076aff"/>
        <path id="Path_3045" data-name="Path 3045" d="M56.734,357.991s-.525-1.712-3.653-3.351S48,352.1,48,352.1s0,4.293,2.974,5.994a44.3,44.3,0,0,0,6.73,2.963Z" transform="translate(-43.107 -293.338)" fill="#076aff"/>
        <path id="Path_3046" data-name="Path 3046" d="M58.519,381.876s-.16-1.781-2.854-4.042-4.435-3.545-4.435-3.545-.879,4.2,1.655,6.479a43.384,43.384,0,0,0,5.937,4.3Z" transform="translate(-44.429 -302.861)" fill="#076aff"/>
        <path id="Path_3047" data-name="Path 3047" d="M64.7,386.522s-.411-1.713,1.444-4.738S69.239,377,69.239,377s2.158,3.7.474,6.673a44.067,44.067,0,0,1-4.287,5.977Z" transform="translate(-50.257 -304.024)" fill="#076aff"/>
        <path id="Path_3048" data-name="Path 3048" d="M70.818,414.064s.348-1.753,3.288-3.716S78.9,407.3,78.9,407.3s.422,4.27-2.34,6.279a43.657,43.657,0,0,1-6.365,3.642Z" transform="translate(-52.63 -317.027)" fill="#076aff"/>
        <path id="Path_3049" data-name="Path 3049" d="M65.059,405.706s-.16-1.781-2.854-4.047-4.435-3.539-4.435-3.539-.879,4.2,1.655,6.479a43.949,43.949,0,0,0,5.92,4.3Z" transform="translate(-47.236 -313.088)" fill="#076aff"/>
        <path id="Path_3050" data-name="Path 3050" d="M64.67,421.162s.3-1.758-1.752-4.635-3.425-4.567-3.425-4.567-1.912,3.836-.04,6.685a43.916,43.916,0,0,0,4.652,5.668Z" transform="translate(-47.669 -319.027)" fill="#076aff"/>
        <path id="Path_3051" data-name="Path 3051" d="M52.39,334.1a50.726,50.726,0,0,0,1.176,5.457c1.439,4.995,4.19,8.049,5.583,12.558s-.9,10.663.388,16.492,3.87,8.9,3.568,12.9-2.791,14.95-2.791,14.95" transform="translate(-44.991 -285.613)" fill="none" stroke="#263238" stroke-linecap="round" stroke-linejoin="round" stroke-width="0.528"/>
        <line id="Line_143" data-name="Line 143" x1="2.866" y1="1.821" transform="translate(5.356 51.296)" fill="none" stroke="#263238" stroke-linecap="round" stroke-linejoin="round" stroke-width="0.528"/>
        <line id="Line_144" data-name="Line 144" y1="2.095" x2="0.942" transform="translate(7.884 48.658)" fill="none" stroke="#263238" stroke-linecap="round" stroke-linejoin="round" stroke-width="0.528"/>
        <path id="Path_3052" data-name="Path 3052" d="M60.292,363.077s-2.4-1.478-4.852-2.957" transform="translate(-46.3 -296.78)" fill="none" stroke="#263238" stroke-linecap="round" stroke-linejoin="round" stroke-width="0.528"/>
        <path id="Path_3053" data-name="Path 3053" d="M61.42,354.486a35.69,35.69,0,0,1,3.425-6.456" transform="translate(-48.866 -291.591)" fill="none" stroke="#263238" stroke-linecap="round" stroke-linejoin="round" stroke-width="0.528"/>
        <path id="Path_3054" data-name="Path 3054" d="M60.307,387.494A28.021,28.021,0,0,0,54.93,381.5" transform="translate(-46.081 -305.955)" fill="none" stroke="#263238" stroke-linecap="round" stroke-linejoin="round" stroke-width="0.528"/>
        <path id="Path_3055" data-name="Path 3055" d="M65.51,390.947a31.349,31.349,0,0,1,1.992-4.829c1.142-2.055,1.3-2.318,1.3-2.318" transform="translate(-50.621 -306.942)" fill="none" stroke="#263238" stroke-linecap="round" stroke-linejoin="round" stroke-width="0.528"/>
        <path id="Path_3056" data-name="Path 3056" d="M70.49,418.848a25.8,25.8,0,0,1,3.494-3.088,17.361,17.361,0,0,0,2.238-1.65" transform="translate(-52.759 -319.95)" fill="none" stroke="#263238" stroke-linecap="round" stroke-linejoin="round" stroke-width="0.528"/>
        <path id="Path_3057" data-name="Path 3057" d="M67.173,411.791a29.684,29.684,0,0,0-2.375-3.91,26.07,26.07,0,0,0-2.928-3.191" transform="translate(-49.059 -315.907)" fill="none" stroke="#263238" stroke-linecap="round" stroke-linejoin="round" stroke-width="0.528"/>
        <path id="Path_3058" data-name="Path 3058" d="M65.33,427.038a7.638,7.638,0,0,0-1.022-3.876c-1.1-1.713-2.369-4-2.888-4.892" transform="translate(-48.866 -321.735)" fill="none" stroke="#263238" stroke-linecap="round" stroke-linejoin="round" stroke-width="0.528"/>
      </g>
      <g id="freepik--Page--inject-57" transform="translate(64.569 82.359)">
        <rect id="Rectangle_720" data-name="Rectangle 720" width="185.934" height="143.572" rx="4.64" fill="#ccc"/>
        <rect id="Rectangle_721" data-name="Rectangle 721" width="176.932" height="113.957" transform="translate(4.498 10.869)" fill="#fff"/>
        <rect id="Rectangle_722" data-name="Rectangle 722" width="45.736" height="113.957" transform="translate(4.498 10.869)" fill="#263238"/>
        <g id="Group_81" data-name="Group 81" transform="translate(13.906 30.454)" opacity="0.2">
          <path id="Path_3059" data-name="Path 3059" d="M110.844,219.323V168.666l33.308,10.515V158.26H115.662a7.832,7.832,0,0,0-7.832,7.843v57.826l36.323,14.1v-5.406Z" transform="translate(-107.83 -158.26)" fill="#fff"/>
          <path id="Path_3060" data-name="Path 3060" d="M148.23,240.344V192.006l-30.9-9.756v45.736Z" transform="translate(-111.907 -168.556)" fill="#fff"/>
          <path id="Path_3061" data-name="Path 3061" d="M144.83,299.08l-33.343-13.535a1.508,1.508,0,1,0-1.142,2.791l34.484,13.974Z" transform="translate(-108.507 -212.838)" fill="#fff"/>
        </g>
        <rect id="Rectangle_723" data-name="Rectangle 723" width="26.989" height="8.996" rx="2.49" transform="translate(112.706 128.953)" fill="#a3a3a3" stroke="#076aff" stroke-miterlimit="10" stroke-width="1.055"/>
        <path id="Path_3062" data-name="Path 3062" d="M294.948,339.85a.217.217,0,0,1-.068-.171v-3.237a.354.354,0,0,1,.086-.251.28.28,0,0,1,.217-.091.429.429,0,0,1,.194.051.457.457,0,0,1,.171.16l1.947,2.854v-2.809a.217.217,0,0,1,.068-.171.28.28,0,0,1,.354,0,.217.217,0,0,1,.074.171v3.237a.337.337,0,0,1-.1.251.32.32,0,0,1-.234.091.439.439,0,0,1-.183-.04.468.468,0,0,1-.148-.131l-1.952-2.854v2.769a.2.2,0,0,1-.074.171.28.28,0,0,1-.354,0Z" transform="translate(-174.199 -204.128)" fill="#263238"/>
        <path id="Path_3063" data-name="Path 3063" d="M302.165,340.631a1.2,1.2,0,0,1-.474-.48,1.529,1.529,0,0,1-.171-.742,1.547,1.547,0,0,1,.143-.674,1.3,1.3,0,0,1,.445-.5,1.267,1.267,0,0,1,.691-.194,1.341,1.341,0,0,1,.571.108.919.919,0,0,1,.377.285,1.262,1.262,0,0,1,.206.411,1.878,1.878,0,0,1,.08.491.206.206,0,0,1-.046.131.154.154,0,0,1-.126.051h-1.832a.97.97,0,0,0,.245.7.885.885,0,0,0,.617.24,1.022,1.022,0,0,0,.428-.086,2.162,2.162,0,0,0,.382-.234.16.16,0,0,1,.1-.034.165.165,0,0,1,.108.046.177.177,0,0,1,.04.12.183.183,0,0,1-.074.148,1.456,1.456,0,0,1-1.022.382,1.382,1.382,0,0,1-.691-.166Zm1.421-1.41a1.056,1.056,0,0,0-.211-.611.656.656,0,0,0-.571-.24.713.713,0,0,0-.337.074.61.61,0,0,0-.251.194.89.89,0,0,0-.154.268,1.1,1.1,0,0,0-.074.314Z" transform="translate(-177.048 -204.96)" fill="#263238"/>
        <path id="Path_3064" data-name="Path 3064" d="M308.507,340.7l-.759-.919-.759.953a.2.2,0,0,1-.16.086.211.211,0,0,1-.16-.063.194.194,0,0,1-.069-.148.211.211,0,0,1,.04-.114l.845-1.033-.753-.936a.177.177,0,0,1-.051-.126.223.223,0,0,1,.074-.166.228.228,0,0,1,.354.034l.691.856.691-.868a.217.217,0,0,1,.171-.091.205.205,0,0,1,.148.063.188.188,0,0,1,.069.143.211.211,0,0,1-.046.12l-.771.959.822,1.016a.2.2,0,0,1,.051.131.211.211,0,0,1-.074.154.228.228,0,0,1-.166.068.211.211,0,0,1-.188-.12Z" transform="translate(-179.229 -205.016)" fill="#263238"/>
        <path id="Path_3065" data-name="Path 3065" d="M311.935,339.92a.885.885,0,0,1-.177-.611v-1.541h-.331a.183.183,0,0,1-.131-.04.166.166,0,0,1,0-.228.183.183,0,0,1,.131-.046h.331l.063-.759a.205.205,0,0,1,.074-.148.223.223,0,0,1,.154-.057.183.183,0,0,1,.137.046.188.188,0,0,1,.051.143v.776h.491a.171.171,0,0,1,.131.046.143.143,0,0,1,.046.12c0,.1-.057.148-.177.148h-.479v1.456a.776.776,0,0,0,.08.4.268.268,0,0,0,.245.12h.228a.183.183,0,0,1,.137.051.206.206,0,0,1,0,.24.177.177,0,0,1-.091.063h-.434a.645.645,0,0,1-.48-.177Z" transform="translate(-181.224 -204.295)" fill="#263238"/>
        <rect id="Rectangle_724" data-name="Rectangle 724" width="26.989" height="8.996" rx="2.49" transform="translate(148.441 128.953)" fill="#a3a3a3"/>
        <path id="Path_3066" data-name="Path 3066" d="M354.75,339.77a1.712,1.712,0,0,1-.611-.7,2.392,2.392,0,0,1-.2-.993,2.285,2.285,0,0,1,.126-.771,1.918,1.918,0,0,1,.348-.628,1.638,1.638,0,0,1,.571-.422,1.867,1.867,0,0,1,.765-.154,1.941,1.941,0,0,1,.965.245.206.206,0,0,1,.12.188.217.217,0,0,1-.063.148.183.183,0,0,1-.137.063.194.194,0,0,1-.091,0l-.063-.034-.091-.04-.131-.057-.137-.04-.166-.029h-.211a1.239,1.239,0,0,0-.468.08,1,1,0,0,0-.354.217,1.461,1.461,0,0,0-.245.337,1.753,1.753,0,0,0-.143.422,2.54,2.54,0,0,0,0,.959,1.712,1.712,0,0,0,.143.417,1.222,1.222,0,0,0,.245.331,1.039,1.039,0,0,0,.36.223,1.411,1.411,0,0,0,.479.08,1.308,1.308,0,0,0,.417-.063,2.59,2.59,0,0,0,.388-.183.234.234,0,0,1,.1-.029.194.194,0,0,1,.143.063.188.188,0,0,1,.057.143.257.257,0,0,1-.131.211,1.889,1.889,0,0,1-1.05.285,1.753,1.753,0,0,1-.936-.268Z" transform="translate(-199.545 -204.128)" fill="#263238"/>
        <path id="Path_3067" data-name="Path 3067" d="M360.282,340.708a.679.679,0,0,1-.263-.571,1.251,1.251,0,0,1,.029-.268.714.714,0,0,1,.091-.2.526.526,0,0,1,.166-.148,1,1,0,0,1,.24-.1,1.647,1.647,0,0,1,.325-.063h.913v-.291a.571.571,0,0,0-.154-.422.617.617,0,0,0-.422-.137,1.539,1.539,0,0,0-.325.034,1.1,1.1,0,0,0-.257.074l-.234.091a.114.114,0,0,1-.063,0,.171.171,0,0,1-.12-.057.188.188,0,0,1-.051-.131.131.131,0,0,1,.074-.12,2,2,0,0,1,.988-.234,1.142,1.142,0,0,1,.765.228.851.851,0,0,1,.274.7v1.553a.206.206,0,0,1-.069.166.268.268,0,0,1-.337,0,.206.206,0,0,1-.069-.166v-.257a.851.851,0,0,1-.822.525A1.091,1.091,0,0,1,360.282,340.708Zm1.267-.377a.925.925,0,0,0,.234-.645v-.08h-.542a2.972,2.972,0,0,0-.365.04.667.667,0,0,0-.245.091.359.359,0,0,0-.114.148.491.491,0,0,0-.04.217.428.428,0,0,0,.143.36.633.633,0,0,0,.394.114.7.7,0,0,0,.537-.223Z" transform="translate(-202.154 -205.014)" fill="#263238"/>
        <path id="Path_3068" data-name="Path 3068" d="M365.384,340.775a.217.217,0,0,1-.074-.171v-2.2a.217.217,0,0,1,.074-.166.268.268,0,0,1,.171-.057.257.257,0,0,1,.171.057.194.194,0,0,1,.068.16v.217a.737.737,0,0,1,.331-.377,1.107,1.107,0,0,1,.542-.131.965.965,0,0,1,.7.257,1.056,1.056,0,0,1,.263.776v1.444a.2.2,0,0,1-.074.171.246.246,0,0,1-.166.057.251.251,0,0,1-.171-.057.217.217,0,0,1-.074-.171v-1.45a.771.771,0,0,0-.154-.519.571.571,0,0,0-.451-.177.708.708,0,0,0-.519.217.913.913,0,0,0-.228.571v1.336a.2.2,0,0,1-.074.166.228.228,0,0,1-.171.063A.245.245,0,0,1,365.384,340.775Z" transform="translate(-204.425 -204.989)" fill="#263238"/>
        <path id="Path_3069" data-name="Path 3069" d="M370.742,340.509a1.456,1.456,0,0,1-.343-.988,1.472,1.472,0,0,1,.16-.7,1.267,1.267,0,0,1,.462-.5,1.336,1.336,0,0,1,.7-.183,1.456,1.456,0,0,1,.422.063.867.867,0,0,1,.308.166.189.189,0,0,1,.091.154.126.126,0,0,1-.04.1.16.16,0,0,1-.108.04.206.206,0,0,1-.114-.034.942.942,0,0,0-.537-.16.765.765,0,0,0-.622.291,1.182,1.182,0,0,0-.234.771,1.375,1.375,0,0,0,.046.383,1.141,1.141,0,0,0,.143.331.742.742,0,0,0,.628.325,1.039,1.039,0,0,0,.611-.171.188.188,0,0,1,.143-.051.137.137,0,0,1,.143.143.205.205,0,0,1-.086.16,1.25,1.25,0,0,1-.816.234,1.176,1.176,0,0,1-.953-.371Z" transform="translate(-206.608 -205.003)" fill="#263238"/>
        <path id="Path_3070" data-name="Path 3070" d="M375.595,340.731a1.2,1.2,0,0,1-.474-.48,1.529,1.529,0,0,1-.171-.742,1.575,1.575,0,0,1,.143-.679,1.2,1.2,0,0,1,.445-.5,1.221,1.221,0,0,1,.691-.194,1.341,1.341,0,0,1,.571.1.97.97,0,0,1,.377.291,1.3,1.3,0,0,1,.205.405,1.964,1.964,0,0,1,.08.5.205.205,0,0,1-.046.131.154.154,0,0,1-.126.051h-1.855a.925.925,0,0,0,.245.691.862.862,0,0,0,.617.245,1.022,1.022,0,0,0,.428-.086,2.158,2.158,0,0,0,.382-.234.154.154,0,0,1,.1-.034.125.125,0,0,1,.108.046.182.182,0,0,1,.046.12.188.188,0,0,1-.074.148,1.456,1.456,0,0,1-1.022.382A1.427,1.427,0,0,1,375.595,340.731Zm1.421-1.41a1.09,1.09,0,0,0-.211-.617.668.668,0,0,0-.571-.234.833.833,0,0,0-.342.069.753.753,0,0,0-.245.194.868.868,0,0,0-.154.274,1.1,1.1,0,0,0-.074.314Z" transform="translate(-208.562 -205.002)" fill="#263238"/>
        <path id="Path_3071" data-name="Path 3071" d="M380.6,339.95a.228.228,0,0,1-.069-.177V336.44a.24.24,0,0,1,.074-.177.274.274,0,0,1,.171-.063.263.263,0,0,1,.171.063.234.234,0,0,1,.068.177v3.334a.223.223,0,0,1-.074.177.263.263,0,0,1-.171.063.234.234,0,0,1-.171-.063Z" transform="translate(-210.956 -204.171)" fill="#263238"/>
        <path id="Path_3072" data-name="Path 3072" d="M329.07,104.91v6.747a1.872,1.872,0,0,0,1.872,1.872h37.864a1.872,1.872,0,0,0,1.872-1.872V104.91Z" transform="translate(-188.872 -104.91)" fill="#a3a3a3"/>
        <path id="Path_3073" data-name="Path 3073" d="M335.288,104.91h-10.5v6.747a1.872,1.872,0,0,0,1.872,1.872h8.625Z" transform="translate(-187.035 -104.91)" fill="#a3a3a3"/>
        <path id="Path_3074" data-name="Path 3074" d="M365.18,104.91v8.614H384.3a1.872,1.872,0,0,0,1.872-1.872V104.91Z" transform="translate(-204.369 -104.91)" fill="#263238"/>
        <rect id="Rectangle_725" data-name="Rectangle 725" width="12.564" height="8.62" transform="translate(148.253)" fill="#787878"/>
        <path id="Path_3075" data-name="Path 3075" d="M383.177,112.271H381.51l-2.78-4.241h1.661Z" transform="translate(-210.184 -106.249)" fill="#fff"/>
        <path id="Path_3076" data-name="Path 3076" d="M378.73,112.271h1.661l2.786-4.241H381.51Z" transform="translate(-210.184 -106.249)" fill="#fff"/>
        <rect id="Rectangle_726" data-name="Rectangle 726" width="6.022" height="1.604" transform="translate(140.027 4.344)" fill="#fff"/>
        <path id="Path_3077" data-name="Path 3077" d="M349.22,108.58v3.859h5.514V108.58Zm4.475,2.763H350.27V109.67H353.7Z" transform="translate(-197.52 -106.485)" fill="#fff"/>
        <rect id="Rectangle_727" data-name="Rectangle 727" width="14.459" height="14.06" transform="translate(29.17 18.404)" fill="#076aff" stroke="#fff" stroke-miterlimit="10" stroke-width="2.111"/>
        <rect id="Rectangle_728" data-name="Rectangle 728" width="64.265" height="2.814" transform="translate(57.284 18.803)" fill="#263238"/>
        <rect id="Rectangle_729" data-name="Rectangle 729" width="40.57" height="2.814" transform="translate(57.284 24.832)" fill="#263238"/>
        <line id="Line_145" data-name="Line 145" x2="97.602" transform="translate(58.488 39.69)" fill="none" stroke="#263238" stroke-miterlimit="10" stroke-width="1.055"/>
        <line id="Line_146" data-name="Line 146" x2="97.602" transform="translate(58.488 57.763)" fill="none" stroke="#263238" stroke-miterlimit="10" stroke-width="1.055"/>
        <line id="Line_147" data-name="Line 147" x2="97.602" transform="translate(58.488 62.181)" fill="none" stroke="#263238" stroke-miterlimit="10" stroke-width="1.055"/>
        <line id="Line_148" data-name="Line 148" x2="97.602" transform="translate(58.488 66.6)" fill="none" stroke="#263238" stroke-miterlimit="10" stroke-width="1.055"/>
        <line id="Line_149" data-name="Line 149" x2="16.469" transform="translate(58.488 71.018)" fill="none" stroke="#263238" stroke-miterlimit="10" stroke-width="1.055"/>
        <line id="Line_150" data-name="Line 150" x2="36.956" transform="translate(58.488 43.304)" fill="none" stroke="#263238" stroke-miterlimit="10" stroke-width="1.055"/>
        <line id="Line_151" data-name="Line 151" x2="36.956" transform="translate(58.488 81.059)" fill="none" stroke="#263238" stroke-miterlimit="10" stroke-width="1.055"/>
      </g>
      <g id="freepik--Character--inject-57" transform="translate(110.326 183.557)">
        <ellipse id="Ellipse_129" data-name="Ellipse 129" cx="6.941" cy="7.952" rx="6.941" ry="7.952" transform="translate(72.544 14.26)" fill="#263238" stroke="#263238" stroke-linejoin="round" stroke-width="1.055"/>
        <path id="Path_3089" data-name="Path 3089" d="M236.807,305.942a22,22,0,0,1-6.051-2.495,5.362,5.362,0,0,1-2.375-7.118c.948-2.255,9.967-11.742,19.106-13.763s16.018,4.39,18.98,11.748.714,15.778-1.3,18.267-7.124,4.27-9.379,2.609-5.931-6.645-10.321-8.66a12.878,12.878,0,0,0-8.66-.588Z" transform="translate(-191.195 -282.189)" fill="#263238" stroke="#263238" stroke-linejoin="round" stroke-width="1.055"/>
        <path id="Path_3090" data-name="Path 3090" d="M252.35,297.62a29.611,29.611,0,0,0,23.022,8.78" transform="translate(-201.704 -288.811)" fill="none" stroke="#636363" stroke-miterlimit="10" stroke-width="1.055"/>
        <path id="Path_3091" data-name="Path 3091" d="M255,290.81l4.824-3.95a20.388,20.388,0,0,1,17.319,12.062" transform="translate(-202.841 -284.194)" fill="none" stroke="#636363" stroke-miterlimit="10" stroke-width="1.055"/>
        <path id="Path_3092" data-name="Path 3092" d="M237.847,304.53s-9.864,4.384-7.016,6.359,4.607.44,4.607.44" transform="translate(-192.247 -291.777)" fill="none" stroke="#636363" stroke-miterlimit="10" stroke-width="1.055"/>
        <path id="Path_3093" data-name="Path 3093" d="M233.52,301.185s1.536-2.415,7.238-2.415" transform="translate(-193.622 -289.305)" fill="none" stroke="#636363" stroke-miterlimit="10" stroke-width="1.055"/>
        <path id="Path_3094" data-name="Path 3094" d="M247.35,301.84a22.12,22.12,0,0,0,14.271,9.87c9.87,1.975,13.158-.44,13.158-.44" transform="translate(-199.558 -290.622)" fill="none" stroke="#636363" stroke-miterlimit="10" stroke-width="1.055"/>
        <path id="Path_3095" data-name="Path 3095" d="M257.159,373.9c-.091,6.325-5.617,24.067-8.249,32.173h27.743l7.084-46.529-6.645-3.2s-5.1-2.375-8.563-1.547a35.284,35.284,0,0,0-7.832,3.425l-3.676,1.307S257.273,365.6,257.159,373.9Z" transform="translate(-200.227 -313.275)" fill="#fff"/>
        <g id="Group_82" data-name="Group 82" transform="translate(48.683 41.348)" clip-path="url(#clip-path)">
          <path id="Path_3096" data-name="Path 3096" d="M259.254,408.444c.571-2.512,1.752-7.649,3.671-15.983,2.894-12.558,3.14-32.321,3.14-32.321-.211,5.195-8.471,39.017-10.755,48.3Z" transform="translate(-251.657 -356.991)" opacity="0.2"/>
        </g>
        <path id="Path_3098" data-name="Path 3098" d="M257.159,373.9c-.091,6.325-5.617,24.067-8.249,32.173h27.743l7.084-46.529-6.645-3.2s-5.1-2.375-8.563-1.547a35.284,35.284,0,0,0-7.832,3.425l-3.676,1.307S257.273,365.6,257.159,373.9Z" transform="translate(-200.227 -313.275)" fill="none" stroke="#263238" stroke-linejoin="round" stroke-width="1.055"/>
        <path id="Path_3099" data-name="Path 3099" d="M269.18,341.129s2.226,2.432,2.632,4.253-1.01,8.917,2.432,10.737,7.29-1.621,9.316-5.674,1.016-6.462,1.016-6.462a60.488,60.488,0,0,1-7.09-8.505A31.587,31.587,0,0,1,274.243,328s-1.216,6.685-2.854,9.133A22.078,22.078,0,0,0,269.18,341.129Z" transform="translate(-208.926 -301.849)" fill="#fff"/>
        <g id="Group_83" data-name="Group 83" transform="translate(60.254 26.151)" clip-path="url(#clip-path-2)">
          <path id="Path_3100" data-name="Path 3100" d="M271.348,345.254l-.348.405a11.321,11.321,0,0,1,1.33,2.2,8.18,8.18,0,0,0,3.842-3.088c1.187-1.753,1.3-5.178,1.2-7.649-.274-.537-.531-1.062-.753-1.57C275.652,337.885,273.5,342.743,271.348,345.254Z" transform="translate(-269.961 -331.24)" opacity="0.2"/>
        </g>
        <path id="Path_3102" data-name="Path 3102" d="M269.18,341.129s2.226,2.432,2.632,4.253-1.01,8.917,2.432,10.737,7.29-1.621,9.316-5.674,1.016-6.462,1.016-6.462a60.488,60.488,0,0,1-7.09-8.505A31.587,31.587,0,0,1,274.243,328s-1.216,6.685-2.854,9.133A22.078,22.078,0,0,0,269.18,341.129Z" transform="translate(-208.926 -301.849)" fill="none" stroke="#263238" stroke-linecap="round" stroke-linejoin="round" stroke-width="1.055"/>
        <path id="Path_3103" data-name="Path 3103" d="M243.214,308.41s9.133,7.09,13.569,8.711a22.539,22.539,0,0,0,9.7.811,2.632,2.632,0,0,1-.611,2.432,16.732,16.732,0,0,0-1.821,2.226s.2,6.074-1.821,9.133-4.664,4.658-8.306,3.237-6.685-3.237-8.511-6.279-1.615-6.074-2.426-8.1l-2.432-6.074S241.593,310.031,243.214,308.41Z" transform="translate(-196.644 -293.442)" fill="#fff" stroke="#263238" stroke-linecap="round" stroke-linejoin="round" stroke-width="1.055"/>
        <path id="Path_3104" data-name="Path 3104" d="M252.67,326.71s.48,6.525,1.187,6.764a7,7,0,0,0,2.729-.474" transform="translate(-201.841 -301.296)" fill="none" stroke="#263238" stroke-linecap="round" stroke-linejoin="round" stroke-width="1.055"/>
        <path id="Path_3105" data-name="Path 3105" d="M257.87,340.661s2.854.24,3.916-1.9" transform="translate(-204.073 -306.467)" fill="none" stroke="#263238" stroke-linecap="round" stroke-linejoin="round" stroke-width="1.055"/>
        <path id="Path_3106" data-name="Path 3106" d="M249.882,328.132c.24.748.1,1.461-.3,1.593s-.925-.377-1.142-1.142-.108-1.461.3-1.587S249.642,327.384,249.882,328.132Z" transform="translate(-199.977 -301.41)" fill="#263238"/>
        <path id="Path_3107" data-name="Path 3107" d="M259.8,324.8c.24.754.1,1.461-.3,1.593s-.93-.371-1.17-1.142-.1-1.461.3-1.593S259.581,324.049,259.8,324.8Z" transform="translate(-204.22 -299.976)" fill="#263238"/>
        <path id="Path_3108" data-name="Path 3108" d="M245.609,324.341s-.12-1.421,2.369-1.182" transform="translate(-198.81 -299.76)" fill="none" stroke="#263238" stroke-linecap="round" stroke-linejoin="round" stroke-width="1.055"/>
        <path id="Path_3109" data-name="Path 3109" d="M254.13,320.933a2.637,2.637,0,0,1,3.425-1.068" transform="translate(-202.467 -298.248)" fill="none" stroke="#263238" stroke-linecap="round" stroke-linejoin="round" stroke-width="1.055"/>
        <path id="Path_3110" data-name="Path 3110" d="M247.417,324.433c.97,2.329.308,4.818-1.473,5.566s-4-.542-4.989-2.854-.314-4.818,1.473-5.566S246.447,322.1,247.417,324.433Z" transform="translate(-196.617 -299.002)" fill="none" stroke="#263238" stroke-linejoin="round" stroke-width="1.055"/>
        <path id="Path_3111" data-name="Path 3111" d="M261.137,319.692c.97,2.329.308,4.818-1.473,5.566s-4-.542-4.989-2.854-.314-4.818,1.473-5.566S260.167,317.34,261.137,319.692Z" transform="translate(-202.505 -296.966)" fill="none" stroke="#263238" stroke-linejoin="round" stroke-width="1.055"/>
        <line id="Line_152" data-name="Line 152" y1="0.708" x2="1.421" transform="translate(50.475 23.873)" fill="none" stroke="#263238" stroke-linejoin="round" stroke-width="1.055"/>
        <path id="Path_3112" data-name="Path 3112" d="M301.872,406.668c2.135-12.125,7.992-46.084,6.6-46.769-1.638-.828-19.249-3.9-19.249-3.9s-1.992,14.345-4.6,27.514c-1.712,8.745-3.568,17.953-4.607,23.159Z" transform="translate(-213.578 -313.866)" fill="#076aff" stroke="#263238" stroke-linejoin="round" stroke-width="1.055"/>
        <path id="Path_3113" data-name="Path 3113" d="M241.531,367.2s-3.271,2.751-3.476,4.784-3.653,26.4-3.653,26.4a1.727,1.727,0,0,0-1.827-.605,3.819,3.819,0,0,0-1.627,1.421s-.365-1.33-1.421-.405-1.827,4.464-1.827,4.464,1.621,5.286,2.854,6.1,3.048-.405,3.048-.405-.206.811,2.026.811,2.643-3.454,3.454-4.875,3.254-16.657,4.47-24.986S241.531,367.2,241.531,367.2Z" transform="translate(-191.125 -318.672)" fill="#076aff" stroke="#263238" stroke-linecap="round" stroke-linejoin="round" stroke-width="1.055"/>
        <path id="Path_3114" data-name="Path 3114" d="M240.93,407.728h10.275c1.016-4,2.632-10.515,4.293-17.462,2.734-11.388,4.179-31.8,4.179-31.8L247.2,363.453a144.944,144.944,0,0,1-.24,20.642C246.313,391.881,242.956,402.1,240.93,407.728Z" transform="translate(-196.803 -314.926)" fill="#076aff" stroke="#263238" stroke-linejoin="round" stroke-width="1.055"/>
        <path id="Path_3115" data-name="Path 3115" d="M302.761,365.5l-7.107,29.455-3.048-.811-1.421,1.216s-1.016-1.421-2.032.206a10.486,10.486,0,0,1-2.032,2.437l1.421,8.329s6.034,2.472,6.907,2.232a2.477,2.477,0,0,0,1.827-2.854,6.388,6.388,0,0,0,2.438.811c.531,0,1.958-1,3.191-1.958a8.175,8.175,0,0,0,2.854-4.081c2.141-6.907,8.249-26.635,9.219-29.3a6.6,6.6,0,0,0-4.669-9.133" transform="translate(-216.625 -316.462)" fill="#076aff" stroke="#263238" stroke-linecap="round" stroke-linejoin="round" stroke-width="1.055"/>
        <path id="Path_3116" data-name="Path 3116" d="M167.756,428.978s-4.5,2.112-4.1,2.512,3.425-1.056,4.1-1.193S169.212,428.727,167.756,428.978Z" transform="translate(-163.627 -345.172)" fill="#fff" stroke="#263238" stroke-linecap="round" stroke-linejoin="round" stroke-width="1.055"/>
        <path id="Path_3117" data-name="Path 3117" d="M171.579,426.44s-1.456-.268-1.713.394-1.456,4.236-1.324,5.029,1.324-.793,1.855-1.587A19.1,19.1,0,0,0,171.579,426.44Z" transform="translate(-165.732 -344.073)" fill="#fff" stroke="#263238" stroke-linecap="round" stroke-linejoin="round" stroke-width="1.055"/>
        <path id="Path_3118" data-name="Path 3118" d="M174.743,426.259s-2.38-.662-2.78,0-2.512,5.292-2.512,5.292-.263.531.925,0S174.743,426.259,174.743,426.259Z" transform="translate(-166.116 -343.892)" fill="#fff" stroke="#263238" stroke-linecap="round" stroke-linejoin="round" stroke-width="1.055"/>
        <path id="Path_3119" data-name="Path 3119" d="M203.41,425.861,188.322,427.3s-10.452-2.118-11.645-2.249a3.437,3.437,0,0,0-2.906,1.587c-.525.793-3.842,5.029-3.842,5.029l.793.263,4.635-3.7s2.512-.131,3.305-.131-2.249,1.713-3.174,1.849-1.987.268-1.855.793,2.517.662,3.043.662a41.618,41.618,0,0,0,4.236-1.324,20.537,20.537,0,0,1,2.118.137,8.988,8.988,0,0,0,3.311-.8s18.786,4.5,20.111,4.367S207.874,426.729,203.41,425.861Z" transform="translate(-166.332 -343.494)" fill="#fff" stroke="#263238" stroke-linecap="round" stroke-linejoin="round" stroke-width="1.055"/>
        <path id="Path_3120" data-name="Path 3120" d="M216.947,427.121a16.559,16.559,0,0,1-3.842,1.587c-1.193.131-1.056,1.193,0,1.593s4.767-1.456,5.56-1.456,7.01.525,8.334.662,2.118-1.193-1.187-2.249S216.947,427.121,216.947,427.121Z" transform="translate(-184.499 -344.229)" fill="#fff" stroke="#263238" stroke-linecap="round" stroke-linejoin="round" stroke-width="1.055"/>
        <path id="Path_3121" data-name="Path 3121" d="M221.08,424.03s-2.455-.571-2.769.451-3.185,5.08-3.254,5.469.953.708,2.118-.571S221.08,424.03,221.08,424.03Z" transform="translate(-185.698 -342.994)" fill="#fff" stroke="#263238" stroke-linecap="round" stroke-linejoin="round" stroke-width="1.055"/>
        <path id="Path_3122" data-name="Path 3122" d="M223.639,423.053s-2.118-.531-2.649,0a51.522,51.522,0,0,0-4.23,7.278c0,.531,1.456.263,1.456.263l4.23-5.823,1.324-1.187Z" transform="translate(-186.43 -342.541)" fill="#fff" stroke="#263238" stroke-linecap="round" stroke-linejoin="round" stroke-width="1.055"/>
        <path id="Path_3123" data-name="Path 3123" d="M263.368,432.569a3.619,3.619,0,0,0,3.18-3.425c.263-3.174-3.18-6.216-5.56-6.348s-13.495,2.38-17.993,2.512-8.471.131-9.4-.263-8.734-1.987-9.265-1.987-5.954,7.541-5.954,7.541.4.93,1.456,0,4.5-4.1,4.5-4.1h3.836s-3.573,2.118-4.1,2.512-2.649,2.649-2.118,2.78,3.305-2.249,3.305-2.249l4-1.062a13.74,13.74,0,0,0,5.554,1.987,12.1,12.1,0,0,0,4.635-.662S254.771,432.7,263.368,432.569Z" transform="translate(-187.125 -342.53)" fill="#fff" stroke="#263238" stroke-linecap="round" stroke-linejoin="round" stroke-width="1.055"/>
      </g>
      <g id="freepik--Device--inject-57" transform="translate(42.763 240.687)">
        <line id="Line_153" data-name="Line 153" x1="229.54" transform="translate(0 35.598)" fill="none" stroke="#263238" stroke-linejoin="round" stroke-width="1.055"/>
        <rect id="Rectangle_730" data-name="Rectangle 730" width="71.092" height="2.609" transform="translate(50.314 32.989)" fill="#fff" stroke="#263238" stroke-linejoin="round" stroke-width="1.055"/>
        <rect id="Rectangle_731" data-name="Rectangle 731" width="33.4" height="2.609" transform="translate(88.006 32.989)" fill="#263238" stroke="#263238" stroke-linejoin="round" stroke-width="1.055"/>
        <path id="Path_3124" data-name="Path 3124" d="M161.66,415.259,148.519,382.27H107.55l16.417,32.989Z" transform="translate(-71.998 -382.27)" fill="#263238" stroke="#263238" stroke-linejoin="round" stroke-width="1.055"/>
        <path id="Path_3125" data-name="Path 3125" d="M158.76,415.259,145.619,382.27H104.65l16.417,32.989Z" transform="translate(-70.754 -382.27)" fill="#fff" stroke="#263238" stroke-linejoin="round" stroke-width="1.055"/>
      </g>
    </g>
    <text id="App_info" data-name="App info" transform="translate(122 335)" fill="#2f2e41" font-size="5" font-family="Poppins-Light, Poppins" font-weight="300"><tspan x="0" y="0">App info</tspan></text>
  </g>
</svg>
