<svg xmlns="http://www.w3.org/2000/svg" width="127.258" height="134.034" viewBox="0 0 127.258 134.034">
  <g id="Sushi_cook-amico" data-name="Sushi cook-amico" transform="translate(-26.24 -15.301)">
    <g id="freepik--Floor--inject-6" transform="translate(26.24 74.36)">
      <ellipse id="Ellipse_29" data-name="Ellipse 29" cx="63.629" cy="37.488" rx="63.629" ry="37.488" transform="translate(0 0)" fill="#f5f5f5"/>
    </g>
    <g id="freepik--Shadows--inject-6" transform="translate(45.702 82.371)">
      <path id="Path_612" data-name="Path 612" d="M138.93,301.5l45.626-26.54-24.034-13.937,17.13-9.867,39.9,23.15L154.28,310.6Z" transform="translate(-126.347 -251.16)" fill="#e0e0e0"/>
      <ellipse id="Ellipse_30" data-name="Ellipse 30" cx="8.548" cy="4.934" rx="8.548" ry="4.934" transform="translate(45.549 45.575)" fill="#e0e0e0"/>
      <ellipse id="Ellipse_31" data-name="Ellipse 31" cx="8.548" cy="4.934" rx="8.548" ry="4.934" transform="translate(66.439 33.549)" fill="#e0e0e0"/>
      <ellipse id="Ellipse_32" data-name="Ellipse 32" cx="12.816" cy="7.399" rx="12.816" ry="7.399" transform="translate(0 32.764)" fill="#e0e0e0"/>
    </g>
    <g id="freepik--Curtain--inject-6" transform="translate(33.117 15.301)">
      <path id="Path_613" data-name="Path 613" d="M125.36,29.026V74.587h4.447a1.831,1.831,0,0,0,1.831-1.831v-.023A1.831,1.831,0,0,1,133.47,70.9h1.74a1.831,1.831,0,0,0,1.831-1.831h0a1.828,1.828,0,0,1,1.831-1.828h1.8a1.831,1.831,0,0,0,1.831-1.831V19.25Z" transform="translate(-104.051 -18.127)" fill="#076aff"/>
      <path id="Path_614" data-name="Path 614" d="M125.36,29.026V74.587h4.447a1.831,1.831,0,0,0,1.831-1.831v-.023A1.831,1.831,0,0,1,133.47,70.9h1.74a1.831,1.831,0,0,0,1.831-1.831h0a1.828,1.828,0,0,1,1.831-1.828h1.8a1.831,1.831,0,0,0,1.831-1.831V19.25Z" transform="translate(-104.051 -18.127)" fill="#fff" opacity="0.6"/>
      <path id="Path_615" data-name="Path 615" d="M136.914,78.142H135.29v-33l.063-.037,11.454-6.611V70.8h-.822a1.706,1.706,0,0,0-1.706,1.706,1.959,1.959,0,0,1-1.962,1.962h-1.749a1.706,1.706,0,0,0-1.706,1.706A1.965,1.965,0,0,1,136.914,78.142Zm-1.371-.256h1.371a1.706,1.706,0,0,0,1.706-1.706,1.965,1.965,0,0,1,1.959-1.991h1.737a1.706,1.706,0,0,0,1.706-1.706,1.959,1.959,0,0,1,1.959-1.956h.569V38.919l-11.019,6.367Z" transform="translate(-111.157 -31.896)" fill="#076aff"/>
      <g id="Group_16" data-name="Group 16" transform="translate(24.133 6.594)" opacity="0.8">
        <path id="Path_616" data-name="Path 616" d="M136.914,78.142H135.29v-33l.063-.037,11.454-6.611V70.8h-.822a1.706,1.706,0,0,0-1.706,1.706,1.959,1.959,0,0,1-1.962,1.962h-1.749a1.706,1.706,0,0,0-1.706,1.706A1.965,1.965,0,0,1,136.914,78.142Zm-1.371-.256h1.371a1.706,1.706,0,0,0,1.706-1.706,1.965,1.965,0,0,1,1.959-1.991h1.737a1.706,1.706,0,0,0,1.706-1.706,1.959,1.959,0,0,1,1.959-1.956h.569V38.919l-11.019,6.367Z" transform="translate(-135.29 -38.49)" fill="#fff"/>
      </g>
      <path id="Path_617" data-name="Path 617" d="M56.48,68.676v45.561h4.439a1.831,1.831,0,0,0,1.828-1.831v-.017a1.828,1.828,0,0,1,1.843-1.837h1.749a1.831,1.831,0,0,0,1.831-1.831h0A1.831,1.831,0,0,1,70,106.889h1.8a1.828,1.828,0,0,0,1.831-1.828V58.9Z" transform="translate(-54.758 -46.502)" fill="#076aff"/>
      <path id="Path_618" data-name="Path 618" d="M56.48,68.676v45.561h4.439a1.831,1.831,0,0,0,1.828-1.831v-.017a1.828,1.828,0,0,1,1.843-1.837h1.749a1.831,1.831,0,0,0,1.831-1.831h0A1.831,1.831,0,0,1,70,106.889h1.8a1.828,1.828,0,0,0,1.831-1.828V58.9Z" transform="translate(-54.758 -46.502)" fill="#fff" opacity="0.6"/>
      <path id="Path_619" data-name="Path 619" d="M68,117.785H66.37v-33l.063-.037L77.887,78.13v32.307h-.816a1.706,1.706,0,0,0-1.706,1.706,1.959,1.959,0,0,1-1.956,1.959h-1.74a1.706,1.706,0,0,0-1.706,1.706A1.965,1.965,0,0,1,68,117.785Zm-1.371-.256H68a1.706,1.706,0,0,0,1.706-1.706,1.965,1.965,0,0,1,1.959-1.991h1.749a1.706,1.706,0,0,0,1.706-1.706,1.959,1.959,0,0,1,1.956-1.956h.569v-31.6L66.626,84.918Z" transform="translate(-61.836 -60.264)" fill="#076aff"/>
      <g id="Group_17" data-name="Group 17" transform="translate(4.534 17.866)" opacity="0.8">
        <path id="Path_620" data-name="Path 620" d="M68,117.785H66.37v-33l.063-.037L77.887,78.13v32.307h-.816a1.706,1.706,0,0,0-1.706,1.706,1.959,1.959,0,0,1-1.956,1.959h-1.74a1.706,1.706,0,0,0-1.706,1.706A1.965,1.965,0,0,1,68,117.785Zm-1.371-.256H68a1.706,1.706,0,0,0,1.706-1.706,1.965,1.965,0,0,1,1.959-1.991h1.749a1.706,1.706,0,0,0,1.706-1.706,1.959,1.959,0,0,1,1.956-1.956h.569v-31.6L66.626,84.918Z" transform="translate(-66.37 -78.13)" fill="#fff"/>
      </g>
      <path id="Path_621" data-name="Path 621" d="M50.8,38.732a.386.386,0,0,1-.191-.717l39.3-22.678a.381.381,0,0,1,.381.657l-39.3,22.687A.353.353,0,0,1,50.8,38.732Z" transform="translate(-50.425 -15.301)" fill="#e0e0e0"/>
    </g>
    <g id="freepik--Character--inject-6" transform="translate(42.243 45.278)">
      <path id="Path_622" data-name="Path 622" d="M118.663,130.818s-1.237-.159-1.422.893.028,1.934,1.137,1.925Z" transform="translate(-107.324 -127.941)" fill="#076aff"/>
      <path id="Path_623" data-name="Path 623" d="M118.663,130.818s-1.237-.159-1.422.893.028,1.934,1.137,1.925Z" transform="translate(-107.324 -127.941)" opacity="0.2"/>
      <path id="Path_624" data-name="Path 624" d="M115.83,136.47a3.33,3.33,0,0,0-.873,2.559,10.1,10.1,0,0,1-1.137,3.938l1.243-.358.5,1.191a9.99,9.99,0,0,0,1-4.391c0-2.6.813-2.531.813-2.531Z" transform="translate(-104.918 -131.991)" fill="#076aff"/>
      <path id="Path_625" data-name="Path 625" d="M111.99,371.22v4.072h3.125l.324-4.052Z" transform="translate(-103.609 -299.987)" fill="#ffa8a7"/>
      <path id="Path_626" data-name="Path 626" d="M148.44,362.7v4.072h3.128l.321-4.052Z" transform="translate(-129.694 -293.89)" fill="#ffa8a7"/>
      <path id="Path_627" data-name="Path 627" d="M133.46,245s1.882,14.093,2.844,16.692c0,0-1.024,1.513-.532,5.619S137.27,279,137.27,279a6.227,6.227,0,0,0,4.809-.569l-.2-35.2Z" transform="translate(-118.973 -208.393)" fill="#37474f"/>
      <path id="Path_628" data-name="Path 628" d="M143.632,253.31a11.443,11.443,0,0,1-3.168,3.927L138.9,262.62l.759-5.895Z" transform="translate(-122.866 -215.606)" fill="#076aff"/>
      <path id="Path_629" data-name="Path 629" d="M143.632,253.31a11.443,11.443,0,0,1-3.168,3.927L138.9,262.62l.759-5.895Z" transform="translate(-122.866 -215.606)" fill="#263238"/>
      <path id="Path_630" data-name="Path 630" d="M111.568,245.28a79.847,79.847,0,0,0-.537,8.946v8.036a13,13,0,0,0-.978,4.43c-.051,2.355-.122,15.521-.122,15.521a4.666,4.666,0,0,0,4.968,0l4.029-31.234s4.155-1.658,4.388-4.925Z" transform="translate(-102.135 -209.86)" fill="#37474f"/>
      <path id="Path_631" data-name="Path 631" d="M110.547,381.981a1.194,1.194,0,0,0,.583.654c.247.1-.117-.694.569-.816s2.2-.156,2.2.412v.705a4.086,4.086,0,0,0,.475,1.917,8.531,8.531,0,0,0,1.095,1.683c.691.719,1.732,2.306-.247,2.983s-3.876-.736-4-2.067a3.707,3.707,0,0,0-.648-2.047,2.4,2.4,0,0,1-.609-1.575,12.539,12.539,0,0,1,.156-1.706.637.637,0,0,1,.418-.5h0Z" transform="translate(-102.163 -307.429)" fill="#263238"/>
      <path id="Path_632" data-name="Path 632" d="M115.17,395.724c-1.976.677-3.876-.737-4-2.067a3.707,3.707,0,0,0-.648-2.047,2.528,2.528,0,0,1-.594-1.319c0,.034,0,.071,0,.105a1.887,1.887,0,0,0,.569,1.743,3.826,3.826,0,0,1,.569,2.01c.117,1.331,2.121,2.613,4.1,1.937.961-.327,1.209-.87,1.137-1.422C116.236,395.082,115.92,395.468,115.17,395.724Z" transform="translate(-102.108 -313.634)" fill="#263238"/>
      <path id="Path_633" data-name="Path 633" d="M150.936,371.966l-.1-.3a.458.458,0,0,0-.569-.284l-1.482.446a.449.449,0,0,0-.321.435v.148a.267.267,0,0,1-.267.264h0a1.34,1.34,0,0,1-.853-.31l-.208-.171v-.518h0a.913.913,0,0,0-.412.81c.017.353.037.782.023.95-.023.31-.316,1.607.031,1.991s1.123.429,2.084.324,2.013.853,2.9,1.191,4.578,1.106,4.57-1.251c0-.6-.6-.853-1.18-1.058a17.513,17.513,0,0,1-3.228-1.4,4.952,4.952,0,0,1-.6-.594A1.965,1.965,0,0,1,150.936,371.966Z" transform="translate(-128.382 -300.084)" fill="#263238"/>
      <path id="Path_634" data-name="Path 634" d="M151.711,385.819c-.89-.35-1.942-1.294-2.9-1.191s-1.737.06-2.084-.324a.913.913,0,0,1-.165-.543,1.339,1.339,0,0,0,.165.882c.347.381,1.123.427,2.084.324s2.013.853,2.9,1.192,4.578,1.106,4.57-1.251a.594.594,0,0,0,0-.1C156.034,386.871,152.57,386.157,151.711,385.819Z" transform="translate(-128.336 -308.961)" fill="#263238"/>
      <path id="Path_635" data-name="Path 635" d="M194.2,188.449a2.531,2.531,0,0,0,.316-.833,2.582,2.582,0,0,1,.853-1.348c.284-.2.367-1.177.793-1s.529.739.21,1.351-.569,1.041-.4,1.342S194.732,188.873,194.2,188.449Z" transform="translate(-162.441 -166.897)" fill="#ffa8a7"/>
      <path id="Path_636" data-name="Path 636" d="M173.611,191.31l-6.788,5.3-2.181.515-1.732,2.428c.353,1.524,3.128,3.353,4.914,1.735,1.638-1.487,5.932-6.566,5.932-6.566l-.105-3.432Z" transform="translate(-140.049 -171.222)" fill="#ffa8a7"/>
      <path id="Path_637" data-name="Path 637" d="M199.286,184.865c.626-.2,2.306,1.706,1.288,3.105a6.606,6.606,0,0,1-3.683,2.275l-1.422-2.372a.3.3,0,0,1,.165-.446,6.386,6.386,0,0,0,2.306-1.12C198.717,185.419,199,184.953,199.286,184.865Z" transform="translate(-163.318 -166.614)" fill="#ffa8a7"/>
      <path id="Path_638" data-name="Path 638" d="M149.68,170.694s2.844-1.482,4.746,3.373S157.2,181.2,157.2,181.2l-4.22,3.728Z" transform="translate(-130.581 -156.331)" fill="#e6e6e6"/>
      <path id="Path_639" data-name="Path 639" d="M161.28,202.606a15.78,15.78,0,0,1,3.29-2.1h.028a1.291,1.291,0,0,1,.705.759l.606,1.706-.3.233s-3.156,2.448-3.722,3.469Z" transform="translate(-138.882 -177.821)" fill="#e0e0e0"/>
      <path id="Path_640" data-name="Path 640" d="M153.25,126.56s3.031,1.223,1.422,5.923Z" transform="translate(-133.136 -124.899)" fill="#263238"/>
      <path id="Path_641" data-name="Path 641" d="M130.75,157.59v3.7s2.306,3.185,4.174,3.185v-4.726Z" transform="translate(-117.034 -147.105)" fill="#ffa8a7"/>
      <path id="Path_642" data-name="Path 642" d="M116.974,171.283s-3.367.264-3.717.324-1.137,8.13-1.137,8.13,1.51,5.261,1.51,5.92-.492,6.208-.492,6.208a14.724,14.724,0,0,0,9.933,1.342c3.1-.688,3.546-1.922,3.546-1.922v-8.3c0-4.032-.316-10.376-3.412-12.344l-1.9.2-.208,1.155Z" transform="translate(-103.702 -156.444)" fill="#f0f0f0"/>
      <path id="Path_643" data-name="Path 643" d="M143.934,182.426a54.889,54.889,0,0,0-.853-5.872l-.02-.077-3.233-1.137-.088.284,3.083,1.078a56.642,56.642,0,0,1,.825,5.753c.424,3.867.887,11.312,1,13.152.1-.048.191-.1.284-.145C144.8,193.443,144.364,186.245,143.934,182.426Z" transform="translate(-123.468 -159.808)" fill="#e0e0e0"/>
      <path id="Path_644" data-name="Path 644" d="M145.245,187.108a.469.469,0,1,1-.152-.327A.472.472,0,0,1,145.245,187.108Z" transform="translate(-126.732 -167.908)" fill="#e0e0e0"/>
      <path id="Path_645" data-name="Path 645" d="M146.9,199.4a.469.469,0,1,1-.152-.327A.472.472,0,0,1,146.9,199.4Z" transform="translate(-127.913 -176.703)" fill="#e0e0e0"/>
      <path id="Path_646" data-name="Path 646" d="M148.205,211.338a.472.472,0,1,1-.492-.449A.472.472,0,0,1,148.205,211.338Z" transform="translate(-128.85 -185.248)" fill="#e0e0e0"/>
      <path id="Path_647" data-name="Path 647" d="M149.825,223.988a.469.469,0,1,1-.152-.327.472.472,0,0,1,.152.327Z" transform="translate(-130.01 -194.3)" fill="#e0e0e0"/>
      <path id="Path_648" data-name="Path 648" d="M151.275,236.2a.469.469,0,1,1-.152-.327A.472.472,0,0,1,151.275,236.2Z" transform="translate(-131.048 -203.038)" fill="#e0e0e0"/>
      <path id="Path_649" data-name="Path 649" d="M133.14,159.337A5.356,5.356,0,0,0,136.552,162v-1.137l-3.512-1.814A2.8,2.8,0,0,0,133.14,159.337Z" transform="translate(-118.673 -148.15)" fill="#f28f8f"/>
      <path id="Path_650" data-name="Path 650" d="M129.6,163.744a3.718,3.718,0,0,0,2.559,1.137l1.092,1.422a10.7,10.7,0,0,0,.188-1.6h0a.543.543,0,0,0,.321-.5v-.284h.529V165.4a1.912,1.912,0,0,1-1.976,1.882,4.786,4.786,0,0,1-3.171-1.254v-2.1a.819.819,0,0,1,.444-.628Z" transform="translate(-115.882 -151.192)" fill="#e0e0e0"/>
      <path id="Path_651" data-name="Path 651" d="M132.4,128.65a3.8,3.8,0,0,1,4.1,3.634c.216,3.065.085,6.9-2.491,7.109-1.789.151-5.047-1.157-5.8-3.176S127.531,128.65,132.4,128.65Z" transform="translate(-114.961 -126.395)" fill="#ffa8a7"/>
      <path id="Path_652" data-name="Path 652" d="M148.69,147.25v2.212l1.3-.4Z" transform="translate(-129.873 -139.706)" fill="#f28f8f"/>
      <path id="Path_653" data-name="Path 653" d="M142,147.459a.452.452,0,1,0,.452-.449.452.452,0,0,0-.452.449Z" transform="translate(-125.085 -139.534)" fill="#263238"/>
      <path id="Path_654" data-name="Path 654" d="M152.47,146.352a.449.449,0,1,0,.131-.32A.452.452,0,0,0,152.47,146.352Z" transform="translate(-132.578 -138.74)" fill="#263238"/>
      <path id="Path_655" data-name="Path 655" d="M153.782,142.346l-.882-.526s.338-.35.677-.139a.617.617,0,0,1,.2.665Z" transform="translate(-132.885 -135.672)" fill="#263238"/>
      <path id="Path_656" data-name="Path 656" d="M140.612,143.333l-.793.648s-.216-.441.1-.682a.611.611,0,0,1,.694.034Z" transform="translate(-123.472 -136.813)" fill="#263238"/>
      <path id="Path_657" data-name="Path 657" d="M147.766,157.367a1.928,1.928,0,0,1-1.217-.327s-.082.64.455.762A.7.7,0,0,0,147.766,157.367Z" transform="translate(-128.337 -146.712)" fill="#f28f8f"/>
      <path id="Path_658" data-name="Path 658" d="M129.684,121.212c.569.142,1.757.472,1.991,1.169.27.825-.373,3.267-3.293,3.267a14.591,14.591,0,0,1-3.566-.373.418.418,0,0,0-.52.452,4.163,4.163,0,0,1-.748,3.307l.131,2.17v1.237s-1.473.387-2.65-4.55C121.022,127.889,118.929,118.5,129.684,121.212Z" transform="translate(-109.956 -120.72)" fill="#263238"/>
      <path id="Path_659" data-name="Path 659" d="M124.641,147.7s-.358-1.6-1.553-1.6-1.172,1.231-1.021,2.05a1.79,1.79,0,0,0,1.544,1.6,1.1,1.1,0,0,0,1.029-.717Z" transform="translate(-110.768 -138.883)" fill="#ffa8a7"/>
      <path id="Path_660" data-name="Path 660" d="M149.663,178.471a.037.037,0,1,0-.027-.036A.037.037,0,0,0,149.663,178.471Z" transform="translate(-130.549 -161.998)" fill="#272525"/>
      <path id="Path_661" data-name="Path 661" d="M117.9,171.433a33.288,33.288,0,0,1,1.359,9.629s6.725.731,8.764-1.155c0,0,.06-7.26-3.128-9.154l1.095-.114s2.673.992,3.3,8.184c.441,5.093,1.837,28.408,1.837,28.408a8.056,8.056,0,0,1-7.575,4.408c-5.724,0-7.058-1.285-7.058-1.285l1.137-22.9H115.99v-1.331a.523.523,0,0,1,.586-.523,2.093,2.093,0,0,0,1.1-.139s.25-11.6-1.271-13.891C116.388,171.573,117.179,171.49,117.9,171.433Z" transform="translate(-106.471 -156.444)" fill="#076aff"/>
      <path id="Path_662" data-name="Path 662" d="M117.9,171.433a33.288,33.288,0,0,1,1.359,9.629s6.725.731,8.764-1.155c0,0,.06-7.26-3.128-9.154l1.095-.114s2.673.992,3.3,8.184c.441,5.093,1.837,28.408,1.837,28.408a8.056,8.056,0,0,1-7.575,4.408c-5.724,0-7.058-1.285-7.058-1.285l1.137-22.9H115.99v-1.331a.523.523,0,0,1,.586-.523,2.093,2.093,0,0,0,1.1-.139s.25-11.6-1.271-13.891C116.388,171.573,117.179,171.49,117.9,171.433Z" transform="translate(-106.471 -156.444)" opacity="0.4"/>
      <path id="Path_663" data-name="Path 663" d="M129.758,234.895l-.776-2.295-5.264,1.82h0a.591.591,0,0,0-.39.495,1.9,1.9,0,0,0,.52,1.635.62.62,0,0,0,.543.193h0l.04-.014Z" transform="translate(-111.706 -200.785)" fill="#263238"/>
      <path id="Path_664" data-name="Path 664" d="M142.955,232.712a1.888,1.888,0,0,1,.518,1.635c-.117.535-.54.668-.944.284a1.9,1.9,0,0,1-.52-1.635A.524.524,0,0,1,142.955,232.712Z" transform="translate(-125.073 -200.715)" fill="#37474f"/>
      <path id="Path_665" data-name="Path 665" d="M143.68,225.927l.515,1.137h0a1.311,1.311,0,0,1,1.464.711l.4.853.364-.105a18.649,18.649,0,0,0,9.336-6.174h0Z" transform="translate(-126.287 -193.45)" fill="#e0e0e0"/>
      <path id="Path_666" data-name="Path 666" d="M97.266,173.92a4.723,4.723,0,0,0-3.412,1.547c-1.422,1.609-4.584,7.7-4.584,7.7a4.9,4.9,0,0,0,4.305,2.2s3.009-4.265,3.677-5.554S98.577,175.564,97.266,173.92Z" transform="translate(-87.349 -158.792)" fill="#e6e6e6"/>
      <path id="Path_667" data-name="Path 667" d="M83.606,211.78s-2.949,4.834.853,6.088a87.573,87.573,0,0,0,10.22,2.312s.026,1.962,1.536,1.831,2.912-.392,2.664-1.408l-1-.466a1.852,1.852,0,0,1-.438-1.661s1.183-.432,1.186-1.137-1.948.2-2.844,0-8.124-2.767-8.124-2.767Z" transform="translate(-82.516 -185.886)" fill="#ffa8a7"/>
      <path id="Path_668" data-name="Path 668" d="M85.935,205.583a11.218,11.218,0,0,0,4.413,2.036l.182-.247h0a.8.8,0,0,1-.017.725l-.827,1.536a.688.688,0,0,1-.711.353,8.01,8.01,0,0,1-4.18-1.891.714.714,0,0,1-.122-.833l.887-1.726a.543.543,0,0,1,.543-.284h0Z" transform="translate(-84 -181.21)" fill="#e0e0e0"/>
      <path id="Path_669" data-name="Path 669" d="M121.17,131.585a15.561,15.561,0,0,0,7.587,1.581,2.956,2.956,0,0,0,2.738-1.706,2.125,2.125,0,0,1,.424,1.521,4.2,4.2,0,0,1-3.162,1.6,19.639,19.639,0,0,1-7.917-1.3A5.534,5.534,0,0,1,121.17,131.585Z" transform="translate(-109.942 -128.406)" fill="#076aff"/>
    </g>
    <g id="freepik--Frame--inject-6" transform="translate(95.812 18.702)">
      <path id="Path_670" data-name="Path 670" d="M311.815,64.328l-40.4-23.318V28.868l40.4,23.318V64.328m.418.739V51.958L271,28.14V41.246Z" transform="translate(-270.972 -27.89)" fill="#f5f5f5"/>
      <path id="Path_671" data-name="Path 671" d="M274.014,65.489l-2.6-1.5v-3l.918.529a4.977,4.977,0,0,0,1.678,2.909v1.061m.424.731V64.23h0a3.791,3.791,0,0,1-1.706-2.98h0L271,60.26v3.981l3.441,1.991Z" transform="translate(-270.972 -50.876)" fill="#f5f5f5"/>
      <path id="Path_672" data-name="Path 672" d="M406.994,144.737l-2.6-1.5v-1.061a1.182,1.182,0,0,0,1.678-.97l.921.532v3m.418.739V141.5l-1.706-1c0,1.1-.771,1.541-1.706.992v1.991l3.441,1.991Z" transform="translate(-366.151 -108.299)" fill="#f5f5f5"/>
      <path id="Path_673" data-name="Path 673" d="M272.265,32.378l-.919-.532v-3l2.6,1.507v1.061a1.182,1.182,0,0,0-1.678.97m.37.7c0-1.1.768-1.541,1.706-.992h0V30.1L270.9,28.11v3.981Z" transform="translate(-270.9 -27.868)" fill="#f5f5f5"/>
      <path id="Path_674" data-name="Path 674" d="M406.93,110.081l-.921-.532a4.962,4.962,0,0,0-1.678-2.906v-1.061l2.6,1.5v3m.421.731v-3.981l-3.441-1.991v1.991a3.8,3.8,0,0,1,1.706,2.977h0l1.72,1Z" transform="translate(-366.087 -82.779)" fill="#f5f5f5"/>
      <path id="Path_675" data-name="Path 675" d="M288.361,38.165l-.421-.245V51.029l.421.245Z" transform="translate(-283.094 -34.889)" fill="#f5f5f5"/>
      <path id="Path_676" data-name="Path 676" d="M295.671,42.385l-.421-.245V55.249l.421.245Z" transform="translate(-288.326 -37.909)" fill="#f5f5f5"/>
      <path id="Path_677" data-name="Path 677" d="M317.6,55.045l-.421-.245V67.909l.421.245Z" transform="translate(-304.02 -46.969)" fill="#f5f5f5"/>
      <path id="Path_678" data-name="Path 678" d="M324.9,59.265l-.424-.245V72.129l.424.245Z" transform="translate(-309.244 -49.989)" fill="#f5f5f5"/>
      <path id="Path_679" data-name="Path 679" d="M332.211,63.485l-.421-.245V76.349l.421.245Z" transform="translate(-314.475 -53.009)" fill="#f5f5f5"/>
      <path id="Path_680" data-name="Path 680" d="M354.141,76.145l-.421-.245V89.009l.421.245Z" transform="translate(-330.169 -62.069)" fill="#f5f5f5"/>
      <path id="Path_681" data-name="Path 681" d="M361.451,80.365l-.421-.245V93.229l.421.245Z" transform="translate(-335.4 -65.089)" fill="#f5f5f5"/>
      <path id="Path_682" data-name="Path 682" d="M368.761,84.585l-.421-.245V97.449l.421.245Z" transform="translate(-340.632 -68.109)" fill="#f5f5f5"/>
      <path id="Path_683" data-name="Path 683" d="M390.684,97.245,390.26,97v13.109l.424.245Z" transform="translate(-356.318 -77.168)" fill="#f5f5f5"/>
      <path id="Path_684" data-name="Path 684" d="M397.991,101.465l-.421-.245v13.109l.421.245Z" transform="translate(-361.55 -80.188)" fill="#f5f5f5"/>
      <path id="Path_685" data-name="Path 685" d="M312.135,77.3,270.99,53.54v.486l41.145,23.756Z" transform="translate(-270.964 -46.067)" fill="#f5f5f5"/>
      <path id="Path_686" data-name="Path 686" d="M312.135,70.873,270.99,47.12v.486l41.145,23.756Z" transform="translate(-270.964 -41.473)" fill="#f5f5f5"/>
      <path id="Path_687" data-name="Path 687" d="M416.01,124.347l.421-.247V110.99l-.421.247Z" transform="translate(-374.746 -87.18)" fill="#e0e0e0"/>
      <path id="Path_688" data-name="Path 688" d="M312.228,51.317l.421-.247L271.411,27.26l-.421.25Z" transform="translate(-270.964 -27.26)" fill="#ebebeb"/>
    </g>
    <g id="freepik--Table--inject-6" transform="translate(54.989 41.346)">
      <path id="Path_689" data-name="Path 689" d="M218.011,152.57l18.6,10.61-.051,23.27-18.6-10.607Z" transform="translate(-192.191 -139.58)" fill="#076aff"/>
      <path id="Path_690" data-name="Path 690" d="M218.011,152.57l18.6,10.61-.051,23.27-18.6-10.607Z" transform="translate(-192.191 -139.58)" fill="#fff" opacity="0.4"/>
      <path id="Path_691" data-name="Path 691" d="M241.646,184.484l-12.026-6.978V171.13l12.051,6.978Zm-11.739-7.135,11.454,6.646v-5.71l-11.451-6.646Z" transform="translate(-200.535 -152.862)" fill="#076aff"/>
      <path id="Path_692" data-name="Path 692" d="M241.586,213.754l-12.026-6.978.014-6.375,12.026,6.978Zm-11.739-7.143,11.451,6.646.014-5.71L229.859,200.9Z" transform="translate(-200.492 -173.809)" fill="#076aff"/>
      <g id="Group_18" data-name="Group 18" transform="translate(29.085 18.268)" opacity="0.2">
        <path id="Path_693" data-name="Path 693" d="M241.646,184.484l-12.026-6.978V171.13l12.051,6.978Zm-11.739-7.135,11.454,6.646v-5.71l-11.451-6.646Z" transform="translate(-229.62 -171.13)" fill="#fff"/>
      </g>
      <g id="Group_19" data-name="Group 19" transform="translate(29.068 26.591)" opacity="0.2">
        <path id="Path_694" data-name="Path 694" d="M241.586,213.754l-12.026-6.978.014-6.375,12.026,6.978Zm-11.739-7.143,11.451,6.646.014-5.71L229.859,200.9Z" transform="translate(-229.56 -200.4)" fill="#fff"/>
      </g>
      <path id="Path_695" data-name="Path 695" d="M160.005,286.41l11.571,6.714-.088,39.763-11.568-6.714Z" transform="translate(-150.655 -235.361)" fill="#076aff"/>
      <path id="Path_696" data-name="Path 696" d="M160.005,286.41l11.571,6.714-.088,39.763-11.568-6.714Z" transform="translate(-150.655 -235.361)" fill="#fff" opacity="0.4"/>
      <path id="Path_697" data-name="Path 697" d="M259.293,188.34l-58.6,33.666-.088,40.7,58.6-33.666Z" transform="translate(-179.768 -165.179)" fill="#076aff"/>
      <path id="Path_698" data-name="Path 698" d="M259.293,188.34l-58.6,33.666-.088,40.7,58.6-33.666Z" transform="translate(-179.768 -165.179)" fill="#fff" opacity="0.6"/>
      <path id="Path_699" data-name="Path 699" d="M210.9,263.619a.284.284,0,0,1-.284-.284V226.856a.284.284,0,0,1,.145-.247l52.454-30.285a.284.284,0,0,1,.427.247v36.472a.284.284,0,0,1-.142.25l-52.454,30.285A.284.284,0,0,1,210.9,263.619Zm.284-36.595v35.807l51.885-29.943v-35.83Z" transform="translate(-186.938 -170.865)" fill="#076aff"/>
      <path id="Path_700" data-name="Path 700" d="M218.045,402.559a.284.284,0,0,1-.284-.284v-3.094a2.274,2.274,0,0,1-3.446-2.03l-3.031,1.752a.287.287,0,1,1-.287-.5l3.441-1.991a.287.287,0,0,1,.429.247v.046a1.833,1.833,0,0,0,3.034,1.749.284.284,0,0,1,.432.25v3.56a.284.284,0,0,1-.287.293Z" transform="translate(-187.103 -314.057)" fill="#076aff"/>
      <path id="Path_701" data-name="Path 701" d="M370.284,309.731a.284.284,0,0,1-.284-.284v-3.563a.284.284,0,0,1,.142-.25,7.352,7.352,0,0,0,3.324-5.756v-.043a.284.284,0,0,1,.142-.25l3.444-1.991a.287.287,0,1,1,.284.5l-3.3,1.905a8.066,8.066,0,0,1-3.466,6.043v3.4a.284.284,0,0,1-.287.293Z" transform="translate(-300.996 -243.338)" fill="#076aff"/>
      <path id="Path_702" data-name="Path 702" d="M211.1,301.558a.284.284,0,0,1-.142-.537l3.3-1.905a8.053,8.053,0,0,1,3.466-6.043v-3.4a.284.284,0,1,1,.569,0v3.56a.284.284,0,0,1-.145.247,7.355,7.355,0,0,0-3.307,5.75v.045a.284.284,0,0,1-.145.247l-3.441,1.991A.284.284,0,0,1,211.1,301.558Z" transform="translate(-187.07 -237.494)" fill="#076aff"/>
      <path id="Path_703" data-name="Path 703" d="M373.768,217.629a.282.282,0,0,1-.287-.287v-.048a2.15,2.15,0,0,0-.873-1.991,2.179,2.179,0,0,0-2.161.242.284.284,0,0,1-.427-.247v-3.563a.284.284,0,0,1,.569,0v3.094a2.274,2.274,0,0,1,3.446,2.028l3.031-1.749a.287.287,0,1,1,.284.5L373.91,217.6A.284.284,0,0,1,373.768,217.629Z" transform="translate(-301.011 -181.717)" fill="#076aff"/>
      <g id="Group_20" data-name="Group 20" transform="translate(23.682 25.421)" opacity="0.4">
        <path id="Path_704" data-name="Path 704" d="M210.9,263.619a.284.284,0,0,1-.284-.284V226.856a.284.284,0,0,1,.145-.247l52.454-30.285a.284.284,0,0,1,.427.247v36.472a.284.284,0,0,1-.142.25l-52.454,30.285A.284.284,0,0,1,210.9,263.619Zm.284-36.595v35.807l51.885-29.943v-35.83Z" transform="translate(-210.62 -196.286)" fill="#fff"/>
        <path id="Path_705" data-name="Path 705" d="M218.045,402.559a.284.284,0,0,1-.284-.284v-3.094a2.274,2.274,0,0,1-3.446-2.03l-3.031,1.752a.287.287,0,1,1-.287-.5l3.441-1.991a.287.287,0,0,1,.429.247v.046a1.833,1.833,0,0,0,3.034,1.749.284.284,0,0,1,.432.25v3.56a.284.284,0,0,1-.287.293Z" transform="translate(-210.785 -339.478)" fill="#fff"/>
        <path id="Path_706" data-name="Path 706" d="M370.284,309.731a.284.284,0,0,1-.284-.284v-3.563a.284.284,0,0,1,.142-.25,7.352,7.352,0,0,0,3.324-5.756v-.043a.284.284,0,0,1,.142-.25l3.444-1.991a.287.287,0,1,1,.284.5l-3.3,1.905a8.066,8.066,0,0,1-3.466,6.043v3.4a.284.284,0,0,1-.287.293Z" transform="translate(-324.678 -268.759)" fill="#fff"/>
        <path id="Path_707" data-name="Path 707" d="M211.1,301.558a.284.284,0,0,1-.142-.537l3.3-1.905a8.053,8.053,0,0,1,3.466-6.043v-3.4a.284.284,0,1,1,.569,0v3.56a.284.284,0,0,1-.145.247,7.355,7.355,0,0,0-3.307,5.75v.045a.284.284,0,0,1-.145.247l-3.441,1.991A.284.284,0,0,1,211.1,301.558Z" transform="translate(-210.751 -262.915)" fill="#fff"/>
        <path id="Path_708" data-name="Path 708" d="M373.768,217.629a.282.282,0,0,1-.287-.287v-.048a2.15,2.15,0,0,0-.873-1.991,2.179,2.179,0,0,0-2.161.242.284.284,0,0,1-.427-.247v-3.563a.284.284,0,0,1,.569,0v3.094a2.274,2.274,0,0,1,3.446,2.028l3.031-1.749a.287.287,0,1,1,.284.5L373.91,217.6A.284.284,0,0,1,373.768,217.629Z" transform="translate(-324.692 -207.138)" fill="#fff"/>
      </g>
      <path id="Path_709" data-name="Path 709" d="M212.383,144.13l0,1.718,21.444,12.441,0-1.718Z" transform="translate(-188.198 -133.54)" fill="#263238"/>
      <path id="Path_710" data-name="Path 710" d="M127.36,156.463c12.478-7.794,32.756-19.4,45.623-26.543L151.539,117.48l18.427-10.59,39.9,23.15-64.551,37.01Z" transform="translate(-127.354 -106.89)" fill="#455a64"/>
      <path id="Path_711" data-name="Path 711" d="M127.346,281.22l-.006,1.718,17.94,10.587,0-1.718Z" transform="translate(-127.34 -231.647)" fill="#263238"/>
      <path id="Path_712" data-name="Path 712" d="M190.43,227.027l0-1.718L255,188.3l0,1.72Z" transform="translate(-172.489 -165.15)" fill="#37474f"/>
    </g>
    <g id="freepik--Chairs--inject-6" transform="translate(91.419 84.128)">
      <path id="Path_713" data-name="Path 713" d="M276.486,360.863a11.709,11.709,0,0,0-5.761-1.393h0a11.709,11.709,0,0,0-5.761,1.393l-.074.046v1.4a5.848,5.848,0,0,1,.657-.435,11.434,11.434,0,0,1,10.357,0,6.128,6.128,0,0,1,.657.435v-1.4Z" transform="translate(-262.206 -330.428)" fill="#076aff"/>
      <path id="Path_714" data-name="Path 714" d="M276.486,360.863a11.709,11.709,0,0,0-5.761-1.393h0a11.709,11.709,0,0,0-5.761,1.393l-.074.046v1.4a5.848,5.848,0,0,1,.657-.435,11.434,11.434,0,0,1,10.357,0,6.128,6.128,0,0,1,.657.435v-1.4Z" transform="translate(-262.206 -330.428)" opacity="0.3"/>
      <path id="Path_715" data-name="Path 715" d="M259.65,326.011v27.677a.746.746,0,0,0,1.49,0V326.011A.746.746,0,0,0,259.65,326.011Z" transform="translate(-258.456 -305.969)" fill="#455a64"/>
      <path id="Path_716" data-name="Path 716" d="M305.93,326.011v27.677a.744.744,0,0,0,1.487,0V326.011A.744.744,0,0,0,305.93,326.011Z" transform="translate(-291.575 -305.969)" fill="#455a64"/>
      <path id="Path_717" data-name="Path 717" d="M284.92,336.621v28.4a.744.744,0,0,0,1.487,0v-28.4A.744.744,0,0,0,284.92,336.621Z" transform="translate(-276.54 -313.562)" fill="#455a64"/>
      <path id="Path_718" data-name="Path 718" d="M272.55,312.765a.565.565,0,0,0,0-.1v-2.008h-.773a6.088,6.088,0,0,0-1.726-1.422,13.373,13.373,0,0,0-12.088,0,6.052,6.052,0,0,0-1.726,1.422h-.776v2.11h0c.023,1.246.853,2.488,2.5,3.438a13.372,13.372,0,0,0,12.088,0c1.644-.95,2.477-2.192,2.5-3.438h0Z" transform="translate(-255.457 -293.446)" fill="#076aff"/>
      <path id="Path_719" data-name="Path 719" d="M272.55,312.765a.565.565,0,0,0,0-.1v-2.008h-.773a6.088,6.088,0,0,0-1.726-1.422,13.373,13.373,0,0,0-12.088,0,6.052,6.052,0,0,0-1.726,1.422h-.776v2.11h0c.023,1.246.853,2.488,2.5,3.438a13.372,13.372,0,0,0,12.088,0c1.644-.95,2.477-2.192,2.5-3.438h0Z" transform="translate(-255.457 -293.446)" opacity="0.5"/>
      <ellipse id="Ellipse_33" data-name="Ellipse 33" cx="8.548" cy="4.934" rx="8.548" ry="4.934" transform="translate(0 12.333)" fill="#076aff"/>
      <ellipse id="Ellipse_34" data-name="Ellipse 34" cx="8.548" cy="4.934" rx="8.548" ry="4.934" transform="translate(0 12.333)" opacity="0.3"/>
      <ellipse id="Ellipse_35" data-name="Ellipse 35" cx="7.413" cy="4.74" rx="7.413" ry="4.74" transform="translate(1.135 11.409)" fill="#076aff"/>
      <path id="Path_720" data-name="Path 720" d="M271.392,368.67v2.656c.054,1.123-.66,2.252-2.141,3.108a11.434,11.434,0,0,1-10.357,0,3.569,3.569,0,0,1-2.141-3.108V368.67a4.055,4.055,0,0,0-1.163,2.775,4.737,4.737,0,0,0,2.727,4,12.607,12.607,0,0,0,11.522,0,4.737,4.737,0,0,0,2.727-4A4.046,4.046,0,0,0,271.392,368.67Z" transform="translate(-255.55 -337.012)" fill="#076aff"/>
      <g id="Group_21" data-name="Group 21" transform="translate(0.04 31.658)" opacity="0.3">
        <path id="Path_721" data-name="Path 721" d="M271.392,368.67v2.656c.054,1.123-.66,2.252-2.141,3.108a11.434,11.434,0,0,1-10.357,0,3.569,3.569,0,0,1-2.141-3.108V368.67a4.055,4.055,0,0,0-1.163,2.775,4.737,4.737,0,0,0,2.727,4,12.607,12.607,0,0,0,11.522,0,4.737,4.737,0,0,0,2.727-4A4.046,4.046,0,0,0,271.392,368.67Z" transform="translate(-255.59 -368.67)"/>
      </g>
      <path id="Path_722" data-name="Path 722" d="M349.353,320.743a11.7,11.7,0,0,0-5.758-1.393h0a11.7,11.7,0,0,0-5.758,1.393l-.077.046v1.4a6.927,6.927,0,0,1,.657-.438,11.463,11.463,0,0,1,10.359,0,6.931,6.931,0,0,1,.657.438v-1.4Z" transform="translate(-314.354 -301.717)" fill="#076aff"/>
      <path id="Path_723" data-name="Path 723" d="M349.353,320.743a11.7,11.7,0,0,0-5.758-1.393h0a11.7,11.7,0,0,0-5.758,1.393l-.077.046v1.4a6.927,6.927,0,0,1,.657-.438,11.463,11.463,0,0,1,10.359,0,6.931,6.931,0,0,1,.657.438v-1.4Z" transform="translate(-314.354 -301.717)" opacity="0.3"/>
      <path id="Path_724" data-name="Path 724" d="M332.52,285.891V313.56a.744.744,0,0,0,1.487,0V285.891A.744.744,0,0,0,332.52,285.891Z" transform="translate(-310.604 -277.258)" fill="#455a64"/>
      <path id="Path_725" data-name="Path 725" d="M378.8,285.891V313.56a.744.744,0,0,0,1.487,0V285.891A.744.744,0,0,0,378.8,285.891Z" transform="translate(-343.724 -277.258)" fill="#455a64"/>
      <path id="Path_726" data-name="Path 726" d="M357.78,296.5v28.4a.746.746,0,0,0,1.49,0V296.5A.746.746,0,0,0,357.78,296.5Z" transform="translate(-328.681 -284.851)" fill="#455a64"/>
      <path id="Path_727" data-name="Path 727" d="M345.413,272.645v-2.107h-.773a6.066,6.066,0,0,0-1.729-1.422,13.373,13.373,0,0,0-12.088,0,6.088,6.088,0,0,0-1.726,1.422h-.776v2.11h0c.023,1.246.853,2.488,2.5,3.438a13.373,13.373,0,0,0,12.088,0c1.646-.95,2.48-2.192,2.5-3.438h0Z" transform="translate(-307.598 -264.734)" fill="#076aff"/>
      <path id="Path_728" data-name="Path 728" d="M345.413,272.645v-2.107h-.773a6.066,6.066,0,0,0-1.729-1.422,13.373,13.373,0,0,0-12.088,0,6.088,6.088,0,0,0-1.726,1.422h-.776v2.11h0c.023,1.246.853,2.488,2.5,3.438a13.373,13.373,0,0,0,12.088,0c1.646-.95,2.48-2.192,2.5-3.438h0Z" transform="translate(-307.598 -264.734)" opacity="0.5"/>
      <ellipse id="Ellipse_36" data-name="Ellipse 36" cx="8.548" cy="4.934" rx="8.548" ry="4.934" transform="translate(20.722 0.924)" fill="#076aff"/>
      <ellipse id="Ellipse_37" data-name="Ellipse 37" cx="8.548" cy="4.934" rx="8.548" ry="4.934" transform="translate(20.722 0.924)" opacity="0.3"/>
      <ellipse id="Ellipse_38" data-name="Ellipse 38" cx="7.413" cy="4.74" rx="7.413" ry="4.74" transform="translate(21.856)" fill="#076aff"/>
      <path id="Path_729" data-name="Path 729" d="M344.239,328.55v2.608a.284.284,0,0,1,0,.048c.054,1.123-.657,2.252-2.138,3.108a11.439,11.439,0,0,1-10.359,0,3.57,3.57,0,0,1-2.138-3.108.284.284,0,0,1,0-.048V328.55a4.044,4.044,0,0,0-1.163,2.775,4.731,4.731,0,0,0,2.727,4,12.6,12.6,0,0,0,11.52,0,4.732,4.732,0,0,0,2.727-4A4.044,4.044,0,0,0,344.239,328.55Z" transform="translate(-307.684 -308.3)" fill="#076aff"/>
      <g id="Group_22" data-name="Group 22" transform="translate(20.756 20.25)" opacity="0.3">
        <path id="Path_730" data-name="Path 730" d="M344.239,328.55v2.608a.284.284,0,0,1,0,.048c.054,1.123-.657,2.252-2.138,3.108a11.439,11.439,0,0,1-10.359,0,3.57,3.57,0,0,1-2.138-3.108.284.284,0,0,1,0-.048V328.55a4.044,4.044,0,0,0-1.163,2.775,4.731,4.731,0,0,0,2.727,4,12.6,12.6,0,0,0,11.52,0,4.732,4.732,0,0,0,2.727-4A4.044,4.044,0,0,0,344.239,328.55Z" transform="translate(-328.44 -328.55)"/>
      </g>
    </g>
    <g id="freepik--Plates--inject-6" transform="translate(89.15 39.735)">
      <path id="Path_731" data-name="Path 731" d="M247.628,121.169h.02l6.256-3.611a.665.665,0,0,1,.663,0l4.194,2.434h.162v.284h0a.321.321,0,0,1-.165.284l-6.256,3.611a.665.665,0,0,1-.663,0l-4.194-2.434a.327.327,0,0,1-.165-.284h0v-.284Z" transform="translate(-247.477 -112.85)" fill="#e0e0e0"/>
      <path id="Path_732" data-name="Path 732" d="M254.606,116.57l4.2,2.437a.33.33,0,0,1,0,.569l-6.256,3.609a.66.66,0,0,1-.66,0l-4.2-2.437a.33.33,0,0,1,0-.569l6.256-3.609a.665.665,0,0,1,.66,0Z" transform="translate(-247.511 -112.144)" fill="#fafafa"/>
      <path id="Path_733" data-name="Path 733" d="M264.649,118.97l-2.082,1.2a.162.162,0,0,0,0,.284l3.387,1.968a.327.327,0,0,0,.33,0l2.082-1.2a.162.162,0,0,0,0-.284l-3.39-1.968A.327.327,0,0,0,264.649,118.97Z" transform="translate(-258.214 -113.893)" fill="#f5f5f5"/>
      <path id="Path_734" data-name="Path 734" d="M268.011,121.423l-3.02-1.752a.321.321,0,0,0-.327,0l-1.706.984-.37-.216a.162.162,0,0,1,0-.284l2.082-1.2a.327.327,0,0,1,.33,0l3.384,1.971a.162.162,0,0,1,0,.284Z" transform="translate(-258.229 -113.884)" fill="#ebebeb"/>
      <path id="Path_735" data-name="Path 735" d="M253.43,125.709l-2.084,1.191a.165.165,0,0,0,0,.284l3.39,1.968a.336.336,0,0,0,.327,0l2.084-1.2a.165.165,0,0,0,0-.284l-3.4-1.959A.327.327,0,0,0,253.43,125.709Z" transform="translate(-250.185 -118.719)" fill="#f5f5f5"/>
      <path id="Path_736" data-name="Path 736" d="M256.767,128.165l-3.026-1.752a.327.327,0,0,0-.33,0l-1.706.984-.37-.216a.165.165,0,0,1,0-.284l2.084-1.2a.327.327,0,0,1,.327,0l3.407,1.968a.165.165,0,0,1,0,.284Z" transform="translate(-250.178 -118.709)" fill="#ebebeb"/>
      <path id="Path_737" data-name="Path 737" d="M247.635,118.083a.051.051,0,0,1,.02-.014l6.256-3.611a.665.665,0,0,1,.663,0l4.194,2.434h.165v.284h0a.327.327,0,0,1-.165.284l-6.256,3.611a.665.665,0,0,1-.663,0l-4.194-2.434a.327.327,0,0,1-.165-.284h0v-.284Z" transform="translate(-247.484 -110.632)" fill="#e0e0e0"/>
      <path id="Path_738" data-name="Path 738" d="M254.609,113.518l4.194,2.434a.333.333,0,0,1,0,.569l-6.256,3.609a.665.665,0,0,1-.663,0l-4.194-2.434a.33.33,0,0,1,0-.569l6.256-3.609a.665.665,0,0,1,.663,0Z" transform="translate(-247.511 -109.959)" fill="#fafafa"/>
      <path id="Path_739" data-name="Path 739" d="M264.66,115.887l-2.084,1.194a.165.165,0,0,0,0,.284l3.39,1.968a.327.327,0,0,0,.327,0l2.084-1.2a.162.162,0,0,0,0-.284l-3.39-1.965A.321.321,0,0,0,264.66,115.887Z" transform="translate(-258.222 -111.686)" fill="#f5f5f5"/>
      <path id="Path_740" data-name="Path 740" d="M268.028,118.38l-3.02-1.752a.321.321,0,0,0-.327,0l-1.706.984-.37-.216a.165.165,0,0,1,0-.284l2.084-1.194a.321.321,0,0,1,.327,0l3.39,1.965a.162.162,0,0,1,0,.284Z" transform="translate(-258.243 -111.708)" fill="#ebebeb"/>
      <path id="Path_741" data-name="Path 741" d="M253.432,122.661l-2.084,1.206a.162.162,0,0,0,0,.284l3.387,1.965a.333.333,0,0,0,.33,0l2.082-1.2a.165.165,0,0,0,0-.284l-3.4-1.973a.336.336,0,0,0-.316,0Z" transform="translate(-250.185 -116.537)" fill="#f5f5f5"/>
      <path id="Path_742" data-name="Path 742" d="M256.769,125.126l-3.028-1.752a.327.327,0,0,0-.327,0l-1.706.984-.37-.213a.162.162,0,0,1,0-.284l2.084-1.2a.336.336,0,0,1,.327,0l3.4,1.965a.165.165,0,0,1,0,.284Z" transform="translate(-250.178 -116.537)" fill="#ebebeb"/>
      <path id="Path_743" data-name="Path 743" d="M247.649,115.033l.023-.017,6.256-3.609a.665.665,0,0,1,.663,0l4.2,2.434h.165v.284h0a.316.316,0,0,1-.165.284l-6.256,3.609a.657.657,0,0,1-.663,0l-4.2-2.434a.319.319,0,0,1-.162-.284h0v-.284Z" transform="translate(-247.498 -108.449)" fill="#e0e0e0"/>
      <path id="Path_744" data-name="Path 744" d="M254.609,110.462l4.2,2.434a.333.333,0,0,1,0,.569l-6.256,3.609a.665.665,0,0,1-.663,0l-4.2-2.434a.33.33,0,0,1,0-.569l6.256-3.609A.651.651,0,0,1,254.609,110.462Z" transform="translate(-247.511 -107.771)" fill="#fafafa"/>
      <path id="Path_745" data-name="Path 745" d="M264.67,112.89l-2.084,1.2a.165.165,0,0,0,0,.284l3.39,1.968a.336.336,0,0,0,.327,0l2.084-1.2a.165.165,0,0,0,0-.284L265,112.89A.327.327,0,0,0,264.67,112.89Z" transform="translate(-258.229 -109.542)" fill="#f5f5f5"/>
      <path id="Path_746" data-name="Path 746" d="M268.028,115.325l-3.017-1.752a.327.327,0,0,0-.33,0l-1.706.984-.37-.216a.165.165,0,0,1,0-.284l2.084-1.2a.327.327,0,0,1,.327,0l3.39,1.965a.165.165,0,0,1,0,.284Z" transform="translate(-258.243 -109.52)" fill="#ebebeb"/>
      <path id="Path_747" data-name="Path 747" d="M253.44,119.6l-2.084,1.2a.165.165,0,0,0,0,.284l3.39,1.965a.327.327,0,0,0,.327,0l2.084-1.2a.162.162,0,0,0,0-.284L253.77,119.6A.341.341,0,0,0,253.44,119.6Z" transform="translate(-250.192 -114.343)" fill="#f5f5f5"/>
      <path id="Path_748" data-name="Path 748" d="M256.779,122.076l-3.031-1.752a.327.327,0,0,0-.327,0l-1.706.984-.37-.213a.165.165,0,0,1,0-.284l2.084-1.2a.341.341,0,0,1,.33,0l3.4,1.965a.162.162,0,0,1,0,.284Z" transform="translate(-250.185 -114.354)" fill="#ebebeb"/>
      <path id="Path_749" data-name="Path 749" d="M247.642,111.986l.02-.017,6.256-3.609a.671.671,0,0,1,.663,0l4.194,2.437h.168v.284h0a.324.324,0,0,1-.165.284l-6.256,3.609a.665.665,0,0,1-.663,0l-4.194-2.434a.33.33,0,0,1-.165-.284h0v-.284Z" transform="translate(-247.491 -106.269)" fill="#e0e0e0"/>
      <path id="Path_750" data-name="Path 750" d="M254.626,107.42l4.2,2.434a.33.33,0,0,1,0,.569l-6.256,3.611a.66.66,0,0,1-.66,0l-4.2-2.434a.33.33,0,0,1,0-.569l6.256-3.611A.665.665,0,0,1,254.626,107.42Z" transform="translate(-247.526 -105.596)" fill="#fafafa"/>
      <path id="Path_751" data-name="Path 751" d="M264.669,109.8l-2.082,1.2a.162.162,0,0,0,0,.284l3.387,1.954a.333.333,0,0,0,.33,0l2.082-1.2a.165.165,0,0,0,0-.284L265,109.786A.333.333,0,0,0,264.669,109.8Z" transform="translate(-258.229 -107.325)" fill="#f5f5f5"/>
      <path id="Path_752" data-name="Path 752" d="M268.031,112.282l-3.02-1.752a.327.327,0,0,0-.327,0l-1.706.984-.37-.213a.162.162,0,0,1,0-.284l2.082-1.2a.333.333,0,0,1,.33,0l3.39,1.965a.165.165,0,0,1,0,.284Z" transform="translate(-258.243 -107.345)" fill="#ebebeb"/>
      <path id="Path_753" data-name="Path 753" d="M253.45,116.544l-2.084,1.2a.165.165,0,0,0,0,.284l3.39,1.965a.321.321,0,0,0,.327,0l2.084-1.2a.162.162,0,0,0,0-.284l-3.39-1.968a.321.321,0,0,0-.327,0Z" transform="translate(-250.199 -112.155)" fill="#f5f5f5"/>
      <path id="Path_754" data-name="Path 754" d="M256.808,119.01l-3.017-1.752a.341.341,0,0,0-.33,0l-1.706.984-.37-.213a.165.165,0,0,1,0-.284l2.084-1.2a.321.321,0,0,1,.327,0l3.392,1.968a.162.162,0,0,1,0,.284Z" transform="translate(-250.214 -112.159)" fill="#ebebeb"/>
      <path id="Path_755" data-name="Path 755" d="M247.621,108.933l.02-.017,6.256-3.609a.665.665,0,0,1,.663,0l4.194,2.434h.159v.284h0a.333.333,0,0,1-.165.284l-6.256,3.609a.671.671,0,0,1-.663,0l-4.194-2.437a.327.327,0,0,1-.165-.284h0v-.284Z" transform="translate(-247.47 -104.084)" fill="#e0e0e0"/>
      <path id="Path_756" data-name="Path 756" d="M254.629,104.368l4.194,2.434a.33.33,0,0,1,0,.569l-6.256,3.611a.665.665,0,0,1-.663,0l-4.194-2.434a.33.33,0,0,1,0-.569l6.256-3.611A.665.665,0,0,1,254.629,104.368Z" transform="translate(-247.526 -103.411)" fill="#fafafa"/>
      <path id="Path_757" data-name="Path 757" d="M264.68,106.763l-2.084,1.2a.165.165,0,0,0,0,.284l3.39,1.968a.327.327,0,0,0,.327,0l2.084-1.2a.162.162,0,0,0,0-.284l-3.39-1.968A.336.336,0,0,0,264.68,106.763Z" transform="translate(-258.236 -105.158)" fill="#f5f5f5"/>
      <path id="Path_758" data-name="Path 758" d="M268.048,109.236l-3.02-1.752a.327.327,0,0,0-.327,0l-1.706.984-.37-.213a.165.165,0,0,1,0-.284l2.084-1.2a.336.336,0,0,1,.327,0l3.39,1.968a.162.162,0,0,1,0,.284Z" transform="translate(-258.257 -105.165)" fill="#ebebeb"/>
      <path id="Path_759" data-name="Path 759" d="M253.452,113.5l-2.084,1.2a.162.162,0,0,0,0,.284l3.387,1.968a.327.327,0,0,0,.33,0l2.082-1.2a.162.162,0,0,0,0-.284l-3.39-1.968A.321.321,0,0,0,253.452,113.5Z" transform="translate(-250.199 -109.978)" fill="#f5f5f5"/>
      <path id="Path_760" data-name="Path 760" d="M256.811,115.953l-3.02-1.752a.327.327,0,0,0-.327,0l-1.706.984-.37-.216a.162.162,0,0,1,0-.284l2.084-1.2a.321.321,0,0,1,.327,0l3.39,1.971a.162.162,0,0,1,0,.284Z" transform="translate(-250.214 -109.969)" fill="#ebebeb"/>
      <path id="Path_761" data-name="Path 761" d="M247.663,105.88l.023-.017,6.256-3.609a.657.657,0,0,1,.663,0l4.209,2.423h.159v.284h0a.321.321,0,0,1-.165.284l-6.256,3.609a.665.665,0,0,1-.663,0l-4.2-2.434a.318.318,0,0,1-.162-.284h0v-.284Z" transform="translate(-247.513 -101.898)" fill="#e0e0e0"/>
      <path id="Path_762" data-name="Path 762" d="M254.636,101.315l4.2,2.434a.33.33,0,0,1,0,.569l-6.256,3.609a.657.657,0,0,1-.663,0l-4.2-2.434a.333.333,0,0,1,0-.569l6.256-3.609a.66.66,0,0,1,.663,0Z" transform="translate(-247.533 -101.226)" fill="#fafafa"/>
      <path id="Path_763" data-name="Path 763" d="M264.69,103.7l-2.084,1.189a.165.165,0,0,0,0,.284l3.39,1.965a.321.321,0,0,0,.327,0l2.084-1.194a.165.165,0,0,0,0-.284l-3.39-1.968A.327.327,0,0,0,264.69,103.7Z" transform="translate(-258.243 -102.961)" fill="#f0f0f0"/>
      <path id="Path_764" data-name="Path 764" d="M268.048,106.172l-3.017-1.752a.341.341,0,0,0-.33,0l-1.706.984-.37-.213a.165.165,0,0,1,0-.284l2.084-1.2a.327.327,0,0,1,.327,0l3.39,1.968a.162.162,0,0,1,0,.284Z" transform="translate(-258.257 -102.972)" fill="#e6e6e6"/>
      <path id="Path_765" data-name="Path 765" d="M253.452,110.451l-2.084,1.2a.162.162,0,0,0,0,.284l3.39,1.968a.321.321,0,0,0,.327,0l2.084-1.2a.162.162,0,0,0,0-.284l-3.387-1.965A.327.327,0,0,0,253.452,110.451Z" transform="translate(-250.199 -107.797)" fill="#f0f0f0"/>
      <path id="Path_766" data-name="Path 766" d="M256.821,112.9l-3.02-1.752a.321.321,0,0,0-.327,0l-1.706.984-.37-.216a.162.162,0,0,1,0-.284l2.084-1.2a.327.327,0,0,1,.33,0l3.384,1.968a.162.162,0,0,1,0,.284Z" transform="translate(-250.221 -107.786)" fill="#e6e6e6"/>
      <ellipse id="Ellipse_39" data-name="Ellipse 39" cx="4.686" cy="8.119" rx="4.686" ry="8.119" transform="translate(6.911 17.768) rotate(-89.87)" fill="#e0e0e0"/>
      <ellipse id="Ellipse_40" data-name="Ellipse 40" cx="4.686" cy="8.119" rx="4.686" ry="8.119" transform="translate(6.897 17.463) rotate(-89.88)" fill="#fafafa"/>
      <ellipse id="Ellipse_41" data-name="Ellipse 41" cx="3.483" cy="6.031" rx="3.483" ry="6.031" transform="translate(8.989 16.09) rotate(-89.88)" fill="#f0f0f0"/>
      <path id="Path_767" data-name="Path 767" d="M280.9,134.539a9.433,9.433,0,0,1,8.531.02,3.073,3.073,0,0,1,1.755,2.38,2.96,2.96,0,0,0-1.755-2.559,9.433,9.433,0,0,0-8.531-.02,2.946,2.946,0,0,0-1.766,2.545A3.053,3.053,0,0,1,280.9,134.539Z" transform="translate(-270.13 -124.215)" fill="#e6e6e6"/>
      <ellipse id="Ellipse_42" data-name="Ellipse 42" cx="4.686" cy="8.119" rx="4.686" ry="8.119" transform="translate(6.9 16.759) rotate(-89.88)" fill="#e0e0e0"/>
      <ellipse id="Ellipse_43" data-name="Ellipse 43" cx="4.686" cy="8.119" rx="4.686" ry="8.119" transform="translate(6.9 16.462) rotate(-89.88)" fill="#fafafa"/>
      <path id="Path_768" data-name="Path 768" d="M289.412,135.812a9.433,9.433,0,0,1-8.531-.02c-2.355-1.365-2.349-3.569,0-4.925a9.425,9.425,0,0,1,8.531.02C291.764,132.252,291.772,134.447,289.412,135.812Z" transform="translate(-270.118 -121.715)" fill="#f0f0f0"/>
      <path id="Path_769" data-name="Path 769" d="M280.919,131a9.424,9.424,0,0,1,8.531.017,3.041,3.041,0,0,1,1.755,2.38,2.966,2.966,0,0,0-1.755-2.559,9.433,9.433,0,0,0-8.531-.02,2.945,2.945,0,0,0-1.763,2.559A3.05,3.05,0,0,1,280.919,131Z" transform="translate(-270.144 -121.682)" fill="#e6e6e6"/>
      <ellipse id="Ellipse_44" data-name="Ellipse 44" cx="4.686" cy="8.119" rx="4.686" ry="8.119" transform="translate(6.917 15.764) rotate(-89.87)" fill="#e0e0e0"/>
      <ellipse id="Ellipse_45" data-name="Ellipse 45" cx="4.686" cy="8.119" rx="4.686" ry="8.119" transform="translate(6.902 15.459) rotate(-89.88)" fill="#fafafa"/>
      <path id="Path_770" data-name="Path 770" d="M289.425,132.292a9.433,9.433,0,0,1-8.531-.02c-2.355-1.365-2.346-3.569,0-4.925a9.425,9.425,0,0,1,8.531.02C291.777,128.732,291.785,130.935,289.425,132.292Z" transform="translate(-270.128 -119.196)" fill="#f0f0f0"/>
      <path id="Path_771" data-name="Path 771" d="M280.922,127.5a9.425,9.425,0,0,1,8.531.017,3.041,3.041,0,0,1,1.755,2.38,2.965,2.965,0,0,0-1.755-2.559,9.433,9.433,0,0,0-8.531-.02,2.949,2.949,0,0,0-1.766,2.559A3.044,3.044,0,0,1,280.922,127.5Z" transform="translate(-270.144 -119.177)" fill="#e6e6e6"/>
      <ellipse id="Ellipse_46" data-name="Ellipse 46" cx="4.686" cy="8.119" rx="4.686" ry="8.119" transform="translate(6.902 14.756) rotate(-89.88)" fill="#e0e0e0"/>
      <ellipse id="Ellipse_47" data-name="Ellipse 47" cx="4.686" cy="8.119" rx="4.686" ry="8.119" transform="translate(6.92 14.465) rotate(-89.87)" fill="#fafafa"/>
      <path id="Path_772" data-name="Path 772" d="M289.438,128.772a9.433,9.433,0,0,1-8.531-.02c-2.352-1.365-2.346-3.569,0-4.925a9.424,9.424,0,0,1,8.531.02C291.792,125.212,291.795,127.418,289.438,128.772Z" transform="translate(-270.138 -116.677)" fill="#f0f0f0"/>
      <path id="Path_773" data-name="Path 773" d="M280.932,124.009a9.433,9.433,0,0,1,8.531.02,3.073,3.073,0,0,1,1.755,2.38,2.966,2.966,0,0,0-1.755-2.559,9.433,9.433,0,0,0-8.531-.02,2.946,2.946,0,0,0-1.766,2.545A3.023,3.023,0,0,1,280.932,124.009Z" transform="translate(-270.152 -116.679)" fill="#e6e6e6"/>
      <ellipse id="Ellipse_48" data-name="Ellipse 48" cx="4.686" cy="8.119" rx="4.686" ry="8.119" transform="translate(6.905 13.758) rotate(-89.88)" fill="#e0e0e0"/>
      <ellipse id="Ellipse_49" data-name="Ellipse 49" cx="4.686" cy="8.119" rx="4.686" ry="8.119" transform="translate(6.905 13.456) rotate(-89.88)" fill="#fafafa"/>
      <ellipse id="Ellipse_50" data-name="Ellipse 50" cx="3.483" cy="6.031" rx="3.483" ry="6.031" transform="translate(9.013 12.092) rotate(-89.87)" fill="#f0f0f0"/>
      <path id="Path_774" data-name="Path 774" d="M280.942,120.461a9.425,9.425,0,0,1,8.531.017,3.041,3.041,0,0,1,1.755,2.38,2.96,2.96,0,0,0-1.755-2.559,9.433,9.433,0,0,0-8.531-.02,2.948,2.948,0,0,0-1.766,2.559A3.031,3.031,0,0,1,280.942,120.461Z" transform="translate(-270.159 -114.139)" fill="#e6e6e6"/>
    </g>
    <g id="freepik--Chopsticks--inject-6" transform="translate(84.6 49.476)">
      <path id="Path_775" data-name="Path 775" d="M256.9,217.232l0,.586-2.278-1.325v-.583Z" transform="translate(-248.037 -193.039)" fill="#076aff"/>
      <path id="Path_776" data-name="Path 776" d="M256.9,217.232l0,.586-2.278-1.325v-.583Z" transform="translate(-248.037 -193.039)" opacity="0.2"/>
      <path id="Path_777" data-name="Path 777" d="M267.649,211.006l-5.019,2.883,0-.586,5.019-2.883Z" transform="translate(-253.769 -189.11)" fill="#076aff"/>
      <path id="Path_778" data-name="Path 778" d="M261.92,207.092l-5.019,2.883-2.281-1.322,5.019-2.883Z" transform="translate(-248.037 -185.782)" fill="#076aff"/>
      <path id="Path_779" data-name="Path 779" d="M261.92,207.092l-5.019,2.883-2.281-1.322,5.019-2.883Z" transform="translate(-248.037 -185.782)" fill="#fff" opacity="0.2"/>
      <path id="Path_780" data-name="Path 780" d="M313.386,234.681l-.586.336,0-.671.583-.336Z" transform="translate(-289.673 -205.992)" fill="#703838"/>
      <path id="Path_781" data-name="Path 781" d="M282.513,216.863l-.583.336-12.27-7.015.233-.134Z" transform="translate(-258.8 -188.845)" fill="#945959"/>
      <path id="Path_782" data-name="Path 782" d="M281.93,217.535l0,.671L269.66,210.79v-.27Z" transform="translate(-258.8 -189.181)" fill="#703838"/>
      <path id="Path_783" data-name="Path 783" d="M307.233,238.214l-.583.336v-.674l.586-.336Z" transform="translate(-285.272 -208.518)" fill="#703838"/>
      <path id="Path_784" data-name="Path 784" d="M276.356,220.4l-.586.336-12.27-7.012.233-.134Z" transform="translate(-254.392 -191.378)" fill="#945959"/>
      <path id="Path_785" data-name="Path 785" d="M275.77,221.072v.674L263.5,214.33v-.27Z" transform="translate(-254.392 -191.715)" fill="#703838"/>
      <path id="Path_786" data-name="Path 786" d="M279.3,162.964l-.583.336,0-.674.583-.336Z" transform="translate(-265.284 -154.666)" fill="#e6e6e6"/>
      <path id="Path_787" data-name="Path 787" d="M248.433,145.15l-.583.336-12.27-7.012.233-.134Z" transform="translate(-234.411 -137.527)" fill="#fafafa"/>
      <path id="Path_788" data-name="Path 788" d="M247.843,145.822l0,.674-12.27-7.416,0-.27Z" transform="translate(-234.404 -137.863)" fill="#e0e0e0"/>
      <path id="Path_789" data-name="Path 789" d="M275.2,165.884l-.583.333v-.671l.583-.336Z" transform="translate(-262.35 -156.756)" fill="#e6e6e6"/>
      <path id="Path_790" data-name="Path 790" d="M244.323,148.07l-.583.336-12.27-7.012.233-.134Z" transform="translate(-231.47 -139.616)" fill="#fafafa"/>
      <path id="Path_791" data-name="Path 791" d="M243.74,148.742v.671L231.47,142v-.27Z" transform="translate(-231.47 -139.953)" fill="#e0e0e0"/>
      <path id="Path_792" data-name="Path 792" d="M279.313,160.1l-.583.336v-.674l.586-.336Z" transform="translate(-265.291 -152.619)" fill="#e6e6e6"/>
      <path id="Path_793" data-name="Path 793" d="M248.436,142.29l-.586.336-12.27-7.012.233-.134Z" transform="translate(-234.411 -135.48)" fill="#fafafa"/>
      <path id="Path_794" data-name="Path 794" d="M247.85,142.962v.674l-12.27-7.416v-.27Z" transform="translate(-234.411 -135.816)" fill="#e0e0e0"/>
      <path id="Path_795" data-name="Path 795" d="M275.206,163.024l-.586.336,0-.674.583-.336Z" transform="translate(-262.35 -154.709)" fill="#e6e6e6"/>
      <path id="Path_796" data-name="Path 796" d="M244.333,145.21l-.583.336-12.27-7.012.233-.134Z" transform="translate(-231.477 -137.57)" fill="#fafafa"/>
      <path id="Path_797" data-name="Path 797" d="M243.743,145.882l0,.674-12.27-7.416,0-.27Z" transform="translate(-231.47 -137.906)" fill="#e0e0e0"/>
    </g>
    <g id="freepik--Sushi--inject-6" transform="translate(65.597 48.149)">
      <path id="Path_798" data-name="Path 798" d="M197.995,229.106l-20.349,11.741a2.62,2.62,0,0,1-2.36-.1l-10.066-5.812c-.7-.4-.773-1.012-.168-1.362L185.4,221.834a2.614,2.614,0,0,1,2.357.1l10.066,5.812C198.524,228.159,198.6,228.767,197.995,229.106Z" transform="translate(-164.642 -195.782)" fill="#945959"/>
      <path id="Path_799" data-name="Path 799" d="M198.014,246.6l-20.349,11.741a2.62,2.62,0,0,1-2.36-.1l-10.066-5.812a.961.961,0,0,1-.569-.773h0v1.6h0a.967.967,0,0,0,.569.793l10.066,5.812a2.629,2.629,0,0,0,2.36.1l20.349-11.744a.725.725,0,0,0,.4-.52h0V246.04A.717.717,0,0,1,198.014,246.6Z" transform="translate(-164.662 -213.274)" fill="#703838"/>
      <path id="Path_800" data-name="Path 800" d="M222.047,226.455a6.292,6.292,0,0,0-2.844-4.928,1.937,1.937,0,0,0-2.244-.057h0l-11.269,6.54,4.015,6.973,11.574-6.728h0A2.047,2.047,0,0,0,222.047,226.455Z" transform="translate(-194.018 -195.454)" fill="#37474f"/>
      <ellipse id="Ellipse_51" data-name="Ellipse 51" cx="2.173" cy="3.899" rx="2.173" ry="3.899" transform="translate(9.848 33.761) rotate(-30)" fill="#ebebeb"/>
      <path id="Path_801" data-name="Path 801" d="M204.285,244.984h0a2.3,2.3,0,0,1,1.137.35,5.965,5.965,0,0,1,2.7,4.678c0,1.092-.481,1.743-1.288,1.743a2.346,2.346,0,0,1-1.137-.35,5.969,5.969,0,0,1-2.7-4.678c0-1.092.481-1.743,1.288-1.743m0-.284c-.933,0-1.575.745-1.575,2.033a6.287,6.287,0,0,0,2.844,4.925,2.559,2.559,0,0,0,1.268.39c.936,0,1.575-.745,1.575-2.03a6.292,6.292,0,0,0-2.844-4.928,2.582,2.582,0,0,0-1.271-.39Z" transform="translate(-191.885 -212.315)" fill="#263238"/>
      <path id="Path_802" data-name="Path 802" d="M210.68,254.837l-1.518-.879a.853.853,0,0,1-.361-.688v-1.627c0-.264.162-.387.361-.284l1.518.879a.853.853,0,0,1,.361.688v1.627C211.041,254.831,210.879,254.954,210.68,254.837Z" transform="translate(-196.243 -217.054)" fill="#076aff"/>
      <path id="Path_803" data-name="Path 803" d="M209.49,257.119l1.518.879c.2.117.361,0,.361-.284V256.1a.916.916,0,0,0-.085-.358l-2.025,1.137A.662.662,0,0,0,209.49,257.119Z" transform="translate(-196.572 -220.215)" opacity="0.3"/>
      <path id="Path_804" data-name="Path 804" d="M197.747,254.834a6.292,6.292,0,0,0-2.844-4.928,1.991,1.991,0,0,0-2.244-.057h0l-1.55.882,4.015,6.973,1.854-1.061h0A2.075,2.075,0,0,0,197.747,254.834Z" transform="translate(-183.584 -215.772)" fill="#455a64"/>
      <ellipse id="Ellipse_52" data-name="Ellipse 52" cx="2.173" cy="3.899" rx="2.173" ry="3.899" transform="translate(5.7 36.156) rotate(-30)" fill="#ebebeb"/>
      <path id="Path_805" data-name="Path 805" d="M189.7,253.4h0a2.318,2.318,0,0,1,1.137.35,5.969,5.969,0,0,1,2.7,4.678c0,1.092-.481,1.743-1.285,1.743a2.3,2.3,0,0,1-1.137-.35,5.965,5.965,0,0,1-2.7-4.678c0-1.092.481-1.743,1.285-1.743m0-.284c-.933,0-1.573.742-1.573,2.03a6.292,6.292,0,0,0,2.844,4.928,2.6,2.6,0,0,0,1.271.387c.933,0,1.575-.742,1.575-2.03a6.292,6.292,0,0,0-2.844-4.928,2.591,2.591,0,0,0-1.271-.387Z" transform="translate(-181.444 -218.34)" fill="#263238"/>
      <path id="Path_806" data-name="Path 806" d="M196.1,263.246l-1.521-.882a.853.853,0,0,1-.358-.688V260.05c0-.267.159-.39.358-.284l1.521.876a.853.853,0,0,1,.361.688v1.629C196.461,263.24,196.3,263.363,196.1,263.246Z" transform="translate(-185.809 -223.069)" fill="#076aff"/>
      <path id="Path_807" data-name="Path 807" d="M194.9,265.493l1.521.876c.2.117.361,0,.361-.284v-1.629a.853.853,0,0,0-.088-.355l-2.025,1.137A.694.694,0,0,0,194.9,265.493Z" transform="translate(-186.131 -226.198)" opacity="0.3"/>
      <path id="Path_808" data-name="Path 808" d="M331.65,208.729l2.227,1.285v-3.879l-2.227-1.285Z" transform="translate(-284.159 -183.796)" fill="#703838"/>
      <path id="Path_809" data-name="Path 809" d="M370,186.859l2.227,1.285v-3.879L370,182.98Z" transform="translate(-311.604 -168.145)" fill="#703838"/>
      <path id="Path_810" data-name="Path 810" d="M338.7,170.569l-2.363,2.963-19.652,11.346-3.154.225v-1.012L338.7,169.56Z" transform="translate(-271.192 -158.542)" fill="#703838"/>
      <path id="Path_811" data-name="Path 811" d="M303.254,149.093l-25.169,14.531L264,155.494l25.169-14.534Z" transform="translate(-235.746 -138.074)" fill="#945959"/>
      <path id="Path_812" data-name="Path 812" d="M264,192.07v1.009l14.085,8.133V200.2Z" transform="translate(-235.746 -174.651)" fill="#703838"/>
      <path id="Path_813" data-name="Path 813" d="M341.709,208.729l-2.229,1.285v-3.879l2.229-1.285Z" transform="translate(-289.762 -183.796)" fill="#945959"/>
      <path id="Path_814" data-name="Path 814" d="M380.059,186.859l-2.229,1.285v-3.879l2.229-1.285Z" transform="translate(-317.207 -168.145)" fill="#945959"/>
      <path id="Path_815" data-name="Path 815" d="M337.931,130.866l-.028-.017h0a.333.333,0,0,0-.344.026l-3.1,1.791a1.245,1.245,0,0,0-.523,1v3.412a.463.463,0,0,0,.171.412h0l2.935,1.689,3.788-6.631Z" transform="translate(-285.791 -130.813)" fill="#37474f"/>
      <path id="Path_816" data-name="Path 816" d="M337.1,140.627,334.085,139a1.24,1.24,0,0,0-.122.512v3.412a.464.464,0,0,0,.171.412h0l2.935,1.689.043-.077Z" transform="translate(-285.812 -136.672)" fill="#263238"/>
      <path id="Path_817" data-name="Path 817" d="M347.971,141.769l-3,1.729c-.284.162-.5,0-.5-.381v-3.279a1.209,1.209,0,0,1,.5-.961l3-1.732c.284-.159.5,0,.5.381v3.279A1.2,1.2,0,0,1,347.971,141.769Z" transform="translate(-293.334 -135.301)" fill="#f5f5f5"/>
      <path id="Path_818" data-name="Path 818" d="M349.871,145.365l-1.4.81c-.131.074-.236,0-.236-.179v-1.536a.569.569,0,0,1,.236-.452l1.4-.81c.128-.074.236,0,.236.179v1.536A.569.569,0,0,1,349.871,145.365Z" transform="translate(-296.024 -139.656)" fill="#076aff"/>
      <path id="Path_819" data-name="Path 819" d="M349.871,145.365l-1.4.81c-.131.074-.236,0-.236-.179v-1.536a.569.569,0,0,1,.236-.452l1.4-.81c.128-.074.236,0,.236.179v1.536A.569.569,0,0,1,349.871,145.365Z" transform="translate(-296.024 -139.656)" fill="#fff" opacity="0.5"/>
      <path id="Path_820" data-name="Path 820" d="M351.53,144.044v1.009l.853-.469V143.8a.131.131,0,0,0-.193-.117Z" transform="translate(-298.386 -140.01)" fill="#076aff"/>
      <path id="Path_821" data-name="Path 821" d="M349.44,148.5v.955l-.83.489v-.99Z" transform="translate(-296.296 -143.47)" fill="#076aff"/>
      <path id="Path_822" data-name="Path 822" d="M349.95,143.326a.194.194,0,0,1,0,.051v1.536a.415.415,0,0,1-.162.321l-1.4.81h0a.208.208,0,0,1,0-.051v-1.536a.415.415,0,0,1,.162-.321l1.4-.81h0m.014-.156a.171.171,0,0,0-.094.028l-1.4.81a.569.569,0,0,0-.236.452V146c0,.128.06.208.142.208a.219.219,0,0,0,.094-.028l1.4-.81a.569.569,0,0,0,.236-.452v-1.536C350.107,143.247,350.047,143.17,349.965,143.17Z" transform="translate(-296.024 -139.656)" fill="#455a64"/>
      <path id="Path_823" data-name="Path 823" d="M348.052,136.976a.353.353,0,0,1,.028.156v3.412a.958.958,0,0,1-.373.736l-3.105,1.794-.043.02a.353.353,0,0,1-.028-.156v-3.412a.97.97,0,0,1,.372-.739L348.009,137l.043-.02m.014-.3a.412.412,0,0,0-.208.063l-3.105,1.791a1.26,1.26,0,0,0-.523,1v3.4c0,.284.131.458.316.458a.421.421,0,0,0,.208-.063l3.105-1.792a1.257,1.257,0,0,0,.52-1v-3.412c0-.284-.128-.458-.313-.458Z" transform="translate(-293.162 -134.997)" fill="#455a64"/>
      <path id="Path_824" data-name="Path 824" d="M354.685,140.446l-.031-.017h0a.327.327,0,0,0-.341.026l-3.105,1.792a1.254,1.254,0,0,0-.523,1v3.412a.472.472,0,0,0,.171.412h0l2.935,1.689,3.791-6.631Z" transform="translate(-297.779 -137.668)" fill="#37474f"/>
      <path id="Path_825" data-name="Path 825" d="M353.835,150.241l-3.028-1.621a1.286,1.286,0,0,0-.122.512v3.412a.472.472,0,0,0,.171.412h0l2.935,1.689.046-.077Z" transform="translate(-297.779 -143.556)" fill="#263238"/>
      <path id="Path_826" data-name="Path 826" d="M364.719,151.377l-2.986,1.729c-.284.162-.5,0-.5-.381v-3.279a1.2,1.2,0,0,1,.5-.958l2.994-1.732c.284-.159.506,0,.506.381v3.279A1.206,1.206,0,0,1,364.719,151.377Z" transform="translate(-305.328 -142.178)" fill="#f5f5f5"/>
      <path id="Path_827" data-name="Path 827" d="M366.6,154.965l-1.4.81c-.131.074-.236,0-.236-.179v-1.536a.569.569,0,0,1,.236-.452l1.4-.81c.131-.074.236,0,.236.179v1.536A.569.569,0,0,1,366.6,154.965Z" transform="translate(-307.997 -146.526)" fill="#076aff"/>
      <path id="Path_828" data-name="Path 828" d="M366.6,154.965l-1.4.81c-.131.074-.236,0-.236-.179v-1.536a.569.569,0,0,1,.236-.452l1.4-.81c.131-.074.236,0,.236.179v1.536A.569.569,0,0,1,366.6,154.965Z" transform="translate(-307.997 -146.526)" fill="#fff" opacity="0.5"/>
      <path id="Path_829" data-name="Path 829" d="M368.25,153.595V154.6l.853-.469v-.788a.134.134,0,0,0-.2-.117Z" transform="translate(-310.351 -146.845)" fill="#076aff"/>
      <path id="Path_830" data-name="Path 830" d="M366.167,158.1v.955l-.827.489v-.99Z" transform="translate(-308.269 -150.34)" fill="#076aff"/>
      <path id="Path_831" data-name="Path 831" d="M366.685,152.926a.175.175,0,0,1,0,.051v1.536a.415.415,0,0,1-.159.321l-1.4.81h0a.119.119,0,0,1,0-.051v-1.536a.415.415,0,0,1,.162-.321l1.4-.81h0m.014-.156a.185.185,0,0,0-.094.028l-1.4.81a.569.569,0,0,0-.236.452V155.6c0,.128.057.208.142.208a.219.219,0,0,0,.094-.028l1.4-.81a.569.569,0,0,0,.236-.452v-1.536C366.844,152.847,366.787,152.77,366.7,152.77Z" transform="translate(-308.004 -146.526)" fill="#455a64"/>
      <path id="Path_832" data-name="Path 832" d="M364.753,146.576a.367.367,0,0,1,.026.156v3.412a.958.958,0,0,1-.372.736l-3.1,1.794-.046.02a.352.352,0,0,1-.028-.156v-3.412a.978.978,0,0,1,.373-.739l3.105-1.792.045-.02m0-.3a.421.421,0,0,0-.208.063l-3.1,1.791a1.251,1.251,0,0,0-.523,1v3.4c0,.284.128.458.316.458a.421.421,0,0,0,.208-.063l3.1-1.792a1.251,1.251,0,0,0,.523-1v-3.412c0-.284-.131-.458-.316-.458Z" transform="translate(-305.106 -141.867)" fill="#455a64"/>
      <path id="Path_833" data-name="Path 833" d="M371.671,150.272a.153.153,0,0,0-.028-.017h0a.33.33,0,0,0-.344.023l-3.105,1.791a1.257,1.257,0,0,0-.52,1v3.4a.469.469,0,0,0,.171.415h0l2.935,1.692,3.791-6.631Z" transform="translate(-309.936 -144.699)" fill="#37474f"/>
      <path id="Path_834" data-name="Path 834" d="M370.821,160.061l-3.028-1.621a1.28,1.28,0,0,0-.119.512v3.4a.469.469,0,0,0,.171.415h0l2.935,1.692.046-.08Z" transform="translate(-309.936 -150.584)" fill="#263238"/>
      <path id="Path_835" data-name="Path 835" d="M381.716,161.2l-2.983,1.726c-.284.159-.5,0-.5-.381v-3.279a1.209,1.209,0,0,1,.5-.964l3-1.729c.284-.162.5,0,.5.381v3.279a1.22,1.22,0,0,1-.518.967Z" transform="translate(-317.493 -149.203)" fill="#f5f5f5"/>
      <path id="Path_836" data-name="Path 836" d="M383.578,164.789l-1.4.81c-.131.077-.236,0-.236-.179v-1.536a.569.569,0,0,1,.236-.449l1.4-.81c.131-.077.236,0,.236.176v1.538a.569.569,0,0,1-.236.449Z" transform="translate(-320.148 -153.558)" fill="#076aff"/>
      <path id="Path_837" data-name="Path 837" d="M383.578,164.789l-1.4.81c-.131.077-.236,0-.236-.179v-1.536a.569.569,0,0,1,.236-.449l1.4-.81c.131-.077.236,0,.236.176v1.538a.569.569,0,0,1-.236.449Z" transform="translate(-320.148 -153.558)" fill="#fff" opacity="0.5"/>
      <path id="Path_838" data-name="Path 838" d="M385.24,163.417v1.012l.853-.469v-.791a.131.131,0,0,0-.2-.114Z" transform="translate(-322.51 -153.875)" fill="#076aff"/>
      <path id="Path_839" data-name="Path 839" d="M383.15,167.93v.953l-.83.492v-.99Z" transform="translate(-320.42 -157.375)" fill="#076aff"/>
      <path id="Path_840" data-name="Path 840" d="M383.6,162.761a.12.12,0,0,1,0,.051v1.538a.426.426,0,0,1-.162.321l-1.4.808h0a.176.176,0,0,1,0-.051v-1.536a.429.429,0,0,1,.142-.318l1.4-.81h0m0-.154a.185.185,0,0,0-.094.028l-1.4.81a.569.569,0,0,0-.236.449v1.536c0,.131.057.208.142.208a.185.185,0,0,0,.094-.028l1.4-.81a.569.569,0,0,0,.236-.449v-1.538C383.724,162.687,383.667,162.61,383.582,162.61Z" transform="translate(-320.084 -153.568)" fill="#455a64"/>
      <path id="Path_841" data-name="Path 841" d="M381.733,156.4a.326.326,0,0,1,.028.154v3.4a.97.97,0,0,1-.372.739l-3.105,1.792-.046.02a.35.35,0,0,1-.026-.154v-3.412a.964.964,0,0,1,.372-.739l3.1-1.792.045-.02m0-.3a.4.4,0,0,0-.2.063l-3.105,1.794a1.243,1.243,0,0,0-.523,1v3.412c0,.284.131.455.316.455a.421.421,0,0,0,.208-.063l3.105-1.792a1.251,1.251,0,0,0,.52-1v-3.4c0-.284-.128-.458-.316-.458Z" transform="translate(-317.257 -148.895)" fill="#455a64"/>
      <path id="Path_842" data-name="Path 842" d="M311.307,157.37v1.646a1.55,1.55,0,0,1-.77,1.339l-1.448.833-1.311.759-1.291.742a1.925,1.925,0,0,1-1.925,0l-.9-.518a1.538,1.538,0,0,1-.773-1.339v-1.646l3.472-.748,1.888-.41Z" transform="translate(-263.577 -149.818)" fill="#fff"/>
      <path id="Path_843" data-name="Path 843" d="M304.861,166.215a.569.569,0,0,0,.657-.569v-1.422l-.429-2.124-2.2.472v1.649a1.544,1.544,0,0,0,.773,1.337l.9.518A2.028,2.028,0,0,0,304.861,166.215Z" transform="translate(-263.577 -153.203)" fill="#f5f5f5"/>
      <path id="Path_844" data-name="Path 844" d="M303.716,164.676v.773L300.69,163.7v-.773Z" transform="translate(-262.003 -153.797)" fill="#076aff"/>
      <path id="Path_845" data-name="Path 845" d="M317.973,156.363,311.33,160.2v-.773l6.643-3.833Z" transform="translate(-269.617 -148.544)" fill="#076aff"/>
      <path id="Path_846" data-name="Path 846" d="M317.973,156.363,311.33,160.2v-.773l6.643-3.833Z" transform="translate(-269.617 -148.544)" fill="#fff" opacity="0.2"/>
      <path id="Path_847" data-name="Path 847" d="M310.358,151.189l-6.643,3.833-3.026-1.746,6.643-3.836Z" transform="translate(-262.003 -144.143)" fill="#076aff"/>
      <path id="Path_848" data-name="Path 848" d="M310.358,151.189l-6.643,3.833-3.026-1.746,6.643-3.836Z" transform="translate(-262.003 -144.143)" fill="#fff" opacity="0.4"/>
      <path id="Path_849" data-name="Path 849" d="M307.034,156.031a.094.094,0,0,1-.077-.045.088.088,0,0,1,.034-.122l5.119-2.983-1.609-.93-4.971,2.9,1.027.552,4.317-2.519-.458-.259-3.663,2.15a.091.091,0,0,1-.091-.156l3.7-2.173a.094.094,0,0,1,.091,0l.637.361a.091.091,0,0,1,.045.077.085.085,0,0,1-.045.077l-4.479,2.622a.088.088,0,0,1-.088,0l-1.214-.651a.091.091,0,0,1-.046-.08.1.1,0,0,1,.043-.08l5.156-3a.088.088,0,0,1,.091,0l1.789,1.032a.091.091,0,0,1,.046.077.094.094,0,0,1-.046.08l-5.255,3.06a.083.083,0,0,1-.048.014Z" transform="translate(-265.273 -145.8)" fill="#076aff"/>
      <g id="Group_23" data-name="Group 23" transform="translate(39.987 5.955)" opacity="0.2">
        <path id="Path_850" data-name="Path 850" d="M307.034,156.031a.094.094,0,0,1-.077-.045.088.088,0,0,1,.034-.122l5.119-2.983-1.609-.93-4.971,2.9,1.027.552,4.317-2.519-.458-.259-3.663,2.15a.091.091,0,0,1-.091-.156l3.7-2.173a.094.094,0,0,1,.091,0l.637.361a.091.091,0,0,1,.045.077.085.085,0,0,1-.045.077l-4.479,2.622a.088.088,0,0,1-.088,0l-1.214-.651a.091.091,0,0,1-.046-.08.1.1,0,0,1,.043-.08l5.156-3a.088.088,0,0,1,.091,0l1.789,1.032a.091.091,0,0,1,.046.077.094.094,0,0,1-.046.08l-5.255,3.06a.083.083,0,0,1-.048.014Z" transform="translate(-305.26 -151.756)" fill="#fff"/>
      </g>
      <path id="Path_851" data-name="Path 851" d="M313.777,157v2.682l-1.311.759v-2.69l-1.416-.819L309.44,156l1.285-.739,2.212,1.26Z" transform="translate(-268.265 -148.308)" fill="#37474f"/>
      <path id="Path_852" data-name="Path 852" d="M320.08,162.121l1.311-.751v2.682l-1.311.759Z" transform="translate(-275.879 -152.681)" fill="#263238"/>
      <path id="Path_853" data-name="Path 853" d="M280.117,174.82v1.646a1.553,1.553,0,0,1-.771,1.339l-1.447.833-1.311.759-1.288.742a1.931,1.931,0,0,1-1.928,0l-.9-.518a1.544,1.544,0,0,1-.773-1.339v-1.646l3.472-.748,1.891-.409Z" transform="translate(-241.257 -162.306)" fill="#fff"/>
      <path id="Path_854" data-name="Path 854" d="M273.681,183.645a.569.569,0,0,0,.657-.569v-1.422l-.432-2.124-2.2.472v1.652a1.541,1.541,0,0,0,.771,1.337l.9.518A1.79,1.79,0,0,0,273.681,183.645Z" transform="translate(-241.264 -165.677)" fill="#f5f5f5"/>
      <path id="Path_855" data-name="Path 855" d="M272.536,182.126v.773l-3.026-1.746v-.773Z" transform="translate(-239.689 -166.285)" fill="#076aff"/>
      <path id="Path_856" data-name="Path 856" d="M286.79,173.806l-6.64,3.833v-.773l6.64-3.836Z" transform="translate(-247.304 -161.025)" fill="#076aff"/>
      <path id="Path_857" data-name="Path 857" d="M286.79,173.806l-6.64,3.833v-.773l6.64-3.836Z" transform="translate(-247.304 -161.025)" fill="#fff" opacity="0.2"/>
      <path id="Path_858" data-name="Path 858" d="M279.176,168.636l-6.64,3.836-3.026-1.746,6.64-3.836Z" transform="translate(-239.689 -156.631)" fill="#076aff"/>
      <path id="Path_859" data-name="Path 859" d="M279.176,168.636l-6.64,3.836-3.026-1.746,6.64-3.836Z" transform="translate(-239.689 -156.631)" fill="#fff" opacity="0.4"/>
      <path id="Path_860" data-name="Path 860" d="M275.79,173.486a.094.094,0,0,1-.08-.046.091.091,0,0,1,.034-.122l5.119-2.983-1.612-.93-4.973,2.9,1.027.552,4.311-2.519-.455-.259-3.665,2.15a.09.09,0,0,1-.091-.156l3.7-2.173a.088.088,0,0,1,.088,0l.637.361a.088.088,0,0,1,0,.154l-4.487,2.625a.088.088,0,0,1-.088,0l-1.211-.654a.085.085,0,0,1-.048-.077.094.094,0,0,1,.045-.08l5.153-3.006a.1.1,0,0,1,.091,0l1.789,1.035a.085.085,0,0,1,.046.077.091.091,0,0,1-.043.077l-5.235,3.063A.091.091,0,0,1,275.79,173.486Z" transform="translate(-242.895 -158.293)" fill="#076aff"/>
      <g id="Group_24" data-name="Group 24" transform="translate(31.094 10.92)" opacity="0.2">
        <path id="Path_861" data-name="Path 861" d="M275.79,173.486a.094.094,0,0,1-.08-.046.091.091,0,0,1,.034-.122l5.119-2.983-1.612-.93-4.973,2.9,1.027.552,4.311-2.519-.455-.259-3.665,2.15a.09.09,0,0,1-.091-.156l3.7-2.173a.088.088,0,0,1,.088,0l.637.361a.088.088,0,0,1,0,.154l-4.487,2.625a.088.088,0,0,1-.088,0l-1.211-.654a.085.085,0,0,1-.048-.077.094.094,0,0,1,.045-.08l5.153-3.006a.1.1,0,0,1,.091,0l1.789,1.035a.085.085,0,0,1,.046.077.091.091,0,0,1-.043.077l-5.235,3.063A.091.091,0,0,1,275.79,173.486Z" transform="translate(-273.99 -169.212)" fill="#fff"/>
      </g>
      <path id="Path_862" data-name="Path 862" d="M282.587,174.447v2.682l-1.311.759V175.2l-1.416-.822-1.609-.927,1.288-.739,2.212,1.257Z" transform="translate(-245.944 -160.796)" fill="#37474f"/>
      <path id="Path_863" data-name="Path 863" d="M288.89,179.571l1.311-.751V181.5l-1.311.759Z" transform="translate(-253.558 -165.168)" fill="#263238"/>
      <path id="Path_864" data-name="Path 864" d="M328.92,166.25v3.2a1.249,1.249,0,0,0,.734,1.046,3.916,3.916,0,0,0,3.555,0,1.247,1.247,0,0,0,.737-1.024h0V166.25Z" transform="translate(-282.205 -156.173)" fill="#263238"/>
      <ellipse id="Ellipse_53" data-name="Ellipse 53" cx="2.32" cy="1.339" rx="2.32" ry="1.339" transform="translate(46.905 8.778)" fill="#f5f5f5"/>
      <path id="Path_865" data-name="Path 865" d="M335.847,165.3a1.638,1.638,0,0,1-1.49,0,.45.45,0,0,1,0-.853,1.638,1.638,0,0,1,1.49,0A.45.45,0,0,1,335.847,165.3Z" transform="translate(-285.877 -154.756)" fill="#076aff"/>
      <path id="Path_866" data-name="Path 866" d="M331.426,161.56a3.316,3.316,0,0,1,1.627.384.794.794,0,0,1,0,1.533,3.637,3.637,0,0,1-3.253,0,.794.794,0,0,1,0-1.533,3.316,3.316,0,0,1,1.627-.384m0-.3a3.629,3.629,0,0,0-1.777.427,1.082,1.082,0,0,0,0,2.05,3.916,3.916,0,0,0,3.555,0,1.082,1.082,0,0,0,0-2.05A3.628,3.628,0,0,0,331.426,161.258Z" transform="translate(-282.2 -152.6)" fill="#455a64"/>
      <path id="Path_867" data-name="Path 867" d="M345.46,175.87v3.2a1.257,1.257,0,0,0,.736,1.049,3.933,3.933,0,0,0,3.555,0,1.249,1.249,0,0,0,.734-1.027h0V175.87Z" transform="translate(-294.042 -163.057)" fill="#37474f"/>
      <ellipse id="Ellipse_54" data-name="Ellipse 54" cx="2.323" cy="1.339" rx="2.323" ry="1.339" transform="translate(51.608 11.516)" fill="#f5f5f5"/>
      <path id="Path_868" data-name="Path 868" d="M352.389,174.932a1.649,1.649,0,0,1-1.487,0c-.412-.239-.412-.623,0-.853a1.632,1.632,0,0,1,1.487,0C352.8,174.309,352.8,174.693,352.389,174.932Z" transform="translate(-297.715 -161.647)" fill="#076aff"/>
      <path id="Path_869" data-name="Path 869" d="M347.956,171.187a3.293,3.293,0,0,1,1.621.387.792.792,0,0,1,0,1.53,3.62,3.62,0,0,1-3.256,0,.792.792,0,0,1,0-1.53,3.3,3.3,0,0,1,1.629-.387m0-.3a3.643,3.643,0,0,0-1.777.424,1.083,1.083,0,0,0,0,2.053,3.938,3.938,0,0,0,3.555,0,1.084,1.084,0,0,0,0-2.053,3.657,3.657,0,0,0-1.777-.424Z" transform="translate(-294.024 -159.492)" fill="#455a64"/>
      <path id="Path_870" data-name="Path 870" d="M314.1,174v3.2a1.253,1.253,0,0,0,.737,1.046,3.916,3.916,0,0,0,3.555,0,1.249,1.249,0,0,0,.734-1.027h0V174Z" transform="translate(-271.6 -161.719)" fill="#263238"/>
      <path id="Path_871" data-name="Path 871" d="M318.732,171.686a3.614,3.614,0,0,1-3.284,0,1,1,0,0,1,0-1.894,3.631,3.631,0,0,1,3.284,0A1,1,0,0,1,318.732,171.686Z" transform="translate(-272.077 -158.427)" fill="#f5f5f5"/>
      <path id="Path_872" data-name="Path 872" d="M321.029,173.022a1.632,1.632,0,0,1-1.487,0,.449.449,0,0,1,0-.853,1.632,1.632,0,0,1,1.487,0A.449.449,0,0,1,321.029,173.022Z" transform="translate(-275.273 -160.28)" fill="#076aff"/>
      <path id="Path_873" data-name="Path 873" d="M316.61,169.24a3.321,3.321,0,0,1,1.627.384.794.794,0,0,1,0,1.533,3.643,3.643,0,0,1-3.256,0,.794.794,0,0,1,0-1.533,3.333,3.333,0,0,1,1.629-.384m0-.3a3.612,3.612,0,0,0-1.777.427,1.081,1.081,0,0,0,0,2.05,3.916,3.916,0,0,0,3.555,0,1.082,1.082,0,0,0,0-2.05A3.629,3.629,0,0,0,316.61,168.938Z" transform="translate(-271.596 -158.096)" fill="#455a64"/>
      <path id="Path_874" data-name="Path 874" d="M330.65,183.59v3.2a1.256,1.256,0,0,0,.734,1.049,3.933,3.933,0,0,0,3.555,0,1.247,1.247,0,0,0,.737-1.027h0V183.59Z" transform="translate(-283.443 -168.582)" fill="#37474f"/>
      <path id="Path_875" data-name="Path 875" d="M335.282,181.309a3.631,3.631,0,0,1-3.284,0,1,1,0,0,1,0-1.9,3.631,3.631,0,0,1,3.284,0A1,1,0,0,1,335.282,181.309Z" transform="translate(-283.921 -165.311)" fill="#f5f5f5"/>
      <path id="Path_876" data-name="Path 876" d="M337.577,182.657a1.655,1.655,0,0,1-1.49,0c-.409-.239-.409-.623,0-.853a1.655,1.655,0,0,1,1.49,0C337.99,182.034,337.99,182.418,337.577,182.657Z" transform="translate(-287.115 -167.177)" fill="#076aff"/>
      <path id="Path_877" data-name="Path 877" d="M333.156,178.928a3.285,3.285,0,0,1,1.627.381.792.792,0,0,1,0,1.53,3.614,3.614,0,0,1-3.253,0,.792.792,0,0,1,0-1.53,3.284,3.284,0,0,1,1.627-.387m0-.284a3.625,3.625,0,0,0-1.777.424,1.084,1.084,0,0,0,0,2.053,3.938,3.938,0,0,0,3.555,0,1.084,1.084,0,0,0,0-2.053A3.617,3.617,0,0,0,333.156,178.638Z" transform="translate(-283.438 -165.038)" fill="#455a64"/>
      <path id="Path_878" data-name="Path 878" d="M300.631,192.657h-.02l-6.256-3.623a.657.657,0,0,0-.663,0l-4.2,2.423h-.162v.284h0a.321.321,0,0,0,.165.284l6.256,3.623a.671.671,0,0,0,.663,0l4.2-2.423a.319.319,0,0,0,.162-.284h0v-.284Z" transform="translate(-253.873 -172.414)" fill="#e0e0e0"/>
      <path id="Path_879" data-name="Path 879" d="M293.681,188.051l-4.2,2.426a.33.33,0,0,0,0,.569l6.256,3.623a.657.657,0,0,0,.663,0l4.2-2.434a.33.33,0,0,0,0-.569l-6.256-3.623A.657.657,0,0,0,293.681,188.051Z" transform="translate(-253.865 -171.707)" fill="#f5f5f5"/>
      <path id="Path_880" data-name="Path 880" d="M297.428,190.467l2.082,1.2a.165.165,0,0,1,0,.284l-3.4,1.959a.321.321,0,0,1-.327,0l-2.082-1.2a.165.165,0,0,1,0-.284l3.4-1.959a.321.321,0,0,1,.327,0Z" transform="translate(-256.946 -173.472)" fill="#f0f0f0"/>
      <path id="Path_881" data-name="Path 881" d="M294.069,192.924l3.023-1.746a.321.321,0,0,1,.327,0l1.706.987.37-.213a.165.165,0,0,0,0-.284l-2.067-1.2a.321.321,0,0,0-.327,0l-3.4,1.959a.165.165,0,0,0,0,.284Z" transform="translate(-256.946 -173.472)" fill="#e0e0e0"/>
      <path id="Path_882" data-name="Path 882" d="M308.608,197.221l2.082,1.2a.165.165,0,0,1,0,.284l-3.392,1.959a.327.327,0,0,1-.33,0l-2.082-1.2a.165.165,0,0,1,0-.284l3.387-1.959A.321.321,0,0,1,308.608,197.221Z" transform="translate(-264.947 -178.303)" fill="#f0f0f0"/>
      <path id="Path_883" data-name="Path 883" d="M305.222,199.69l3.014-1.752a.335.335,0,0,1,.327,0l1.706.987.37-.213a.165.165,0,0,0,0-.284l-2.082-1.2a.321.321,0,0,0-.327,0l-3.4,1.959a.165.165,0,0,0,0,.284Z" transform="translate(-264.911 -178.31)" fill="#e0e0e0"/>
      <path id="Path_884" data-name="Path 884" d="M308.742,198.683l-3.282,1.894,1.968,1.137a.327.327,0,0,0,.33,0l3.279-1.894-1.968-1.137A.336.336,0,0,0,308.742,198.683Z" transform="translate(-265.417 -179.353)" fill="#076aff"/>
      <path id="Path_885" data-name="Path 885" d="M308.742,198.683l-3.282,1.894,1.968,1.137a.327.327,0,0,0,.33,0l3.279-1.894-1.968-1.137A.336.336,0,0,0,308.742,198.683Z" transform="translate(-265.417 -179.353)" fill="#fff" opacity="0.4"/>
      <path id="Path_886" data-name="Path 886" d="M316.668,200.764a.239.239,0,0,1,0,.452.867.867,0,0,1-.785,0,.239.239,0,0,1,0-.452A.867.867,0,0,1,316.668,200.764Z" transform="translate(-272.76 -180.805)" fill="#076aff" opacity="0.4"/>
      <path id="Path_887" data-name="Path 887" d="M316.668,200.764a.239.239,0,0,1,0,.452.867.867,0,0,1-.785,0,.239.239,0,0,1,0-.452A.867.867,0,0,1,316.668,200.764Z" transform="translate(-272.76 -180.805)" fill="#fff" opacity="0.4"/>
      <ellipse id="Ellipse_55" data-name="Ellipse 55" cx="0.384" cy="0.222" rx="0.384" ry="0.222" transform="translate(42.253 20.789)" fill="#076aff" opacity="0.4"/>
      <ellipse id="Ellipse_56" data-name="Ellipse 56" cx="0.384" cy="0.222" rx="0.384" ry="0.222" transform="translate(42.253 20.789)" fill="#fff" opacity="0.4"/>
      <path id="Path_888" data-name="Path 888" d="M302.134,194.1a1.891,1.891,0,0,1-1.72,0c-.475-.284-.475-.719,0-1a6.041,6.041,0,0,0,.853-.853,8.1,8.1,0,0,0,.853.853C302.6,193.379,302.6,193.825,302.134,194.1Z" transform="translate(-261.55 -174.779)" fill="#076aff"/>
      <path id="Path_889" data-name="Path 889" d="M304.789,194.339a.216.216,0,0,0,.068.136.239.239,0,0,0,.128.031.267.267,0,0,0,.2-.054.173.173,0,0,0,.034-.173.537.537,0,0,0-.091-.162,3.493,3.493,0,0,0-.478-.6C304.553,193.671,304.747,194.151,304.789,194.339Z" transform="translate(-264.82 -175.688)" fill="#fff" opacity="0.4"/>
    </g>
  </g>
</svg>
