<svg xmlns="http://www.w3.org/2000/svg" width="236.569" height="183.975" viewBox="0 0 236.569 183.975">
  <g id="Chef-rafiki" transform="translate(0 -38.72)">
    <g id="freepik--background-complete--inject-17" transform="translate(0 38.72)">
      <rect id="Rectangle_441" data-name="Rectangle 441" width="236.569" height="0.118" transform="translate(0 162.608)" fill="#ebebeb"/>
      <rect id="Rectangle_442" data-name="Rectangle 442" width="12.084" height="0.118" transform="translate(24.821 167.112)" fill="#ebebeb"/>
      <rect id="Rectangle_443" data-name="Rectangle 443" width="52.017" height="0.118" transform="translate(72.892 165.83)" fill="#ebebeb"/>
      <rect id="Rectangle_444" data-name="Rectangle 444" width="34.383" height="0.118" transform="translate(46.05 168.655)" fill="#ebebeb"/>
      <rect id="Rectangle_445" data-name="Rectangle 445" width="45.54" height="0.118" transform="translate(167.33 170.713)" fill="#ebebeb"/>
      <rect id="Rectangle_446" data-name="Rectangle 446" width="2.995" height="0.118" transform="translate(160.119 170.713)" fill="#ebebeb"/>
      <rect id="Rectangle_447" data-name="Rectangle 447" width="32.964" height="0.118" transform="translate(142.519 168.716)" fill="#ebebeb"/>
      <path id="Path_1618" data-name="Path 1618" d="M132.265,188.8H40.907a2.7,2.7,0,0,1-2.7-2.7V57.678A2.7,2.7,0,0,1,40.907,55h91.358a2.7,2.7,0,0,1,2.7,2.7V186.1A2.7,2.7,0,0,1,132.265,188.8ZM40.907,55.095a2.583,2.583,0,0,0-2.579,2.583V186.1a2.583,2.583,0,0,0,2.579,2.583h91.358a2.588,2.588,0,0,0,2.583-2.583V57.678a2.588,2.588,0,0,0-2.583-2.583Z" transform="translate(-20.131 -47.297)" fill="#ebebeb"/>
      <path id="Path_1619" data-name="Path 1619" d="M348.564,188.8H257.2a2.706,2.706,0,0,1-2.7-2.7V57.678A2.706,2.706,0,0,1,257.2,55h91.363a2.7,2.7,0,0,1,2.692,2.678V186.1A2.7,2.7,0,0,1,348.564,188.8ZM257.2,55.095a2.588,2.588,0,0,0-2.583,2.583V186.1a2.588,2.588,0,0,0,2.583,2.583h91.363a2.588,2.588,0,0,0,2.583-2.583V57.678a2.588,2.588,0,0,0-2.583-2.583Z" transform="translate(-134.086 -47.297)" fill="#ebebeb"/>
      <rect id="Rectangle_448" data-name="Rectangle 448" width="14.275" height="56.176" transform="translate(214.095 162.608) rotate(180)" fill="#f0f0f0"/>
      <rect id="Rectangle_449" data-name="Rectangle 449" width="15.221" height="2.21" transform="translate(214.095 106.432) rotate(180)" fill="#e6e6e6"/>
      <rect id="Rectangle_450" data-name="Rectangle 450" width="73.847" height="135.417" transform="translate(37.491 27.191)" fill="#e6e6e6"/>
      <rect id="Rectangle_451" data-name="Rectangle 451" width="73.847" height="130.884" transform="translate(29.599 27.191)" fill="#f5f5f5"/>
      <path id="Path_1620" data-name="Path 1620" d="M120.4,114.33H105.439L84.2,236.631H99.161Z" transform="translate(-44.362 -78.556)" fill="#fafafa"/>
      <path id="Path_1621" data-name="Path 1621" d="M163.02,114.33H148.059l-21.239,122.3h14.965Z" transform="translate(-66.817 -78.556)" fill="#fafafa"/>
      <rect id="Rectangle_452" data-name="Rectangle 452" width="73.847" height="11.634" transform="translate(29.599 27.191)" fill="#e0e0e0"/>
      <rect id="Rectangle_453" data-name="Rectangle 453" width="2.484" height="19.489" transform="translate(71.983 81.616)" fill="#e0e0e0"/>
      <rect id="Rectangle_454" data-name="Rectangle 454" width="0.951" height="130.884" transform="translate(66.045 27.191)" fill="#e6e6e6"/>
      <rect id="Rectangle_455" data-name="Rectangle 455" width="2.484" height="19.489" transform="translate(58.574 81.616)" fill="#e0e0e0"/>
      <rect id="Rectangle_456" data-name="Rectangle 456" width="92.891" height="2.21" transform="translate(105.983 104.223)" fill="#f0f0f0"/>
      <rect id="Rectangle_457" data-name="Rectangle 457" width="92.655" height="56.176" transform="translate(107.166 106.432)" fill="#f5f5f5"/>
      <rect id="Rectangle_458" data-name="Rectangle 458" width="0.445" height="56.176" transform="translate(153.718 162.608) rotate(180)" fill="#e6e6e6"/>
      <path id="Path_1622" data-name="Path 1622" d="M347.776,222.7h-5.2a.686.686,0,0,1-.681-.681h0a.686.686,0,0,1,.681-.686h5.2a.686.686,0,0,1,.686.686h0A.686.686,0,0,1,347.776,222.7Z" transform="translate(-180.129 -134.93)" fill="#e0e0e0"/>
      <rect id="Rectangle_459" data-name="Rectangle 459" width="23.028" height="21.447" rx="1.83" transform="translate(164.075 82.775)" fill="#ebebeb"/>
      <path id="Path_1623" data-name="Path 1623" d="M349.53,209.176l-5.678,1.15a.814.814,0,0,0,.161,1.613h24.755a.814.814,0,0,0,.161-1.613l-5.678-1.15A34.625,34.625,0,0,0,349.53,209.176Z" transform="translate(-180.813 -128.165)" fill="#f5f5f5"/>
      <path id="Path_1624" data-name="Path 1624" d="M392.446,222.7h-5.2a.686.686,0,0,1-.681-.681h0a.686.686,0,0,1,.681-.686h5.2a.686.686,0,0,1,.681.686h0A.686.686,0,0,1,392.446,222.7Z" transform="translate(-203.664 -134.93)" fill="#e0e0e0"/>
      <path id="Path_1625" data-name="Path 1625" d="M298.72,231.311h-3.97a.52.52,0,0,1-.52-.52h0a.52.52,0,0,1,.52-.52h3.97a.52.52,0,0,1,.52.52h0a.52.52,0,0,1-.521.52Z" transform="translate(-155.019 -139.64)" fill="#e0e0e0"/>
      <rect id="Rectangle_460" data-name="Rectangle 460" width="17.563" height="16.361" rx="1.4" transform="translate(140.976 87.862)" fill="#ebebeb"/>
      <path id="Path_1626" data-name="Path 1626" d="M300.053,221l-4.325.875a.62.62,0,0,0,.123,1.23h18.883a.62.62,0,0,0,.123-1.23L310.533,221A26.406,26.406,0,0,0,300.053,221Z" transform="translate(-155.538 -134.477)" fill="#f5f5f5"/>
      <path id="Path_1627" data-name="Path 1627" d="M332.79,231.311h-3.97a.52.52,0,0,1-.52-.52h0a.52.52,0,0,1,.52-.52h3.97a.52.52,0,0,1,.521.52h0A.52.52,0,0,1,332.79,231.311Z" transform="translate(-172.969 -139.64)" fill="#e0e0e0"/>
      <rect id="Rectangle_461" data-name="Rectangle 461" width="57.633" height="3.468" transform="translate(133.671 48.998)" fill="#fafafa"/>
      <path id="Path_1628" data-name="Path 1628" d="M340.153,100.78H317.646L282.52,120.415h57.633Z" transform="translate(-148.849 -71.417)" fill="#f5f5f5"/>
      <rect id="Rectangle_462" data-name="Rectangle 462" width="19.006" height="3.468" transform="translate(210.31 52.466) rotate(180)" fill="#ebebeb"/>
      <path id="Path_1629" data-name="Path 1629" d="M404.33,100.78h6.1l12.907,19.635H404.33Z" transform="translate(-213.026 -71.417)" fill="#ebebeb"/>
      <path id="Path_1630" data-name="Path 1630" d="M370.538,38.72h8.729V68.083H356.76V52.5A13.778,13.778,0,0,1,370.538,38.72Z" transform="translate(-187.963 -38.72)" fill="#fafafa"/>
      <rect id="Rectangle_463" data-name="Rectangle 463" width="6.099" height="29.363" transform="translate(197.407 29.363) rotate(180)" fill="#ebebeb"/>
    </g>
    <g id="freepik--Shadow--inject-17" transform="translate(26.548 211.983)">
      <ellipse id="freepik--path--inject-17" cx="91.737" cy="5.356" rx="91.737" ry="5.356" fill="#f5f5f5"/>
    </g>
    <g id="freepik--Character--inject-17" transform="translate(99.567 53.401)">
      <path id="Path_1631" data-name="Path 1631" d="M274.558,397.9l-3.851.033-.587-8.914,3.851-.038Z" transform="translate(-241.883 -237.94)" fill="#ffb573"/>
      <path id="Path_1632" data-name="Path 1632" d="M262.494,406.957l4.329-.038a.274.274,0,0,1,.289.26l.241,3.421a.681.681,0,0,1-.667.691c-1.509,0-2.228-.095-4.13-.076-1.173,0-4.665.18-6.283.194s-1.585-1.58-.9-1.732a17.617,17.617,0,0,0,6.463-2.475A1.1,1.1,0,0,1,262.494,406.957Z" transform="translate(-233.879 -247.392)" fill="#263238"/>
      <path id="Path_1633" data-name="Path 1633" d="M273.976,388.99l-3.856.038.3,4.594,3.856-.038Z" transform="translate(-241.883 -237.946)" opacity="0.2"/>
      <path id="Path_1634" data-name="Path 1634" d="M267.847,201.24s-4.779,33.891-5.763,44.9c-1.079,12.046,2.314,47.626,2.314,47.626l7.045-.379s-.421-32.746,1.741-44.513c2.366-12.775,8.427-47.631,8.427-47.631Z" transform="translate(-237.538 -139.027)" fill="#263238"/>
      <path id="Path_1635" data-name="Path 1635" d="M288.437,233.478c-4.1,6.468-2.47,17.08-1.022,21.991,1.311-7.315,2.905-16.361,4.22-23.87C291.067,230.227,290.646,230.029,288.437,233.478Z" transform="translate(-250.165 -154.535)" opacity="0.3"/>
      <path id="Path_1636" data-name="Path 1636" d="M273.231,393.426l-7.542.407-.809-2.853,8.673.08Z" transform="translate(-239.122 -238.994)" fill="#076aff"/>
      <path id="Path_1637" data-name="Path 1637" d="M267.089,407.332a5.013,5.013,0,0,0,1.027-.147.09.09,0,0,0,.028-.161c-.123-.085-1.221-.819-1.689-.629a.341.341,0,0,0-.208.256.473.473,0,0,0,.118.473A1.028,1.028,0,0,0,267.089,407.332Zm.776-.274c-.686.142-1.192.128-1.377-.052a.317.317,0,0,1-.066-.317.161.161,0,0,1,.1-.128C266.772,406.457,267.416,406.779,267.865,407.058Z" transform="translate(-239.832 -247.099)" fill="#076aff"/>
      <path id="Path_1638" data-name="Path 1638" d="M269.128,406.178a.072.072,0,0,0,.043,0,.085.085,0,0,0,.047-.071c0-.047.081-1.154-.312-1.528a.473.473,0,0,0-.383-.123.35.35,0,0,0-.322.279c-.085.421.5,1.216.885,1.443A.071.071,0,0,0,269.128,406.178Zm-.554-1.557a.274.274,0,0,1,.194.08,1.993,1.993,0,0,1,.265,1.221c-.336-.279-.724-.889-.672-1.164,0-.052.043-.114.17-.132Z" transform="translate(-240.868 -246.092)" fill="#076aff"/>
      <path id="Path_1639" data-name="Path 1639" d="M252.533,137.2a73.4,73.4,0,0,1-4.731,7.523c-.871,1.206-1.784,2.4-2.8,3.563a21.063,21.063,0,0,1-3.572,3.388c-.175.133-.4.27-.6.4s-.374.208-.563.317c-.364.2-.733.393-1.088.554-.724.341-1.419.615-2.139.894-1.419.549-2.839.946-4.23,1.4a75.7,75.7,0,0,1-8.516,1.916l-.776-2.787c2.612-1.088,5.252-2.181,7.811-3.312,1.282-.558,2.55-1.14,3.761-1.746.6-.3,1.2-.615,1.741-.946.289-.156.544-.317.79-.473.114-.08.27-.166.355-.237s.175-.128.279-.222a19.2,19.2,0,0,0,2.451-2.7c.8-1.046,1.594-2.162,2.366-3.312,1.514-2.281,2.995-4.7,4.372-7.045Z" transform="translate(-217.331 -103.796)" fill="#ffb573"/>
      <path id="Path_1640" data-name="Path 1640" d="M262.037,132.96c-1.77,1.864-3.213,6.624-7.807,11.6l2.2,6.525c5.919-2.957,13.38-15.216,13.409-17.79C269.881,129.449,266.134,128.64,262.037,132.96Z" transform="translate(-233.511 -101.52)" fill="#076aff"/>
      <path id="Path_1641" data-name="Path 1641" d="M262.037,132.96c-1.77,1.864-3.213,6.624-7.807,11.6l2.2,6.525c5.919-2.957,13.38-15.216,13.409-17.79C269.881,129.449,266.134,128.64,262.037,132.96Z" transform="translate(-233.511 -101.52)" fill="#fff" opacity="0.7"/>
      <path id="Path_1642" data-name="Path 1642" d="M274.213,142.77c-3.014,2.7-4.566,7.012-5.753,11.4a49.87,49.87,0,0,0,6.548-8.81Z" transform="translate(-241.009 -108.221)" fill="#076aff" opacity="0.3"/>
      <path id="Path_1643" data-name="Path 1643" d="M306.923,397.979h-3.851l-.5-8.919h3.851Z" transform="translate(-258.98 -237.982)" fill="#ffb573"/>
      <path id="Path_1644" data-name="Path 1644" d="M295.364,407h4.329a.274.274,0,0,1,.284.265l.213,3.421a.686.686,0,0,1-.677.686c-1.5-.028-2.224-.114-4.13-.114-1.169,0-4.107.118-5.72.118s-1.571-1.594-.89-1.741a14.1,14.1,0,0,0,5.928-2.4A1.084,1.084,0,0,1,295.364,407Z" transform="translate(-251.476 -247.434)" fill="#263238"/>
      <path id="Path_1645" data-name="Path 1645" d="M306.426,389.06H302.57l.26,4.6h3.851Z" transform="translate(-258.98 -237.982)" opacity="0.2"/>
      <path id="Path_1646" data-name="Path 1646" d="M290.279,200.83s-.369,29.434.255,40.463c.686,12.079,4.112,52.088,4.112,52.088H301.7s-.208-39.034.213-50.99c.473-12.978.946-41.56.946-41.56Z" transform="translate(-252.447 -138.811)" fill="#263238"/>
      <path id="Path_1647" data-name="Path 1647" d="M306.178,393.458h-7.622l-.426-2.678,8.417.416Z" transform="translate(-256.641 -238.889)" fill="#076aff"/>
      <path id="Path_1648" data-name="Path 1648" d="M299.368,407.3a5.038,5.038,0,0,0,1.027-.137.09.09,0,0,0,.028-.161c-.123-.085-1.211-.833-1.684-.648a.341.341,0,0,0-.208.255.506.506,0,0,0,.114.473A1.041,1.041,0,0,0,299.368,407.3Zm.781-.27c-.691.137-1.2.118-1.377-.062a.331.331,0,0,1-.066-.322.166.166,0,0,1,.1-.128c.256-.1.885.227,1.358.511Z" transform="translate(-256.842 -247.08)" fill="#076aff"/>
      <path id="Path_1649" data-name="Path 1649" d="M301.413,406.171h.043a.085.085,0,0,0,.047-.071c0-.047.09-1.154-.3-1.528a.436.436,0,0,0-.379-.128.346.346,0,0,0-.326.27c-.09.421.473,1.225.871,1.457Zm-.525-1.561a.275.275,0,0,1,.194.08,1.964,1.964,0,0,1,.251,1.221c-.331-.279-.714-.89-.658-1.169,0-.052.043-.114.17-.128Z" transform="translate(-257.884 -246.085)" fill="#076aff"/>
      <path id="Path_1650" data-name="Path 1650" d="M219.979,176.07l-4.429.308,1.656,3.932s4.107-.946,4.069-2.271Z" transform="translate(-213.132 -125.766)" fill="#ffb573"/>
      <path id="Path_1651" data-name="Path 1651" d="M212.272,180.221l1.088.946a1.017,1.017,0,0,0,1.358,0l.577-.516-1.656-3.932-1.528,2.143A1.022,1.022,0,0,0,212.272,180.221Z" transform="translate(-211.222 -126.108)" fill="#ffb573"/>
      <path id="Path_1652" data-name="Path 1652" d="M211.244,173.4l-.8.923,14.194,18.817h.946Zm.473,2.176-.771-1.027.426-.473.733,1.008Z" transform="translate(-210.44 -124.359)" fill="#263238"/>
      <path id="Path_1653" data-name="Path 1653" d="M268.271,176.771l23.7,1.419c.147-1.84-.317-20.373,0-28,.218-5.119.587-13.768,1.869-19.6h0a1.216,1.216,0,0,0-.975-1.462c-.369-.062-.8-.132-1.282-.2-1.244-.185-2.8-.369-4.329-.445a77.2,77.2,0,0,0-8.758,0c-1.344.128-2.659.35-3.709.554-.435.085-.809.17-1.121.241a1.675,1.675,0,0,0-1.24,1.259A196.029,196.029,0,0,0,268.271,176.771Z" transform="translate(-240.853 -100.633)" fill="#076aff"/>
      <path id="Path_1654" data-name="Path 1654" d="M268.271,176.771l23.7,1.419c.147-1.84-.317-20.373,0-28,.218-5.119.587-13.768,1.869-19.6h0a1.216,1.216,0,0,0-.975-1.462c-.369-.062-.8-.132-1.282-.2-1.244-.185-2.8-.369-4.329-.445a77.2,77.2,0,0,0-8.758,0c-1.344.128-2.659.35-3.709.554-.435.085-.809.17-1.121.241a1.675,1.675,0,0,0-1.24,1.259A196.029,196.029,0,0,0,268.271,176.771Z" transform="translate(-240.853 -100.633)" fill="#fff" opacity="0.7"/>
      <path id="Path_1655" data-name="Path 1655" d="M314.638,135.66c.473.7.842,1.344,1.23,2.025s.752,1.353,1.112,2.035c.7,1.377,1.367,2.782,1.954,4.23a44.128,44.128,0,0,1,1.566,4.471c.2.781.407,1.557.554,2.366l.062.3.033.151v.09l.028.18a4.67,4.67,0,0,1,0,1.282,6.26,6.26,0,0,1-.554,1.8,12.373,12.373,0,0,1-1.523,2.366c-.535.658-1.083,1.259-1.647,1.826a43.26,43.26,0,0,1-3.459,3.066,67.555,67.555,0,0,1-7.452,5.228l-1.713-2.328c2.139-1.968,4.258-4.012,6.279-6.066.994-1.041,1.973-2.077,2.839-3.151.435-.53.847-1.06,1.2-1.585a7.362,7.362,0,0,0,.785-1.448.787.787,0,0,0,.076-.331.369.369,0,0,0,0,.18v0l-.038-.123-.071-.237c-.17-.639-.4-1.277-.615-1.916-.473-1.287-1.017-2.564-1.6-3.837s-1.225-2.536-1.893-3.785q-.473-.946-1.017-1.869l-1.041-1.8Z" transform="translate(-260.171 -104.475)" fill="#ffb573"/>
      <path id="Path_1656" data-name="Path 1656" d="M314.23,147.64c-.53,3.094,1.419,7.864,2.115,9.463.095-1.949.218-4.126.393-6.34Z" transform="translate(-265.075 -110.787)" fill="#076aff" opacity="0.3"/>
      <path id="Path_1657" data-name="Path 1657" d="M314.528,129.828c-3.922-.289-5.2,5.337-4.2,8.427.833,2.588,4.05,5.2,6.965,10.712l7.286-1.012C322.41,138.8,318.483,130.117,314.528,129.828Z" transform="translate(-262.894 -101.397)" fill="#076aff"/>
      <path id="Path_1658" data-name="Path 1658" d="M314.528,129.828c-3.922-.289-5.2,5.337-4.2,8.427.833,2.588,4.05,5.2,6.965,10.712l7.286-1.012C322.41,138.8,318.483,130.117,314.528,129.828Z" transform="translate(-262.894 -101.397)" fill="#fff" opacity="0.7"/>
      <path id="Path_1659" data-name="Path 1659" d="M301.55,197.507l-2.2,4.533,4.812-.667s.946-3.369-.833-3.714l-.6-.44a.795.795,0,0,0-1.183.289Z" transform="translate(-257.283 -136.827)" fill="#ffb573"/>
      <path id="Path_1660" data-name="Path 1660" d="M224.088,215.79H221.84a.79.79,0,0,1-.79-.79h0a.8.8,0,0,1,.79-.79h2.247a.8.8,0,0,1,.79.79h0A.8.8,0,0,1,224.088,215.79Z" transform="translate(-216.03 -145.861)" fill="#076aff"/>
      <path id="Path_1661" data-name="Path 1661" d="M254.641,212.32l-1.893,1.206a.79.79,0,0,1-1.093-.241h0a.8.8,0,0,1,.241-1.088l1.893-1.211a.8.8,0,0,1,1.088.241h0A.8.8,0,0,1,254.641,212.32Z" transform="translate(-232.091 -144.098)" fill="#076aff"/>
      <path id="Path_1662" data-name="Path 1662" d="M228.513,212.719c-4.258,0-5.28-1.893-5.323-1.982l.114-.062c0,.024,1.046,1.916,5.2,1.916h.473a8.175,8.175,0,0,0,5.081-2.063c1.112-.842,2.077-1.566,3.572-1.419a2.839,2.839,0,0,1,2.115.946,2.219,2.219,0,0,1,.393,1.642l-.123-.024a2.12,2.12,0,0,0-.369-1.542,2.716,2.716,0,0,0-2.025-.918c-1.448-.123-2.394.591-3.487,1.419a8.22,8.22,0,0,1-5.152,2.087Z" transform="translate(-217.158 -143.163)" fill="#076aff"/>
      <path id="Path_1663" data-name="Path 1663" d="M217.2,213.187s-.875-2.2.923-2.948c.946-.4,1.77.185,2.725.861a5.147,5.147,0,0,0,3.719,1.315c4.258-.587,4.367-4.168,4.367-4.206h.123c0,.038-.123,3.728-4.471,4.329a5.188,5.188,0,0,1-3.813-1.334c-.946-.653-1.717-1.221-2.6-.852-1.68.7-.889,2.7-.856,2.787Z" transform="translate(-213.891 -142.699)" fill="#076aff"/>
      <path id="Path_1664" data-name="Path 1664" d="M248.358,209.568l-1.244.653a.473.473,0,0,1-.667-.2h0a.473.473,0,0,1,.2-.667l1.244-.662a.473.473,0,0,1,.667.208h0a.473.473,0,0,1-.2.672Z" transform="translate(-229.376 -142.917)" fill="#076aff"/>
      <path id="Path_1665" data-name="Path 1665" d="M265.07,211.922l-2.115-.729a.79.79,0,0,1-.473-1h0a.8.8,0,0,1,1-.473l2.11.729a.79.79,0,0,1,.473,1h0A.785.785,0,0,1,265.07,211.922Z" transform="translate(-237.836 -143.473)" fill="#076aff"/>
      <path id="Path_1666" data-name="Path 1666" d="M240.878,214.062l-24.206,2.153a2.157,2.157,0,0,1-1.557-.473l-2.985-2.427,32.7-2.915-2.508,2.919A2.191,2.191,0,0,1,240.878,214.062Z" transform="translate(-211.33 -143.853)" fill="#263238"/>
      <path id="Path_1667" data-name="Path 1667" d="M275.281,210.26l18.992-1.77,1.353,1.079-1.982.435-.53-.544-17.9,1.547Z" transform="translate(-244.565 -142.847)" fill="#263238"/>
      <path id="Path_1668" data-name="Path 1668" d="M300.944,209.2l2.2.317a1.008,1.008,0,0,0,1.145-1.06l-.133-2.285-4.812.667.653,1.613A1.193,1.193,0,0,0,300.944,209.2Z" transform="translate(-257.283 -141.625)" fill="#ffb573"/>
      <path id="Path_1669" data-name="Path 1669" d="M299.094,131.489a3.407,3.407,0,0,1-2.3-.7,1.67,1.67,0,0,1-.568-1.358.09.09,0,0,1,.1-.095.1.1,0,0,1,.095.109,1.42,1.42,0,0,0,.5,1.192,4.068,4.068,0,0,0,3.374.549,3.482,3.482,0,0,0,2.919-2.957.095.095,0,0,1,.109-.085.1.1,0,0,1,.09.109,3.742,3.742,0,0,1-3.085,3.132,7.806,7.806,0,0,1-1.24.109Z" transform="translate(-255.636 -100.512)" fill="#263238"/>
      <path id="Path_1670" data-name="Path 1670" d="M281.4,178.463a.1.1,0,0,1-.1-.1c-.057-11.048.923-34.837,2.153-41.125a.123.123,0,0,1,.038-.061c2.068-1.538,4.031-3.156,4.05-3.17a.1.1,0,1,1,.142.137s-1.968,1.623-4.026,3.156c-1.225,6.335-2.2,30.03-2.143,41.045a.1.1,0,0,1-.1.1Z" transform="translate(-247.771 -103.589)" fill="#263238"/>
      <path id="Path_1671" data-name="Path 1671" d="M289.441,145.631c-.071.558-.388.979-.71.946s-.535-.525-.473-1.083.383-.979.71-.946S289.507,145.073,289.441,145.631Z" transform="translate(-251.434 -109.157)" fill="#263238"/>
      <path id="Path_1672" data-name="Path 1672" d="M296.591,145.631c-.066.558-.383.979-.71.946s-.535-.525-.473-1.083.388-.979.71-.946S296.657,145.073,296.591,145.631Z" transform="translate(-255.201 -109.157)" fill="#263238"/>
      <path id="Path_1673" data-name="Path 1673" d="M288.171,162.971c-.071.558-.388.979-.71.946s-.535-.525-.473-1.083.383-.979.71-.946S288.237,162.413,288.171,162.971Z" transform="translate(-250.765 -118.293)" fill="#263238"/>
      <path id="Path_1674" data-name="Path 1674" d="M295.321,162.971c-.066.558-.383.979-.71.946s-.535-.525-.473-1.083.388-.979.71-.946S295.387,162.413,295.321,162.971Z" transform="translate(-254.532 -118.293)" fill="#263238"/>
      <path id="Path_1675" data-name="Path 1675" d="M286.671,182.107c-.066.558-.383.979-.71.946s-.535-.52-.473-1.079.388-.979.71-.946S286.742,181.548,286.671,182.107Z" transform="translate(-249.974 -128.377)" fill="#263238"/>
      <path id="Path_1676" data-name="Path 1676" d="M293.837,182.107c-.071.558-.388.979-.714.946s-.53-.52-.473-1.079.383-.979.71-.946S293.9,181.548,293.837,182.107Z" transform="translate(-253.748 -128.377)" fill="#263238"/>
      <path id="Path_1677" data-name="Path 1677" d="M285.672,203.421c-.066.558-.383.979-.71.946s-.53-.525-.473-1.083.383-.979.71-.946S285.743,202.863,285.672,203.421Z" transform="translate(-249.449 -139.605)" fill="#263238"/>
      <path id="Path_1678" data-name="Path 1678" d="M292.831,203.421c-.066.558-.383.979-.71.946s-.535-.525-.473-1.083.383-.979.71-.946S292.9,202.863,292.831,203.421Z" transform="translate(-253.22 -139.605)" fill="#263238"/>
      <path id="Path_1679" data-name="Path 1679" d="M289.609,130.984a1.921,1.921,0,0,1-1.462-.653c-.733-.823.473-2.082.511-2.134a.095.095,0,0,1,.137,0,.1.1,0,0,1,0,.142s-1.117,1.178-.5,1.864a1.765,1.765,0,0,0,1.732.544,2.55,2.55,0,0,0,1.812-1.33.1.1,0,0,1,.128-.057.095.095,0,0,1,.062.123,2.777,2.777,0,0,1-1.964,1.457A2.223,2.223,0,0,1,289.609,130.984Z" transform="translate(-251.257 -100.528)" fill="#263238"/>
      <path id="Path_1680" data-name="Path 1680" d="M290.834,117.649c2.545-.606,2.995-2.176,2.839-3.908a10.387,10.387,0,0,0-.2-1.287l3.189-2.65L299,107.86c-.648,2.839-1.382,7.958.525,9.841,0,0-1.973,1.67-6.056,1.481C290.143,119.026,290.834,117.649,290.834,117.649Z" transform="translate(-252.765 -89.829)" fill="#ffb573"/>
      <path id="Path_1681" data-name="Path 1681" d="M296.44,114.62a10.37,10.37,0,0,1,.2,1.287,4.068,4.068,0,0,0,2.943-2.725,5.434,5.434,0,0,0,.043-1.211Z" transform="translate(-255.75 -91.994)" opacity="0.2"/>
      <path id="Path_1682" data-name="Path 1682" d="M297.484,92.384c-.814,3.747-1.1,5.976-3.312,7.684a4.987,4.987,0,0,1-8.043-3.586c-.289-3.487,1.093-9.027,5.034-10.087a5.039,5.039,0,0,1,6.321,5.99Z" transform="translate(-250.298 -78.412)" fill="#ffb573"/>
      <path id="Path_1683" data-name="Path 1683" d="M290.93,106.145a1.42,1.42,0,0,1,.946-.393,2.2,2.2,0,0,1,.975.246c.3.142.563.35.847.322a.33.33,0,0,0,.1-.6l.057-.109a.473.473,0,0,1,.237.473.539.539,0,0,1-.114.26.473.473,0,0,1-.255.128,1.859,1.859,0,0,1-.946-.312,1.983,1.983,0,0,0-.89-.2,1.178,1.178,0,0,0-.79.355Z" transform="translate(-252.847 -88.643)" fill="#263238"/>
      <path id="Path_1684" data-name="Path 1684" d="M287.243,105.93a.743.743,0,0,0-.473-.379.851.851,0,0,0-.577.2.639.639,0,0,1-.379.142.426.426,0,0,1-.341-.237.709.709,0,0,1-.076-.379.393.393,0,0,1,.062-.2.222.222,0,0,1,.2-.109v.118c-.076,0-.118.09-.123.194a.539.539,0,0,0,.076.3.256.256,0,0,0,.213.147.473.473,0,0,0,.265-.118,1.017,1.017,0,0,1,.714-.265.946.946,0,0,1,.629.473Z" transform="translate(-249.931 -88.306)" fill="#263238"/>
      <path id="Path_1685" data-name="Path 1685" d="M296.308,88.017c-2.03.686-5.805.213-7.3.388a.256.256,0,0,1-.255-.374,7.939,7.939,0,0,1,2.366-3.2c.729-.473,4.977-1.661,7.968,1.008s.677,8.043.677,8.043l-2.541.057a.577.577,0,0,1-.525-.856,5.834,5.834,0,0,0,.946-2.839A4.665,4.665,0,0,1,296.308,88.017Z" transform="translate(-251.686 -77.338)" fill="#263238"/>
      <path id="Path_1686" data-name="Path 1686" d="M289.829,82.929c3.468.52,8.635,3.274,10.882,6.241.114.147.322,0,.388-.274l1.812-7.466a.383.383,0,0,0-.057-.36c-2.725-2.607-5.441-4.447-9.463-5.11a.3.3,0,0,0-.246.18l-3.364,6.245C289.616,82.6,289.654,82.906,289.829,82.929Z" transform="translate(-252.186 -73.022)" fill="#076aff"/>
      <path id="Path_1687" data-name="Path 1687" d="M289.829,82.929c3.468.52,8.635,3.274,10.882,6.241.114.147.322,0,.388-.274l1.812-7.466a.383.383,0,0,0-.057-.36c-2.725-2.607-5.441-4.447-9.463-5.11a.3.3,0,0,0-.246.18l-3.364,6.245C289.616,82.6,289.654,82.906,289.829,82.929Z" transform="translate(-252.186 -73.022)" fill="#fff" opacity="0.7"/>
      <path id="Path_1688" data-name="Path 1688" d="M304.115,81.065c-2.725-2.6-5.441-4.443-9.463-5.105a.3.3,0,0,0-.246.18l-2.276,4.22c2.418,1.083,7.263,1.14,9.151,1.154.908,1.254,1.746,1.893,2.394,1.973l.5-2.058A.393.393,0,0,0,304.115,81.065Z" transform="translate(-253.479 -73.022)" fill="#076aff" opacity="0.2"/>
      <path id="Path_1689" data-name="Path 1689" d="M299.619,77.968c-2.631-.232-10.646-1-11.157-3.549-.61-3.023,1.76-4.665,4.561-4.67,4.443,0,9.879,3.222,10.929,6.837C305.084,80.5,302.335,81.881,299.619,77.968Z" transform="translate(-251.496 -69.75)" fill="#076aff"/>
      <path id="Path_1690" data-name="Path 1690" d="M299.619,77.968c-2.631-.232-10.646-1-11.157-3.549-.61-3.023,1.76-4.665,4.561-4.67,4.443,0,9.879,3.222,10.929,6.837C305.084,80.5,302.335,81.881,299.619,77.968Z" transform="translate(-251.496 -69.75)" fill="#fff" opacity="0.7"/>
      <path id="Path_1691" data-name="Path 1691" d="M308.08,104.762a4.121,4.121,0,0,1-2.366,1.419c-1.178.2-1.443-.894-.847-1.949.544-.946,1.807-2.2,2.862-1.926S308.847,103.844,308.08,104.762Z" transform="translate(-260.028 -86.882)" fill="#ffb573"/>
      <path id="Path_1692" data-name="Path 1692" d="M297.108,100.109c-.047.308-.251.535-.449.511s-.326-.293-.279-.6.246-.535.449-.511S297.141,99.8,297.108,100.109Z" transform="translate(-255.713 -85.428)" fill="#263238"/>
      <path id="Path_1693" data-name="Path 1693" d="M289.367,99.229c-.047.308-.246.539-.449.511s-.327-.289-.279-.6.251-.539.473-.516S289.415,98.921,289.367,99.229Z" transform="translate(-251.635 -84.964)" fill="#263238"/>
      <path id="Path_1694" data-name="Path 1694" d="M290.133,99.49a11.591,11.591,0,0,1-1.893,2.451,1.8,1.8,0,0,0,1.419.473Z" transform="translate(-251.43 -85.419)" fill="#ed893e"/>
      <path id="Path_1695" data-name="Path 1695" d="M294.209,108.943a2.668,2.668,0,0,0,1.94-.8.091.091,0,0,0-.137-.118,2.55,2.55,0,0,1-2.143.714.09.09,0,0,0-.1.08.085.085,0,0,0,.08.1A2.332,2.332,0,0,0,294.209,108.943Z" transform="translate(-254.342 -89.899)" fill="#263238"/>
      <path id="Path_1696" data-name="Path 1696" d="M298.6,96.991a.2.2,0,0,0,.09,0,.184.184,0,0,0,.1-.237,1.746,1.746,0,0,0-1.24-1.088.18.18,0,0,0-.213.147.189.189,0,0,0,.151.213,1.382,1.382,0,0,1,.946.866A.184.184,0,0,0,298.6,96.991Z" transform="translate(-256.222 -83.402)" fill="#263238"/>
      <path id="Path_1697" data-name="Path 1697" d="M287.365,95.267a.175.175,0,0,0,.17-.033,1.528,1.528,0,0,1,1.3-.35.18.18,0,0,0,.222-.123.185.185,0,0,0-.123-.227h0a1.892,1.892,0,0,0-1.637.421.179.179,0,0,0,.066.312Z" transform="translate(-250.9 -82.785)" fill="#263238"/>
      <path id="Path_1698" data-name="Path 1698" d="M323.611,166.805a6.306,6.306,0,0,0,1.159,2.5c.591.648,2.323-.861,4.4-.147s2.6.52,2.839-.866.128-2.465-.2-2.749S323.318,165.807,323.611,166.805Z" transform="translate(-270.062 -120.182)" fill="#076aff"/>
      <path id="Path_1699" data-name="Path 1699" d="M253.079,158.048c-.582.809-1.348.908-1.609,1.661-.35,1.008,1.471,2.191,1.637,4.381s.549,2.593,1.926,2.285,2.318-.856,2.446-1.268S254.456,156.127,253.079,158.048Z" transform="translate(-232.034 -116.123)" fill="#076aff"/>
    </g>
    <g id="freepik--Cabinet--inject-17" transform="translate(66.788 95.766)">
      <rect id="Rectangle_464" data-name="Rectangle 464" width="40.505" height="1.207" transform="translate(37.79 33.499)" fill="#263238"/>
      <rect id="Rectangle_465" data-name="Rectangle 465" width="108.576" height="2.418" transform="translate(0 33.934)" fill="#076aff"/>
      <rect id="Rectangle_466" data-name="Rectangle 466" width="10.698" height="2.418" transform="translate(97.878 33.934)" fill="#263238" opacity="0.3"/>
      <rect id="Rectangle_467" data-name="Rectangle 467" width="106.503" height="85.217" transform="translate(1.036 36.356)" fill="#076aff"/>
      <rect id="Rectangle_468" data-name="Rectangle 468" width="106.503" height="85.217" transform="translate(1.036 36.356)" fill="#fff" opacity="0.8"/>
      <rect id="Rectangle_469" data-name="Rectangle 469" width="8.526" height="85.217" transform="translate(99.014 36.356)" fill="#076aff" opacity="0.3"/>
      <g id="Group_41" data-name="Group 41" transform="translate(24.849 36.352)" opacity="0.3">
        <rect id="Rectangle_470" data-name="Rectangle 470" width="0.374" height="85.217" transform="translate(0.374 85.217) rotate(180)" fill="#076aff"/>
        <rect id="Rectangle_471" data-name="Rectangle 471" width="0.374" height="85.217" transform="translate(0.748 85.217) rotate(180)" fill="#fff"/>
        <path id="Path_1700" data-name="Path 1700" d="M268.255,400.8v.374H194.834l-.374-.374Z" transform="translate(-194.091 -322.884)" fill="#076aff"/>
        <rect id="Rectangle_472" data-name="Rectangle 472" width="0.374" height="73.422" transform="translate(0.743 78.659) rotate(-90)" fill="#fff"/>
      </g>
      <path id="Path_1701" data-name="Path 1701" d="M249.853,236.13H143.35v1.145l106.5,1.15Z" transform="translate(-142.314 -199.774)" fill="#076aff" opacity="0.3"/>
      <path id="Path_1702" data-name="Path 1702" d="M147.283,159.767h0a1.661,1.661,0,0,1,2.333,0l11.772,11.776a1.651,1.651,0,0,1,0,2.333h0c-.639.639-1.074,0-1.718-.62l-9.907-9.908-2.479-1.249A1.651,1.651,0,0,1,147.283,159.767Z" transform="translate(-144.132 -159.289)" fill="#263238"/>
      <circle id="Ellipse_69" data-name="Ellipse 69" cx="0.364" cy="0.364" r="0.364" transform="translate(6.756 3.469)" fill="#fff"/>
      <path id="Path_1703" data-name="Path 1703" d="M165.537,176.2a.364.364,0,1,1-.258-.107A.364.364,0,0,1,165.537,176.2Z" transform="translate(-153.676 -168.143)" fill="#fff"/>
      <path id="Path_1704" data-name="Path 1704" d="M172.179,192.119l-8.99,10.442a33.262,33.262,0,0,1-15.86-15.812l10.442-9.013a.719.719,0,0,1,.979,0L172.2,191.182A.714.714,0,0,1,172.179,192.119Z" transform="translate(-144.411 -168.906)" fill="#076aff"/>
      <path id="Path_1705" data-name="Path 1705" d="M172.179,192.119l-8.99,10.442a33.262,33.262,0,0,1-15.86-15.812l10.442-9.013a.719.719,0,0,1,.979,0L172.2,191.182A.714.714,0,0,1,172.179,192.119Z" transform="translate(-144.411 -168.906)" fill="#fff" opacity="0.8"/>
      <path id="Path_1706" data-name="Path 1706" d="M150.723,190.78l-3.383,2.943a33.276,33.276,0,0,0,15.831,15.831l2.919-3.383A33.224,33.224,0,0,1,150.723,190.78Z" transform="translate(-144.416 -175.88)" fill="#076aff" opacity="0.4"/>
      <g id="Group_42" data-name="Group 42" transform="translate(9.434 9.634)" opacity="0.6">
        <path id="Path_1707" data-name="Path 1707" d="M166.849,179.65,161.1,197.09a31.4,31.4,0,0,0,3.2,2.839l5.678-17.156Z" transform="translate(-161.1 -179.65)" fill="#fff"/>
        <path id="Path_1708" data-name="Path 1708" d="M177.4,189.94l-5.522,16.744c.554.369,1.121.729,1.708,1.069l5.365-16.262Z" transform="translate(-166.78 -185.071)" fill="#fff"/>
      </g>
      <path id="Path_1709" data-name="Path 1709" d="M177.6,226.92h-26.06a1.935,1.935,0,0,0-1.935,1.93h29.926a1.935,1.935,0,0,0-1.93-1.93Z" transform="translate(-145.607 -194.921)" fill="#076aff"/>
      <path id="Path_1710" data-name="Path 1710" d="M177.6,226.92h-26.06a1.935,1.935,0,0,0-1.935,1.93h29.926a1.935,1.935,0,0,0-1.93-1.93Z" transform="translate(-145.607 -194.921)" fill="#fff" opacity="0.5"/>
      <path id="Path_1711" data-name="Path 1711" d="M168.895,226.92H151.535a1.935,1.935,0,0,0-1.935,1.93h21.225a1.935,1.935,0,0,0-1.93-1.93Z" transform="translate(-145.607 -194.921)" fill="#fff" opacity="0.5"/>
      <path id="Path_1712" data-name="Path 1712" d="M351.091,187.425l-.795-.785a2.011,2.011,0,0,1-.606-1.419v-5.469a.189.189,0,1,0,0-.374h-2.044a.189.189,0,0,0,0,.374V185.2a2.006,2.006,0,0,1-.6,1.419l-.795.785a2.016,2.016,0,0,0-.6,1.419v14.667a.289.289,0,0,0,.289.293h5.474a.289.289,0,0,0,.289-.293V188.826A2.034,2.034,0,0,0,351.091,187.425Z" transform="translate(-248.898 -169.871)" fill="#076aff" opacity="0.4"/>
      <path id="Path_1713" data-name="Path 1713" d="M346.68,216.287v5.569a.473.473,0,0,0,.473.473h4.112a.473.473,0,0,0,.473-.473v-5.824a.473.473,0,0,0-.369-.473,3.6,3.6,0,0,0-2.162.1,3.444,3.444,0,0,1-1.968.142.473.473,0,0,0-.558.483Z" transform="translate(-249.44 -188.872)" fill="#076aff" opacity="0.4"/>
      <rect id="Rectangle_473" data-name="Rectangle 473" width="3.752" height="6.42" rx="0.83" transform="translate(97.892 21.429)" fill="#fff"/>
      <path id="Path_1714" data-name="Path 1714" d="M331.014,217.02c.061-.431-.639-.733-1.112-.71a2.621,2.621,0,0,1-1.112-.17,4.022,4.022,0,0,0,1.287.573A4.088,4.088,0,0,1,331.014,217.02Z" transform="translate(-240.015 -189.242)" fill="#263238"/>
      <path id="Path_1715" data-name="Path 1715" d="M331.656,216.051c.241-.364-.265-.946-.7-1.117a2.522,2.522,0,0,1-.946-.634,3.931,3.931,0,0,0,.918,1.074,4.065,4.065,0,0,1,.729.677Z" transform="translate(-240.658 -188.272)" fill="#263238"/>
      <path id="Path_1716" data-name="Path 1716" d="M333.579,216.82c-.1-.426.577-.785,1.046-.795a2.626,2.626,0,0,0,1.1-.265,3.917,3.917,0,0,1-1.235.677A4.1,4.1,0,0,0,333.579,216.82Z" transform="translate(-242.533 -189.041)" fill="#263238"/>
      <path id="Path_1717" data-name="Path 1717" d="M333.551,216.361c-.185-.393.4-.89.856-1a2.569,2.569,0,0,0,1.013-.473,4.022,4.022,0,0,1-1.065.946A3.96,3.96,0,0,0,333.551,216.361Z" transform="translate(-242.505 -188.583)" fill="#263238"/>
      <path id="Path_1718" data-name="Path 1718" d="M332.559,219.317c-.052-2.971-2.687-2.668-4.093-2.039-1.33-.766-4.613-.374-4.452,2.489a3.855,3.855,0,0,0,2.872,3.785,10.55,10.55,0,0,0,1.58-.218c.4,0,.9.246,1.206.208C331.518,223.3,332.6,221.257,332.559,219.317Z" transform="translate(-237.496 -189.622)" fill="#076aff"/>
    </g>
  </g>
</svg>
