<svg xmlns="http://www.w3.org/2000/svg" width="117.085" height="112.375" viewBox="0 0 117.085 112.375">
  <g id="In_no_time-pana" data-name="In no time-pana" transform="translate(-28.76 -42.51)">
    <g id="freepik--background-complete--inject-3" transform="translate(31.243 42.51)">
      <path id="Path_890" data-name="Path 890" d="M163.57,295.226s-2.565-1.789-3.743-1.465a8.026,8.026,0,0,0-2.687,1.98,15.239,15.239,0,0,1,3.889-.68A16.829,16.829,0,0,0,163.57,295.226Z" transform="translate(-125.498 -226.947)" fill="#e0e0e0"/>
      <path id="Path_891" data-name="Path 891" d="M179.9,301.81c-.375.845-1.018,1.55-1.38,2.392a4.054,4.054,0,0,0-.019,3.081,5.54,5.54,0,0,0,1.308-2.624,14.375,14.375,0,0,0,.3-2.743Z" transform="translate(-140.968 -232.885)" fill="#e0e0e0"/>
      <path id="Path_892" data-name="Path 892" d="M169.048,300.547c.117-.346-2.786-.194-3.721.925s-1.861,2.336-1.063,5.162c0,0,1.752-3.062,1.752-3.017S168.814,301.222,169.048,300.547Z" transform="translate(-130.505 -231.837)" fill="#e0e0e0"/>
      <path id="Path_893" data-name="Path 893" d="M183.128,299.444c-.266.1,2.368.906,3.586,1a3.706,3.706,0,0,0,1.954-.308S186.9,297.979,183.128,299.444Z" transform="translate(-144.564 -230.774)" fill="#e0e0e0"/>
      <path id="Path_894" data-name="Path 894" d="M233.31,340.119s1.271-.532,1.629-.159,1.823,2.3,3.214,2.422c0,0-1.271-2.7-2.422-3.137C234.974,338.957,233.31,340.119,233.31,340.119Z" transform="translate(-181.421 -260.335)" fill="#e0e0e0"/>
      <path id="Path_895" data-name="Path 895" d="M226.978,335.759a2.657,2.657,0,0,0-.532-1.457,6.057,6.057,0,0,0-2.206-.843,6.734,6.734,0,0,0,1.265,1.473,7.125,7.125,0,0,0,1.473.827Z" transform="translate(-174.762 -256.122)" fill="#e0e0e0"/>
      <path id="Path_896" data-name="Path 896" d="M227.844,341.9a1.9,1.9,0,0,0-1.51,1.092,9.089,9.089,0,0,0-.914,2.392c.053-.093,1.669-.8,2.095-1.7A3.735,3.735,0,0,0,227.844,341.9Z" transform="translate(-175.628 -262.319)" fill="#e0e0e0"/>
      <path id="Path_897" data-name="Path 897" d="M235.29,341.9a7.609,7.609,0,0,0,.516,2.464,7.678,7.678,0,0,1,.875,1.667s.8-1.906.356-2.818A3.21,3.21,0,0,0,235.29,341.9Z" transform="translate(-182.875 -262.319)" fill="#e0e0e0"/>
      <path id="Path_898" data-name="Path 898" d="M199.1,357.2c-.1.152-2.127,1.73-2.443,2.5a4.757,4.757,0,0,0,0,2.291c.051.356,1.831-.46,2.126-1.834A15.857,15.857,0,0,0,199.1,357.2Z" transform="translate(-154.4 -273.552)" fill="#e0e0e0"/>
      <path id="Path_899" data-name="Path 899" d="M207.77,352.75c0,.253.029,2.749.686,3.62a11.674,11.674,0,0,0,1.861,1.8s.431-3.155-.478-4.131A4.928,4.928,0,0,0,207.77,352.75Z" transform="translate(-162.67 -270.284)" fill="#e0e0e0"/>
      <path id="Path_900" data-name="Path 900" d="M194.944,354.271a3.512,3.512,0,0,0-2.868.84,9.753,9.753,0,0,0-1.366,2.241,18.736,18.736,0,0,0,3.3-1.994C194.516,354.747,194.944,354.271,194.944,354.271Z" transform="translate(-150.144 -271.377)" fill="#e0e0e0"/>
      <path id="Path_901" data-name="Path 901" d="M211.41,349.358a1.451,1.451,0,0,1,1.579-.04,12.688,12.688,0,0,1,2.2,2.52,4.709,4.709,0,0,1-2.562-.954A5.784,5.784,0,0,1,211.41,349.358Z" transform="translate(-165.342 -267.608)" fill="#e0e0e0"/>
      <path id="Path_902" data-name="Path 902" d="M192.833,348.046a6.11,6.11,0,0,0-1.885-1.111,11.261,11.261,0,0,0-3.208.393,4.285,4.285,0,0,0,2.775.718A8.942,8.942,0,0,1,192.833,348.046Z" transform="translate(-147.964 -265.984)" fill="#e0e0e0"/>
      <path id="Path_903" data-name="Path 903" d="M192.62,386s-.766,1.478,0,2.294a6.729,6.729,0,0,1,1.175,2.445,2.548,2.548,0,0,0,.659-2.7A4.622,4.622,0,0,0,192.62,386Z" transform="translate(-151.297 -294.696)" fill="#e0e0e0"/>
      <path id="Path_904" data-name="Path 904" d="M184.174,386.14a6.533,6.533,0,0,0-1.629,3.158c-.1,1.273-.2,3.456,0,3.312a7.506,7.506,0,0,0,2.087-2.852C185.038,388.434,184.174,386.14,184.174,386.14Z" transform="translate(-144.063 -294.799)" fill="#e0e0e0"/>
      <path id="Path_905" data-name="Path 905" d="M173,385.6c-.2.051-2.126-.306-3.208,1.063a17.036,17.036,0,0,0-1.885,3.363,17.7,17.7,0,0,0,3.456-2.22C172.019,387.021,173,385.6,173,385.6Z" transform="translate(-133.405 -294.398)" fill="#e0e0e0"/>
      <path id="Path_906" data-name="Path 906" d="M227.485,376.42a5.478,5.478,0,0,0,0,3.262,14.912,14.912,0,0,0,1.244,2.546s.861-3.057.3-3.873S227.485,376.42,227.485,376.42Z" transform="translate(-176.955 -287.663)" fill="#e0e0e0"/>
      <path id="Path_907" data-name="Path 907" d="M229.4,375.466c.2.191,2.594,3.62,4.218,3.926s.253-.13.253-.13A11.249,11.249,0,0,0,232.632,376C231.9,375.039,229.4,375.466,229.4,375.466Z" transform="translate(-178.55 -286.893)" fill="#e0e0e0"/>
      <path id="Path_908" data-name="Path 908" d="M228,370.942a26.415,26.415,0,0,1,2.451-1.534,8.627,8.627,0,0,1,2.969.1s-2.762,1.441-3.426,1.3a4.763,4.763,0,0,0-1.986.436" transform="translate(-177.522 -282.429)" fill="#e0e0e0"/>
      <path id="Path_909" data-name="Path 909" d="M247.361,312.77s-1.526,1.619-1.329,2.884a14.884,14.884,0,0,0,.654,2.477l.67-2.225Z" transform="translate(-190.748 -240.932)" fill="#e0e0e0"/>
      <path id="Path_910" data-name="Path 910" d="M251.616,311.55s-.354,2.48.354,3.49a31.156,31.156,0,0,0,1.77,2.783,2.711,2.711,0,0,0,.508-3.339A9.62,9.62,0,0,0,251.616,311.55Z" transform="translate(-194.796 -240.036)" fill="#e0e0e0"/>
      <path id="Path_911" data-name="Path 911" d="M240.437,312.613s-2.44-.707-2.791.457-.646,2.174-.646,2.174a9.568,9.568,0,0,1,1.722-1.422,17.58,17.58,0,0,0,1.714-1.209Z" transform="translate(-184.13 -240.66)" fill="#e0e0e0"/>
      <path id="Path_912" data-name="Path 912" d="M208.76,310.611l.2-.173c.577-.492,2.259-1.845,3.11-1.637a17.887,17.887,0,0,1,2.461.9S210.844,311.61,208.76,310.611Z" transform="translate(-163.397 -238.002)" fill="#e0e0e0"/>
      <path id="Path_913" data-name="Path 913" d="M201.729,315.215c0-.183-1.108-.478-2.089.532a4.18,4.18,0,0,0-1.13,1.635S201.66,316.962,201.729,315.215Z" transform="translate(-155.871 -242.59)" fill="#e0e0e0"/>
      <path id="Path_914" data-name="Path 914" d="M208.377,316.5a2.205,2.205,0,0,0-.266,2.554c.856,1.265,1.595,2.48,1.595,2.48a4.1,4.1,0,0,0,0-2.517A9.038,9.038,0,0,0,208.377,316.5Z" transform="translate(-162.684 -243.67)" fill="#e0e0e0"/>
      <path id="Path_915" data-name="Path 915" d="M216.651,321.4c-.051-.308.356-2.834-2.985-2.584h-.306s1.595,2.578,1.964,3.389a3.514,3.514,0,0,0,1.034,1.417C216.752,323.971,216.7,321.7,216.651,321.4Z" transform="translate(-166.774 -245.355)" fill="#e0e0e0"/>
      <path id="Path_916" data-name="Path 916" d="M225.048,369.8a2.9,2.9,0,0,0-.8-2.156c-.05-.056-.125-.112-.191-.08a.186.186,0,0,0-.082.12,1.861,1.861,0,0,0,.186,1.388,4.708,4.708,0,0,0,.9,1.111" transform="translate(-174.526 -281.154)" fill="#e0e0e0"/>
      <path id="Path_917" data-name="Path 917" d="M184.079,377.816a5.715,5.715,0,0,0-2.709-2.477.377.377,0,0,0-.226-.045.292.292,0,0,0-.2.266.954.954,0,0,0,.266.675,4.745,4.745,0,0,0,3.009,1.8" transform="translate(-142.971 -286.834)" fill="#e0e0e0"/>
      <path id="Path_918" data-name="Path 918" d="M217.105,370.746a3.482,3.482,0,0,0-.478.048,5.317,5.317,0,0,0-1.26.327,7.262,7.262,0,0,0-1.683.946,17.893,17.893,0,0,0-1.776,1.576c-1.215,1.183-2.286,2.278-3.028,3.1-.369.412-.665.75-.867.986l-.237.266c-.053.061-.082.093-.088.09a.547.547,0,0,1,.069-.106c.051-.064.122-.162.218-.282.191-.245.476-.593.84-1.013.728-.84,1.792-1.951,3.006-3.131a16.421,16.421,0,0,1,1.794-1.582,7.138,7.138,0,0,1,1.72-.938,4.9,4.9,0,0,1,1.287-.29,3.138,3.138,0,0,1,.356,0A.57.57,0,0,1,217.105,370.746Z" transform="translate(-162.611 -283.493)" fill="#e0e0e0"/>
      <path id="Path_919" data-name="Path 919" d="M190.564,388.3c-.019.013-.218-.332-.651-.8a5.529,5.529,0,0,0-4.444-1.744c-.633.043-1.013.159-1.018.138a1.036,1.036,0,0,1,.266-.09,4.562,4.562,0,0,1,.747-.133,5.316,5.316,0,0,1,4.519,1.77,4.416,4.416,0,0,1,.457.609A1.126,1.126,0,0,1,190.564,388.3Z" transform="translate(-145.548 -294.438)" fill="#e0e0e0"/>
      <path id="Path_920" data-name="Path 920" d="M207.133,315.6a.391.391,0,0,1,0,.074.966.966,0,0,1-.019.213c-.019.194-.045.468-.08.816-.072.707-.175,1.733-.29,3-.223,2.533-.489,6.045-.484,9.928s.284,7.395.481,9.931c.1,1.263.186,2.289.245,3.006.027.348.048.622.064.816a.971.971,0,0,0,.013.213.266.266,0,0,1,0,.074.385.385,0,0,1-.013-.072.748.748,0,0,0-.024-.213c-.021-.194-.05-.468-.085-.816-.072-.707-.173-1.733-.284-3-.218-2.536-.505-6.047-.532-9.939a89.674,89.674,0,0,1,.532-9.936c.125-1.268.242-2.291.327-3q.066-.532.1-.813l.032-.213A.223.223,0,0,1,207.133,315.6Z" transform="translate(-161.461 -243.009)" fill="#e0e0e0"/>
      <path id="Path_921" data-name="Path 921" d="M215.057,341.318a1.713,1.713,0,0,1-.356.056c-.229.024-.561.069-.968.133a17.988,17.988,0,0,0-6.042,2.127c-.359.2-.643.375-.84.5a1.724,1.724,0,0,1-.311.178,2.125,2.125,0,0,1,.287-.218c.186-.136.468-.319.821-.532a16.143,16.143,0,0,1,6.071-2.126c.412-.053.744-.085.976-.1A2.079,2.079,0,0,1,215.057,341.318Z" transform="translate(-161.767 -261.89)" fill="#e0e0e0"/>
      <path id="Path_922" data-name="Path 922" d="M185.612,308.175a1.087,1.087,0,0,1-.032-.136c-.019-.1-.04-.234-.069-.393a5.546,5.546,0,0,0-.122-.617,7.815,7.815,0,0,0-.21-.8c-.048-.146-.1-.3-.146-.46s-.122-.319-.186-.489c-.125-.34-.3-.686-.476-1.063a13.762,13.762,0,0,0-1.454-2.209,17.16,17.16,0,0,0-3.565-3.222c-.247-.183-.489-.322-.694-.46s-.388-.242-.532-.33l-.343-.213a.673.673,0,0,1-.114-.077.533.533,0,0,1,.128.056l.351.189c.154.08.34.181.548.314s.455.266.71.444a16.353,16.353,0,0,1,3.6,3.219,13.35,13.35,0,0,1,1.459,2.235,10.925,10.925,0,0,1,.47,1.063c.061.173.136.332.181.5s.1.316.141.465a8.222,8.222,0,0,1,.194.816,4.637,4.637,0,0,1,.1.622c.019.162.035.292.045.4A.471.471,0,0,1,185.612,308.175Z" transform="translate(-140.571 -229.875)" fill="#e0e0e0"/>
      <path id="Path_923" data-name="Path 923" d="M219.5,312.33a.574.574,0,0,1-.128.058l-.375.141c-.327.117-.8.3-1.372.532a40.892,40.892,0,0,0-4.378,2.063,40.406,40.406,0,0,0-4.088,2.592c-.505.362-.906.662-1.18.875l-.319.242a.7.7,0,0,1-.117.077,1.147,1.147,0,0,1,.1-.1l.306-.266c.266-.223.659-.532,1.159-.909a35.228,35.228,0,0,1,8.485-4.668c.579-.221,1.063-.388,1.385-.492l.383-.12A.687.687,0,0,1,219.5,312.33Z" transform="translate(-162.501 -240.609)" fill="#e0e0e0"/>
      <path id="Path_924" data-name="Path 924" d="M196.708,431.7h-9.6l-1-11.722h11.722Z" transform="translate(-146.767 -319.644)" fill="#e0e0e0"/>
      <rect id="Rectangle_217" data-name="Rectangle 217" width="13.243" height="1.802" transform="translate(38.601 100.336)" fill="#e0e0e0"/>
      <path id="Path_925" data-name="Path 925" d="M196.279,426.611c0,.032-2.964.061-6.613.061s-6.616-.029-6.616-.061,2.961-.061,6.616-.061S196.279,426.577,196.279,426.611Z" transform="translate(-144.521 -324.468)" fill="#ebebeb"/>
      <rect id="Rectangle_218" data-name="Rectangle 218" width="8.15" height="10.287" transform="translate(100.266 112.298) rotate(-179.55)" fill="#ebebeb"/>
      <path id="Path_926" data-name="Path 926" d="M399.653,427.411l-.146,9.96-1.287-.011.276-9.96Z" transform="translate(-302.496 -325.092)" fill="#fafafa"/>
      <path id="Path_927" data-name="Path 927" d="M367.127,427.16l4.676.035,8.15.064-8.16,1.074-.069,8.825-4.673-.037Z" transform="translate(-279.611 -324.915)" fill="#e0e0e0"/>
      <path id="Path_928" data-name="Path 928" d="M372.571,427.2l-.186,9.96L371,437.15l.226-9.96Z" transform="translate(-282.511 -324.937)" fill="#fafafa"/>
      <path id="Path_929" data-name="Path 929" d="M380.089,406.9c0,.061-.133.128-.383.189a6.542,6.542,0,0,1-1.861.136,2.818,2.818,0,0,1-.433-.051,3.186,3.186,0,0,1-.476-.1,1.4,1.4,0,0,1-.292-.125.912.912,0,0,1-.311-.292.874.874,0,0,1-.133-.447,1.372,1.372,0,0,1,.04-.346,5.922,5.922,0,0,1,.311-1.034,2.849,2.849,0,0,1,.3-.532,2.408,2.408,0,0,1,.2-.239,1.476,1.476,0,0,1,.266-.218,1.09,1.09,0,0,1,.369-.149.944.944,0,0,1,.423,0,1.4,1.4,0,0,1,.558.308,4.519,4.519,0,0,1,1.063,1.313,3.19,3.19,0,0,1,.359,1.063c.032.266,0,.417-.059.433-.133.029-.324-.494-.843-1.154a5.283,5.283,0,0,0-1.047-1,.574.574,0,0,0-.237-.122.085.085,0,0,0-.045,0,.307.307,0,0,0-.069.037.734.734,0,0,0-.1.09,1.591,1.591,0,0,0-.114.144,1.921,1.921,0,0,0-.2.359,6.481,6.481,0,0,0-.282.875.709.709,0,0,0-.024.128h-.024c-.029,0-.037.016-.019,0l.032-.024h0a.1.1,0,0,0,.024.021.576.576,0,0,0,.117.061,3.73,3.73,0,0,0,.361.109c.128.035.266.061.375.085.245.051.478.085.694.114.433.059.8.1,1.045.144S380.089,406.838,380.089,406.9Z" transform="translate(-286.329 -307.669)" fill="#e0e0e0"/>
      <path id="Path_930" data-name="Path 930" d="M390.053,405.88c-.021-.13.587-.322,1.539-.6a13.106,13.106,0,0,0,1.595-.574,1.577,1.577,0,0,0,.348-.194c.037-.029.053-.058.048-.056s0,.037,0,.019a.73.73,0,0,0-.058-.141c-.037-.082-.077-.162-.117-.245a4.062,4.062,0,0,0-.247-.441,1.816,1.816,0,0,0-.29-.348,1.866,1.866,0,0,0-.165-.13.746.746,0,0,0-.149-.08.37.37,0,0,0-.239-.024.819.819,0,0,0-.29.167,6.379,6.379,0,0,0-1.114,1.209c-.545.779-.688,1.385-.824,1.366-.061,0-.106-.175-.085-.473a3.483,3.483,0,0,1,.354-1.215,5.3,5.3,0,0,1,1.116-1.518,1.648,1.648,0,0,1,.577-.367,1.236,1.236,0,0,1,.8.013,1.754,1.754,0,0,1,.34.165,2.485,2.485,0,0,1,.72.731,4.064,4.064,0,0,1,.3.55l.12.266a1.481,1.481,0,0,1,.12.375.84.84,0,0,1-.09.532,1.007,1.007,0,0,1-.3.332,2.195,2.195,0,0,1-.556.266,8.289,8.289,0,0,1-1.786.428C390.7,406.034,390.074,406,390.053,405.88Z" transform="translate(-296.461 -306.572)" fill="#ebebeb"/>
      <rect id="Rectangle_219" data-name="Rectangle 219" width="11.98" height="3.405" transform="translate(98.014 102.322) rotate(-179.55)" fill="#e0e0e0"/>
      <rect id="Rectangle_220" data-name="Rectangle 220" width="10.829" height="3.405" transform="translate(101.268 102.346) rotate(-179.55)" fill="#ebebeb"/>
      <path id="Path_931" data-name="Path 931" d="M402.97,414.628l-.077,3.421-1.263-.027.088-3.4Z" transform="translate(-304.999 -315.709)" fill="#fafafa"/>
      <path id="Path_932" data-name="Path 932" d="M368.74,414.377l-.122,3.392-1.388-.011.074-3.408Z" transform="translate(-279.743 -315.51)" fill="#fafafa"/>
      <rect id="Rectangle_221" data-name="Rectangle 221" width="4.617" height="5.829" transform="translate(105.756 112.299) rotate(-179.55)" fill="#ebebeb"/>
      <path id="Path_933" data-name="Path 933" d="M427.081,443.705,427,449.349l-.728-.005.157-5.643Z" transform="translate(-323.09 -337.059)" fill="#fafafa"/>
      <path id="Path_934" data-name="Path 934" d="M408.653,443.56l2.65.019,4.617.037-4.622.609-.04,5-2.647-.021Z" transform="translate(-310.124 -336.956)" fill="#e0e0e0"/>
      <path id="Path_935" data-name="Path 935" d="M411.73,443.585l-.1,5.643-.787-.005.128-5.643Z" transform="translate(-311.761 -336.971)" fill="#fafafa"/>
      <path id="Path_936" data-name="Path 936" d="M415.839,431.946c0,.085-.3.189-.832.234a3,3,0,0,1-.968-.08.659.659,0,0,1-.375-.266.531.531,0,0,1-.085-.284.78.78,0,0,1,.024-.213,3.37,3.37,0,0,1,.178-.6,1.705,1.705,0,0,1,.175-.308,1.023,1.023,0,0,1,.287-.266.641.641,0,0,1,.494-.085.888.888,0,0,1,.34.189,2.506,2.506,0,0,1,.609.768c.25.505.213.861.133.875s-.218-.266-.516-.627a3.152,3.152,0,0,0-.593-.548.266.266,0,0,0-.112-.056h0a.056.056,0,0,0-.019.013.479.479,0,0,0-.106.117,1.089,1.089,0,0,0-.106.191,3.831,3.831,0,0,0-.154.484l-.013.059h-.077a.217.217,0,0,0,.045-.04h.013a.2.2,0,0,0,.053.029,4.659,4.659,0,0,0,.8.186C415.514,431.8,415.839,431.853,415.839,431.946Z" transform="translate(-313.772 -327.049)" fill="#e0e0e0"/>
      <path id="Path_937" data-name="Path 937" d="M421.5,431.252c-.016-.1.327-.231.859-.4a8.311,8.311,0,0,0,.89-.343.692.692,0,0,0,.175-.1c.016,0,.016-.021,0,0a.133.133,0,0,0-.016.069c-.032-.064-.064-.128-.093-.194a2.47,2.47,0,0,0-.136-.239.924.924,0,0,0-.149-.178.53.53,0,0,0-.146-.1.112.112,0,0,0-.077-.013.314.314,0,0,0-.136.074,3.781,3.781,0,0,0-.63.654c-.316.42-.423.752-.532.739s-.162-.409.1-.989a2.974,2.974,0,0,1,.635-.89,1,1,0,0,1,.356-.229.814.814,0,0,1,.516,0,1.188,1.188,0,0,1,.21.1,1.159,1.159,0,0,1,.167.128,1.545,1.545,0,0,1,.266.311,2.345,2.345,0,0,1,.178.324l.069.149a1.087,1.087,0,0,1,.074.237.577.577,0,0,1-.064.364.63.63,0,0,1-.2.215,1.3,1.3,0,0,1-.335.167,4.413,4.413,0,0,1-1.031.226C421.875,431.387,421.516,431.342,421.5,431.252Z" transform="translate(-319.529 -326.312)" fill="#e0e0e0"/>
      <rect id="Rectangle_222" data-name="Rectangle 222" width="6.789" height="1.93" transform="translate(104.482 106.646) rotate(-179.55)" fill="#e0e0e0"/>
      <rect id="Rectangle_223" data-name="Rectangle 223" width="6.135" height="1.93" transform="translate(106.324 106.658) rotate(-179.55)" fill="#ebebeb"/>
      <path id="Path_938" data-name="Path 938" d="M428.958,436.455l-.043,1.938-.715-.013.051-1.93Z" transform="translate(-324.507 -331.736)" fill="#fafafa"/>
      <path id="Path_939" data-name="Path 939" d="M409.566,436.316l-.069,1.922-.787-.008.043-1.93Z" transform="translate(-310.197 -331.626)" fill="#fafafa"/>
      <rect id="Rectangle_224" data-name="Rectangle 224" width="35.188" height="58.245" transform="translate(1.17)" fill="#e0e0e0"/>
      <rect id="Rectangle_225" data-name="Rectangle 225" width="35.188" height="58.245" transform="translate(0)" fill="#ebebeb"/>
      <rect id="Rectangle_226" data-name="Rectangle 226" width="32.19" height="55.882" transform="translate(1.499 1.183)" fill="#fafafa"/>
      <rect id="Rectangle_227" data-name="Rectangle 227" width="19.795" height="41.36" transform="translate(7.626 8.442)" fill="#ebebeb"/>
      <path id="Path_940" data-name="Path 940" d="M66.783,132.668c-.045-3.862,3.429-7.634,7.254-8.174,1.823-.266,3.764.1,5.468-.6,3.044-1.247,4.011-5.29,7.073-6.488l.138,29.893H66.78Z" transform="translate(-59.157 -97.501)" fill="#e0e0e0"/>
    </g>
    <g id="freepik--Floor--inject-3" transform="translate(28.76 154.744)">
      <path id="Path_941" data-name="Path 941" d="M145.845,464.809c0,.04-26.212.072-58.54.072s-58.545-.032-58.545-.072,26.206-.069,58.545-.069S145.845,464.772,145.845,464.809Z" transform="translate(-28.76 -464.74)" fill="#263238"/>
    </g>
    <g id="freepik--Device--inject-3" transform="translate(77.143 48.172)">
      <path id="Path_942" data-name="Path 942" d="M268.679,151.337l-54.832-.024a3.073,3.073,0,0,1-3.067-3.073l.043-81.357A3.07,3.07,0,0,1,213.9,63.81l54.829.029a3.07,3.07,0,0,1,3.07,3.07l-.045,81.357A3.07,3.07,0,0,1,268.679,151.337Z" transform="translate(-210.78 -63.81)" fill="#263238"/>
      <rect id="Rectangle_228" data-name="Rectangle 228" width="57.126" height="73.072" transform="translate(1.831 6.061)" fill="#fff"/>
      <path id="Path_943" data-name="Path 943" d="M321.348,370.032a2.336,2.336,0,1,1-.682-1.656A2.339,2.339,0,0,1,321.348,370.032Z" transform="translate(-288.523 -286.915)" fill="#455a64"/>
      <rect id="Rectangle_229" data-name="Rectangle 229" width="18.362" height="0.968" rx="0.484" transform="translate(21.347 2.533)" fill="#455a64"/>
      <path id="Path_944" data-name="Path 944" d="M421.536,176.4h0a.686.686,0,0,1-.686-.688l.027-51.876a.686.686,0,0,1,.688-.686h0a.688.688,0,0,1,.686.686l-.032,51.876A.686.686,0,0,1,421.536,176.4Z" transform="translate(-365.011 -107.377)" fill="#e0e0e0"/>
      <path id="Path_945" data-name="Path 945" d="M304.753,108.894c0,.04-5.3.066-11.837.064s-11.837-.037-11.837-.074,5.3-.066,11.837-.064S304.753,108.867,304.753,108.894Z" transform="translate(-262.393 -96.855)" fill="#263238"/>
      <path id="Path_946" data-name="Path 946" d="M238.55,105.566h.29l.779-.021-.024.027v-.9a.306.306,0,0,1,.266-.245h.375a.308.308,0,0,1,.266.306v.827l-.04-.04h.986l-.043.043v-1.542a.306.306,0,0,0-.138-.229l-.431-.425-.415-.409c-.066-.069-.136-.136-.2-.2s-.122-.136-.2-.152a.266.266,0,0,0-.221.043c-.059.048-.125.12-.183.178l-.372.327c-.223.231-.457.444-.625.641a.715.715,0,0,0-.048.367v1.265a.767.767,0,0,1,0,.13.678.678,0,0,1,0-.12v-1.465a.412.412,0,0,1,.056-.207c.183-.226.4-.423.625-.662l.351-.359a2.579,2.579,0,0,1,.191-.189.34.34,0,0,1,.29-.058.532.532,0,0,1,.239.173l.2.2.417.409.431.425a.388.388,0,0,1,.165.287c0,.106,0,.21,0,.316v1.271h-1.069v-.856a.229.229,0,0,0-.194-.234h-.356a.237.237,0,0,0-.21.189v.906H238.68Z" transform="translate(-231.168 -92.208)" fill="#263238"/>
      <path id="Path_947" data-name="Path 947" d="M397.419,102.887a.042.042,0,0,0-.029-.013h-3.208l-.016-.133-.037-.266a.04.04,0,0,0-.037-.035h-.646c-.051,0-.085,0-.085.043s.035.043.085.043h.59l.33,2.546a.037.037,0,0,0,.04.035h2.61c.061,0,.09,0,.09-.04s-.029-.043-.09-.045l-2.546-.035-.059-.449,2.674.035h0a.04.04,0,0,0,.04-.032l.2-1.063.106-.574A.037.037,0,0,0,397.419,102.887Zm-3.224.058,3.1.043-.266,1.489h-2.626Z" transform="translate(-344.828 -92.172)" fill="#263238"/>
      <path id="Path_948" data-name="Path 948" d="M398.285,114.058a.327.327,0,0,0-.109-.178.311.311,0,0,0-.3-.051.319.319,0,0,0,0,.6.308.308,0,0,0,.106.019.314.314,0,0,0,.194-.066.293.293,0,0,0,.112-.175.229.229,0,0,0,0-.074A.345.345,0,0,0,398.285,114.058Zm-.377.266a.21.21,0,0,1,0-.393.229.229,0,0,1,.072,0,.22.22,0,0,1,.128.043.231.231,0,0,1,.082.117.2.2,0,0,1,0,.045v-.008a.12.12,0,0,1,0,.045.231.231,0,0,1-.082.117.213.213,0,0,1-.21.037Z" transform="translate(-347.988 -100.52)" fill="#263238"/>
      <path id="Path_949" data-name="Path 949" d="M404.652,114.108a.29.29,0,0,0-.106-.175.306.306,0,0,0-.3-.053.319.319,0,0,0,0,.6.309.309,0,0,0,.106.019.314.314,0,0,0,.194-.066.292.292,0,0,0,.112-.175.234.234,0,0,0,0-.074A.223.223,0,0,0,404.652,114.108Zm-.375.266a.212.212,0,0,1-.133-.2.207.207,0,0,1,.138-.194.229.229,0,0,1,.072,0,.221.221,0,0,1,.128.043.218.218,0,0,1,.09.162h0a.12.12,0,0,1,0,.045.221.221,0,0,1-.082.117.213.213,0,0,1-.2.029Z" transform="translate(-352.665 -100.557)" fill="#263238"/>
      <path id="Path_950" data-name="Path 950" d="M268.68,330.369c0,.375-.266.6-.723.6h-.478v.558h-.189v-1.77h.662C268.409,329.76,268.683,329.989,268.68,330.369Zm-.186,0c0-.284-.186-.447-.532-.447h-.484v.885h.47C268.308,330.807,268.494,330.645,268.494,330.369Z" transform="translate(-252.269 -259.067)" fill="#263238"/>
      <path id="Path_951" data-name="Path 951" d="M275.16,331.42v1.329h-.17v-.242a.532.532,0,0,1-.478.266.516.516,0,0,1-.561-.571v-.771h.181v.752a.37.37,0,0,0,.4.428.433.433,0,0,0,.452-.484v-.7Z" transform="translate(-257.157 -260.286)" fill="#263238"/>
      <path id="Path_952" data-name="Path 952" d="M281.07,331.383v.162h-.043a.431.431,0,0,0-.449.492v.675H280.4v-1.329h.173v.266A.508.508,0,0,1,281.07,331.383Z" transform="translate(-261.894 -260.257)" fill="#263238"/>
      <path id="Path_953" data-name="Path 953" d="M283.578,332.058a.654.654,0,0,1,.686-.672.579.579,0,0,1,.532.266l-.136.09a.452.452,0,0,0-.385-.2.518.518,0,0,0,0,1.034.441.441,0,0,0,.385-.194l.136.093a.59.59,0,0,1-.532.266.657.657,0,0,1-.686-.686Z" transform="translate(-264.227 -260.26)" fill="#263238"/>
      <path id="Path_954" data-name="Path 954" d="M290.623,330.476v.771h-.178v-.752a.372.372,0,0,0-.4-.425.436.436,0,0,0-.465.478v.7H289.4V329.37h.159v.779a.561.561,0,0,1,.5-.242.51.51,0,0,1,.566.569Z" transform="translate(-268.502 -258.781)" fill="#263238"/>
      <path id="Path_955" data-name="Path 955" d="M296.5,331.889v.824h-.17v-.207a.5.5,0,0,1-.457.221c-.3,0-.486-.157-.486-.388s.133-.375.513-.375h.423v-.082c0-.226-.128-.351-.377-.351a.681.681,0,0,0-.441.157l-.08-.133a.835.835,0,0,1,.532-.181.473.473,0,0,1,.545.516Zm-.181.425V332.1h-.417c-.266,0-.34.1-.34.239s.122.25.335.25A.425.425,0,0,0,296.323,332.315Z" transform="translate(-272.9 -260.248)" fill="#263238"/>
      <path id="Path_956" data-name="Path 956" d="M300.72,332.585l.08-.141a.8.8,0,0,0,.473.149c.253,0,.356-.085.356-.215,0-.348-.861-.074-.861-.6,0-.218.186-.378.532-.378a.9.9,0,0,1,.468.122l-.077.146a.67.67,0,0,0-.391-.114c-.242,0-.348.093-.348.218,0,.359.861.09.861.6,0,.229-.2.377-.548.377A.864.864,0,0,1,300.72,332.585Z" transform="translate(-276.813 -260.271)" fill="#263238"/>
      <path id="Path_957" data-name="Path 957" d="M306.871,332.212H305.76a.494.494,0,0,0,.532.462.532.532,0,0,0,.407-.175l.1.117a.7.7,0,0,1-1.209-.46.646.646,0,1,1,1.292,0A.123.123,0,0,0,306.871,332.212Zm-1.111-.136h.944a.473.473,0,0,0-.944,0Z" transform="translate(-280.388 -260.352)" fill="#263238"/>
      <path id="Path_958" data-name="Path 958" d="M315.61,331.44l-.5,1.329h-.17l-.417-1.09-.42,1.09h-.17l-.5-1.329h.173l.415,1.13.428-1.13h.154l.425,1.13.423-1.13Z" transform="translate(-286.144 -260.301)" fill="#263238"/>
      <path id="Path_959" data-name="Path 959" d="M323.194,331.908v.824h-.17v-.207a.5.5,0,0,1-.457.218c-.3,0-.486-.157-.486-.385s.133-.377.513-.377h.423v-.08c0-.229-.128-.351-.377-.351a.667.667,0,0,0-.441.157l-.08-.136a.834.834,0,0,1,.532-.178.47.47,0,0,1,.545.516Zm-.178.423v-.215h-.425c-.266,0-.34.1-.34.237s.122.25.335.25A.425.425,0,0,0,323.016,332.331Z" transform="translate(-292.495 -260.261)" fill="#263238"/>
      <path id="Path_960" data-name="Path 960" d="M327.41,332.6l.082-.141a.8.8,0,0,0,.473.149c.253,0,.356-.088.356-.218,0-.346-.861-.074-.861-.6,0-.218.186-.38.532-.38a.888.888,0,0,1,.468.125l-.077.144a.673.673,0,0,0-.393-.114c-.239,0-.346.093-.346.221,0,.359.861.088.861.6,0,.231-.2.38-.548.38A.9.9,0,0,1,327.41,332.6Z" transform="translate(-296.408 -260.278)" fill="#263238"/>
      <path id="Path_961" data-name="Path 961" d="M334.56,332.6l.08-.141a.813.813,0,0,0,.473.149c.253,0,.356-.085.356-.218,0-.346-.861-.072-.861-.6,0-.218.186-.38.532-.38a.9.9,0,0,1,.468.125l-.077.144a.691.691,0,0,0-.391-.114c-.242,0-.348.1-.348.221,0,.359.864.088.861.6,0,.229-.2.377-.548.377A.885.885,0,0,1,334.56,332.6Z" transform="translate(-301.658 -260.279)" fill="#263238"/>
      <path id="Path_962" data-name="Path 962" d="M341.053,331.46v1.329h-.173v-.245a.532.532,0,0,1-.478.266.516.516,0,0,1-.561-.571v-.771h.181v.755a.372.372,0,0,0,.4.425.431.431,0,0,0,.452-.481v-.7Z" transform="translate(-305.533 -260.315)" fill="#263238"/>
      <path id="Path_963" data-name="Path 963" d="M345.8,332.131a.654.654,0,0,1,.683-.675.579.579,0,0,1,.532.266l-.133.09a.46.46,0,0,0-.388-.2.532.532,0,0,0,0,1.037.457.457,0,0,0,.388-.194l.133.09a.59.59,0,0,1-.532.266.654.654,0,0,1-.683-.683Z" transform="translate(-309.908 -260.311)" fill="#263238"/>
      <path id="Path_964" data-name="Path 964" d="M351.059,332.131a.657.657,0,0,1,.686-.675.585.585,0,0,1,.532.266l-.136.093a.447.447,0,0,0-.385-.2.532.532,0,0,0,0,1.037.449.449,0,0,0,.385-.194l.136.09a.587.587,0,0,1-.532.266.659.659,0,0,1-.686-.683Z" transform="translate(-313.771 -260.312)" fill="#263238"/>
      <path id="Path_965" data-name="Path 965" d="M357.642,332.158h-1.114a.489.489,0,0,0,.532.463.532.532,0,0,0,.407-.173l.1.117a.7.7,0,0,1-1.209-.463.641.641,0,0,1,.651-.672.633.633,0,0,1,.635.683S357.642,332.139,357.642,332.158Zm-1.111-.133h.941a.47.47,0,0,0-.941,0Z" transform="translate(-317.661 -260.293)" fill="#263238"/>
      <path id="Path_966" data-name="Path 966" d="M361.88,332.618l.082-.144a.8.8,0,0,0,.47.151c.266,0,.356-.088.356-.218,0-.346-.861-.074-.861-.6,0-.215.189-.377.532-.377a.89.89,0,0,1,.47.125l-.077.144a.672.672,0,0,0-.409-.117c-.239,0-.346.093-.346.218,0,.362.861.09.861.6,0,.229-.2.38-.548.377a.9.9,0,0,1-.532-.16Z" transform="translate(-321.716 -260.293)" fill="#263238"/>
      <path id="Path_967" data-name="Path 967" d="M366.53,332.618l.082-.141a.8.8,0,0,0,.47.149c.253,0,.356-.088.356-.218,0-.346-.861-.074-.861-.6,0-.218.189-.38.532-.38a.891.891,0,0,1,.471.125l-.077.144a.7.7,0,0,0-.393-.114c-.239,0-.346.093-.346.221,0,.359.861.088.861.6,0,.231-.2.38-.548.38A.9.9,0,0,1,366.53,332.618Z" transform="translate(-325.13 -260.293)" fill="#263238"/>
      <path id="Path_968" data-name="Path 968" d="M371.519,329.737v.157h.409v.141h-.4v1.178h-.178v-1.178h-.237v-.152h.237v-.165a.367.367,0,0,1,.4-.393.415.415,0,0,1,.266.085l-.061.133a.3.3,0,0,0-.2-.066A.236.236,0,0,0,371.519,329.737Z" transform="translate(-328.492 -258.747)" fill="#263238"/>
      <path id="Path_969" data-name="Path 969" d="M376.282,331.48v1.329h-.162v-.245a.532.532,0,0,1-.478.266.516.516,0,0,1-.561-.572v-.771h.181v.755a.372.372,0,0,0,.4.425.431.431,0,0,0,.452-.481v-.7Z" transform="translate(-331.405 -260.33)" fill="#263238"/>
      <path id="Path_970" data-name="Path 970" d="M381.5,329.42h.181V331.3H381.5Z" transform="translate(-336.121 -258.818)" fill="#263238"/>
      <path id="Path_971" data-name="Path 971" d="M280.572,312.072h-.952v-.452h2.44v.452h-.954V314.5h-.532Z" transform="translate(-261.322 -245.749)" fill="#076aff"/>
      <path id="Path_972" data-name="Path 972" d="M292.269,312.784v1.257h-.513v-1.18c0-.391-.194-.579-.532-.579a.582.582,0,0,0-.611.659v1.111H290.1V311h.513v1.108a.978.978,0,0,1,.731-.279A.851.851,0,0,1,292.269,312.784Z" transform="translate(-269.016 -245.294)" fill="#076aff"/>
      <path id="Path_973" data-name="Path 973" d="M302.124,315.042v1.287h-.486v-.266a.771.771,0,0,1-.688.3c-.5,0-.819-.266-.819-.659s.247-.651.912-.651h.569v-.035c0-.3-.181-.476-.548-.476a1.076,1.076,0,0,0-.665.218l-.2-.375a1.539,1.539,0,0,1,.928-.266C301.757,314.109,302.124,314.409,302.124,315.042Zm-.513.6v-.266h-.532c-.348,0-.444.13-.444.292s.157.3.42.3A.561.561,0,0,0,301.611,315.642Z" transform="translate(-276.38 -247.581)" fill="#076aff"/>
      <path id="Path_974" data-name="Path 974" d="M312.261,315.077v1.257h-.513v-1.18c0-.391-.194-.579-.532-.579a.582.582,0,0,0-.614.659v1.111h-.5v-2.2h.489v.284a.952.952,0,0,1,.758-.308A.843.843,0,0,1,312.261,315.077Z" transform="translate(-283.7 -247.588)" fill="#076aff"/>
      <path id="Path_975" data-name="Path 975" d="M321.586,313.1l-.383.361v.579h-.513V311h.513v1.839l1.063-.986h.633l-.917.922,1,1.273h-.625Z" transform="translate(-291.475 -245.294)" fill="#076aff"/>
      <path id="Path_976" data-name="Path 976" d="M335.721,314.18l-1.029,2.371a.847.847,0,0,1-.845.651.9.9,0,0,1-.587-.2l.2-.377a.564.564,0,0,0,.377.152c.181,0,.29-.088.388-.3l.037-.088-.96-2.2h.532l.691,1.624.694-1.624Z" transform="translate(-300.703 -247.629)" fill="#076aff"/>
      <path id="Path_977" data-name="Path 977" d="M342.808,314.962a1.17,1.17,0,1,1,1.167,1.127,1.106,1.106,0,0,1-1.167-1.127Zm1.821,0a.651.651,0,1,0-.654.686.638.638,0,0,0,.654-.686Z" transform="translate(-307.713 -247.313)" fill="#076aff"/>
      <path id="Path_978" data-name="Path 978" d="M355.542,314.18v2.2h-.489V316.1a.9.9,0,0,1-.707.308.869.869,0,0,1-.946-.97V314.18h.513v1.186c0,.4.191.587.516.587a.579.579,0,0,0,.6-.662V314.18Z" transform="translate(-315.49 -247.629)" fill="#076aff"/>
      <path id="Path_979" data-name="Path 979" d="M363.64,314.2a.319.319,0,1,1,.1.232A.319.319,0,0,1,363.64,314.2Zm.027-2.584h.6l-.1,1.922h-.409Z" transform="translate(-323.008 -245.749)" fill="#076aff"/>
    </g>
    <g id="freepik--character-2--inject-3" transform="translate(73.188 64.772)">
      <path id="Path_980" data-name="Path 980" d="M322.248,134.865l-.776,11a3.426,3.426,0,0,1-3.418,3.19h0a3.426,3.426,0,0,1-3.421-3.652c.069-1.047.13-1.9.13-1.9a3.2,3.2,0,0,1-2.7-3.075c-.019-1.536.247-5.024.476-7.709a3.487,3.487,0,0,1,3.477-3.19h1.611a4.925,4.925,0,0,1,4.617,5.335Z" transform="translate(-281.188 -128.661)" fill="#ffbe9d"/>
      <path id="Path_981" data-name="Path 981" d="M322.056,179.223a6.438,6.438,0,0,0,3.456-1.023A3.348,3.348,0,0,1,322,179.9Z" transform="translate(-288.481 -164.394)" fill="#eb996e"/>
      <path id="Path_982" data-name="Path 982" d="M315.716,149.981c.048.048.338-.165.744-.162s.71.2.755.154-.027-.112-.157-.207a1.063,1.063,0,0,0-.6-.186,1.01,1.01,0,0,0-.593.191C315.737,149.87,315.694,149.957,315.716,149.981Z" transform="translate(-283.863 -143.382)" fill="#263238"/>
      <path id="Path_983" data-name="Path 983" d="M329.45,154.41a.38.38,0,0,0,.367.383.367.367,0,0,0,.391-.343.377.377,0,0,0-.367-.383.362.362,0,0,0-.391.343Z" transform="translate(-293.951 -146.675)" fill="#263238"/>
      <path id="Path_984" data-name="Path 984" d="M315.71,154.41a.38.38,0,0,0,.367.383.367.367,0,0,0,.393-.343.38.38,0,0,0-.367-.383.364.364,0,0,0-.393.343Z" transform="translate(-283.863 -146.675)" fill="#263238"/>
      <path id="Path_985" data-name="Path 985" d="M330.576,150.189c.048.051.338-.162.744-.162s.71.207.755.157-.027-.112-.16-.207a1.034,1.034,0,0,0-.6-.186,1.01,1.01,0,0,0-.593.191C330.6,150.077,330.554,150.167,330.576,150.189Z" transform="translate(-294.773 -143.536)" fill="#263238"/>
      <path id="Path_986" data-name="Path 986" d="M322.255,153.84a2.7,2.7,0,0,0-.665-.12c-.1,0-.2-.032-.221-.1a.532.532,0,0,1,.069-.308l.311-.8a13.251,13.251,0,0,0,.691-2.081,13.3,13.3,0,0,0-.859,2.02q-.156.419-.3.8a.6.6,0,0,0-.056.409.266.266,0,0,0,.173.154.766.766,0,0,0,.178.024,2.659,2.659,0,0,0,.672.005Z" transform="translate(-287.907 -144.005)" fill="#263238"/>
      <path id="Path_987" data-name="Path 987" d="M326.052,164.33c-.066,0-.066.439-.447.755s-.853.266-.856.327.1.088.3.093a1.106,1.106,0,0,0,.715-.25.975.975,0,0,0,.348-.633C326.145,164.436,326.082,164.327,326.052,164.33Z" transform="translate(-290.5 -154.211)" fill="#263238"/>
      <path id="Path_988" data-name="Path 988" d="M330.684,144.851c.04.109.449.058.928.114s.869.189.933.09c.027-.048-.04-.154-.2-.266a1.627,1.627,0,0,0-1.417-.157C330.766,144.71,330.665,144.8,330.684,144.851Z" transform="translate(-294.855 -139.679)" fill="#263238"/>
      <path id="Path_989" data-name="Path 989" d="M315.471,145.293c.072.093.354,0,.691,0s.627.064.691-.035c.029-.048-.016-.141-.141-.229a1,1,0,0,0-1.114.035C315.479,145.152,315.439,145.247,315.471,145.293Z" transform="translate(-283.68 -139.929)" fill="#263238"/>
      <path id="Path_990" data-name="Path 990" d="M346.714,156.893c.045-.021,1.829-.532,1.77,1.279a1.368,1.368,0,0,1-1.874,1.329C346.61,159.445,346.714,156.893,346.714,156.893Z" transform="translate(-306.55 -148.691)" fill="#ffbe9d"/>
      <path id="Path_991" data-name="Path 991" d="M348.776,160.434s.032.021.082.048a.314.314,0,0,0,.237.013.776.776,0,0,0,.385-.691,1.063,1.063,0,0,0-.072-.457.375.375,0,0,0-.231-.266.165.165,0,0,0-.191.082c-.024.05-.013.085-.024.088s-.037-.029-.021-.106a.213.213,0,0,1,.074-.112.266.266,0,0,1,.178-.04.452.452,0,0,1,.322.292,1.1,1.1,0,0,1,.093.51.821.821,0,0,1-.486.771.34.34,0,0,1-.29-.056C348.779,160.477,348.771,160.437,348.776,160.434Z" transform="translate(-308.139 -150.292)" fill="#eb996e"/>
      <path id="Path_992" data-name="Path 992" d="M327.717,135.771a.954.954,0,0,0-.875.449c-.12.266-.144.556-.266.813a.641.641,0,0,1-.662.431.564.564,0,0,1-.38-.415,1.558,1.558,0,0,1,0-.587c.109-.851.287-1.693.322-2.549a4.365,4.365,0,0,0-.532-2.472,2.392,2.392,0,0,0-2.126-1.2c-.566.045-1.085.34-1.645.417a2.22,2.22,0,0,1-1.847-.617c-.061-.059-.346-.247-.346-.247a1.063,1.063,0,0,1,.191-.564,5.386,5.386,0,0,1,8.081,1.842,7.655,7.655,0,0,1,.1,4.694" transform="translate(-286.543 -127.632)" fill="#263238"/>
      <path id="Path_993" data-name="Path 993" d="M312.048,136.53a1.741,1.741,0,0,0,1.446.936,4.785,4.785,0,0,0,1.776-.266,14.216,14.216,0,0,1,2.735-.4c.09,0,.2,0,.245-.074s-.037-.223-.13-.3a8.174,8.174,0,0,0-3.721-1.045,2.956,2.956,0,0,0-2.608,1.236" transform="translate(-280.985 -132.953)" fill="#263238"/>
      <path id="Path_994" data-name="Path 994" d="M313.74,129.914a3.416,3.416,0,0,1,1.983-.9,8.051,8.051,0,0,1,8.057,4.474,9.068,9.068,0,0,0,.415-2.105,5.2,5.2,0,0,0-3.639-4.785S315.558,124.7,313.74,129.914Z" transform="translate(-282.417 -126.262)" fill="#076aff"/>
      <g id="Group_25" data-name="Group 25" transform="translate(31.323 0)" opacity="0.4">
        <path id="Path_995" data-name="Path 995" d="M313.74,129.914a3.24,3.24,0,0,1,2.222-1.007,8.546,8.546,0,0,1,7.818,4.585,9.068,9.068,0,0,0,.415-2.105,5.2,5.2,0,0,0-3.639-4.785S315.558,124.7,313.74,129.914Z" transform="translate(-313.74 -126.262)"/>
      </g>
      <path id="Path_996" data-name="Path 996" d="M314.137,133.357a11.679,11.679,0,0,0-4.08-3.822,25.36,25.36,0,0,0-6.087-2.48,3.987,3.987,0,0,0-1.68-.178,1.518,1.518,0,0,0-1.247,1.021c-.175.691,1.05,1.754,1.624,2.172a18.59,18.59,0,0,0,1.746,1.034s-.016-1.284,2.033-1.544C309.23,129.207,314.219,133.428,314.137,133.357Z" transform="translate(-273.082 -126.696)" fill="#076aff"/>
      <path id="Path_997" data-name="Path 997" d="M325.714,129.711a7.331,7.331,0,0,0-3.854-.936,1.818,1.818,0,0,1,.59-.082,5.354,5.354,0,0,1,2.778.675,1.839,1.839,0,0,1,.486.343Z" transform="translate(-288.378 -128.045)" fill="#fff"/>
      <path id="Path_998" data-name="Path 998" d="M304.088,295.489c0,.037-6.8.069-15.2.069s-15.2-.032-15.2-.069,6.8-.069,15.2-.069S304.088,295.452,304.088,295.489Z" transform="translate(-253.012 -250.456)" fill="#263238"/>
      <path id="Path_999" data-name="Path 999" d="M249.285,205.072l-3.913,1.768L239.3,201.89l-1.861,2.924s3.456,4,4.739,5.361,2.126,2.084,3.145,1.954,6.776-2.847,6.776-2.847S250.739,205.242,249.285,205.072Z" transform="translate(-226.398 -181.787)" fill="#ffbe9d"/>
      <path id="Path_1000" data-name="Path 1000" d="M216.466,192.5a2.574,2.574,0,0,0,1.263.532c.5-.043,2.392-.045,2.528-.035s1.983,1.013,1.983,1.013l1.35,1.3-2.126,2.945s-.348-.4-.587-.372a27.622,27.622,0,0,1-3.588-.367c-.439-.149-1-.237-1.146-.505s-.178-.463.223-.8a.673.673,0,0,1-.149-.933s-.606-.444-.388-.853c0,0-.343-.141-.4-.359a2.34,2.34,0,0,1,.024-.683l.869-.266A.417.417,0,0,1,216.466,192.5Z" transform="translate(-210.228 -174.893)" fill="#ffbe9d"/>
      <path id="Path_1001" data-name="Path 1001" d="M217.158,194.714s.04-.016.112-.037a1.409,1.409,0,0,1,.324-.066.8.8,0,0,1,.473.183.55.55,0,0,1,.181.6.42.42,0,0,1-.237.253,1.329,1.329,0,0,1-.284.082l-.468.1a1.361,1.361,0,0,1-.439.056,1.465,1.465,0,0,1,.417-.149l.46-.128c.175-.043.367-.082.42-.266a.436.436,0,0,0-.136-.457.752.752,0,0,0-.391-.181,1.96,1.96,0,0,0-.311.021C217.2,194.738,217.158,194.727,217.158,194.714Z" transform="translate(-211.259 -176.442)" fill="#eb996e"/>
      <path id="Path_1002" data-name="Path 1002" d="M219.54,197.548a.994.994,0,0,1,.2-.058,3.23,3.23,0,0,1,.574-.064,1.483,1.483,0,0,1,.84.215.731.731,0,0,1,.316.436.5.5,0,0,1-.218.532,1.329,1.329,0,0,1-.55.112l-.5.04-.843.058a4.415,4.415,0,0,1-.781.019,4.207,4.207,0,0,1,.774-.117l.84-.088.5-.048a1.329,1.329,0,0,0,.492-.1.364.364,0,0,0,.165-.38.6.6,0,0,0-.266-.356,1.443,1.443,0,0,0-.771-.223C219.84,197.516,219.542,197.577,219.54,197.548Z" transform="translate(-212.551 -178.508)" fill="#eb996e"/>
      <path id="Path_1003" data-name="Path 1003" d="M221.922,201.89s.053,0,.109.082a.425.425,0,0,1,.051.377.646.646,0,0,1-.409.383,2.232,2.232,0,0,1-.659.088c-.917.043-1.643.221-1.653.181a4.625,4.625,0,0,1,1.645-.319,2.453,2.453,0,0,0,.625-.069.579.579,0,0,0,.362-.3.4.4,0,0,0,0-.314C221.938,201.919,221.9,201.9,221.922,201.89Z" transform="translate(-213.124 -181.787)" fill="#eb996e"/>
      <path id="Path_1004" data-name="Path 1004" d="M232.961,202.836a.912.912,0,0,1-.383.149,2.855,2.855,0,0,1-.994.045,2.824,2.824,0,0,1-.946-.306c-.223-.122-.34-.231-.33-.245a3.91,3.91,0,0,0,2.658.356Z" transform="translate(-221.162 -182.22)" fill="#eb996e"/>
      <path id="Path_1005" data-name="Path 1005" d="M228.886,198.421c.019-.035.207.032.441,0s.4-.13.428-.1-.133.207-.412.237S228.864,198.45,228.886,198.421Z" transform="translate(-220.117 -179.164)" fill="#eb996e"/>
      <path id="Path_1006" data-name="Path 1006" d="M228.11,206.645a1.063,1.063,0,0,1,.4-.734,1.1,1.1,0,0,1,.758-.351,6.032,6.032,0,0,0-.662.452A5.71,5.71,0,0,0,228.11,206.645Z" transform="translate(-219.548 -184.482)" fill="#eb996e"/>
      <path id="Path_1007" data-name="Path 1007" d="M198.157,238.4H209.7l2.142,16.884H195.9Z" transform="translate(-195.9 -208.592)" fill="#076aff"/>
      <path id="Path_1008" data-name="Path 1008" d="M247.82,238.4h1.337l3.939,16.884h-3.134Z" transform="translate(-234.019 -208.592)" fill="#076aff"/>
      <path id="Path_1009" data-name="Path 1009" d="M247.82,238.4h1.337l3.939,16.884h-3.134Z" transform="translate(-234.019 -208.592)" opacity="0.3"/>
      <path id="Path_1010" data-name="Path 1010" d="M221.179,205.347a.126.126,0,0,1,.093,0,.343.343,0,0,1,.2.157.428.428,0,0,1,.037.383.643.643,0,0,1-.314.343,1.311,1.311,0,0,1-.585.114l.051-.035c-.152.29-.332.42-.346.4s.12-.173.239-.452l.013-.029h.037a1.4,1.4,0,0,0,.532-.122.532.532,0,0,0,.266-.266.343.343,0,0,0,0-.29C221.312,205.382,221.173,205.368,221.179,205.347Z" transform="translate(-213.826 -184.319)" fill="#eb996e"/>
      <path id="Path_1011" data-name="Path 1011" d="M215.419,217.529a1.738,1.738,0,0,1,.027-.343c.024-.218.069-.532.133-.925.125-.779.338-1.861.585-3.025s.476-2.241.627-3.014c.069-.367.13-.673.175-.917a1.636,1.636,0,0,1,.08-.335,1.722,1.722,0,0,1-.027.343c-.024.221-.069.532-.133.925-.125.779-.338,1.861-.587,3.028s-.473,2.241-.625,3.014c-.069.364-.13.673-.175.914A1.515,1.515,0,0,1,215.419,217.529Z" transform="translate(-210.23 -186.985)" fill="#076aff"/>
      <path id="Path_1012" data-name="Path 1012" d="M231.177,214.065a2.575,2.575,0,0,1-.128-.388c-.077-.266-.178-.638-.3-1.063-.247-.906-.577-2.161-.936-3.549s-.673-2.658-.9-3.562c-.1-.439-.189-.8-.266-1.082a2.224,2.224,0,0,1-.074-.4,2.581,2.581,0,0,1,.128.388c.077.266.178.638.3,1.063.247.906.577,2.161.936,3.551s.673,2.645.893,3.557l.266,1.085A2.227,2.227,0,0,1,231.177,214.065Z" transform="translate(-219.893 -183.351)" fill="#076aff"/>
      <path id="Path_1013" data-name="Path 1013" d="M259.014,297.06a2.95,2.95,0,0,1-.556-.388c-.332-.253-.8-.611-1.281-1.013l-.25-.2.1-.016c-.311.468-.59.88-.8,1.17a2.451,2.451,0,0,1-.351.452,2.76,2.76,0,0,1,.266-.5c.183-.3.449-.723.758-1.194l.04-.064.061.048.25.2c.494.4.938.774,1.255,1.047A3.458,3.458,0,0,1,259.014,297.06Z" transform="translate(-239.937 -250.368)" fill="#263238"/>
      <path id="Path_1014" data-name="Path 1014" d="M250.455,238.4c.037,0,.635,3.4,1.329,7.6s1.236,7.618,1.2,7.623-.635-3.4-1.329-7.6S250.418,238.405,250.455,238.4Z" transform="translate(-235.952 -208.592)" fill="#263238"/>
      <path id="Path_1015" data-name="Path 1015" d="M213.54,249.864a3.073,3.073,0,0,1-.266.266,4.814,4.814,0,0,1-.88.6,5.26,5.26,0,0,1-1.595.548,4.745,4.745,0,0,1-2.222-.13,2.719,2.719,0,0,1-1.116-.68,2.1,2.1,0,0,1-.609-1.276,1.659,1.659,0,0,1,.577-1.39,1.3,1.3,0,0,1,.747-.311,1.536,1.536,0,0,1,.816.17,1.935,1.935,0,0,1,.651.532,2.185,2.185,0,0,1,.375.8,3.87,3.87,0,0,1,0,1.762,5.968,5.968,0,0,1-1.813,3.19,5.409,5.409,0,0,1-1.595,1.015,3.913,3.913,0,0,1-1.8.308,3.07,3.07,0,0,1-1.645-.638,2.318,2.318,0,0,1-.877-1.435,2.172,2.172,0,0,1,.308-1.574,1.489,1.489,0,0,1,1.316-.71.954.954,0,0,1,.651.351,1.42,1.42,0,0,1,.3.617,2.318,2.318,0,0,1-.152,1.3,3.474,3.474,0,0,1-1.481,1.648,5.256,5.256,0,0,1-1.595.574,8.244,8.244,0,0,1-1.063.133c-.12,0-.213.013-.266.013h0l.266-.027a9.315,9.315,0,0,0,1.05-.16,5.231,5.231,0,0,0,1.555-.587,3.4,3.4,0,0,0,1.43-1.619,2.222,2.222,0,0,0,.138-1.241,1.35,1.35,0,0,0-.266-.593.848.848,0,0,0-.577-.308,1.364,1.364,0,0,0-1.2.665,2.044,2.044,0,0,0-.287,1.483,2.182,2.182,0,0,0,.835,1.353,2.948,2.948,0,0,0,1.574.606,4.515,4.515,0,0,0,3.277-1.292,5.832,5.832,0,0,0,1.773-3.1,3.721,3.721,0,0,0,0-1.7,2.054,2.054,0,0,0-.346-.739,1.84,1.84,0,0,0-.609-.51,1.422,1.422,0,0,0-.747-.157,1.2,1.2,0,0,0-.68.266,1.536,1.536,0,0,0-.532,1.287,2,2,0,0,0,.572,1.212,2.6,2.6,0,0,0,1.063.662,4.678,4.678,0,0,0,2.18.146,5.382,5.382,0,0,0,1.582-.518,5.159,5.159,0,0,0,.888-.574c.1-.072.162-.136.213-.175A.324.324,0,0,1,213.54,249.864Z" transform="translate(-199.064 -215.263)" fill="#fff"/>
      <path id="Path_1016" data-name="Path 1016" d="M289.305,194.4h-2.081c-.67.237-6.074,4.832-6.074,4.832l3.054,4.8,3.961-2.315Z" transform="translate(-258.49 -176.288)" fill="#455a64"/>
      <path id="Path_1017" data-name="Path 1017" d="M295.681,187.822l4.6-1.746A2.455,2.455,0,0,0,303,187.184a15,15,0,0,0,4.463-1.744s3.525,2.012,4.567,2.852-.84,18.426-.84,18.426l-.47,5.271s.369.266.369,1.175.035,1.51.035,1.51H292.9a7.685,7.685,0,0,1-.109-2.953,10.737,10.737,0,0,1,.89-1.677l.284-8.123.1-7.251Z" transform="translate(-266.947 -169.71)" fill="#455a64"/>
      <path id="Path_1018" data-name="Path 1018" d="M349.069,196.17a3.136,3.136,0,0,1,1.906,2.594c.436,2.18.354,10.5.354,10.5l-8.208-1.778s1.111-3.493,1.111-3.721,2.259-5.866,2.339-5.986S349.069,196.17,349.069,196.17Z" transform="translate(-303.987 -177.588)" fill="#455a64"/>
      <path id="Path_1019" data-name="Path 1019" d="M297.319,207.28c.037,0,.09,1.454.117,3.251s.016,3.251-.021,3.251-.09-1.454-.117-3.248S297.279,207.28,297.319,207.28Z" transform="translate(-270.333 -185.745)" fill="#263238"/>
      <path id="Path_1020" data-name="Path 1020" d="M345.989,210.22a1.106,1.106,0,0,1-.032.287c-.027.186-.074.452-.138.779-.13.654-.33,1.555-.59,2.539s-.532,1.861-.736,2.5c-.106.316-.194.572-.266.747a1.063,1.063,0,0,1-.117.266,1.3,1.3,0,0,1,.066-.282c.058-.21.13-.462.218-.76.186-.638.439-1.523.7-2.507s.473-1.877.627-2.525l.183-.768A.983.983,0,0,1,345.989,210.22Z" transform="translate(-304.714 -187.903)" fill="#263238"/>
      <path id="Path_1021" data-name="Path 1021" d="M347.719,209.55a10.413,10.413,0,0,1-.019,1.677,10.568,10.568,0,0,1-.157,1.667,9.7,9.7,0,0,1,.019-1.675,10.307,10.307,0,0,1,.157-1.669Z" transform="translate(-307.215 -187.411)" fill="#263238"/>
      <path id="Path_1022" data-name="Path 1022" d="M330.845,219.684a22.5,22.5,0,0,1-3.525,0,22.51,22.51,0,0,1,3.525,0Z" transform="translate(-292.387 -194.794)" fill="#fff"/>
      <path id="Path_1023" data-name="Path 1023" d="M302.973,245.955l9.083-1.092,1.433-5.752,5.08,1.1s-2.01,7.974-4.08,8.756-12.318-.532-12.318-.532Z" transform="translate(-273.922 -209.114)" fill="#ffbe9d"/>
      <path id="Path_1024" data-name="Path 1024" d="M279.447,263.142a10.924,10.924,0,0,0-1.515-.513c-.42-.061-.917.032-1.042.234l-2.44,1.422s-1.81-.173-1.983.234c0,0-1.156-.33-1.342-.1,0,0-.579.189-.484.455a9.532,9.532,0,0,0,2.185,1l2.863.292a6.977,6.977,0,0,1,1.544-.641,7.824,7.824,0,0,1,1.3.1c-.037,0,1.675.194,1.675.194a2.708,2.708,0,0,0,.489-1.406c.141-1.031,0-1.247,0-1.247Z" transform="translate(-250.766 -226.367)" fill="#ffbe9d"/>
      <path id="Path_1025" data-name="Path 1025" d="M295.228,264.322a.349.349,0,0,1-.178-.069c-.1-.069-.189-.242-.348-.351a.93.93,0,0,0-.314-.1.713.713,0,0,1-.391-.173.7.7,0,0,1-.213-.431.611.611,0,0,1,.154-.494.994.994,0,0,1,.912-.25,1.6,1.6,0,0,1,.686.351,3.325,3.325,0,0,1,.364.362c.077.09.114.144.109.152s-.2-.181-.532-.436a1.626,1.626,0,0,0-.651-.3.885.885,0,0,0-.8.221.553.553,0,0,0,.045.739c.173.181.473.13.673.266s.242.316.33.393S295.233,264.312,295.228,264.322Z" transform="translate(-267.762 -226.237)" fill="#eb996e"/>
      <path id="Path_1026" data-name="Path 1026" d="M287.062,267.693c0,.021-.138.013-.332.1a5.022,5.022,0,0,1-.784.372,2.265,2.265,0,0,1-.875-.069,3.042,3.042,0,0,1-.351-.051.577.577,0,0,1,.362-.045,3.1,3.1,0,0,0,.832.029c.3-.077.561-.266.8-.327S287.067,267.677,287.062,267.693Z" transform="translate(-261.111 -230.081)" fill="#eb996e"/>
      <path id="Path_1027" data-name="Path 1027" d="M281.462,270.552a.572.572,0,0,1-.167.106,2.424,2.424,0,0,1-.5.194,4.936,4.936,0,0,1-1.765.1c-.34-.043-.665-.1-.96-.138a2.961,2.961,0,0,1-.784-.175.5.5,0,0,1-.234-.226.41.41,0,0,1-.035-.242c.029-.141.117-.173.117-.165a.3.3,0,0,0-.064.17.388.388,0,0,0,.266.375,3.47,3.47,0,0,0,.76.136l.954.128a5.558,5.558,0,0,0,1.728-.058C281.2,270.661,281.452,270.536,281.462,270.552Z" transform="translate(-255.45 -231.797)" fill="#eb996e"/>
      <path id="Path_1028" data-name="Path 1028" d="M341.065,263.675a10.148,10.148,0,0,0-.59-1.135,10.338,10.338,0,0,0-.835-.97,2.427,2.427,0,0,1,.949.893A2.392,2.392,0,0,1,341.065,263.675Z" transform="translate(-301.432 -225.604)" fill="#eb996e"/>
    </g>
    <g id="freepik--character-1--inject-3" transform="translate(30.748 63.799)">
      <path id="Path_1029" data-name="Path 1029" d="M89.248,379.9,88.9,397.646l4.3.46,2.953-18.067-2.321-2.919Z" transform="translate(-74.902 -309.466)" fill="#ffbe9d"/>
      <path id="Path_1030" data-name="Path 1030" d="M93.732,452.329v.29s4.891,2.031,4.931,2.961l-9.753-.162V452.17A6.013,6.013,0,0,0,93.732,452.329Z" transform="translate(-74.91 -364.567)" fill="#076aff"/>
      <path id="Path_1031" data-name="Path 1031" d="M88.9,462.239l.045-.779,9.333.441s.431.2.375.5Z" transform="translate(-74.902 -371.388)" fill="#263238"/>
      <path id="Path_1032" data-name="Path 1032" d="M69.829,178.393A2.152,2.152,0,0,0,68.5,176.5l-.9.516a2.166,2.166,0,0,0-1.085,2.632,2.565,2.565,0,0,0-.821,3.519,1.71,1.71,0,0,0-.824,1.627c.011.643.218,1.268.266,1.909.045.494,0,1,.09,1.486a1.52,1.52,0,0,0,.819,1.172,1.329,1.329,0,0,0,1.414-.4,2.756,2.756,0,0,0,.593-1.425c.242-1.486-.074-3.036.3-4.495a14.638,14.638,0,0,1,.938-2.27A4.94,4.94,0,0,0,69.829,178.393Z" transform="translate(-57.259 -162.173)" fill="#263238"/>
      <path id="Path_1033" data-name="Path 1033" d="M74.044,170.079a2.865,2.865,0,0,1-2.392-4.41.736.736,0,0,1,.327-.316c.3-.12.617.125.848.354l1.683,1.637" transform="translate(-61.907 -153.966)" fill="#263238"/>
      <path id="Path_1034" data-name="Path 1034" d="M74.444,149.331a5.413,5.413,0,0,1-2.624-3.363,13.726,13.726,0,0,1,.417-5.425c.444-1.643,1.127.47,1.685.643a1.085,1.085,0,0,1,.665.75,3.171,3.171,0,0,1,.077,1.039q-.112,3.19-.221,6.356" transform="translate(-62.259 -135.318)" fill="#263238"/>
      <path id="Path_1035" data-name="Path 1035" d="M90.464,123.247a4.135,4.135,0,0,1,4.63.178,5.1,5.1,0,0,1,1.624,2.629c.3,1,.433,2.044.678,3.062a12.579,12.579,0,0,1,.327,1.781,6.117,6.117,0,0,1-.364,3.19,5.21,5.21,0,0,1-1.595,1.839,1.056,1.056,0,0,1-.845.25,1.018,1.018,0,0,1-.478-.439,40.738,40.738,0,0,1-5.34-10.675" transform="translate(-75.049 -122.625)" fill="#263238"/>
      <path id="Path_1036" data-name="Path 1036" d="M82.715,130.045l3.658-1.475.96.106c2.153,0,3.65,2.366,3.674,4.112a31.179,31.179,0,0,1-.322,5.736,3.617,3.617,0,0,1-2.847,3.134s.027.784.048,1.749a3.041,3.041,0,0,1-3.1,3.115h0A3.041,3.041,0,0,1,81.8,143.49l-.048-12.459a1.021,1.021,0,0,1,.965-.986Z" transform="translate(-69.653 -126.984)" fill="#ffbe9d"/>
      <path id="Path_1037" data-name="Path 1037" d="M111,150.676a.372.372,0,0,1-.377.356.356.356,0,0,1-.367-.354.375.375,0,0,1,.377-.359.359.359,0,0,1,.367.356Z" transform="translate(-90.585 -142.952)" fill="#263238"/>
      <path id="Path_1038" data-name="Path 1038" d="M109.612,146.973c-.048.045-.319-.175-.718-.194s-.7.165-.747.114.032-.109.165-.194a1.015,1.015,0,0,1,.6-.154.994.994,0,0,1,.572.218C109.6,146.864,109.635,146.952,109.612,146.973Z" transform="translate(-89.024 -140.18)" fill="#263238"/>
      <path id="Path_1039" data-name="Path 1039" d="M104.434,150.7a2.777,2.777,0,0,1,.657-.085c.1,0,.2-.019.221-.088a.545.545,0,0,0-.053-.308c-.082-.25-.17-.516-.266-.8a13.515,13.515,0,0,1-.577-2.068,13.481,13.481,0,0,1,.742,2.018c.088.266.17.532.25.8a.585.585,0,0,1,.035.4.266.266,0,0,1-.175.144.7.7,0,0,1-.175.013A2.491,2.491,0,0,1,104.434,150.7Z" transform="translate(-86.29 -140.771)" fill="#263238"/>
      <path id="Path_1040" data-name="Path 1040" d="M94.07,174.411a7.4,7.4,0,0,1-3.83-1.231,3.881,3.881,0,0,0,3.849,1.935Z" transform="translate(-75.886 -159.736)" fill="#eb996e"/>
      <path id="Path_1041" data-name="Path 1041" d="M100.2,162.258a.726.726,0,0,0-.646-.34.574.574,0,0,0-.468.223.51.51,0,0,0-.029.545.532.532,0,0,0,.545.213,1.329,1.329,0,0,0,.532-.287.436.436,0,0,0,.12-.122.319.319,0,0,0-.053-.231Z" transform="translate(-82.314 -151.467)" fill="#eb996e"/>
      <path id="Path_1042" data-name="Path 1042" d="M99.787,160.76c.064,0,.045.433.4.76s.819.3.821.364-.109.08-.3.074a1.085,1.085,0,0,1-.688-.279.946.946,0,0,1-.308-.635C99.71,160.861,99.763,160.757,99.787,160.76Z" transform="translate(-82.839 -150.617)" fill="#263238"/>
      <path id="Path_1043" data-name="Path 1043" d="M109.724,142.758c-.074.088-.346-.019-.678-.04s-.614.029-.675-.069c-.027-.048.024-.136.149-.215a.981.981,0,0,1,1.09.088C109.724,142.607,109.756,142.7,109.724,142.758Z" transform="translate(-89.193 -137.071)" fill="#263238"/>
      <path id="Path_1044" data-name="Path 1044" d="M96.43,150.655a.369.369,0,0,0,.354.38.356.356,0,0,0,.388-.33.372.372,0,0,0-.354-.38.354.354,0,0,0-.388.33Z" transform="translate(-80.43 -142.955)" fill="#263238"/>
      <path id="Path_1045" data-name="Path 1045" d="M93.592,146.95c.045.051.33-.154.731-.149s.691.21.734.162-.024-.109-.149-.2a1,1,0,0,0-.59-.189.989.989,0,0,0-.582.178C93.611,146.835,93.568,146.923,93.592,146.95Z" transform="translate(-78.343 -140.199)" fill="#263238"/>
      <path id="Path_1046" data-name="Path 1046" d="M94.235,142.085c.069.09.348,0,.68,0s.611.069.678-.027c.029-.045-.016-.136-.136-.223a.933.933,0,0,0-.55-.157.96.96,0,0,0-.545.175C94.245,141.947,94.205,142.029,94.235,142.085Z" transform="translate(-78.812 -136.607)" fill="#263238"/>
      <path id="Path_1047" data-name="Path 1047" d="M84.646,126.827a3.556,3.556,0,0,0-3.139.356,4.1,4.1,0,0,0-1.473,2.531,8.908,8.908,0,0,0,.319,3.4c1.5-1.932,3.044-4.16,4.49-6.132Z" transform="translate(-68.346 -125.549)" fill="#263238"/>
      <path id="Path_1048" data-name="Path 1048" d="M98.473,123.979c5.082-.718,4.612,6.967,4.612,6.967h0c-.508-2.831-4.447-5.792-4.447-5.792l-.8-.136Z" transform="translate(-81.466 -123.579)" fill="#263238"/>
      <path id="Path_1049" data-name="Path 1049" d="M77.127,153.973c0-.215-.213-.736-.425-.781-.566-.117-1.595-.122-1.675,1.329a1.487,1.487,0,0,0,1.9,1.624C76.936,156.088,77.092,154.719,77.127,153.973Z" transform="translate(-64.714 -145.026)" fill="#ffbe9d"/>
      <path id="Path_1050" data-name="Path 1050" d="M78.7,157.083a.647.647,0,0,1-.1.048.351.351,0,0,1-.266,0,.853.853,0,0,1-.351-.8,1.135,1.135,0,0,1,.125-.486.4.4,0,0,1,.266-.25.173.173,0,0,1,.2.106c.024.056,0,.1.019.1s.045-.029.035-.112a.239.239,0,0,0-.072-.13.266.266,0,0,0-.186-.061.484.484,0,0,0-.377.287,1.154,1.154,0,0,0-.152.532.907.907,0,0,0,.455.88.356.356,0,0,0,.316-.035C78.68,157.131,78.7,157.088,78.7,157.083Z" transform="translate(-66.782 -146.754)" fill="#eb996e"/>
      <path id="Path_1051" data-name="Path 1051" d="M73.065,126.823a7.129,7.129,0,0,1,2.719-3.293,4.822,4.822,0,0,1,2.126-.9,2.445,2.445,0,0,1,2.126.712l.141.144a41.692,41.692,0,0,1-2.613,5.38,14.292,14.292,0,0,0-.691,3.692,5.831,5.831,0,0,1-1.789,3.777C71.949,136.339,72.56,128.178,73.065,126.823Z" transform="translate(-62.975 -122.602)" fill="#263238"/>
      <path id="Path_1052" data-name="Path 1052" d="M75.007,167.7a.864.864,0,0,1-.391-.122,2.674,2.674,0,0,1-.8-.6,2.565,2.565,0,0,1-.532-.84.869.869,0,0,1-.088-.4,5.157,5.157,0,0,0,.707,1.146A5.05,5.05,0,0,0,75.007,167.7Z" transform="translate(-63.375 -154.273)" fill="#455a64"/>
      <path id="Path_1053" data-name="Path 1053" d="M74.879,180.012a1.518,1.518,0,0,1-1.329-1,8.239,8.239,0,0,0,.6.59A7.133,7.133,0,0,0,74.879,180.012Z" transform="translate(-63.633 -164.016)" fill="#455a64"/>
      <path id="Path_1054" data-name="Path 1054" d="M71.65,189.209c-.029.024-.21-.175-.4-.444s-.322-.505-.29-.532.21.175.4.444S71.682,189.188,71.65,189.209Z" transform="translate(-61.725 -170.786)" fill="#455a64"/>
      <path id="Path_1055" data-name="Path 1055" d="M68.3,201.515c-.029.024-.167-.088-.311-.253s-.237-.316-.207-.343.167.088.311.253S68.333,201.488,68.3,201.515Z" transform="translate(-59.396 -180.099)" fill="#455a64"/>
      <path id="Path_1056" data-name="Path 1056" d="M72,132.785a2.975,2.975,0,0,1,.375-.218,4.5,4.5,0,0,0,.439-.266c.173-.12.367-.21.569-.354a13.624,13.624,0,0,0,1.393-1.045,13.461,13.461,0,0,0,2.754-3.235,13.824,13.824,0,0,0,.811-1.542c.109-.223.183-.433.266-.617a4.983,4.983,0,0,0,.178-.476,2.637,2.637,0,0,1,.157-.4,2.769,2.769,0,0,1-.106.423,4.949,4.949,0,0,1-.157.484c-.066.186-.136.4-.239.63a12.6,12.6,0,0,1-.8,1.568A12.856,12.856,0,0,1,74.86,131a12.645,12.645,0,0,1-1.422,1.029c-.207.138-.409.242-.582.34s-.327.173-.455.231A2.705,2.705,0,0,1,72,132.785Z" transform="translate(-62.495 -124.091)" fill="#455a64"/>
      <path id="Path_1057" data-name="Path 1057" d="M76.328,146.4a1.6,1.6,0,0,1-.144.189c-.1.114-.266.266-.452.463a9.668,9.668,0,0,1-3.647,2.166,6.378,6.378,0,0,1-.622.173.9.9,0,0,1-.234.037,8.324,8.324,0,0,1,.824-.3,12.248,12.248,0,0,0,1.9-.9,12.109,12.109,0,0,0,1.712-1.231A8.121,8.121,0,0,1,76.328,146.4Z" transform="translate(-61.929 -140.072)" fill="#455a64"/>
      <path id="Path_1058" data-name="Path 1058" d="M104.144,132.039a3.453,3.453,0,0,1,.082-.433,7.244,7.244,0,0,0,.13-1.186A6.89,6.89,0,0,0,100.588,124a7.2,7.2,0,0,0-1.1-.463,3.642,3.642,0,0,1-.417-.141.611.611,0,0,1,.114.016c.074.016.181.032.319.072a6.22,6.22,0,0,1,1.127.428,6.791,6.791,0,0,1,3.825,6.507,6.23,6.23,0,0,1-.175,1.193c-.032.138-.072.245-.093.316a.409.409,0,0,1-.043.106Z" transform="translate(-82.369 -123.188)" fill="#455a64"/>
      <path id="Path_1059" data-name="Path 1059" d="M206.418,223.5a.635.635,0,0,0-.088.617,1,1,0,0,0,.393.4,3.455,3.455,0,0,0,.654-.936" transform="translate(-161.087 -196.68)" fill="#eb996e"/>
      <path id="Path_1060" data-name="Path 1060" d="M201.767,222.23a.641.641,0,0,0-.239.577.986.986,0,0,0,.282.486,3.506,3.506,0,0,0,.867-.742" transform="translate(-157.589 -195.748)" fill="#eb996e"/>
      <path id="Path_1061" data-name="Path 1061" d="M103.82,189.26s8.743,6.879,10.319,7.105,8.95-.67,11.977-.763l.428,2.539s-8.354,2.836-11.393,2.948a11.2,11.2,0,0,1-4.785-.707l-5.68-5.819Z" transform="translate(-85.856 -171.542)" fill="#ffbe9d"/>
      <path id="Path_1062" data-name="Path 1062" d="M187,212.27s3.9-.558,4.519-.253a22.245,22.245,0,0,1,2.35,1.776s.582,1.635.215,1.712-.744-.532-.744-.532l-.508-.9-2.182-.532-3.618.322Z" transform="translate(-146.926 -188.183)" fill="#ffbe9d"/>
      <path id="Path_1063" data-name="Path 1063" d="M185.749,218.346a5.788,5.788,0,0,0,2.161.723c.71-.019,1.52-.574,2.126-.489s1.877.183,2.031-.037a.481.481,0,0,0,0-.67,9.1,9.1,0,0,0-1.97-.59,2.956,2.956,0,0,1-1.1-.5l-4.3.473-.245,1.329Z" transform="translate(-145.061 -191.746)" fill="#ffbe9d"/>
      <path id="Path_1064" data-name="Path 1064" d="M196.3,216.561a.848.848,0,0,1,.226-.016,3.313,3.313,0,0,1,.609.074,17.036,17.036,0,0,1,1.919.609,5.926,5.926,0,0,0,1.063.25.9.9,0,0,1,.476.183.532.532,0,0,1,.159.425.476.476,0,0,1-.178.327.5.5,0,0,1-.266.1c-.154,0-.226-.048-.223-.053a1.2,1.2,0,0,0,.218,0,.417.417,0,0,0,.346-.38.407.407,0,0,0-.138-.33.813.813,0,0,0-.417-.146,5.354,5.354,0,0,1-1.087-.245c-.75-.25-1.4-.532-1.9-.643S196.3,216.588,196.3,216.561Z" transform="translate(-153.754 -191.573)" fill="#eb996e"/>
      <path id="Path_1065" data-name="Path 1065" d="M203.871,217.311a1.249,1.249,0,0,1-.633-.319,1.375,1.375,0,0,1-.457-.532c.029,0,.247.2.532.431S203.9,217.273,203.871,217.311Z" transform="translate(-158.51 -191.512)" fill="#eb996e"/>
      <path id="Path_1066" data-name="Path 1066" d="M53.594,383.914l-7.924,3.527.954,4.232s9.963-2.972,13.221-3.631,8.541-1.5,10.032-4.662Z" transform="translate(-43.163 -314.062)" fill="#ffbe9d"/>
      <path id="Path_1067" data-name="Path 1067" d="M40.49,402.058l-.266.074s-.638,5.194-1.515,5.481l-2.43-9.33,3.094-.864a5.952,5.952,0,0,0,1.116,4.638Z" transform="translate(-36.269 -324.37)" fill="#076aff"/>
      <path id="Path_1068" data-name="Path 1068" d="M36.24,400.215l.755-.165,2.052,9s-.072.463-.377.492Z" transform="translate(-36.24 -326.301)" fill="#263238"/>
      <path id="Path_1069" data-name="Path 1069" d="M77.058,383.84a1.064,1.064,0,0,1-.082.223,2.7,2.7,0,0,1-.38.566,8.83,8.83,0,0,1-1.956,1.558,9.039,9.039,0,0,1-1.568.736,17.385,17.385,0,0,1-1.911.532c-1.35.34-2.834.728-4.389,1.14L58.8,390.7l-2.414.627-.659.159a1.377,1.377,0,0,1-.234.045,1.661,1.661,0,0,1,.226-.074l.654-.181,2.408-.659c2.036-.553,4.846-1.329,7.958-2.142,1.555-.412,3.038-.8,4.394-1.132a17.78,17.78,0,0,0,1.9-.532,9.218,9.218,0,0,0,3.522-2.22A2.988,2.988,0,0,0,77.058,383.84Z" transform="translate(-50.373 -314.4)" fill="#eb996e"/>
      <path id="Path_1070" data-name="Path 1070" d="M78.7,253.335l.181,1.56s-2.746,5.186-2.746,7.974-1.265,24.936-1.265,24.936,14.885.848,16.456-.606l1.574-1.451,5.316-1.451-8.307-30.3V252.37Z" transform="translate(-64.602 -217.876)" fill="#263238"/>
      <path id="Path_1071" data-name="Path 1071" d="M127.568,284.24a.216.216,0,0,1,.016.064l.029.181c.024.17.056.4.1.7.088.619.21,1.5.361,2.573.308,2.172.771,5.165,1.369,8.458s1.215,6.26,1.688,8.4c.237,1.063.428,1.924.566,2.536l.152.691c.013.072.027.13.035.178a.2.2,0,0,1,0,.064.266.266,0,0,1-.021-.058l-.048-.178c-.045-.167-.1-.4-.178-.683-.152-.6-.362-1.457-.609-2.528-.5-2.126-1.13-5.1-1.73-8.4s-1.042-6.294-1.329-8.469c-.144-1.087-.25-1.97-.316-2.581-.032-.3-.056-.532-.074-.7a.627.627,0,0,0-.016-.183A.207.207,0,0,1,127.568,284.24Z" transform="translate(-103.286 -241.275)" fill="#455a64"/>
      <path id="Path_1072" data-name="Path 1072" d="M87.37,294.68a.992.992,0,0,1,.064.175q.056.2.152.51c.133.46.319,1.1.548,1.877.47,1.582,1.151,3.756,1.98,6.132s1.659,4.5,2.278,6.031c.308.752.561,1.366.742,1.81l.2.492a1.486,1.486,0,0,1,.061.175.768.768,0,0,1-.088-.165l-.223-.481c-.191-.42-.46-1.031-.781-1.794-.643-1.52-1.483-3.642-2.318-6.021s-1.5-4.564-1.943-6.154c-.223-.8-.4-1.441-.508-1.89-.053-.213-.093-.383-.125-.516A1.118,1.118,0,0,1,87.37,294.68Z" transform="translate(-73.779 -248.94)" fill="#455a64"/>
      <path id="Path_1073" data-name="Path 1073" d="M101.849,261.168a2.515,2.515,0,0,1-.447.053c-.287.029-.7.059-1.223.09-1.031.061-2.461.117-4.038.125s-3.009-.04-4.043-.093c-.516-.027-.933-.053-1.223-.077a2.515,2.515,0,0,1-.447-.053,3.459,3.459,0,0,1,.449,0l1.225.035c1.031.029,2.459.058,4.035.053s3-.048,4.038-.085l1.223-.045A2.774,2.774,0,0,1,101.849,261.168Z" transform="translate(-76.026 -224.33)" fill="#455a64"/>
      <path id="Path_1074" data-name="Path 1074" d="M79.551,184.282c-.072-.167,5.279,4.1,5.952,6.177s.8,8.075.8,8.075l.375,3.849-10.694.755-.287-.755-.8-2.145L73.8,197a37.819,37.819,0,0,1-3.158-5.848,6.934,6.934,0,0,1,.428-4.428L73.49,184Z" transform="translate(-61.348 -167.68)" fill="#076aff"/>
      <path id="Path_1075" data-name="Path 1075" d="M80.972,179.946s-.593-1.1-.229-1.579c.292-.38,5.436.1,6.486.319.617.133,0,1.507,0,1.507Z" transform="translate(-68.827 -163.44)" fill="#076aff"/>
      <g id="Group_26" data-name="Group 26" transform="translate(12.618 21.69)" opacity="0.3">
        <path id="Path_1076" data-name="Path 1076" d="M86.316,204.2c.449,1.162-.186,4.763-.282,5.619a14.667,14.667,0,0,1-.59,2.517,1.371,1.371,0,0,0,0,1.164c.351.532,1.255.388,1.693.867a4.213,4.213,0,0,1-2.632.3.718.718,0,0,1-.417-.2.758.758,0,0,1-.128-.338,10.01,10.01,0,0,1-.125-3.833c.231-1.263,1.438-4.293,2.453-5.09" transform="translate(-83.708 -204.2)"/>
      </g>
      <path id="Path_1077" data-name="Path 1077" d="M90.459,210.189a3.506,3.506,0,0,1-.516,1.233,3.344,3.344,0,0,1-.848,1.031c-.029-.027.356-.478.731-1.1S90.419,210.173,90.459,210.189Z" transform="translate(-75.045 -186.907)" fill="#263238"/>
      <path id="Path_1078" data-name="Path 1078" d="M87.952,184.27a.8.8,0,0,1-.245.069c-.159.035-.391.074-.68.114a12.636,12.636,0,0,1-4.516-.218c-.284-.066-.51-.13-.665-.181a.829.829,0,0,1-.237-.093c0-.021.354.069.922.178a16.1,16.1,0,0,0,2.238.266,16.421,16.421,0,0,0,2.257-.051C87.593,184.3,87.947,184.248,87.952,184.27Z" transform="translate(-69.55 -167.649)" fill="#263238"/>
      <path id="Path_1079" data-name="Path 1079" d="M117.138,209.978c-.024,0,.069-.3.141-.771a5.768,5.768,0,0,0-.643-3.628c-.231-.423-.417-.659-.4-.675s.061.051.149.154a3.543,3.543,0,0,1,.335.473,5.247,5.247,0,0,1,.657,3.695,3.7,3.7,0,0,1-.154.558A.641.641,0,0,1,117.138,209.978Z" transform="translate(-94.971 -183.025)" fill="#263238"/>
      <g id="Group_27" data-name="Group 27" transform="translate(12.429 16.427)" opacity="0.3">
        <path id="Path_1080" data-name="Path 1080" d="M85.658,184.777A18.531,18.531,0,0,1,83,184.4a7.055,7.055,0,0,0,4.088.821,2.159,2.159,0,0,0,1.4-.6A7.061,7.061,0,0,1,85.658,184.777Z" transform="translate(-83 -184.4)"/>
      </g>
      <g id="Group_28" data-name="Group 28" transform="translate(21.116 24.356)" opacity="0.3">
        <path id="Path_1081" data-name="Path 1081" d="M115.68,218.05a4.694,4.694,0,0,0,1.247-3.82,5.316,5.316,0,0,1,.2,1.388,2.344,2.344,0,0,1-.375,1.536,1.9,1.9,0,0,1-1.063.9" transform="translate(-115.68 -214.23)"/>
      </g>
      <path id="Path_1082" data-name="Path 1082" d="M72.409,193.654a2.658,2.658,0,0,0-3.8.356c-.037.048-.074.1-.109.152-.556.832-2.087,13.79-1.475,15.343s1.5,1.443,1.5,1.443a39.268,39.268,0,0,0,6.893-.712c2.884-.667,6.1-1.757,6.1-1.757l-.532-3.139s-7.06.936-9,.715h0l.742-6.31s1.688-2.055,1.2-3.939A4.433,4.433,0,0,0,72.409,193.654Z" transform="translate(-58.741 -174.301)" fill="#ffbe9d"/>
      <path id="Path_1083" data-name="Path 1083" d="M128.29,226.525l1.595-1.063,1.14-.962a1.289,1.289,0,0,1-.215,1.013c-.354.532-.949,1.329-.949,1.329Z" transform="translate(-103.822 -197.414)" fill="#ffbe9d"/>
      <path id="Path_1084" data-name="Path 1084" d="M127.643,225.574c-.013,0,.09-.122.2-.351a1.544,1.544,0,0,0,.1-1.015l.1.027-1.135.97h0l-.085.056-1,.667a9.406,9.406,0,0,1-.835.516,5.846,5.846,0,0,1-.8.415,5.727,5.727,0,0,1,.752-.5c.242-.141.513-.33.816-.532l.991-.673.085-.058h0l1.146-.954.077-.061.019.09a1.539,1.539,0,0,1-.154,1.082,1.352,1.352,0,0,1-.181.247C127.677,225.553,127.648,225.579,127.643,225.574Z" transform="translate(-100.812 -197.106)" fill="#eb996e"/>
      <path id="Path_1085" data-name="Path 1085" d="M126.13,225.488c.053-.106,4.221-4.75,5.25-5.9a.441.441,0,0,1,.532-.1h0a.444.444,0,0,1,.133.694l-5.338,5.936Z" transform="translate(-102.236 -193.703)" fill="#263238"/>
      <path id="Path_1086" data-name="Path 1086" d="M124,232.257c.173-.231-.082-.686-.319-.811s-1.18.4-1.18.4l-.34.032s-1.831-.372-1.893-.34a5.822,5.822,0,0,0-1.329.8,2.6,2.6,0,0,0-.473.577,1.98,1.98,0,0,1-1.279.758l.776,3.155s1.7-.4,1.831-.4,1.555-.114,1.744-.146a4.732,4.732,0,0,0,1.595-.736c.611-.455.327-.84.327-.84.63-.428.138-.853.138-.853l.178-.3a.543.543,0,0,0-.266-.747A4.609,4.609,0,0,0,124,232.257Z" transform="translate(-95.673 -202.5)" fill="#ffbe9d"/>
      <path id="Path_1087" data-name="Path 1087" d="M138.06,236.8a2.147,2.147,0,0,1,.415-.266,2.03,2.03,0,0,1,.425-.25c.027.016-.114.21-.359.359S138.071,236.836,138.06,236.8Z" transform="translate(-110.995 -206.067)" fill="#eb996e"/>
      <path id="Path_1088" data-name="Path 1088" d="M140.059,240.6c-.021-.029.043-.12.146-.2s.2-.13.226-.1-.043.117-.146.2S140.083,240.622,140.059,240.6Z" transform="translate(-112.459 -209.002)" fill="#eb996e"/>
      <path id="Path_1089" data-name="Path 1089" d="M139.37,243.56c0-.037.1-.074.226-.122s.229-.088.25-.061-.061.125-.2.181S139.37,243.594,139.37,243.56Z" transform="translate(-111.957 -211.267)" fill="#eb996e"/>
      <path id="Path_1090" data-name="Path 1090" d="M131.842,232.9a3.514,3.514,0,0,1-.962.136,6.53,6.53,0,0,1-.97.053,2.438,2.438,0,0,1,.96-.191A3.356,3.356,0,0,1,131.842,232.9Z" transform="translate(-105.011 -203.553)" fill="#eb996e"/>
      <path id="Path_1091" data-name="Path 1091" d="M82.2,241.84a9.525,9.525,0,0,1-1.52,1.728,5.114,5.114,0,0,1,.71-.909A4.986,4.986,0,0,1,82.2,241.84Z" transform="translate(-68.867 -210.145)" fill="#eb996e"/>
      <path id="Path_1092" data-name="Path 1092" d="M77.362,197.3s.019-.141.043-.393a3.474,3.474,0,0,0-.051-1.063,3.913,3.913,0,0,0-2.156-2.618,2.536,2.536,0,0,0-1.861-.12,2.087,2.087,0,0,0-1.215.928,3.474,3.474,0,0,0-.38,1,3.329,3.329,0,0,1-.093.385v-.1a1.8,1.8,0,0,1,.04-.292,3.23,3.23,0,0,1,.319-1.034,2.036,2.036,0,0,1,.489-.587,2.434,2.434,0,0,1,.771-.415,2.64,2.64,0,0,1,1.967.117,3.918,3.918,0,0,1,2.214,2.711,3.1,3.1,0,0,1,0,1.09,2.242,2.242,0,0,1-.064.292.306.306,0,0,1-.024.106Z" transform="translate(-62.238 -174.174)" fill="#263238"/>
    </g>
    <g id="freepik--speech-bubble--inject-3" transform="translate(53.807 74.291)">
      <path id="Path_1093" data-name="Path 1093" d="M135.006,162.34h-10.9a.813.813,0,0,0-.8.8V173.7a.813.813,0,0,0,.8.811h4.014l1.566,2.22,1.361-2.22h3.958a.8.8,0,0,0,.811-.811V163.15a.8.8,0,0,0-.811-.811Z" transform="translate(-123.224 -162.269)" fill="#fafafa"/>
      <path id="Path_1094" data-name="Path 1094" d="M134.769,162.144a.683.683,0,0,1,.322.053.875.875,0,0,1,.322.237.832.832,0,0,1,.189.513c0,.827,0,2.025.019,3.53s0,3.333.016,5.4v1.595a.88.88,0,0,1-.375.76.864.864,0,0,1-.425.152h-4.024l.056-.032-1.358,2.222-.053.088-.058-.082-1.571-2.222.058.029h-4.12a.875.875,0,0,1-.59-.338.944.944,0,0,1-.183-.641V162.9a.867.867,0,0,1,.641-.8,2.111,2.111,0,0,1,.51-.029h3.232l5.4.021h1.85a1.181,1.181,0,0,1,.13,0h-1.98l-5.4.024h-3.219a2.188,2.188,0,0,0-.481.029.747.747,0,0,0-.553.691v10.5a.816.816,0,0,0,.154.558.744.744,0,0,0,.5.282c.412.013.859,0,1.289,0h2.849l.021.029,1.566,2.222h-.112l1.361-2.22.019-.032h.037l3.618.1h.423a.771.771,0,0,0,.364-.13.758.758,0,0,0,.327-.662v-1.595c0-2.065,0-3.886.016-5.4s0-2.7.019-3.53a.8.8,0,0,0-.478-.728A1.063,1.063,0,0,0,134.769,162.144Z" transform="translate(-122.988 -162.074)" fill="#263238"/>
      <path id="Path_1095" data-name="Path 1095" d="M139.268,181.242H135.5v-.021c-.021-.141-.043-.29-.064-.441-.178-1.289-.338-2.44-.441-3.19l.016.016h.011c.109.752.266,1.9.46,3.19.021.149.043.3.061.441l-.024-.024h3.671a.421.421,0,0,1,.077.029Z" transform="translate(-131.11 -173.466)" fill="#263238"/>
      <path id="Path_1096" data-name="Path 1096" d="M135.364,181.268a.045.045,0,0,1-.04-.04l-.5-3.6h-.843c-.074,0-.109,0-.112-.051s.037-.053.112-.056h.912a.048.048,0,0,1,.048.043l.516,3.583,3.6.016c.088,0,.12,0,.122.051h0c0,.048-.035.051-.122.053h-3.692Z" transform="translate(-130.977 -173.414)" fill="#263238"/>
      <path id="Path_1097" data-name="Path 1097" d="M139.19,182.182h1.085l2.759-.013-.024.021c.082-.465.17-.968.266-1.489.048-.266.093-.532.138-.781l.024.029h-3.254l3.254-.013h.029v.029c-.043.266-.09.513-.136.782-.093.532-.181,1.023-.266,1.489v.019H139.2Z" transform="translate(-134.883 -175.176)" fill="#263238"/>
      <path id="Path_1098" data-name="Path 1098" d="M138.15,182.108a.051.051,0,0,1-.051-.051c0-.045.048-.048.064-.051h1.063l2.7-.013.372-2.126-4.458-.016c-.024,0-.072,0-.072-.05s.048-.048.069-.051h4.577a.045.045,0,0,1,.037.019.048.048,0,0,1,0,.037l-.407,2.318a.048.048,0,0,1-.048.04l-3.854-.016Z" transform="translate(-133.841 -175.051)" fill="#263238"/>
      <path id="Path_1099" data-name="Path 1099" d="M140.914,194.04a.749.749,0,0,1-.021-.088.391.391,0,0,0-.138-.194.354.354,0,1,0,0,.566.385.385,0,0,0,.138-.194c.016-.056.016-.09.021-.09a.266.266,0,0,1,0,.1.377.377,0,0,1-.136.218.407.407,0,1,1,.136-.407.247.247,0,0,1,0,.093Z" transform="translate(-135.56 -185.245)" fill="#263238"/>
      <path id="Path_1100" data-name="Path 1100" d="M140.413,194.38a.361.361,0,0,1-.085-.021.447.447,0,0,1-.3-.417.452.452,0,0,1,.3-.42.439.439,0,0,1,.417.069.444.444,0,0,1,.154.247.307.307,0,0,1,0,.1.327.327,0,0,1,0,.1A.431.431,0,0,1,140.413,194.38Zm.114-.742a.306.306,0,0,0-.152.019.3.3,0,0,0,0,.569.316.316,0,0,0,.29-.04.337.337,0,0,0,.12-.17.106.106,0,0,1,.016-.064v-.024l-.016-.064a.314.314,0,0,0-.12-.167.3.3,0,0,0-.138-.066Z" transform="translate(-135.5 -185.144)" fill="#263238"/>
      <path id="Path_1101" data-name="Path 1101" d="M150.042,194.054a.25.25,0,0,0-.024-.088.356.356,0,1,0-.136.372.386.386,0,0,0,.138-.194.927.927,0,0,1,.021-.09.266.266,0,0,1,0,.093.364.364,0,0,1-.136.218.388.388,0,0,1-.372.064.4.4,0,1,1,.372-.686.385.385,0,0,1,.136.218A.247.247,0,0,1,150.042,194.054Z" transform="translate(-142.28 -185.262)" fill="#263238"/>
      <path id="Path_1102" data-name="Path 1102" d="M149.477,194.368a.57.57,0,0,1-.085-.021.444.444,0,0,1,0-.837.433.433,0,0,1,.417.069.417.417,0,0,1,.152.245.266.266,0,0,1,0,.1.329.329,0,0,1,0,.1.436.436,0,0,1-.486.338Zm.125-.747a.337.337,0,0,0-.152.016.306.306,0,1,0,.29.532.316.316,0,0,0,.12-.17.556.556,0,0,0,.016-.064v-.021a.116.116,0,0,0-.016-.064.316.316,0,0,0-.12-.17A.329.329,0,0,0,149.6,193.621Z" transform="translate(-142.156 -185.134)" fill="#263238"/>
      <path id="Path_1103" data-name="Path 1103" d="M153.4,177.865a1.255,1.255,0,1,1-1.255-1.255A1.255,1.255,0,0,1,153.4,177.865Z" transform="translate(-143.473 -172.746)" fill="#076aff"/>
      <path id="Path_1104" data-name="Path 1104" d="M152.91,179.91l.186-.189.364.322.71-.683.175.186-.912.859Z" transform="translate(-144.956 -174.765)" fill="#fff"/>
    </g>
  </g>
</svg>
