<svg xmlns="http://www.w3.org/2000/svg" width="225.227" height="224.19" viewBox="0 0 225.227 224.19">
  <g id="Envelope-bro" transform="translate(-64.679 -67.5)">
    <g id="freepik--background-simple--inject-12" transform="translate(64.738 81.814)">
      <g id="freepik--background-simple--inject-12-2" data-name="freepik--background-simple--inject-12" transform="translate(0 0)">
        <path id="Path_1537" data-name="Path 1537" d="M156.869,107.451c-5.682-5.663-10.928-11.6-19.205-14.155-17.18-5.314-37.57-2.08-51.424,10.026-19.193,16.769-23.7,44.908-20.61,67.776,3.51,25.912,14.3,50.927,32.305,70.3,19.684,21.193,47.289,34.974,76.477,41.834,15.763,3.682,32.311,5.522,48.571,3.068s32.256-9.363,43.472-21.021c15.585-16.18,20.205-39.392,18.622-60.806-1.111-15.008-5.258-30.342-15.763-41.337C249.729,142.64,217.46,141.106,191.966,130a129.493,129.493,0,0,1-29.145-17.125A73.834,73.834,0,0,1,156.869,107.451Z" transform="translate(-64.738 -90.828)" fill="#076aff"/>
        <path id="Path_1538" data-name="Path 1538" d="M156.869,107.451c-5.682-5.663-10.928-11.6-19.205-14.155-17.18-5.314-37.57-2.08-51.424,10.026-19.193,16.769-23.7,44.908-20.61,67.776,3.51,25.912,14.3,50.927,32.305,70.3,19.684,21.193,47.289,34.974,76.477,41.834,15.763,3.682,32.311,5.522,48.571,3.068s32.256-9.363,43.472-21.021c15.585-16.18,20.205-39.392,18.622-60.806-1.111-15.008-5.258-30.342-15.763-41.337C249.729,142.64,217.46,141.106,191.966,130a129.493,129.493,0,0,1-29.145-17.125A73.834,73.834,0,0,1,156.869,107.451Z" transform="translate(-64.738 -90.828)" fill="#fff" opacity="0.7"/>
      </g>
    </g>
    <g id="freepik--Character--inject-12" transform="translate(89.972 67.5)">
      <g id="freepik--character--inject-12-2" data-name="freepik--character--inject-12">
        <path id="Path_1539" data-name="Path 1539" d="M280.6,131.8l1.669-3.583v-.282h0s-.2-6.019-.466-7.885c-.2-1.4-.8-1.6-1.092-1.6a5.284,5.284,0,0,0-1.374-.834,36.268,36.268,0,0,0-4.222-2.2c-1.442-.749-2.669-1.178-3.184-.362a7.6,7.6,0,0,0-.571,1.08c-.043.1-.08.2-.117.307v.061a6.137,6.137,0,0,0-.233.92l-2.086,1.516-.614.319,1.227,6.412,3.62,4.221a1.861,1.861,0,0,1-.074.442,12.6,12.6,0,0,1-2.737,5.436A17.794,17.794,0,0,0,268.9,137.3c-.16.153-.313.307-.485.454-2.62,2.289-3.626,4.044-4.062,5.369v.086a56.855,56.855,0,0,0-5.792-4.817c-.442-.344-4.528-3.915-7.437-6.682l-2.227-3.645c.718,1.319-.571-1.111-.687-1.362-1.3-2.9-1.841-6.093-3.35-8.9-2.246-4.3-7.48-7.553-12.6-8.222l2.454-5.522-2.405-.963a.89.89,0,0,0,.233.135c.54.2,1.589.577,2.859.982,8.467,3.24,10.836,1.227,11.045,1.068a1.951,1.951,0,0,0,.957-1.841l-.736-10.683a.957.957,0,0,1,.258-.724L248.769,90a.982.982,0,0,0,.074-1.227l-2.51-3.528a.963.963,0,0,1-.178-.669l.282-2.651a.914.914,0,0,0-.1-.552l-3.442-6.645a4.688,4.688,0,0,0,1.7-1.466c1.884-3.068,1.841-4.964.521-5.682s-3.841,3.682-10.185,2.295c-3.178-.65-9.866,5.608-12.321,10.554l2.608-6.007c-2.632,3.473-4.1,4.534-3.553,6.136-.055.037-.153.1-.276.19a5.962,5.962,0,0,0-2.454,3.6c-.614,2.148.233,5.363,3.859,9.56l-6.424,8.59a3.994,3.994,0,0,0-1.62-.614c-2.632-.43-6.473.933-7.639,1.381-.663-.172-1.3-.325-1.908-.454a17.179,17.179,0,0,0-5.522-.957,19.094,19.094,0,0,0-5.854.3,20.826,20.826,0,0,0-3.234,1.184,16.082,16.082,0,0,0-2.737,1.374,20.868,20.868,0,0,0-2.6,1.681,34.435,34.435,0,0,0-6.749,6.259l-2.013,2.4q-1.1,1.16-2.19,2.332a101.051,101.051,0,0,1-10.474,9.326,50.062,50.062,0,0,1-11.376,5.123c-2.761.884-5.651,1.644-8.535,2.332-3.068.663-6.2,1.227-9.32,1.841-1.6.27-3.221.614-4.8.994-1.712.374-3.418.779-5.111,1.227a36.677,36.677,0,0,0-5.909,1.81c-.552.2-1.1.4-1.651.614.38.08.755.172,1.123.282a19.247,19.247,0,0,1,5.817,3.761,14.971,14.971,0,0,1,3.369,8.142c-.049,2.638-.926,5.651-1.6,8.59-.945,3.148-1.712,5.884-.479,8.29a6.455,6.455,0,0,0,1.227,2.006A12.137,12.137,0,0,0,129.071,174a51.291,51.291,0,0,1,5.2,4.209,36.714,36.714,0,0,1,2.9,5.522,23.187,23.187,0,0,0,1.558,3.829c.27.614.552,1.227.871,1.81a6.712,6.712,0,0,0,.577.969,20.046,20.046,0,0,0,7.615,6.921,19.733,19.733,0,0,0,9.253,3.007h0a32.225,32.225,0,0,0-.472,3.344,36.814,36.814,0,0,0-6.369,2.436c-3.9,1.626-8.688,3.964-11.738,6.676a30.305,30.305,0,0,0-6.056,7.5A45.692,45.692,0,0,0,128,230.406c-.466,1.405-.89,2.8-1.3,4.148l-.037-.086a3.246,3.246,0,0,1-.08.479c-.5,1.675-.988,3.289-1.491,4.786-2,4.62-5.314,9.2-6.934,11.621h0c-.847,1.086-1.73,2.148-2.638,3.2-1.963,2.166-4.448,4.706-6.357,6.946a17.833,17.833,0,0,0-1.681,2.111,9.818,9.818,0,0,0-1.049,1.743c-1.454,3.387,1.755,5.743,4.019,8.633,0,0,.037.061.061.092a14.492,14.492,0,0,1,1.362,4.8,17.144,17.144,0,0,0,.411,4.485,7.584,7.584,0,0,0,1.927,3.068,13.5,13.5,0,0,0,3.915,3.068,17.249,17.249,0,0,0,2.289,1.166c2.295.914,9.873.859,11.566-2.08a5.972,5.972,0,0,0,.282-.558,2.633,2.633,0,0,0,.362-1.178,3.46,3.46,0,0,0-1.141-3.068c-.049.061.209.221.16.288-2.687-4.013-9.9-8.664-9.817-12.744.117-7.762,4.817-13.125,10.179-18.15,5.215-4.909,11.591-5.731,16.438-10.9,3.129-3.332,6.553-6.749,8.676-13.707,12.634-3.853,15.775-14.247,15.775-14.247,1.3-.528,2.368-1.037,3.571-1.571,3.461,5.234,5.939,8.682,6.3,8.455l27.832-18.72c.614.73,6.136,7.24,11.456,8.977l.153.055,5.59,2.8c-.957,3.4-5.669,4.375-5.669,4.375v.055l-.423.086a15.218,15.218,0,0,0-11.345,5.2,78.908,78.908,0,0,0-7.51,9.339c-1.841,2.565-3.1,4.424-3.1,4.424a19.152,19.152,0,0,0-2.454.761c-5.173,1.871-5.62,4.086-5.326,5.363a3.678,3.678,0,0,0,.068.614,3.9,3.9,0,0,0,1.123,1.828,10.77,10.77,0,0,0,1.8,1.681,12.188,12.188,0,0,1,2.424,2.939,33.143,33.143,0,0,1,1.466,5.117c.792,3.381,4.768,10.9,10.3,11.222a12.068,12.068,0,0,0,3.958-.295c.908-.172,1.8-.479,1.89-1.227a1.146,1.146,0,0,0,.074-.19s-.037-.055-.092-.16a2.1,2.1,0,0,0-.172-.528,35.761,35.761,0,0,0-2.516-4.068,32.238,32.238,0,0,1-3.148-9.284c-.031-.209-.055-.411-.08-.614-.11-.939-.258-1.982-.325-3.031V247.6a9.737,9.737,0,0,1,.9-4.614,7.671,7.671,0,0,1,4.872-3.068c1.331-.319,2.988-.767,4.829-1.313a46.221,46.221,0,0,0,6.664-2.178c7.412-2.663,15.1-6.277,16.475-9.817a65.064,65.064,0,0,1,6.461-11.658c-2.141-14-12.824-29.605-12.824-29.605l28.777-19.475c.258-.16-.773-2.184-2.62-5.375l.5.8h0c1.89,1.08,5.332,1.565,7.363,1.767l.448.043a6.218,6.218,0,0,0,.957.037c2.2-1.939,4.154-5.608,5.467-9.2a47.54,47.54,0,0,0,3.454-13.315,29.453,29.453,0,0,0,.239-6.535C280.7,133.338,280.663,132.577,280.6,131.8ZM222.072,95.173c.233-.38.454-.73.65-1.055h0l.067-.16c.657-1.08,1.043-1.786,1.043-1.786l-.245-.055.08-.184.166.239A15.507,15.507,0,0,1,222.072,95.173Z" transform="translate(-105.942 -67.5)" fill="#fff"/>
        <path id="Path_1540" data-name="Path 1540" d="M369.23,168.657s2.27,7.529,11.91,5.424a26.078,26.078,0,0,0,.933-12.382l1.761-3.792s-.522-5.933-.436-6.817.1-2.724-2.669-3.859-6.277-4.044-7.253-2.491a3.869,3.869,0,0,0-.853,2.3l-2.454,1.8.92,6.5,3.626,4.228s-.479,3.841-2.411,5.522a16.252,16.252,0,0,0-3.074,3.559Z" transform="translate(-207.633 -97.174)" fill="#076aff"/>
        <path id="Path_1541" data-name="Path 1541" d="M385,176.931s2.307-10.008.8-15.892c0,0,3.381-3.129,2.411-10.5,0,0,.988-.276,1.227,1.589s.472,7.891.472,7.891l-1.644,3.792s-.123,8.652-.663,12.075C387.6,175.888,387.454,176.643,385,176.931Z" transform="translate(-213.727 -99.583)" opacity="0.2"/>
        <path id="Path_1542" data-name="Path 1542" d="M310.677,138.91l31.06,45.405s1.841,1.884,6.314,2.73c0,0,6.614-7.363,8.124-14.6l2.454-.491s-2.847,14.284-7.977,18.849c0,0-6.191-.313-8.952-1.9l-31.25-49.449Z" transform="translate(-184.92 -95.094)" fill="#076aff"/>
        <path id="Path_1543" data-name="Path 1543" d="M310.677,138.91l31.06,45.405s1.841,1.884,6.314,2.73c0,0,6.614-7.363,8.124-14.6l2.454-.491s-2.847,14.284-7.977,18.849c0,0-6.191-.313-8.952-1.9l-31.25-49.449Z" transform="translate(-184.92 -95.094)" fill="#fff" opacity="0.6"/>
        <path id="Path_1544" data-name="Path 1544" d="M311.73,136.33a15.284,15.284,0,0,1,12.437,8.063c1.473,2.81,2.043,6.007,3.35,8.9,2.16,4.792,6.2,8.467,10.351,11.695,2.614,2.025,5.357,3.97,7.363,6.6a12.757,12.757,0,0,1,2.2,4.461" transform="translate(-185.414 -94.097)" fill="none" stroke="#263238" stroke-linecap="round" stroke-linejoin="round" stroke-width="1"/>
        <path id="Path_1545" data-name="Path 1545" d="M362.826,172.889c.442-1.325,1.442-3.068,4.062-5.363,4.393-3.835,4.743-7.866,4.743-7.866L368,155.432l-1.227-6.406,2.651-1.362s.153-2.319,1.473-3.031,7.547,2.994,8.915,4.05c.884.687.356,4.037.945,9.026-.951,2.154-1.644,3.792-1.644,3.792a46.361,46.361,0,0,1-8.848,31.477,29.649,29.649,0,0,1-8.958-1.9" transform="translate(-204.573 -97.271)" fill="none" stroke="#263238" stroke-linecap="round" stroke-linejoin="round" stroke-width="1"/>
        <path id="Path_1546" data-name="Path 1546" d="M375.64,153.2l1.914,1.718a5.724,5.724,0,0,0,.89.7,3.344,3.344,0,0,0,1.638.675,3.682,3.682,0,0,0,1.46-.227,6.475,6.475,0,0,0,1.479-2.258" transform="translate(-210.11 -100.616)" fill="none" stroke="#263238" stroke-linecap="round" stroke-linejoin="round" stroke-width="1"/>
        <path id="Path_1547" data-name="Path 1547" d="M369.08,183.29s1.97,8.424,12.388,5.669" transform="translate(-207.575 -112.243)" fill="none" stroke="#263238" stroke-linecap="round" stroke-linejoin="round" stroke-width="1"/>
        <path id="Path_1548" data-name="Path 1548" d="M380.167,145.93a3.848,3.848,0,0,0-2.258,2.344,4.2,4.2,0,0,0-.074,3.405" transform="translate(-210.833 -97.807)" fill="none" stroke="#263238" stroke-linecap="round" stroke-linejoin="round" stroke-width="1"/>
        <path id="Path_1549" data-name="Path 1549" d="M384.463,148.24a4.664,4.664,0,0,0-2.945,2.651,4.823,4.823,0,0,0-.264,3.16" transform="translate(-212.221 -98.699)" fill="none" stroke="#263238" stroke-linecap="round" stroke-linejoin="round" stroke-width="1"/>
        <path id="Path_1550" data-name="Path 1550" d="M380.68,157.46a7.849,7.849,0,0,1,1.841,1.387c1.129,1.258,1.344,3.068,1.509,4.737" transform="translate(-212.058 -102.262)" fill="none" stroke="#263238" stroke-linecap="round" stroke-linejoin="round" stroke-width="1"/>
        <path id="Path_1551" data-name="Path 1551" d="M374.52,149.151s1.994-1.227,2.332-.564" transform="translate(-209.677 -98.757)" fill="none" stroke="#263238" stroke-linecap="round" stroke-linejoin="round" stroke-width="1"/>
        <path id="Path_1552" data-name="Path 1552" d="M140.425,353.01s-11.738-3.037-13.45-13.18a56.126,56.126,0,0,1-6.8,13.922c-4.583,6.6-13.671,14.161-13.707,16.806s.509,4.264,2.89,6.486,2.638,8.087,2.73,9.468a10.3,10.3,0,0,0,4.375,7.2c3.412,2.454,8.915,3.467,12.965,1.8s3.749-4.768,2.393-6.283-9.517-9-9.817-11.535a20.245,20.245,0,0,1,3.283-11.793C127.993,361.8,134.651,355.526,140.425,353.01Z" transform="translate(-106.097 -172.733)" fill="#076aff"/>
        <path id="Path_1553" data-name="Path 1553" d="M313.634,127.27a29.707,29.707,0,0,0-3.264,7.682" transform="translate(-184.889 -90.596)" fill="none" stroke="#263238" stroke-linecap="round" stroke-linejoin="round" stroke-width="1"/>
        <path id="Path_1554" data-name="Path 1554" d="M306.472,82.22c.884,2.522,1.589,5.3.718,7.823-.534,1.552-1.62,2.859-2.172,4.4a13.707,13.707,0,0,0-.46,5.3c.1,2.405.27,4.982,1.755,6.872,2.166,2.761,6.185,2.976,9.425,4.338,0,0-2.178,2.362-11.112-1.068l-3.068-1.111-1.626,7.437s-.957-1.608-2.454-1.362S292,118.053,292,118.053s-2.283-2.258-2.792-3.78-1.9-5.166-3.522-6.007c0,0,6.749-8.173,7.5-10.388,0,0-3.829-5.044.564-7.026s6.8,3.068,6.8,3.068l-1.546-6.547,5.89-4.982Z" transform="translate(-175.352 -73.188)" fill="#076aff"/>
        <path id="Path_1555" data-name="Path 1555" d="M306.472,82.22c.884,2.522,1.589,5.3.718,7.823-.534,1.552-1.62,2.859-2.172,4.4a13.707,13.707,0,0,0-.46,5.3c.1,2.405.27,4.982,1.755,6.872,2.166,2.761,6.185,2.976,9.425,4.338,0,0-2.178,2.362-11.112-1.068l-3.068-1.111-1.626,7.437s-.957-1.608-2.454-1.362S292,118.053,292,118.053s-2.283-2.258-2.792-3.78-1.9-5.166-3.522-6.007c0,0,6.749-8.173,7.5-10.388,0,0-3.829-5.044.564-7.026s6.8,3.068,6.8,3.068l-1.546-6.547,5.89-4.982Z" transform="translate(-175.352 -73.188)" fill="#fff" opacity="0.6"/>
        <path id="Path_1556" data-name="Path 1556" d="M320.155,78.81l3.608,6.97a.933.933,0,0,1,.1.546l-.282,2.657a.975.975,0,0,0,.172.663l2.516,3.534a.97.97,0,0,1-.08,1.227l-1.841,2.025a.982.982,0,0,0-.251.724l.736,10.682a1.945,1.945,0,0,1-1.227,1.945,8.683,8.683,0,0,1-2.755.46c-3.209.11-9.284-2.049-10.879-2.638a.963.963,0,0,1-.558-.528l-2.657-6.283" transform="translate(-183.494 -71.87)" fill="none" stroke="#263238" stroke-linecap="round" stroke-linejoin="round" stroke-width="1"/>
        <path id="Path_1557" data-name="Path 1557" d="M301.955,99.2s-1.841-4.123-3.418-3.682-3.461,1.841-3.418,3.718,2.927,5.142,4.154,5.43a5.737,5.737,0,0,0,2.706-.209" transform="translate(-178.995 -78.314)" fill="none" stroke="#263238" stroke-linecap="round" stroke-linejoin="round" stroke-width="1"/>
        <path id="Path_1558" data-name="Path 1558" d="M329.511,95.951c0,.614-.252,1.1-.546,1.1s-.528-.5-.515-1.111.252-1.1.546-1.1S329.523,95.343,329.511,95.951Z" transform="translate(-191.875 -78.065)" fill="#263238"/>
        <path id="Path_1559" data-name="Path 1559" d="M326.58,108.54a2.853,2.853,0,0,0,2.264,2.773" transform="translate(-191.152 -83.359)" fill="none" stroke="#263238" stroke-linecap="round" stroke-linejoin="round" stroke-width="1"/>
        <path id="Path_1560" data-name="Path 1560" d="M327.684,89.952s-2.743-2.387-4.344,2.006" transform="translate(-189.9 -75.926)" fill="none" stroke="#263238" stroke-linecap="round" stroke-linejoin="round" stroke-width="2"/>
        <path id="Path_1561" data-name="Path 1561" d="M292.639,107.57l.479.1s-3.737,6.792-7.5,10.388" transform="translate(-175.325 -82.984)" fill="none" stroke="#263238" stroke-linecap="round" stroke-linejoin="round" stroke-width="1"/>
        <path id="Path_1562" data-name="Path 1562" d="M298.946,109s-1.534,11.719.614,17.119" transform="translate(-180.269 -83.536)" fill="none" stroke="#263238" stroke-linecap="round" stroke-linejoin="round" stroke-width="1"/>
        <path id="Path_1563" data-name="Path 1563" d="M294.3,84.227a9.494,9.494,0,0,1,1.019-9.627" transform="translate(-178.342 -70.244)" fill="none" stroke="#263238" stroke-linecap="round" stroke-linejoin="round" stroke-width="1"/>
        <path id="Path_1564" data-name="Path 1564" d="M292.5,88.894c-4.817-.264-6.252,5.522-6.252,5.522" transform="translate(-175.568 -75.764)" fill="none" stroke="#263238" stroke-linecap="round" stroke-linejoin="round" stroke-width="1"/>
        <path id="Path_1565" data-name="Path 1565" d="M315.855,67.639c-1.3-.724-3.841,3.682-10.185,2.295-4.044-.871-13.763,1.8-13.2,10.646,0,0-7.418,4.3,1.019,13.579l1.086-2.522s-3.516-3.767-.479-5.676c2.687-1.681,3.031-1.479,5.59,2.589,0,0,.859,1.779,2.528,1.276s1.6-1.2.92-2.872c-.252-.614-.669-1.657-1.012-2.8a6.823,6.823,0,0,0,5.129-7.05v-.074c3.234-.9,6.964-1.951,8.081-3.743C317.217,70.284,317.156,68.357,315.855,67.639Z" transform="translate(-176.807 -67.522)" fill="#263238"/>
        <path id="Path_1566" data-name="Path 1566" d="M297.135,82.434c-.466-2.755,1.43-5.485,3.878-6.823s5.344-1.559,8.136-1.608a23.93,23.93,0,0,0,5.307-.43,8.726,8.726,0,0,0,1.773-.614" transform="translate(-179.747 -69.61)" fill="none" stroke="#fff" stroke-linecap="round" stroke-linejoin="round" stroke-width="0.5"/>
        <path id="Path_1567" data-name="Path 1567" d="M299.42,86.577a5.32,5.32,0,0,1,4.252-4.3c1.111-.184,2.264,0,3.369-.233s2.233-1.08,2.184-2.209" transform="translate(-180.657 -72.268)" fill="none" stroke="#fff" stroke-linecap="round" stroke-linejoin="round" stroke-width="0.5"/>
        <path id="Path_1568" data-name="Path 1568" d="M223.207,156.677l29.378-20.917a3,3,0,0,1,4.326.92s35.668,54.492,34.287,55.351L209.045,247.3c-1.405.884-34.164-52.915-34.164-52.915a3.013,3.013,0,0,1,.8-4.05l15.56-11.272" transform="translate(-132.356 -93.661)" fill="none" stroke="#263238" stroke-linecap="round" stroke-linejoin="round" stroke-width="1"/>
        <path id="Path_1569" data-name="Path 1569" d="M283.976,278.4c1.46,3.553,4.657,6.05,7.823,8.222s6.529,4.3,8.633,7.5,2.534,7.9-.147,10.646a2.344,2.344,0,0,1-2.006.865c-1.743-.344-1.436-3.191-2.853-4.258-2.141,3.031-6.565,4.2-9.044,4.547l1.319-5.792a8.783,8.783,0,0,0,5.676-3.835s-.1-1.559-5.749-3.4-11.517-9.05-11.517-9.05Z" transform="translate(-171.65 -148.995)" fill="#076aff"/>
        <path id="Path_1570" data-name="Path 1570" d="M283.976,278.4c1.46,3.553,4.657,6.05,7.823,8.222s6.529,4.3,8.633,7.5,2.534,7.9-.147,10.646a2.344,2.344,0,0,1-2.006.865c-1.743-.344-1.436-3.191-2.853-4.258-2.141,3.031-6.565,4.2-9.044,4.547l1.319-5.792a8.783,8.783,0,0,0,5.676-3.835s-.1-1.559-5.749-3.4-11.517-9.05-11.517-9.05Z" transform="translate(-171.65 -148.995)" fill="#fff" opacity="0.6"/>
        <path id="Path_1571" data-name="Path 1571" d="M281.593,330.853s-9.05-4.712-5.86-16.812a14.975,14.975,0,0,0-11.5,5.191,132.169,132.169,0,0,0-10.615,13.763s-7.829,2.368-7.75,5.375,2.338,4.369,3.884,5.6,2.221,4,3.013,7.363,4.768,10.9,10.3,11.222,5.915-1.712,5.915-1.712-1.172-2.068-2.694-4.614a31.988,31.988,0,0,1-3.645-13.407c-.049-4.817,1.908-6.946,5.289-7.737S277.469,333.074,281.593,330.853Z" transform="translate(-159.964 -162.762)" fill="#076aff"/>
        <path id="Path_1572" data-name="Path 1572" d="M276.582,287.559c-.951-.957,5.584,6.884,12.462,9.3,6.749,2.375,6.749,5.743,6.749,5.743" transform="translate(-171.797 -152.503)" fill="none" stroke="#263238" stroke-linecap="round" stroke-linejoin="round" stroke-width="1"/>
        <path id="Path_1573" data-name="Path 1573" d="M290.009,259.56s10.658,15.6,12.806,29.593a64.737,64.737,0,0,0-6.467,11.658c-2.172,5.6-20.353,11.456-27.961,13.3-2.062.5-4.172,1.522-5.136,3.516-1.074,2.221-.571,5.166-.3,7.523a26.2,26.2,0,0,0,1.921,7.559c1.019,2.3,2.761,4.16,3.829,6.406.871,1.841-1.374,2.086-2.749,2.27-8.449,1.147-12.658-8.081-13.671-13.45s-5.86-6.639-6.387-9.259c-.976-4.835,7.707-6.749,7.707-6.749-.166.35,6.449-9.719,10.615-13.763a16.715,16.715,0,0,1,5.522-3.939c2.172-.835,4.657-.92,6.964-1.5s4.663-1.964,5.136-4.148" transform="translate(-159.944 -141.715)" fill="none" stroke="#263238" stroke-linecap="round" stroke-linejoin="round" stroke-width="1"/>
        <path id="Path_1574" data-name="Path 1574" d="M294.16,314.17s-4.344,11,6.007,16.806" transform="translate(-178.275 -162.817)" fill="none" stroke="#263238" stroke-linecap="round" stroke-linejoin="round" stroke-width="1"/>
        <path id="Path_1575" data-name="Path 1575" d="M281.28,284.31a29.568,29.568,0,0,0,12.192,8.909" transform="translate(-173.648 -151.279)" fill="none" stroke="#263238" stroke-linecap="round" stroke-linejoin="round" stroke-width="1"/>
        <path id="Path_1576" data-name="Path 1576" d="M290.094,317.16a21.363,21.363,0,0,0-5.915,1.227,11.5,11.5,0,0,0-4.909,3.448" transform="translate(-172.871 -163.973)" fill="none" stroke="#263238" stroke-linecap="round" stroke-linejoin="round" stroke-width="1"/>
        <path id="Path_1577" data-name="Path 1577" d="M274.831,319.936A72.4,72.4,0,0,0,264.063,325a26.053,26.053,0,0,0-8.621,8.05,6.993,6.993,0,0,1-.865,1.2,8.279,8.279,0,0,1-3.1,1.473c-2.381.908-5.265,4.682-5.215,4.442,0,0-3.534-4.3,7.3-7.173a149.92,149.92,0,0,1,9.29-12.223c3.731-4.1,5.835-6,12.634-6.694Z" transform="translate(-159.904 -162.779)" opacity="0.2"/>
        <path id="Path_1578" data-name="Path 1578" d="M228.553,134.628l.749-.669a34.571,34.571,0,0,1-2.663-4.5c-.81-1.841-1.687-5.442-4.823-5.952s-7.977,1.522-7.977,1.522-6.927-2.614-12.928-1.227c0,0-8.308,2.019-15.34,10.5s-12.566,14.83-26.047,19.15-29.888,5.78-34.895,8.854c0,0,9.339,3.172,9.916,10.848s-4.5,13.572-2.117,18.211,6.811,5.62,8.762,8.259,4.369,8.958,5.492,11.431,8.363,10.02,17.444,10.885c0,0,1.786-8.222,4.062-11.658l-12.529-20.475a3.2,3.2,0,0,1,1-4.3c2.485-2.006,15.34-11,15.34-11a25.236,25.236,0,0,1-2.516-7.044,8.891,8.891,0,0,0-2.687-5.117,16.574,16.574,0,0,1,4.866-7.118c3.412-2.632,9.866-8.817,12.689-12.836s9.13-15.806,20.727-17.236a18.69,18.69,0,0,1,6.234,3.62C214.489,131.5,220.631,136.193,228.553,134.628Z" transform="translate(-113.116 -89.1)" fill="#076aff"/>
        <path id="Path_1579" data-name="Path 1579" d="M164.126,222.524s-7.731,0-14.315-7.191-4.909-10.805-7.866-14.26-8.247-5.608-9.517-9.136,1.638-12.2,2.062-15.223-1.534-11.744-9.86-13.836a109.717,109.717,0,0,1,18.223-4.847c8.48-1.264,20.4-4.485,25.875-7.688s14.781-12.769,16.567-14.83,8.394-9.1,13.5-10.284c4.111-.951,6.326.515,6.326.515s-9.817,2.086-15.045,8.639c-4.2,5.24-5.056,9.308-10.695,14.652s-10.609,7.878-12.585,13.4c0,0,2.056,2.994,2.362,4.866s2.884,7.792,2.884,7.792l-15.561,11.272s-2.454,1.381-.724,4.436,12.5,20.248,12.5,20.248S163.93,219.505,164.126,222.524Z" transform="translate(-113.116 -89.683)" opacity="0.2"/>
        <path id="Path_1580" data-name="Path 1580" d="M262.615,125.1s6.449-2.184,8.5-.957,6.369,10.32,6.369,10.32l-1.16.963s-9.014-.841-12.241-3.178-7.363-7.289-14.781-7.835C249.312,124.414,253.472,122.684,262.615,125.1Z" transform="translate(-161.29 -89.244)" fill="#fff" opacity="0.38"/>
        <path id="Path_1581" data-name="Path 1581" d="M199.925,124.72c-8.118,2.35-10.621,6.375-14.953,10.707-3.178,3.178-6.081,6.633-9.376,9.688-13.738,12.726-34.25,10.873-51.707,17.671a12.529,12.529,0,0,1,10.192,10.3c.969,5.645-3.9,13.9-1.681,19.187,1.448,3.454,5.608,4.792,8.2,7.5,3.068,3.172,3.681,7.909,5.774,11.769,3.485,6.357,10.2,9.738,17.444,10.9" transform="translate(-112.83 -89.611)" fill="none" stroke="#263238" stroke-linecap="round" stroke-linejoin="round" stroke-width="1"/>
        <path id="Path_1582" data-name="Path 1582" d="M181.931,189.52c-.988,1.006-1.878,2.1-2.847,3.123-4.878,5.105-11.615,7.934-18.144,10.633" transform="translate(-127.146 -114.651)" fill="none" stroke="#263238" stroke-linecap="round" stroke-linejoin="round" stroke-width="1"/>
        <path id="Path_1583" data-name="Path 1583" d="M181.841,197c-3.645,4.3-8.731,6.351-13.671,9.075S158.237,212.3,156.31,217.6" transform="translate(-125.357 -117.541)" fill="none" stroke="#263238" stroke-linecap="round" stroke-linejoin="round" stroke-width="1"/>
        <path id="Path_1584" data-name="Path 1584" d="M263.847,127.805c-6.271-7.216-18.407-3.123-18.407-3.123,4.639-.614,8.154,0,15.014,5.762a20.9,20.9,0,0,0,14.247,4.571" transform="translate(-159.799 -89.149)" fill="none" stroke="#263238" stroke-linecap="round" stroke-linejoin="round" stroke-width="1"/>
        <path id="Path_1585" data-name="Path 1585" d="M269.8,125.173a56.79,56.79,0,0,1,6.136-1.405,6.288,6.288,0,0,1,1.694-.117,4.522,4.522,0,0,1,2.982,1.908,18.038,18.038,0,0,1,1.718,3.2,34.36,34.36,0,0,0,3.111,5.258" transform="translate(-169.212 -89.192)" fill="none" stroke="#263238" stroke-linecap="round" stroke-linejoin="round" stroke-width="1"/>
        <path id="Path_1586" data-name="Path 1586" d="M180.093,275.311a29.486,29.486,0,0,0-9.2,15.518,5.4,5.4,0,0,1-1.227-5.3s-20.248,8.627-28.133,30.575l-1.7-4.909s2.724-15.45,12.517-22.322c9.9-6.958,17.125-8.59,17.125-8.59s1.227-10.695,4.614-14.517Z" transform="translate(-118.989 -144.115)" fill="#076aff"/>
        <path id="Path_1587" data-name="Path 1587" d="M180.093,275.425a29.353,29.353,0,0,0-9.2,15.493,5.4,5.4,0,0,1-1.227-5.3s-20.248,8.627-28.133,30.575l-1.7-4.909s2.724-15.45,12.517-22.322c9.9-6.958,17.125-8.59,17.125-8.59S170.7,269.823,174.086,266Z" transform="translate(-118.989 -144.204)" fill="#fff" opacity="0.6"/>
        <path id="Path_1588" data-name="Path 1588" d="M176.42,289.1c-1.227.54-2.289,1.055-3.6,1.583,0,0-3.142,10.394-15.775,14.254-2.123,6.946-5.522,10.376-8.676,13.707-4.847,5.16-11.222,6.013-16.438,10.891-5.369,5.025-10.063,10.388-10.179,18.15-.1,6.185,16.536,13.7,8.744,18.272s-18.076-1.687-18.408-7.67-1.325-8.21-4.3-11.449c-3.289-3.614-.8-6.749,2.092-9.787,5.952-6.289,11.045-11.946,14.769-19.849,2.908-8.118,4.768-20.107,13.714-28.047,5.854-5.2,18.144-9.063,18.144-9.063a38.01,38.01,0,0,1,4.6-14.793" transform="translate(-106.007 -143.933)" fill="none" stroke="#263238" stroke-linecap="round" stroke-linejoin="round" stroke-width="1"/>
        <path id="Path_1589" data-name="Path 1589" d="M139.73,338.987c.215-.614,1.841,12.2,13.934,13.4" transform="translate(-118.951 -172.399)" fill="none" stroke="#263238" stroke-linecap="round" stroke-linejoin="round" stroke-width="1"/>
        <path id="Path_1590" data-name="Path 1590" d="M166.628,298.73A25.059,25.059,0,0,0,155.05,309.5" transform="translate(-124.87 -156.851)" fill="none" stroke="#263238" stroke-linecap="round" stroke-linejoin="round" stroke-width="1"/>
        <path id="Path_1591" data-name="Path 1591" d="M180.117,295.72A26.253,26.253,0,0,0,176,297.015" transform="translate(-132.966 -155.688)" fill="none" stroke="#263238" stroke-linecap="round" stroke-linejoin="round" stroke-width="1"/>
        <path id="Path_1592" data-name="Path 1592" d="M121.69,422a10.388,10.388,0,0,0,10.824,4.338" transform="translate(-111.98 -204.485)" fill="none" stroke="#263238" stroke-linecap="round" stroke-linejoin="round" stroke-width="1"/>
        <path id="Path_1593" data-name="Path 1593" d="M128.527,344.053a36.589,36.589,0,0,1-9.615,15.2,75.705,75.705,0,0,0-5.823,5.3,10.963,10.963,0,0,0-3.123,7.05,15.3,15.3,0,0,0,.89,4.43q1.068,3.442,2.123,6.872a17.4,17.4,0,0,0,1.921,4.608,11.406,11.406,0,0,0,3.577,3.313,11.958,11.958,0,0,0,6.621,1.951,9.556,9.556,0,0,0,6.492-3.841s1.878,1.779.184,4.718-9.265,2.994-11.56,2.08-7.191-3.951-8.13-7.265.423-6.479-1.841-9.369-5.467-5.252-4.013-8.639,9.474-10.627,11.726-14,7.756-10.854,8.5-16.892Z" transform="translate(-105.864 -172.636)" opacity="0.2"/>
        <path id="Path_1594" data-name="Path 1594" d="M288.36,212.29l45.417,6.51,1.129,2.865-46.424-8.093Z" transform="translate(-176.384 -123.449)" fill="#076aff"/>
        <path id="Path_1595" data-name="Path 1595" d="M288.36,212.29l45.417,6.51,1.129,2.865-46.424-8.093Z" transform="translate(-176.384 -123.449)" fill="#fff" opacity="0.6"/>
        <path id="Path_1596" data-name="Path 1596" d="M240.935,242.13,226.62,285.3l2.559,3.129,12.339-45.086Z" transform="translate(-152.526 -134.98)" fill="#076aff"/>
        <path id="Path_1597" data-name="Path 1597" d="M240.935,242.13,226.62,285.3l2.559,3.129,12.339-45.086Z" transform="translate(-152.526 -134.98)" fill="#fff" opacity="0.6"/>
        <path id="Path_1598" data-name="Path 1598" d="M255.5,135.72l-14.763,71.44-65.752-12.578-.295-1.1,64,10.4Z" transform="translate(-132.46 -93.861)" fill="#076aff"/>
        <path id="Path_1599" data-name="Path 1599" d="M255.5,135.72l-14.763,71.44-65.752-12.578-.295-1.1,64,10.4Z" transform="translate(-132.46 -93.861)" fill="#fff" opacity="0.6"/>
        <circle id="Ellipse_66" data-name="Ellipse 66" cx="9.241" cy="9.241" r="9.241" transform="translate(106.493 57.785) rotate(-23.7)" fill="#076aff"/>
        <line id="Line_50" data-name="Line 50" y1="11.456" x2="2.755" transform="translate(120.014 41.761)" fill="none" stroke="#263238" stroke-linecap="round" stroke-linejoin="round" stroke-width="1"/>
        <line id="Line_51" data-name="Line 51" y1="46.203" x2="12.94" transform="translate(76.609 107.132)" fill="none" stroke="#263238" stroke-linecap="round" stroke-linejoin="round" stroke-width="1"/>
        <line id="Line_52" data-name="Line 52" x2="47.596" y2="8.075" transform="translate(111.099 90.074)" fill="none" stroke="#263238" stroke-linecap="round" stroke-linejoin="round" stroke-width="1"/>
        <line id="Line_53" data-name="Line 53" y1="16.475" x2="22.905" transform="translate(81.254 64.874)" fill="none" stroke="#263238" stroke-linecap="round" stroke-linejoin="round" stroke-width="1"/>
        <line id="Line_54" data-name="Line 54" y1="16.88" x2="23.439" transform="translate(82.475 67.85)" fill="none" stroke="#263238" stroke-linecap="round" stroke-linejoin="round" stroke-width="1"/>
        <path id="Path_1600" data-name="Path 1600" d="M244.59,202.949c2.626.209,5.645-1.651,7.142-3.786s2.688-4.6,4.847-6.1a16.415,16.415,0,0,1,4.694-1.921,12.339,12.339,0,0,0,4.571-2.166,4.424,4.424,0,0,0,1.583-4.5" transform="translate(-159.47 -112.703)" fill="none" stroke="#263238" stroke-linecap="round" stroke-linejoin="round" stroke-width="1"/>
        <path id="Path_1601" data-name="Path 1601" d="M247.17,207.42c2.626.4,5.038-1.43,6.682-3.5s2.921-4.485,5.074-6.032a14.443,14.443,0,0,1,5.676-2.638c3.479-.614,5.8-2.743,5.915-4.823" transform="translate(-160.467 -115.002)" fill="none" stroke="#263238" stroke-linecap="round" stroke-linejoin="round" stroke-width="1"/>
        <circle id="Ellipse_67" data-name="Ellipse 67" cx="9.216" cy="9.216" r="9.216" transform="translate(109.412 53.198)" fill="none" stroke="#263238" stroke-linecap="round" stroke-linejoin="round" stroke-width="1"/>
        <path id="Path_1602" data-name="Path 1602" d="M223.207,156.677l29.378-20.917a3,3,0,0,1,4.326.92s35.668,54.492,34.287,55.351L209.045,247.3c-1.405.884-34.164-52.915-34.164-52.915a3.013,3.013,0,0,1,.8-4.05l15.56-11.272" transform="translate(-132.356 -93.661)" fill="none" stroke="#263238" stroke-linecap="round" stroke-linejoin="round" stroke-width="1"/>
        <line id="Line_55" data-name="Line 55" y1="36.41" x2="8.787" transform="translate(106.761 71.237)" fill="none" stroke="#263238" stroke-linecap="round" stroke-linejoin="round" stroke-width="1"/>
        <line id="Line_56" data-name="Line 56" x2="47.62" y2="7.48" transform="translate(42.065 99.621)" fill="none" stroke="#263238" stroke-linecap="round" stroke-linejoin="round" stroke-width="1"/>
        <path id="Path_1603" data-name="Path 1603" d="M223.88,219.719s7.406.9,11.045-8.639c0,0,4.3,6.351,7.811,8.725a11.04,11.04,0,0,1,4.792.4,37.928,37.928,0,0,0,7.872.718s-.816,2.865-2.632,2.921a7.449,7.449,0,0,1-3.4-.81l-.4,1,12.18,9.118a1.884,1.884,0,0,1-.337,2.657l-8.59-5.952-.4,1.006s5.142,6.86,5.289,7.94-.1,1.154-.927,1.227-2.049-1.19-2.049-1.19l-4.6-6.608-.8.73s3.289,6.749,2.865,8.179-2.3-.558-2.3-.558l-2.552-5.995s1,4.731-.5,5.369-1.608-1.264-2.006-5.78l-3.976-5.43S228.641,223.468,223.88,219.719Z" transform="translate(-151.467 -122.982)" fill="#076aff"/>
        <path id="Path_1604" data-name="Path 1604" d="M228.014,223.78l12.922,8.885,3.234,6.418-3.412-4.9-16.978-8.964Z" transform="translate(-151.429 -127.889)" opacity="0.2"/>
        <path id="Path_1605" data-name="Path 1605" d="M235.985,128.657a37.326,37.326,0,0,0-9.357,6.584c-3.681,3.227-7.075,7.363-7.443,12.223a4.3,4.3,0,0,0,.387,2.454,3.661,3.661,0,0,0,4.185,1.362,10.7,10.7,0,0,0,3.945-2.565c-.325.288-.515,1.27-.792,1.681a6.492,6.492,0,0,1-1.295,1.424,10.431,10.431,0,0,1-3.829,1.841c-3.369.963-7.069.9-10.554,1.6-3.681.73-6.191,2.632-8.553,5.473-1.675,2.013,1.227,7.21,2.068,9.688,1.951,5.939,6.933,11.272,11.376,15.665l-4.172.847s-11.259-5.958-13.5-11.339-3.5-9.946-5.442-12.474c0,0,1.638-3.859,8.842-10.2s10.928-12.585,13.72-16.383c3.767-5.136,12.456-9.977,15.953-10.3C231.494,126.227,232.991,126.479,235.985,128.657Z" transform="translate(-139.539 -90.198)" fill="#076aff"/>
        <path id="Path_1606" data-name="Path 1606" d="M236.071,128.634a37.939,37.939,0,0,0-9.443,6.627c-3.681,3.227-7.075,7.363-7.443,12.223a4.3,4.3,0,0,0,.387,2.454,3.661,3.661,0,0,0,4.185,1.362,10.7,10.7,0,0,0,3.945-2.565c-.325.288-.515,1.27-.792,1.681a6.492,6.492,0,0,1-1.295,1.424,10.43,10.43,0,0,1-3.829,1.841c-3.369.963-7.069.9-10.554,1.6-3.682.73-6.191,2.632-8.553,5.473-1.675,2.013,1.227,7.21,2.068,9.688,1.951,5.939,6.934,11.272,11.376,15.665l-4.172.847s-11.259-5.958-13.5-11.339-3.5-9.946-5.442-12.474c0,0,1.638-3.859,8.842-10.2s10.928-12.585,13.72-16.383c3.767-5.136,12.885-9.946,16.383-10.265A28.17,28.17,0,0,1,236.071,128.634Z" transform="translate(-139.539 -90.217)" fill="#fff" opacity="0.6"/>
        <path id="Path_1607" data-name="Path 1607" d="M233.13,180.173c5.087-3.467,13.186-10.578,14.6-19.3" transform="translate(-155.042 -103.58)" fill="none" stroke="#263238" stroke-linecap="round" stroke-linejoin="round" stroke-width="1"/>
        <path id="Path_1608" data-name="Path 1608" d="M243.071,210.477a24.237,24.237,0,0,1-10.192-12.394c-2.632-7.142-5.406-11.284-12.419-13.953" transform="translate(-150.146 -112.568)" fill="none" stroke="#263238" stroke-linecap="round" stroke-linejoin="round" stroke-width="1"/>
        <path id="Path_1609" data-name="Path 1609" d="M205,205.08a21.107,21.107,0,0,0,8.983,7.977" transform="translate(-144.172 -120.663)" fill="none" stroke="#263238" stroke-linecap="round" stroke-linejoin="round" stroke-width="1"/>
        <path id="Path_1610" data-name="Path 1610" d="M201.49,197.54a19.681,19.681,0,0,0,1.393,3.319" transform="translate(-142.816 -117.75)" fill="none" stroke="#263238" stroke-linecap="round" stroke-linejoin="round" stroke-width="1"/>
        <path id="Path_1611" data-name="Path 1611" d="M223.88,219.484s8.148.215,11.192-9.014" transform="translate(-151.467 -122.746)" fill="none" stroke="#263238" stroke-linecap="round" stroke-linejoin="round" stroke-width="1"/>
        <path id="Path_1612" data-name="Path 1612" d="M247.1,132.617a22.316,22.316,0,0,1,4.172-1.227" transform="translate(-160.44 -92.188)" fill="none" stroke="#263238" stroke-linecap="round" stroke-linejoin="round" stroke-width="1"/>
        <path id="Path_1613" data-name="Path 1613" d="M229.31,143.744a21.475,21.475,0,0,1,9.431-9.2" transform="translate(-153.566 -93.405)" fill="none" stroke="#263238" stroke-linecap="round" stroke-linejoin="round" stroke-width="1"/>
        <path id="Path_1614" data-name="Path 1614" d="M220.3,181.5a8.081,8.081,0,0,1,5.2,4.246" transform="translate(-150.084 -111.551)" fill="none" stroke="#263238" stroke-linecap="round" stroke-linejoin="round" stroke-width="1"/>
        <path id="Path_1615" data-name="Path 1615" d="M231.415,187.276c1.62-.742,3.682-.141,4.651.172,1.325.411,6.553,1.147,7.541.718s-.865,2.252-2.007,2.78-4.025-.669-4.025-.669l-.4,1s11.769,8.228,12.437,9.394.215,2.295-.577,2.381-8.59-5.952-8.59-5.952l-.4,1.006s6.136,7.86,5.522,8.682-1.9.491-2.9-.552-4.909-6.749-4.909-6.749l-.8.73s3.295,7.363,2.865,8.179-1.46.522-2.062-.245-3.031-6.811-3.031-6.811.644,5.08.264,5.639a1.068,1.068,0,0,1-1.718-.049c-.387-.614-.81-5.522-.81-5.522l-3.976-5.43c-8.326-3.289-23.236-13.309-23.236-13.309-7.866-6.326-8.59-11.474-9.523-14.849a10.714,10.714,0,0,0-2.319-4.369c2.129-8.216,11.946-9.891,19.5-22.93s19.346-14.211,19.346-14.211" transform="translate(-139.693 -90.225)" fill="none" stroke="#263238" stroke-linecap="round" stroke-linejoin="round" stroke-width="1"/>
      </g>
    </g>
    <g id="freepik--speed-lines--inject-12" transform="translate(65.383 92.583)">
      <g id="freepik--speed-lines--inject-12-2" data-name="freepik--speed-lines--inject-12" transform="translate(0 0)">
        <line id="Line_57" data-name="Line 57" x1="13.757" y2="11.376" transform="translate(0 129.669)" fill="none" stroke="#263238" stroke-linecap="round" stroke-linejoin="round" stroke-width="1"/>
        <line id="Line_58" data-name="Line 58" x1="27.568" y2="22.795" transform="translate(22.083 99.983)" fill="none" stroke="#263238" stroke-linecap="round" stroke-linejoin="round" stroke-width="1"/>
        <line id="Line_59" data-name="Line 59" x1="5.43" y2="4.491" transform="translate(8.069 89.859)" fill="none" stroke="#263238" stroke-linecap="round" stroke-linejoin="round" stroke-width="1"/>
        <line id="Line_60" data-name="Line 60" x1="21.482" y2="17.763" transform="translate(17.757 68.574)" fill="none" stroke="#263238" stroke-linecap="round" stroke-linejoin="round" stroke-width="1"/>
        <line id="Line_61" data-name="Line 61" x1="13.094" y2="10.83" transform="translate(12.677 84.018)" fill="none" stroke="#263238" stroke-linecap="round" stroke-linejoin="round" stroke-width="1"/>
        <line id="Line_62" data-name="Line 62" x1="17.045" y2="14.094" transform="translate(77.539 137.903)" fill="none" stroke="#263238" stroke-linecap="round" stroke-linejoin="round" stroke-width="1"/>
        <line id="Line_63" data-name="Line 63" x1="6.78" y2="5.602" transform="translate(96.916 130.368)" fill="none" stroke="#263238" stroke-linecap="round" stroke-linejoin="round" stroke-width="1"/>
        <line id="Line_64" data-name="Line 64" x1="6.78" y2="5.608" transform="translate(94.32 136.547)" fill="none" stroke="#263238" stroke-linecap="round" stroke-linejoin="round" stroke-width="1"/>
        <line id="Line_65" data-name="Line 65" x1="4.172" y2="3.448" transform="translate(173.012 13.996)" fill="none" stroke="#263238" stroke-linecap="round" stroke-linejoin="round" stroke-width="1"/>
        <line id="Line_66" data-name="Line 66" x1="14.935" y2="12.351" transform="translate(179.173)" fill="none" stroke="#263238" stroke-linecap="round" stroke-linejoin="round" stroke-width="1"/>
      </g>
    </g>
    <g id="freepik--Clouds--inject-12" transform="translate(69.359 94.919)">
      <g id="freepik--clouds--inject-12-2" data-name="freepik--clouds--inject-12" transform="translate(0)">
        <path id="Path_1616" data-name="Path 1616" d="M335.23,235.411h59.2a5.355,5.355,0,0,0-3.111-3.681c-2.5-.871-4.3,0-4.3-2.958s-.742-4.442-3.553-5.031c0,0-1.773-6.363-7.4-6.958s-9.621.147-10.511,3.553-1.773,5.179-3.4,5.031-4.3-1.773-5.627,1.331-1.331,4.909-3.405,4.3-6.216-3.258-9.468,2.074C343.679,233.049,338.335,230.828,335.23,235.411Z" transform="translate(-173.882 -152.533)" fill="#fff"/>
        <path id="Path_1617" data-name="Path 1617" d="M131.469,131.007H72.27a5.343,5.343,0,0,1,3.111-3.682c2.5-.865,4.3,0,4.3-2.964s.742-4.436,3.553-5.031c0,0,1.773-6.363,7.4-6.958s9.621.147,10.511,3.553,1.773,5.179,3.4,5.031,4.3-1.773,5.627,1.332,1.331,4.909,3.405,4.3,6.209-3.277,9.461,2.056C123.032,128.639,128.364,126.418,131.469,131.007Z" transform="translate(-72.27 -112.187)" fill="#fff"/>
      </g>
    </g>
  </g>
</svg>
