<svg xmlns="http://www.w3.org/2000/svg" width="385.67" height="307.674" viewBox="0 0 385.67 307.674">
  <g id="Job_hunt-bro" data-name="Job hunt-bro" transform="translate(-42.959 -83.5)">
    <g id="freepik--background-simple--inject-13" transform="translate(42.959 99.634)">
      <path id="Path_2253" data-name="Path 2253" d="M385.44,306.959s34.149-41.267,24.952-113.124-56.47-92.6-86.673-92.835-59.073,32.953-99.816,39.649S126.69,128.334,80.76,144.41s-49.9,112.747-12.471,150.813,116.876,36.568,164.168,27.012S350.639,350.875,385.44,306.959Z" transform="translate(-42.959 -100.999)" fill="#0761e9"/>
      <path id="Path_2254" data-name="Path 2254" d="M385.44,306.959s34.149-41.267,24.952-113.124-56.47-92.6-86.673-92.835-59.073,32.953-99.816,39.649S126.69,128.334,80.76,144.41s-49.9,112.747-12.471,150.813,116.876,36.568,164.168,27.012S350.639,350.875,385.44,306.959Z" transform="translate(-42.959 -100.999)" fill="#fff" opacity="0.7"/>
    </g>
    <g id="freepik--Clouds--inject-13" transform="translate(57.997 87.098)">
      <path id="Path_2255" data-name="Path 2255" d="M261.265,113.8c-4.405-2.4-6.438-.4-8.011-2.4s4.405-7.21-7.606-12.407c0,0-.8-11.211-17.208-11.616S216.429,98.59,212.024,101.4s-5.6-1.6-10.006,1.2-2.4,8.406-6.006,9.2-8.406-3.6-12.8-.8-4.405,5.206-6.438,5.206-6.006-1.6-8.406,0-5.206,3.605-5.206,3.605H264.466S265.661,116.2,261.265,113.8Z" transform="translate(-67.648 -87.369)" fill="#0761e9"/>
      <path id="Path_2256" data-name="Path 2256" d="M261.265,113.8c-4.405-2.4-6.438-.4-8.011-2.4s4.405-7.21-7.606-12.407c0,0-.8-11.211-17.208-11.616S216.429,98.59,212.024,101.4s-5.6-1.6-10.006,1.2-2.4,8.406-6.006,9.2-8.406-3.6-12.8-.8-4.405,5.206-6.438,5.206-6.006-1.6-8.406,0-5.206,3.605-5.206,3.605H264.466S265.661,116.2,261.265,113.8Z" transform="translate(-67.648 -87.369)" fill="#0761e9"/>
      <path id="Path_2257" data-name="Path 2257" d="M261.265,113.8c-4.405-2.4-6.438-.4-8.011-2.4s4.405-7.21-7.606-12.407c0,0-.8-11.211-17.208-11.616S216.429,98.59,212.024,101.4s-5.6-1.6-10.006,1.2-2.4,8.406-6.006,9.2-8.406-3.6-12.8-.8-4.405,5.206-6.438,5.206-6.006-1.6-8.406,0-5.206,3.605-5.206,3.605H264.466S265.661,116.2,261.265,113.8Z" transform="translate(-67.648 -87.369)" fill="#fff" opacity="0.7"/>
      <path id="Path_2258" data-name="Path 2258" d="M398.686,161.723c-2.428-1.334-3.532-.221-4.415-1.334s2.428-3.973-4.2-6.852c0,0-.441-6.19-9.51-6.438s-6.631,6.19-9.059,7.744-3.1-.92-5.518.662-1.324,4.6-3.32,5.086-4.645-2-7.073-.451-2.428,2.879-3.541,2.879-3.311-.92-4.6,0-2.879,1.987-2.879,1.987h55.937S401.123,163,398.686,161.723Z" transform="translate(-82.215 -92.164)" fill="#fff" opacity="0.8"/>
      <path id="Path_2259" data-name="Path 2259" d="M113.472,216.353c-2.428-1.324-3.541-.221-4.424-1.324s2.437-3.982-4.194-6.861c0,0-.441-6.19-9.51-6.438s-6.631,6.19-9.068,7.744-3.09-.92-5.518.662-1.334,4.6-3.32,5.086-4.6-2-7.073-.441-2.437,2.869-3.541,2.869-3.311-.92-4.645,0-2.869,1.987-2.869,1.987h55.927S115.909,217.677,113.472,216.353Z" transform="translate(-59.31 -96.551)" fill="#fff" opacity="0.8"/>
    </g>
    <g id="freepik--Buildings--inject-13" transform="translate(165.18 84)">
      <path id="Path_2260" data-name="Path 2260" d="M252.961,292.133,251.48,138.974l30.212-.294-.883,158.493Z" transform="translate(-181.923 -88.39)" fill="#fff" stroke="#263238" stroke-linecap="round" stroke-linejoin="round" stroke-width="1"/>
      <line id="Line_67" data-name="Line 67" x2="0.239" y2="62.54" transform="translate(73.199 53.766)" fill="none" stroke="#263238" stroke-linecap="round" stroke-linejoin="round" stroke-width="0.75"/>
      <line id="Line_68" data-name="Line 68" y2="76.087" transform="translate(77.632 54.005)" fill="none" stroke="#263238" stroke-linecap="round" stroke-linejoin="round" stroke-width="0.75"/>
      <line id="Line_69" data-name="Line 69" x2="0.497" y2="77.311" transform="translate(82.553 53.766)" fill="none" stroke="#263238" stroke-linecap="round" stroke-linejoin="round" stroke-width="0.75"/>
      <line id="Line_70" data-name="Line 70" y2="75.591" transform="translate(88.706 54.502)" fill="none" stroke="#263238" stroke-linecap="round" stroke-linejoin="round" stroke-width="0.75"/>
      <line id="Line_71" data-name="Line 71" y2="131.739" transform="translate(94.371 54.75)" fill="none" stroke="#263238" stroke-linecap="round" stroke-linejoin="round" stroke-width="0.75"/>
      <line id="Line_72" data-name="Line 72" x2="26.589" y2="0.248" transform="translate(70.983 60.655)" fill="none" stroke="#263238" stroke-linecap="round" stroke-linejoin="round" stroke-width="0.75"/>
      <line id="Line_73" data-name="Line 73" x2="26.101" y2="0.736" transform="translate(71.231 70.505)" fill="none" stroke="#263238" stroke-linecap="round" stroke-linejoin="round" stroke-width="0.75"/>
      <line id="Line_74" data-name="Line 74" x2="25.117" y2="1.232" transform="translate(71.719 80.603)" fill="none" stroke="#263238" stroke-linecap="round" stroke-linejoin="round" stroke-width="0.75"/>
      <line id="Line_75" data-name="Line 75" x2="25.862" y2="1.72" transform="translate(71.47 90.701)" fill="none" stroke="#263238" stroke-linecap="round" stroke-linejoin="round" stroke-width="0.75"/>
      <line id="Line_76" data-name="Line 76" x2="24.869" y2="2.704" transform="translate(71.719 100.552)" fill="none" stroke="#263238" stroke-linecap="round" stroke-linejoin="round" stroke-width="0.75"/>
      <path id="Path_2261" data-name="Path 2261" d="M284.253,138.68l23.407.294-1.775,142.5-22.514,15.7Z" transform="translate(-184.483 -88.39)" fill="#263238" stroke="#263238" stroke-linecap="round" stroke-linejoin="round" stroke-width="1"/>
      <line id="Line_77" data-name="Line 77" y2="76.087" transform="translate(120.767 54.005)" fill="none" stroke="#fff" stroke-linecap="round" stroke-linejoin="round" stroke-width="0.75"/>
      <line id="Line_78" data-name="Line 78" x2="0.055" y2="87.087" transform="translate(115.846 53.766)" fill="none" stroke="#fff" stroke-linecap="round" stroke-linejoin="round" stroke-width="0.75"/>
      <line id="Line_79" data-name="Line 79" x2="0.12" y2="89.543" transform="translate(109.693 54.502)" fill="none" stroke="#fff" stroke-linecap="round" stroke-linejoin="round" stroke-width="0.75"/>
      <line id="Line_80" data-name="Line 80" y2="131.739" transform="translate(104.028 54.75)" fill="none" stroke="#fff" stroke-linecap="round" stroke-linejoin="round" stroke-width="0.75"/>
      <line id="Line_81" data-name="Line 81" x1="21.733" y2="0.304" transform="translate(100.827 60.599)" fill="none" stroke="#fff" stroke-linecap="round" stroke-linejoin="round" stroke-width="0.75"/>
      <line id="Line_82" data-name="Line 82" x1="21.494" y2="0.212" transform="translate(101.067 71.029)" fill="none" stroke="#fff" stroke-linecap="round" stroke-linejoin="round" stroke-width="0.75"/>
      <line id="Line_83" data-name="Line 83" x1="21.576" y2="1.251" transform="translate(101.563 80.585)" fill="none" stroke="#fff" stroke-linecap="round" stroke-linejoin="round" stroke-width="0.75"/>
      <line id="Line_84" data-name="Line 84" x1="21.208" y2="1.113" transform="translate(101.067 91.308)" fill="none" stroke="#fff" stroke-linecap="round" stroke-linejoin="round" stroke-width="0.75"/>
      <line id="Line_85" data-name="Line 85" x1="20.463" y2="2.097" transform="translate(101.811 101.159)" fill="none" stroke="#fff" stroke-linecap="round" stroke-linejoin="round" stroke-width="0.75"/>
      <line id="Line_86" data-name="Line 86" x1="20.463" y2="2.097" transform="translate(101.232 111.303)" fill="none" stroke="#fff" stroke-linecap="round" stroke-linejoin="round" stroke-width="0.75"/>
      <line id="Line_87" data-name="Line 87" x1="21.043" y2="3.256" transform="translate(100.653 120.279)" fill="none" stroke="#fff" stroke-linecap="round" stroke-linejoin="round" stroke-width="0.75"/>
      <line id="Line_88" data-name="Line 88" x1="20.693" y2="3.587" transform="translate(100.073 130.092)" fill="none" stroke="#fff" stroke-linecap="round" stroke-linejoin="round" stroke-width="0.75"/>
      <rect id="Rectangle_526" data-name="Rectangle 526" width="2.051" height="32.3" transform="translate(96.201)" fill="#fff" stroke="#263238" stroke-linecap="round" stroke-linejoin="round" stroke-width="1"/>
      <path id="Path_2262" data-name="Path 2262" d="M267.381,124.595l-.1-7.735,25.347.4.2,7.845Z" transform="translate(-183.191 -86.638)" fill="#fff" stroke="#263238" stroke-linecap="round" stroke-linejoin="round" stroke-width="1"/>
      <path id="Path_2263" data-name="Path 2263" d="M282.44,124.832V117.3h11.4l.2,7.845Z" transform="translate(-184.408 -86.674)" fill="#263238" stroke="#263238" stroke-linecap="round" stroke-linejoin="round" stroke-width="1"/>
      <path id="Path_2264" data-name="Path 2264" d="M251.48,138.354l6.217-7.109,24-.294v7.109Z" transform="translate(-181.923 -87.77)" fill="#fff" stroke="#263238" stroke-linecap="round" stroke-linejoin="round" stroke-width="1"/>
      <path id="Path_2265" data-name="Path 2265" d="M284.33,130.95l18.072.589,5.334,6.815-23.407-.294Z" transform="translate(-184.56 -87.77)" fill="#263238" stroke="#263238" stroke-linecap="round" stroke-linejoin="round" stroke-width="1"/>
      <path id="Path_2266" data-name="Path 2266" d="M258.24,130.788v-5.334l23.986-.184.009,5.224Z" transform="translate(-182.465 -87.314)" fill="#fff" stroke="#263238" stroke-linecap="round" stroke-linejoin="round" stroke-width="1"/>
      <path id="Path_2267" data-name="Path 2267" d="M284.32,125.27l18.118.616-.037,5.2-18.072-.589Z" transform="translate(-184.559 -87.314)" fill="#263238" stroke="#263238" stroke-linecap="round" stroke-linejoin="round" stroke-width="1"/>
      <path id="Path_2268" data-name="Path 2268" d="M380.688,281.838l18.008,4.047,1.352-35.556L414,244.02l19.36,4.507-.9,57.62,10.356,1.8-.9,94.96-50.869-16.178L350.08,374.572Z" transform="translate(-189.84 -96.849)" fill="#263238"/>
      <path id="Path_2269" data-name="Path 2269" d="M305.99,196.315l51.973,4.405,17.033-4.7-52.561-4.111Z" transform="translate(-186.299 -92.664)" fill="#fff" stroke="#263238" stroke-linecap="round" stroke-linejoin="round" stroke-width="1"/>
      <path id="Path_2270" data-name="Path 2270" d="M362.372,201.08,360.9,287.4l17.033-7.928,1.471-83.1Z" transform="translate(-190.708 -93.023)" fill="#263238" stroke="#263238" stroke-linecap="round" stroke-linejoin="round" stroke-width="1"/>
      <path id="Path_2271" data-name="Path 2271" d="M305.964,196.7l-.294,79.867,50.8,10.862,1.472-86.324Z" transform="translate(-186.274 -93.049)" fill="#fff" stroke="#263238" stroke-linecap="round" stroke-linejoin="round" stroke-width="1"/>
      <path id="Path_2272" data-name="Path 2272" d="M349.98,221.58l-38.71-3.752V201.77l38.71,3.752Z" transform="translate(-186.723 -93.456)" fill="#0761e9" stroke="#263238" stroke-miterlimit="10" stroke-width="1"/>
      <text id="WANTED" transform="translate(128.961 120.512)" fill="#263238" font-size="9" font-family="SegoeUI-Bold, Segoe UI" font-weight="700"><tspan x="0" y="0" letter-spacing="-0.009em">W</tspan><tspan y="0">ANTED</tspan></text>
      <path id="Path_2273" data-name="Path 2273" d="M295.93,244.019l33.477,4.185,20.04-8.811-31.932-3.743Z" transform="translate(-185.492 -96.177)" fill="#fff" stroke="#263238" stroke-linecap="round" stroke-linejoin="round" stroke-width="1"/>
      <path id="Path_2274" data-name="Path 2274" d="M302.69,243.659l25.7,3.21,15.387-6.76-24.51-2.879Z" transform="translate(-186.034 -96.303)" fill="#fff" stroke="#263238" stroke-linecap="round" stroke-linejoin="round" stroke-width="0.75"/>
      <path id="Path_2275" data-name="Path 2275" d="M295.854,244.75l-.874,67.828,32.585,8.8,1.766-72.445Z" transform="translate(-185.415 -96.907)" fill="#fff" stroke="#263238" stroke-linecap="round" stroke-linejoin="round" stroke-width="1"/>
      <path id="Path_2276" data-name="Path 2276" d="M332.176,248.531l20.04-8.811-1.324,72.234-20.482,9.022Z" transform="translate(-188.26 -96.503)" fill="#263238" stroke="#263238" stroke-linecap="round" stroke-linejoin="round" stroke-width="1"/>
      <path id="Path_2277" data-name="Path 2277" d="M206.541,331.884l-2.851-84.07L175.85,242.82l2.676,81.9Z" transform="translate(-175.85 -96.752)" fill="#fff" stroke="#263238" stroke-linecap="round" stroke-linejoin="round" stroke-width="1"/>
      <line id="Line_89" data-name="Line 89" x2="25.117" y2="6.162" transform="translate(2.033 175.894)" fill="none" stroke="#263238" stroke-linecap="round" stroke-linejoin="round" stroke-width="0.75"/>
      <line id="Line_90" data-name="Line 90" x2="24.133" y2="6.153" transform="translate(3.265 178.855)" fill="none" stroke="#263238" stroke-linecap="round" stroke-linejoin="round" stroke-width="0.75"/>
      <line id="Line_91" data-name="Line 91" x2="24.133" y2="6.153" transform="translate(3.513 194.61)" fill="none" stroke="#263238" stroke-linecap="round" stroke-linejoin="round" stroke-width="0.75"/>
      <line id="Line_92" data-name="Line 92" x2="25.117" y2="6.649" transform="translate(2.281 192.145)" fill="none" stroke="#263238" stroke-linecap="round" stroke-linejoin="round" stroke-width="0.75"/>
      <path id="Path_2278" data-name="Path 2278" d="M206.12,247.69l22.846-6.42,1.067,72.841L208.971,331.76Z" transform="translate(-178.28 -96.628)" fill="#263238" stroke="#263238" stroke-linecap="round" stroke-linejoin="round" stroke-width="1"/>
      <path id="Path_2279" data-name="Path 2279" d="M175.85,242.166l31.767-7.5,18.918,6.07-22.846,6.42Z" transform="translate(-175.85 -96.098)" fill="#fff" stroke="#263238" stroke-linecap="round" stroke-linejoin="round" stroke-width="1"/>
      <path id="Path_2280" data-name="Path 2280" d="M178.37,247.87l23.324,3.844.322,16.932-23.066-4.369Z" transform="translate(-176.052 -97.158)" fill="#0761e9" stroke="#263238" stroke-linecap="round" stroke-linejoin="round" stroke-width="1"/>
      <g id="Group" transform="translate(5.803 153.297)">
        <text id="WE_ARE" data-name="WE ARE" transform="translate(0 5)" fill="#263238" font-size="5" font-family="SegoeUI-Bold, Segoe UI" font-weight="700"><tspan x="0" y="0">WE ARE</tspan></text>
        <text id="HIRING" transform="translate(0.223 11.565)" fill="#263238" font-size="5" font-family="SegoeUI-Bold, Segoe UI" font-weight="700"><tspan x="0" y="0">HIRING</tspan></text>
      </g>
      <path id="Path_2281" data-name="Path 2281" d="M212.33,209.84l3.513,118.946,29.615,8.2-1.72-122.873Z" transform="translate(-178.779 -94.104)" fill="#fff" stroke="#263238" stroke-linecap="round" stroke-linejoin="round" stroke-width="1"/>
      <line id="Line_93" data-name="Line 93" x2="2.851" y2="101.407" transform="translate(37.828 125.172)" fill="none" stroke="#263238" stroke-linecap="round" stroke-linejoin="round" stroke-width="0.75"/>
      <line id="Line_94" data-name="Line 94" x2="0.092" y2="3.026" transform="translate(37.653 119.12)" fill="none" stroke="#263238" stroke-linecap="round" stroke-linejoin="round" stroke-width="0.75"/>
      <line id="Line_95" data-name="Line 95" x2="2.198" y2="106.98" transform="translate(42.5 120.307)" fill="none" stroke="#263238" stroke-linecap="round" stroke-linejoin="round" stroke-width="0.75"/>
      <line id="Line_96" data-name="Line 96" x2="1.527" y2="107.219" transform="translate(47.42 121.484)" fill="none" stroke="#263238" stroke-linecap="round" stroke-linejoin="round" stroke-width="0.75"/>
      <line id="Line_97" data-name="Line 97" x2="1.527" y2="107.091" transform="translate(52.147 122.082)" fill="none" stroke="#263238" stroke-linecap="round" stroke-linejoin="round" stroke-width="0.75"/>
      <line id="Line_98" data-name="Line 98" x2="1.37" y2="107.652" transform="translate(57.261 123.655)" fill="none" stroke="#263238" stroke-linecap="round" stroke-linejoin="round" stroke-width="0.75"/>
      <line id="Line_99" data-name="Line 99" x2="1.15" y2="91.216" transform="translate(62.448 140.32)" fill="none" stroke="#263238" stroke-linecap="round" stroke-linejoin="round" stroke-width="0.75"/>
      <line id="Line_100" data-name="Line 100" x2="0.12" y2="12.223" transform="translate(62.283 123.774)" fill="none" stroke="#263238" stroke-linecap="round" stroke-linejoin="round" stroke-width="0.75"/>
      <path id="Path_2282" data-name="Path 2282" d="M276.759,207.51l33.79,75.388V354.12L272.4,338.347Z" transform="translate(-183.602 -93.917)" fill="#263238"/>
      <line id="Line_101" data-name="Line 101" y2="22.386" transform="translate(110.668 160.489)" fill="none" stroke="#fff" stroke-linecap="round" stroke-linejoin="round" stroke-width="0.75"/>
      <path id="Path_2283" data-name="Path 2283" d="M246.48,213.93l28.2-6.42v136.2l-27.122-6.833Z" transform="translate(-181.521 -93.917)" fill="#263238" stroke="#263238" stroke-linecap="round" stroke-linejoin="round" stroke-width="1"/>
      <line id="Line_102" data-name="Line 102" x2="0.828" y2="112.857" transform="translate(87.473 125.751)" fill="none" stroke="#fff" stroke-linecap="round" stroke-linejoin="round" stroke-width="0.75"/>
      <line id="Line_103" data-name="Line 103" x2="0.018" y2="3.339" transform="translate(87.437 118.808)" fill="none" stroke="#fff" stroke-linecap="round" stroke-linejoin="round" stroke-width="0.75"/>
      <line id="Line_104" data-name="Line 104" x2="1.048" y2="117.401" transform="translate(82.516 120.5)" fill="none" stroke="#fff" stroke-linecap="round" stroke-linejoin="round" stroke-width="0.75"/>
      <line id="Line_105" data-name="Line 105" x2="0.681" y2="116.315" transform="translate(77.789 121.585)" fill="none" stroke="#fff" stroke-linecap="round" stroke-linejoin="round" stroke-width="0.75"/>
      <line id="Line_106" data-name="Line 106" x2="0.892" y2="111.754" transform="translate(72.666 123.691)" fill="none" stroke="#fff" stroke-linecap="round" stroke-linejoin="round" stroke-width="0.75"/>
      <line id="Line_107" data-name="Line 107" x2="1.334" y2="109.877" transform="translate(67.654 124.335)" fill="none" stroke="#fff" stroke-linecap="round" stroke-linejoin="round" stroke-width="0.75"/>
      <path id="Path_2284" data-name="Path 2284" d="M212.33,209.372l30.7-5.362,28.906,3.219-28.2,6.42Z" transform="translate(-178.779 -93.636)" fill="#fff" stroke="#263238" stroke-linecap="round" stroke-linejoin="round" stroke-width="1"/>
      <path id="Path_2285" data-name="Path 2285" d="M219.09,209.341l24.289-4.231,22.882,2.538-22.312,5.086Z" transform="translate(-179.322 -93.724)" fill="#fff" stroke="#263238" stroke-linecap="round" stroke-linejoin="round" stroke-width="0.75"/>
      <path id="Path_2286" data-name="Path 2286" d="M248.6,236.519l25.237-7.459v15.2L248.6,252.577Z" transform="translate(-181.691 -95.647)" fill="#0761e9" stroke="#263238" stroke-miterlimit="10" stroke-width="1"/>
      <text id="JOB" transform="translate(72.114 149.614) rotate(-0.481)" fill="#263238" font-size="8" font-family="SegoeUI-Bold, Segoe UI" font-weight="700"><tspan x="0" y="0">JOB</tspan></text>
      <path id="Path_2287" data-name="Path 2287" d="M304.918,278.52l-28.548,12.5,38.637,8.02,22.744-15.515Z" transform="translate(-183.921 -99.619)" fill="#fff" stroke="#263238" stroke-linecap="round" stroke-linejoin="round" stroke-width="1"/>
      <path id="Path_2288" data-name="Path 2288" d="M305.584,280.07,281,290.831l33.275,6.907,19.59-13.363Z" transform="translate(-184.293 -99.743)" fill="#fff" stroke="#263238" stroke-linecap="round" stroke-linejoin="round" stroke-width="0.75"/>
      <path id="Path_2289" data-name="Path 2289" d="M276.37,292.11l.708,58.392,37.478,9.28.451-59.652Z" transform="translate(-183.921 -100.71)" fill="#fff" stroke="#263238" stroke-linecap="round" stroke-linejoin="round" stroke-width="1"/>
      <path id="Path_2290" data-name="Path 2290" d="M282.841,346.177l-.331-9.767,22.147,5.859v9.767Z" transform="translate(-184.414 -104.267)" fill="#263238"/>
      <path id="Path_2291" data-name="Path 2291" d="M279.78,301.08l26.092,5.739.359,18.964-25.807-6.309Z" transform="translate(-184.195 -101.43)" fill="#0761e9" stroke="#263238" stroke-linecap="round" stroke-linejoin="round" stroke-width="1"/>
      <g id="Group-2" data-name="Group" transform="translate(99.144 201.526)">
        <text id="WE_ARE-2" data-name="WE ARE" transform="translate(0 6)" fill="#263238" font-size="6" font-family="SegoeUI-Bold, Segoe UI" font-weight="700"><tspan x="0" y="0">WE ARE</tspan></text>
        <text id="HIRING-2" data-name="HIRING" transform="translate(0.258 12.584)" fill="#263238" font-size="6" font-family="SegoeUI-Bold, Segoe UI" font-weight="700"><tspan x="0" y="0">HIRING</tspan></text>
      </g>
      <path id="Path_2292" data-name="Path 2292" d="M318.607,264.94l-.717,92.66,38.9,10.705,2.86-96.229Z" transform="translate(-187.255 -98.528)" fill="#fff" stroke="#263238" stroke-linecap="round" stroke-linejoin="round" stroke-width="1"/>
      <line id="Line_108" data-name="Line 108" x1="0.892" y2="80.769" transform="translate(135.546 170.587)" fill="none" stroke="#263238" stroke-linecap="round" stroke-linejoin="round" stroke-width="0.75"/>
      <line id="Line_109" data-name="Line 109" x1="0.46" y2="81.771" transform="translate(141.083 171.866)" fill="none" stroke="#263238" stroke-linecap="round" stroke-linejoin="round" stroke-width="0.75"/>
      <line id="Line_110" data-name="Line 110" x1="0.258" y2="82.59" transform="translate(147.926 173.65)" fill="none" stroke="#263238" stroke-linecap="round" stroke-linejoin="round" stroke-width="0.75"/>
      <line id="Line_111" data-name="Line 111" x1="0.763" y2="83.335" transform="translate(155.09 175.186)" fill="none" stroke="#263238" stroke-linecap="round" stroke-linejoin="round" stroke-width="0.75"/>
      <line id="Line_112" data-name="Line 112" x1="2.281" y2="83.427" transform="translate(162.255 176.722)" fill="none" stroke="#263238" stroke-linecap="round" stroke-linejoin="round" stroke-width="0.75"/>
      <path id="Path_2293" data-name="Path 2293" d="M359.716,271.111l21.769-12.49-39.262-5.711L318.67,263.974Z" transform="translate(-187.318 -97.562)" fill="#fff" stroke="#263238" stroke-linecap="round" stroke-linejoin="round" stroke-width="1"/>
      <path id="Path_2294" data-name="Path 2294" d="M358.318,269.441l17.392-9.979-31.353-4.553-18.817,8.829Z" transform="translate(-187.869 -97.723)" fill="#fff" stroke="#263238" stroke-linecap="round" stroke-linejoin="round" stroke-width="0.75"/>
      <path id="Path_2295" data-name="Path 2295" d="M384.82,259.12l-3.568,111.459-21.061-2.741,2.86-96.229Z" transform="translate(-190.651 -98.061)" fill="#263238" stroke="#263238" stroke-linecap="round" stroke-linejoin="round" stroke-width="1"/>
      <line id="Line_113" data-name="Line 113" x1="2.299" y2="89.975" transform="translate(174.358 176.032)" fill="none" stroke="#fff" stroke-linecap="round" stroke-linejoin="round" stroke-width="0.75"/>
      <line id="Line_114" data-name="Line 114" x1="2.042" y2="88.678" transform="translate(180.373 172.123)" fill="none" stroke="#fff" stroke-linecap="round" stroke-linejoin="round" stroke-width="0.75"/>
      <line id="Line_115" data-name="Line 115" x1="1.536" y2="91.06" transform="translate(187.004 167.782)" fill="none" stroke="#fff" stroke-linecap="round" stroke-linejoin="round" stroke-width="0.75"/>
      <path id="Path_2296" data-name="Path 2296" d="M327.8,290.79v18.357l-8.884-1.435.8-5.4-9.694,7.974,9.464,8.323.285-4.019,14.908,3.44.57-23.793Z" transform="translate(-186.623 -100.604)" fill="#0761e9" stroke="#263238" stroke-linecap="round" stroke-linejoin="round" stroke-width="1"/>
      <path id="Path_2297" data-name="Path 2297" d="M322.309,315.974a1.085,1.085,0,1,1-.315-.773,1.094,1.094,0,0,1,.315.773Z" transform="translate(-187.434 -102.538)" fill="#fff" stroke="#263238" stroke-linecap="round" stroke-linejoin="round" stroke-width="1"/>
      <circle id="Ellipse_77" data-name="Ellipse 77" cx="1.094" cy="1.094" r="1.094" transform="translate(137.165 213.491)" fill="#fff" stroke="#263238" stroke-linecap="round" stroke-linejoin="round" stroke-width="1"/>
      <path id="Path_2298" data-name="Path 2298" d="M332.049,318.464a1.094,1.094,0,1,1-1.094-1.094,1.094,1.094,0,0,1,1.094,1.094Z" transform="translate(-188.216 -102.738)" fill="#fff" stroke="#263238" stroke-linecap="round" stroke-linejoin="round" stroke-width="1"/>
      <path id="Path_2299" data-name="Path 2299" d="M336.919,319.714a1.094,1.094,0,1,1-1.094-1.094A1.094,1.094,0,0,1,336.919,319.714Z" transform="translate(-188.607 -102.838)" fill="#fff" stroke="#263238" stroke-linecap="round" stroke-linejoin="round" stroke-width="1"/>
      <path id="Path_2300" data-name="Path 2300" d="M337.479,313.714a1.094,1.094,0,1,1-1.094-1.094A1.094,1.094,0,0,1,337.479,313.714Z" transform="translate(-188.652 -102.357)" fill="#fff" stroke="#263238" stroke-linecap="round" stroke-linejoin="round" stroke-width="1"/>
      <path id="Path_2301" data-name="Path 2301" d="M337.709,307.034a1.094,1.094,0,1,1-1.094-1.094A1.094,1.094,0,0,1,337.709,307.034Z" transform="translate(-188.67 -101.82)" fill="#fff" stroke="#263238" stroke-linecap="round" stroke-linejoin="round" stroke-width="1"/>
      <path id="Path_2302" data-name="Path 2302" d="M338.049,300.414a1.094,1.094,0,1,1-1.094-1.094A1.094,1.094,0,0,1,338.049,300.414Z" transform="translate(-188.698 -101.289)" fill="#fff" stroke="#263238" stroke-linecap="round" stroke-linejoin="round" stroke-width="1"/>
      <path id="Path_2303" data-name="Path 2303" d="M337.929,295.034a1.085,1.085,0,1,1-.315-.773A1.094,1.094,0,0,1,337.929,295.034Z" transform="translate(-188.688 -100.857)" fill="#fff" stroke="#263238" stroke-linecap="round" stroke-linejoin="round" stroke-width="1"/>
      <path id="Path_2304" data-name="Path 2304" d="M334.539,292.655a1.094,1.094,0,1,1-1.094-1.085,1.095,1.095,0,0,1,1.094,1.085Z" transform="translate(-188.416 -100.667)" fill="#fff" stroke="#263238" stroke-linecap="round" stroke-linejoin="round" stroke-width="1"/>
      <circle id="Ellipse_78" data-name="Ellipse 78" cx="1.094" cy="1.094" r="1.094" transform="translate(140.347 189.128)" fill="#fff" stroke="#263238" stroke-linecap="round" stroke-linejoin="round" stroke-width="1"/>
      <path id="Path_2305" data-name="Path 2305" d="M330.3,297.224a1.094,1.094,0,1,1-1.094-1.094A1.094,1.094,0,0,1,330.3,297.224Z" transform="translate(-188.076 -101.033)" fill="#fff" stroke="#263238" stroke-linecap="round" stroke-linejoin="round" stroke-width="1"/>
      <path id="Path_2306" data-name="Path 2306" d="M329.959,303.714a1.085,1.085,0,1,1-.318-.777,1.094,1.094,0,0,1,.318.777Z" transform="translate(-188.048 -101.554)" fill="#fff" stroke="#263238" stroke-linecap="round" stroke-linejoin="round" stroke-width="1"/>
      <path id="Path_2307" data-name="Path 2307" d="M329.629,310.194a1.094,1.094,0,1,1-1.094-1.094,1.094,1.094,0,0,1,1.094,1.094Z" transform="translate(-188.022 -102.074)" fill="#fff" stroke="#263238" stroke-linecap="round" stroke-linejoin="round" stroke-width="1"/>
      <path id="Path_2308" data-name="Path 2308" d="M321.249,309.175a1.094,1.094,0,1,1-1.094-1.085A1.094,1.094,0,0,1,321.249,309.175Z" transform="translate(-187.349 -101.993)" fill="#fff" stroke="#263238" stroke-linecap="round" stroke-linejoin="round" stroke-width="1"/>
      <path id="Path_2309" data-name="Path 2309" d="M321.479,303.4a1.094,1.094,0,1,1-1.094-1.094,1.094,1.094,0,0,1,1.094,1.094Z" transform="translate(-187.367 -101.529)" fill="#fff" stroke="#263238" stroke-linecap="round" stroke-linejoin="round" stroke-width="1"/>
      <path id="Path_2310" data-name="Path 2310" d="M311.449,311.784a1.094,1.094,0,1,1-1.094-1.094A1.094,1.094,0,0,1,311.449,311.784Z" transform="translate(-186.562 -102.202)" fill="#fff" stroke="#263238" stroke-linecap="round" stroke-linejoin="round" stroke-width="1"/>
      <path id="Path_2311" data-name="Path 2311" d="M321.3,321.744a1.094,1.094,0,1,1-1.094-1.094A1.094,1.094,0,0,1,321.3,321.744Z" transform="translate(-187.353 -103.001)" fill="#fff" stroke="#263238" stroke-linecap="round" stroke-linejoin="round" stroke-width="1"/>
      <path id="Path_2312" data-name="Path 2312" d="M315.179,315.974a1.085,1.085,0,1,1-.315-.773A1.094,1.094,0,0,1,315.179,315.974Z" transform="translate(-186.861 -102.538)" fill="#fff" stroke="#263238" stroke-linecap="round" stroke-linejoin="round" stroke-width="1"/>
      <path id="Path_2313" data-name="Path 2313" d="M315.979,307.824a1.094,1.094,0,1,1-1.094-1.094,1.094,1.094,0,0,1,1.094,1.094Z" transform="translate(-186.926 -101.884)" fill="#fff" stroke="#263238" stroke-linecap="round" stroke-linejoin="round" stroke-width="1"/>
    </g>
    <g id="freepik--Character--inject-13" transform="translate(61.538 122.838)">
      <path id="Path_2314" data-name="Path 2314" d="M63.16,342.581l83.27-37.211,235.2,66.1-48.588,36.779" transform="translate(-63.16 -140.612)" fill="#fff" stroke="#263238" stroke-linecap="round" stroke-linejoin="round" stroke-width="1"/>
      <path id="Path_2315" data-name="Path 2315" d="M82.6,348.289l67.451-30.139L340.559,371.7l-39.354,29.78" transform="translate(-64.721 -141.638)" fill="#fff" stroke="#263238" stroke-linecap="round" stroke-linejoin="round" stroke-width="1"/>
      <path id="Path_2316" data-name="Path 2316" d="M155.94,318.15v8.415l181.8,51.384,8.71-6.254-187.62-52.46" transform="translate(-70.61 -141.638)" fill="#263238"/>
      <path id="Path_2317" data-name="Path 2317" d="M82.6,357.439,150.051,327.3,331.4,378.261" transform="translate(-64.721 -142.373)" fill="none" stroke="#263238" stroke-linecap="round" stroke-linejoin="round" stroke-width="1"/>
      <path id="Path_2318" data-name="Path 2318" d="M453.86,413.605,405.235,377.24,357.18,413.605Z" transform="translate(-86.768 -146.383)" fill="#263238"/>
      <ellipse id="Ellipse_79" data-name="Ellipse 79" cx="32.861" cy="15.148" rx="32.861" ry="15.148" transform="translate(38.968 203.992)" fill="#0761e9"/>
      <ellipse id="Ellipse_80" data-name="Ellipse 80" cx="32.861" cy="15.148" rx="32.861" ry="15.148" transform="translate(38.968 203.992)" fill="#fff" opacity="0.5"/>
      <path id="Path_2319" data-name="Path 2319" d="M149,166.109s2.3,5.518,1.839,8.277-6.659,5.058-7.578,5.518-5.739-1.609-5.739-6.9S146.239,161.749,149,166.109Z" transform="translate(-69.131 -129.309)" fill="#fff" stroke="#263238" stroke-linecap="round" stroke-linejoin="round" stroke-width="1"/>
      <path id="Path_2320" data-name="Path 2320" d="M147.07,149.867l12.931-1.5a4.6,4.6,0,0,1,5.077,4.13h0a4.6,4.6,0,0,1-4.451,4.976l-11.956.248Z" transform="translate(-69.897 -128.004)" fill="#263238"/>
      <path id="Path_2321" data-name="Path 2321" d="M148.725,146.964s2.759-.92,4.6,0,3.449,2.3,3.219,3.219-1.609.69-3.449.92-3.817,1.5-4.2.524S148.725,146.964,148.725,146.964Z" transform="translate(-70.025 -127.86)" fill="#fff" stroke="#263238" stroke-linecap="round" stroke-linejoin="round" stroke-width="1"/>
      <path id="Path_2322" data-name="Path 2322" d="M156.11,151.3l13.014-.331a4.6,4.6,0,0,1,4.681,4.6h0a4.6,4.6,0,0,1-4.884,4.6l-11.956-.837Z" transform="translate(-70.623 -128.215)" fill="#263238"/>
      <path id="Path_2323" data-name="Path 2323" d="M150.5,151.33l6.64.147a3.835,3.835,0,0,1,1.481,2.759,17.906,17.906,0,0,1-.6,4.727h-7.082a6.107,6.107,0,0,1-2.06-2.952C148.293,154.126,150.5,151.33,150.5,151.33Z" transform="translate(-70.035 -128.244)" fill="#263238"/>
      <path id="Path_2324" data-name="Path 2324" d="M148,183.462s8.36,1,12.637,1.4,13.943-5.04,19.369-6.438c6.438-1.683,9.832,1.968,11.515,4.212s13.5,10.374,13.5,10.374l2.244,6.18-9.547,3.09s-3.679-4.5-9.271-11.515-8.093-10.586-12.609-7.818-10.972,7.818-16.03,6.7S148,183.462,148,183.462Z" transform="translate(-69.972 -130.385)" fill="#263238"/>
      <path id="Path_2325" data-name="Path 2325" d="M150.756,357.27l.662.221,13.593,4.451s1.72.975,1.223,2.456-14.715,3.191-20.39,3.191-9.335-.487-9.335-2.7S150.756,357.27,150.756,357.27Z" transform="translate(-69.05 -144.779)" fill="#0761e9" stroke="#263238" stroke-linecap="round" stroke-linejoin="round" stroke-width="1"/>
      <path id="Path_2326" data-name="Path 2326" d="M166.275,364.844a1.839,1.839,0,0,0-.423-1.784,76.337,76.337,0,0,1-16.408,2.612,96.72,96.72,0,0,1-12.784.258c.635,1.7,4.12,2.106,9.2,2.106C151.532,368.054,165.787,366.334,166.275,364.844Z" transform="translate(-69.062 -145.244)" fill="#fff" stroke="#263238" stroke-linecap="round" stroke-linejoin="round" stroke-width="1"/>
      <path id="Path_2327" data-name="Path 2327" d="M124.248,348.061s7.119-2.952,8.351-.5-1.72,6.144-3.44,6.879-2.952,1.232-3.927,2.456-3.936,4.185-7.128,3.679-3.2-4.663-2.952-5.408S124.248,348.061,124.248,348.061Z" transform="translate(-67.327 -143.922)" fill="#0761e9" stroke="#263238" stroke-linecap="round" stroke-linejoin="round" stroke-width="1"/>
      <path id="Path_2328" data-name="Path 2328" d="M132.023,347c-.2,2-.782,4.185-2.244,5-2.952,1.637-4.258,1.306-6.879,4.6a7.036,7.036,0,0,1-6.7,2.354l-.294.212a3.118,3.118,0,0,0,2.262,1.508c3.191.5,6.144-2.456,7.128-3.679s2.207-1.72,3.927-2.456,4.672-4.424,3.44-6.879a1.434,1.434,0,0,0-.644-.662Z" transform="translate(-67.395 -143.955)" fill="#fff" stroke="#263238" stroke-linecap="round" stroke-linejoin="round" stroke-width="1"/>
      <path id="Path_2329" data-name="Path 2329" d="M118.392,236.51s-1.968,8.112-.487,11.791,1.72,9.583,1.968,11.552-2.465,18.394-3.449,27.03-5.16,18.183-3.44,24.326.248,28.511.745,31.941,1.472,6.438,2.207,6.879a7.809,7.809,0,0,0,5.656-.248c2.216-.984,3.679-8.351,4.175-10.558s2.456-28.014,3.191-31.951,2.952-21.622,2.952-21.622,1.959,14.5,1.472,18.394-2.216,11.552-1.472,18.394,1.959,32.429,1.959,32.429a10.272,10.272,0,0,0,3.44,1.232c1.232,0,10.567-6.392,11.552-8.6s0-6.144,0-6.144,1.72-39.069,3.44-52.341-2.207-49.388-2.207-49.388S130.679,244.125,118.392,236.51Z" transform="translate(-67.128 -135.083)" fill="#263238"/>
      <path id="Path_2330" data-name="Path 2330" d="M132.579,284.358l-3.191-17.934-5.408-9.344" transform="translate(-68.043 -136.735)" fill="none" stroke="#fff" stroke-linecap="round" stroke-linejoin="round" stroke-width="1"/>
      <path id="Path_2331" data-name="Path 2331" d="M149.358,144.859a21.154,21.154,0,0,1,1.159,4.884c0,1.619-.92,2.759-.7,3.946s2.088,3.017.469,6.033-.239,7.431-2.557,8.36a14.955,14.955,0,0,1-4.874.92l-.7,5.1-11.607-3.679v-9.307s4.874.23,6.732-2.1,1.389-7.192,2.318-10.448,4.645-5.334,6.272-5.334S149.358,144.859,149.358,144.859Z" transform="translate(-68.571 -127.594)" fill="#fff" stroke="#263238" stroke-linecap="round" stroke-linejoin="round" stroke-width="1"/>
      <path id="Path_2332" data-name="Path 2332" d="M151.828,139.29a6.934,6.934,0,0,1-3.329,4.2c-2.327,1.4-5.343.92-5.343,2.1s2.088.92,1.389,3.946a10.117,10.117,0,0,1-2.759,4.874s2.1,2.557,0,3.017-2.548,3.486-5.1,4.185-4.874,2.548-6.962.69-8.829-9.519-9.758-14.623,4.185-10.448,4.185-10.448-.23-3.017,1.628-4.185,6.824-1.554,7.293-3.412c1.95-7.726,15.35-.451,17.7,3.633a8.461,8.461,0,0,1,1.058,6.024Z" transform="translate(-67.712 -126.228)" fill="#263238"/>
      <path id="Path_2333" data-name="Path 2333" d="M148.354,138.58a5.656,5.656,0,0,1-2.759,4.985c-2.98,1.655-9.611.331-11.956,3.476s-.662,8.112-4.139,8.94" transform="translate(-68.487 -127.22)" fill="none" stroke="#fff" stroke-linecap="round" stroke-linejoin="round" stroke-width="0.5"/>
      <path id="Path_2334" data-name="Path 2334" d="M143.549,149.92s-3.155.993-4.479,2.98-1.987,6.622-5.96,7.781" transform="translate(-68.777 -128.131)" fill="none" stroke="#fff" stroke-linecap="round" stroke-linejoin="round" stroke-width="0.5"/>
      <path id="Path_2335" data-name="Path 2335" d="M143.439,161.026s-1.839-5.573-4.415-4.175-.46,5.573.92,6.732,3.017-.46,3.017-.46" transform="translate(-69.154 -128.669)" fill="#fff" stroke="#263238" stroke-linecap="round" stroke-linejoin="round" stroke-width="1"/>
      <path id="Path_2336" data-name="Path 2336" d="M123.781,173.737a25.623,25.623,0,0,0-7.1,7.772c-2.759,4.874.828,27.527,1.757,33.56s-1.159,16.021.469,18.808,6.962,5.1,12.067,5.573,13-.23,16.021-1.159,4.645-3.486,4.645-4.645-.23-15.322-.23-18.348-.23-24.611-2.088-28.787a17.741,17.741,0,0,0-8.13-8.36C138.4,176.763,127.929,171.649,123.781,173.737Z" transform="translate(-67.375 -130.003)" fill="#0761e9" stroke="#263238" stroke-linecap="round" stroke-linejoin="round" stroke-width="1"/>
      <path id="Path_2337" data-name="Path 2337" d="M146.051,203.79s-2.483,2.253-9.491,3.164" transform="translate(-69.054 -132.456)" fill="none" stroke="#263238" stroke-miterlimit="10" stroke-width="1"/>
      <path id="Path_2338" data-name="Path 2338" d="M141.246,214.31a12.26,12.26,0,0,1-2.226,1.839" transform="translate(-69.251 -133.301)" fill="none" stroke="#263238" stroke-miterlimit="10" stroke-width="1"/>
      <path id="Path_2339" data-name="Path 2339" d="M147.495,203.79a35.968,35.968,0,0,1-4.185,7.643" transform="translate(-69.596 -132.456)" fill="none" stroke="#263238" stroke-miterlimit="10" stroke-width="1"/>
      <path id="Path_2340" data-name="Path 2340" d="M145.151,231.05a26.8,26.8,0,0,1-16.941,10.117s9.942.23,16.49-6.778" transform="translate(-68.383 -134.645)" fill="none" stroke="#263238" stroke-linecap="round" stroke-linejoin="round" stroke-width="1"/>
      <path id="Path_2341" data-name="Path 2341" d="M126.546,169.49s6.732.469,11.147,3.017,7.431,5.114,9.05,5.573,4.645.7,3.679.92-2.088.469-4.405,1.159-5.573-.69-10.448-3.017a43.554,43.554,0,0,0-11.147-3.679C123.493,173.463,124.689,169.49,126.546,169.49Z" transform="translate(-68.053 -129.702)" fill="#0761e9" stroke="#263238" stroke-linecap="round" stroke-linejoin="round" stroke-width="1"/>
      <path id="Path_2342" data-name="Path 2342" d="M169.68,194.74s7.716,5.16,8.848,8.995" transform="translate(-71.713 -131.729)" fill="none" stroke="#263238" stroke-linecap="round" stroke-linejoin="round" stroke-width="1"/>
      <path id="Path_2343" data-name="Path 2343" d="M168.082,182.811l-8.121-18.992a17.851,17.851,0,0,0-3.486-3.017,1.471,1.471,0,0,1-.469-2.327s2.327.469,2.327-.46a27.747,27.747,0,0,0-.469-4.6c-.23-.7-.92-1.168-.92-1.839s1.628-1.628,3.486-1.159,1.545.193,1.545.193c2.658-.589,3.173,0,4.5,2.354a12.977,12.977,0,0,1,1.159,5.8,22.665,22.665,0,0,1-1.4,4.645l9.988,19.314Z" transform="translate(-70.584 -128.161)" fill="#fff" stroke="#263238" stroke-linecap="round" stroke-linejoin="round" stroke-width="1"/>
      <path id="Path_2344" data-name="Path 2344" d="M169.879,190.739s-3.017,0-2.759-.7-.69-3.256-.69-4.415,2.088-2.557,4.6-3.017a14.956,14.956,0,0,1,6.272.7c.929.239,1.159,2.088,1.839,3.247s1.159,2.557.7,3.486A3.624,3.624,0,0,1,178,191.429Z" transform="translate(-71.452 -130.745)" fill="#0761e9" stroke="#263238" stroke-linecap="round" stroke-linejoin="round" stroke-width="1"/>
      <path id="Path_2345" data-name="Path 2345" d="M133.83,187.049s1.628-5.573,4.874-6.732,7.2.46,11.147,3.017,16.95,10.218,16.95,10.218l-1.4-5.573s8.36-2.557,10.448,1.389,3.486,18.348,3.486,20.234-4.874,3.477-7.891,3.247-29.725-13.464-29.725-13.464" transform="translate(-68.834 -130.541)" fill="#0761e9" stroke="#263238" stroke-linecap="round" stroke-linejoin="round" stroke-width="1"/>
      <path id="Path_2346" data-name="Path 2346" d="M173.4,197.16a12.444,12.444,0,0,1,6.107,4.065" transform="translate(-72.012 -131.924)" fill="none" stroke="#263238" stroke-linecap="round" stroke-linejoin="round" stroke-width="1"/>
    </g>
  </g>
</svg>
