<svg xmlns="http://www.w3.org/2000/svg" width="460.788" height="283.369" viewBox="0 0 460.788 283.369">
  <g id="Address-pana" transform="translate(-74.83 -88.783)">
    <g id="freepik--background-complete--inject-36" transform="translate(127.745 234.07)">
      <path id="Path_2192" data-name="Path 2192" d="M346.89,417.349a18.989,18.989,0,0,1,27.7-18.421c1.458-3.9,2.955-7.867,5.534-11.129s6.478-5.764,10.638-5.611v35.161Z" transform="translate(-190.971 -281.133)" fill="#ebebeb"/>
      <path id="Path_2193" data-name="Path 2193" d="M184.1,250.53l-22.428,45.254,6.7.253L149.358,332h9.986L143.77,363.943h87.055L211.652,332l9.187-.4-18.367-35.944,6.785-.4Z" transform="translate(-143.77 -250.53)" fill="#ebebeb"/>
      <path id="Path_2194" data-name="Path 2194" d="M200.869,318.92c.107,0-.084,19.189-.43,42.8s-.714,42.8-.829,42.791.084-19.189.43-42.8S200.754,318.92,200.869,318.92Z" transform="translate(-156.743 -266.427)" fill="#e0e0e0"/>
      <path id="Path_2195" data-name="Path 2195" d="M211.859,332.67a15.7,15.7,0,0,1-1.466,2.088c-.944,1.259-2.3,2.955-3.838,4.813l-3.914,4.736a18.512,18.512,0,0,1-1.681,1.919,14.858,14.858,0,0,1,1.458-2.1c.952-1.251,2.3-2.955,3.838-4.812l3.915-4.736a16.892,16.892,0,0,1,1.689-1.911Z" transform="translate(-157.064 -269.624)" fill="#e0e0e0"/>
      <path id="Path_2196" data-name="Path 2196" d="M198.1,348.066a47.951,47.951,0,0,1-4.912-3.577,46.5,46.5,0,0,1-4.674-3.9,47.535,47.535,0,0,1,4.92,3.577A44.818,44.818,0,0,1,198.1,348.066Z" transform="translate(-154.17 -271.465)" fill="#e0e0e0"/>
      <path id="Path_2197" data-name="Path 2197" d="M196.867,376.511a10.7,10.7,0,0,1-1.643-1.3c-.982-.837-2.3-1.988-3.838-3.231s-2.932-2.341-3.945-3.132a12.157,12.157,0,0,1-1.612-1.343,10.521,10.521,0,0,1,1.773,1.113c1.067.768,2.5,1.8,4.037,3.07s2.863,2.441,3.8,3.331A10.741,10.741,0,0,1,196.867,376.511Z" transform="translate(-153.547 -277.72)" fill="#e0e0e0"/>
      <path id="Path_2198" data-name="Path 2198" d="M212.614,361.37a3.072,3.072,0,0,1-.407.614c-.276.376-.7.906-1.236,1.535-1.082,1.282-2.648,2.986-4.421,4.835s-3.362,3.508-4.49,4.743a25.008,25.008,0,0,1-1.85,1.973,2.3,2.3,0,0,1,.4-.606c.276-.384.7-.913,1.236-1.535,1.082-1.289,2.648-2.993,4.421-4.836s3.362-3.515,4.49-4.751A24.028,24.028,0,0,1,212.614,361.37Z" transform="translate(-156.89 -276.295)" fill="#e0e0e0"/>
      <path id="Path_2199" data-name="Path 2199" d="M434.21,308.522h90.954l16.993-24.132L559.972,309.2l20.931-.338L558.345,278.48l-101.416.422Z" transform="translate(-211.284 -257.027)" fill="#e0e0e0"/>
      <path id="Path_2200" data-name="Path 2200" d="M493.47,310.657v84.591h90.824V310.657H573.886L555.933,286.18l-17.047,24.109Z" transform="translate(-225.059 -258.817)" fill="#f5f5f5"/>
      <rect id="Rectangle_506" data-name="Rectangle 506" width="21.246" height="36.673" transform="translate(281.244 99.758)" fill="#e0e0e0"/>
      <rect id="Rectangle_507" data-name="Rectangle 507" width="33.465" height="20.731" transform="translate(315.223 98.722)" fill="#e0e0e0"/>
      <rect id="Rectangle_508" data-name="Rectangle 508" width="0.768" height="20.923" transform="translate(324.503 98.722)" fill="#ebebeb"/>
      <rect id="Rectangle_509" data-name="Rectangle 509" width="0.768" height="20.923" transform="translate(338.419 98.722)" fill="#ebebeb"/>
      <rect id="Rectangle_510" data-name="Rectangle 510" width="13.916" height="0.768" transform="translate(324.887 109.429)" fill="#ebebeb"/>
      <rect id="Rectangle_511" data-name="Rectangle 511" width="33.465" height="20.731" transform="translate(315.223 57.236)" fill="#e0e0e0"/>
      <rect id="Rectangle_512" data-name="Rectangle 512" width="0.768" height="20.923" transform="translate(324.503 57.236)" fill="#ebebeb"/>
      <rect id="Rectangle_513" data-name="Rectangle 513" width="0.768" height="20.923" transform="translate(338.419 57.236)" fill="#ebebeb"/>
      <rect id="Rectangle_514" data-name="Rectangle 514" width="13.916" height="0.768" transform="translate(324.887 67.943)" fill="#ebebeb"/>
      <rect id="Rectangle_515" data-name="Rectangle 515" width="21.108" height="19.987" transform="translate(279.164 57.42)" fill="#e0e0e0"/>
      <rect id="Rectangle_516" data-name="Rectangle 516" width="36.865" height="84.584" transform="translate(231.553 51.84)" fill="#e0e0e0"/>
      <rect id="Rectangle_517" data-name="Rectangle 517" width="0.768" height="19.987" transform="translate(289.334 57.42)" fill="#ebebeb"/>
      <rect id="Rectangle_518" data-name="Rectangle 518" width="21.108" height="0.768" transform="translate(279.164 67.521)" fill="#ebebeb"/>
      <circle id="Ellipse_76" data-name="Ellipse 76" cx="4.475" cy="4.475" r="4.475" transform="translate(326.353 39.037)" fill="#e0e0e0"/>
      <path id="Path_2201" data-name="Path 2201" d="M531.329,292.885l5.641-6.969V269.16H525.15v23.855Z" transform="translate(-232.423 -254.861)" fill="#f5f5f5"/>
      <path id="Path_2202" data-name="Path 2202" d="M533.2,292.885V269.16h5.641v16.756Z" transform="translate(-234.295 -254.861)" fill="#ebebeb"/>
      <rect id="Rectangle_519" data-name="Rectangle 519" width="13.939" height="2.464" transform="translate(291.406 11.836)" fill="#ebebeb"/>
      <rect id="Rectangle_520" data-name="Rectangle 520" width="68.588" height="47.588" transform="translate(199.823 88.843)" fill="#f5f5f5"/>
      <rect id="Rectangle_521" data-name="Rectangle 521" width="42.944" height="47.588" transform="translate(199.823 88.843)" fill="#e0e0e0"/>
      <rect id="Rectangle_522" data-name="Rectangle 522" width="28.084" height="32.16" transform="translate(208.289 104.187)" fill="#f5f5f5"/>
      <rect id="Rectangle_523" data-name="Rectangle 523" width="18.091" height="4.605" transform="translate(246.543 104.056)" fill="#ebebeb"/>
      <path id="Path_2203" data-name="Path 2203" d="M434.21,317.613v2.448h90.9V317.59Z" transform="translate(-211.284 -266.118)" fill="#ebebeb"/>
      <path id="Path_2204" data-name="Path 2204" d="M552.64,312.76l17-23.863.046-2.717-16.993,24.132Z" transform="translate(-238.814 -258.817)" fill="#ebebeb"/>
      <rect id="Rectangle_524" data-name="Rectangle 524" width="20.355" height="1.581" transform="translate(348.826 51.84)" fill="#ebebeb"/>
      <rect id="Rectangle_525" data-name="Rectangle 525" width="7.514" height="2.855" transform="translate(287.73 94.139)" fill="#e0e0e0"/>
    </g>
    <g id="freepik--Floor--inject-36" transform="translate(74.83 370.287)">
      <path id="Path_2205" data-name="Path 2205" d="M535.618,428.215c0,.107-103.158.2-230.387.2s-230.4-.092-230.4-.2S177.965,428,305.224,428,535.618,428.1,535.618,428.215Z" transform="translate(-74.83 -428)" fill="#263238"/>
    </g>
    <g id="freepik--Character--inject-36" transform="translate(203.597 88.783)">
      <path id="Path_2206" data-name="Path 2206" d="M396.361,130.986c-17-25.535-41.716-37.436-67.544-37.436,0,0-63.161,0-81.866,61.739-6.908,22.753-5.373,47.459,2.993,69.617a131.69,131.69,0,0,0,11.8,23.96c16.341,25.728,67.122,95.965,67.122,95.965h11.037c14.169-21.487,49.837-92.864,60.521-115.751C413.823,200.359,415.88,160.3,396.361,130.986Zm-56.975,114.2c-29.8,0-53.96-26.379-53.958-58.918s24.16-58.913,53.961-58.912,53.957,26.379,53.956,58.917-24.156,58.91-53.956,58.912Z" transform="translate(-242.594 -89.891)" fill="#0761e9"/>
      <path id="Path_2207" data-name="Path 2207" d="M396.361,130.986c-17-25.535-41.716-37.436-67.544-37.436,0,0-63.161,0-81.866,61.739-6.908,22.753-5.373,47.459,2.993,69.617a131.69,131.69,0,0,0,11.8,23.96c16.341,25.728,67.122,95.965,67.122,95.965h11.037c14.169-21.487,49.837-92.864,60.521-115.751C413.823,200.359,415.88,160.3,396.361,130.986Zm-56.975,114.2c-29.8,0-53.96-26.379-53.958-58.918s24.16-58.913,53.961-58.912,53.957,26.379,53.956,58.917-24.156,58.91-53.956,58.912Z" transform="translate(-242.594 -89.891)" opacity="0.4"/>
      <path id="Path_2208" data-name="Path 2208" d="M410.831,131.557c-17-25.527-41.716-37.427-67.544-37.427,0,0-63.161,0-81.866,61.738-6.908,22.753-5.373,47.458,3,69.616a131.4,131.4,0,0,0,11.8,23.96c16.341,25.719,67.1,95.989,67.1,95.989s58.648-88.086,71.558-115.742C428.293,200.921,430.358,160.88,410.831,131.557ZM342.819,245.765c-29.8,0-53.958-26.377-53.958-58.914s24.158-58.914,53.958-58.914,53.958,26.377,53.958,58.914a61.346,61.346,0,0,1-15.686,41.788A51.349,51.349,0,0,1,342.819,245.765Z" transform="translate(-245.958 -90.026)" fill="#0761e9"/>
      <path id="Path_2209" data-name="Path 2209" d="M353.3,133.9a53.959,53.959,0,0,0-50.858,35.929,46.229,46.229,0,1,1,5.642,47.457A53.951,53.951,0,1,0,353.3,133.9Z" transform="translate(-256.506 -99.271)" fill="#0761e9"/>
      <path id="Path_2210" data-name="Path 2210" d="M353.3,133.9a53.959,53.959,0,0,0-50.858,35.929,46.229,46.229,0,1,1,5.642,47.457A53.951,53.951,0,1,0,353.3,133.9Z" transform="translate(-256.506 -99.271)" opacity="0.4"/>
      <path id="Path_2211" data-name="Path 2211" d="M486.747,231.032a10.983,10.983,0,0,0-7.422-1.865c-4.421.507-10.83,1.159-10.83,1.159v.207l-30.955,1.9-9.479-19.227L413.7,222.674s1.888,3.024,9.94,17.891a16.119,16.119,0,0,0,16.495,8.274l36.451-5.373V243.4c3.769-.207,7.844-.56,8.443-1.105,1.136-1.029,2.164-4.789,2.164-4.789s6.493,3.838,7.745,3.945,1.482-.959,2.257-2.065C497.746,238.7,491.053,233.964,486.747,231.032Z" transform="translate(-282.369 -107.535)" fill="#ffbe9d"/>
      <path id="Path_2212" data-name="Path 2212" d="M403.565,198.556s-6.018-11.582-11.513-22.52c-6.77-13.424-21.7-16.118-21.7-16.118l-21.629-2.84s-18.1-8.174-34.908,12.127L300,184.64l2.94,2.648,13.7,12.281,2.709,2.441,6.2-6.386L322.673,211.8l-5.089,22.55h0l11-1.328,7.437-45.477,41.939,3.339-3.346,28.7c.675-.1,5.749-1.1,7.4-7.99a14.275,14.275,0,0,0,0-6.693l2.425,6.209Z" transform="translate(-255.939 -97.318)" fill="#455a64"/>
      <path id="Path_2213" data-name="Path 2213" d="M341.276,197.29l-7.437,45.477-11,1.328a53.889,53.889,0,0,0,54.289,9.594l2.794-24.385,3.293-28.676Z" transform="translate(-261.248 -103.91)" fill="#263238"/>
      <path id="Path_2214" data-name="Path 2214" d="M349.826,154.586l-.906,36.942,6.969,1.105.936-37.441S354.393,154.041,349.826,154.586Z" transform="translate(-267.31 -98.612)" fill="#263238"/>
      <path id="Path_2215" data-name="Path 2215" d="M388.66,193.376l5.764-31.73c.33-.353,5.058,1.343,6.486,2.955l-5.173,29.435Z" transform="translate(-276.548 -99.856)" fill="#263238"/>
      <path id="Path_2216" data-name="Path 2216" d="M356.2,196.92a1.751,1.751,0,0,1,.107.629,9.761,9.761,0,0,1,0,1.75,4.843,4.843,0,0,1-.867,2.487,3.293,3.293,0,0,1-1.22,1.029,2.887,2.887,0,0,1-1.712.207,4.045,4.045,0,0,1-2.625-1.865,5.8,5.8,0,0,1-.768-2.51,10.046,10.046,0,0,1,0-1.75,1.658,1.658,0,0,1,.115-.637c.069,0,0,.921.161,2.356a5.962,5.962,0,0,0,.806,2.3,3.722,3.722,0,0,0,2.387,1.666,2.594,2.594,0,0,0,2.571-1.059,4.8,4.8,0,0,0,.883-2.3C356.211,197.841,356.126,196.92,356.2,196.92Z" transform="translate(-267.347 -106.1)" fill="#455a64"/>
      <path id="Path_2217" data-name="Path 2217" d="M352.695,200.436a1.6,1.6,0,1,1,2.076-.894A1.6,1.6,0,0,1,352.695,200.436Z" transform="translate(-267.953 -106.397)" fill="#455a64"/>
      <path id="Path_2218" data-name="Path 2218" d="M394.748,201.146a1.6,1.6,0,1,1-1.6-1.6,1.6,1.6,0,0,1,1.6,1.6Z" transform="translate(-277.217 -106.753)" fill="#455a64"/>
      <path id="Path_2219" data-name="Path 2219" d="M396.352,200.06a5.578,5.578,0,0,1-.361,1.865,4.774,4.774,0,0,1-1.067,1.819,2.963,2.963,0,0,1-2.425.89,3.592,3.592,0,0,1-2.3-1.19,4.022,4.022,0,0,1-.89-1.911,4.482,4.482,0,0,1-.046-1.4,1.205,1.205,0,0,1,.138-.5,11.292,11.292,0,0,0,.184,1.85,3.946,3.946,0,0,0,.89,1.719,3.3,3.3,0,0,0,2.065,1.036,2.61,2.61,0,0,0,2.134-.768,4.706,4.706,0,0,0,1.059-1.643A18.256,18.256,0,0,1,396.352,200.06Z" transform="translate(-276.679 -106.705)" fill="#455a64"/>
      <path id="Path_2220" data-name="Path 2220" d="M352.81,219.14c-.054,0-.077-.307-.061-.768a6.793,6.793,0,0,1,.038-.844,2.161,2.161,0,0,1,.038-.5v-.53h0l.223-.2h0a9.21,9.21,0,0,1,2.648.484,9.289,9.289,0,0,1-2.694-.092h0c-.046.046.422-.376.223-.192h0v.522a3.959,3.959,0,0,1-.061.507,5.03,5.03,0,0,1-.123.852C352.94,218.818,352.864,219.14,352.81,219.14Z" transform="translate(-268.199 -109.485)" fill="#455a64"/>
      <path id="Path_2221" data-name="Path 2221" d="M351.352,232.138a9.212,9.212,0,0,1,.084-2.663,9.057,9.057,0,0,1,.476-2.625,8.742,8.742,0,0,1-.077,2.663,9.364,9.364,0,0,1-.484,2.625Z" transform="translate(-267.862 -111.094)" fill="#455a64"/>
      <path id="Path_2222" data-name="Path 2222" d="M352.6,244.5a9.212,9.212,0,0,1-2.495-1.021c0,.046-.207-.376-.115-.2h0v-.522l.069-.5c.046-.315.092-.606.13-.844.092-.476.169-.768.223-.768s.077.315.061.768q0,.368-.046.852a1.863,1.863,0,0,1-.046.507v.522h0c.1.177-.13-.246-.108-.2a9.288,9.288,0,0,1,2.326,1.4Z" transform="translate(-267.554 -113.391)" fill="#455a64"/>
      <path id="Path_2223" data-name="Path 2223" d="M361.561,249.735A9.977,9.977,0,0,1,358,248a5,5,0,0,1,1.857.706A5.057,5.057,0,0,1,361.561,249.735Z" transform="translate(-269.421 -114.684)" fill="#455a64"/>
      <path id="Path_2224" data-name="Path 2224" d="M372.161,252.749a9.212,9.212,0,0,1-2.418,1.2h-.253l-.123-.061-.238-.123-.445-.23-.768-.422c-.414-.246-.66-.422-.637-.476s.315,0,.768.223c.223.092.491.207.768.345l.453.215.246.115.123.054h-.069a9.212,9.212,0,0,1,2.594-.837Z" transform="translate(-271.578 -115.455)" fill="#455a64"/>
      <path id="Path_2225" data-name="Path 2225" d="M380.232,249.752c.038.107-.568.445-1.358.768a3.216,3.216,0,0,1-1.535.4c-.069-.1.568-.445,1.359-.768A3.268,3.268,0,0,1,380.232,249.752Z" transform="translate(-273.915 -114.989)" fill="#455a64"/>
      <path id="Path_2226" data-name="Path 2226" d="M387.634,243.45a9.594,9.594,0,0,1-.077,2.694l-.13.169h-.061l-.13.054-.246.1-.468.177c-.307.107-.576.207-.814.276-.461.154-.768.223-.768.169s.246-.207.675-.43l.768-.361.468-.2.246-.1.123-.054h.069l-.123.169a9.044,9.044,0,0,1,.468-2.663Z" transform="translate(-275.683 -113.854)" fill="#455a64"/>
      <path id="Path_2227" data-name="Path 2227" d="M389.6,230.49a15.35,15.35,0,0,1-.514,4.974,8.244,8.244,0,0,1,.061-2.5A8.084,8.084,0,0,1,389.6,230.49Z" transform="translate(-276.632 -111.696)" fill="#455a64"/>
      <path id="Path_2228" data-name="Path 2228" d="M387.33,220.143a9.288,9.288,0,0,1,2.694.092l.177.215h0v.522a3.682,3.682,0,0,1-.061.5c-.046.322-.084.606-.13.852-.084.476-.169.768-.223.768s-.069-.315-.061-.768a5.878,5.878,0,0,1,.046-.86l.038-.5v-.522h0l.177.215a9.21,9.21,0,0,1-2.656-.514Z" transform="translate(-276.239 -110.093)" fill="#455a64"/>
      <path id="Path_2229" data-name="Path 2229" d="M375.06,218.832a14.077,14.077,0,0,1,4.713.507,7.33,7.33,0,0,1-2.379-.054A7.507,7.507,0,0,1,375.06,218.832Z" transform="translate(-273.387 -109.979)" fill="#455a64"/>
      <path id="Path_2230" data-name="Path 2230" d="M362.781,217.488a7.331,7.331,0,0,1,2.379.054,7.505,7.505,0,0,1,2.3.453,14.076,14.076,0,0,1-4.713-.507Z" transform="translate(-270.525 -109.752)" fill="#455a64"/>
      <path id="Path_2231" data-name="Path 2231" d="M298.477,199.638c-.054.921-.077,1.85-.077,2.786a53.836,53.836,0,0,0,1.1,10.853v.107c.092.445.2.883.307,1.32.414,1.735.913,3.446,1.466,5.135.069.207.138.422.215.629,1.98-.445,7.721-5.419,14.33-11.628L302.123,196.56C300.227,198.433,299.1,199.423,298.477,199.638Z" transform="translate(-255.567 -105.523)" fill="#ffbe9d"/>
      <path id="Path_2232" data-name="Path 2232" d="M408.034,96.71c.476,5.3,6.517,9.771,11.843,9.61,2.932-.092,5.9-1.4,8.719-.583,4.728,1.374,6.639,7.967,11.513,8.85,3.623.66,6.962-2.3,10.638-2.472,2.7-.146,5.25,1.205,7.491,2.725s4.375,3.277,6.908,4.145,4.912-.668,7.5-1.458c.637,1.643,1.059,3.669,1.88,5.373s1.819,4.859.361,5.534c0,0-4.076,2.111-6.432,2a7.675,7.675,0,0,0,7.43,2.011c.653,3.945,1.144,8.5-1.535,11.467a9.21,9.21,0,0,1-4.605,2.571c-8.551,2.211-17.492-3.769-26.173-2.141-3.561.675-6.823,2.594-10.423,3.07a13.417,13.417,0,0,1-10.024-2.832c-3.423-2.771-5.78-7.407-10.124-8.136a13.544,13.544,0,0,0-5.764.768,12.161,12.161,0,0,1-5.764.629c-1.927-.407-3.707-2.034-3.623-3.984" transform="translate(-278.683 -90.626)" fill="#263238"/>
      <path id="Path_2233" data-name="Path 2233" d="M382.942,148.075c.959-5.373,2.065-10.953,2.065-10.953s7.092.069,10.109-8.673c2.871-8.336,4.943-28.4,4.943-28.4h0a26.235,26.235,0,0,0-29.934,1.535h0l-7.069,43.558c-.821,5.058,2.871,9.786,8.289,10.623h0C376.8,156.656,382,153.172,382.942,148.075Z" transform="translate(-270.569 -90.481)" fill="#ffbe9d"/>
      <path id="Path_2234" data-name="Path 2234" d="M403.683,120.448a1.167,1.167,0,0,1-1.313.967,1.121,1.121,0,0,1-1.013-1.251,1.174,1.174,0,0,1,1.32-.967,1.121,1.121,0,0,1,1.006,1.251Z" transform="translate(-279.498 -95.85)" fill="#263238"/>
      <path id="Path_2235" data-name="Path 2235" d="M405.739,119.076c-.169.123-.929-.675-2.172-.89s-2.257.238-2.364.069.138-.33.583-.545a3.209,3.209,0,0,1,1.934-.246,3.147,3.147,0,0,1,1.689.9C405.739,118.723,405.823,119.014,405.739,119.076Z" transform="translate(-279.458 -95.438)" fill="#263238"/>
      <path id="Path_2236" data-name="Path 2236" d="M387.083,117.818a1.174,1.174,0,0,1-1.32.967,1.121,1.121,0,0,1-1.005-1.251,1.174,1.174,0,0,1,1.32-.967,1.121,1.121,0,0,1,1.005,1.251Z" transform="translate(-275.639 -95.239)" fill="#263238"/>
      <path id="Path_2237" data-name="Path 2237" d="M388.765,116.688c-.169.123-.929-.675-2.172-.89s-2.257.246-2.372.069.138-.322.591-.545a3.247,3.247,0,0,1,1.927-.238,3.07,3.07,0,0,1,1.7.9C388.765,116.343,388.85,116.634,388.765,116.688Z" transform="translate(-275.51 -94.884)" fill="#263238"/>
      <path id="Path_2238" data-name="Path 2238" d="M393.9,127.061a8.208,8.208,0,0,1,2.08,0c.322,0,.637,0,.729-.192a1.665,1.665,0,0,0-.046-.975c-.161-.821-.33-1.681-.514-2.579a41.751,41.751,0,0,1-.99-6.685,43.283,43.283,0,0,1,1.535,6.593c.161.9.322,1.758.468,2.579a1.835,1.835,0,0,1-.054,1.274.821.821,0,0,1-.6.376,2.485,2.485,0,0,1-.553,0,8.489,8.489,0,0,1-2.057-.391Z" transform="translate(-277.766 -95.256)" fill="#263238"/>
      <path id="Path_2239" data-name="Path 2239" d="M388.175,147.923A23.218,23.218,0,0,1,376.7,142.55s1.834,6.693,10.984,7.43Z" transform="translate(-273.768 -97.436)" fill="#eb996e"/>
      <path id="Path_2240" data-name="Path 2240" d="M391.368,133.64a2.3,2.3,0,0,0-1.857-1.182,2.1,2.1,0,0,0-1.535.507,1.312,1.312,0,0,0-.353,1.466,1.535,1.535,0,0,0,1.535.7,4.92,4.92,0,0,0,1.75-.668,1.42,1.42,0,0,0,.422-.307.414.414,0,0,0,.077-.46" transform="translate(-276.285 -98.934)" fill="#eb996e"/>
      <path id="Path_2241" data-name="Path 2241" d="M388.894,130.5c.207,0,0,1.366.952,2.525s2.448,1.266,2.425,1.458-.368.2-.975.115a3.408,3.408,0,0,1-2.034-1.136,2.94,2.94,0,0,1-.714-2.111C388.556,130.783,388.763,130.469,388.894,130.5Z" transform="translate(-276.521 -98.48)" fill="#263238"/>
      <path id="Path_2242" data-name="Path 2242" d="M380.23,93.455c2.4,5.3,10.185,11.751,16.2,14.038-.553-1.09-3.93-4.168-4.475-5.258,2.425,2.633,5.933,6.209,9.64,7.107a2.3,2.3,0,0,0,1.32.038,1.758,1.758,0,0,0,.929-1.243,38.324,38.324,0,0,0,1.274-8.182,9.165,9.165,0,0,0-2.149-6.409c-2.049-2.3-5.373-3.408-8.612-4.1a20.976,20.976,0,0,0-8.167-.461c-2.663.507-5.15,2.042-5.948,4.306" transform="translate(-274.588 -88.783)" fill="#263238"/>
      <path id="Path_2243" data-name="Path 2243" d="M361.536,113.558a51.976,51.976,0,0,1,.23-6.14c.606-4.682,2.072-21.7,17.776-17.323l-1.673,4.367s1.205,10.953-6.854,16.832c0,0,.038,10.938-5.549,14.883,0,0-3.891-7.415-3.93-12.588" transform="translate(-270.24 -88.922)" fill="#263238"/>
      <path id="Path_2244" data-name="Path 2244" d="M372.515,116.809a5.473,5.473,0,0,0-2.932-.33,3.838,3.838,0,0,0-2.456,1.535,3.991,3.991,0,0,0-.53,2.871,6.754,6.754,0,0,0,1.213,2.709,4.544,4.544,0,0,0,1.535,1.466,2.172,2.172,0,0,0,2.057,0" transform="translate(-271.402 -95.205)" fill="#ffbe9d"/>
      <path id="Path_2245" data-name="Path 2245" d="M371.577,122.947c.1.054-.422.56-1.259.169a1.9,1.9,0,0,1-.913-1.136,4.282,4.282,0,0,1-.2-1.681,2.517,2.517,0,0,1,.706-1.62,1.681,1.681,0,0,1,1.389-.522c.913.138,1.082.814.975.814a1.791,1.791,0,0,0-1-.292,1.65,1.65,0,0,0-1.328,1.681,2.716,2.716,0,0,0,.637,2.3C371.071,122.978,371.531,122.855,371.577,122.947Z" transform="translate(-272.022 -95.609)" fill="#eb996e"/>
      <path id="Path_2246" data-name="Path 2246" d="M473.46,112.964a2.3,2.3,0,0,1-.422.629,3.738,3.738,0,0,1-1.865,1.075,5.511,5.511,0,0,1-3.408-.238,15.611,15.611,0,0,1-3.838-2.41,12.181,12.181,0,0,0-4.682-2.587,6.493,6.493,0,0,0-2.94.123,16.056,16.056,0,0,0-2.955,1.19c-.983.5-1.98,1.052-3.07,1.535a9.21,9.21,0,0,1-3.469.921,6.01,6.01,0,0,1-3.577-1.036,11.643,11.643,0,0,1-2.686-2.732c-1.535-2.042-2.778-4.26-4.651-5.711a6.432,6.432,0,0,0-3.139-1.32,10.7,10.7,0,0,0-3.323.146c-2.149.4-4.16,1.082-6.14,1.336a13.37,13.37,0,0,1-5.473-.476,14.077,14.077,0,0,1-6.624-4.275,10.286,10.286,0,0,1-1.6-2.433.624.624,0,0,1,.115.153c.077.13.177.284.3.476a13.77,13.77,0,0,0,7.883,5.8,13.11,13.11,0,0,0,5.373.422c1.934-.261,3.93-.952,6.14-1.366a10.677,10.677,0,0,1,3.439-.161,6.831,6.831,0,0,1,3.323,1.382c1.965,1.535,3.216,3.776,4.736,5.787a11.136,11.136,0,0,0,2.587,2.64,5.6,5.6,0,0,0,3.339.975,8.8,8.8,0,0,0,3.331-.883c1.052-.461,2.042-1.005,3.032-1.535a16.115,16.115,0,0,1,3.032-1.213,6.854,6.854,0,0,1,3.07-.115,12.457,12.457,0,0,1,4.79,2.694,15.742,15.742,0,0,0,3.746,2.425,5.465,5.465,0,0,0,3.285.3,3.953,3.953,0,0,0,1.85-.982A4.3,4.3,0,0,0,473.46,112.964Z" transform="translate(-281.416 -90.623)" fill="#263238"/>
    </g>
    <g id="freepik--Tree--inject-36" transform="translate(193.823 284.736)">
      <path id="Path_2247" data-name="Path 2247" d="M254.9,316.54l-13.923,28.085,4.152.154-11.8,22.32h6.2l-9.671,19.826h54.028l-11.9-19.826,5.7-.253-11.4-22.3,4.214-.246Z" transform="translate(-229.86 -316.54)" fill="#455a64"/>
      <path id="Path_2248" data-name="Path 2248" d="M265.292,359c.115,0,0,11.9-.184,26.565s-.484,26.557-.591,26.557,0-11.9.192-26.565S265.185,359,265.292,359Z" transform="translate(-237.906 -326.41)" fill="#263238"/>
      <path id="Path_2249" data-name="Path 2249" d="M272.11,368.39a4.757,4.757,0,0,1-.837,1.228,31.653,31.653,0,0,1-2.425,2.633c-.982.99-1.873,1.873-2.495,2.541a7.457,7.457,0,0,1-1.044,1.052,4.79,4.79,0,0,1,.829-1.236,34.6,34.6,0,0,1,2.425-2.633c.99-.99,1.88-1.873,2.5-2.541A6.64,6.64,0,0,1,272.11,368.39Z" transform="translate(-238.1 -328.593)" fill="#263238"/>
      <path id="Path_2250" data-name="Path 2250" d="M263.575,377.066a18.416,18.416,0,0,1-3.07-2.157,18.2,18.2,0,0,1-2.855-2.479,18.3,18.3,0,0,1,3.07,2.157,17.921,17.921,0,0,1,2.855,2.479Z" transform="translate(-236.32 -329.532)" fill="#263238"/>
      <path id="Path_2251" data-name="Path 2251" d="M262.812,394.725a39.057,39.057,0,0,1-3.462-2.755,38.516,38.516,0,0,1-3.4-2.84,18.419,18.419,0,0,1,3.654,2.525A17.974,17.974,0,0,1,262.812,394.725Z" transform="translate(-235.925 -333.414)" fill="#263238"/>
      <path id="Path_2252" data-name="Path 2252" d="M272.587,385.32a24.925,24.925,0,0,1-3.707,4.4l-2.8,2.932a8.115,8.115,0,0,1-1.19,1.19,24.915,24.915,0,0,1,3.707-4.4l2.8-2.924a8.446,8.446,0,0,1,1.19-1.2Z" transform="translate(-238.002 -332.528)" fill="#263238"/>
    </g>
  </g>
</svg>
