<svg xmlns="http://www.w3.org/2000/svg" width="325.013" height="314.704" viewBox="0 0 325.013 314.704">
  <g id="Onboarding-amico" transform="translate(-39.167 -21.503)">
    <g id="freepik--Floor--inject-4" transform="translate(40.975 159.178)">
      <ellipse id="freepik--floor--inject-4-2" data-name="freepik--floor--inject-4" cx="161.603" cy="88.514" rx="161.603" ry="88.514" fill="#f0f0f0"/>
    </g>
    <g id="freepik--Shadows--inject-4" transform="translate(58.48 186.736)">
      <ellipse id="freepik--Shadow--inject-4" cx="44.576" cy="25.738" rx="44.576" ry="25.738" transform="translate(0 56.363)" fill="#e0e0e0"/>
      <path id="freepik--shadow--inject-4-2" data-name="freepik--shadow--inject-4" d="M296.123,393.242a11.676,11.676,0,0,1-5.243-1.168L157.123,323.05a4.982,4.982,0,0,1,0-9.38l80.708-41.645a12.3,12.3,0,0,1,10.494,0l133.757,69.017c2.1,1.082,4.738,2.114,4.738,4.693s-2.638,3.583-4.738,4.686l-80.708,41.631a11.7,11.7,0,0,1-5.251,1.189Z" transform="translate(-90.98 -270.85)" fill="#e0e0e0"/>
    </g>
    <g id="freepik--Plants--inject-4" transform="translate(39.167 178.746)">
      <g id="freepik--plants--inject-4-2" data-name="freepik--plants--inject-4" transform="translate(283.249)">
        <path id="Path_1867" data-name="Path 1867" d="M410.361,311.742l-8.835-5.095s-2.866-13.786-.932-27.616c3.246-23.567,16.043-27.092,20.93-25.423s6.327,7.345-1.727,19C415.026,279.476,409.236,293.786,410.361,311.742Z" transform="translate(-399.924 -253.254)" fill="#37474f"/>
        <path id="Path_1868" data-name="Path 1868" d="M406.356,305.4h.057a.444.444,0,0,0,.373-.494c-2.572-18.143,4.658-38.056,12.833-46.1a.43.43,0,0,0,0-.609.423.423,0,0,0-.609,0c-8.326,8.19-15.7,28.432-13.091,46.84a.43.43,0,0,0,.437.365Z" transform="translate(-401.472 -254.619)" fill="#fff"/>
        <path id="Path_1869" data-name="Path 1869" d="M428.3,327.42c.989.494,3.583-1.756,4.3-2.3a9.157,9.157,0,0,0,2.866-3.654,8.6,8.6,0,0,0,.48-5.188,20.061,20.061,0,0,0-.8-2.7l-.881-2.637a6.584,6.584,0,0,1-.53-2.651c.129-1.834,1.677-3.189,3.081-4.364,1.555-1.3,3.16-3,3.031-5.181a7.668,7.668,0,0,0-2.15-4.471c-1.111-1.268-2.415-2.372-3.439-3.719a5.432,5.432,0,0,1-1.283-3.339,5.625,5.625,0,0,1,.631-2.15,26.963,26.963,0,0,0,2.092-4.378,4.309,4.309,0,0,0-.974-4.493,4.959,4.959,0,0,0-3.812-.717,8.671,8.671,0,0,0-3.439,1.433c-3.361,2.114-5.123,6.334-8.727,8.011a36.686,36.686,0,0,1-4.4,1.333,5.517,5.517,0,0,0-3.547,2.716c-1.34,3.088,1.827,6.033-.416,9.036-.717.931-1.6,1.684-2.336,2.572-2.085,2.522-3.009,5.166-2.422,9.258a10.239,10.239,0,0,0,4.65,7.251Z" transform="translate(-401.492 -259.53)" fill="#455a64"/>
        <path id="Path_1870" data-name="Path 1870" d="M423.722,323.853h0a.437.437,0,0,0,.394-.473c-1.634-17.118,5.439-36.493,11.028-42.312a.437.437,0,1,0-.631-.6c-5.7,5.933-12.9,25.631-11.257,42.992a.43.43,0,0,0,.466.394Z" transform="translate(-406.47 -260.922)" fill="#fff"/>
        <path id="Path_1871" data-name="Path 1871" d="M426.092,310.2h.129a58.148,58.148,0,0,1,12.346-2.673.437.437,0,0,0,.387-.473.423.423,0,0,0-.466-.394,59.4,59.4,0,0,0-12.568,2.723.437.437,0,0,0-.251.559.423.423,0,0,0,.423.258Z" transform="translate(-407.214 -268.391)" fill="#fff"/>
      </g>
      <g id="freepik--plants--inject-4-3" data-name="freepik--plants--inject-4" transform="translate(0 30.319)">
        <path id="Path_1872" data-name="Path 1872" d="M85.8,347.712l5.6-2.013a88.257,88.257,0,0,0-.38-20.192c-2.271-15.033-13.17-27.823-22.485-29.629-12.009-2.307-10.175,8.849-3.418,13.829C75.894,317.653,84.148,329.555,85.8,347.712Z" transform="translate(-45.009 -295.567)" fill="#0761e9"/>
        <g id="Group_48" data-name="Group 48" transform="translate(14.767)" opacity="0.2">
          <path id="Path_1873" data-name="Path 1873" d="M85.8,347.712l5.6-2.013a88.257,88.257,0,0,0-.38-20.192c-2.271-15.033-13.17-27.823-22.485-29.629-12.009-2.307-10.175,8.849-3.418,13.829C75.894,317.653,84.148,329.555,85.8,347.712Z" transform="translate(-59.776 -295.567)"/>
        </g>
        <path id="Path_1874" data-name="Path 1874" d="M90.59,347.808h-.064a.652.652,0,0,1-.5-.781c3-13.758-7.667-39.718-22.686-47.421a.66.66,0,0,1,.6-1.175c15.477,7.939,26.462,34.7,23.366,48.875a.659.659,0,0,1-.717.5Z" transform="translate(-47.051 -296.358)" fill="#fff"/>
        <path id="Path_1875" data-name="Path 1875" d="M83.537,352.434c.272-1.627.437-4.02.487-4.607a15.162,15.162,0,0,0-.717-6.148,12.045,12.045,0,0,0-4.937-6.341c-1.261-.781-2.744-1.361-3.583-2.608a7.78,7.78,0,0,1-.838-3.69c-.193-2.078-.781-4.3-2.4-5.589s-3.862-1.433-5.926-1.247c-2.974.229-5.732.552-8.491-.881a59.776,59.776,0,0,0-6.75-3.275c-2.931-1.1-9.53-2.744-11.042,1.376a4.02,4.02,0,0,0,.509,3.411,11.751,11.751,0,0,0,2.422,2.6l4.521,3.991a5.84,5.84,0,0,1,1.369,1.512c.86,1.562.165,3.5.315,5.274a6.284,6.284,0,0,0,2.752,4.507,8.463,8.463,0,0,0,5.152,1.4c2.422-.093,6.449-1.842,7.825,1.06a9.122,9.122,0,0,1,.631,3.081,5.912,5.912,0,0,0,.917,2.988c.932,1.232,2.594,1.627,4.127,1.827a24.173,24.173,0,0,1,6.349,1.211c.817.344,1.311,1.433,1.777,2.15C79.518,353.9,81.194,353.344,83.537,352.434Z" transform="translate(-39.167 -301.578)" fill="#0761e9"/>
        <path id="Path_1876" data-name="Path 1876" d="M82.54,355.162a.609.609,0,0,1-.509-.387c-5.474-14.467-18.494-26.032-36.658-32.567a.6.6,0,1,1,.408-1.132c18.5,6.657,31.771,18.473,37.375,33.276a.609.609,0,0,1-.351.774A.718.718,0,0,1,82.54,355.162Z" transform="translate(-40.813 -302.788)" fill="#fff"/>
      </g>
    </g>
    <g id="freepik--Platform--inject-4" transform="translate(145.52 164.769)">
      <g id="freepik--Bench--inject-4">
        <path id="Path_1877" data-name="Path 1877" d="M280.621,377.552,161.074,308.527a6.571,6.571,0,0,1-2.974-5.152V287.7a6.571,6.571,0,0,1,2.974-5.152l72.134-41.645a6.542,6.542,0,0,1,5.947,0L358.7,309.924a6.571,6.571,0,0,1,2.974,5.152v15.671A6.571,6.571,0,0,1,358.7,335.9l-72.134,41.653A6.585,6.585,0,0,1,280.621,377.552Z" transform="translate(-154.481 -240.192)" fill="#0761e9"/>
        <path id="Path_1878" data-name="Path 1878" d="M411.322,342.738v15.678a6.563,6.563,0,0,1-2.974,5.145l-72.134,41.645a6.049,6.049,0,0,1-2.974.716V383.381a6.105,6.105,0,0,0,2.974-.717l72.134-41.645c1.54-.889,1.641-2.286.3-3.239A6.614,6.614,0,0,1,411.322,342.738Z" transform="translate(-204.126 -267.854)" opacity="0.2"/>
        <path id="Path_1879" data-name="Path 1879" d="M283.6,372.553v22.542a6.026,6.026,0,0,1-2.974-.717L161.074,325.361a6.549,6.549,0,0,1-2.974-5.145V304.531a6.635,6.635,0,0,1,2.673-4.951c-1.333.953-1.225,2.35.3,3.239l119.555,69.024a6.1,6.1,0,0,0,2.967.709Z" transform="translate(-154.481 -257.026)" opacity="0.1"/>
        <path id="Path_1880" data-name="Path 1880" d="M359.392,313.357l-72.134,41.653a6.585,6.585,0,0,1-5.947,0L161.763,285.985c-1.641-.946-1.641-2.486,0-3.432L233.9,240.907a6.542,6.542,0,0,1,5.947,0l119.548,69.017C361.033,310.87,361.033,312.425,359.392,313.357Z" transform="translate(-155.171 -240.192)" fill="#0761e9"/>
        <path id="Path_1881" data-name="Path 1881" d="M203.245,330.271a4.045,4.045,0,0,0-4.22-.251c-.4.229-2.071,1.175-2.5,1.433-1.3.8-2.25,2.494-2.623,4.9a8.52,8.52,0,0,0-1.519-1.748l.43-.244c.86-.5,1.268-1.763,1.268-3.461a8.686,8.686,0,0,0-4.357-8.054l-4.385-2.486-2.056,1.182v-2.372l-3.224-1.856-2.408,1.39v5.016l-3.246-9.688-3.224-1.856L168.8,313.54v2.35c-1.232-4.048-3.511-7.552-6.126-9.064a4.07,4.07,0,0,0-4.149-.279h0l-.093.05h0l-2.357,1.354c-1.225.6-2.945,2.773-2.945,7.438,0,6.356,2.952,12.991,7.165,15.406a4.087,4.087,0,0,0,4.249.308c.4-.236,1.963-1.139,2.35-1.354a4.779,4.779,0,0,0,1.935-2.257v7.839l3.224,1.856,2.408-1.39V330.78l3.189,9.645,3.224,1.856,2.056-1.182v2.372l5.367,3.1c1.318.767,2.386.881,3.16.444.423-.229,2.049-1.182,2.451-1.433a2.149,2.149,0,0,0,.717-.652c1.168,4.091,3.425,7.638,6.241,9.272a4.158,4.158,0,0,0,4.127.373c.451-.236,2.078-1.211,2.465-1.433,1.8-.982,2.931-3.662,2.931-7.538C210.36,339.285,207.172,332.542,203.245,330.271Zm-39.89-5.374a3.667,3.667,0,0,1-.717-.308c-2.637-1.526-3.647-5.353-3.647-8.6a8.763,8.763,0,0,1,.545-3.3,3,3,0,0,1,.717.3c2.5,1.433,3.633,5.345,3.633,8.6a9.207,9.207,0,0,1-.53,3.3Zm25.208,15.234v-2.049a4.22,4.22,0,0,1,.946,2.6Zm15.391,8.212a3.324,3.324,0,0,1-.717-.315c-2.637-1.519-3.647-5.353-3.647-8.6a8.764,8.764,0,0,1,.545-3.3,3.775,3.775,0,0,1,.717.3c2.508,1.433,3.633,5.345,3.633,8.6a9.244,9.244,0,0,1-.53,3.31Z" transform="translate(-153.073 -258.876)" fill="#0761e9"/>
        <path id="Path_1882" data-name="Path 1882" d="M298.461,395.312l2.35-1.333,2.128-2.322a13.411,13.411,0,0,0-5.446-6.872,3.925,3.925,0,0,0-3.905-.344c-.451.244-2.15,1.225-2.551,1.469a4.88,4.88,0,0,0-1.856,2.243v-7.767l-3.224-1.863-2.408,1.39v5.016l-3.267-9.68-3.224-1.856-2.064,1.2v-2.379l-3.217-1.856-2.408,1.383v2.5c-1.254-3.962-3.583-7.33-6.148-8.828l-4.1-2.365-2.4,1.39v15.721l-2.938-7.122,1.146-.652c1-.559,1.605-2.006,1.605-4.371,0-4.3-1.992-7.617-4.615-9.129l-5.052-2.916-2.415,1.369v11.909L240.6,352.32l-2.981-1.72-2.408,1.39-5.732,18.48,3.461,2,2.408-1.39.38-1.361,3.64,2.107,1.046,4.951,3.461,2,.552-.315v.638l3.224,1.856,2.408-1.39v-1.025l1.906,4.908,4.1,2.365.638-.365v.717l4.091,2.372a4.274,4.274,0,0,0,4.3.351l2.494-1.433a4.672,4.672,0,0,0,1.756-2.013v8.054l3.217,1.856,2.056-1.182v2.372l3.224,1.863,2.408-1.39v-5.016l3.246,9.68,3.224,1.863,2.408-1.39v-2.314c1.2,3.977,3.389,7.445,5.9,8.9a4.153,4.153,0,0,0,4.156.373c.408-.229,1.949-1.146,2.336-1.354,1.154-.609,2.064-2.021,2.443-4.507v-4.722Zm-48.008-27.63-.373-.222v-2.243a4.929,4.929,0,0,1,.638,2.6v.064Zm11.895,5.116a12.339,12.339,0,0,1,2.15,6.986,7.41,7.41,0,0,1-.595,3.124,3.441,3.441,0,0,1-1.032-.394l-.494-.294Zm35.963,29.041a5.066,5.066,0,0,1-.143,1.268,2.752,2.752,0,0,1-.516-.236,6.277,6.277,0,0,1-2.207-2.687Zm-.846-7.1-2.408,1.412v3.174a14.433,14.433,0,0,1-1-5.209,8.47,8.47,0,0,1,.666-3.583,2.924,2.924,0,0,1,.523.222c1.232.716,2.3,2.078,3.117,4.507Z" transform="translate(-174.715 -271.488)" fill="#0761e9"/>
        <path id="Path_1883" data-name="Path 1883" d="M218,340.93c3.927,2.264,7.115,9.014,7.115,15.37,0,3.877-1.132,6.556-2.938,7.538.509-.272,2.042-1.182,2.415-1.39,1.8-.982,2.931-3.662,2.931-7.538,0-6.356-3.189-13.106-7.115-15.37a4.045,4.045,0,0,0-4.22-.251c-.4.229-2.071,1.175-2.5,1.433h0A4.044,4.044,0,0,1,218,340.93Z" transform="translate(-170.239 -268.146)" opacity="0.2"/>
        <path id="Path_1884" data-name="Path 1884" d="M201.613,352.1v-2.049a5.382,5.382,0,0,0-1.433-1.125l-1.01-.58v5.145l1.01.58c1.526.881,2.365.652,2.365-1.06v-.365Z" transform="translate(-166.123 -270.851)" opacity="0.3"/>
        <path id="Path_1885" data-name="Path 1885" d="M183.812,334.549l.029.021v-8.484l-3.246-9.68-3.224-1.856-2.4,1.39,3.217,1.856Z" transform="translate(-159.263 -261.27)" opacity="0.2"/>
        <path id="Path_1886" data-name="Path 1886" d="M179.46,318.53l2.408-1.39,3.246,9.68V335.3Z" transform="translate(-160.536 -262.004)" opacity="0.1"/>
        <path id="Path_1887" data-name="Path 1887" d="M201.618,339.427a3.776,3.776,0,0,0-2.15-3.454l-.258-.143v4.693l.258.15C200.858,341.476,201.618,341.247,201.618,339.427Z" transform="translate(-166.134 -267.302)" opacity="0.3"/>
        <path id="Path_1888" data-name="Path 1888" d="M203.58,340.8a8.1,8.1,0,0,0-1.512-1.748l.444-.258c.846-.5,1.254-1.756,1.254-3.447a8.686,8.686,0,0,0-4.357-8.054l-4.371-2.5-2.056,1.182v-2.372l-3.224-1.856-2.408,1.39L190.574,325v21.769h0l2.056-1.182V326.15l4.385,2.537a8.71,8.71,0,0,1,4.357,8.054c0,2-.566,3.389-1.77,3.647,1.77,1.5,3.017,3.719,3.017,7.23,0,1.992-.523,3.332-1.483,3.855h0c.423-.229,2.049-1.182,2.451-1.433a2.15,2.15,0,0,0,.717-.652,22.472,22.472,0,0,1-.881-6.141,16.168,16.168,0,0,1,.158-2.443Z" transform="translate(-162.773 -263.311)" opacity="0.2"/>
        <path id="Path_1889" data-name="Path 1889" d="M220.675,359.866c-2.637-1.519-3.647-5.353-3.647-8.6a8.763,8.763,0,0,1,.545-3.3c.107.036.215.072.33.122-2.228-.982-3.282,1.49-3.282,4.564,0,3.246,1.01,7.079,3.647,8.6,1.569.9,2.572.279,3.117-1.075a3.324,3.324,0,0,1-.709-.315Z" transform="translate(-170.503 -270.716)" opacity="0.3"/>
        <path id="Path_1890" data-name="Path 1890" d="M163.808,306.822a4.079,4.079,0,0,0-4.142-.294h0l-.136.079-2.3,1.318a3.583,3.583,0,0,1,1.268-.423,4.657,4.657,0,0,1,2.916.717c3.919,2.271,7.108,9.014,7.108,15.377,0,3.841-1.118,6.506-2.866,7.509h0c.4-.236,1.956-1.139,2.343-1.354a4.787,4.787,0,0,0,1.942-2.257V315.879C168.7,311.83,166.416,308.326,163.808,306.822Z" transform="translate(-154.235 -258.872)" opacity="0.2"/>
        <path id="Path_1891" data-name="Path 1891" d="M160.368,318.556a8.763,8.763,0,0,1,.545-3.3,2.861,2.861,0,0,1,.322.115c-2.228-.974-3.275,1.49-3.275,4.572,0,3.246,1.01,7.072,3.647,8.6,1.562.9,2.565.272,3.117-1.082a3.669,3.669,0,0,1-.717-.308C161.378,325.628,160.368,321.8,160.368,318.556Z" transform="translate(-154.442 -261.442)" opacity="0.3"/>
        <path id="Path_1892" data-name="Path 1892" d="M259.716,375.158l1.139-.652c1-.559,1.605-2.006,1.605-4.371,0-4.3-1.992-7.617-4.615-9.129l-5.052-2.916-2.415,1.369,5.059,2.916c2.615,1.512,4.607,4.851,4.607,9.129,0,3.267-1.168,4.786-2.866,4.629l4.865,11.809h0l.638-.365v-5.317Z" transform="translate(-180.639 -273.611)" opacity="0.2"/>
        <path id="Path_1893" data-name="Path 1893" d="M319.324,406.317l.236.086c-1.849-.8-3.31,1.283-3.31,4.872s1.612,7.631,3.583,8.778c1.261.717,2.508.423,2.923-1.154a2.751,2.751,0,0,1-.516-.236,6.277,6.277,0,0,1-2.207-2.687l-.387-.229v-.652a14.432,14.432,0,0,1-1-5.209A8.469,8.469,0,0,1,319.324,406.317Z" transform="translate(-199.31 -287.258)" opacity="0.3"/>
        <path id="Path_1894" data-name="Path 1894" d="M274.009,370.335l-4.1-2.365-2.4,1.39,4.091,2.365c3.876,2.236,7.13,8.656,7.13,14.99,0,3.884-1.211,6.377-3.038,7.23l.215-.093,2.494-1.433a4.672,4.672,0,0,0,1.756-2.013V379.162C278.9,375.2,276.6,371.832,274.009,370.335Z" transform="translate(-185.495 -276.412)" opacity="0.2"/>
        <path id="Path_1895" data-name="Path 1895" d="M274.408,390.208v-9.423a6.27,6.27,0,0,0-1.906-1.8l-.5-.287v12.9l.5.287a2.2,2.2,0,0,0,3.432-.989,3.44,3.44,0,0,1-1.032-.394Z" transform="translate(-186.767 -279.454)" opacity="0.3"/>
        <path id="Path_1896" data-name="Path 1896" d="M254.88,389.6h0l2.408-1.39v-1.025L254.88,381Z" transform="translate(-181.915 -280.105)" opacity="0.3"/>
        <path id="Path_1897" data-name="Path 1897" d="M293.658,384.461l5.618,16.76.036.021v-8.484l-3.246-9.688-3.224-1.856-2.056,1.189v-2.379l-3.217-1.856-2.408,1.39,3.217,1.856v21.768h0L290.434,402v-19.4Z" transform="translate(-190.498 -279.303)" opacity="0.2"/>
        <path id="Path_1898" data-name="Path 1898" d="M235.4,375.92l-1.046,3.748h0l2.408-1.383.38-1.361Z" transform="translate(-176.095 -278.665)" opacity="0.3"/>
        <path id="Path_1899" data-name="Path 1899" d="M238.916,363.16l-1.576,5.424,3.189,1.841-1.576-7.244Z" transform="translate(-176.943 -275.049)" opacity="0.3"/>
        <path id="Path_1900" data-name="Path 1900" d="M297.02,398.48v13.514l2.408-1.39v-5.03l-2.372-7.072Z" transform="translate(-193.86 -285.06)" opacity="0.3"/>
        <path id="Path_1901" data-name="Path 1901" d="M310.542,399.193v-7.76l-3.224-1.863-2.408,1.39,3.224,1.863v21.769h0l2.408-1.39v-2.314a22.057,22.057,0,0,1-.982-6.349,12.84,12.84,0,0,1,.982-5.345Z" transform="translate(-196.096 -282.535)" opacity="0.2"/>
        <path id="Path_1902" data-name="Path 1902" d="M242.878,352.367l-2.988-1.727-2.4,1.39,2.981,1.72,5.7,25.065h0l.552-.315v-9.222Z" transform="translate(-176.985 -271.5)" opacity="0.2"/>
        <path id="Path_1903" data-name="Path 1903" d="M257.288,372.471v-2.264a5.3,5.3,0,0,0-2.035-1.791l-.373-.215v5.732l.373.215c1.2.717,2.644,1.433,2.673-1.24l-.265-.143Z" transform="translate(-181.915 -276.477)" opacity="0.3"/>
        <path id="Path_1904" data-name="Path 1904" d="M322.87,408.552l2.35-1.333,2.128-2.322a13.41,13.41,0,0,0-5.446-6.872,3.925,3.925,0,0,0-3.905-.344c-.408.222-1.842,1.053-2.408,1.383a3.927,3.927,0,0,1,3.905.351,13.422,13.422,0,0,1,5.446,6.865l-2.107,2.35a.723.723,0,0,1-.036-.115l-.9-.516-2.436,1.39,6.528,3.769v4.708c-.373,2.465-1.275,3.876-2.415,4.493h.043c.408-.229,1.949-1.146,2.336-1.354,1.154-.609,2.064-2.021,2.443-4.507v-4.722Z" transform="translate(-199.123 -284.728)" opacity="0.2"/>
        <path id="Path_1905" data-name="Path 1905" d="M173.3,330.726V319.132c-.158-.53-.344-1.053-.537-1.562l-2.408,1.376a22.213,22.213,0,0,1,1.526,7.882c0,3.841-1.118,6.506-2.866,7.509h0c.4-.236,1.963-1.139,2.35-1.354A4.78,4.78,0,0,0,173.3,330.726Z" transform="translate(-157.577 -262.126)" opacity="0.1"/>
        <path id="Path_1906" data-name="Path 1906" d="M191.85,325.68l2.408-1.39v2.372l-.351.208v19.39l-2.056,1.189Z" transform="translate(-164.048 -264.031)" opacity="0.1"/>
        <path id="Path_1907" data-name="Path 1907" d="M241.65,354.433l2.408-1.383,3.848,16.91v9.222l-.552.315Z" transform="translate(-178.164 -272.183)" opacity="0.1"/>
        <path id="Path_1908" data-name="Path 1908" d="M262.4,381.91l-1.225.717a1.9,1.9,0,0,1-1.34.287l4.865,11.809.638-.365V389.04Z" transform="translate(-183.318 -280.363)" opacity="0.1"/>
        <path id="Path_1909" data-name="Path 1909" d="M292.058,380.76l-2.408,1.39v21.768l2.056-1.182v-19.4l.351-.2Z" transform="translate(-191.77 -280.037)" opacity="0.1"/>
        <path id="Path_1910" data-name="Path 1910" d="M297.02,386.4l2.408-1.39,3.246,9.688v8.484Z" transform="translate(-193.86 -281.242)" opacity="0.1"/>
        <path id="Path_1911" data-name="Path 1911" d="M327.777,409.28l2.408-1.39-2.107,2.35-2.408,1.39Z" transform="translate(-201.981 -287.728)" opacity="0.1"/>
        <path id="Path_1912" data-name="Path 1912" d="M329.165,423.591c-.373,2.465-1.275,3.876-2.415,4.493h.043c.408-.229,1.949-1.146,2.336-1.354,1.154-.609,2.064-2.021,2.443-4.507V417.5l-2.408,1.39Z" transform="translate(-202.287 -290.452)" opacity="0.1"/>
        <path id="Path_1913" data-name="Path 1913" d="M281.968,390.652c0,3.884-1.211,6.377-3.038,7.23l.215-.093,2.494-1.433a4.672,4.672,0,0,0,1.756-2.014V383.1c-.136-.423-.279-.838-.437-1.24l-2.408,1.383A20.95,20.95,0,0,1,281.968,390.652Z" transform="translate(-188.732 -280.349)" opacity="0.1"/>
        <path id="Path_1914" data-name="Path 1914" d="M230.885,358.278a22.214,22.214,0,0,0-1.433-7.588l-2.408,1.39a22.212,22.212,0,0,1,1.433,7.588c0,3.876-1.132,6.556-2.938,7.538.509-.272,2.042-1.182,2.415-1.39C229.753,364.835,230.885,362.155,230.885,358.278Z" transform="translate(-173.598 -271.514)" opacity="0.1"/>
        <path id="Path_1915" data-name="Path 1915" d="M207.469,354.463c0,1.992-.523,3.332-1.483,3.855h0c.423-.229,2.049-1.182,2.451-1.433a2.15,2.15,0,0,0,.717-.652,22.472,22.472,0,0,1-.881-6.141,16.167,16.167,0,0,1,.179-2.443,8.1,8.1,0,0,0-1.512-1.748L205,347.025h-.072a.437.437,0,0,1-.1.05,1.239,1.239,0,0,1-.365.129A9.022,9.022,0,0,1,207.469,354.463Z" transform="translate(-167.623 -270.156)" opacity="0.1"/>
        <path id="Path_1916" data-name="Path 1916" d="M179.46,330.61v13.507h0l2.408-1.39V337.7l-2.372-7.079Z" transform="translate(-160.536 -265.822)" opacity="0.3"/>
        <path id="Path_1917" data-name="Path 1917" d="M309.41,393.56v21.769l2.408-1.39v-2.314a22.055,22.055,0,0,1-.982-6.349,12.84,12.84,0,0,1,.982-5.338V392.17Z" transform="translate(-197.372 -283.272)" opacity="0.1"/>
        <path id="Path_1918" data-name="Path 1918" d="M160.215,308.759c3.927,2.271,7.115,9.014,7.115,15.377s-3.052,9.53-7.115,7.165c-4.177-2.415-7.165-9.05-7.165-15.406S156.325,306.516,160.215,308.759Zm0,17.763c2.572,1.483,3.633-1.146,3.633-4.392s-1.132-7.165-3.633-8.6-3.647,1.139-3.647,4.385S157.579,325,160.215,326.522Z" transform="translate(-153.05 -259.419)" fill="#0761e9"/>
        <path id="Path_1919" data-name="Path 1919" d="M178.184,340.112l-3.224-1.856V316.48l3.224,1.863L183.8,335.1h0V321.61l3.224,1.856v21.769l-3.224-1.856-5.618-16.76h0Z" transform="translate(-159.261 -261.817)" fill="#0761e9"/>
        <path id="Path_1920" data-name="Path 1920" d="M199.105,330.427a8.71,8.71,0,0,1,4.357,8.054c0,2-.566,3.389-1.77,3.647,1.77,1.5,3.017,3.719,3.017,7.23s-1.691,5.095-4.622,3.4l-5.367-3.1V327.89Zm-.9,8c1.383.8,2.15.573,2.15-1.247a3.776,3.776,0,0,0-2.15-3.454l-.258-.143v4.693Zm.717,9.852c1.526.881,2.365.652,2.365-1.06a4.3,4.3,0,0,0-2.365-4.084l-1.01-.58V347.7Z" transform="translate(-164.862 -265.051)" fill="#0761e9"/>
        <path id="Path_1921" data-name="Path 1921" d="M216.892,341.477c3.927,2.264,7.115,9.014,7.115,15.37s-3.052,9.537-7.115,7.165c-4.177-2.408-7.122-9.05-7.122-15.406S213.009,339.227,216.892,341.477Zm0,17.756c2.572,1.483,3.633-1.146,3.633-4.392s-1.125-7.165-3.633-8.6-3.647,1.139-3.647,4.385S214.234,357.714,216.892,359.233Z" transform="translate(-169.128 -268.693)" fill="#0761e9"/>
        <path id="Path_1922" data-name="Path 1922" d="M243.915,379.4l-3.461-2-1.046-4.951-5.381-3.11-1.046,3.755-3.461-2,5.732-18.48,2.981,1.72Zm-7.165-19.182h-.036l-1.576,5.424,3.189,1.841Z" transform="translate(-174.726 -272.061)" fill="#0761e9"/>
        <path id="Path_1923" data-name="Path 1923" d="M255.456,362.938c2.615,1.512,4.607,4.851,4.607,9.129,0,3.267-1.168,4.786-2.866,4.629l4.865,11.809-4.1-2.365-4.3-11.092v8.6l-3.224-1.856V360Zm-1.433,8.813c1.218.717,2.673,1.433,2.673-1.3a4.473,4.473,0,0,0-2.673-4.392l-.373-.215v5.732Z" transform="translate(-180.656 -274.153)" fill="#0761e9"/>
        <path id="Path_1924" data-name="Path 1924" d="M271.6,372.275c3.876,2.236,7.13,8.656,7.13,14.99s-3.239,9.028-7.13,6.778l-4.091-2.365V369.91Zm-.373,17.118c2.379,1.376,4.005-.48,4.027-4.113s-1.662-7.423-4.027-8.785l-.5-.287v12.9Z" transform="translate(-185.495 -276.962)" fill="#0761e9"/>
        <path id="Path_1925" data-name="Path 1925" d="M288.377,403.732l-3.217-1.856V380.1l3.217,1.863Z" transform="translate(-190.498 -279.85)" fill="#0761e9"/>
        <path id="Path_1926" data-name="Path 1926" d="M295.724,407.992l-3.224-1.863V384.36l3.224,1.892,5.618,16.76h.036V389.483l3.224,1.863v21.769l-3.224-1.863L295.76,394.5h-.036Z" transform="translate(-192.578 -281.058)" fill="#0761e9"/>
        <path id="Path_1927" data-name="Path 1927" d="M324.814,418.41c-.774,5.073-3.755,5.732-6.528,4.1-3.8-2.2-6.886-9.021-6.886-15.248s2.909-9.609,6.886-7.316a13.422,13.422,0,0,1,5.446,6.864l-2.107,2.35c-.824-2.508-1.9-3.9-3.153-4.622-1.985-1.146-3.583.96-3.583,4.736s1.612,7.631,3.583,8.778c1.548.889,3.067.236,3.067-2.429l-3.26-1.863v-3.826l6.528,3.769Z" transform="translate(-197.936 -285.271)" fill="#0761e9"/>
      </g>
      <ellipse id="freepik--shadow--inject-4-3" data-name="freepik--shadow--inject-4" cx="33.978" cy="19.619" rx="33.978" ry="19.619" transform="translate(29.507 24.862)" opacity="0.1"/>
      <ellipse id="freepik--shadow--inject-4-4" data-name="freepik--shadow--inject-4" cx="38.184" cy="22.048" rx="38.184" ry="22.048" transform="translate(88.686 57.558)" opacity="0.1"/>
    </g>
    <g id="freepik--speech-bubbles--inject-4" transform="translate(120.402 21.503)">
      <g id="freepik--speach-bubble--inject-4">
        <path id="Path_1928" data-name="Path 1928" d="M150.812,24.752,176.278,39.4A2.25,2.25,0,0,1,177.3,41.16V75.934a2.214,2.214,0,0,1-1.025,1.748l-3.633,2.042a2.3,2.3,0,0,1-2.042,0l-25.459-14.66A2.228,2.228,0,0,1,144.12,63.3V28.528a2.221,2.221,0,0,1,1.017-1.748l3.64-2.042a2.264,2.264,0,0,1,2.035.014Z" transform="translate(-144.12 -24.503)" fill="#0761e9"/>
        <path id="Path_1929" data-name="Path 1929" d="M171.578,80.428V45.654a2.228,2.228,0,0,0-1.032-1.756L145.137,29.246c-.566-.322-1.017-.057-1.017.588V64.607a2.228,2.228,0,0,0,1.017,1.763l25.409,14.646C171.126,81.338,171.578,81.08,171.578,80.428Z" transform="translate(-144.12 -25.808)" fill="#0761e9"/>
        <path id="Path_1930" data-name="Path 1930" d="M181,85.889a2.322,2.322,0,0,0,2.042,0l3.633-2.042A2.214,2.214,0,0,0,187.7,82.1V47.332a2.15,2.15,0,0,0-.322-1.032l-5.661,3.232a2.035,2.035,0,0,1,.3,1V85.3C182.032,85.9,181.616,86.211,181,85.889Z" transform="translate(-154.574 -30.681)" opacity="0.2"/>
        <path id="Path_1931" data-name="Path 1931" d="M144.14,28.342c.079-.509.494-.717,1-.4l25.409,14.653a2.035,2.035,0,0,1,.717.76l5.668-3.232a2.064,2.064,0,0,0-.717-.717l-25.4-14.66a2.264,2.264,0,0,0-2.035,0l-3.64,2.042a2.236,2.236,0,0,0-1,1.555Z" transform="translate(-144.126 -24.503)" fill="#fff" opacity="0.4"/>
        <path id="Path_1932" data-name="Path 1932" d="M190.9,77.651c.638-.38,5.417-3.074,5.575-3.16a.946.946,0,0,0,.2-1.433l-8.641-10.8-5.6,3.174,8.641,10.791a.967.967,0,0,1-.179,1.426Z" transform="translate(-154.982 -35.205)" fill="#0761e9"/>
        <path id="Path_1933" data-name="Path 1933" d="M190.9,77.651c.638-.38,5.417-3.074,5.575-3.16a.946.946,0,0,0,.2-1.433l-8.641-10.8-5.6,3.174,8.641,10.791a.967.967,0,0,1-.179,1.426Z" transform="translate(-154.982 -35.205)" fill="#fff" opacity="0.4"/>
        <path id="Path_1934" data-name="Path 1934" d="M182.44,66.7l8.641,10.748A.91.91,0,0,1,190.5,79l-8.061.874Z" transform="translate(-154.982 -36.464)" fill="#0761e9"/>
        <path id="Path_1935" data-name="Path 1935" d="M159.73,56.593c0-2.006,1.06-3.024,2.365-2.271s2.357,2.988,2.357,5.016-1.053,3.024-2.357,2.271S159.73,58.6,159.73,56.593Z" transform="translate(-148.545 -32.885)" fill="#fafafa"/>
        <path id="Path_1936" data-name="Path 1936" d="M164.22,77.681l-5.732-3.31a3.475,3.475,0,0,1-1.283-3l.272-3.1c.193-2.236,1.5-3.246,3.038-2.357l1.677.967c1.541.9,2.866,3.4,3.038,5.868l.272,3.411C165.653,77.416,165.023,78.133,164.22,77.681Z" transform="translate(-147.826 -36.153)" fill="#fafafa"/>
        <path id="Path_1937" data-name="Path 1937" d="M168.3,56.075c0-2.207,1.161-3.325,2.594-2.494s2.594,3.289,2.594,5.489-1.161,3.325-2.594,2.5S168.3,58.282,168.3,56.075Z" transform="translate(-150.974 -32.667)" fill="#fafafa"/>
        <path id="Path_1938" data-name="Path 1938" d="M173.428,79.106l-3.79-2.193-.272-3.4a12.812,12.812,0,0,0-2.666-6.85,1.849,1.849,0,0,1,2.658-.473l1.856,1.068c1.691.982,3.117,3.733,3.332,6.449l.3,3.74C174.955,78.848,174.288,79.6,173.428,79.106Z" transform="translate(-150.52 -36.216)" fill="#fafafa"/>
        <path id="Path_1939" data-name="Path 1939" d="M156.32,50.335c0-2.1-1.1-4.435-2.465-5.216s-2.465.272-2.465,2.372,1.1,4.428,2.465,5.216S156.32,52.434,156.32,50.335Z" transform="translate(-146.181 -30.273)" fill="#fafafa"/>
        <path id="Path_1940" data-name="Path 1940" d="M156.726,61.74c-1.34.057-2.343,1.369-2.537,3.583l-.258,2.923-3.583-2.078a3.583,3.583,0,0,1-1.354-3.138l.287-3.217c.2-2.343,1.562-3.389,3.167-2.465l1.756,1.017a6.65,6.65,0,0,1,2.522,3.375Z" transform="translate(-145.498 -33.718)" fill="#fafafa"/>
      </g>
      <g id="freepik--speach-bubble--inject-4-2" data-name="freepik--speach-bubble--inject-4" transform="translate(169.273 40.029)">
        <path id="Path_1941" data-name="Path 1941" d="M396.89,109.53V99.4l-8.548-.717a.588.588,0,0,0-.358.072c-.33.179-7.216,4.142-7.323,4.206a.623.623,0,0,0-.136.96l9.057,9.831Z" transform="translate(-380.356 -85.559)" fill="#0761e9"/>
        <path id="Path_1942" data-name="Path 1942" d="M389.581,115.388l-9.057-9.8a.623.623,0,0,1,.509-1.046l8.548.717Z" transform="translate(-380.356 -87.218)" fill="#0761e9"/>
        <path id="Path_1943" data-name="Path 1943" d="M397.034,99.408l-7.3,4.2-8.548-.717a.652.652,0,0,0-.294.043c.681-.4,6.936-4,7.244-4.163a.588.588,0,0,1,.358-.072Z" transform="translate(-380.508 -85.562)" fill="#0761e9"/>
        <path id="Path_1944" data-name="Path 1944" d="M397.034,99.408l-7.3,4.2-8.548-.717a.652.652,0,0,0-.294.043c.681-.4,6.936-4,7.244-4.163a.588.588,0,0,1,.358-.072Z" transform="translate(-380.508 -85.562)" fill="#fff" opacity="0.5"/>
        <path id="Path_1945" data-name="Path 1945" d="M399.78,80.607l25.43,14.646a2.272,2.272,0,0,1,1.017,1.763V131.79a2.2,2.2,0,0,1-1.025,1.748l-3.64,2.042a2.286,2.286,0,0,1-2.035,0L394.1,120.949a2.25,2.25,0,0,1-1.017-1.756V84.4a2.221,2.221,0,0,1,1.025-1.748l3.64-2.035A2.264,2.264,0,0,1,399.78,80.607Z" transform="translate(-383.963 -80.368)" fill="#0761e9"/>
        <path id="Path_1946" data-name="Path 1946" d="M420.545,136.285V101.5a2.25,2.25,0,0,0-1.01-1.756L394.1,85.1c-.559-.322-1.017-.057-1.017.588v34.781a2.25,2.25,0,0,0,1.017,1.784l25.437,14.625C420.086,137.2,420.545,136.93,420.545,136.285Z" transform="translate(-383.963 -81.668)" fill="#0761e9"/>
        <path id="Path_1947" data-name="Path 1947" d="M430,141.746a2.329,2.329,0,0,0,2.035,0l3.64-2.042a2.221,2.221,0,0,0,1.025-1.741V103.189a2.078,2.078,0,0,0-.33-1.039l-5.654,3.232a2.034,2.034,0,0,1,.3,1v34.774C431.01,141.746,430.588,142.09,430,141.746Z" transform="translate(-394.428 -86.541)" opacity="0.2"/>
        <path id="Path_1948" data-name="Path 1948" d="M393.1,84.2c.079-.516.5-.717,1-.408L419.54,98.447a2.149,2.149,0,0,1,.717.76l5.661-3.232a2.05,2.05,0,0,0-.717-.717L399.785,80.605a2.286,2.286,0,0,0-2.035,0l-3.64,2.042A2.257,2.257,0,0,0,393.1,84.2Z" transform="translate(-383.969 -80.367)" fill="#fff" opacity="0.4"/>
        <path id="Path_1949" data-name="Path 1949" d="M397.705,112.957l1.068,3.583a.667.667,0,0,0,.473.4l2.107.509a.91.91,0,0,1,.537.394,17.475,17.475,0,0,0,1.132,1.97.774.774,0,0,1,.122.559l-.681,2.314a.623.623,0,0,0,.186.537l2.465,2.608a.308.308,0,0,0,.358.107.165.165,0,0,0,.05-.05l1.154-1.756c.079-.129.287-.115.473,0s.459.294.681.423.473.265.717.38a1.061,1.061,0,0,1,.494.473l1.211,3.26a.638.638,0,0,0,.494.337l2.243.222a.28.28,0,0,0,.208,0h0a.2.2,0,0,0,.093-.222l-.717-3.21a.358.358,0,0,1,.236-.4,3.525,3.525,0,0,0,.974-.573.416.416,0,0,1,.5.086L416.579,127a.394.394,0,0,0,.251.122h.086a.172.172,0,0,0,.057-.064L418,124.8a.58.58,0,0,0-.136-.53l-2.15-2.608a.881.881,0,0,1-.208-.566,10.637,10.637,0,0,0,0-1.849.308.308,0,0,1,.322-.315l1.927-.107a.246.246,0,0,0,.258-.322l-1.061-3.583a.666.666,0,0,0-.473-.394l-2.107-.509a.917.917,0,0,1-.537-.4,17.386,17.386,0,0,0-1.132-1.963.788.788,0,0,1-.122-.559l.717-2.322a.717.717,0,0,0-.193-.545l-2.465-2.6c-.143-.15-.33-.179-.416-.05l-1.146,1.748c-.079.129-.287.115-.48,0a10.322,10.322,0,0,0-1.383-.81,1.025,1.025,0,0,1-.494-.473l-1.211-3.26a.638.638,0,0,0-.494-.337l-2.243-.222a.322.322,0,0,0-.208,0,.186.186,0,0,0-.1.222l.717,3.21a.365.365,0,0,1-.229.4,3.46,3.46,0,0,0-.982.573.409.409,0,0,1-.5-.086l-2.293-2.092c-.122-.107-.244-.143-.33-.1h0a.143.143,0,0,0-.064.064l-1.017,2.257a.609.609,0,0,0,.129.537l2.15,2.594a.91.91,0,0,1,.208.573c0,.308-.043.631-.043.953a5.238,5.238,0,0,0,.05.9.315.315,0,0,1-.33.315l-1.92.107a.38.38,0,0,0-.136,0h0a.244.244,0,0,0-.165.308Zm8.441,6.549c-2.3-2.422-3.389-6.1-2.436-8.2a2.25,2.25,0,0,1,1.763-1.433h.265a3.533,3.533,0,0,1,1.591.344,4.674,4.674,0,0,1,.566.287,7.781,7.781,0,0,1,1.7,1.376,10.032,10.032,0,0,1,2.78,6.37,4.776,4.776,0,0,1-.036.652,3.989,3.989,0,0,1-.308,1.175,2.257,2.257,0,0,1-2.114,1.433h-.444l-.193-.036h-.215a6.363,6.363,0,0,1-2.916-1.97Z" transform="translate(-385.271 -86.557)" fill="#fff"/>
      </g>
    </g>
    <g id="freepik--character-2--inject-4" transform="translate(226.174 60.046)">
      <g id="freepik--Character--inject-4">
        <path id="Path_1950" data-name="Path 1950" d="M305.253,122.25c-4.729.932-7.789,3.425-8.806,10.834-1.211,8.9-3.146,22.578-3.146,22.578s-6.284,17.806-9.487,21.8a21.927,21.927,0,0,1-3.052,2.916c-2.945,3.69-9.8,6.148-6.685,8.226a9.033,9.033,0,0,0,9.4,0c4.607-2.565,6.492-5.525,8.778-9.315,2.866-4.722,12.7-22.392,12.7-22.392Z" transform="translate(-273.284 -87.644)" fill="#b16668"/>
        <path id="Path_1951" data-name="Path 1951" d="M285.49,196.86c-.609,1.018-2.709,1.268-4.708,1.67s-3.533,1.576-4.923,1.863c-1.2.244-.853,1.67,1.283,1.784s4.65-1.512,5.066,0S286.572,199.569,285.49,196.86Z" transform="translate(-273.821 -108.793)" fill="#b16668"/>
        <path id="Path_1952" data-name="Path 1952" d="M294.9,183.38l-1.275,2.966c2.042.136,7.008,2.615,7.882,4.3l1.755-3.052Z" transform="translate(-279.049 -104.972)" fill="#ebebeb"/>
        <path id="Path_1953" data-name="Path 1953" d="M311.191,122.25s-4.808-.15-7.13,3.977-5.195,29.378-5.195,29.378l-4.636,11.758c1.956-.136,7.946,2.916,8.72,4.772l8.083-13.242Z" transform="translate(-279.222 -87.644)" fill="#37474f"/>
        <rect id="Rectangle_496" data-name="Rectangle 496" width="7.015" height="12.009" transform="translate(54.06 188.161)" fill="#b16668"/>
        <path id="Path_1954" data-name="Path 1954" d="M316.579,324.311l-7.008.236-.351-12.7,7.359-.244Z" transform="translate(-283.471 -141.317)" fill="#b16668"/>
        <path id="Path_1955" data-name="Path 1955" d="M343.965,194.307c0,6.7-.272,61.436-.272,61.436.165,1.927,2.021,5.36,2.15,12.3.215,10.032-1.333,33.778-1.333,33.778a9.229,9.229,0,0,1-7.81.158s-5.51-33.548-6.771-43.508c-1.1-8.7-4.149-47.707-4.149-47.707l-5.367,37.1a39.828,39.828,0,0,1,.874,11.149c-.33,4.607-4.6,27.694-4.6,27.694a9.573,9.573,0,0,1-8.1.623s-.416-36.243-.5-40.47c-.093-4.822,1.01-54.006,1.01-54.006Z" transform="translate(-283.148 -107.659)" fill="#37474f"/>
        <path id="Path_1956" data-name="Path 1956" d="M345.174,348.078v-1c-.38,0-.609.365-.752,1.268-.107.645-.2,1.139-.416,1.985a22.931,22.931,0,0,1-1.225,3.583c-.989,2.443-1.82,3.353-4.091,6.212a27.567,27.567,0,0,0-2.15,2.508c-.423.752-.573,2.866.143,3.339,2.651,1.763,6.671,1.813,9.516.974a5.732,5.732,0,0,0,4.134-4.636c.1-.645.064-1.311.136-1.963a9.315,9.315,0,0,1,1.756-4.07,12.182,12.182,0,0,0,1.354-2.221c.588-1.433.115-3.06-.265-4.5-.322-1.24-.674-2.6-1.1-2.486v.767a5.525,5.525,0,0,1-3.511,1.182C347.653,349.066,345.167,348.859,345.174,348.078Z" transform="translate(-291.114 -151.369)" fill="#263238"/>
        <path id="Path_1957" data-name="Path 1957" d="M302.828,326.461c0,.186-.652.76-1.433,1.433a28.349,28.349,0,0,1-2.408,1.863,45.044,45.044,0,0,1-5.367,3.368c-2.214,1.218-4.213,1.956-6.864,3.153a2.093,2.093,0,0,0-.717.494,1.433,1.433,0,0,0-.323.659,2.73,2.73,0,0,0,1.111,2.644,7.28,7.28,0,0,0,2.766,1.182,14.252,14.252,0,0,0,6.9.208,17.971,17.971,0,0,0,5.252-2.565,12.489,12.489,0,0,1,4.743-2.042c1.49-.215,3.318-.143,4.607-1.032,1.433-.989.86-3.1.459-4.908-.444-1.978-1-5.066-1.655-4.93v.717c-.838,1.275-5.195,1.8-7.044.86Z" transform="translate(-276.799 -145.394)" fill="#263238"/>
        <path id="Path_1958" data-name="Path 1958" d="M328.934,215.625A26.046,26.046,0,0,1,319.16,210s1.884,3.533,7.495,6.814l-2.716,33.857Z" transform="translate(-286.288 -112.518)" fill="#263238"/>
        <path id="Path_1959" data-name="Path 1959" d="M331.962,123.041c2.386.573,7.2,1.361,8.276,6.119,1.3,5.732,1.72,18.143,1.72,18.143l.444,27.673c-4.829,3.518-23.574,5.431-33.742-1.992,0,0,2.243-33.226,2.243-38.4s2.866-11.379,10.813-11.844Z" transform="translate(-283.312 -87.783)" fill="#f5f5f5"/>
        <path id="Path_1960" data-name="Path 1960" d="M321.591,121.717a20.7,20.7,0,0,0-3.941,7.667c-.96,4.185-1.87,51.677-1.87,51.677s-5.424-.659-7.746-2.479c0,0-.473-38.815.494-44.848,1.727-10.669,1.6-11.73,13.063-12.733Z" transform="translate(-283.102 -87.29)" fill="#455a64"/>
        <path id="Path_1961" data-name="Path 1961" d="M341.451,121s-6.614,4.063-6.685,20.249c-.065,13.987.15,41.817.15,41.817s10.977.717,17.914-3.461c0,0-1.433-17.67-1.541-27.551,2.866-14.03,5.374-27.709,1.34-28.819S341.451,121,341.451,121Z" transform="translate(-290.708 -87.29)" fill="#455a64"/>
        <path id="Path_1962" data-name="Path 1962" d="M342.959,133.38l-3.024,3.748,1.512,4.271-3.977,10.2,4.8-10.2-1.684-4.027Z" transform="translate(-291.478 -90.799)" fill="#37474f"/>
        <path id="Path_1963" data-name="Path 1963" d="M314.553,131.7l.659,3.876-2.623,3.411,3.647,11.486-2.823-11.357,2.422-3.189Z" transform="translate(-284.426 -90.323)" fill="#37474f"/>
        <path id="Path_1964" data-name="Path 1964" d="M331.169,85.517a9.645,9.645,0,1,1-9.645-9.637A9.645,9.645,0,0,1,331.169,85.517Z" transform="translate(-284.225 -74.5)" fill="#263238"/>
        <path id="Path_1965" data-name="Path 1965" d="M346.973,98.9s-1.562,7.337-2.193,8.541A3.311,3.311,0,0,1,342.86,109l.115-5.166Z" transform="translate(-293.006 -81.025)" fill="#263238"/>
        <path id="Path_1966" data-name="Path 1966" d="M345.46,84.212a3.626,3.626,0,0,1,2.966,1.053c1.29,1.318.566,5.431-1.032,9.466l-2.945.337Z" transform="translate(-293.457 -76.856)" fill="#263238"/>
        <path id="Path_1967" data-name="Path 1967" d="M335,93.3c.588.351,1.433-.781,2.15-1.541a2.568,2.568,0,0,1,4.3.717c1.2,2.515-1.046,5.9-2.916,6.492-3.224,1.01-3.7-1.053-3.7-1.053l-.244,13.163h0c-2.228,2.866-7.23,6.22-9.924,5.732-2.15-.387-2.623-4.02-.566-6.4v-4.722a20.179,20.179,0,0,1-4.328.244c-2.372-.365-3.869-2.236-4.579-4.8-1.089-3.919-1.433-8.319-.616-15.556,1.01-8.892,11.407-8.971,16.982-5.46S335,93.3,335,93.3Z" transform="translate(-284.86 -75.088)" fill="#b16668"/>
        <path id="Path_1968" data-name="Path 1968" d="M334.494,93.162c.294,0,1.433-1.87,2.15-2.537,1.017-.924-.294-9.315-.294-9.315a4.056,4.056,0,0,0-.717-4.521c-1.39-1.541-3.339-3.411-9.659-2.666-4.514.537-9.423,1.942-13.385,0a6.75,6.75,0,0,0,2.35,7.165s1.433.924,5.209,1.383a55.431,55.431,0,0,0,10.462-.2c1.1-.143,1.326.917,1.92,3.812C333.068,88.827,333.5,93.14,334.494,93.162Z" transform="translate(-284.353 -73.954)" fill="#263238"/>
        <path id="Path_1969" data-name="Path 1969" d="M345.766,83.93l3.583-1.913a1.963,1.963,0,0,0-2.7-.889,2.15,2.15,0,0,0-.881,2.8Z" transform="translate(-293.77 -75.922)" fill="#263238"/>
        <path id="Path_1970" data-name="Path 1970" d="M328.05,114.829s5.3-1.068,7.165-2.049a6.084,6.084,0,0,0,2.551-2.529,8.3,8.3,0,0,1-1.433,2.981c-1.354,1.727-8.247,3.11-8.247,3.11Z" transform="translate(-288.808 -84.243)" fill="#9a4a4d"/>
        <path id="Path_1971" data-name="Path 1971" d="M327.35,96.671a1.06,1.06,0,1,0,1.06-1.111A1.089,1.089,0,0,0,327.35,96.671Z" transform="translate(-288.61 -80.079)" fill="#263238"/>
        <path id="Path_1972" data-name="Path 1972" d="M328.62,92.495l2.264,1.254a1.354,1.354,0,0,0-.559-1.806,1.254,1.254,0,0,0-1.705.552Z" transform="translate(-288.97 -79.013)" fill="#263238"/>
        <path id="Path_1973" data-name="Path 1973" d="M327.762,107.75l-2.422.9a1.275,1.275,0,0,0,1.648.8,1.361,1.361,0,0,0,.774-1.7Z" transform="translate(-288.04 -83.534)" fill="#9a4a4d"/>
        <path id="Path_1974" data-name="Path 1974" d="M315.265,93.119l2.379-1.075a1.254,1.254,0,0,0-1.684-.717,1.369,1.369,0,0,0-.7,1.791Z" transform="translate(-285.152 -78.849)" fill="#263238"/>
        <path id="Path_1975" data-name="Path 1975" d="M316,96.671a1.06,1.06,0,1,0,1.06-1.111A1.089,1.089,0,0,0,316,96.671Z" transform="translate(-285.393 -80.079)" fill="#263238"/>
        <path id="Path_1976" data-name="Path 1976" d="M321.576,96.31l-.344,6.377-3.332-1.139Z" transform="translate(-285.931 -80.291)" fill="#9a4a4d"/>
        <path id="Path_1977" data-name="Path 1977" d="M323.45,130.193c.652,1.541,1.849,2.15,4.027,2.415a8.083,8.083,0,0,0,6.019-2.092l-2.056-2.049-4.084,1.942-1.111-2.608Z" transform="translate(-287.504 -89.217)" fill="#37474f"/>
        <path id="Path_1978" data-name="Path 1978" d="M325.68,130a7.165,7.165,0,0,0-.358,2.866,4.972,4.972,0,0,0,.967,2.415,2.63,2.63,0,0,0,2.336.251,6.377,6.377,0,0,0,2.228-4.837l-2.974.337Z" transform="translate(-288.029 -89.841)" fill="#455a64"/>
        <path id="Path_1979" data-name="Path 1979" d="M325.308,137.37c-2.314,9.071-3.712,24.506-3.432,26.061s2.021,7.165,3.361,7.165,3.7-5.553,3.518-6.972c-.337-2.7-1.669-26.268-1.111-26.025Z" transform="translate(-287.048 -91.93)" fill="#455a64"/>
        <path id="Path_1980" data-name="Path 1980" d="M328.985,137.621a2.35,2.35,0,0,1-2.336-.251l-.079.3a2.257,2.257,0,0,0,2.3.595Z" transform="translate(-288.389 -91.93)" fill="#37474f"/>
        <path id="Path_1981" data-name="Path 1981" d="M328.9,127.29c4.2-2.114,9.272-5.2,9.946-8.6l.036-1.892s1.648.523,2.078,3.3a14.322,14.322,0,0,1-7,10.569l-2.085-3.69Z" transform="translate(-289.049 -86.099)" fill="#e0e0e0"/>
        <path id="Path_1982" data-name="Path 1982" d="M326.487,118.46a3.927,3.927,0,0,0-1.691,1.333c-2.515,3.353-2.279,9.086-2.279,9.086l2.372-2.15,2.2,1.06a9.58,9.58,0,0,1-.616-5.883Z" transform="translate(-287.238 -86.57)" fill="#e0e0e0"/>
        <path id="Path_1983" data-name="Path 1983" d="M355.612,124.16c3.282.846,5.453,1.111,7.7,5.4,1.956,3.733,10.985,19.347,12.9,23.094.96,1.856,1.913,3.977-.623,6.549-2.035,2.049-15.427,14.625-17.613,16.774a9.222,9.222,0,0,1-5.99,2.866c-3.4.3-5.066-.9-5.668-1.641-3.583-4.435,3.3-5.109,5.668-6.578a11.96,11.96,0,0,0,2.909-2.5l-.143-2.35s2.508,0,3.31-.638,7.946-9.924,7.946-9.924-10.218-13.449-11.529-16.265S351.679,126.324,355.612,124.16Z" transform="translate(-293.699 -88.185)" fill="#b16668"/>
        <path id="Path_1984" data-name="Path 1984" d="M365.019,177.57l-1.641,2.25a5.732,5.732,0,0,0,1.333,3.941,9.875,9.875,0,0,0,3.583,2.866l2.15-2.071Z" transform="translate(-298.821 -103.325)" fill="#ebebeb"/>
        <path id="Path_1985" data-name="Path 1985" d="M361.766,163.16s.53,5.89,5.611,7.517c0,0,12.081-11.529,13.213-13.091s.344-3.2-2.085-7.466-11.973-21.668-13.557-23.481-4.142-2.15-7.817-2.938a15.513,15.513,0,0,0-1.526,10.791c1.433,5.89,2.744,7.452,2.744,7.452l9.38,13.292Z" transform="translate(-296.514 -88.055)" fill="#37474f"/>
      </g>
    </g>
    <g id="freepik--characters-shaking-hands--inject-4" transform="translate(70.329 41.857)">
      <g id="freepik--Girl--inject-4" transform="translate(78.256)">
        <path id="Path_1986" data-name="Path 1986" d="M225.989,282.863a3.583,3.583,0,0,1-.537,2.107,26.1,26.1,0,0,1-3.468,4.55c-1.856,2-4.636,4.357-6.628,6.091-1.1.967-1.146,2.429.437,2.938a11.873,11.873,0,0,0,8.706-1.211c1.978-1.061,4.794-5.969,6.449-6.714,1.885-.853,2.945-1.283,3.583-2.15a3.058,3.058,0,0,0,.38-3.8c-.889-1.655-2.228-4.213-2.78-3.934l.172.53c-.43,1.354-4.12,2.931-6.012,2.551Z" transform="translate(-198.302 -114.375)" fill="#37474f"/>
        <path id="Path_1987" data-name="Path 1987" d="M246.706,296.148v-.91a17.514,17.514,0,0,1-4.521,7.925c-2,1.82-4.722,3.92-5.417,5.947s3.217,2.952,5.8,2.694a10.4,10.4,0,0,0,6.5-3.4c1.641-1.877,1.612-3.167,2.379-4.2s2.529-2.2,2.945-3.4a7.569,7.569,0,0,0-.365-3.318c-.322-1.218-.609-2.35-.989-2.25v.717a5.016,5.016,0,0,1-3.167,1.068C248.942,297.036,246.7,296.85,246.706,296.148Z" transform="translate(-204.574 -118.488)" fill="#37474f"/>
        <path id="Path_1988" data-name="Path 1988" d="M251.816,189.008c.924-9.064,2.78-23.445.717-33.6-10.476-1.584-20.851-3-31.442-4.3-2.551,13.156-3.769,48.195-2.429,53.1a402.5,402.5,0,0,1,7.825,41.287,4.149,4.149,0,0,1-.487,2.931,21.977,21.977,0,0,1-3,4.056c-.889.946-1.727,2-2.687,2.923a.917.917,0,0,0-.279.717c.179,1.433,2.25,1.2,3.7.717a9.845,9.845,0,0,0,4.557-3.5c.967-1.232,2.866-3.461,3.869-4.779a10.028,10.028,0,0,0,1.046-1.619,3.583,3.583,0,0,0,.193-2.393,6.13,6.13,0,0,1-.086-.631c-.057-2.056,1.992-24.441,1.383-29.55-.666-5.546-1.433-7.122-3.289-11.758,1.3-9.551,2.537-19.683,3.812-29.378.222,10.476.265,22.428,1.612,32.481,1.075,8.047,1.6,13.614,2.451,21.5.817,7.559,1.806,21.5,1.9,23.567a21.817,21.817,0,0,1-.115,3.919,15.693,15.693,0,0,1-4.142,7.674c-.48.437-1,.889-1.526,1.347-1.06,1.182-.76,2.214,1.734,2.429s4.693-1.29,6.585-3.583c.846-1.032,4.048-6.32,4.048-7.395h0v-.867a37.469,37.469,0,0,1,.523-5.876c1.046-6.191,3.3-17.355,3.669-22.306.595-7.882,0-11.687-2-17.914C250.72,200.473,250.914,197.814,251.816,189.008Z" transform="translate(-199.308 -77.636)" fill="#ffa8a7"/>
        <path id="Path_1989" data-name="Path 1989" d="M222.21,143.36a122.777,122.777,0,0,0-3.619,20.572c-.91,11.006-1.863,33.391-1.433,35.6s6.886,29.894,6.886,29.894a9.021,9.021,0,0,0,5.51.781,11.679,11.679,0,0,0,4.357-1.935s1.39-12.59.874-17.5a45.794,45.794,0,0,0-2.974-10.748L234.928,171s-.387,17.269.573,27.365,4.156,33.62,4.156,33.62a6.406,6.406,0,0,0,4.915,2.1,12.969,12.969,0,0,0,5.854-1.483s1.132-5.245,1.605-9.387a38.816,38.816,0,0,0-1.72-16.8s2.386-27.529,3.224-33.541,3-16.8-3.869-26.777C249,145.811,222.21,143.36,222.21,143.36Z" transform="translate(-199.008 -75.439)" fill="#37474f"/>
        <path id="Path_1990" data-name="Path 1990" d="M238.222,179.039v-1.3s-6.449-2.021-9.552-6.012c0,0,1.483,3.79,7.882,7.309,0,0-.136,17-.122,16.817S238.222,179.039,238.222,179.039Z" transform="translate(-202.301 -83.481)" fill="#263238"/>
        <path id="Path_1991" data-name="Path 1991" d="M211.5,102.05c-2.3,6.771-6.141,26.225-6.141,26.225s-7.165,10.454-9.616,13.457c-1.225,1.512-3.876,4.514-3.876,4.514l6,4.715c4.342-5.016,10.891-11.672,13.614-15.126a13.116,13.116,0,0,0,2.709-4.529l2.73-17.3s0-13.829,2.15-15.649,2.723-2.193,2.723-2.193C219.02,95.966,213.309,96.754,211.5,102.05Z" transform="translate(-191.87 -62.052)" fill="#ffa8a7"/>
        <path id="Path_1992" data-name="Path 1992" d="M228.54,95.832c-3.74-.43-8.527-.358-10.863,3.826S211.45,125.4,211.45,125.4s3.676,2.866,7.653,2.816Z" transform="translate(-197.42 -61.918)" fill="#455a64"/>
        <path id="Path_1993" data-name="Path 1993" d="M219.764,124a38.694,38.694,0,0,1,.781,9.8c-.3,4.3-3.375,12.253-3.375,12.253s2.422,2.2,9.014,1.168c5.36-.838,3.468-17.018.387-20.149A10.168,10.168,0,0,0,219.764,124Z" transform="translate(-199.041 -69.951)" fill="#37474f"/>
        <path id="Path_1994" data-name="Path 1994" d="M240.319,96.222s8.957,1.032,10.032,1.512c-8.4,5.9-1.6,19.053-1.6,19.053l-3.217,10.082c2.064,2.651,3.97,4.672,5.575,6.886a22.3,22.3,0,0,1,3,5.453c2.15,5.611-21.819,14.524-34.9,4.192.523-3.246,1.354-6.621,2.1-9.645,1.025-4.192,1.9-7.724,1.605-9.365-3.762-11.586-3.991-13.672-3.325-16.258,1.877-7.273,9.315-12.181,11.121-12.181Z" transform="translate(-199.62 -62)" fill="#0761e9"/>
        <path id="Path_1995" data-name="Path 1995" d="M247.116,96.33s8.384.717,10.032,1.512,4.378,5.5,1.928,12.375-4.665,14.94-4.414,16.566,6.091,10.032,6.091,10.032a15.807,15.807,0,0,1-5.374,2.58l-3.009-6.556.717,6.943a35.709,35.709,0,0,1-9.229.974C243.849,140.756,241,114.115,247.116,96.33Z" transform="translate(-206.417 -62.108)" fill="#455a64"/>
        <path id="Path_1996" data-name="Path 1996" d="M219,80.291h13.872A16.523,16.523,0,0,0,249.4,63.768h0a15.205,15.205,0,0,0-15.2-15.2h0a15.2,15.2,0,0,0-15.2,15.2Z" transform="translate(-199.56 -48.57)" fill="#263238"/>
        <path id="Path_1997" data-name="Path 1997" d="M225.762,58.15c-1.612.946-3.583,5.016-3.4,13.449.165,7.165,2.494,8.942,3.662,9.458s3.418.2,5.6-.165v4.3s-3.024,3.511-2.866,5.489,4.364,2.436,7.165.509a23.522,23.522,0,0,0,5.216-5.689l-.043-9.9s1.283,1.247,3.468-.659c1.806-1.576,2.415-4.235,1.01-5.668a3.146,3.146,0,0,0-5.016,1s-1.218-3.375-6.263-5.016C229.824,63.775,227.352,62.055,225.762,58.15Z" transform="translate(-200.511 -51.286)" fill="#ffa8a7"/>
        <path id="Path_1998" data-name="Path 1998" d="M233.82,73.646a.9.9,0,1,0,.946-.9A.924.924,0,0,0,233.82,73.646Z" transform="translate(-203.761 -55.424)" fill="#263238"/>
        <path id="Path_1999" data-name="Path 1999" d="M232.382,82.89l-2.092.666a1.075,1.075,0,0,0,1.361.752,1.146,1.146,0,0,0,.731-1.419Z" transform="translate(-202.76 -58.298)" fill="#f28f8f"/>
        <path id="Path_2000" data-name="Path 2000" d="M223.559,70.3l1.827-1.268a1.06,1.06,0,0,0-1.512-.308,1.168,1.168,0,0,0-.315,1.576Z" transform="translate(-200.802 -54.228)" fill="#263238"/>
        <path id="Path_2001" data-name="Path 2001" d="M236.487,70.771,234.66,69.5a1.075,1.075,0,0,1,1.519-.308,1.168,1.168,0,0,1,.308,1.576Z" transform="translate(-203.999 -54.362)" fill="#263238"/>
        <path id="Path_2002" data-name="Path 2002" d="M224.3,73.366a.9.9,0,1,0,.953-.9A.932.932,0,0,0,224.3,73.366Z" transform="translate(-201.063 -55.345)" fill="#263238"/>
        <path id="Path_2003" data-name="Path 2003" d="M229.182,72.77l-.143,5.431-2.859-.889Z" transform="translate(-201.595 -55.43)" fill="#f28f8f"/>
        <path id="Path_2004" data-name="Path 2004" d="M235.3,88.473c2.307-.308,7.058-1.67,7.8-3.583a4.88,4.88,0,0,1-1.662,2.393C240,88.5,235.3,89.87,235.3,89.87Z" transform="translate(-204.181 -58.865)" fill="#f28f8f"/>
        <path id="Path_2005" data-name="Path 2005" d="M271.224,138.392c.659-3.955,0-5.245-1.4-9.122l-7.774,4.543a15.005,15.005,0,0,1,1.046,4.579c-.064,1.132-1.612,12.461-3.074,16.409a3.052,3.052,0,0,1-1.433,1.619,17.4,17.4,0,0,0-3.891,3.232c-1.075.975-1.942,1.175-1.834,1.519a1.648,1.648,0,0,0,2.056.889,11.71,11.71,0,0,0,2.494-1.132,15.348,15.348,0,0,1-2.752,4.056c-2.572,2.744-2.8,4.529,1.992,4.9,3,.229,5.525-1.433,8.233-7.882a60.2,60.2,0,0,0,2.078-7.251C268.415,149.068,270.558,142.361,271.224,138.392Z" transform="translate(-209.157 -71.445)" fill="#ffa8a7"/>
        <path id="Path_2006" data-name="Path 2006" d="M261.114,98.44c3.375,1.519,4.514,4.435,6.255,9.014,1.627,4.3,5.231,17.433,5.231,17.433s-4.084,4.034-8.77,2.866l-5.976-14.582S255.044,103.642,261.114,98.44Z" transform="translate(-210.39 -62.706)" fill="#37474f"/>
      </g>
      <g id="freepik--Boy--inject-4" transform="translate(0 55.307)">
        <path id="Path_2007" data-name="Path 2007" d="M93.223,365.448c-.509.193-.8,1.161-1.032,3.518-.143,1.433-.638,3.389,1.591,4.572a5.632,5.632,0,0,0,5.259-.05c1.927-1.2,2.529-3.927,4.794-5.732,1.985-1.555,5.173-3.11,6.284-5.51.917-1.978.917-4.808-2.372-4.658-4.005.186-6.277,3.346-8.993,3.411C97.236,361.056,93.739,365.262,93.223,365.448Z" transform="translate(-85.317 -191.469)" fill="#263238"/>
        <path id="Path_2008" data-name="Path 2008" d="M93.7,366.6v2.379c0,1.161,4.944,2.866,6.327.236.107-.229.645-3.482.645-3.482Z" transform="translate(-85.787 -193.779)" fill="#ffbda7"/>
        <path id="Path_2009" data-name="Path 2009" d="M125.053,387.88s-.939,0-1.3,3.834c-.143,1.433-.494,4.457,0,5.546s3.2,1.562,6.234,1.834a16.277,16.277,0,0,1,6.4,2.479,13.914,13.914,0,0,0,6.492,1.791c2.866,0,5.3-.287,7.337-1.906,1.089-.86,2.465-2.673,1.433-4.034a2.981,2.981,0,0,0-1.533-.81c-1.275-.473-2.558-.91-3.862-1.318a39.969,39.969,0,0,1-5.675-2.15c-2.673-1.318-5.654-2.795-7.674-5.052Z" transform="translate(-94.232 -200.057)" fill="#263238"/>
        <path id="Path_2010" data-name="Path 2010" d="M125.69,385.11v2.773c0,1.01,1.175,2.515,4.256,2.422,2.15-.064,3.676-.638,3.583-2.422v-2.572Z" transform="translate(-94.855 -199.272)" fill="#ffbda7"/>
        <path id="Path_2011" data-name="Path 2011" d="M91.654,297.31a64.436,64.436,0,0,1,2.866-12.368s-.8-10.691-1.146-20.823A266.472,266.472,0,0,1,94.24,233s34.394-3.267,34.989,9.387-.251,44.834-.717,50.387-.889,10.748-2.064,21.095c-1.01,8.9-2.644,28.217-2.644,28.217a8.333,8.333,0,0,1-7.882-.2s-2.594-25.939-2.866-32.345c-.387-8.312,1.555-12.9,1.555-12.9s-.717-5.224-2.021-15.972c-.9-7.6-2.107-16.244-2.107-16.244s-1.175,10.705-1.892,16.674c-.659,5.532-1.784,9.9-3.447,20.214-1.433,8.95-5.367,27.881-5.367,27.881-4.048,2.15-6.757-.33-6.757-.33S90.521,305.07,91.654,297.31Z" transform="translate(-85.124 -156.048)" fill="#37474f"/>
        <path id="Path_2012" data-name="Path 2012" d="M113.427,270.4,111.8,259.839s-6.7-2.15-10.11-6.119c0,0,1.82,4.643,8.061,7.165l2.5,8.9.43,7.344Z" transform="translate(-88.052 -162.028)" fill="#263238"/>
        <path id="Path_2013" data-name="Path 2013" d="M98.853,173.873c-5.367-1.3-8.763,1.3-10.748,8.6-1.7,6.263-4.185,19.218-5.152,24.054-.358,1.791-1.06,3.848,2.709,6.1a166.451,166.451,0,0,0,16.9,8.534l2.064-7.717-8.326-17.075Z" transform="translate(-82.657 -139.305)" fill="#0761e9"/>
        <path id="Path_2014" data-name="Path 2014" d="M98.853,173.873c-5.367-1.3-8.763,1.3-10.748,8.6-1.7,6.263-4.185,19.218-5.152,24.054-.358,1.791-1.06,3.848,2.709,6.1a166.451,166.451,0,0,0,16.9,8.534l2.064-7.717-8.326-17.075Z" transform="translate(-82.657 -139.305)" opacity="0.25"/>
        <path id="Path_2015" data-name="Path 2015" d="M121.3,168.32l-1.605,11.3-10.168-.351.982-13.2Z" transform="translate(-90.274 -137.183)" fill="#ffbda7"/>
        <path id="Path_2016" data-name="Path 2016" d="M136.14,149.75s2.73,4,2.429,4.4-2.25.788-2.25.788Z" transform="translate(-97.817 -132.557)" fill="#f0997a"/>
        <path id="Path_2017" data-name="Path 2017" d="M130.19,147.5a3.318,3.318,0,1,1,3.368,3.267,3.318,3.318,0,0,1-3.368-3.267Zm.717,0a3.93,3.93,0,1,1,.021-.007Z" transform="translate(-96.13 -130.964)" fill="#263238"/>
        <path id="Path_2018" data-name="Path 2018" d="M119.057,134.131c5.4,1.053,7,3.4,7.638,11.952.674,8.935-.193,11.758-1.347,12.984-.781.824-5.188,1.039-7.423.466-2.795-.717-9.122-2.866-12.138-7.309-3.583-5.238-4.572-12.4-.91-15.4C110.043,132.6,116.858,133.708,119.057,134.131Z" transform="translate(-88.301 -128.002)" fill="#ffbda7"/>
        <path id="Path_2019" data-name="Path 2019" d="M125.84,169.346c2.329.251,5.453,0,6.1-.717a15.84,15.84,0,0,1-5.79-1.139Z" transform="translate(-94.897 -137.586)" fill="#f0997a"/>
        <path id="Path_2020" data-name="Path 2020" d="M125.4,134.042l-.165.172c-1.068,1.046-2.443,1.72-3.583,2.709a8.412,8.412,0,0,0-2.494,4.12c-.351,1.3-.473,2.866-1.877,3.468,0,0-.946-3.447-3.855-2.966s-3.26,4.235-1.376,6.449,3.583,1.34,3.583,1.34,0,4.951-2.15,7.782c0,0-2.479.846-7.079-.057-2.866-.559-6.872-4.013-8.6-7.717-3.669-7.839-4.027-14.933.975-17.147.487-3.64,3.325-5.317,6.578-6.119,4.865-1.2,9.48,1.627,14.288.473,1.01-.244,1.985-.623,3.009-.767a.645.645,0,0,1,.351,0c.251.122.236.473.172.717a6.305,6.305,0,0,1-1.383,2.623,15.047,15.047,0,0,0,5.46-.774A7.029,7.029,0,0,1,125.4,134.042Z" transform="translate(-86.166 -125.756)" fill="#263238"/>
        <path id="Path_2021" data-name="Path 2021" d="M99.993,136.134l-3.253-1.849a1.871,1.871,0,0,1,3.253,1.849Z" transform="translate(-86.649 -127.905)" fill="#263238"/>
        <path id="Path_2022" data-name="Path 2022" d="M126.118,153.15l-.158-3.74a1.872,1.872,0,1,1,.158,3.74Z" transform="translate(-94.931 -132.46)" fill="#263238"/>
        <path id="Path_2023" data-name="Path 2023" d="M135.043,147.73l-10,1.455.416.7,9.6-1.4Z" transform="translate(-94.671 -131.985)" fill="#263238"/>
        <path id="Path_2024" data-name="Path 2024" d="M93.581,179.773c1.189-4.643,2.866-6.155,6.9-6.263a52.576,52.576,0,0,1,6.205.8c.423,1.956,5.489,3.289,10.612,2.228,1.526.444,5.56,1.548,6.821,2.006,3.626,1.311,5.388,5.08,5.625,17.032,0,0,.717,28.346,0,33.24a43.942,43.942,0,0,1-23.875,2.236c-10.906-2.443-12.181-6.979-12.181-6.979s.573-11.379.939-20.027c-.545-5.51-1.369-9.652-1.662-14.051A37.023,37.023,0,0,1,93.581,179.773Z" transform="translate(-85.546 -139.292)" fill="#0761e9"/>
        <path id="Path_2025" data-name="Path 2025" d="M180.23,174.446c.881-2.236,2.15-6.22,4.256-8.942s2.866-4.722,3.676-3.533c1.089,1.576-1.369,4.729-.824,5.016s2.594,4.464,2.8,6.771-5.9,8.111-5.9,8.111Z" transform="translate(-110.315 -135.922)" fill="#ffbda7"/>
        <path id="Path_2026" data-name="Path 2026" d="M135.837,179.677a11.328,11.328,0,0,1,5.08,2.393c2.544,2.15,15.384,12.181,15.384,12.181l11.536-16.731,5.646,6.5s-8.455,16.094-11.995,22.112c-1.1,1.884-3.9,2.236-8.72-.545-4.013-2.314-17.2-10.59-17.2-10.59S132.283,185.431,135.837,179.677Z" transform="translate(-97.263 -140.429)" fill="#ffbda7"/>
        <path id="Path_2027" data-name="Path 2027" d="M134.6,180.2a9.945,9.945,0,0,1,3.833,1.01c1.913.975,17.326,13.514,17.326,13.514l3.934-5.4a13.324,13.324,0,0,1,7.939,5.46s-4.3,9.179-6.1,12.267-3.368,2.422-6.793.946-17.548-9.745-17.548-9.745-4.02-2.744-4.65-7.33C131.363,182.206,134.6,180.2,134.6,180.2Z" transform="translate(-96.723 -141.189)" fill="#0761e9"/>
        <path id="Path_2028" data-name="Path 2028" d="M134.6,180.2a9.945,9.945,0,0,1,3.833,1.01c1.913.975,17.326,13.514,17.326,13.514l3.934-5.4a13.324,13.324,0,0,1,7.939,5.46s-4.3,9.179-6.1,12.267-3.368,2.422-6.793.946-17.548-9.745-17.548-9.745-4.02-2.744-4.65-7.33C131.363,182.206,134.6,180.2,134.6,180.2Z" transform="translate(-96.723 -141.189)" opacity="0.1"/>
        <path id="Path_2029" data-name="Path 2029" d="M165.05,200.1a44.7,44.7,0,0,1,3.26,3.533,7.034,7.034,0,0,0-2.58-4.464Z" transform="translate(-106.012 -146.566)" opacity="0.1"/>
        <path id="Path_2030" data-name="Path 2030" d="M170.54,191.789l2.006-2.909a11.042,11.042,0,0,1,4.629,1.87,8.914,8.914,0,0,1,3.052,3.232l-1.748,3.267A18.938,18.938,0,0,0,170.54,191.789Z" transform="translate(-107.568 -143.649)" fill="#0761e9"/>
        <path id="Path_2031" data-name="Path 2031" d="M170.54,191.789l2.006-2.909a11.042,11.042,0,0,1,4.629,1.87,8.914,8.914,0,0,1,3.052,3.232l-1.748,3.267A18.938,18.938,0,0,0,170.54,191.789Z" transform="translate(-107.568 -143.649)" opacity="0.25"/>
        <path id="Path_2032" data-name="Path 2032" d="M181.945,196.3a.537.537,0,1,1-.537-.537.537.537,0,0,1,.537.537Z" transform="translate(-110.496 -145.599)" fill="#455a64"/>
        <path id="Path_2033" data-name="Path 2033" d="M109.586,170.507,109.5,171.6s.537,1.533,3.583,2.107c5.188.967,7-.645,7-.645l.129-.932s.5-.208,1.34.437a46.648,46.648,0,0,1,3.583,4.206s-.989-.294-4.228,1.089a15.47,15.47,0,0,1-10.118.38,5.567,5.567,0,0,1-3.69-4.149C107.027,173.144,108.69,170.135,109.586,170.507Z" transform="translate(-89.584 -138.432)" fill="#0761e9"/>
        <path id="Path_2034" data-name="Path 2034" d="M109.586,170.507,109.5,171.6s.537,1.533,3.583,2.107c5.188.967,7-.645,7-.645l.129-.932s.5-.208,1.34.437a46.648,46.648,0,0,1,3.583,4.206s-.989-.294-4.228,1.089a15.47,15.47,0,0,1-10.118.38,5.567,5.567,0,0,1-3.69-4.149C107.027,173.144,108.69,170.135,109.586,170.507Z" transform="translate(-89.584 -138.432)" opacity="0.25"/>
      </g>
      <g id="freepik--Hands--inject-4" transform="translate(74.381 82.187)">
        <path id="Path_2035" data-name="Path 2035" d="M189.91,168.538s7.388-.638,8.47,0,.752,3.834,0,5.8-4.521,3.239-8.018,5.6C190.354,179.587,189.91,168.538,189.91,168.538Z" transform="translate(-187.439 -164.683)" fill="#ffbda7"/>
        <path id="Path_2036" data-name="Path 2036" d="M190.54,181.51c1.433-1.053,1.433-2.343,1.734-4.4s5.926-4.3,6.1-2.737.717,2.816-1.046,4.672S193.127,182.893,190.54,181.51Z" transform="translate(-187.618 -166.269)" fill="#ffa8a7"/>
        <path id="Path_2037" data-name="Path 2037" d="M189.778,165.276c-1.347,1.748-1.576,3.812-2.286,4.951s-1.791,2.451-.229,2.658,3.461-1.827,4.3-3.683a4.457,4.457,0,0,1,2.279-2.35c-.717-.251-.351-3.2-.867-3.583C193,163.256,190.337,164.338,189.778,165.276Z" transform="translate(-186.462 -163.27)" fill="#ffa8a7"/>
      </g>
    </g>
  </g>
</svg>
