<?xml version="1.0" encoding="UTF-8"?>
<svg width="752pt" height="752pt" version="1.1" viewBox="0 0 752 752" xmlns="http://www.w3.org/2000/svg">
 <path d="m205.89 553.07v-170.76c0-28.246 4.2656-53.75 12.805-76.52 8.5391-22.77 20.523-42.086 35.961-57.961 15.434-15.875 34.039-28.078 55.824-36.617 21.781-8.5391 45.809-12.805 72.082-12.805 24.078 0 46.137 4.4336 66.168 13.297 20.031 8.8711 37.277 21.133 51.723 36.781 14.449 15.656 25.664 34.262 33.656 55.824 7.9883 21.566 11.988 45.047 11.988 70.441v178.31h-340.21zm79.141-32.84c11.82-7.8789 23.312-16.906 34.48-27.094s21.184-21.395 30.047-33.656c8.8672-12.258 15.98-25.504 21.344-39.738 5.3594-14.227 8.0469-29.328 8.0469-45.312 0-9.8594-0.82422-19.543-2.4688-29.07-1.6445-9.5234-4.5469-18.113-8.7031-25.777-4.1562-7.6641-9.9062-13.844-17.238-18.551-7.3359-4.707-16.578-7.0625-27.746-7.0625-17.078 0-33.004 7.8281-47.781 23.48-14.777 15.656-25.547 37.93-30.297 71.336-4.6328 32.535 0 131.45 0 131.45l40.316 0.003906zm52.305-266.11c24.602 5.2266 25.949 6.7852 37.391 13.023 13.023 7.1055 24.109 17.207 31.414 27.32 7.8008 10.809 12.586 22.93 17.188 36.285 4.6016 13.355 6.8984 27.914 6.8984 43.684 0 17.508-2.4688 33.77-7.3945 48.766-4.9258 14.992-11.113 28.629-18.555 40.883-7.4453 12.266-15.602 23.098-24.465 32.512-8.8672 9.4141-17.352 17.297-25.449 23.641h137.93l-0.003907-145.48c0-19.922-2.4141-38.586-7.2227-55.992-4.8203-17.402-12.207-32.621-22.168-45.648-9.9648-13.023-22.719-23.258-38.262-30.703-15.543-7.4414-34.039-11.164-55.5-11.164-10.949 0-21.457 1.4258-31.523 4.2656-10.074 2.8516-19.539 6.8438-28.406 11.988-8.8711 5.1445-28.609 20.824-17.594 12.234 9.7344-7.5781 30.949-8.75 45.727-5.6094z" fill="#00449e"/>
</svg>
