<svg xmlns="http://www.w3.org/2000/svg" width="47" height="47" viewBox="0 0 47 47">
  <g id="Group_15" data-name="Group 15" transform="translate(-55 -874)">
    <rect id="Rectangle_181" data-name="Rectangle 181" width="47" height="47" rx="9" transform="translate(55 874)" fill="#f2f6fc"/>
    <g id="vuesax_outline_search-normal" data-name="vuesax/outline/search-normal" transform="translate(-362 697)">
      <g id="search-normal">
        <g id="Vector" transform="translate(429.25 189.25)" fill="none">
          <path d="M10.25,20.5A10.25,10.25,0,1,1,20.5,10.25,10.264,10.264,0,0,1,10.25,20.5Zm0-19A8.75,8.75,0,1,0,19,10.25,8.76,8.76,0,0,0,10.25,1.5Z" stroke="none"/>
          <path d="M 10.25 20.5 C 4.599999904632568 20.5 0 15.89999961853027 0 10.25 C 0 4.599999904632568 4.599999904632568 0 10.25 0 C 15.89999961853027 0 20.5 4.599999904632568 20.5 10.25 C 20.5 15.89999961853027 15.89999961853027 20.5 10.25 20.5 Z M 10.25 1.5 C 5.420000076293945 1.5 1.5 5.429999828338623 1.5 10.25 C 1.5 15.06999969482422 5.420000076293945 19 10.25 19 C 15.07999992370605 19 19 15.06999969482422 19 10.25 C 19 5.429999828338623 15.07999992370605 1.5 10.25 1.5 Z" stroke="none" fill="#076aff"/>
        </g>
        <g id="Vector-2" data-name="Vector" transform="translate(447.253 207.253)" fill="none">
          <path d="M2.748,3.5a.742.742,0,0,1-.53-.22l-2-2A.75.75,0,0,1,1.278.218l2,2a.754.754,0,0,1,0,1.06A.742.742,0,0,1,2.748,3.5Z" stroke="none"/>
          <path d="M 2.747500658035278 3.497500419616699 C 2.557500600814819 3.497500419616699 2.36750054359436 3.427500247955322 2.217500686645508 3.27750039100647 L 0.2175006568431854 1.27750039100647 C -0.0724993422627449 0.9875003099441528 -0.0724993422627449 0.5075003504753113 0.2175006568431854 0.2175003290176392 C 0.5075006484985352 -0.07249966263771057 0.9875006675720215 -0.07249966263771057 1.277500629425049 0.2175003290176392 L 3.277500629425049 2.217500448226929 C 3.567500591278076 2.507500410079956 3.567500591278076 2.987500429153442 3.277500629425049 3.27750039100647 C 3.127500772476196 3.427500247955322 2.937500715255737 3.497500419616699 2.747500658035278 3.497500419616699 Z" stroke="none" fill="#076aff"/>
        </g>
        <g id="Vector-3" data-name="Vector" transform="translate(428 188)" fill="none" opacity="0">
          <path d="M0,0H24V24H0Z" stroke="none"/>
          <path d="M 2 2 L 2 22 L 22 22 L 22 2 L 2 2 M 0 0 L 24 0 L 24 24 L 0 24 L 0 0 Z" stroke="none" fill="#076aff"/>
        </g>
      </g>
    </g>
  </g>
</svg>
