<svg xmlns="http://www.w3.org/2000/svg" width="26.797" height="26.797" viewBox="0 0 26.797 26.797">
  <g id="vuesax_bold_heart" data-name="vuesax/bold/heart" transform="translate(-236 -188)">
    <g id="heart" transform="translate(236 188)">
      <g id="Vector" transform="translate(2.233 3.461)" fill="none">
        <path d="M16.123,0a6.2,6.2,0,0,0-4.957,2.49A6.2,6.2,0,0,0,0,6.241a11.923,11.923,0,0,0,.581,3.7c1.764,5.583,7.2,8.921,9.893,9.837a2.435,2.435,0,0,0,1.385,0c2.691-.916,8.128-4.254,9.893-9.837a11.923,11.923,0,0,0,.581-3.7A6.223,6.223,0,0,0,16.123,0Z" stroke="none"/>
        <path d="M 6.207996368408203 2.000003814697266 C 3.887697219848633 2.000003814697266 1.999996185302734 3.90272331237793 1.999996185302734 6.241493225097656 C 1.999996185302734 7.293672561645508 2.162666320800781 8.329973220825195 2.483495712280273 9.321622848510742 L 2.487655639648438 9.334632873535156 C 3.319755554199219 11.96785354614258 5.119596481323242 13.91732215881348 6.482966423034668 15.08904266357422 C 8.192950248718262 16.55866241455078 9.976630210876465 17.48686599731445 11.08822059631348 17.87062835693359 C 11.10487842559814 17.87247467041016 11.13174343109131 17.8745231628418 11.16546630859375 17.8745231628418 C 11.19918918609619 17.8745231628418 11.22605419158936 17.87247467041016 11.24271202087402 17.87062835693359 C 12.35430240631104 17.48686599731445 14.13798236846924 16.55866241455078 15.84796619415283 15.08904266357422 C 17.21133613586426 13.91732215881348 19.01117706298828 11.96785354614258 19.84327697753906 9.334632873535156 L 19.84743690490723 9.321622848510742 C 20.16826629638672 8.329973220825195 20.33093643188477 7.293672561645508 20.33093643188477 6.241493225097656 C 20.33093643188477 3.90272331237793 18.4432373046875 2.000003814697266 16.1229362487793 2.000003814697266 C 14.812255859375 2.000003814697266 13.55765628814697 2.631032943725586 12.76688671112061 3.688003540039062 L 11.16546630859375 5.828522682189941 L 9.564045906066895 3.688003540039062 C 8.773276329040527 2.631032943725586 7.5186767578125 2.000003814697266 6.207996368408203 2.000003814697266 M 6.207996368408203 3.814697265625e-06 C 8.228946685791016 3.814697265625e-06 10.03775596618652 0.9825630187988281 11.16546630859375 2.489902496337891 C 12.29317665100098 0.9825630187988281 14.10198593139648 3.814697265625e-06 16.1229362487793 3.814697265625e-06 C 19.55073547363281 3.814697265625e-06 22.33093643188477 2.791362762451172 22.33093643188477 6.241493225097656 C 22.33093643188477 7.570182800292969 22.1187858581543 8.798382759094238 21.75032615661621 9.937262535095215 C 19.98618698120117 15.51999282836914 14.54860687255859 18.85847282409668 11.85772609710693 19.7740421295166 C 11.4780969619751 19.90802192687988 10.8528356552124 19.90802192687988 10.47320652008057 19.7740421295166 C 7.782326698303223 18.85847282409668 2.344745635986328 15.51999282836914 0.5806064605712891 9.937262535095215 C 0.2121467590332031 8.798382759094238 -3.814697265625e-06 7.570182800292969 -3.814697265625e-06 6.241493225097656 C -3.814697265625e-06 2.791362762451172 2.780197143554688 3.814697265625e-06 6.207996368408203 3.814697265625e-06 Z" stroke="none" fill="#428dff"/>
      </g>
      <g id="Vector-2" data-name="Vector" transform="translate(26.797 26.797) rotate(180)" fill="none" opacity="0">
        <path d="M0,0H26.8V26.8H0Z" stroke="none"/>
        <path d="M 2 2 L 2 24.797119140625 L 24.797119140625 24.797119140625 L 24.797119140625 2 L 2 2 M 0 0 L 26.797119140625 0 L 26.797119140625 26.797119140625 L 0 26.797119140625 L 0 0 Z" stroke="none" fill="#428dff"/>
      </g>
    </g>
  </g>
</svg>
