<svg xmlns="http://www.w3.org/2000/svg" width="316.564" height="310.073" viewBox="0 0 316.564 310.073">
  <g id="Waiting-pana" transform="translate(-23.28 -33.07)">
    <g id="freepik--background-complete--inject-68" transform="translate(28.984 33.07)">
      <rect id="Rectangle_157" data-name="Rectangle 157" width="27.283" height="7.512" transform="translate(87.295 265.635)" fill="#ebebeb"/>
      <path id="Path_348" data-name="Path 348" d="M167.17,431.62a1.187,1.187,0,0,1,0-.133v-1.766c0-1.25,0-3.037-.049-5.3l.084.084-27.283.056.14-.14h0v7.2l-.14-.14,19.443.063,5.739.042h1.955a.468.468,0,0,1,.147,0h-2.039l-5.7.035-19.52.14h-.133V424.43h0l.14-.14,27.283.056h.084v.084c0,2.283,0,4.091-.049,5.348v1.745A.7.7,0,0,1,167.17,431.62Z" transform="translate(-64.16 -151.164)" fill="#e0e0e0"/>
      <path id="Path_349" data-name="Path 349" d="M182.92,304.884v-2.032c0-1.319,0-3.218-.042-5.585l.07.091-22.466.056c.049-.063-.119.147.112-.147h0v7.624l-.112-.14,16.015.063,4.726.042h.056l-4.7.042-16.1.063h-.112v-7.7h0c.23-.293.063-.084.119-.147l22.466.056h.07v.091c0,2.416,0,4.328-.035,5.662v1.857C182.99,304.877,182.927,304.891,182.92,304.884Z" transform="translate(-70.366 -112.77)" fill="#e0e0e0"/>
      <path id="Path_350" data-name="Path 350" d="M438.344,438.834a1.231,1.231,0,0,1,0-.14v-1.9c0-1.313,0-3.211-.049-5.585l.091.084-28.875.063.147-.147h0v7.638l-.14-.147,20.574.07,6.074.035h.049l-6.039.042-20.679.063h-.147V431.2h0l.147-.147,28.875.056h.056v.091c0,2.409-.042,4.321-.049,5.655v1.857A.859.859,0,0,1,438.344,438.834Z" transform="translate(-145.524 -153.205)" fill="#e0e0e0"/>
      <path id="Path_351" data-name="Path 351" d="M448.952,427.835a.754.754,0,0,1,0-.147v-1.941c0-1.34-.035-3.225-.056-5.585l.1.1-17.349.042.147-.147h0v7.631l-.14-.14,12.406.063,3.616.042h.063l-3.581.035-12.5.07h-.14v-7.77h0c0,.035.279-.279.154-.147l17.349.042h.1v.1c0,2.353-.042,4.273-.056,5.627v1.508A4.451,4.451,0,0,1,448.952,427.835Z" transform="translate(-152.216 -149.843)" fill="#e0e0e0"/>
      <rect id="Rectangle_158" data-name="Rectangle 158" width="27.283" height="7.512" transform="translate(251.379 126.538)" fill="#ebebeb"/>
      <path id="Path_352" data-name="Path 352" d="M402.238,232.374a.53.53,0,0,1,0-.133v-1.766c0-1.25,0-3.037-.042-5.3l.084.084L375,225.316l.14-.14h0v7.2l-.133-.133,19.443.056,5.739.042h.063l-5.711.042-19.548.056h-.14V225.17h0l.14-.14,27.283.056h.084v.084c0,2.283-.035,4.091-.049,5.348v1.752a.643.643,0,0,1-.07.1Z" transform="translate(-135.109 -91.015)" fill="#e0e0e0"/>
      <path id="Path_353" data-name="Path 353" d="M440.3,146.571v-2.039c0-1.312,0-3.211-.049-5.585l.084.084-28.875.063.147-.147h0v7.638l-.147-.147,20.581.07h6.137l-6.039.042-20.679.063h-.147v-7.68h0l.147-.154,28.875.063h.084v.091c0,2.409,0,4.321-.049,5.655v1.857C440.367,146.543,440.3,146.571,440.3,146.571Z" transform="translate(-146.115 -64.98)" fill="#e0e0e0"/>
      <path id="Path_354" data-name="Path 354" d="M450.9,135.637V133.55c0-1.34-.035-3.225-.056-5.585l.1.1-17.349.042.147-.147h0V135.6l-.14-.14,12.413.063,3.616.042h-3.526l-12.5.07h-.14v-7.624h0l.147-.147,17.349.042h.1v.1c0,2.353-.042,4.266-.056,5.627v1.508a4.461,4.461,0,0,1-.112.5Z" transform="translate(-152.805 -61.683)" fill="#e0e0e0"/>
      <path id="Path_355" data-name="Path 355" d="M435,299.194v-2.032c0-1.319,0-3.218-.042-5.585l.07.091-22.466.056c.049-.063-.119.147.112-.147h0V299.2l-.112-.14,16.015.063,4.726.042h.056l-4.705.042-16.092.063h-.112v-7.7h0c.23-.293.063-.084.119-.147l22.466.056h.07v.091c0,2.416,0,4.328-.035,5.662v1.857C435.007,299.159,435.007,299.2,435,299.194Z" transform="translate(-146.459 -111.053)" fill="#e0e0e0"/>
      <rect id="Rectangle_159" data-name="Rectangle 159" width="66.833" height="110.627" transform="translate(146.539 20.141)" fill="#e0e0e0"/>
      <rect id="Rectangle_160" data-name="Rectangle 160" width="66.833" height="110.627" transform="translate(144.312 20.141)" fill="#ebebeb"/>
      <rect id="Rectangle_161" data-name="Rectangle 161" width="61.143" height="106.138" transform="translate(147.161 22.382)" fill="#fff"/>
      <rect id="Rectangle_162" data-name="Rectangle 162" width="37.595" height="78.554" transform="translate(158.798 36.178)" fill="#ebebeb"/>
      <path id="Path_356" data-name="Path 356" d="M258.91,145.06c-.084-7.337,6.514-14.5,13.781-15.527,3.491-.489,7.142.2,10.381-1.131,5.781-2.367,7.617-10.046,13.432-12.322l.265,56.78H258.91Z" transform="translate(-100.111 -58.128)" fill="#e0e0e0"/>
      <rect id="Rectangle_163" data-name="Rectangle 163" width="25.231" height="41.86" transform="translate(0 38.684)" fill="#f5f5f5"/>
      <rect id="Rectangle_164" data-name="Rectangle 164" width="27.262" height="41.86" transform="translate(26.201 38.684)" fill="#f5f5f5"/>
      <rect id="Rectangle_165" data-name="Rectangle 165" width="27.262" height="40.45" transform="translate(26.201 83.469)" fill="#f5f5f5"/>
      <path id="Path_357" data-name="Path 357" d="M113.03,71.028h28.707V33.894h.963V71.028h23.367V33.07H113.03Z" transform="translate(-56.076 -33.07)" fill="#f5f5f5"/>
      <rect id="Rectangle_166" data-name="Rectangle 166" width="23.36" height="41.86" transform="translate(86.632 38.684)" fill="#f5f5f5"/>
      <rect id="Rectangle_167" data-name="Rectangle 167" width="23.36" height="40.45" transform="translate(86.632 83.469)" fill="#f5f5f5"/>
      <rect id="Rectangle_168" data-name="Rectangle 168" width="25.231" height="40.45" transform="translate(0 83.469)" fill="#f5f5f5"/>
      <rect id="Rectangle_169" data-name="Rectangle 169" width="28.707" height="40.45" transform="translate(56.954 83.469)" fill="#f5f5f5"/>
      <rect id="Rectangle_170" data-name="Rectangle 170" width="25.231" height="36.45" transform="translate(0 124.646)" fill="#f5f5f5"/>
      <rect id="Rectangle_171" data-name="Rectangle 171" width="23.36" height="36.45" transform="translate(86.632 124.646)" fill="#f5f5f5"/>
      <path id="Path_358" data-name="Path 358" d="M56.681,71.028V33.894h.97V71.028H84.906V33.07H31.45V71.028Z" transform="translate(-31.45 -33.07)" fill="#f5f5f5"/>
      <rect id="Rectangle_172" data-name="Rectangle 172" width="28.707" height="36.45" transform="translate(56.954 124.646)" fill="#f5f5f5"/>
      <rect id="Rectangle_173" data-name="Rectangle 173" width="27.262" height="36.45" transform="translate(26.201 124.646)" fill="#f5f5f5"/>
      <rect id="Rectangle_174" data-name="Rectangle 174" width="28.707" height="41.86" transform="translate(56.954 38.684)" fill="#f5f5f5"/>
      <path id="Path_359" data-name="Path 359" d="M246.785,41.754V39.716c0-1.319,0-3.211-.042-5.585l.07.084-22.466.063c.049-.07-.119.147.112-.147h0v7.631l-.112-.147,16.015.07,4.726.035h.056l-4.705.042-16.057.063h-.112v-7.7h0l.119-.154,22.466.063h.07v.091c0,2.409,0,4.321-.035,5.655v1.857A.123.123,0,0,1,246.785,41.754Z" transform="translate(-89.655 -33.342)" fill="#e0e0e0"/>
    </g>
    <g id="freepik--Floor--inject-68" transform="translate(23.28 338.184)">
      <path id="Path_360" data-name="Path 360" d="M339.844,470.292c0,.1-70.875.182-158.275.182s-158.289-.084-158.289-.182,70.854-.182,158.289-.182S339.844,470.187,339.844,470.292Z" transform="translate(-23.28 -470.11)" fill="#263238"/>
    </g>
    <g id="freepik--Chairs--inject-68" transform="translate(41.292 198.147)">
      <path id="Path_361" data-name="Path 361" d="M121.711,412.449c-.063.084-9.774-7.128-21.642-16.1S78.594,380.042,78.65,380s9.774,7.121,21.642,16.1S121.774,412.373,121.711,412.449Z" transform="translate(-58.006 -302.872)" fill="#263238"/>
      <path id="Path_362" data-name="Path 362" d="M72.34,413.272c-.063-.077,9.613-7.6,21.642-16.8s21.775-16.6,21.838-16.518-9.613,7.6-21.642,16.8S72.4,413.349,72.34,413.272Z" transform="translate(-56.101 -302.857)" fill="#263238"/>
      <path id="Path_363" data-name="Path 363" d="M81.82,368.12,80.11,377.4h2.541l2.632-9.278Z" transform="translate(-58.447 -299.286)" fill="#263238"/>
      <path id="Path_364" data-name="Path 364" d="M70.517,376.316c-2.262,11.3-10.982,53.5-13.188,64.152a2.011,2.011,0,0,0,1.92,2.45h0a1.976,1.976,0,0,0,1.9-1.487l17.028-63.468a3.491,3.491,0,0,0-3.267-4.433H73.84A3.407,3.407,0,0,0,70.517,376.316Z" transform="translate(-51.555 -300.919)" fill="#455a64"/>
      <path id="Path_365" data-name="Path 365" d="M129.433,368.12l1.71,9.278H128.6l-2.632-9.278Z" transform="translate(-72.29 -299.286)" fill="#263238"/>
      <path id="Path_366" data-name="Path 366" d="M124.26,326.471c-4.957-9.194-10.849-37.267-13.446-46.224-.07-.251-.147-.5-.223-.733a14.472,14.472,0,0,0-13.8-9.774H81.841a14.458,14.458,0,0,0-13.788,9.774l-.23.733c-2.59,8.957-8.489,37-13.439,46.224,0,0-6.6,3.889-4.719,7.61,1.822,3.581,18.78,6.123,39.654,5.452,20.881.7,37.839-1.871,39.654-5.452C130.857,330.359,124.26,326.471,124.26,326.471Z" transform="translate(-49.154 -269.589)" fill="#e0e0e0"/>
      <path id="Path_367" data-name="Path 367" d="M124.186,326.405a12.683,12.683,0,0,1,1.634,1.11,13.4,13.4,0,0,1,1.787,1.62,6.374,6.374,0,0,1,1.627,2.848,3.274,3.274,0,0,1-.237,1.962,3.609,3.609,0,0,1-1.571,1.536,12.875,12.875,0,0,1-2.178.97c-.782.286-1.606.531-2.464.754a78.3,78.3,0,0,1-11.98,1.885c-4.5.419-9.453.635-14.808.642H91.9c-1.389,0-2.793-.1-4.189,0q-4.294.112-8.866,0a131.249,131.249,0,0,1-19.122-1.592,49.072,49.072,0,0,1-4.964-1.1,21.173,21.173,0,0,1-2.478-.859,8.252,8.252,0,0,1-2.276-1.333,2.611,2.611,0,0,1-.74-1.166c-.035-.1-.084-.216-.112-.328l-.042-.342-.035-.342v-.349a5.208,5.208,0,0,1,1.054-2.485,15,15,0,0,1,4.056-3.554l-.07.07a71.28,71.28,0,0,0,4.189-11.031c1.18-3.833,2.262-7.756,3.3-11.743,1.089-4.189,2.094-8.308,3.121-12.385q.761-3.058,1.508-6.074c.524-2,.991-3.993,1.641-5.948a14.465,14.465,0,0,1,8.133-8.5,15.36,15.36,0,0,1,5.725-1.138H95.66a23.036,23.036,0,0,1,2.688.1,14.982,14.982,0,0,1,5.048,1.487,14.787,14.787,0,0,1,4.091,3.044,14.249,14.249,0,0,1,2.709,4.112l.426,1.131c.119.384.244.761.342,1.145.209.761.419,1.508.607,2.255.782,2.988,1.473,5.871,2.15,8.615,2.667,10.989,4.985,19.841,6.919,25.831.942,3.016,1.836,5.3,2.471,6.842.314.768.614,1.319.782,1.71l.272.593s-.426-.761-1.124-2.276a63.718,63.718,0,0,1-2.534-6.828c-1.983-6.011-4.335-14.863-7.037-25.831-.7-2.744-1.4-5.62-2.171-8.6-.189-.747-.4-1.494-.607-2.255-.1-.384-.223-.754-.342-1.131s-.279-.7-.426-1.1a13.8,13.8,0,0,0-2.66-4.021,14.4,14.4,0,0,0-8.95-4.419,20.823,20.823,0,0,0-2.653-.1H87.422c-3.714.119-7.68-.468-11.268,1.124a14.123,14.123,0,0,0-7.931,8.3c-.628,1.913-1.11,3.923-1.627,5.92s-1,4.028-1.508,6.067c-1.005,4.084-2.025,8.217-3.114,12.4-1.04,3.986-2.094,7.917-3.309,11.757a71.531,71.531,0,0,1-4.189,11.086v.042h-.042a14.7,14.7,0,0,0-4.014,3.484,4.831,4.831,0,0,0-.991,2.311v.307l.035.307v.307a.989.989,0,0,0,.1.293,2.213,2.213,0,0,0,.642,1.019,7.791,7.791,0,0,0,2.178,1.271,19.621,19.621,0,0,0,2.409.831,47.225,47.225,0,0,0,4.929,1.1,131.253,131.253,0,0,0,19.066,1.613q4.559.1,8.852,0c1.4-.077,2.848,0,4.231,0s2.744.042,4.084.042c5.348,0,10.3-.2,14.787-.6a78.148,78.148,0,0,0,11.952-1.836c.859-.216,1.683-.454,2.457-.7a12.922,12.922,0,0,0,2.157-.956,3.491,3.491,0,0,0,1.522-1.4,3.114,3.114,0,0,0,.237-1.878,6.283,6.283,0,0,0-1.571-2.793,14.144,14.144,0,0,0-1.752-1.634c-.51-.4-.915-.7-1.187-.873Z" transform="translate(-49.08 -269.524)" fill="#263238"/>
      <path id="Path_368" data-name="Path 368" d="M133.623,376.316c2.248,11.3,10.982,53.5,13.181,64.152a2.011,2.011,0,0,1-1.92,2.45h0a1.976,1.976,0,0,1-1.9-1.487l-17.042-63.468a3.491,3.491,0,0,1,3.26-4.433h1.075a3.414,3.414,0,0,1,3.344,2.786Z" transform="translate(-72.243 -300.919)" fill="#455a64"/>
      <path id="Path_369" data-name="Path 369" d="M125.189,358.246a.46.46,0,0,1-.154.042l-.475.084-1.808.279c-1.571.237-3.847.538-6.674.859-5.648.642-13.481,1.264-22.152,1.4s-16.532-.23-22.194-.7c-2.834-.223-5.124-.447-6.7-.635l-1.815-.216-.475-.07a.454.454,0,0,1-.161-.035h.642l1.822.154c1.578.147,3.875.328,6.7.524,5.662.384,13.509.7,22.173.573s16.483-.7,22.131-1.312c2.827-.286,5.11-.545,6.688-.74l1.815-.216.475-.042a.4.4,0,0,1,.161.056Z" transform="translate(-53.155 -296.289)" fill="#263238"/>
      <g id="Group_7" data-name="Group 7" transform="translate(11.391 56.635)" opacity="0.3">
        <path id="Path_370" data-name="Path 370" d="M121.613,352.743c-.538-1.34-2.709-1.676-4.489-1.759a288.078,288.078,0,0,0-49.994,1.927,3.149,3.149,0,0,0-1.347.377c-.37.244-.538.7-.216,1.012l-.077.831c16.476,3.623,33.985,2.869,50.964,1.082a10.59,10.59,0,0,0,3.714-.845C121.236,354.81,122.011,353.728,121.613,352.743Z" transform="translate(-65.396 -350.646)"/>
      </g>
      <path id="Path_371" data-name="Path 371" d="M407.375,412.449c-.056.084-9.774-7.128-21.642-16.1S364.244,380.042,364.3,380s9.774,7.121,21.642,16.1S407.424,412.373,407.375,412.449Z" transform="translate(-144.233 -302.872)" fill="#263238"/>
      <path id="Path_372" data-name="Path 372" d="M358,413.272c-.063-.077,9.613-7.6,21.607-16.8s21.775-16.6,21.838-16.518-9.613,7.6-21.642,16.8S358.056,413.349,358,413.272Z" transform="translate(-142.331 -302.857)" fill="#263238"/>
      <path id="Path_373" data-name="Path 373" d="M367.47,368.12l-1.71,9.278H368.3l2.632-9.278Z" transform="translate(-144.674 -299.286)" fill="#263238"/>
      <path id="Path_374" data-name="Path 374" d="M356.167,376.316c-2.255,11.3-10.982,53.5-13.188,64.152a2.011,2.011,0,0,0,1.927,2.45h0a1.976,1.976,0,0,0,1.892-1.487l17.028-63.468a3.491,3.491,0,0,0-3.267-4.433h-1.075a3.407,3.407,0,0,0-3.316,2.786Z" transform="translate(-137.782 -300.919)" fill="#455a64"/>
      <path id="Path_375" data-name="Path 375" d="M415.083,368.12l1.71,9.278h-2.541l-2.632-9.278Z" transform="translate(-158.517 -299.286)" fill="#263238"/>
      <path id="Path_376" data-name="Path 376" d="M409.91,326.471c-4.957-9.194-10.849-37.267-13.446-46.224-.07-.251-.147-.5-.223-.733a14.465,14.465,0,0,0-13.8-9.774H367.491a14.458,14.458,0,0,0-13.788,9.774c-.077.237-.154.482-.223.733-2.6,8.957-8.5,37-13.446,46.224,0,0-6.6,3.889-4.719,7.61,1.822,3.581,18.78,6.123,39.654,5.452,20.881.7,37.839-1.871,39.654-5.452C416.514,330.359,409.91,326.471,409.91,326.471Z" transform="translate(-135.381 -269.589)" fill="#e0e0e0"/>
      <path id="Path_377" data-name="Path 377" d="M409.878,326.412a12.68,12.68,0,0,1,1.634,1.11,13.4,13.4,0,0,1,1.787,1.62,6.284,6.284,0,0,1,1.627,2.848,3.323,3.323,0,0,1-.23,1.962,3.666,3.666,0,0,1-1.543,1.536,12.629,12.629,0,0,1-2.178.97c-.775.286-1.606.531-2.464.754a78.3,78.3,0,0,1-11.98,1.885c-4.489.419-9.453.635-14.807.642h-4.091c-1.389,0-2.793-.1-4.189,0q-4.294.112-8.866,0a131.249,131.249,0,0,1-19.122-1.592,49.079,49.079,0,0,1-4.964-1.1,21.182,21.182,0,0,1-2.45-.845,8.378,8.378,0,0,1-2.276-1.333,2.541,2.541,0,0,1-.733-1.166,2.613,2.613,0,0,1-.119-.328l-.042-.342v-.691a5.208,5.208,0,0,1,1.054-2.485,15.108,15.108,0,0,1,4.056-3.553l-.07.07a71.3,71.3,0,0,0,4.189-11.031c1.18-3.833,2.262-7.756,3.3-11.743,1.089-4.189,2.094-8.308,3.121-12.385q.768-3.058,1.508-6.074c.524-2,1-3.993,1.641-5.948a14.465,14.465,0,0,1,8.133-8.5,15.36,15.36,0,0,1,5.725-1.138H381.45a23.13,23.13,0,0,1,2.688.1,14.989,14.989,0,0,1,5.041,1.487,14.786,14.786,0,0,1,4.091,3.044,14.248,14.248,0,0,1,2.639,4.056l.426,1.131c.119.384.244.761.342,1.145.209.761.426,1.508.614,2.255.775,2.988,1.473,5.871,2.143,8.615,2.667,10.989,4.985,19.841,6.919,25.831.943,3.016,1.836,5.3,2.471,6.842.314.768.614,1.319.782,1.71l.272.593s-.426-.761-1.124-2.276a63.723,63.723,0,0,1-2.534-6.828c-1.983-6.011-4.335-14.863-7.037-25.831-.7-2.744-1.4-5.62-2.164-8.6-.2-.747-.4-1.494-.614-2.255-.1-.384-.223-.754-.342-1.131l-.419-1.1a13.964,13.964,0,0,0-2.667-4.021,14.354,14.354,0,0,0-8.943-4.419,20.867,20.867,0,0,0-2.653-.1h-8.252c-3.714.119-7.68-.468-11.268,1.124a14.123,14.123,0,0,0-7.931,8.3c-.628,1.913-1.11,3.924-1.627,5.92s-1,4.028-1.508,6.067c-1.005,4.084-2.025,8.217-3.114,12.4-1.04,3.986-2.094,7.917-3.309,11.757a71.533,71.533,0,0,1-4.189,11.086v.042h-.042a14.7,14.7,0,0,0-3.951,3.456,4.824,4.824,0,0,0-.984,2.311v.614l.035.307a.988.988,0,0,0,.1.293,2.213,2.213,0,0,0,.642,1.019,7.791,7.791,0,0,0,2.178,1.271,19.624,19.624,0,0,0,2.409.831,47.232,47.232,0,0,0,4.929,1.1,131.252,131.252,0,0,0,19.066,1.613q4.559.1,8.852,0c1.431-.077,2.848,0,4.231,0s2.744.042,4.084.042c5.348,0,10.3-.2,14.787-.6a78.149,78.149,0,0,0,11.952-1.836c.866-.216,1.682-.454,2.457-.7a12.926,12.926,0,0,0,2.157-.956,3.49,3.49,0,0,0,1.522-1.4,3.176,3.176,0,0,0,.244-1.878,6.284,6.284,0,0,0-1.578-2.793,13.665,13.665,0,0,0-1.752-1.634c-.51-.4-.915-.7-1.187-.873Z" transform="translate(-135.349 -269.53)" fill="#263238"/>
      <path id="Path_378" data-name="Path 378" d="M419.272,376.316c2.248,11.3,10.982,53.5,13.188,64.152a2.018,2.018,0,0,1-1.927,2.45h0a1.962,1.962,0,0,1-1.892-1.487l-17.028-63.468a3.491,3.491,0,0,1,3.26-4.433h1.082A3.414,3.414,0,0,1,419.272,376.316Z" transform="translate(-158.476 -300.919)" fill="#455a64"/>
      <path id="Path_379" data-name="Path 379" d="M410.842,358.246a.46.46,0,0,1-.154.042l-.468.084-1.808.279c-1.571.237-3.854.538-6.681.859-5.641.642-13.481,1.264-22.152,1.4s-16.532-.23-22.194-.7c-2.834-.223-5.124-.447-6.7-.635l-1.815-.216-.475-.07c-.1,0-.161,0-.154-.035h.635l1.822.154c1.585.147,3.875.328,6.7.524,5.669.384,13.509.7,22.173.573s16.49-.7,22.138-1.312c2.793-.286,5.1-.545,6.681-.74l1.815-.216.475-.042A.4.4,0,0,1,410.842,358.246Z" transform="translate(-139.385 -296.289)" fill="#263238"/>
      <g id="Group_8" data-name="Group 8" transform="translate(210.814 56.635)" opacity="0.3">
        <path id="Path_380" data-name="Path 380" d="M407.263,352.743c-.538-1.34-2.709-1.676-4.489-1.759a288.078,288.078,0,0,0-49.994,1.927,3.148,3.148,0,0,0-1.347.377c-.37.244-.538.7-.216,1.012l-.077.831c16.483,3.623,33.985,2.869,50.964,1.082a10.59,10.59,0,0,0,3.714-.845C406.865,354.81,407.661,353.728,407.263,352.743Z" transform="translate(-351.046 -350.646)"/>
      </g>
    </g>
    <g id="freepik--Clock--inject-68" transform="translate(267.102 38.69)">
      <circle id="Ellipse_26" data-name="Ellipse 26" cx="24.512" cy="24.512" r="24.512" transform="translate(4.91)" fill="#076aff"/>
      <circle id="Ellipse_27" data-name="Ellipse 27" cx="21.747" cy="21.747" r="21.747" transform="translate(7.752 2.765)" fill="#fff"/>
      <path id="Path_381" data-name="Path 381" d="M427.036,66.761A2.655,2.655,0,0,0,427,66.4c-.035-.23-.035-.586-.07-1.033l-.042-.761a7.046,7.046,0,0,0-.14-.908,15.93,15.93,0,0,0-.454-2.241,20.685,20.685,0,0,0-2.409-5.767,21.74,21.74,0,0,0-14.605-10.172,19.66,19.66,0,0,0-2.737-.321c-.468,0-.936-.056-1.4-.049l-1.431.07a3.26,3.26,0,0,0-.7.049l-.7.112c-.482.077-.97.133-1.459.237a22.857,22.857,0,0,0-2.876.845,22.3,22.3,0,0,0-2.792,1.236c-.454.251-.894.538-1.341.8-.223.147-.461.265-.7.426l-.635.475a23.737,23.737,0,0,0-2.45,2.094,24.317,24.317,0,0,0-2.094,2.506l-.5.7-.44.7-.433.7a5.836,5.836,0,0,0-.4.74c-.237.5-.482,1.012-.733,1.522s-.384,1.068-.586,1.6a23.166,23.166,0,0,0-1.11,6.814,22.916,22.916,0,0,0,1.035,6.812l.585,1.6.733,1.522a4.672,4.672,0,0,0,.4.733l.433.7.433.7.5.7a24.323,24.323,0,0,0,2.094,2.506,23.739,23.739,0,0,0,2.451,2.094l.635.475c.209.161.447.279.663.426.454.265.894.552,1.347.8a22.3,22.3,0,0,0,2.793,1.236,22.855,22.855,0,0,0,2.876.845c.489.1.977.161,1.459.237l.7.112a3.26,3.26,0,0,1,.7.049l1.431.07a13.133,13.133,0,0,0,1.4-.049,19.547,19.547,0,0,0,2.737-.321,21.335,21.335,0,0,0,9.076-4.035,21.566,21.566,0,0,0,5.508-6.137,20.685,20.685,0,0,0,2.409-5.767,15.921,15.921,0,0,0,.454-2.241c.049-.328.112-.635.14-.908l.042-.761c.035-.447.056-.789.07-1.033a3.45,3.45,0,0,1,.035-.349v.349c0,.244,0,.586-.042,1.033v.768a8.039,8.039,0,0,1-.126.908,16.571,16.571,0,0,1-.426,2.262,20.733,20.733,0,0,1-2.381,5.822,21.824,21.824,0,0,1-14.612,10.312,19.814,19.814,0,0,1-2.793.328c-.468,0-.943.063-1.4.056l-1.445-.07a3.7,3.7,0,0,1-.733-.049l-.733-.1c-.482-.084-.977-.14-1.473-.237a25.137,25.137,0,0,1-2.918-.852,22.839,22.839,0,0,1-2.855-1.25c-.461-.251-.908-.545-1.4-.817-.223-.14-.461-.265-.7-.426l-.642-.482a23.5,23.5,0,0,1-2.485-2.094,24.231,24.231,0,0,1-2.15-2.534l-.5-.7-.44-.7-.44-.7a6.521,6.521,0,0,1-.412-.747l-.74-1.55c-.2-.538-.4-1.075-.6-1.62a23.6,23.6,0,0,1-1.131-6.912,23.522,23.522,0,0,1,1.159-6.939c.2-.545.4-1.089.6-1.627s.5-1.026.74-1.543a5.975,5.975,0,0,1,.412-.747l.44-.7.44-.7.5-.7a20.135,20.135,0,0,1,4.657-4.691l.649-.482a7.4,7.4,0,0,1,.7-.426c.454-.272.9-.565,1.361-.817a22.845,22.845,0,0,1,2.855-1.25,25.136,25.136,0,0,1,2.918-.852c.5-.1.984-.154,1.473-.23l.733-.112a3.7,3.7,0,0,0,.733-.049l1.445-.07c.482,0,.956.042,1.4.056a19.814,19.814,0,0,1,2.793.328,21.824,21.824,0,0,1,14.71,10.339,20.658,20.658,0,0,1,2.332,5.85,16.59,16.59,0,0,1,.426,2.262c.042.328.1.628.126.908a7.037,7.037,0,0,1,0,.768,6.983,6.983,0,0,0,.042,1.033Z" transform="translate(-375.791 -42.249)" fill="#263238"/>
      <path id="Path_382" data-name="Path 382" d="M424.292,70.813a5.586,5.586,0,0,1-.88.251l-2.423.579c-2.06.475-4.887,1.117-8.1,1.815l-.182.042v-.838c0-3.414,0-6.493.042-8.727,0-1.075.035-1.969.049-2.646a6.809,6.809,0,0,1,.056-.97,6.069,6.069,0,0,1,.063.97c0,.7,0,1.571.049,2.646,0,2.234.042,5.313.042,8.727v.628l-.182-.147c3.184-.7,6.046-1.306,8.112-1.731l2.45-.482A4.886,4.886,0,0,1,424.292,70.813Z" transform="translate(-384.656 -46.916)" fill="#263238"/>
      <path id="Path_383" data-name="Path 383" d="M445.849,74.612a2.365,2.365,0,0,1,.1-.356c.063-.23.2-.559.314-.991a26.286,26.286,0,0,0,.852-3.728,25.189,25.189,0,0,0-8.126-22.759,26.675,26.675,0,0,0-3.023-2.346c-.37-.265-.7-.433-.873-.572a1.864,1.864,0,0,1-.3-.209,1.947,1.947,0,0,1,.328.161c.209.119.531.272.908.524a22.627,22.627,0,0,1,3.1,2.283,24.756,24.756,0,0,1,8.2,22.962,23.04,23.04,0,0,1-.949,3.735c-.14.433-.286.754-.37.977a1.509,1.509,0,0,1-.154.321Z" transform="translate(-391.322 -41.884)" fill="#263238"/>
      <path id="Path_384" data-name="Path 384" d="M454.471,66.447c-.049,0-.077-.866-.251-2.248a26.368,26.368,0,0,0-3.491-10.235c-.7-1.2-1.222-1.9-1.18-1.934a2.841,2.841,0,0,1,.4.461,14.064,14.064,0,0,1,.956,1.4,22.995,22.995,0,0,1,3.533,10.325c.063.7.084,1.271.084,1.662a2.347,2.347,0,0,1-.056.572Z" transform="translate(-395.776 -44.413)" fill="#263238"/>
      <path id="Path_385" data-name="Path 385" d="M379.8,59.42a1.254,1.254,0,0,1-.147.335c-.1.216-.286.517-.475.929a27.417,27.417,0,0,0-1.431,3.547A25.573,25.573,0,0,0,384.765,90.8c.321.321.6.538.775.7a1.723,1.723,0,0,1,.258.258,1.55,1.55,0,0,1-.3-.209c-.188-.147-.475-.356-.81-.656a22.6,22.6,0,0,1-2.695-2.751,24.742,24.742,0,0,1-4.447-23.974,23.422,23.422,0,0,1,1.529-3.533c.209-.4.4-.7.524-.908a2.831,2.831,0,0,1,.2-.307Z" transform="translate(-373.634 -46.644)" fill="#263238"/>
      <path id="Path_386" data-name="Path 386" d="M372.857,73.61c.049,0-.063.866-.1,2.262a26.844,26.844,0,0,0,.363,5.425,27.337,27.337,0,0,0,1.466,5.236c.51,1.3.908,2.094.859,2.094a2.29,2.29,0,0,1-.328-.517,12.69,12.69,0,0,1-.7-1.494,23.152,23.152,0,0,1-1.557-5.264,23.591,23.591,0,0,1-.279-5.487c.049-.7.126-1.271.188-1.655A2.255,2.255,0,0,1,372.857,73.61Z" transform="translate(-372.527 -50.927)" fill="#263238"/>
      <path id="Path_387" data-name="Path 387" d="M439.167,81.231c-.824-.168-1.487-.314-1.487-.321s.7.126,1.494.293,1.48.307,1.48.314S440,81.4,439.167,81.231Z" transform="translate(-392.194 -53.131)" fill="#263238"/>
      <path id="Path_388" data-name="Path 388" d="M439.136,81.156a3.121,3.121,0,0,1,.894.049l.447.063h.189s-.154,0-.161.1a.161.161,0,0,0,.077.188h0l-.258-.049-1.159-.23-1.152-.244-.251-.056h0a.161.161,0,0,0,.133-.161c0-.077-.119-.168-.1-.147h.154l.433.119c.531.147.852.258.845.307a2.206,2.206,0,0,1-.9-.056l-.44-.077H437.7s-.133-.07-.119-.154.056-.154.147-.154h.1l.265.042c.363.056.754.133,1.166.216s.8.175,1.152.258l.258.063h.1a.175.175,0,0,1,.084.2c0,.077-.168.126-.175.1H440.5l-.538-.091C439.451,81.316,439.122,81.2,439.136,81.156Z" transform="translate(-392.163 -53.056)" fill="#263238"/>
      <path id="Path_389" data-name="Path 389" d="M436.229,88.882c-.7-.426-1.305-.775-1.3-.782s.593.328,1.313.754,1.306.775,1.3.782S436.948,89.308,436.229,88.882Z" transform="translate(-391.364 -55.301)" fill="#263238"/>
      <path id="Path_390" data-name="Path 390" d="M436.154,88.823a2.549,2.549,0,0,1,.831.335l.4.209.1.049h0s-.154,0-.182.049a.154.154,0,0,0,0,.2h-.035l-.223-.133-1.019-.586-1.012-.607-.223-.133h0a.161.161,0,0,0,.182-.1c.049-.07-.056-.2-.049-.168h0l.1.063.37.251a2.958,2.958,0,0,1,.7.565,2.488,2.488,0,0,1-.831-.342l-.4-.216-.112-.063h0s-.112-.112-.063-.182a.161.161,0,0,1,.188-.1l.1.042.237.126q.482.265,1.026.586c.363.209.7.419,1.012.614l.223.147.077.056a.182.182,0,0,1,0,.216c-.035.07-.2.063-.2.042h-.035l-.1-.063-.384-.244C436.4,89.081,436.126,88.865,436.154,88.823Z" transform="translate(-391.289 -55.242)" fill="#263238"/>
      <path id="Path_391" data-name="Path 391" d="M430.956,95.159C430.419,94.517,430,94,430,94s.454.51,1,1.145.977,1.159.97,1.159S431.5,95.794,430.956,95.159Z" transform="translate(-389.876 -57.082)" fill="#263238"/>
      <path id="Path_392" data-name="Path 392" d="M430.887,95.115a3.428,3.428,0,0,1,.7.586l.314.321.084.091h0s-.14-.07-.188,0a.154.154,0,0,0-.056.2h0l-.174-.2-.768-.887-.761-.9-.168-.2h0a.161.161,0,0,0,.2-.042c.07-.049,0-.209,0-.182h0l.077.1.265.356c.328.44.517.7.475.761s-.293-.2-.7-.6l-.307-.328-.084-.1h0s-.063-.133,0-.2a.168.168,0,0,1,.216,0,.422.422,0,0,1,.077.07l.182.2c.251.265.51.565.782.887s.531.628.754.915l.168.209.056.077c.056.077,0,.2-.056.209a1.85,1.85,0,0,1-.2,0h0l-.077-.1L431.411,96A3.6,3.6,0,0,1,430.887,95.115Z" transform="translate(-389.806 -57.038)" fill="#263238"/>
      <path id="Path_393" data-name="Path 393" d="M423.935,99.4c-.307-.775-.552-1.4-.545-1.4s.265.621.572,1.4.552,1.4.545,1.4S424.242,100.171,423.935,99.4Z" transform="translate(-387.88 -58.29)" fill="#263238"/>
      <path id="Path_394" data-name="Path 394" d="M423.871,99.312a2.5,2.5,0,0,1,.454.775l.189.4.049.112h0s-.112-.119-.175-.077a.154.154,0,0,0-.119.175h0l-.1-.237c-.147-.363-.293-.7-.44-1.1l-.426-1.1-.1-.244h0a.161.161,0,0,0,.2,0c.084,0,.077-.2.07-.175v.063l.042.112.14.426c.168.524.251.852.2.873s-.216-.279-.447-.782c-.056-.14-.119-.272-.182-.412l-.049-.112v-.1s0-.154.063-.182a.527.527,0,0,1,.209,0,.357.357,0,0,1,.049.1l.112.244c.147.328.3.7.454,1.089s.3.761.419,1.1l.091.258v.091c0,.091-.07.188-.112.182s-.2-.077-.188-.091h0l-.042-.119c-.049-.14-.1-.279-.154-.426a2.325,2.325,0,0,1-.209-.852Z" transform="translate(-387.817 -58.206)" fill="#263238"/>
      <path id="Path_395" data-name="Path 395" d="M415.975,101.1c-.035-.838-.063-1.515-.056-1.515s.049.7.084,1.508.063,1.515.056,1.515A11.3,11.3,0,0,1,415.975,101.1Z" transform="translate(-385.625 -58.77)" fill="#263238"/>
      <path id="Path_396" data-name="Path 396" d="M415.919,101.045a2.346,2.346,0,0,1,.175.88l.049.447v.147h0s-.063-.147-.14-.126-.168.042-.168.119h0v-.265c0-.391-.042-.775-.063-1.173s0-.789-.042-1.18v-.286h0a.168.168,0,0,0,.189.1c.084,0,.133-.161.119-.14h0v.6a2.276,2.276,0,0,1-.091.894,2.289,2.289,0,0,1-.168-.887v-.628s0-.154.119-.154.161,0,.188.1a.481.481,0,0,1,0,.1v.265c0,.363.056.761.07,1.18s.035.817.035,1.187v.265a.412.412,0,0,1,0,.1c0,.077-.133.154-.175.133s-.161-.14-.14-.147v-.628A2.311,2.311,0,0,1,415.919,101.045Z" transform="translate(-385.568 -58.709)" fill="#263238"/>
      <path id="Path_397" data-name="Path 397" d="M407.422,100.122c.23-.8.426-1.452.433-1.452s-.175.656-.4,1.459-.433,1.452-.44,1.452S407.184,100.925,407.422,100.122Z" transform="translate(-382.936 -58.492)" fill="#263238"/>
      <path id="Path_398" data-name="Path 398" d="M407.353,100.084c.049,0,0,.349-.126.887-.035.147-.063.293-.1.44v.154s0-.161-.091-.168a.168.168,0,0,0-.2.063h0l.07-.251c.1-.377.209-.747.321-1.131s.223-.754.335-1.131l.077-.251h0a.168.168,0,0,0,.14.154.247.247,0,0,0,.161-.1h0l-.042.119-.154.419c-.188.517-.321.831-.37.817s0-.356.126-.894l.112-.433v-.126h0s.077-.133.161-.1.147.063.147.154a.556.556,0,0,1,0,.1l-.063.265c-.084.349-.189.74-.307,1.138s-.237.789-.349,1.131l-.091.251a.314.314,0,0,1-.035.091.161.161,0,0,1-.2.07c-.077,0-.112-.175-.091-.182v-.049l.035-.126.147-.426C407.164,100.384,407.3,100.07,407.353,100.084Z" transform="translate(-382.867 -58.454)" fill="#263238"/>
      <path id="Path_399" data-name="Path 399" d="M399.626,96.559c.482-.7.88-1.236.887-1.229s-.377.565-.866,1.25-.88,1.229-.887,1.229S399.158,97.243,399.626,96.559Z" transform="translate(-380.445 -57.484)" fill="#263238"/>
      <path id="Path_400" data-name="Path 400" d="M399.564,96.5a2.569,2.569,0,0,1-.4.8c-.084.126-.161.251-.237.377l-.063.1h0s.042-.161,0-.188a.161.161,0,0,0-.209,0h0l.154-.216.7-.97c.237-.321.461-.635.7-.956l.154-.209h0a.161.161,0,0,0,.091.188c.07.049.2-.042.175-.035h0l-.077.091-.279.349c-.349.426-.579.7-.621.649s.119-.335.412-.8c.084-.133.161-.258.244-.377l.07-.1h0s.119-.1.189-.049a.168.168,0,0,1,.084.2c-.042.084-.035.056-.049.091l-.147.23c-.2.3-.426.628-.7.97s-.482.7-.7.956l-.168.209-.063.077a.167.167,0,0,1-.216,0c-.07-.035-.049-.2,0-.2h0l.07-.1.279-.356A3.171,3.171,0,0,1,399.564,96.5Z" transform="translate(-380.384 -57.43)" fill="#263238"/>
      <path id="Path_401" data-name="Path 401" d="M393.522,90.79l1.236-.88s-.538.412-1.215.9-1.236.88-1.243.873Z" transform="translate(-378.496 -55.848)" fill="#263238"/>
      <path id="Path_402" data-name="Path 402" d="M393.419,90.716a2.883,2.883,0,0,1-.642.621l-.349.286-.091.077h0s.084-.14,0-.2a.161.161,0,0,0-.2-.07h0l.209-.154.949-.7.963-.7.216-.147h0a.168.168,0,0,0,0,.209c.049.077.209,0,.182,0h0l-.1.063-.377.244c-.461.286-.768.454-.8.412s.216-.279.649-.621l.356-.279.1-.077h0s.14-.056.188,0a.14.14,0,0,1,0,.209l-.077.077-.209.168c-.293.223-.607.461-.949.7s-.7.475-.97.7l-.223.147-.084.049c-.07.042-.2,0-.2-.07s0-.209.035-.2h0l.1-.077.37-.244C393.091,90.834,393.384,90.674,393.419,90.716Z" transform="translate(-378.393 -55.774)" fill="#263238"/>
      <path id="Path_403" data-name="Path 403" d="M389.7,83.446c.8-.244,1.452-.433,1.452-.426s-.642.209-1.445.454-1.452.433-1.452.426S388.892,83.7,389.7,83.446Z" transform="translate(-377.273 -53.768)" fill="#263238"/>
      <path id="Path_404" data-name="Path 404" d="M389.631,83.37a2.544,2.544,0,0,1-.81.384l-.419.154-.119.042h0s.126-.1.091-.175-.084-.147-.161-.126,0,0,.035,0l.244-.084,1.131-.349,1.124-.335.251-.07h0a.161.161,0,0,0-.049.2c0,.084.188.1.168.084h-.161l-.433.1c-.538.126-.873.182-.887.133s.293-.188.81-.377c.147-.049.286-.1.433-.147L391,82.77h.049s.154,0,.182.077a.168.168,0,0,1-.056.209l-.1.042-.251.091c-.342.119-.7.237-1.124.363s-.789.23-1.138.321l-.258.07h-.1c-.077,0-.182-.091-.168-.133s.091-.2.1-.175h.035l.119-.035.44-.112A2.462,2.462,0,0,1,389.631,83.37Z" transform="translate(-377.209 -53.693)" fill="#263238"/>
      <path id="Path_405" data-name="Path 405" d="M388.585,75.272a13.964,13.964,0,0,1,1.515.07c0,.007-.7,0-1.515-.042l-1.515-.07S387.719,75.237,388.585,75.272Z" transform="translate(-376.917 -51.417)" fill="#263238"/>
      <path id="Path_406" data-name="Path 406" d="M388.507,75.2a2.283,2.283,0,0,1-.894.1h-.607s.154-.049.14-.126a.154.154,0,0,0-.1-.182h1.473l1.18.049h.258a.161.161,0,0,0-.1.182c0,.084.147.147.126.126h-.161l-.447-.049a2.36,2.36,0,0,1-.88-.161,2.22,2.22,0,0,1,.894-.091h.635s.147.049.14.133a.168.168,0,0,1-.119.182.3.3,0,0,1-.1,0h-1.452a7.086,7.086,0,0,1-1.18-.063h-.363c-.077,0-.147-.14-.119-.182s.147-.154.154-.133h.628a2.22,2.22,0,0,1,.908.216Z" transform="translate(-376.839 -51.34)" fill="#263238"/>
      <path id="Path_407" data-name="Path 407" d="M390.326,66.774c.782.3,1.4.552,1.4.559s-.642-.23-1.4-.531-1.4-.545-1.4-.552S389.544,66.508,390.326,66.774Z" transform="translate(-377.478 -48.706)" fill="#263238"/>
      <path id="Path_408" data-name="Path 408" d="M390.265,66.719c0,.049-.349,0-.873-.188l-.433-.14h-.112s.161,0,.168-.084a.147.147,0,0,0-.042-.2h.035l.244.091,1.1.412,1.1.433.244.091h0a.161.161,0,0,0-.154.133c-.035.084.091.188.077.161h0l-.112-.049-.4-.188c-.5-.23-.8-.391-.782-.44a2.387,2.387,0,0,1,.873.2l.433.147.112.042h.035s.126.091.091.175a.161.161,0,0,1-.168.126h-.1l-.258-.084-1.11-.4-1.1-.44-.244-.112-.084-.042a.168.168,0,0,1-.056-.209c0-.077.182-.1.188-.077h0l.119.049.412.175A3.73,3.73,0,0,1,390.265,66.719Z" transform="translate(-377.417 -48.651)" fill="#263238"/>
      <path id="Path_409" data-name="Path 409" d="M394.7,59.383c.642.538,1.159.977,1.152.984s-.531-.426-1.166-.963-1.159-.977-1.152-.984S394.054,58.825,394.7,59.383Z" transform="translate(-378.867 -46.342)" fill="#263238"/>
      <path id="Path_410" data-name="Path 410" d="M394.6,59.3a2.791,2.791,0,0,1-.761-.475c-.126-.084-.244-.175-.363-.265l-.1-.07h0s.154.049.188,0a.154.154,0,0,0,0-.2h0l.2.168.908.747.9.768.2.168h0a.161.161,0,0,0-.2.07c-.056.063,0,.209,0,.182h0l-.084-.084L395.161,60c-.391-.384-.621-.635-.593-.7s.321.14.761.475l.356.272.1.084h0s.091.126.035.2a.168.168,0,0,1-.2.063.28.28,0,0,1-.091-.056l-.216-.161c-.286-.223-.593-.475-.915-.747s-.621-.531-.894-.775l-.2-.182-.07-.07a.175.175,0,0,1,0-.216c.042-.063.209,0,.2,0h0l.091.084.335.3C394.4,59.012,394.63,59.263,394.6,59.3Z" transform="translate(-378.766 -46.264)" fill="#263238"/>
      <path id="Path_411" data-name="Path 411" d="M401.256,53.782c.433.7.775,1.3.768,1.306s-.363-.572-.8-1.292-.775-1.3-.768-1.306S400.837,53.062,401.256,53.782Z" transform="translate(-380.959 -44.552)" fill="#263238"/>
      <path id="Path_412" data-name="Path 412" d="M401.2,53.7a2.7,2.7,0,0,1-.572-.7l-.258-.37-.07-.1h0s.126.1.188.049.126-.126.084-.188h0l.14.223.614,1c.209.349.4.7.6,1.019l.14.223h0a.154.154,0,0,0-.2,0c-.077.042-.042.2-.042.175h0l-.056-.1-.209-.4c-.251-.489-.391-.8-.342-.824s.251.237.565.7l.244.377.07.112h0s.042.147,0,.188a.168.168,0,0,1-.216,0A.363.363,0,0,1,401.81,55l-.147-.223q-.307-.461-.628-1.005c-.216-.356-.419-.7-.593-1.019l-.133-.237a.843.843,0,0,1-.042-.084.182.182,0,0,1,.084-.2c.063-.042.209.042.2.063h0l.063.112.216.391C401.1,53.356,401.238,53.67,401.2,53.7Z" transform="translate(-380.899 -44.469)" fill="#263238"/>
      <path id="Path_413" data-name="Path 413" d="M409.265,50.6c.174.817.314,1.48.307,1.487s-.161-.663-.335-1.48-.314-1.487-.307-1.487S409.09,49.783,409.265,50.6Z" transform="translate(-383.515 -43.535)" fill="#263238"/>
      <path id="Path_414" data-name="Path 414" d="M409.22,50.521a2.357,2.357,0,0,1-.314-.838l-.126-.433v-.119h0s.091.133.161.1.154-.077.147-.154h0l.056.251c.091.384.175.761.258,1.152s.161.775.244,1.152l.049.258h0a.154.154,0,0,0-.2-.063c-.091,0-.1.175-.1.154v-.161l-.07-.44a2.332,2.332,0,0,1-.056-.894,2.211,2.211,0,0,1,.307.838c.042.154.077.293.119.44v.175s0,.154-.091.175a.166.166,0,0,1-.2-.07c-.035-.07,0-.07,0-.1l-.07-.258c-.091-.349-.182-.74-.272-1.152s-.161-.8-.23-1.159l-.042-.265V49.02c0-.091.1-.175.147-.161s.182.1.168.112v.182l.084.44a2.3,2.3,0,0,1,.028.929Z" transform="translate(-383.47 -43.456)" fill="#263238"/>
      <path id="Path_415" data-name="Path 415" d="M417.725,50.2c-.1.831-.188,1.508-.2,1.508s.07-.7.168-1.508.188-1.508.2-1.508A13.5,13.5,0,0,1,417.725,50.2Z" transform="translate(-386.111 -43.405)" fill="#263238"/>
      <path id="Path_416" data-name="Path 416" d="M417.673,50.119a2.4,2.4,0,0,1,0-.894v-.607s.035.154.119.147a.154.154,0,0,0,.182-.091h0v.258c-.042.391-.091.775-.133,1.173s-.1.782-.147,1.166l-.035.265h0a.154.154,0,0,0-.161-.126c-.091,0-.161.133-.14.119v-.161a3.647,3.647,0,0,1,.077-.44c.1-.538.189-.873.237-.866a2.261,2.261,0,0,1,0,.9v.656s-.056.14-.147.133-.154-.042-.168-.133a.42.42,0,0,1,0-.1v-.272a10.6,10.6,0,0,1,.119-1.173c.049-.412.1-.817.161-1.173l.049-.265v-.091c0-.091.154-.133.188-.1s.14.154.126.161v.182a2.576,2.576,0,0,1-.07.447C417.805,49.8,417.721,50.126,417.673,50.119Z" transform="translate(-386.059 -43.326)" fill="#263238"/>
      <path id="Path_417" data-name="Path 417" d="M425.587,52.606a12.558,12.558,0,0,1-.7,1.361c-.035,0,.279-.621.642-1.4a10.532,10.532,0,0,1,.7-1.361A14.05,14.05,0,0,1,425.587,52.606Z" transform="translate(-388.332 -44.166)" fill="#263238"/>
      <path id="Path_418" data-name="Path 418" d="M425.541,52.567a2.431,2.431,0,0,1,.265-.859c.056-.14.119-.279.168-.412l.049-.112h0s0,.154.063.175a.147.147,0,0,0,.2,0h0l-.112.237c-.168.349-.335.7-.5,1.061l-.524,1.061-.112.237h0a.168.168,0,0,0-.119-.168c-.077-.042-.2.077-.168.063h0l.063-.1.216-.391c.272-.475.461-.761.5-.74a2.371,2.371,0,0,1-.272.859l-.182.412-.049.112v.035h0s-.1.119-.175.077-.14-.091-.119-.175l.035-.1.1-.244c.147-.335.314-.7.5-1.075s.356-.7.531-1.061l.126-.23a.424.424,0,0,1,.049-.084c.042-.07.188-.077.216,0s.077.188.056.188h0l-.056.112-.209.4C425.778,52.3,425.618,52.588,425.541,52.567Z" transform="translate(-388.286 -44.127)" fill="#263238"/>
      <path id="Path_419" data-name="Path 419" d="M432.292,57.6c-.593.593-1.075,1.068-1.082,1.061s.468-.489,1.061-1.082,1.068-1.075,1.075-1.068S432.879,57,432.292,57.6Z" transform="translate(-390.241 -45.766)" fill="#263238"/>
      <path id="Path_420" data-name="Path 420" d="M432.233,57.505c-.035-.042.168-.314.531-.7l.293-.335.084-.091h0s-.063.14,0,.188a.154.154,0,0,0,.2.035h0l-.182.188c-.272.279-.538.559-.824.845l-.831.831-.188.182h0a.168.168,0,0,0-.056-.2c-.056-.063-.209,0-.182,0h0l.091-.084.335-.293a2.857,2.857,0,0,1,.7-.538,2.863,2.863,0,0,1-.538.7c-.1.112-.2.223-.307.328l-.084.091h0s-.133.077-.2,0a.168.168,0,0,1-.049-.209l.063-.084.182-.2c.244-.272.524-.559.817-.859s.579-.572.852-.824l.2-.182a.342.342,0,0,1,.07-.063.182.182,0,0,1,.216,0c.063.049,0,.209,0,.2h0l-.091.091-.328.307C432.54,57.331,432.268,57.54,432.233,57.505Z" transform="translate(-390.182 -45.672)" fill="#263238"/>
      <path id="Path_421" data-name="Path 421" d="M437.076,64.592c-.754.377-1.361.7-1.4.7s.6-.314,1.354-.7a13.5,13.5,0,0,1,1.361-.663C438.4,63.964,437.823,64.222,437.076,64.592Z" transform="translate(-391.59 -48.004)" fill="#263238"/>
      <path id="Path_422" data-name="Path 422" d="M437.019,64.524a2.832,2.832,0,0,1,.733-.51l.391-.223.1-.063h0s-.1.119-.056.182a.161.161,0,0,0,.182.1h-.035l-.23.119-1.054.531L436,65.18l-.237.112h0a.168.168,0,0,0,0-.209c0-.077-.2-.056-.175-.049h.042l.1-.049.419-.175a2.4,2.4,0,0,1,.852-.279,2.59,2.59,0,0,1-.74.51l-.4.216-.112.056h-.035s-.154,0-.189-.049a.161.161,0,0,1,0-.216.761.761,0,0,1,.091-.056l.237-.133q.482-.258,1.047-.545c.377-.182.74-.356,1.068-.5l.244-.112h.091c.077,0,.2.056.188.1s-.056.209-.07.2h0l-.112.056-.412.188C437.361,64.461,437.04,64.608,437.019,64.524Z" transform="translate(-391.533 -47.936)" fill="#263238"/>
      <path id="Path_423" data-name="Path 423" d="M439.471,72.836c-.831.1-1.5.188-1.5.182s.7-.1,1.5-.209,1.5-.2,1.5-.188S440.3,72.725,439.471,72.836Z" transform="translate(-392.282 -50.628)" fill="#263238"/>
      <path id="Path_424" data-name="Path 424" d="M439.41,72.776c0-.056.328-.14.866-.251l.44-.084h.119s-.14.077-.112.154.056.161.133.154h-.265l-1.166.161-1.166.147h-.265a.154.154,0,0,0,.077-.2c0-.084-.168-.119-.147-.1h.607a3.057,3.057,0,0,1,.894,0,2.514,2.514,0,0,1-.866.237l-.44.077h-.188s-.154,0-.161-.1,0-.161.084-.2h.1l.265-.042c.356-.063.754-.119,1.166-.175s.817-.1,1.18-.133h.363c.077,0,.161.112.147.154s-.119.175-.133.161h-.182l-.447.042A2.29,2.29,0,0,1,439.41,72.776Z" transform="translate(-392.22 -50.568)" fill="#263238"/>
      <path id="Path_425" data-name="Path 425" d="M457.481,69a15.862,15.862,0,0,1-1.257,2.834v.07l-.119.23-.14-.216a15.569,15.569,0,0,1-1.536-2.6,15.055,15.055,0,0,1,1.794,2.437h-.265l.035-.063A16.056,16.056,0,0,1,457.481,69Z" transform="translate(-397.25 -49.536)" fill="#263238"/>
    </g>
    <g id="freepik--speech-bubble--inject-68" transform="translate(98.587 99.202)">
      <circle id="Ellipse_28" data-name="Ellipse 28" cx="20.03" cy="20.03" r="20.03" transform="matrix(0.915, -0.404, 0.404, 0.915, 0, 16.166)" fill="#fff"/>
      <path id="Path_426" data-name="Path 426" d="M196.618,188.624a1.9,1.9,0,0,0-.586.133,2.646,2.646,0,0,0-1.285.949,2.506,2.506,0,0,0-.454,1.005,2.207,2.207,0,0,0,.126,1.243,2.4,2.4,0,0,0,4.5.07,2.206,2.206,0,0,0,.168-1.236,2.535,2.535,0,0,0-.419-1.019,2.66,2.66,0,0,0-1.257-.984c-.363-.133-.586-.14-.579-.161h.154a1.188,1.188,0,0,1,.2,0,1.466,1.466,0,0,1,.251.063,2.709,2.709,0,0,1,1.808,2.046,2.416,2.416,0,0,1-.161,1.333,2.793,2.793,0,0,1-.929,1.145,2.416,2.416,0,0,1-3-.042,2.793,2.793,0,0,1-.894-1.18,2.353,2.353,0,0,1-.119-1.34,2.723,2.723,0,0,1,1.871-1.983.957.957,0,0,1,.258-.056h.189Z" transform="translate(-150.148 -146.153)" fill="#263238"/>
      <path id="Path_427" data-name="Path 427" d="M180.212,159.963v-.328c0-.216.049-.538.084-.956,0-.209.042-.44.07-.7s0-.545,0-.859v-.991a3.693,3.693,0,0,0,0-.552c0-.189-.042-.377-.063-.579a19.276,19.276,0,0,0-1.4-5.634,19.974,19.974,0,0,0-4.189-6.423l-.761-.775c-.272-.244-.559-.475-.845-.7l-.433-.363a3.729,3.729,0,0,0-.454-.349l-.949-.656c-.168-.1-.321-.223-.489-.328l-.524-.286-1.054-.579c-.356-.182-.74-.328-1.117-.5l-.572-.244-.293-.119-.3-.091a18.853,18.853,0,0,0-2.464-.7c-.426-.077-.852-.188-1.285-.244l-1.326-.14c-.223,0-.447-.049-.7-.056h-2.094a22.34,22.34,0,0,0-2.793.37l-.7.14-.349.077-.342.1-1.4.419c-.454.161-.894.363-1.347.545-.223.1-.461.182-.7.293l-.649.349a22.548,22.548,0,0,0-2.548,1.571l-1.18.949-.3.244-.272.265-.545.538-.552.545-.5.586-.5.6-.251.293-.223.321-.887,1.3-.768,1.4a19.841,19.841,0,0,0-1.927,12.525c.1.524.2,1.04.307,1.557l.461,1.5.119.377.147.356.3.7.293.7.363.7.363.7.182.335.209.321c.279.419.565.845.838,1.264a21.812,21.812,0,0,0,1.962,2.262l.517.531c.168.175.37.321.552.482.377.307.74.635,1.124.929l1.187.817.293.2.314.175.621.342a21.8,21.8,0,0,0,2.527,1.187c.433.161.873.279,1.306.419l.642.2c.216.063.44.1.7.147l1.3.272c.433.07.873.1,1.306.147a17.487,17.487,0,0,0,2.555.1h.628l.614-.063c.412-.042.824-.063,1.222-.133l1.18-.23.579-.119.565-.168,1.11-.335a4.829,4.829,0,0,0,.531-.2l.524-.216c.342-.147.7-.279,1.019-.433l.963-.51a20.078,20.078,0,0,0,5.92-4.887l.642-.635.454-.663.447-.642c.07-.1.147-.2.209-.314l.175-.321c.237-.426.468-.831.7-1.222a10.167,10.167,0,0,0,.517-1.152l.237-.538a3.9,3.9,0,0,0,.2-.517c.1-.335.2-.649.3-.942s.189-.565.251-.817.1-.482.147-.7c.091-.412.161-.7.2-.936a1.767,1.767,0,0,1,.077-.321,1.4,1.4,0,0,1-.056.321c-.056.209-.1.531-.189.942-.035.209-.084.44-.133.7s-.161.524-.244.817-.2.614-.3.956a3.01,3.01,0,0,1-.188.51l-.23.545c-.161.363-.307.768-.51,1.159l-.7,1.236-.175.321c-.063.112-.14.209-.209.314l-.44.642c-.154.223-.3.447-.461.7a6.176,6.176,0,0,1-.538.649,19.994,19.994,0,0,1-5.934,4.887l-.963.517c-.335.154-.7.286-1.033.433l-.524.216a3.551,3.551,0,0,1-.538.2l-1.11.342-.565.168-.586.119-1.194.237c-.4.07-.81.091-1.229.14l-.621.063h-.6a18.849,18.849,0,0,1-2.576-.091c-.433-.049-.88-.077-1.312-.147l-1.319-.272c-.216-.049-.44-.084-.7-.147l-.649-.2c-.433-.14-.88-.265-1.312-.426a20.584,20.584,0,0,1-2.555-1.187l-.628-.349-.314-.175-.293-.2-1.2-.824c-.391-.293-.754-.621-1.131-.936a7.456,7.456,0,0,1-.566-.489l-.517-.531a22.243,22.243,0,0,1-1.983-2.283l-.824-1.187-.209-.321-.188-.335-.363-.7-.363-.7-.307-.7-.3-.7-.147-.363-.119-.377c-.154-.5-.307-1.012-.468-1.522l-.314-1.564a21.7,21.7,0,0,1-.056-6.486,21.391,21.391,0,0,1,2.011-6.158l.768-1.4.9-1.306.223-.328.258-.3.5-.6.5-.593.559-.545.552-.545.279-.272.3-.237q.593-.5,1.194-.963a22.339,22.339,0,0,1,2.569-1.585l.656-.349a6.979,6.979,0,0,1,.7-.293c.454-.182.9-.384,1.361-.552l1.4-.419.342-.112.356-.07.7-.14a21.411,21.411,0,0,1,2.793-.37h2.094c.23,0,.454.042.7.063l1.333.14c.44.063.866.168,1.3.251a18.153,18.153,0,0,1,2.485.7l.3.091.293.126.572.244c.377.168.768.314,1.131.5l1.061.586.524.286.489.335.956.7a2.792,2.792,0,0,1,.454.349l.44.363c.279.251.572.482.845.7l.768.782a20.106,20.106,0,0,1,4.189,6.472,19.15,19.15,0,0,1,1.361,5.669c0,.2.042.4.056.586a2.952,2.952,0,0,1,0,.552v1.85a6.094,6.094,0,0,1-.077.7c-.049.412-.084.733-.112.956S180.212,159.963,180.212,159.963Z" transform="translate(-133.826 -130.499)" fill="#263238"/>
      <path id="Path_428" data-name="Path 428" d="M161.42,157h2.827a2.4,2.4,0,0,1,2.464-2.416,2.29,2.29,0,0,1,2.213,1.459,2.534,2.534,0,0,1-.2,2.29c-.482.789-1.529,1.508-3.435,1.173v6.374h2.793v-3.728A5.459,5.459,0,0,0,172,156.819c0-4.133-3.707-5.089-5.292-5.089C165.5,151.723,161.364,152.016,161.42,157Z" transform="translate(-140.286 -135.021)" fill="#076aff"/>
      <rect id="Rectangle_175" data-name="Rectangle 175" width="2.834" height="2.646" transform="translate(24.995 32.166)" fill="#076aff"/>
    </g>
    <g id="freepik--Character--inject-68" transform="translate(139.953 122.529)">
      <path id="Path_429" data-name="Path 429" d="M263.054,412.449c-.063.084-9.774-7.128-21.642-16.1S219.93,380.042,220,380s9.774,7.121,21.642,16.1S263.11,412.373,263.054,412.449Z" transform="translate(-199.335 -227.254)" fill="#263238"/>
      <path id="Path_430" data-name="Path 430" d="M213.67,413.272c-.063-.077,9.62-7.6,21.642-16.8s21.775-16.6,21.838-16.518-9.641,7.6-21.607,16.79S213.733,413.349,213.67,413.272Z" transform="translate(-197.424 -227.239)" fill="#263238"/>
      <path id="Path_431" data-name="Path 431" d="M223.157,368.12,221.44,377.4h2.548l2.625-9.278Z" transform="translate(-199.77 -223.668)" fill="#263238"/>
      <path id="Path_432" data-name="Path 432" d="M211.85,376.316c-2.248,11.3-10.982,53.5-13.181,64.152a2.011,2.011,0,0,0,1.92,2.45h0a1.962,1.962,0,0,0,1.892-1.487l17.028-63.468a3.491,3.491,0,0,0-3.26-4.433h-1.075A3.414,3.414,0,0,0,211.85,376.316Z" transform="translate(-192.881 -225.301)" fill="#455a64"/>
      <path id="Path_433" data-name="Path 433" d="M270.766,368.12l1.717,9.278h-2.548l-2.625-9.278Z" transform="translate(-213.616 -223.668)" fill="#263238"/>
      <path id="Path_434" data-name="Path 434" d="M265.6,326.471c-4.95-9.194-10.849-37.267-13.446-46.224-.07-.251-.147-.5-.223-.733a14.458,14.458,0,0,0-13.788-9.774H223.18a14.472,14.472,0,0,0-13.8,9.774c-.077.237-.154.482-.223.733-2.6,8.957-8.489,37-13.446,46.224,0,0-6.6,3.889-4.712,7.61,1.815,3.581,18.773,6.123,39.654,5.452,20.874.7,37.832-1.871,39.654-5.452C272.2,330.359,265.6,326.471,265.6,326.471Z" transform="translate(-190.479 -193.971)" fill="#e0e0e0"/>
      <path id="Path_435" data-name="Path 435" d="M265.52,326.393a12.375,12.375,0,0,1,1.641,1.11,12.97,12.97,0,0,1,1.78,1.62,6.318,6.318,0,0,1,1.634,2.848,3.33,3.33,0,0,1-.237,1.962,3.63,3.63,0,0,1-1.578,1.508,12.4,12.4,0,0,1-2.178.97,25.564,25.564,0,0,1-2.464.754,78.336,78.336,0,0,1-11.973,1.885c-4.5.419-9.46.635-14.815.642h-4.084c-1.382,0-2.793-.1-4.189,0-2.862.077-5.822.091-8.859,0a131.078,131.078,0,0,1-19.122-1.592,48.257,48.257,0,0,1-4.964-1.1,21.176,21.176,0,0,1-2.5-.831,8.288,8.288,0,0,1-2.283-1.333,2.6,2.6,0,0,1-.733-1.166c-.035-.1-.084-.216-.112-.328l-.042-.342-.042-.342a1.187,1.187,0,0,1,.035-.349,5.194,5.194,0,0,1,1.047-2.485,15.107,15.107,0,0,1,4.056-3.554l-.063.07a72,72,0,0,0,4.189-11.031c1.18-3.833,2.262-7.756,3.3-11.743,1.089-4.189,2.094-8.308,3.121-12.385q.754-3.058,1.508-6.074c.517-2,.991-3.993,1.641-5.948a14.424,14.424,0,0,1,8.112-8.531,15.36,15.36,0,0,1,5.725-1.138h13.921a23.036,23.036,0,0,1,2.688.1,14.982,14.982,0,0,1,5.048,1.487,14.759,14.759,0,0,1,4.084,3.044,14.1,14.1,0,0,1,2.744,4.1l.433,1.131c.119.384.237.761.342,1.145.2.761.419,1.508.607,2.255.775,2.988,1.473,5.871,2.15,8.615,2.667,10.989,4.978,19.841,6.919,25.831.943,3.016,1.836,5.3,2.464,6.842.314.768.614,1.319.789,1.71l.265.593s-.419-.761-1.117-2.276a65,65,0,0,1-2.541-6.828c-1.976-6.011-4.335-14.863-7.03-25.831-.7-2.744-1.4-5.62-2.171-8.6-.188-.747-.4-1.494-.614-2.255-.1-.384-.223-.754-.335-1.131s-.286-.7-.426-1.1a13.8,13.8,0,0,0-2.66-4.021,14.4,14.4,0,0,0-8.943-4.377,20.823,20.823,0,0,0-2.653-.1h-8.273c-3.707.119-7.68-.468-11.261,1.124a14.1,14.1,0,0,0-7.931,8.3c-.635,1.913-1.11,3.924-1.627,5.92s-1.005,4.028-1.508,6.067c-1.005,4.084-2.032,8.217-3.121,12.4-1.04,3.986-2.094,7.917-3.309,11.757a71.514,71.514,0,0,1-4.189,11.086v.042h-.049a14.808,14.808,0,0,0-3.951,3.456,4.824,4.824,0,0,0-.984,2.311v.307l.035.307.035.307a1.207,1.207,0,0,0,.1.293,2.269,2.269,0,0,0,.642,1.019,7.888,7.888,0,0,0,2.178,1.271,20.031,20.031,0,0,0,2.409.831,47.63,47.63,0,0,0,4.929,1.1,131.374,131.374,0,0,0,18.982,1.641q4.559.1,8.852,0c1.4-.077,2.841,0,4.231,0s2.744.042,4.077.042c5.348,0,10.3-.2,14.794-.6a78.423,78.423,0,0,0,11.952-1.836c.859-.216,1.682-.454,2.45-.7a12.678,12.678,0,0,0,2.157-.956,3.533,3.533,0,0,0,1.529-1.4,3.225,3.225,0,0,0,.237-1.878,6.283,6.283,0,0,0-1.578-2.793,13.672,13.672,0,0,0-1.752-1.634,13.244,13.244,0,0,0-1.187-.873Z" transform="translate(-190.4 -193.894)" fill="#263238"/>
      <path id="Path_436" data-name="Path 436" d="M274.952,376.316c2.255,11.3,10.982,53.5,13.188,64.152a2.011,2.011,0,0,1-1.927,2.45h0a1.976,1.976,0,0,1-1.892-1.487l-17.028-63.468a3.491,3.491,0,0,1,3.267-4.433h1.075A3.407,3.407,0,0,1,274.952,376.316Z" transform="translate(-213.572 -225.301)" fill="#455a64"/>
      <path id="Path_437" data-name="Path 437" d="M266.529,358.246l-.161.042-.468.084-1.808.279c-1.571.237-3.854.538-6.674.859-5.648.642-13.481,1.264-22.159,1.4s-16.532-.23-22.194-.7c-2.834-.223-5.124-.447-6.7-.635l-1.815-.216-.468-.07a.454.454,0,0,1-.161-.035h.635l1.822.154c1.585.147,3.875.328,6.709.524,5.662.384,13.5.7,22.166.573s16.49-.7,22.138-1.312c2.793-.286,5.11-.545,6.681-.74l1.822-.216.468-.042a.433.433,0,0,1,.168.056Z" transform="translate(-194.481 -220.671)" fill="#263238"/>
      <g id="Group_9" data-name="Group 9" transform="translate(11.403 132.253)" opacity="0.3">
        <path id="Path_438" data-name="Path 438" d="M262.952,352.743c-.545-1.34-2.716-1.676-4.5-1.759a287.964,287.964,0,0,0-49.987,1.927,3.149,3.149,0,0,0-1.354.377.644.644,0,0,0-.209,1.012l-.077.831c16.476,3.623,33.978,2.869,50.964,1.082a10.627,10.627,0,0,0,3.714-.845C262.568,354.81,263.343,353.728,262.952,352.743Z" transform="translate(-206.733 -350.646)"/>
      </g>
      <path id="Path_439" data-name="Path 439" d="M211.527,301.18s-9.027,8.105-10.9,17.23a33.4,33.4,0,0,0,4.433,23.89,361.14,361.14,0,0,0,49.945,0l.4-34.837Z" transform="translate(-193.292 -203.462)" fill="#263238"/>
      <path id="Path_440" data-name="Path 440" d="M246.913,267.218c-.112-.384-3.323-11.638-3.323-11.638l13.265-7.4,3.777,14.759Z" transform="translate(-206.456 -187.463)" fill="#076aff"/>
      <path id="Path_441" data-name="Path 441" d="M271.9,232.181a11.063,11.063,0,0,0-7.051-6.172L254.274,223H229.657s-11.338.426-15.408,6.206l2.227,33.769s.614,5.955-5.836,18.982c0,0,4.887,6.283,12.8,6.283s34.907-3.428,34.907-3.428l2.695-14.773,8.008-17.823a56.132,56.132,0,0,0,3.742-11.868A14.165,14.165,0,0,0,271.9,232.181Z" transform="translate(-196.51 -179.862)" fill="#076aff"/>
      <path id="Path_442" data-name="Path 442" d="M249.6,273.572a3.019,3.019,0,0,1-.14-.391c-.091-.286-.2-.7-.356-1.159-.307-1.033-.747-2.513-1.292-4.363-1.1-3.784-2.639-9.111-4.468-15.408l-.035-.126.112-.063,13.265-7.414.209-.112.056.223c.1.4.216.838.321,1.271,1.208,4.775,2.36,9.334,3.407,13.495h-.314c3.03-6.583,5.585-12.217,7.463-16.225l2.164-4.643.593-1.229a2.837,2.837,0,0,1,.216-.419,3.127,3.127,0,0,1-.168.44l-.538,1.25L268,243.384l-7.344,16.281-.2.447-.119-.475c-1.054-4.154-2.213-8.72-3.428-13.488-.112-.433-.223-.866-.321-1.271l.265.119-13.272,7.365.084-.188c1.773,6.283,3.267,11.652,4.335,15.443.51,1.864.915,3.351,1.208,4.391.126.5.23.88.3,1.173a2.381,2.381,0,0,1,.091.391Z" transform="translate(-206.372 -184.091)" fill="#263238"/>
      <path id="Path_443" data-name="Path 443" d="M215.537,229.79a13.865,13.865,0,0,0-4.887,10.716c.161,6.842,7.77,41.756,13.006,44.681,5.48,3.079,8.154,2.262,11.275,2.262s26.1-1.983,26.1-1.983l-.084-14.773-25.447.817L226.49,239.3Z" transform="translate(-196.512 -181.912)" fill="#076aff"/>
      <path id="Path_444" data-name="Path 444" d="M213.27,256.385s.042.126.1.363.161.614.279,1.068c.237.956.586,2.346,1.033,4.119.915,3.567,2.213,8.748,4.028,15.087.461,1.585.963,3.232,1.543,4.936a18.612,18.612,0,0,0,2.443,4.978,10.374,10.374,0,0,0,4.6,3.6,14.885,14.885,0,0,0,6.2.866c4.349-.168,8.922-.5,13.656-.845l14.661-1.124-.168.182V289.2c0-4.936-.056-9.774-.077-14.4l.182.182-25.454.789h-.119v-.119c-2.688-9.7-4.887-17.761-6.479-23.409-.768-2.793-1.4-5.013-1.78-6.535q-.3-1.11-.461-1.717c-.1-.391-.14-.593-.14-.593s.07.2.189.579.279.97.5,1.71c.44,1.515,1.068,3.714,1.864,6.514,1.592,5.634,3.868,13.677,6.6,23.367l-.154-.112,25.454-.838h.174v.182c0,4.643.056,9.46.084,14.389v.552h-.168l-14.661,1.117c-4.74.335-9.306.663-13.677.824a15.114,15.114,0,0,1-6.325-.9,10.7,10.7,0,0,1-4.726-3.728,18.632,18.632,0,0,1-2.464-5.061c-.572-1.71-1.075-3.372-1.522-4.957-1.787-6.353-3.044-11.54-3.917-15.122-.419-1.787-.747-3.177-.977-4.133-.1-.461-.182-.824-.237-1.082A1.261,1.261,0,0,0,213.27,256.385Z" transform="translate(-197.304 -186.02)" fill="#263238"/>
      <g id="Group_10" data-name="Group 10" transform="translate(19.778 86.066)" opacity="0.3">
        <path id="Path_445" data-name="Path 445" d="M228.141,302.9a8.3,8.3,0,0,1-3.679-3.218c-2.834-4.189-4.4-10.339-5.383-14.738l-.349-.454a55.984,55.984,0,0,0,2.52,12.713,12.632,12.632,0,0,0,3.491,5.8,9.4,9.4,0,0,0,5.85,1.857A28.148,28.148,0,0,0,236.77,304C235.032,303.975,230.857,304.108,228.141,302.9Z" transform="translate(-218.73 -284.49)"/>
      </g>
      <g id="Group_11" data-name="Group 11" transform="translate(31.367 62.316)" opacity="0.3">
        <path id="Path_446" data-name="Path 446" d="M235.33,250.47l9.341,25.419,22.012,1.117-23.723.761Z" transform="translate(-235.33 -250.47)"/>
      </g>
      <path id="Path_447" data-name="Path 447" d="M306.094,399.9l2.339,16.979s18.04,3.323,18.78,6.423l-32.757,5.718-4.726-26.306Z" transform="translate(-220.384 -233.261)" fill="#076aff"/>
      <path id="Path_448" data-name="Path 448" d="M301.327,424.676a1.4,1.4,0,0,0-.7,1.69,1.3,1.3,0,0,0,1.669.663,1.4,1.4,0,0,0,.7-1.787,1.354,1.354,0,0,0-1.815-.5" transform="translate(-223.652 -240.709)" fill="#e0e0e0"/>
      <path id="Path_449" data-name="Path 449" d="M296.447,439.222,296,436.709l31.535-5.3s1.571.384,1.585,1.438Z" transform="translate(-222.277 -242.773)" fill="#e0e0e0"/>
      <path id="Path_450" data-name="Path 450" d="M316.08,423.814c0,.161-.768.37-1.459,1.026s-1.005,1.4-1.159,1.354-.084-1,.775-1.773S316.087,423.66,316.08,423.814Z" transform="translate(-227.528 -240.455)" fill="#263238"/>
      <path id="Path_451" data-name="Path 451" d="M321.729,424.985c.063.147-.586.538-1.012,1.313s-.454,1.515-.614,1.536-.419-.873.126-1.815S321.694,424.852,321.729,424.985Z" transform="translate(-229.491 -240.823)" fill="#263238"/>
      <path id="Path_452" data-name="Path 452" d="M326.2,429.145c-.14.056-.5-.7-.244-1.648s.942-1.431,1.033-1.305-.286.7-.489,1.452S326.349,429.1,326.2,429.145Z" transform="translate(-231.29 -241.192)" fill="#263238"/>
      <path id="Path_453" data-name="Path 453" d="M314.4,418.24c-.042.161-.817.07-1.7.286s-1.55.628-1.662.5.475-.81,1.529-1.054S314.455,418.1,314.4,418.24Z" transform="translate(-226.811 -238.693)" fill="#263238"/>
      <path id="Path_454" data-name="Path 454" d="M275.815,424l2.443,17.74,14.4,15.073a2.332,2.332,0,0,1-.237,3.4h0a2.3,2.3,0,0,1-2.094.433c-4.636-1.3-26.034-9.208-26.034-9.208-.831-3.6-3.756-20.414-3.756-20.414Z" transform="translate(-211.573 -240.536)" fill="#076aff"/>
      <path id="Path_455" data-name="Path 455" d="M265.17,460.18l28.624,10.975c-.593.5-1.4,1.082-2.143.873l-25.475-9.181a.747.747,0,0,1-.482-.538Z" transform="translate(-212.97 -251.458)" fill="#e0e0e0"/>
      <path id="Path_456" data-name="Path 456" d="M271.687,454.37a1.4,1.4,0,0,1,1.208,1.445,1.347,1.347,0,0,1-1.4,1.208,1.487,1.487,0,0,1-1.3-1.515,1.4,1.4,0,0,1,1.62-1.1" transform="translate(-214.488 -249.704)" fill="#fff"/>
      <path id="Path_457" data-name="Path 457" d="M288.623,461.06a6.746,6.746,0,0,1,1.466-2.22,8.644,8.644,0,0,1,2.4-1.166c-.007-.147-.321-.154-.852-.091a3.735,3.735,0,0,0-3,2.618C288.511,460.725,288.56,461.06,288.623,461.06Z" transform="translate(-220.031 -250.663)" fill="#263238"/>
      <path id="Path_458" data-name="Path 458" d="M293.9,465.384c.14.042.433-.956,1.313-1.808s1.857-1.159,1.822-1.3-1.187-.049-2.171.943S293.76,465.391,293.9,465.384Z" transform="translate(-221.628 -252.075)" fill="#263238"/>
      <path id="Path_459" data-name="Path 459" d="M282.434,456.929a11.882,11.882,0,0,1,5.662-3.868,6.34,6.34,0,0,0-5.662,3.868Z" transform="translate(-218.177 -249.296)" fill="#263238"/>
      <path id="Path_460" data-name="Path 460" d="M271.237,197.256a16.176,16.176,0,0,1,.349-6.032,10.193,10.193,0,0,0-.321-5.983c-1.061-2.318-3.491-3.658-5.041-5.7s-2.039-4.664-2.646-7.149-1.466-5.089-3.442-6.723c-2.492-2.094-8.1-1.613-10.416.656,1.892,14.4.817,29.447,6.116,42.956a38.579,38.579,0,0,0,19.387-8.029C273.2,201.166,271.649,199.239,271.237,197.256Z" transform="translate(-208.306 -162.154)" fill="#263238"/>
      <path id="Path_461" data-name="Path 461" d="M237.292,210.911l-9.271-33.594a3.1,3.1,0,0,1,2.143-3.609l15.422-7.156c5.082-1.529,9.774,4.189,11.052,9.348,1.459,5.711,3.009,12.748,3.142,17.188.265,8.936-6.179,11.3-6.179,11.3l1.243,9.439-2.7,9.453-8.273,4.538Z" transform="translate(-201.736 -162.746)" fill="#ffbe9d"/>
      <path id="Path_462" data-name="Path 462" d="M264.982,189.7a1.131,1.131,0,0,1-.859,1.326,1.082,1.082,0,0,1-1.333-.782,1.131,1.131,0,0,1,.859-1.326,1.075,1.075,0,0,1,1.333.782Z" transform="translate(-212.245 -169.564)" fill="#263238"/>
      <path id="Path_463" data-name="Path 463" d="M265.611,184.785c-.112.175-1.068-.293-2.269-.063s-1.962.991-2.094.873,0-.342.342-.7a3.127,3.127,0,0,1,1.662-.88,3,3,0,0,1,1.843.23C265.493,184.47,265.667,184.687,265.611,184.785Z" transform="translate(-211.771 -168.078)" fill="#263238"/>
      <path id="Path_464" data-name="Path 464" d="M249.342,192.833a1.138,1.138,0,0,1-.859,1.326,1.082,1.082,0,0,1-1.333-.789,1.131,1.131,0,0,1,.859-1.326,1.082,1.082,0,0,1,1.333.789Z" transform="translate(-207.524 -170.506)" fill="#263238"/>
      <path id="Path_465" data-name="Path 465" d="M249.971,188.915c-.112.175-1.068-.293-2.269-.063s-1.962,1-2.094.873,0-.342.342-.7a3.127,3.127,0,0,1,1.662-.88,3.051,3.051,0,0,1,1.843.23C249.853,188.6,250.055,188.839,249.971,188.915Z" transform="translate(-207.05 -169.326)" fill="#263238"/>
      <path id="Path_466" data-name="Path 466" d="M258.643,196.547a8.063,8.063,0,0,1,1.878-.7c.3-.091.579-.209.586-.426a1.571,1.571,0,0,0-.37-.866L259.39,192.4a40.207,40.207,0,0,1-3.184-5.711,40.636,40.636,0,0,1,3.637,5.438l1.306,2.178a1.808,1.808,0,0,1,.384,1.173.768.768,0,0,1-.412.538,2.46,2.46,0,0,1-.51.175,7.678,7.678,0,0,1-1.969.356Z" transform="translate(-210.262 -168.901)" fill="#263238"/>
      <path id="Path_467" data-name="Path 467" d="M259.443,220.5a22.431,22.431,0,0,1-12.2-.908s4.084,5.634,12.615,3.184Z" transform="translate(-207.558 -178.833)" fill="#eb996e"/>
      <path id="Path_468" data-name="Path 468" d="M248.169,181.834c-.056.349-1.278.419-2.653.852s-2.437,1.033-2.681.775c-.1-.119.035-.468.433-.866a4.538,4.538,0,0,1,1.885-1.089,4.65,4.65,0,0,1,2.178-.154C247.883,181.464,248.19,181.666,248.169,181.834Z" transform="translate(-206.218 -167.271)" fill="#e0e0e0"/>
      <path id="Path_469" data-name="Path 469" d="M264.369,179.608c-.161.307-1.04.182-2.032.356s-1.8.531-2.046.279c-.112-.119,0-.419.286-.747a2.911,2.911,0,0,1,1.564-.754,2.862,2.862,0,0,1,1.724.244C264.264,179.182,264.431,179.441,264.369,179.608Z" transform="translate(-211.485 -166.49)" fill="#263238"/>
      <path id="Path_470" data-name="Path 470" d="M243.949,164.5c-2.094-3.567-5.4-3.379-8.929-3.218s-8.447,2.506-11,4.957a27.619,27.619,0,0,0-5.445,6.744c-1.257,2.457-1.508,4.887-2.094,7.463-.88,4.028-.119,8.2.321,12.3a78.191,78.191,0,0,1,.119,15.5c-.168,1.85-.293,4.049,2.234,4.691a5.236,5.236,0,0,0,1.438.133c3.749-.112,7.5.586,11.624.209l2.52-.412a4.48,4.48,0,0,0,3.924-5.7c-1.662-8.315-7.68-21.44-8.545-24.009C230.112,183.152,225.833,164.847,243.949,164.5Z" transform="translate(-198.152 -161.21)" fill="#263238"/>
      <path id="Path_471" data-name="Path 471" d="M246.48,166.286a5.173,5.173,0,0,0-1.257,3.889c0,1.4.335,2.793.293,4.189a8.776,8.776,0,0,1-3.986,7.065c-.754.482-1.85.8-2.464.154a4.887,4.887,0,0,1-2.185,5.027A29.774,29.774,0,0,1,232.9,188c-1.312.524-2.583,1.683-2.436,3.086l-2.094-9.585,1.354-8.992,7.568-6.283Z" transform="translate(-201.862 -162.725)" fill="#263238"/>
      <path id="Path_472" data-name="Path 472" d="M236.73,183.8a5.684,5.684,0,0,0,.7-.775,5.934,5.934,0,0,0,.929-2.646,20.679,20.679,0,0,0-.077-4.189,34.327,34.327,0,0,1-.223-5.194,9.872,9.872,0,0,1,1.55-4.936,5.8,5.8,0,0,1,1.62-1.606,5.543,5.543,0,0,1,1.829-.768,4.545,4.545,0,0,1,2.827.209,3.637,3.637,0,0,1,.4.2,2.039,2.039,0,0,1,.272.182,1.4,1.4,0,0,1,.209.175,5.584,5.584,0,0,0-.915-.5,4.552,4.552,0,0,0-2.793-.161,5.585,5.585,0,0,0-3.344,2.353,9.774,9.774,0,0,0-1.508,4.887,35.122,35.122,0,0,0,.209,5.166,19.764,19.764,0,0,1,.042,4.245,5.864,5.864,0,0,1-1,2.674A3.121,3.121,0,0,1,236.73,183.8Z" transform="translate(-204.385 -161.916)" fill="#455a64"/>
      <path id="Path_473" data-name="Path 473" d="M226.05,183.163a4.755,4.755,0,0,0,1.229-.517,6.765,6.765,0,0,0,2.3-2.793,12.9,12.9,0,0,0,.88-2.36,9.983,9.983,0,0,0,.244-2.862c-.042-1.019-.168-2.094-.223-3.2a15.509,15.509,0,0,1,0-1.71,9.492,9.492,0,0,1,.293-1.745,9.076,9.076,0,0,1,3.951-5.25,8.552,8.552,0,0,1,5.257-1.208,8.8,8.8,0,0,1,3.491,1.054,6.4,6.4,0,0,1,1.117.754l-.077-.042-.216-.147a4.133,4.133,0,0,0-.356-.223c-.147-.084-.307-.189-.5-.286a9.076,9.076,0,0,0-3.491-.991,8.51,8.51,0,0,0-5.166,1.222,8.922,8.922,0,0,0-3.875,5.166,9.079,9.079,0,0,0-.286,1.7c-.035.572,0,1.138,0,1.689.056,1.11.182,2.185.216,3.211a9.774,9.774,0,0,1-.265,2.9,12.449,12.449,0,0,1-.908,2.381,6.7,6.7,0,0,1-2.367,2.793,3.728,3.728,0,0,1-.922.391l-.251.056C226.078,183.163,226.05,183.17,226.05,183.163Z" transform="translate(-201.161 -161.29)" fill="#455a64"/>
      <path id="Path_474" data-name="Path 474" d="M236.3,185.455a.791.791,0,0,1,0,.084v1.194a5.467,5.467,0,0,1-.335,1.466,4.726,4.726,0,0,1-1.082,1.7,7.9,7.9,0,0,1-4.817,2.046,15.192,15.192,0,0,1-3.191,0,12.637,12.637,0,0,1-3.372-.768l-.216-.091.223-.07A12.406,12.406,0,0,0,227,189.3l.056-.035.077.147a11.715,11.715,0,0,1-7.756-.147l-.168-.063.161-.077a14.591,14.591,0,0,0,4.112-2.981,7.323,7.323,0,0,0,1.836-3.491,7.421,7.421,0,0,0,0-2.59l-.161-.7a.235.235,0,0,0-.042-.175c-.042-.042,0-.063,0-.063v.056l.049.175c.049.161.1.384.189.7a6.66,6.66,0,0,1-1.773,6.158,14.319,14.319,0,0,1-4.133,3.03v-.14a11.61,11.61,0,0,0,7.68.133l.545-.182-.468.328-.056.042a12.567,12.567,0,0,1-3.491,1.731v-.154a12.483,12.483,0,0,0,3.33.761,14.374,14.374,0,0,0,3.149,0,7.826,7.826,0,0,0,4.761-1.976,4.761,4.761,0,0,0,1.082-1.648,5.927,5.927,0,0,0,.356-1.445,2.644,2.644,0,0,1,.035-.545,3.767,3.767,0,0,0,0-.4v-.244a.76.76,0,0,0-.07-.056Z" transform="translate(-199.097 -166.619)" fill="#455a64"/>
      <path id="Path_475" data-name="Path 475" d="M223.685,220.471c-.049,0-.307-5.034-.586-11.247s-.461-11.254-.412-11.254.307,5.034.579,11.247S223.734,220.464,223.685,220.471Z" transform="translate(-200.144 -172.306)" fill="#455a64"/>
      <path id="Path_476" data-name="Path 476" d="M230.085,221.876a.922.922,0,0,1-.063-.2c-.042-.154-.091-.349-.147-.593-.133-.51-.3-1.257-.5-2.178-.4-1.85-.9-4.419-1.347-7.268s-.761-5.445-.943-7.323c-.1-.942-.161-1.7-.2-2.227v-.607a1.275,1.275,0,0,1,0-.216.7.7,0,0,1,0,.209,5.5,5.5,0,0,0,.077.607c.056.545.147,1.3.251,2.22.209,1.878.545,4.468.991,7.316s.922,5.411,1.292,7.261c.189.915.335,1.655.447,2.192.049.244.084.447.112.6a.914.914,0,0,1,.028.209Z" transform="translate(-201.413 -173.3)" fill="#455a64"/>
      <path id="Path_477" data-name="Path 477" d="M260.288,203.383a1.759,1.759,0,0,0-.656-.328h.042a1.7,1.7,0,0,0-1.927.237,1.773,1.773,0,0,0-.531,1.075,1.829,1.829,0,0,0,.2,1.243,1.654,1.654,0,0,0,1,.663,3,3,0,0,0,1.222,0,1.8,1.8,0,0,0,1.033-.5,1.4,1.4,0,0,0,.314-.866A1.892,1.892,0,0,0,260.288,203.383Z" transform="translate(-210.559 -173.782)" fill="#eb996e"/>
      <path id="Path_478" data-name="Path 478" d="M260.754,205.771v-.216a.622.622,0,0,0-.286-.419,2.094,2.094,0,0,0-.831-.119,3.491,3.491,0,0,0-1.068.161,8.739,8.739,0,0,0-1.878.747c-.489.216-.817.286-.831.244a3.4,3.4,0,0,1,.7-.475,6.423,6.423,0,0,1,1.906-.873c.2-.049.377-.091.593-.126a4.018,4.018,0,0,1,.572,0,1.962,1.962,0,0,1,.97.244.7.7,0,0,1,.279.635C260.844,205.736,260.768,205.785,260.754,205.771Z" transform="translate(-210.16 -174.334)" fill="#263238"/>
      <path id="Path_479" data-name="Path 479" d="M282.72,291.132s8.552-1.257,10.661-.433,12.762,5.969,13.963,8.2,3.979,6.206,4.335,8.2.7,7.959.7,7.959a2.793,2.793,0,0,1-2.695-2.688l-.817,2.688s-2.227.586-2.576-.935c0,0-1.292,1.641-1.871-2.094a39.492,39.492,0,0,1-.586-4.887l-1.759-2.576.935,3.442-.468,5.222s-1.871,0-1.99-1.641a16.126,16.126,0,0,0-.817-3.581l-2.346-3.679s-5.92-3.086-7.247-4.566a7.142,7.142,0,0,1-1.473-2.011l-5.843,1.948Z" transform="translate(-218.268 -200.213)" fill="#ffbe9d"/>
      <path id="Path_480" data-name="Path 480" d="M307.916,315.19a2.1,2.1,0,0,1-1.1-.258,1.194,1.194,0,0,1-.559-.768.866.866,0,0,1-.775.314c-.5-.133-.873-.956-1.11-2.457a41.366,41.366,0,0,1-.586-4.887l-1.7-2.485.915,3.337h0l-.475,5.243h0s-1.892,0-2.011-1.655a15.848,15.848,0,0,0-.817-3.581l-2.339-3.672c-.182-.1-5.948-3.114-7.24-4.566a7.806,7.806,0,0,1-1.48-2l-5.843,1.948h0l-.077-8.531h0c.084,0,8.58-1.243,10.668-.433,1.068.419,4.287,1.927,7.316,3.574,2.674,1.452,6,3.435,6.625,4.636.37.7.9,1.571,1.466,2.5,1.229,2.032,2.625,4.328,2.869,5.7.349,1.969.7,7.9.7,7.959h0a2.974,2.974,0,0,1-1.222-.335,2.918,2.918,0,0,1-1.487-2.3l-.8,2.632h0A4.19,4.19,0,0,1,307.916,315.19Zm-1.648-1.1v.035a1.222,1.222,0,0,0,.559.782,3.037,3.037,0,0,0,1.99.14l.838-2.758v.077a2.793,2.793,0,0,0,2.66,2.681c0-.37-.37-6.032-.7-7.945-.237-1.361-1.634-3.658-2.869-5.69-.559-.922-1.1-1.8-1.459-2.5s-1.773-2-6.611-4.622c-3.03-1.641-6.248-3.156-7.316-3.567-2.039-.8-10.228.377-10.633.433l.077,8.482,5.829-1.948h0a7.581,7.581,0,0,0,1.473,2c1.306,1.466,7.184,4.538,7.24,4.566h0l2.346,3.672a16.562,16.562,0,0,1,.824,3.6c.1,1.522,1.773,1.62,1.955,1.627l.468-5.208-.963-3.54,1.815,2.667h0a40.149,40.149,0,0,0,.586,4.887c.286,1.85.754,2.346,1.089,2.436h.126a.949.949,0,0,0,.628-.349Z" transform="translate(-218.268 -200.221)" fill="#eb996e"/>
      <rect id="Rectangle_176" data-name="Rectangle 176" width="2.437" height="8.343" transform="translate(67.873 90.206)" fill="#263238"/>
      <rect id="Rectangle_177" data-name="Rectangle 177" width="5.739" height="1.641" transform="translate(66.218 88.566)" fill="#455a64"/>
      <path id="Path_481" data-name="Path 481" d="M251.4,218.134s-2.793,1.347-2.793,3.554-.468,20.1-.468,20.1l10.088-5.669-1.641-11.868,10.912-6.688s2.094-3.721,1.892-4.887-2.36-3.435-3.421-3.316a2.45,2.45,0,0,0-1.641,1.054l-3.288.7s.237,2.094,1.648,2l.936-.119-.119.817-1.641,1.18Z" transform="translate(-207.829 -175.743)" fill="#ffbe9d"/>
      <path id="Path_482" data-name="Path 482" d="M251.319,218.072l.175-.07.524-.175,2.039-.649,7.68-2.381H261.7l1.641-1.18-.049.084c.035-.251.07-.538.112-.824l.14.147-.908.119a1.319,1.319,0,0,1-.977-.286,2.967,2.967,0,0,1-.852-1.822v-.126h.133l3.288-.7-.1.07a2.667,2.667,0,0,1,1.131-.963,1.822,1.822,0,0,1,.768-.168,1.718,1.718,0,0,1,.754.244,6.827,6.827,0,0,1,2.2,2.136,4.029,4.029,0,0,1,.384.7,1.522,1.522,0,0,1,.112.845,6.858,6.858,0,0,1-.461,1.564,26.284,26.284,0,0,1-1.445,2.96v.035h0l-10.912,6.7.084-.182c.056.377.112.782.168,1.187.51,3.686,1.005,7.268,1.473,10.688v.119l-.1.063-10.158,5.655-.251.14v-.279c.2-7.414.37-13.614.482-17.991,0-.545.035-1.061.049-1.55a5.167,5.167,0,0,1,.147-1.4,4.189,4.189,0,0,1,1.257-1.759,5.586,5.586,0,0,1,1.508-.977l-.1.07-.286.175a7.133,7.133,0,0,0-1.061.81,4.091,4.091,0,0,0-1.18,1.731,4.965,4.965,0,0,0-.119,1.326v1.55c-.084,4.377-.2,10.584-.349,18l-.237-.147,10.081-5.69-.091.182q-.712-5.131-1.487-10.688c-.056-.4-.112-.81-.161-1.187v-.119l.1-.063,10.919-6.681-.063.063a26.1,26.1,0,0,0,1.431-2.911,6.22,6.22,0,0,0,.44-1.473,1.941,1.941,0,0,0-.433-1.34,6.73,6.73,0,0,0-2.094-2.039,1.4,1.4,0,0,0-.614-.2,1.452,1.452,0,0,0-.628.133,2.506,2.506,0,0,0-1.005.838l-.035.056h-.056l-3.288.7.112-.154a2.674,2.674,0,0,0,.74,1.648,1.033,1.033,0,0,0,.775.223l.908-.1h.168v.161c-.042.293-.084.572-.119.824v.056h-.042l-1.648,1.166h0l-7.68,2.283-2.094.593-.531.147Z" transform="translate(-207.748 -175.681)" fill="#eb996e"/>
      <path id="Path_483" data-name="Path 483" d="M271.966,216.488c-.035-.042.3-.342.789-.866a4.251,4.251,0,0,0,.7-1.005,2.646,2.646,0,0,0,.209-1.431,7.247,7.247,0,0,0-.279-1.48.852.852,0,0,0-.852-.565,4.03,4.03,0,0,1-.873-.091c-.209-.07-.286-.168-.279-.181a.835.835,0,0,1,.307.042,8.154,8.154,0,0,0,.852,0,1.4,1.4,0,0,1,.642.119,1.138,1.138,0,0,1,.517.579,6.281,6.281,0,0,1,.328,1.578,2.834,2.834,0,0,1-.272,1.613,3.8,3.8,0,0,1-.824,1.033,2.834,2.834,0,0,1-.963.656Z" transform="translate(-214.845 -176.198)" fill="#eb996e"/>
      <path id="Path_484" data-name="Path 484" d="M263.771,333.063c-4.238-5.585-13.223-6.074-17.83-.761a9.655,9.655,0,0,0-2.4,6.556c0,11.031,5.948,40.834,7.254,49.568,1.4,9.355,5.278,25.363,5.278,25.363l19.052-2.7s-7.149-56-8.036-62.567-2.248-12.2-2.248-12.2Z" transform="translate(-206.44 -211.733)" fill="#263238"/>
      <path id="Path_485" data-name="Path 485" d="M224.773,315.425c.586-.391,27.227-10.3,31.891-11.275s9-1.5,14.221,3.344c6.381,5.906,18.012,76.649,18.012,76.649s-19.625,3.33-19.625,2.939-13.446-57.945-13.446-57.945L232.18,344.272l-13.16-19.548Z" transform="translate(-199.039 -204.163)" fill="#263238"/>
      <path id="Path_486" data-name="Path 486" d="M268.727,358.423a.7.7,0,0,1-.049-.175,3.513,3.513,0,0,0-.1-.531c-.077-.5-.188-1.173-.328-2.039-.272-1.8-.649-4.356-1.124-7.5A110.476,110.476,0,0,0,265,337.137a20.644,20.644,0,0,0-2.443-6.081,11.282,11.282,0,0,0-5.257-4.475,9.872,9.872,0,0,0-6.863,0,11.505,11.505,0,0,0-5.271,3.735,10.4,10.4,0,0,0-1.822,5.585c-.119,1.864-.042,3.63,0,5.222.2,3.184.649,5.753.782,7.54.077.894.112,1.592.126,2.06v.538a.769.769,0,0,1,0,.188.769.769,0,0,1,0-.188,2.648,2.648,0,0,0-.042-.538c-.035-.468-.091-1.166-.189-2.053-.175-1.78-.7-4.328-.9-7.54a51.919,51.919,0,0,1-.049-5.257,10.647,10.647,0,0,1,1.857-5.732,11.736,11.736,0,0,1,5.418-3.868,10.22,10.22,0,0,1,7.114,0,11.659,11.659,0,0,1,5.425,4.629,20.818,20.818,0,0,1,2.464,6.158c1.012,4.126,1.6,7.9,2.06,11.072s.761,5.718,1.005,7.526c.112.866.2,1.55.265,2.046a4.414,4.414,0,0,0,.056.538A.7.7,0,0,1,268.727,358.423Z" transform="translate(-206.286 -210.844)" fill="#455a64"/>
      <path id="Path_487" data-name="Path 487" d="M242.5,309.91a1.349,1.349,0,0,1-.307.154l-.922.377c-.8.328-1.962.775-3.407,1.326-2.876,1.1-6.884,2.562-11.3,4.189s-8.378,3.121-11.268,4.266l-3.386,1.361-.922.37a1.306,1.306,0,0,1-.335.1,2.737,2.737,0,0,1,.3-.174l.9-.426c.782-.37,1.92-.88,3.344-1.473,2.841-1.208,6.814-2.751,11.24-4.37s8.434-3.044,11.338-4.084l3.442-1.215.942-.314a1.046,1.046,0,0,1,.335-.091Z" transform="translate(-196.516 -206.097)" fill="#455a64"/>
    </g>
  </g>
</svg>
