<svg xmlns="http://www.w3.org/2000/svg" enable-background="new 0 0 512 512" viewBox="0 0 512 512"><path fill="none" d="M256,26C129.2,26,26,129.2,26,256s103.2,230,230,230s230-103.2,230-230S382.8,26,256,26z M387.6,249.9
		c-8.1,36.6-32,68.4-65.6,87.3c-31.6,17.8-70.1,19.7-100.5,5c-11-5.3-20.2-12.5-27.5-21.3c-15.9,56.7-30.4,108.3-30.7,109.2
		c-1.2,4.4-5.3,7.3-9.6,7.3c-0.9,0-1.8-0.1-2.7-0.4c-5.3-1.5-8.4-7-6.9-12.3c0.3-1,18.1-64.8,36.1-128.5c-0.9-2.5-1.7-5-2.3-7.7
		c-8.1-31.6,0.1-72,20.4-100.7c4.7-6.7,13.3-8.9,20.8-5.3c7.3,3.5,10.9,11.3,8.7,19c-6.6,23.3-16.4,58.1-26.4,93.5
		c5.9,12.9,15.6,22.6,28.9,29.1c24.2,11.7,56.4,10,82-4.4c29.1-16.4,48.9-42.7,55.8-74.2c6.8-30.7,0.3-61.7-18.3-87.4
		c-26.4-36.6-75.9-55.7-120.5-46.4c-36.3,7.5-70.5,38-83.1,74.2c-9.2,26.3-5.2,51.7,11.3,71.5c3.5,4.2,3,10.6-1.3,14.1
		c-4.2,3.5-10.6,3-14.1-1.3c-21.1-25.4-26.4-57.7-14.8-90.9c14.8-42.4,55.1-78.2,97.9-87.1c52-10.8,109.9,11.5,140.7,54.3
		C387.6,176.4,395.5,214.1,387.6,249.9z"/><path fill="#231f20" d="M432.8,79.2C385.6,32,322.8,6,256,6S126.4,32,79.2,79.2C32,126.4,6,189.2,6,256s26,129.6,73.2,176.8
		C126.4,480,189.2,506,256,506s129.6-26,176.8-73.2C480,385.6,506,322.8,506,256S480,126.4,432.8,79.2z M256,486
		C129.2,486,26,382.8,26,256S129.2,26,256,26s230,103.2,230,230S382.8,486,256,486z"/><path fill="#231f20" d="M225.3,92.1c-42.8,8.9-83.1,44.7-97.9,87.1c-11.6,33.2-6.3,65.4,14.8,90.9c3.5,4.2,9.8,4.8,14.1,1.3
		c4.2-3.5,4.8-9.8,1.3-14.1c-16.5-19.8-20.5-45.2-11.3-71.5c12.6-36.1,46.8-66.6,83.1-74.2c44.5-9.2,94,9.9,120.5,46.4
		c18.5,25.7,25,56.8,18.3,87.4c-6.9,31.5-26.8,57.8-55.8,74.2c-25.6,14.4-57.8,16.1-82,4.4c-13.4-6.5-23-16.2-28.9-29.1
		c10-35.5,19.8-70.3,26.4-93.5c2.2-7.7-1.4-15.5-8.7-19c-7.5-3.6-16-1.4-20.8,5.3c-20.3,28.6-28.5,69.1-20.4,100.7
		c0.7,2.6,1.5,5.2,2.3,7.7c-17.9,63.7-35.8,127.5-36.1,128.5c-1.5,5.3,1.6,10.8,6.9,12.3c0.9,0.3,1.8,0.4,2.7,0.4
		c4.4,0,8.4-2.9,9.6-7.3c0.3-0.9,14.7-52.5,30.7-109.2c7.3,8.8,16.5,16,27.5,21.3c30.4,14.7,68.9,12.8,100.5-5
		c33.6-18.9,57.5-50.7,65.6-87.3c7.9-35.8,0-73.5-21.6-103.4C335.1,103.7,277.3,81.3,225.3,92.1z"/></svg>