<svg xmlns="http://www.w3.org/2000/svg" width="28.435" height="28.435" viewBox="0 0 28.435 28.435">
  <g id="vuesax_linear_setting-2" data-name="vuesax/linear/setting-2" transform="translate(-300 -188)" opacity="0.82">
    <g id="setting-2" transform="translate(300 188)">
      <path id="Vector" d="M7.109,3.554A3.554,3.554,0,1,1,3.554,0,3.554,3.554,0,0,1,7.109,3.554Z" transform="translate(10.663 10.663)" fill="none" stroke="#076aff" stroke-linecap="round" stroke-linejoin="round" stroke-width="2"/>
      <path id="Vector-2" data-name="Vector" d="M0,12.226V10.14A2.258,2.258,0,0,1,2.251,7.889c2.144,0,3.021-1.517,1.943-3.377a2.25,2.25,0,0,1,.829-3.069L7.073.271a1.977,1.977,0,0,1,2.7.711l.13.225c1.066,1.86,2.82,1.86,3.9,0l.13-.225a1.977,1.977,0,0,1,2.7-.711l2.05,1.173a2.25,2.25,0,0,1,.829,3.069c-1.078,1.86-.2,3.377,1.943,3.377a2.258,2.258,0,0,1,2.251,2.251v2.085a2.258,2.258,0,0,1-2.251,2.251c-2.144,0-3.021,1.517-1.943,3.377a2.247,2.247,0,0,1-.829,3.069l-2.05,1.173a1.977,1.977,0,0,1-2.7-.711l-.13-.225c-1.066-1.86-2.82-1.86-3.9,0l-.13.225a1.977,1.977,0,0,1-2.7.711l-2.05-1.173a2.25,2.25,0,0,1-.829-3.069c1.078-1.86.2-3.377-1.943-3.377A2.258,2.258,0,0,1,0,12.226Z" transform="translate(2.37 3.034)" fill="none" stroke="#076aff" stroke-linecap="round" stroke-linejoin="round" stroke-width="2"/>
      <g id="Vector-3" data-name="Vector" fill="none" opacity="0">
        <path d="M0,0H28.435V28.435H0Z" stroke="none"/>
        <path d="M 1.999998092651367 1.999998092651367 L 1.999998092651367 26.43481636047363 L 26.43481636047363 26.43481636047363 L 26.43481636047363 1.999998092651367 L 1.999998092651367 1.999998092651367 M -1.9073486328125e-06 -1.9073486328125e-06 L 28.43481636047363 -1.9073486328125e-06 L 28.43481636047363 28.43481636047363 L -1.9073486328125e-06 28.43481636047363 L -1.9073486328125e-06 -1.9073486328125e-06 Z" stroke="none" fill="#076aff"/>
      </g>
    </g>
  </g>
</svg>
