<svg xmlns="http://www.w3.org/2000/svg" width="24" height="24" viewBox="0 0 24 24">
  <g id="vuesax_outline_award" data-name="vuesax/outline/award" transform="translate(-428 -188)">
    <g id="award">
      <g id="Vector" transform="translate(431.51 192.247)" fill="none">
        <path d="M8.49,18.5a3.442,3.442,0,0,1-1.67-.41l-4.73-2.73C.13,14.043,0,13.8,0,11.733V6.773c0-2.07.13-2.31,2.05-3.6L6.83.413a3.567,3.567,0,0,1,3.33,0l4.73,2.73c1.96,1.32,2.09,1.56,2.09,3.63v4.96c0,2.07-.13,2.31-2.05,3.6l-4.78,2.76A3.3,3.3,0,0,1,8.49,18.5Zm0-17a1.9,1.9,0,0,0-.92.21L2.84,4.442c-1.34.91-1.34.91-1.34,2.33v4.96c0,1.42,0,1.42,1.39,2.36l4.69,2.7a2.1,2.1,0,0,0,1.83,0l4.73-2.73c1.34-.91,1.34-.91,1.34-2.33V6.773c0-1.42,0-1.42-1.39-2.36L9.4,1.713A1.828,1.828,0,0,0,8.49,1.5Z" stroke="none"/>
        <path d="M 8.489999771118164 18.50250053405762 C 7.889999866485596 18.50250053405762 7.299999713897705 18.36249923706055 6.819999694824219 18.09250068664551 L 2.089999675750732 15.36250019073486 C 0.1299997717142105 14.04249954223633 -2.288818308215923e-07 13.80249977111816 -2.288818308215923e-07 11.73250007629395 L -2.288818308215923e-07 6.772500038146973 C -2.288818308215923e-07 4.702499866485596 0.1299997717142105 4.462500095367432 2.049999713897705 3.172499895095825 L 6.829999923706055 0.412499874830246 C 7.779999732971191 -0.1375001072883606 9.209999084472656 -0.1375001072883606 10.15999984741211 0.412499874830246 L 14.88999938964844 3.142499923706055 C 16.85000038146973 4.462500095367432 16.97999954223633 4.702499866485596 16.97999954223633 6.772500038146973 L 16.97999954223633 11.73250007629395 C 16.97999954223633 13.80249977111816 16.85000038146973 14.04249954223633 14.92999935150146 15.33249950408936 L 10.14999961853027 18.09250068664551 C 9.679999351501465 18.37249946594238 9.079999923706055 18.50250053405762 8.489999771118164 18.50250053405762 Z M 8.489999771118164 1.502499938011169 C 8.149999618530273 1.502499938011169 7.809999942779541 1.572499871253967 7.569999694824219 1.712499856948853 L 2.839999675750732 4.442500114440918 C 1.499999761581421 5.352499961853027 1.499999761581421 5.352499961853027 1.499999761581421 6.772500038146973 L 1.499999761581421 11.73250007629395 C 1.499999761581421 13.15250015258789 1.499999761581421 13.15250015258789 2.889999866485596 14.09249973297119 L 7.579999923706055 16.79249954223633 C 8.059999465942383 17.0724983215332 8.929999351501465 17.0724983215332 9.409999847412109 16.79249954223633 L 14.13999938964844 14.0625 C 15.47999954223633 13.15250015258789 15.47999954223633 13.15250015258789 15.47999954223633 11.73250007629395 L 15.47999954223633 6.772500038146973 C 15.47999954223633 5.352499961853027 15.47999954223633 5.352499961853027 14.09000015258789 4.412499904632568 L 9.399999618530273 1.712499856948853 C 9.170000076293945 1.572499871253967 8.829999923706055 1.502499938011169 8.489999771118164 1.502499938011169 Z" stroke="none" fill="#076aff"/>
      </g>
      <g id="Vector-2" data-name="Vector" transform="translate(433.75 189.25)" fill="none">
        <path d="M11.75,7.13A.755.755,0,0,1,11,6.38V3.75c0-1.58-.67-2.25-2.25-2.25h-5c-1.58,0-2.25.67-2.25,2.25V6.31a.75.75,0,1,1-1.5,0V3.75A3.381,3.381,0,0,1,3.75,0h5A3.381,3.381,0,0,1,12.5,3.75V6.38A.755.755,0,0,1,11.75,7.13Z" stroke="none"/>
        <path d="M 11.75 7.130000114440918 C 11.34000015258789 7.130000114440918 11 6.789999961853027 11 6.380000114440918 L 11 3.75 C 11 2.170000076293945 10.32999992370605 1.5 8.75 1.5 L 3.75 1.5 C 2.170000076293945 1.5 1.5 2.170000076293945 1.5 3.75 L 1.5 6.309999942779541 C 1.5 6.720000267028809 1.159999966621399 7.059999942779541 0.75 7.059999942779541 C 0.3400000035762787 7.059999942779541 -8.881784197001252e-16 6.730000019073486 -8.881784197001252e-16 6.309999942779541 L -8.881784197001252e-16 3.75 C -8.881784197001252e-16 1.330000042915344 1.330000042915344 5.722045770539808e-08 3.75 5.722045770539808e-08 L 8.75 5.722045770539808e-08 C 11.17000007629395 5.722045770539808e-08 12.5 1.330000042915344 12.5 3.75 L 12.5 6.380000114440918 C 12.5 6.789999961853027 12.15999984741211 7.130000114440918 11.75 7.130000114440918 Z" stroke="none" fill="#076aff"/>
      </g>
      <g id="Vector-3" data-name="Vector" transform="translate(435.97 197.87)" fill="none">
        <path d="M5.66,7.76a1.712,1.712,0,0,1-.65-.13l-.98-.38-.98.39a1.518,1.518,0,0,1-1.47-.13A1.534,1.534,0,0,1,1,6.15L1.06,5.1.39,4.29A1.523,1.523,0,0,1,.07,2.84a1.509,1.509,0,0,1,1.11-.97L2.2,1.61,2.77.72A1.471,1.471,0,0,1,5.3.72l.57.89,1.02.26A1.509,1.509,0,0,1,8,2.84a1.536,1.536,0,0,1-.33,1.44L7,5.09l.06,1.05A1.545,1.545,0,0,1,6.48,7.5,1.4,1.4,0,0,1,5.66,7.76ZM1.55,3.33l.67.81a1.6,1.6,0,0,1,.34,1.05L2.5,6.24l.98-.39a1.6,1.6,0,0,1,1.1,0l.98.39L5.5,5.19a1.614,1.614,0,0,1,.34-1.05l.67-.81L5.49,3.07a1.649,1.649,0,0,1-.89-.64l-.56-.88-.57.88a1.617,1.617,0,0,1-.89.65Z" stroke="none"/>
        <path d="M 2.402434349060059 7.768560886383057 C 2.099932909011841 7.768573760986328 1.815423011779785 7.68101978302002 1.579534292221069 7.510000228881836 C 1.179534316062927 7.220000267028809 0.9695343375205994 6.720000267028809 0.9995343685150146 6.150000095367432 L 1.059534311294556 5.100000381469727 L 0.3895343542098999 4.290000438690186 C 0.02953433990478516 3.84000039100647 -0.09046565741300583 3.320000410079956 0.06953433901071548 2.84000039100647 C 0.2195343375205994 2.37000036239624 0.6295343637466431 2.010000228881836 1.179534316062927 1.87000036239624 L 2.19953441619873 1.610000252723694 L 2.769534349441528 0.7200003266334534 C 3.379534482955933 -0.2399997115135193 4.689534664154053 -0.2399997115135193 5.299534320831299 0.7200003266334534 L 5.869534492492676 1.610000252723694 L 6.889534473419189 1.87000036239624 C 7.439534187316895 2.010000228881836 7.849534511566162 2.37000036239624 7.999534130096436 2.84000039100647 C 8.149534225463867 3.310000419616699 8.029534339904785 3.84000039100647 7.669534206390381 4.28000020980835 L 6.999534130096436 5.090000152587891 L 7.059534549713135 6.140000343322754 C 7.089534282684326 6.710000514984131 6.879534244537354 7.200000286102295 6.479534149169922 7.500000476837158 C 6.239534378051758 7.670000076293945 5.959534168243408 7.760000228881836 5.659534454345703 7.760000228881836 C 5.44953441619873 7.760000228881836 5.229534149169922 7.720000267028809 5.009534358978271 7.630000114440918 L 4.029534339904785 7.250000476837158 L 3.049534320831299 7.640000343322754 C 2.832086801528931 7.726158618927002 2.612889289855957 7.768551826477051 2.402434349060059 7.768560886383057 Z M 5.559534549713135 6.240000247955322 L 5.499534130096436 5.190000534057617 C 5.479534149169922 4.840000152587891 5.60953426361084 4.420000076293945 5.839534282684326 4.140000343322754 L 6.509534358978271 3.330000400543213 L 5.489534378051758 3.070000410079956 C 5.149534225463867 2.980000257492065 4.789534568786621 2.720000267028809 4.599534511566162 2.430000305175781 L 4.039534568786621 1.550000309944153 L 3.469534397125244 2.430000305175781 C 3.279534339904785 2.730000257492065 2.91953444480896 2.990000247955322 2.579534292221069 3.080000400543213 L 1.549534320831299 3.330000400543213 L 2.219534397125244 4.140000343322754 C 2.44953441619873 4.410000324249268 2.579534292221069 4.840000152587891 2.559534311294556 5.190000534057617 L 2.499534368515015 6.240000247955322 L 3.479534387588501 5.850000381469727 C 3.809534311294556 5.720000267028809 4.249534606933594 5.720000267028809 4.579534530639648 5.850000381469727 L 5.559534549713135 6.240000247955322 Z" stroke="none" fill="#076aff"/>
      </g>
      <g id="Vector-4" data-name="Vector" transform="translate(428 188)" fill="none" opacity="0">
        <path d="M0,0H24V24H0Z" stroke="none"/>
        <path d="M 1 1 L 1 23 L 23 23 L 23 1 L 1 1 M 0 0 L 24 0 L 24 24 L 0 24 L 0 0 Z" stroke="none" fill="#076aff"/>
      </g>
    </g>
  </g>
</svg>
