<svg xmlns="http://www.w3.org/2000/svg" width="343.813" height="329.533" viewBox="0 0 343.813 329.533">
  <g id="Business_analytics-pana" data-name="Business analytics-pana" transform="translate(-28.53 -25.242)">
    <g id="freepik--background-complete--inject-2" transform="translate(36.888 25.242)">
      <path id="Path_2038" data-name="Path 2038" d="M110.347,129.245l-7.617-12.374a33.869,33.869,0,1,0-7.787,9.344h0Z" transform="translate(-39.37 -34.655)" fill="#f5f5f5"/>
      <path id="Path_2039" data-name="Path 2039" d="M95.613,118.583a3.506,3.506,0,0,1-.594,0l-1.7.039-6.245.062-20.578.093H64.82v-.193c0-7.71,0-14.595.054-19.614,0-2.467.046-4.464.062-5.9v-1.6a2.413,2.413,0,0,1,0-.555,4.516,4.516,0,0,1,0,.555v1.6c0,1.434,0,3.431.062,5.9,0,5.019,0,11.919.062,19.614l-.193-.193H66.5l20.593.054,6.245.062h1.7a2.7,2.7,0,0,1,.578.077Z" transform="translate(-45.199 -40.283)" fill="#263238"/>
      <path id="Path_2040" data-name="Path 2040" d="M66.443,118.9H64.763a.2.2,0,0,1-.131-.054.193.193,0,0,1-.062-.139L64.632,98.9l.1-7.494c0-.648,0-.771.231-.771s.208.1.231.771l.046,3.246.046,4.256.062,19.228h1.095l20.593.054,7.949.1c.686,0,.771,0,.771.231s-.093.208-.771.231l-1.7.039-6.245.062Zm-1.079-.385Zm-.385-.493v.108h0Z" transform="translate(-45.141 -40.219)" fill="#e0e0e0"/>
      <path id="Path_2041" data-name="Path 2041" d="M93.122,99.63a9.566,9.566,0,0,1-.91.871l-2.583,2.267c-2.2,1.9-5.243,4.51-8.62,7.371l-.509.432-.131.108-.131-.116L76.384,107h.278l-5.628,4.626-1.634,1.3a3.284,3.284,0,0,1-.609.439,3.979,3.979,0,0,1,.54-.524l1.542-1.388,5.536-4.749.123-.1.116.108,3.855,3.539h-.254l.509-.432c3.385-2.86,6.453-5.435,8.7-7.278l2.629-2.159a7.208,7.208,0,0,1,1.041-.756Z" transform="translate(-46.108 -42.278)" fill="#263238"/>
      <path id="Path_2042" data-name="Path 2042" d="M68.705,113.542c-.046,0-.085,0-.131-.085s-.062-.239.555-.771l1.542-1.388,5.659-4.85a.2.2,0,0,1,.262,0l3.739,3.431.247-.216c3.277-2.768,6.361-5.4,8.7-7.286l2.66-2.174c1.11-.887,1.133-.894,1.28-.771h0c.146.17.123.185-.933,1.133L89.7,102.88c-2.313,1.974-5.343,4.626-8.62,7.371l-.64.54a.193.193,0,0,1-.254,0l-3.724-3.454-7.008,5.744C69.006,113.4,68.821,113.542,68.705,113.542Zm11.9-3.431h0l.216-.185,1.665-1.419-1.665,1.411Zm-.709-.139.139.131h0Z" transform="translate(-46.054 -42.22)" fill="#e0e0e0"/>
      <path id="Path_2043" data-name="Path 2043" d="M98.209,105.934a9.252,9.252,0,0,1-.131-1.912c-.039-1.18-.062-2.822-.062-4.626l.193.193h-.332c-1.9,0-3.624,0-4.873-.054a10.686,10.686,0,0,1-2-.162,10.686,10.686,0,0,1,2.02-.139c1.249,0,2.968-.054,4.873-.054h.524v.193c0,1.827,0,3.469-.062,4.626A9.251,9.251,0,0,1,98.209,105.934Z" transform="translate(-51.194 -42.175)" fill="#263238"/>
      <path id="Path_2044" data-name="Path 2044" d="M98.147,106.069c-.216,0-.262,0-.324-2.1-.039-1.141-.054-2.644-.062-4.271-1.82,0-3.531,0-4.826-.054-2.205-.062-2.205-.108-2.205-.332s0-.27,2.205-.332c1.311,0,3.084-.054,4.88-.054h.524a.224.224,0,0,1,.139.054.185.185,0,0,1,.054.139v.193c0,1.773,0,3.423-.062,4.626C98.417,106.069,98.37,106.069,98.147,106.069Zm0-6.368ZM96.9,99.315Z" transform="translate(-51.132 -42.118)" fill="#e0e0e0"/>
      <path id="Path_2045" data-name="Path 2045" d="M240.982,67.976l42.235-6.453A42.736,42.736,0,1,1,245.67,25.5Z" transform="translate(-75.753 -25.242)" fill="#ebebeb"/>
      <path id="Path_2046" data-name="Path 2046" d="M269.927,25.76,264.8,58.5l32.142-6.037S292.216,34.117,269.927,25.76Z" transform="translate(-90.997 -25.361)" fill="#e0e0e0"/>
      <path id="Path_2047" data-name="Path 2047" d="M379.849,95.859a29.668,29.668,0,1,1,30.138,29.3,29.667,29.667,0,0,1-30.138-29.3Zm43.846-.709a14.186,14.186,0,1,0-13.955,14.479A14.186,14.186,0,0,0,423.7,95.149Z" transform="translate(-117.345 -34.536)" fill="#f5f5f5"/>
      <path id="Path_2048" data-name="Path 2048" d="M379.849,95.784A29.768,29.768,0,0,1,409.03,65.5l.231,15.551a14.265,14.265,0,1,0,.455,28.526l.247,15.551a29.76,29.76,0,0,1-30.115-29.344Z" transform="translate(-117.344 -34.462)" fill="#e0e0e0"/>
      <path id="Path_2049" data-name="Path 2049" d="M414.25,62.4a33.876,33.876,0,0,1,34.694,33.769l-18.11.293c-.146-9.2-7.139-14.98-16.291-14.834Z" transform="translate(-125.223 -33.751)" fill="#ebebeb"/>
    </g>
    <g id="freepik--Chart--inject-2" transform="translate(28.53 72.679)">
      <rect id="Rectangle_497" data-name="Rectangle 497" width="20.477" height="47.2" transform="translate(7.795 173.032)" fill="#ebebeb"/>
      <rect id="Rectangle_498" data-name="Rectangle 498" width="20.477" height="90.159" transform="translate(37.3 130.073)" fill="#f5f5f5"/>
      <rect id="Rectangle_499" data-name="Rectangle 499" width="20.477" height="87.576" transform="translate(141.106 132.656)" fill="#ebebeb"/>
      <rect id="Rectangle_500" data-name="Rectangle 500" width="20.477" height="118.601" transform="translate(171.783 100.698)" fill="#f5f5f5"/>
      <rect id="Rectangle_501" data-name="Rectangle 501" width="20.477" height="120.466" transform="translate(281.949 99.758)" fill="#f5f5f5"/>
      <rect id="Rectangle_502" data-name="Rectangle 502" width="20.477" height="102.009" transform="translate(320.491 118.215)" fill="#ebebeb"/>
      <path id="Path_2050" data-name="Path 2050" d="M372.343,239.621s-.185-.308-.524-.933-.817-1.542-1.5-2.776c-1.365-2.405-3.415-5.944-6.43-10.254-1.5-2.151-3.284-4.479-5.358-6.939a73.077,73.077,0,0,0-7.247-7.448,57.748,57.748,0,0,0-9.622-7.047c-.917-.524-1.85-1.049-2.83-1.542s-1.989-.925-3.007-1.365a40.977,40.977,0,0,0-6.546-2.043,37.777,37.777,0,0,0-7.132-.833,34.773,34.773,0,0,0-7.448.771,33.3,33.3,0,0,0-7.386,2.513c-2.39,1.141-4.726,2.56-7.193,3.855a80.953,80.953,0,0,1-15.813,6.615,60.7,60.7,0,0,1-18.049,2.043c-.771,0-1.542-.062-2.313-.093a22.082,22.082,0,0,1-2.359-.177c-.393-.054-.771-.077-1.18-.154l-1.172-.239c-.771-.139-1.542-.4-2.313-.617a61.757,61.757,0,0,1-8.943-3.693l-8.82-4.425a53.43,53.43,0,0,0-9.321-3.708c-6.523-1.634-13.423-2.768-20.354-2.035a31.441,31.441,0,0,0-10.077,2.806A33.554,33.554,0,0,0,190.8,208c-5.166,4.965-9.051,10.971-12.914,16.769s-7.571,11.642-11.565,17.116a103.569,103.569,0,0,1-13.053,15.073,64.413,64.413,0,0,1-7.563,6.037,58.162,58.162,0,0,1-8.257,4.626,46.184,46.184,0,0,1-8.72,3.015c-1.473.393-2.976.6-4.456.848a43.486,43.486,0,0,1-4.456.278,35.765,35.765,0,0,1-16.592-3.955c-4.988-2.429-9.483-5.343-14.086-7.6a42.481,42.481,0,0,0-53.2,11.835,43.29,43.29,0,0,0-6.014,10.447l-.648,1.712c-.177.493-.3.917-.409,1.249l-.339,1.025s.093-.355.3-1.033c.1-.339.216-.771.385-1.264s.393-1.072.632-1.719a42.405,42.405,0,0,1,45.3-26.853,42.967,42.967,0,0,1,14.094,4.325c4.626,2.259,9.121,5.173,14.094,7.579a35.465,35.465,0,0,0,16.437,3.9,42.6,42.6,0,0,0,4.418-.278c1.473-.247,2.953-.455,4.418-.84a46.048,46.048,0,0,0,8.65-3.007,58.086,58.086,0,0,0,8.2-4.626,64.647,64.647,0,0,0,7.517-6.006,103.855,103.855,0,0,0,13-15.027c3.978-5.466,7.71-11.264,11.565-17.1s7.741-11.819,12.953-16.815a33.831,33.831,0,0,1,8.751-6.168,31.664,31.664,0,0,1,10.2-2.776c7.016-.771,13.947.4,20.5,2.051a53.352,53.352,0,0,1,9.367,3.739l8.812,4.425a62.179,62.179,0,0,0,8.889,3.685c.771.208,1.542.47,2.313.6l1.156.239c.385.077.771.1,1.156.154.771.108,1.542.139,2.313.177s1.542.1,2.313.093a60.4,60.4,0,0,0,17.949-2,80.753,80.753,0,0,0,15.759-6.569c2.459-1.264,4.788-2.668,7.209-3.855a34.37,34.37,0,0,1,14.98-3.284,37.694,37.694,0,0,1,7.186.848,41.487,41.487,0,0,1,6.584,2.066c1.025.455,2.059.871,3.022,1.38s1.92,1,2.845,1.542a57.822,57.822,0,0,1,9.645,7.093,74.017,74.017,0,0,1,7.24,7.494,85.89,85.89,0,0,1,5.335,6.939,115.506,115.506,0,0,1,6.376,10.3c.663,1.218,1.133,2.166,1.465,2.791Z" transform="translate(-28.53 -112.293)" fill="#263238"/>
      <circle id="Ellipse_74" data-name="Ellipse 74" cx="5.266" cy="5.266" r="5.266" transform="translate(175.962 81.231)" fill="#0761e9"/>
      <path id="Path_2051" data-name="Path 2051" d="M260.748,205.936a9.568,9.568,0,1,1,9.568-9.56A9.568,9.568,0,0,1,260.748,205.936Zm0-18.357a8.8,8.8,0,1,0,8.8,8.8A8.8,8.8,0,0,0,260.748,187.579Z" transform="translate(-79.52 -109.678)" fill="#0761e9"/>
      <path id="Path_2052" data-name="Path 2052" d="M264.6,170.385l-.278-10.786,2.691.046-5.027-6.145-5.027,6.2,2.783.015.278,10.64Z" transform="translate(-80.844 -102.052)" fill="#ebebeb"/>
      <path id="Path_2053" data-name="Path 2053" d="M251.848,178.552v1.981h-1.773v-1.9a8.4,8.4,0,0,1-4.395-1.411l.971-2.159a7.093,7.093,0,0,0,3.423,1.257v-2.953c-1.958-.478-4.148-1.133-4.148-3.654,0-1.873,1.357-3.485,4.148-3.8V163.95h1.773v1.927a8.057,8.057,0,0,1,3.585,1.079l-.887,2.174a7.332,7.332,0,0,0-2.7-.917v3c1.958.463,4.117,1.118,4.117,3.608C255.95,176.625,254.616,178.221,251.848,178.552Zm-1.773-7.81v-2.506c-.933.208-1.3.725-1.3,1.3S249.3,170.5,250.075,170.742ZM253.159,175c0-.617-.517-.948-1.272-1.218v2.444c.84-.2,1.234-.671,1.234-1.226Z" transform="translate(-78.261 -104.445)" fill="#e0e0e0"/>
      <path id="Path_2054" data-name="Path 2054" d="M281.8,137.5c0,1.365-1,2.544-3.2,2.544a5.327,5.327,0,0,1-2.93-.817l.7-1.365a3.724,3.724,0,0,0,2.19.694c.887,0,1.434-.378,1.434-1s-.393-.995-1.789-.995h-1.966l.4-4.325h4.68v1.426h-3.207l-.123,1.457h.625C280.9,135.137,281.8,136.139,281.8,137.5Z" transform="translate(-85.129 -97.181)" fill="#0761e9"/>
      <path id="Path_2055" data-name="Path 2055" d="M284.56,136.031c0-2.537,1.4-3.971,3.292-3.971s3.292,1.434,3.292,3.971-1.4,3.971-3.292,3.971S284.56,138.567,284.56,136.031Zm4.8,0c0-1.742-.617-2.467-1.5-2.467s-1.488.725-1.488,2.467.609,2.467,1.488,2.467S289.356,137.773,289.356,136.031Z" transform="translate(-87.165 -97.142)" fill="#0761e9"/>
      <path id="Path_2056" data-name="Path 2056" d="M294.057,134.241a1.912,1.912,0,1,1,.481,1.489,1.912,1.912,0,0,1-.481-1.489Zm2.714,0c0-.825-.324-1.218-.771-1.218s-.771.409-.771,1.218.332,1.218.771,1.218S296.77,135.066,296.77,134.241Zm3.77-2.028h1.311l-5.25,7.71h-1.3Zm-1.257,5.651a1.912,1.912,0,1,1,.476,1.483A1.912,1.912,0,0,1,299.284,137.865Zm2.7,0c0-.81-.316-1.218-.771-1.218s-.771.393-.771,1.218.332,1.218.771,1.218S301.982,138.674,301.982,137.865Z" transform="translate(-89.337 -97.164)" fill="#0761e9"/>
      <circle id="Ellipse_75" data-name="Ellipse 75" cx="5.266" cy="5.266" r="5.266" transform="translate(13.33 146.202)" fill="#0761e9"/>
      <path id="Path_2057" data-name="Path 2057" d="M49.808,290.206a9.568,9.568,0,1,1,9.568-9.568A9.568,9.568,0,0,1,49.808,290.206Zm0-18.357a8.8,8.8,0,1,0,8.8,8.789A8.8,8.8,0,0,0,49.808,271.849Z" transform="translate(-31.212 -128.977)" fill="#0761e9"/>
      <path id="Path_2058" data-name="Path 2058" d="M48.535,243.5l.285,10.778-2.691-.046,5.027,6.145,5.027-6.2-2.791-.015-.278-10.64Z" transform="translate(-32.561 -122.664)" fill="#ebebeb"/>
      <path id="Path_2059" data-name="Path 2059" d="M39.37,264.587v1.981H37.6v-1.92a8.342,8.342,0,0,1-4.395-1.411l.971-2.159a7.092,7.092,0,0,0,3.423,1.257v-2.953c-1.958-.47-4.148-1.126-4.148-3.654,0-1.874,1.357-3.485,4.148-3.8V250H39.37v1.927A7.957,7.957,0,0,1,42.963,253l-.887,2.174a7.325,7.325,0,0,0-2.706-.917v3.007c1.966.455,4.117,1.11,4.117,3.6C43.487,262.667,42.146,264.255,39.37,264.587Zm-1.766-7.81v-2.506c-.933.208-1.3.725-1.3,1.311S36.826,256.53,37.6,256.777Zm3.038,4.264c0-.617-.509-.956-1.272-1.218v2.436C40.257,262.066,40.642,261.6,40.642,261.041Z" transform="translate(-29.602 -124.152)" fill="#e0e0e0"/>
      <path id="Path_2060" data-name="Path 2060" d="M441.318,190.421V192.4h-1.766v-1.927a8.365,8.365,0,0,1-4.4-1.419l.971-2.151a7.147,7.147,0,0,0,3.431,1.257V185.2c-1.958-.478-4.156-1.133-4.156-3.662,0-1.866,1.365-3.477,4.156-3.793V175.78h1.766v1.927a8.026,8.026,0,0,1,3.585,1.079l-.879,2.174a7.055,7.055,0,0,0-2.706-.917v3c1.958.463,4.117,1.118,4.117,3.608C445.435,188.494,444.093,190.082,441.318,190.421Zm-1.766-7.81v-2.506c-.941.208-1.311.717-1.311,1.3S438.774,182.364,439.552,182.611Zm3.038,4.256c0-.617-.509-.948-1.272-1.218v2.436C442.2,187.892,442.59,187.437,442.59,186.867Z" transform="translate(-121.652 -107.155)" fill="#e0e0e0"/>
      <path id="Path_2061" data-name="Path 2061" d="M454.626,194.278a4.487,4.487,0,0,0,2.683-4.156,4.225,4.225,0,1,0-8.435-.046,4.487,4.487,0,0,0,2.683,4.2c-6.492.979-6.168,8.034-6.168,8.034l15.358.077S461.063,195.25,454.626,194.278Z" transform="translate(-123.996 -109.408)" fill="#ebebeb"/>
      <path id="Path_2062" data-name="Path 2062" d="M291.4,106.765a.971.971,0,0,1-.941-.771L288.3,96.866H282.26l-2.089,8.7a.979.979,0,0,1-1.172.717.964.964,0,0,1-.717-1.172l2.089-8.573A1.627,1.627,0,0,1,281.913,95h6.708a1.642,1.642,0,0,1,1.542,1.542l2.151,9.051a.971.971,0,0,1-.717,1.172A1.179,1.179,0,0,1,291.4,106.765Z" transform="translate(-85.72 -88.655)" fill="#0761e9"/>
      <rect id="Rectangle_503" data-name="Rectangle 503" width="5.883" height="10.732" transform="translate(196.593 6.407)" fill="#0761e9"/>
      <path id="Path_2063" data-name="Path 2063" d="M284.7,121.049a1.172,1.172,0,0,1-1.164-1.172V107.194a1.164,1.164,0,1,1,2.313,0v12.66a1.164,1.164,0,0,1-1.149,1.2Z" transform="translate(-86.929 -91.15)" fill="#0761e9"/>
      <path id="Path_2064" data-name="Path 2064" d="M289.274,121.143a1.172,1.172,0,0,1-1.164-1.172V107.288a1.172,1.172,0,0,1,2.313,0v12.66a1.172,1.172,0,0,1-1.149,1.2Z" transform="translate(-87.978 -91.244)" fill="#0761e9"/>
      <path id="Path_2065" data-name="Path 2065" d="M289.31,89.615a2.845,2.845,0,1,1-2.845-2.845A2.845,2.845,0,0,1,289.31,89.615Z" transform="translate(-86.949 -86.77)" fill="#0761e9"/>
      <path id="Path_2066" data-name="Path 2066" d="M280.75,110.613l2.236-8.573h5.69l2.182,8.573Z" transform="translate(-86.292 -90.267)" fill="#0761e9"/>
      <path id="Path_2067" data-name="Path 2067" d="M219.2,151.8c0,1.149-.848,2.159-2.706,2.159a4.5,4.5,0,0,1-2.5-.717l.6-1.149a3.146,3.146,0,0,0,1.85.586c.771,0,1.21-.316,1.21-.848s-.332-.848-1.542-.848h-1.665l.339-3.662h3.963v1.21h-2.714l-.1,1.234h.532C218.441,149.779,219.2,150.643,219.2,151.8Z" transform="translate(-71.005 -100.637)" fill="#455a64"/>
      <path id="Path_2068" data-name="Path 2068" d="M221.55,150.561c0-2.143,1.187-3.361,2.783-3.361s2.791,1.218,2.791,3.361-1.18,3.369-2.791,3.369S221.55,152.713,221.55,150.561Zm4.055,0c0-1.473-.517-2.089-1.272-2.089s-1.264.617-1.264,2.089.524,2.089,1.264,2.089S225.605,152.042,225.605,150.561Z" transform="translate(-72.734 -100.609)" fill="#455a64"/>
      <path id="Path_2069" data-name="Path 2069" d="M229.587,149.059a1.611,1.611,0,1,1,.4,1.261A1.619,1.619,0,0,1,229.587,149.059Zm2.313,0c0-.694-.27-1.025-.678-1.025s-.678.339-.678,1.025.285,1.033.678,1.033.655-.332.655-1.033Zm3.2-1.719h1.11l-4.449,6.507h-1.087Zm-1.072,4.788a.7.7,0,1,1-.023,0Zm2.313,0c0-.686-.27-1.033-.678-1.033s-.678.339-.678,1.033.278,1.033.678,1.033.632-.347.632-1.033Z" transform="translate(-74.573 -100.641)" fill="#455a64"/>
      <path id="Path_2070" data-name="Path 2070" d="M226.133,125.682a.948.948,0,0,1-.948-.948v-8.7h-7.008v8.7a.948.948,0,1,1-1.9,0V115.8a1.642,1.642,0,0,1,1.627-1.658h7.548a1.65,1.65,0,0,1,1.627,1.658v8.936A.948.948,0,0,1,226.133,125.682Z" transform="translate(-71.528 -93.038)" fill="#455a64"/>
      <rect id="Rectangle_504" data-name="Rectangle 504" width="5.752" height="10.485" transform="translate(147.281 21.21)" fill="#455a64"/>
      <path id="Path_2071" data-name="Path 2071" d="M220.721,137.621a1.064,1.064,0,0,1-1.141-.971V125.987a1.149,1.149,0,0,1,2.274,0V136.65A1.064,1.064,0,0,1,220.721,137.621Z" transform="translate(-72.283 -95.525)" fill="#455a64"/>
      <path id="Path_2072" data-name="Path 2072" d="M225.183,137.621a1.064,1.064,0,0,1-1.133-.971V125.987a1.149,1.149,0,0,1,2.274,0V136.65A1.064,1.064,0,0,1,225.183,137.621Z" transform="translate(-73.307 -95.525)" fill="#455a64"/>
      <path id="Path_2073" data-name="Path 2073" d="M225.241,108.936a2.776,2.776,0,1,1-2.776-2.776,2.776,2.776,0,0,1,2.776,2.776Z" transform="translate(-72.309 -91.211)" fill="#455a64"/>
      <path id="Path_2074" data-name="Path 2074" d="M459.012,221.376a5.266,5.266,0,1,1-5.266-5.266A5.266,5.266,0,0,1,459.012,221.376Z" transform="translate(-124.705 -116.391)" fill="#0761e9"/>
      <path id="Path_2075" data-name="Path 2075" d="M452.468,229.916a9.568,9.568,0,1,1,9.568-9.56A9.568,9.568,0,0,1,452.468,229.916Zm0-18.357a8.8,8.8,0,1,0,8.8,8.8A8.8,8.8,0,0,0,452.468,211.559Z" transform="translate(-123.427 -115.17)" fill="#0761e9"/>
    </g>
    <g id="freepik--character-2--inject-2" transform="translate(207.691 110.961)">
      <path id="Path_2076" data-name="Path 2076" d="M299.176,403.164h0s-.486,26.853-.486,36.815h84.716V411.652l-2.683-7.448-.964-6.044Z" transform="translate(-269.562 -196.365)" fill="#263238"/>
      <path id="Path_2077" data-name="Path 2077" d="M328.11,446.761a63.591,63.591,0,0,1-.47-7.124,65.4,65.4,0,0,1-.069-7.147,64.034,64.034,0,0,1,.47,7.132A65.235,65.235,0,0,1,328.11,446.761Z" transform="translate(-276.161 -204.227)" fill="#455a64"/>
      <path id="Path_2078" data-name="Path 2078" d="M331.784,416.786a1.129,1.129,0,0,1,.493-.162,2.5,2.5,0,0,1,1.411.239,2.244,2.244,0,0,1,1.288,1.7,2.313,2.313,0,0,1-1.11,2.313,2.151,2.151,0,0,1-2.544-.5,1.657,1.657,0,0,1-.432-1.118,1.758,1.758,0,0,1,.3-.987,1.8,1.8,0,0,1,1.18-.825c.347-.046.532.039.524.054a2.587,2.587,0,0,0-.486.1,1.766,1.766,0,0,0-.979.817,1.419,1.419,0,0,0,.17,1.712,1.8,1.8,0,0,0,2.074.393,1.981,1.981,0,0,0-.116-3.446,3.33,3.33,0,0,0-1.773-.293Z" transform="translate(-276.936 -200.589)" fill="#455a64"/>
      <path id="Path_2079" data-name="Path 2079" d="M389.58,416.814a7.767,7.767,0,0,1-1.634-.948,45.2,45.2,0,0,1-3.67-2.691c-1.357-1.11-2.583-2.2-3.415-3.007a7.607,7.607,0,0,1-1.28-1.388,9.791,9.791,0,0,1,1.473,1.18c.879.771,2.1,1.8,3.469,2.9s2.66,2.074,3.585,2.776A10.206,10.206,0,0,1,389.58,416.814Z" transform="translate(-288.087 -198.797)" fill="#455a64"/>
      <path id="Path_2080" data-name="Path 2080" d="M392.014,429.323a1.541,1.541,0,0,1-.37.208l-1.11.532-.771.378c-.293.131-.632.247-.987.378-.709.254-1.542.594-2.436.833l-1.449.409c-.5.139-1.041.224-1.588.347-1.095.262-2.313.393-3.547.563a38.364,38.364,0,0,1-16.283-1.827,35.02,35.02,0,0,1-3.338-1.326c-.509-.231-1.018-.439-1.48-.678l-1.318-.717a23.7,23.7,0,0,1-2.2-1.349c-.316-.208-.617-.393-.887-.578s-.486-.378-.7-.547l-.964-.771c-.216-.177-.324-.27-.316-.285a2.313,2.313,0,0,1,.362.224l1.01.7.717.509c.27.177.578.355.9.555.648.385,1.357.871,2.213,1.28l1.318.694c.463.231.964.424,1.473.655,1.01.478,2.143.848,3.323,1.272a39.02,39.02,0,0,0,16.09,1.781c1.249-.154,2.436-.27,3.523-.517.547-.116,1.079-.193,1.581-.324l1.442-.385c.925-.216,1.719-.532,2.436-.771.355-.123.694-.231.995-.347l.817-.339,1.133-.463A1.727,1.727,0,0,1,392.014,429.323Z" transform="translate(-281.832 -202.486)" fill="#455a64"/>
      <path id="Path_2081" data-name="Path 2081" d="M317.442,162.65a5.4,5.4,0,0,1-1.742-10.586,5.605,5.605,0,0,1,5.358-9.2,6.715,6.715,0,0,1,10.393-4.981,7.54,7.54,0,0,1,9.29.285,5.4,5.4,0,0,1,4.271,9.337" transform="translate(-272.555 -136.423)" fill="#263238"/>
      <path id="Path_2082" data-name="Path 2082" d="M317.135,165.447a22.875,22.875,0,0,1,23.847-19.876l1.187.062c12.721,1.372,18.658,12.953,16.923,25.628l-3.955,42.4-.216,2.059-29.729,4.441.578-10.794S313.565,206.8,314,194.536C314.243,188.607,315.693,176.441,317.135,165.447Z" transform="translate(-273.065 -138.511)" fill="#937263"/>
      <path id="Path_2083" data-name="Path 2083" d="M329.07,227.081a29.753,29.753,0,0,0,16.3-3.9s-4.217,8.635-16.4,6.939Z" transform="translate(-276.496 -156.292)" fill="#5e483f"/>
      <path id="Path_2084" data-name="Path 2084" d="M320.709,183.412a1.758,1.758,0,0,0,1.6,1.85,1.681,1.681,0,0,0,1.889-1.488,1.766,1.766,0,0,0-1.6-1.858,1.688,1.688,0,0,0-1.881,1.5Z" transform="translate(-274.604 -146.839)" fill="#263238"/>
      <path id="Path_2085" data-name="Path 2085" d="M321.1,178.822c.208.239,1.542-.678,3.469-.578s3.215,1.1,3.431.887c.108-.1-.093-.524-.678-.987a4.772,4.772,0,0,0-2.729-.995,4.626,4.626,0,0,0-2.776.771C321.211,178.305,321.018,178.714,321.1,178.822Z" transform="translate(-274.689 -145.749)" fill="#263238"/>
      <path id="Path_2086" data-name="Path 2086" d="M343.789,185.614a1.742,1.742,0,0,0,1.6,1.85,1.688,1.688,0,0,0,1.889-1.488,1.75,1.75,0,0,0-1.6-1.85,1.673,1.673,0,0,0-1.881,1.488Z" transform="translate(-279.889 -147.344)" fill="#263238"/>
      <path id="Path_2087" data-name="Path 2087" d="M345.1,180.5c.208.239,1.588-.671,3.469-.571s3.215,1.1,3.431.887c.108-.1-.092-.524-.671-.987a4.8,4.8,0,0,0-2.737-.995,4.672,4.672,0,0,0-2.776.771C345.219,179.964,345.018,180.373,345.1,180.5Z" transform="translate(-280.186 -146.136)" fill="#263238"/>
      <path id="Path_2088" data-name="Path 2088" d="M333.934,194a12.452,12.452,0,0,0-3.03-.7c-.478-.077-.933-.193-.995-.524a2.412,2.412,0,0,1,.393-1.411c.509-1.141,1.041-2.313,1.6-3.593,2.236-5.119,3.855-9.337,3.67-9.429s-2.182,3.994-4.418,9.105l-1.542,3.624a2.753,2.753,0,0,0-.339,1.874,1.164,1.164,0,0,0,.771.771,2.852,2.852,0,0,0,.81.154A12.684,12.684,0,0,0,333.934,194Z" transform="translate(-276.557 -146.022)" fill="#263238"/>
      <path id="Path_2089" data-name="Path 2089" d="M340.583,200.7c-.3,0-.409,2.012-2.236,3.377s-3.986,1.033-4.017,1.318c0,.123.47.416,1.388.486a5.081,5.081,0,0,0,3.346-.979,4.448,4.448,0,0,0,1.742-2.837C340.93,201.209,340.721,200.692,340.583,200.7Z" transform="translate(-277.724 -151.143)" fill="#263238"/>
      <path id="Path_2090" data-name="Path 2090" d="M345,171c.162.517,2.051.37,4.248.771s3.955,1.064,4.271.617c.146-.208-.139-.709-.84-1.241a7.471,7.471,0,0,0-6.492-1.041C345.319,170.365,344.887,170.72,345,171Z" transform="translate(-280.163 -144.061)" fill="#263238"/>
      <path id="Path_2091" data-name="Path 2091" d="M322.339,171.756c.308.439,1.634.062,3.192.116s2.868.432,3.2,0c.139-.208-.046-.648-.6-1.079a4.626,4.626,0,0,0-5.15-.1C322.408,171.108,322.208,171.532,322.339,171.756Z" transform="translate(-274.969 -144.103)" fill="#263238"/>
      <path id="Path_2092" data-name="Path 2092" d="M320,159.422s3.616-7.525,7.409-9.128c4.587-1.951,6.276,3.084,10.609,2.089s8.712-2.853,12.914.663c4.626,3.855,2.236,6.276,2.259,11.734.1,22.12,3.816,28.526,5.482,18.226.185-1.133,3.385-1.881,4.094-6.669.917-6.206,1.542-13.77.362-18.265-.987-3.786-2.991-6.469-6.661-9.5-5.8-4.788-14.063-5.3-19.706-5S319.938,149.777,320,159.422Z" transform="translate(-274.442 -138.045)" fill="#263238"/>
      <path id="Path_2093" data-name="Path 2093" d="M368.887,193.341a3.331,3.331,0,0,1,3.755-3.03c2.274.332,4.757,1.758,4.371,6.476-.686,8.373-8.951,5.96-8.943,5.721S368.571,196.842,368.887,193.341Z" transform="translate(-285.451 -148.758)" fill="#937263"/>
      <path id="Path_2094" data-name="Path 2094" d="M370.757,200.316c.039,0,.139.116.378.247a1.473,1.473,0,0,0,1.087.116c.91-.254,1.773-1.6,1.935-3.084a4.757,4.757,0,0,0-.239-2.12,1.681,1.681,0,0,0-1-1.21.771.771,0,0,0-.894.331c-.131.224-.092.393-.139.4s-.17-.154-.069-.493a.9.9,0,0,1,.37-.493,1.1,1.1,0,0,1,.825-.146,2.051,2.051,0,0,1,1.419,1.419,4.888,4.888,0,0,1,.308,2.375c-.185,1.681-1.18,3.192-2.421,3.439a1.542,1.542,0,0,1-1.311-.332C370.757,200.524,370.726,200.331,370.757,200.316Z" transform="translate(-286.064 -149.572)" fill="#5e483f"/>
      <path id="Path_2095" data-name="Path 2095" d="M360.393,165.53a7.956,7.956,0,0,1-3.631,1.457,2.738,2.738,0,0,1-2.937-2.074c-.069-.586.108-1.257-.254-1.727s-1.288-.432-1.989-.393a5.4,5.4,0,0,1-5.4-4.117c-.671.9-2.113.771-3.03.139a11.958,11.958,0,0,1-2.159-2.56,3.456,3.456,0,0,0-2.806-1.581,8.094,8.094,0,0,1-1.843.316c-1.095-.154-1.542-1.473-1.681-2.575s-.177-2.382-1.079-3.022-1.974-.332-3-.231-2.313-.2-2.521-1.21a1.966,1.966,0,0,1,.447-1.5,5.443,5.443,0,0,1,6.515-1.742,7.363,7.363,0,0,1,13.585-.771,7.486,7.486,0,0,1,11.781,3.338,5.4,5.4,0,0,1,5.713,8.172,5.163,5.163,0,0,1,2.629,4.24c-.054,1.742-1.835,3.377-3.485,2.837a3.007,3.007,0,0,1-5.335,2.737" transform="translate(-276.286 -137.191)" fill="#263238"/>
      <path id="Path_2096" data-name="Path 2096" d="M336.128,149.34a.485.485,0,0,0,0,.154c0,.1,0,.254,0,.455a5.319,5.319,0,0,0,.532,1.642,5.982,5.982,0,0,0,1.758,2.074,5.613,5.613,0,0,0,3.385,1.149l-.131-.193a3.084,3.084,0,0,0,.054,2.313,8.619,8.619,0,0,0,1.334,2.128,6.213,6.213,0,0,0,.887,1.01,2.991,2.991,0,0,0,1.334.571,3.084,3.084,0,0,0,2.745-.833l-.308-.108a6.284,6.284,0,0,0,2.452,4.479,4.626,4.626,0,0,0,2.714,1.041,8.227,8.227,0,0,0,2.737-.463l-.216-.108a6.676,6.676,0,0,0,1.858,2.691,3.523,3.523,0,0,0,2.876.941,4.626,4.626,0,0,0,3.739-3.439l-.193.077a4.279,4.279,0,0,0,2.853.563,4.626,4.626,0,0,0,2.059-.771,3.9,3.9,0,0,0,.987-.979,1.782,1.782,0,0,0,.231-.424,4.919,4.919,0,0,1-1.3,1.288,4.626,4.626,0,0,1-2,.709,4.156,4.156,0,0,1-2.7-.578l-.147-.1-.046.177a4.356,4.356,0,0,1-3.531,3.184,3.207,3.207,0,0,1-2.614-.887,6.314,6.314,0,0,1-1.742-2.544l-.054-.162-.162.046a7.964,7.964,0,0,1-2.621.439,4.21,4.21,0,0,1-2.506-.964,5.96,5.96,0,0,1-2.313-4.225l-.039-.4-.278.293a2.8,2.8,0,0,1-3.577.254,6.251,6.251,0,0,1-.84-.948,8.481,8.481,0,0,1-1.3-2.043,2.706,2.706,0,0,1-.077-2.1l.077-.193h-.216a5.4,5.4,0,0,1-3.246-1.049,5.968,5.968,0,0,1-1.75-1.966A6.545,6.545,0,0,1,336.128,149.34Z" transform="translate(-278.134 -139.381)" fill="#455a64"/>
      <path id="Path_2097" data-name="Path 2097" d="M385.233,308.045l11.133,10.74-3.6-20.516,22.59-7.139s6,28.149,7.047,34.81c1.866,11.95-.432,28.935-11.565,30.13-12.043,1.288-21.14-10.593-26.931-18.388-4.449-5.991-11.626-16.468-11.626-16.468l12.953-13.153" transform="translate(-286.415 -171.853)" fill="#e0e0e0"/>
      <path id="Path_2098" data-name="Path 2098" d="M274.277,289.41c-3.624,11.411-8.689,13.107-10.694,45.835-.393,6.376,4.395,14.548,10.092,17.432s15.636-.655,18.858-6.168l3.2-24.186Z" transform="translate(-261.517 -171.459)" fill="#e0e0e0"/>
      <path id="Path_2099" data-name="Path 2099" d="M295.3,348.641a28.34,28.34,0,0,0-5.3-9.121,5.049,5.049,0,0,1,1.164,1.056,17.625,17.625,0,0,1,3.793,6.53,4.959,4.959,0,0,1,.347,1.534Z" transform="translate(-267.572 -182.935)" fill="#263238"/>
      <path id="Path_2100" data-name="Path 2100" d="M270.38,291.771c.193-.671,11.341-31.017,14.9-37.663,4.256-7.949,13.2-11.457,18.75-11.8S369,246.692,369,246.692s16.646,4.179,20.007,19.275c4.225,18.881,7.625,37.508,7.625,37.508l-29.783,6.438-3.477-8.859-55.966,12.49-13.662-20.215Z" transform="translate(-263.078 -160.667)" fill="#e0e0e0"/>
      <path id="Path_2101" data-name="Path 2101" d="M379.746,358.236l-1.419-50.584,1.1-63.414-23.238-10.216L353.587,224l-27.092,12.806-5.674-6.268-2.375,7.062-5.937,1.943-11.68,23.006-.509,40.4s-2.83,47.616-1.156,60.3c0,0,4.379,7.263,17.841,7.586,27.293.655,62.743-12.629,62.743-12.629" transform="translate(-269.549 -156.479)" fill="#e0e0e0"/>
      <path id="Path_2102" data-name="Path 2102" d="M366.078,307.718a19.968,19.968,0,0,1-3.562-.154l-8.535-.717-8.543-.632a17.63,17.63,0,0,1-3.539-.409,16.089,16.089,0,0,1,3.562-.139c2.2,0,5.235.147,8.581.416s6.361.617,8.535.933A15,15,0,0,1,366.078,307.718Z" transform="translate(-279.458 -175.173)" fill="#fff"/>
      <path id="Path_2103" data-name="Path 2103" d="M365.588,313.108a19.961,19.961,0,0,1-3.562-.154l-8.535-.709-8.543-.64a16.948,16.948,0,0,1-3.539-.409,16.09,16.09,0,0,1,3.562-.139c2.2,0,5.235.154,8.581.416s6.361.617,8.535.933a16.067,16.067,0,0,1,3.5.7Z" transform="translate(-279.345 -176.407)" fill="#fff"/>
      <path id="Path_2104" data-name="Path 2104" d="M365.1,318.509a19.968,19.968,0,0,1-3.562-.154L353,317.646l-8.543-.64a17.349,17.349,0,0,1-3.539-.4,15.148,15.148,0,0,1,3.562-.146c2.2.023,5.235.154,8.581.416s6.361.617,8.535.941A15.689,15.689,0,0,1,365.1,318.509Z" transform="translate(-279.233 -177.653)" fill="#fff"/>
      <path id="Path_2105" data-name="Path 2105" d="M364.6,323.9a19.963,19.963,0,0,1-3.562-.154l-8.535-.709-8.558-.64a17.342,17.342,0,0,1-3.539-.4,14.946,14.946,0,0,1,3.562-.139c2.2.031,5.235.147,8.581.409s6.361.617,8.535.941a15.689,15.689,0,0,1,3.516.694Z" transform="translate(-279.116 -178.888)" fill="#fff"/>
      <path id="Path_2106" data-name="Path 2106" d="M321.91,378.492a1.186,1.186,0,0,1-.046-.324c0-.262-.046-.578-.077-.964-.046-.917-.116-2.151-.208-3.716-.146-3.292-.347-7.941-.6-13.654-.432-11.565-.979-27.486-.771-45.118.108-8.82.4-17.232,1.249-24.849s2.182-14.363,3.361-20.046,2.313-10.185,3.084-13.323c.378-1.542.686-2.714.9-3.6.108-.378.185-.678.254-.933a1.055,1.055,0,0,1,.116-.316,2.018,2.018,0,0,1,0,.332c-.054.262-.116.571-.185.948-.193.894-.455,2.1-.771,3.639-.678,3.153-1.7,7.71-2.829,13.361s-2.367,12.421-3.2,19.992S321.108,305.9,321,314.693c-.185,17.609.285,33.553.586,45.095.154,5.721.285,10.37.37,13.662.039,1.542.062,2.806.077,3.724v.964a.933.933,0,0,1-.123.355Z" transform="translate(-274.479 -162.812)" fill="#263238"/>
      <path id="Path_2107" data-name="Path 2107" d="M343.941,287.5a11.454,11.454,0,0,1,1.542.046l4.58.277,16.707,1.141h.316v.316c-.578,7.656-1.264,16.815-2.012,26.715v.177l-.139.1c-.771.571-1.627,1.141-2.5,1.7a49.707,49.707,0,0,1-4.7,2.722,13.793,13.793,0,0,1-5.1,1.642,10.185,10.185,0,0,1-5.05-1.172,22.193,22.193,0,0,1-4.086-2.729c-.609-.509-1.2-1.025-1.766-1.542a3.247,3.247,0,0,1-.771-.956,4.964,4.964,0,0,1-.447-1.126,17.455,17.455,0,0,1-.409-4.4,64.291,64.291,0,0,1,.7-7.8c.694-4.734,1.542-8.481,2.1-11.11.293-1.3.547-2.313.725-2.984a5.624,5.624,0,0,1,.324-1.025,6.527,6.527,0,0,1-.17,1.056c-.146.771-.347,1.766-.586,3.015-.5,2.614-1.234,6.407-1.85,11.125a64.535,64.535,0,0,0-.609,7.71,16.713,16.713,0,0,0,.424,4.217,3.231,3.231,0,0,0,1.056,1.75c.555.517,1.141,1.018,1.75,1.542a21.344,21.344,0,0,0,3.955,2.621,9.4,9.4,0,0,0,4.68,1.079,13.193,13.193,0,0,0,4.8-1.542,47.484,47.484,0,0,0,4.626-2.683c.856-.555,1.7-1.126,2.467-1.681l-.162.285c.771-9.892,1.542-19.051,2.151-26.7l.293.339-16.5-1.449-4.626-.439-1.234-.139a1.96,1.96,0,0,1-.494-.1Z" transform="translate(-279.047 -171.019)" fill="#263238"/>
      <path id="Path_2108" data-name="Path 2108" d="M361.867,224s-3.03.879-10.794,5.027c-7.617,4.063-16.283,7.779-16.283,7.779l.663,12.236,28.8-14.471" transform="translate(-277.829 -156.479)" fill="#e0e0e0"/>
      <path id="Path_2109" data-name="Path 2109" d="M326.693,232.48l5.674,6.268-3.03,13.114-5.058-11.85" transform="translate(-275.422 -158.421)" fill="#e0e0e0"/>
      <path id="Path_2110" data-name="Path 2110" d="M367.295,298.208c0,.216-5.435-.039-12.1-.555s-12.066-1.118-12.05-1.326,5.435,0,12.1.555S367.31,298,367.295,298.208Z" transform="translate(-279.742 -173.025)" fill="#263238"/>
      <g id="Group_49" data-name="Group 49" transform="translate(62.242 144.858)" opacity="0.3">
        <path id="Path_2111" data-name="Path 2111" d="M341.64,324.31c1.3,2.151,2.521,5.1,4.3,6.87a10.562,10.562,0,0,0,6.6,3.292,10.793,10.793,0,0,0,6.26-1.866c3.03-1.9,4.9-4.88,6.245-8.188.193-.247-4.333,2.776-6.792,4.086a11.057,11.057,0,0,1-6.939,1.488c-3.639-.293-6.9-3.292-9.66-5.682" transform="translate(-341.64 -324.31)"/>
      </g>
      <g id="Group_50" data-name="Group 50" transform="translate(55.018 79.355)" opacity="0.3">
        <path id="Path_2112" data-name="Path 2112" d="M334.1,241.678c-.254.185-1.827,15.134-1.827,15.134l28.9-17.463-26.306,13.207Z" transform="translate(-332.27 -239.35)"/>
      </g>
      <path id="Path_2113" data-name="Path 2113" d="M324.781,261.28a425.591,425.591,0,0,0-9.668,63.09c-1.11,14.741-1.943,34.278-1.943,34.278l6.577,8.142,10.077-8.92s-.432-41.494.093-55.388c.432-11.434-1.372-40.6-1.372-40.6Z" transform="translate(-272.878 -165.017)" fill="#0761e9"/>
      <path id="Path_2114" data-name="Path 2114" d="M394.49,285.21a7.552,7.552,0,0,1,.27,1.18c.146.84.347,1.935.586,3.246.486,2.814,1.126,6.569,1.843,10.717s1.349,7.987,1.758,10.74c.208,1.372.362,2.49.463,3.261a7.613,7.613,0,0,1,.116,1.21,6.58,6.58,0,0,1-.27-1.187c-.154-.833-.347-1.927-.586-3.238-.493-2.814-1.149-6.569-1.881-10.717s-1.311-7.987-1.719-10.74c-.193-1.326-.347-2.421-.463-3.261A6.643,6.643,0,0,1,394.49,285.21Z" transform="translate(-291.502 -170.497)" fill="#263238"/>
      <path id="Path_2115" data-name="Path 2115" d="M403.058,252.55c.046.054-.771.7-1.951,1.9a23.784,23.784,0,0,0-6.168,11.4c-.355,1.642-.439,2.683-.509,2.683a2.445,2.445,0,0,1,0-.771,15.051,15.051,0,0,1,.239-2,21.462,21.462,0,0,1,2.2-6.26,21.107,21.107,0,0,1,4.009-5.281,14.643,14.643,0,0,1,1.542-1.3A2.568,2.568,0,0,1,403.058,252.55Z" transform="translate(-291.481 -163.018)" fill="#263238"/>
      <path id="Path_2116" data-name="Path 2116" d="M333.266,247.9l-2.583-1.01-2.444,4.2-.439,6.893,3.446.555,2.591-4.256Z" transform="translate(-276.228 -161.722)" fill="#0761e9"/>
      <path id="Path_2117" data-name="Path 2117" d="M298.63,274.8c.108,0,.2,16.962.2,37.932s-.093,37.94-.2,37.94-.2-16.962-.2-37.94S298.515,274.8,298.63,274.8Z" transform="translate(-269.502 -168.113)" fill="#263238"/>
      <path id="Path_2118" data-name="Path 2118" d="M332.613,240.47c.046.039-.563.964-1.473,2.5a68.886,68.886,0,0,0-3.284,6.168l-.27.586-.185.393-.185-.385a47.462,47.462,0,0,1-2.405-6.114c-.254-.771-.432-1.442-.54-1.889a2.128,2.128,0,0,1-.131-.709c.054,0,.362.956.925,2.513s1.4,3.7,2.513,6.021h-.362l.278-.594a51.825,51.825,0,0,1,3.4-6.168c.493-.771.91-1.341,1.21-1.742A2.83,2.83,0,0,1,332.613,240.47Z" transform="translate(-275.39 -160.251)" fill="#263238"/>
      <path id="Path_2119" data-name="Path 2119" d="M364.483,237a2.191,2.191,0,0,1-.4.239l-1.164.609-4.31,2.236c-3.631,1.889-8.612,4.58-14.124,7.525-3.362,1.789-6.538,3.446-9.306,4.834l-.254.131v-.285c0-3.593-.062-6.615-.085-8.8v-2.475a5.036,5.036,0,0,1,.039-.887,5.339,5.339,0,0,1,.069.879c0,.624.054,1.457.092,2.483.062,2.19.139,5.212.231,8.8l-.254-.154c2.752-1.411,5.921-3.084,9.252-4.873,5.513-2.945,10.516-5.6,14.186-7.425,1.835-.917,3.331-1.634,4.371-2.12l1.2-.54A2.366,2.366,0,0,1,364.483,237Z" transform="translate(-277.839 -159.457)" fill="#263238"/>
      <path id="Path_2120" data-name="Path 2120" d="M302.211,249.21c.054,0-.393.771-.979,2.112a23.963,23.963,0,0,0-1.658,5.32,24.6,24.6,0,0,0-.347,5.559c.085,1.426.231,2.313.17,2.313a1.935,1.935,0,0,1-.185-.609,14.639,14.639,0,0,1-.262-1.7,19.954,19.954,0,0,1,.231-5.651,20.215,20.215,0,0,1,1.8-5.4,12.6,12.6,0,0,1,.848-1.488C302.049,249.372,302.188,249.194,302.211,249.21Z" transform="translate(-269.598 -162.253)" fill="#263238"/>
      <path id="Path_2121" data-name="Path 2121" d="M330.642,262.057c-.062.1-.717-.208-1.465-.686s-1.311-.933-1.249-1.025.717.216,1.465.686S330.7,261.964,330.642,262.057Z" transform="translate(-276.257 -164.799)" fill="#263238"/>
      <path id="Path_2122" data-name="Path 2122" d="M332.128,258.269a18.751,18.751,0,0,1-1.758-3.493,19.046,19.046,0,0,1-1.38-3.647,19.026,19.026,0,0,1,1.75,3.493,19.411,19.411,0,0,1,1.388,3.647Z" transform="translate(-276.501 -162.693)" fill="#263238"/>
      <path id="Path_2123" data-name="Path 2123" d="M414.239,341.918a.615.615,0,0,1-.108-.177c-.069-.131-.154-.308-.27-.524s-.262-.524-.432-.856a12.31,12.31,0,0,0-.732-1.1,39.838,39.838,0,0,0-5.782-6.284c-2.7-2.475-6.114-5.266-9.961-8.481-1.912-1.611-3.947-3.292-5.983-5.173a56.657,56.657,0,0,1-6.014-6.245h.293l-11.6,12.189c-.532.555-1.064,1.1-1.542,1.619v-.254c4.387,6.415,8.381,12.621,12.575,17.825a83.79,83.79,0,0,0,6.314,7.055,51.653,51.653,0,0,0,6.168,5.466c4.009,3.03,8.034,4.325,10.832,4.256h.995l.856-.092.771-.077.6-.139.817-.177.278-.046a1.419,1.419,0,0,1-.27.085l-.81.216-.6.154-.771.1-.863.108h-1c-2.83.123-6.939-1.164-11-4.186a51.941,51.941,0,0,1-6.168-5.459,84.149,84.149,0,0,1-6.361-7.054c-4.225-5.212-8.234-11.426-12.621-17.833l-.092-.131.116-.116,1.542-1.619,11.565-12.112.154-.162.139.177a57.258,57.258,0,0,0,5.952,6.23c2.028,1.874,4.055,3.57,5.96,5.181,3.855,3.2,7.232,6.021,9.907,8.527a37.84,37.84,0,0,1,5.728,6.391c.27.416.5.771.709,1.118l.409.887.239.54Q414.209,341.828,414.239,341.918Z" transform="translate(-286.294 -176.791)" fill="#263238"/>
      <g id="Group_51" data-name="Group 51" transform="translate(8.712 139.847)" opacity="0.3">
        <path id="Path_2124" data-name="Path 2124" d="M335.446,334.579a2.637,2.637,0,0,0-.894-1.689c-.956-.624-2.159.2-3.138.771-2.583,1.542-5.775,1.488-8.782,1.357a220.649,220.649,0,0,1-27.046-2.567c-4.372-.732-8.789-1.688-12.7-3.786s-7.324-5.466-8.581-9.722l-2.1-1.133c1.627,3.462,1.457,13.253,2.035,17.023s2.259,6.469,5.89,7.64a12.767,12.767,0,0,0,4.564.324c14.9-.771,29.937-.069,44.841-.771,2.136-.108,4.626-.4,5.744-2.2C336.248,338.3,335.863,336.321,335.446,334.579Z" transform="translate(-272.21 -317.81)"/>
      </g>
      <path id="Path_2125" data-name="Path 2125" d="M363.346,288.292s-7.062-8.08-8.327-7.186-3.084,1.38-1.334,4.626,4.7,5.112,5.258,7.895-.069,9.491,3.038,11.765,7.432,8.18,7.432,8.18l10.794-11.256-4.271-3.215s2.583-6.445,2.56-9.815-2.313-7.579-2.313-7.579a7.9,7.9,0,0,0-2.313-4.395,34.869,34.869,0,0,0-.856-4.294c-.578-2.136-8.319-9.6-8.319-9.6a3.307,3.307,0,0,0-.871,4.51,42.5,42.5,0,0,0,3.539,4.919l-7.07-.848a3.708,3.708,0,0,0,2.984,4.549c3.893.995,4.811,2.421,4.811,2.421l-4.819,1.6s.224,2.845,2.313,2.914l2.1.062Z" transform="translate(-281.991 -165.507)" fill="#937263"/>
      <path id="Path_2126" data-name="Path 2126" d="M368.349,289.364l4.672-.154h.1l.046.054a8.188,8.188,0,0,1,1.85,3.724,7.447,7.447,0,0,1-.956,4.888,17.5,17.5,0,0,1-3.693,3.909,11.566,11.566,0,0,0-2.768,3.261,5.4,5.4,0,0,0-.617,2.776c.046.686.216,1.041.177,1.056s-.054-.085-.131-.254a3.153,3.153,0,0,1-.2-.771,5.235,5.235,0,0,1,.517-2.914,11.333,11.333,0,0,1,2.776-3.408,18.118,18.118,0,0,0,3.593-3.855,7.193,7.193,0,0,0,.933-4.626,8.018,8.018,0,0,0-1.712-3.593l.123.054A26.255,26.255,0,0,1,368.349,289.364Z" transform="translate(-285.16 -171.413)" fill="#5e483f"/>
      <path id="Path_2127" data-name="Path 2127" d="M379.517,286.115c-.062,0-.262-.378-.717-.925a4.626,4.626,0,0,0-2.313-1.434,9.251,9.251,0,0,0-2.76-.262,4.448,4.448,0,0,1-1.187,0,3.083,3.083,0,0,1,1.164-.285,7.377,7.377,0,0,1,2.891.162,4.92,4.92,0,0,1,1.473.7,3.941,3.941,0,0,1,.925.948,2.244,2.244,0,0,1,.524,1.095Z" transform="translate(-286.475 -170.022)" fill="#5e483f"/>
      <path id="Path_2128" data-name="Path 2128" d="M377.411,279.143c-.085.085-1.133-.971-2.691-1.881s-2.991-1.326-2.961-1.442A8.48,8.48,0,0,1,377.411,279.143Z" transform="translate(-286.296 -168.347)" fill="#5e483f"/>
      <path id="Path_2129" data-name="Path 2129" d="M267.092,292.532l9.29,35.1a4.364,4.364,0,0,0,4.3,3.246l48.1-.948a4.364,4.364,0,0,0,4.186-5.258l-7.085-33.615a4.364,4.364,0,0,0-4.271-3.462H270.9a3.94,3.94,0,0,0-3.809,4.942Z" transform="translate(-262.296 -171.042)" fill="#263238"/>
      <path id="Path_2130" data-name="Path 2130" d="M261.665,302.4a3.516,3.516,0,0,1,0-4.356,5.4,5.4,0,0,1,4.125-1.951,11.881,11.881,0,0,1,4.626.956,30.067,30.067,0,0,1,5.2,2.6c1.164.732,2.367,1.681,2.591,3.03s-1.241,2.9-2.436,2.22a5.744,5.744,0,0,1,3.361,4c.254,1.719-.663,2.637-2.313,3.13a2.583,2.583,0,0,1,1.426,3.269,2.96,2.96,0,0,1-3.708,1.133,8.634,8.634,0,0,1-3.238-2.714,7.91,7.91,0,0,1,.925,5.435,10.624,10.624,0,0,1-6.939-8.543,4.919,4.919,0,0,1-1.341-6.044,5.089,5.089,0,0,1-3.03-4.256" transform="translate(-260.91 -172.989)" fill="#937263"/>
      <path id="Path_2131" data-name="Path 2131" d="M278.054,315.633a12.923,12.923,0,0,1-1.588-1.211,10.617,10.617,0,0,0-4.171-2.136,5.89,5.89,0,0,0-2.544,0,4.7,4.7,0,0,0-1.85.933,5.905,5.905,0,0,0-1.21,1.542,1.265,1.265,0,0,1,.147-.532,3.593,3.593,0,0,1,.879-1.2,4.688,4.688,0,0,1,1.943-1.072,5.768,5.768,0,0,1,2.722-.039,9.737,9.737,0,0,1,4.264,2.313A7.712,7.712,0,0,1,278.054,315.633Z" transform="translate(-262.233 -176.581)" fill="#5e483f"/>
      <path id="Path_2132" data-name="Path 2132" d="M277.172,306.881a8.917,8.917,0,0,1-1.92-.771,19.965,19.965,0,0,0-2.051-.894,16.809,16.809,0,0,0-2.637-.686,7.4,7.4,0,0,0-2.668,0,4.834,4.834,0,0,0-1.982.856,5.02,5.02,0,0,0-1.3,1.542,1.442,1.442,0,0,1,.154-.547,3.439,3.439,0,0,1,.964-1.226,4.819,4.819,0,0,1,2.082-.995,7.339,7.339,0,0,1,2.814,0,15.254,15.254,0,0,1,2.7.732,16.448,16.448,0,0,1,2.043.987,13.622,13.622,0,0,1,1.8,1Z" transform="translate(-261.759 -174.806)" fill="#5e483f"/>
      <g id="Group_52" data-name="Group 52" transform="translate(87.26 153.2)" opacity="0.3">
        <path id="Path_2133" data-name="Path 2133" d="M396.248,362.539c-.386-1.388.116-1.4-.987-2.313A87.042,87.042,0,0,1,384.12,348.5c-3.423-4.287-8.766-12.983-8.766-12.983l-1.264-.386c1.095,6.268,4.248,11.95,7.355,17.509a48.388,48.388,0,0,0,5.682,8.674,16.134,16.134,0,0,0,8.7,5.4,5.435,5.435,0,0,0,.424-4.171Z" transform="translate(-374.09 -335.13)"/>
      </g>
    </g>
    <g id="freepik--character-1--inject-2" transform="translate(62.423 114.878)">
      <path id="Path_2134" data-name="Path 2134" d="M93.566,264.81a4.409,4.409,0,0,1,.054.771q0,.848.046,2.22v1.6c0,.578.093,1.218.139,1.9.116,1.357.177,2.914.439,4.626.116.856.231,1.75.355,2.683s.324,1.889.493,2.883c.324,2,.817,4.109,1.3,6.337,1.033,4.433,2.313,9.252,3.708,14.363s2.629,9.946,3.593,14.41c.439,2.251.9,4.371,1.172,6.391.146,1,.316,1.974.424,2.907s.185,1.843.27,2.706c.208,1.712.208,3.284.262,4.626,0,.686.054,1.326.046,1.912s-.046,1.118-.069,1.611q-.069,1.38-.116,2.22a5.5,5.5,0,0,1-.077.771,3.857,3.857,0,0,1,0-.771v-3.824c0-.586-.062-1.218-.093-1.9-.085-1.365-.108-2.922-.347-4.626q-.139-1.288-.3-2.683c-.116-.933-.3-1.889-.455-2.891-.285-2-.771-4.117-1.21-6.353-.995-4.441-2.251-9.3-3.631-14.379s-2.614-9.923-3.654-14.379c-.463-2.236-.948-4.356-1.249-6.368-.162-1-.347-1.966-.47-2.9s-.216-1.835-.316-2.7c-.247-1.712-.278-3.277-.362-4.626,0-.686-.085-1.326-.093-1.912v-1.611c0-.925.039-1.658.054-2.22a3.855,3.855,0,0,1,.093-.8Z" transform="translate(-77.284 -169.742)" fill="#263238"/>
      <path id="Path_2135" data-name="Path 2135" d="M231.12,301.2l10.909-38.8,13.423,2.444s-3.215,3.662-3.215,7.031S250,307,250,307s-13.346,3.917-18.743-5.119" transform="translate(-108.819 -169.19)" fill="#ffbe9d"/>
      <path id="Path_2136" data-name="Path 2136" d="M245.042,255.677s-1.5-4.048-.316-7.548,5.212-6.214,4.957-8.319,1.889-7.139,3.855-6.746,3.346,2.313,1.719,5.536a41.563,41.563,0,0,0-2.575,6.584s20.046-10.447,21.688-10.67,3.277-.455,3.7.856-3.577,2.976-3.577,2.976l-5.4,7.008a30.77,30.77,0,0,1-3.739,7.54c-2.313,3.13-6.87,5.227-6.87,5.227l-5.844,7.031S243.754,262.13,245.042,255.677Z" transform="translate(-111.831 -162.467)" fill="#ffbe9d"/>
      <path id="Path_2137" data-name="Path 2137" d="M280.117,240.03a5.029,5.029,0,0,0-.493-.27,2.4,2.4,0,0,0-1.426-.17,7.964,7.964,0,0,0-4.032,2.737,20.863,20.863,0,0,0-2.706,4.271,8.79,8.79,0,0,1-1.049,1.858,7.832,7.832,0,0,1,.694-2.028,16.784,16.784,0,0,1,2.644-4.464,7.582,7.582,0,0,1,4.4-2.76,2.351,2.351,0,0,1,1.581.37A1.05,1.05,0,0,1,280.117,240.03Z" transform="translate(-117.817 -163.874)" fill="#eb996e"/>
      <path id="Path_2138" data-name="Path 2138" d="M271.654,243.685a22.349,22.349,0,0,1-6.045,3.462,11.082,11.082,0,0,1,2.883-1.974A10.97,10.97,0,0,1,271.654,243.685Z" transform="translate(-116.717 -164.9)" fill="#eb996e"/>
      <path id="Path_2139" data-name="Path 2139" d="M259.669,249.433a4.126,4.126,0,0,1,3.369,0,4.49,4.49,0,0,1,2.668,2.059,14.632,14.632,0,0,0-2.845-1.542A24.3,24.3,0,0,0,259.669,249.433Z" transform="translate(-115.357 -166.146)" fill="#eb996e"/>
      <path id="Path_2140" data-name="Path 2140" d="M204.637,300.477c-.1.578,15.188,21.21,20.146,25.08,12.166,9.491,21.11-3.346,20.215-14.209s-32.5-61.918-32.5-61.918L202.27,273.539Z" transform="translate(-102.212 -166.22)" fill="#0761e9"/>
      <path id="Path_2141" data-name="Path 2141" d="M101.56,239.083l27.8-6.53,2.621-4.433,27.887.447,6.476,6.931,18.581,9.128-15.6,65.48L117,312.8Z" transform="translate(-79.148 -161.34)" fill="#263238"/>
      <path id="Path_2142" data-name="Path 2142" d="M128.287,227l-10.4,6.453L96.044,238.21l6.939,87.754S82.49,365.847,79.36,400.472h55.156s5.22-44.046,4.672-61.679-.208-48.572-.208-48.572l-14.232-53.2Z" transform="translate(-74.064 -161.083)" fill="#0761e9"/>
      <path id="Path_2143" data-name="Path 2143" d="M173.112,233.651l-1.943-5.991,7.263,7.309s4.3,1.5,5.227,1.835c7.224,2.7,17.077,7.64,17.077,7.64l-12.336,78s16.545,44.039,15.2,78.178c0,0-37.778.625-52.7,0l4.032-111.986s13.107-15.474,15.289-31.048S173.112,233.651,173.112,233.651Z" transform="translate(-90.448 -161.234)" fill="#0761e9"/>
      <path id="Path_2144" data-name="Path 2144" d="M146.23,302.743a3.852,3.852,0,0,1-.486-.478l-1.318-1.426-4.865-5.4-16.43-18.5-.108-.116.046-.146c.833-3.015,1.712-6.168,2.614-9.414q.578-2.1,1.156-4.163l.262.362-10.9-.416h-.37l.131-.347c2.953-7.964,5.489-14.78,7.3-19.668.9-2.375,1.627-4.271,2.151-5.636.239-.617.439-1.11.586-1.5a2.5,2.5,0,0,1,.239-.509,3.183,3.183,0,0,1-.154.54l-.509,1.542-2,5.69c-1.773,4.911-4.24,11.758-7.116,19.745l-.239-.362,10.9.385h.362l-.1.347c-.378,1.365-.771,2.76-1.156,4.163-.9,3.238-1.781,6.4-2.621,9.406l-.062-.254,16.314,18.635c1.981,2.313,3.585,4.171,4.734,5.5l1.249,1.5A3.085,3.085,0,0,1,146.23,302.743Z" transform="translate(-82.416 -163.005)" fill="#263238"/>
      <path id="Path_2145" data-name="Path 2145" d="M150.994,418.472c-.154,0,.571-25.281,1.627-56.444s2.035-56.436,2.19-56.428-.571,25.273-1.619,56.444S151.156,418.472,150.994,418.472Z" transform="translate(-90.464 -179.084)" fill="#263238"/>
      <path id="Path_2146" data-name="Path 2146" d="M179.361,236.76a3.948,3.948,0,0,1,.123.624c.069.463.154,1.064.262,1.82.216,1.642.517,3.932.894,6.769.717,5.829,1.712,13.878,2.853,23.13l.046.37-.37-.062-6.045-1.041.316-.4,1.149,2.575,2.267,5.073.069.162-.116.139-16.753,19.429-5.019,5.721c-.563.632-1.018,1.141-1.372,1.542a27.782,27.782,0,0,1-2.405,1.9c-.015-.008,2.035-1.6,2.313-1.966l1.341-1.6L163.8,295.1l16.607-19.552-.046.3-2.267-5.065-1.149-2.583-.224-.486.532.092,6.045,1.049-.332.308c-1.064-9.252-1.989-17.332-2.66-23.13-.3-2.853-.547-5.15-.725-6.8-.069-.771-.123-1.357-.17-1.82a2.683,2.683,0,0,1-.054-.655Z" transform="translate(-91.446 -163.318)" fill="#263238"/>
      <path id="Path_2147" data-name="Path 2147" d="M144.77,405.255c-1.11-1.473-3.354-2.382-4.5-.941h.039a3.531,3.531,0,0,0-1.2,3.855,3.415,3.415,0,0,0,4.533,1.843,3.284,3.284,0,0,0,1.126-4.757Z" transform="translate(-87.71 -201.524)" fill="#263238"/>
      <path id="Path_2148" data-name="Path 2148" d="M147,366.787c-1.11-1.465-3.361-2.375-4.51-.933h.046a3.516,3.516,0,0,0-1.2,3.855,3.408,3.408,0,0,0,4.526,1.843A3.292,3.292,0,0,0,147,366.787Z" transform="translate(-88.22 -192.716)" fill="#263238"/>
      <g id="Group_53" data-name="Group 53" transform="translate(33.792 99.72)" opacity="0.3">
        <path id="Path_2149" data-name="Path 2149" d="M116.32,270.9c.185.594,4.1,1.2,4.788,2.845a8.127,8.127,0,0,1-.139,5.266,15.676,15.676,0,0,0-.995,5.243c.216,3.2,2.737,5.7,5.1,7.872,6.6,6.068,14.649,12.66,21.264,18.735-5.852-7.463-13.477-15.188-19.945-22.12a9.206,9.206,0,0,1-2.313-3.439c-.509-1.688,0-3.493.493-5.173l1.989-6.7c.17-.578.54-1.542.624-1.858a14.222,14.222,0,0,0-2.452-.3,61.962,61.962,0,0,0-8.381-.37" transform="translate(-116.32 -270.844)"/>
      </g>
      <path id="Path_2150" data-name="Path 2150" d="M210.845,266.56a2.529,2.529,0,0,1-.062.663c-.077.493-.177,1.118-.293,1.9-.293,1.712-.686,4.071-1.164,6.939-.995,5.937-2.313,14.009-3.855,22.937s-2.922,17.054-4.009,22.906c-.547,2.93-1,5.289-1.342,6.939q-.239,1.149-.393,1.873a2.591,2.591,0,0,1-.177.648,3.591,3.591,0,0,1,.069-.671c.077-.486.17-1.118.293-1.889.285-1.712.678-4.071,1.164-6.939l3.855-22.929c1.5-8.959,2.922-17.054,4.009-22.906.547-2.93,1-5.3,1.334-6.939.162-.771.293-1.388.4-1.873A3.086,3.086,0,0,1,210.845,266.56Z" transform="translate(-101.589 -170.143)" fill="#263238"/>
      <path id="Path_2151" data-name="Path 2151" d="M94.856,241.43a19.49,19.49,0,0,0-10.023,7.71c-4.626,6.831-12.613,73.1-12.336,77.692s4.318,16.252,15.034,14.718S126.76,320.1,126.76,320.1l-9.807-19-20.817,9.807,2.83-32.805Z" transform="translate(-72.491 -164.388)" fill="#0761e9"/>
      <g id="Group_54" data-name="Group 54" transform="translate(24.447 160.139)" opacity="0.3">
        <path id="Path_2152" data-name="Path 2152" d="M165.308,359.842c-.678-2.984-4.371-3.94-7.4-4.325l-49.42-6.307L104.2,363.088a32.408,32.408,0,0,0,2.244,9.344c1.357,2.914,3.77,5.513,6.893,6.276,2.76.671,5.644-.139,8.365-.948l36.344-10.794a15,15,0,0,0,5.15-2.259A4.946,4.946,0,0,0,165.308,359.842Z" transform="translate(-104.2 -349.21)"/>
      </g>
      <g id="Group_55" data-name="Group 55" transform="translate(13.908 107.299)" opacity="0.3">
        <path id="Path_2153" data-name="Path 2153" d="M101.332,286.831c-.594-2.313-1.5-5.011-3.755-5.9-2.405-.941-5.2.809-6.268,3.161s-.84,5.073-.463,7.625c1.311,8.882,4.441,18.735,7.34,27.231l10.138-3.724C106.983,305.82,103.668,296.044,101.332,286.831Z" transform="translate(-90.53 -280.674)"/>
      </g>
      <path id="Path_2154" data-name="Path 2154" d="M237.407,278.17l-9.977,30.068,12.953,9.406,10.439,4.194c0-.054,1.951-15.019,1.457-9.792l2.313-30.878Z" transform="translate(-107.974 -172.802)" fill="#0761e9"/>
      <path id="Path_2155" data-name="Path 2155" d="M237.407,278.17a7.479,7.479,0,0,1-.239,1.334c-.17.856-.463,2.082-.856,3.585-.771,3.022-2.1,7.124-3.7,11.565s-2.961,8.542-3.809,11.565c-.424,1.5-.771,2.706-.979,3.554a7.6,7.6,0,0,1-.393,1.3,9.859,9.859,0,0,1,.239-1.334c.177-.856.47-2.082.863-3.593.771-3.015,2.1-7.116,3.7-11.565s2.953-8.542,3.809-11.565c.424-1.5.771-2.714.979-3.554a9.39,9.39,0,0,1,.385-1.288Z" transform="translate(-107.974 -172.802)" fill="#263238"/>
      <path id="Path_2156" data-name="Path 2156" d="M234.24,333.314a8.618,8.618,0,0,1-1.241-1.6,43.413,43.413,0,0,1-2.521-4.171,45.482,45.482,0,0,1-2.043-4.418,9.415,9.415,0,0,1-.624-1.92,11.617,11.617,0,0,1,.887,1.8c.517,1.126,1.249,2.675,2.136,4.348s1.758,3.146,2.405,4.2A12.5,12.5,0,0,1,234.24,333.314Z" transform="translate(-108.061 -182.659)" fill="#263238"/>
      <path id="Path_2157" data-name="Path 2157" d="M99.647,328.34a19.078,19.078,0,0,1-3.153-1.033,18.5,18.5,0,0,1-3.084-1.187,11.065,11.065,0,0,1,3.238.81A11,11,0,0,1,99.647,328.34Z" transform="translate(-77.282 -183.783)" fill="#263238"/>
      <path id="Path_2158" data-name="Path 2158" d="M104.691,268.27a2.313,2.313,0,0,1-.308-.663c-.177-.439-.409-1.079-.663-1.889a43.529,43.529,0,0,1-1.989-13.007,17.727,17.727,0,0,1,.062-2,2.437,2.437,0,0,1,.1-.725c.062,0,.054,1.041.123,2.722A56.713,56.713,0,0,0,104,265.641C104.428,267.26,104.752,268.255,104.691,268.27Z" transform="translate(-79.187 -166.348)" fill="#263238"/>
      <g id="Group_56" data-name="Group 56" transform="translate(79.804 105.575)" opacity="0.3">
        <path id="Path_2159" data-name="Path 2159" d="M185.383,280.907l3.647.247a6.885,6.885,0,0,0-6.862-2.575c.085,2.2,2.375,3.909,2.236,6.106a5.844,5.844,0,0,1-1.6,3.084L176,296.149l.478,4.194c2.783-3.971,5.59-7.71,8.373-11.642a10.708,10.708,0,0,0,2-3.924A3.564,3.564,0,0,0,185.383,280.907Z" transform="translate(-176 -278.438)"/>
      </g>
      <g id="Group_57" data-name="Group 57" transform="translate(115.38 115.938)" opacity="0.3">
        <path id="Path_2160" data-name="Path 2160" d="M232.141,295.126l1.1-3.246c-1.858,5.574-8.165,9.853-10.239,15.35a14.479,14.479,0,0,0,2.313,13.963c.717.879,1.951,1.727,2.891,1.087a1.92,1.92,0,0,0,.894-2.1c-.293-.771-2.459-5.266-2.845-5.975-.285-.54.362-2.089,1.226-4.988C228.972,304.1,230.614,300.237,232.141,295.126Z" transform="translate(-222.144 -291.88)"/>
      </g>
      <path id="Path_2161" data-name="Path 2161" d="M131,181.75a35.026,35.026,0,0,0,11.187,26.468l5-14.487" transform="translate(-85.888 -150.72)" fill="#263238"/>
      <path id="Path_2162" data-name="Path 2162" d="M167.756,143.721a21.457,21.457,0,0,0-14.271-1.727,45.2,45.2,0,0,0-13.5,5.582,22.1,22.1,0,0,0-6.453,5.035c-3.122,3.924-6.168,10.362-6.5,15.366-.247,4.04,1.3,14.163,3.015,17.833,1.542,3.369,8.9,5.937,12.529,6.769l33.245-38.657A16.846,16.846,0,0,0,167.756,143.721Z" transform="translate(-84.976 -141.503)" fill="#263238"/>
      <path id="Path_2163" data-name="Path 2163" d="M184.933,150.716,177,149.29c4.356,10.377,5.536,34.1,8.026,45.072,2.937-4.264,9.761-17.247,9.4-22.4S194.4,149.837,184.933,150.716Z" transform="translate(-96.425 -143.286)" fill="#263238"/>
      <path id="Path_2164" data-name="Path 2164" d="M180.611,168.055c-.517-7.964-5.813-17.733-13.747-16.861l-18.349,4.68a13.623,13.623,0,0,0-10.239,12.536c0,.3-.054-.069-.046.162l4.094,47.516L156.1,243.427h0l12.158-28.673v-6.939s10.169-1.712,12.243-14.988C181.544,186.227,181.228,176.9,180.611,168.055Z" transform="translate(-87.546 -143.71)" fill="#ffbe9d"/>
      <path id="Path_2165" data-name="Path 2165" d="M188.04,185.62a1.7,1.7,0,0,1-1.642,1.719,1.635,1.635,0,0,1-1.758-1.542,1.7,1.7,0,0,1,1.635-1.719,1.634,1.634,0,0,1,1.766,1.542Z" transform="translate(-98.175 -151.252)" fill="#263238"/>
      <path id="Path_2166" data-name="Path 2166" d="M188.621,179.291c-.208.224-1.542-.725-3.331-.717s-3.176.925-3.377.7c-.092-.1.116-.5.7-.925a4.711,4.711,0,0,1,2.7-.84,4.472,4.472,0,0,1,2.652.848C188.529,178.79,188.722,179.191,188.621,179.291Z" transform="translate(-97.546 -149.749)" fill="#263238"/>
      <path id="Path_2167" data-name="Path 2167" d="M167.43,185.62a1.7,1.7,0,0,1-1.642,1.719,1.634,1.634,0,0,1-1.758-1.542,1.7,1.7,0,0,1,1.634-1.719,1.634,1.634,0,0,1,1.766,1.542Z" transform="translate(-93.455 -151.252)" fill="#263238"/>
      <path id="Path_2168" data-name="Path 2168" d="M166.061,179.291c-.208.224-1.5-.725-3.331-.717s-3.176.925-3.377.7c-.093-.1.116-.5.7-.925a4.711,4.711,0,0,1,2.7-.84,4.525,4.525,0,0,1,2.652.848C165.969,178.79,166.162,179.191,166.061,179.291Z" transform="translate(-92.379 -149.749)" fill="#263238"/>
      <path id="Path_2169" data-name="Path 2169" d="M175.234,193.948a11.775,11.775,0,0,1,2.968-.547c.47-.046.91-.139.987-.463a2.313,2.313,0,0,0-.308-1.38q-.671-1.7-1.4-3.562c-1.927-5.065-3.331-9.252-3.084-9.306s1.935,3.971,3.855,9.036c.47,1.249.91,2.436,1.334,3.577a2.7,2.7,0,0,1,.247,1.835,1.18,1.18,0,0,1-.771.686,3.191,3.191,0,0,1-.771.108,12.066,12.066,0,0,1-3.061.015Z" transform="translate(-95.824 -150.019)" fill="#263238"/>
      <path id="Path_2170" data-name="Path 2170" d="M154.36,218.53s4.318,9.113,17.594,7.841v-3.084a33.407,33.407,0,0,1-17.594-4.757Z" transform="translate(-91.24 -159.143)" fill="#eb996e"/>
      <path id="Path_2171" data-name="Path 2171" d="M164.829,170.834c-.177.493-2,.262-4.156.532s-3.855.848-4.171.4c-.123-.208.177-.678.879-1.164a7.309,7.309,0,0,1,6.345-.717C164.513,170.2,164.906,170.6,164.829,170.834Z" transform="translate(-91.724 -147.908)" fill="#263238"/>
      <path id="Path_2172" data-name="Path 2172" d="M188,172.008c-.316.416-1.581,0-3.084,0s-2.8.285-3.084-.154c-.123-.208.077-.624.632-1.018a4.51,4.51,0,0,1,5,.139C187.967,171.375,188.121,171.8,188,172.008Z" transform="translate(-97.523 -148.063)" fill="#263238"/>
      <path id="Path_2173" data-name="Path 2173" d="M176.036,154.411a5.852,5.852,0,0,0-5.158-3.308,11.341,11.341,0,0,0-6.122,1.789c-7.9,4.564-11.966,15.6-19.776,20.323-1.92,1.164-4.418.1-6.052,1.642s-2.691,3.994-1.789,6.052a18.619,18.619,0,0,1-2.706-4.58,6.237,6.237,0,0,1,.216-5.173c.678-1.172,1.866-2.066,2.2-3.377.285-1.156-.17-2.359-.116-3.547a7.664,7.664,0,0,1,1.21-3.385c3.084-5.4,7.27-10.308,12.69-13.346a22.428,22.428,0,0,1,11.642-3.015,17.162,17.162,0,0,1,11.079,4.395c1.75,1.634,3.585,3.315,2.683,5.528" transform="translate(-86.571 -142.186)" fill="#263238"/>
      <path id="Path_2174" data-name="Path 2174" d="M138.524,185.789c-.139-.378-7.062-2.876-7.155,4.479-.093,7.147,7.124,5.736,7.139,5.536S138.524,185.789,138.524,185.789Z" transform="translate(-85.975 -151.482)" fill="#ffbe9d"/>
      <path id="Path_2175" data-name="Path 2175" d="M136.87,193.772a2.145,2.145,0,0,1-.339.177,1.241,1.241,0,0,1-.925,0,3.05,3.05,0,0,1-1.4-2.783,4.094,4.094,0,0,1,.362-1.773,1.442,1.442,0,0,1,.948-.948.632.632,0,0,1,.771.347c.092.2.046.339.085.355s.154-.116.1-.416a.771.771,0,0,0-.278-.447.933.933,0,0,0-.686-.185,1.727,1.727,0,0,0-1.311,1.095,4.248,4.248,0,0,0-.455,1.989c.039,1.434.771,2.791,1.789,3.084a1.311,1.311,0,0,0,1.141-.177C136.855,193.942,136.893,193.788,136.87,193.772Z" transform="translate(-86.518 -152.172)" fill="#eb996e"/>
      <path id="Path_2176" data-name="Path 2176" d="M137,174.083a1.974,1.974,0,0,0,.432-.239c.27-.17.694-.4,1.2-.771a24.209,24.209,0,0,0,3.855-3.508,69,69,0,0,0,4.718-6.129,56.608,56.608,0,0,1,5.9-7.347,22.361,22.361,0,0,1,3.809-3.007,18.218,18.218,0,0,1,4.109-1.866,20.4,20.4,0,0,1,7.571-.933,19.568,19.568,0,0,1,5.073.995c.586.177,1.025.378,1.326.493a2.467,2.467,0,0,0,.463.162,3.124,3.124,0,0,0-.439-.224,11.485,11.485,0,0,0-1.3-.547,18.642,18.642,0,0,0-5.1-1.11,20.231,20.231,0,0,0-7.71.879,18.59,18.59,0,0,0-4.186,1.873,22.749,22.749,0,0,0-3.855,3.084,54.366,54.366,0,0,0-5.913,7.4,72.123,72.123,0,0,1-4.626,6.168,26.515,26.515,0,0,1-3.762,3.562c-.493.37-.9.617-1.164.81a3.192,3.192,0,0,0-.385.254Z" transform="translate(-87.264 -143.446)" fill="#455a64"/>
      <path id="Path_2177" data-name="Path 2177" d="M136.248,197.092a1.419,1.419,0,1,0,.332.108" transform="translate(-86.705 -154.228)" fill="#fff"/>
      <path id="Path_2178" data-name="Path 2178" d="M136.544,197.185a1.889,1.889,0,0,1,.64.956,1.218,1.218,0,0,1-.278,1.126,1.249,1.249,0,0,1-2.2-.7,1.2,1.2,0,0,1,.424-1.079,1.874,1.874,0,0,1,1.079-.409.648.648,0,0,0-.339-.077,1.488,1.488,0,0,0-1.465,1.6,1.542,1.542,0,0,0,2.722.871,1.426,1.426,0,0,0,.278-1.388,1.488,1.488,0,0,0-.547-.771C136.676,197.185,136.552,197.162,136.544,197.185Z" transform="translate(-86.67 -154.213)" fill="#263238"/>
      <path id="Path_2179" data-name="Path 2179" d="M139.27,180.854c-.108,1.951-.2,4.009.7,5.744s3.176,2.922,4.873,1.951c1.388-.771,1.8-2.567,2.035-4.148.678-4.549.987-9.152,1.7-13.7Z" transform="translate(-87.769 -148.19)" fill="#263238"/>
      <path id="Path_2180" data-name="Path 2180" d="M169.433,202.92a3.531,3.531,0,0,0,1.766,5.528,2.082,2.082,0,0,0,1.334,0,2.968,2.968,0,0,0,1.419-1.843l.771-1.85a.625.625,0,0,0-.532-1l-4.587-1.1" transform="translate(-94.525 -155.507)" fill="#eb996e"/>
      <path id="Path_2181" data-name="Path 2181" d="M172.291,208.137a4.094,4.094,0,0,1-2.082-.262,3.261,3.261,0,0,1-1.827-1.488,2.467,2.467,0,0,1-.285-1.419,4.232,4.232,0,0,1,.37-1.465,3.755,3.755,0,0,1,.856-1.2l.123-.108.154.054c3.038,1.072,5.4,1.611,5.4,1.742a19.055,19.055,0,0,1-5.566-1.234l.27-.062a3.477,3.477,0,0,0-.732,1.033,2.953,2.953,0,0,0-.131,2.421,3.007,3.007,0,0,0,1.542,1.357C171.489,207.975,172.314,208.036,172.291,208.137Z" transform="translate(-94.383 -155.404)" fill="#263238"/>
      <path id="Path_2182" data-name="Path 2182" d="M175.52,152.881c0,.039-.624-.123-1.773-.154a12.174,12.174,0,0,0-4.734.864,15.275,15.275,0,0,0-2.961,1.542,30.955,30.955,0,0,0-3.084,2.313,37.291,37.291,0,0,0-5.983,6.453c-.91,1.28-1.712,2.59-2.583,3.8a17.864,17.864,0,0,1-2.868,3.223,31.9,31.9,0,0,1-6.037,4.04c-1.827.971-3.361,1.642-4.41,2.112l-1.218.478a2.074,2.074,0,0,1-.439.154,2.244,2.244,0,0,1,.409-.231l1.187-.586c1.033-.517,2.544-1.226,4.341-2.22A32.773,32.773,0,0,0,151.3,170.6a18.094,18.094,0,0,0,2.791-3.176c.856-1.2,1.658-2.513,2.575-3.8a36.052,36.052,0,0,1,6.068-6.5,31.888,31.888,0,0,1,3.084-2.313,15.512,15.512,0,0,1,3.084-1.542,11.834,11.834,0,0,1,4.834-.771,8.226,8.226,0,0,1,1.318.185A1.542,1.542,0,0,1,175.52,152.881Z" transform="translate(-87.821 -144.017)" fill="#455a64"/>
      <path id="Path_2183" data-name="Path 2183" d="M136.634,175.412a3.408,3.408,0,0,1-.632.424L134.19,176.9l-.609.355a1.935,1.935,0,0,1-.771.254.771.771,0,0,1-.486-.116.594.594,0,0,1-.262-.47,1.588,1.588,0,0,1,.339-.9l2.1-3.362.285.262a7.556,7.556,0,0,1-2.313,1.149,7.71,7.71,0,0,1-2.56.3,2.213,2.213,0,0,1-.648-.116.856.856,0,0,1-.555-.486.771.771,0,0,1,.123-.717,2.921,2.921,0,0,1,.4-.447,14.9,14.9,0,0,0,2.436-3.084,26.312,26.312,0,0,0,1.542-3.292,3.856,3.856,0,0,1-.224.956,13.425,13.425,0,0,1-1.079,2.475,14.412,14.412,0,0,1-2.421,3.192c-.27.254-.532.547-.424.771s.486.331.864.339a7.224,7.224,0,0,0,4.626-1.372l.848-.625-.571.887-2.143,3.338a1.4,1.4,0,0,0-.3.694c0,.208.177.324.409.308a3.624,3.624,0,0,0,1.288-.532l1.866-.956A3.168,3.168,0,0,1,136.634,175.412Z" transform="translate(-85.356 -147.166)" fill="#455a64"/>
      <path id="Path_2184" data-name="Path 2184" d="M92.783,281.015l13,68.348a5.027,5.027,0,0,0,5.9,4l49.921-9.607a5.042,5.042,0,0,0,3.994-5.921L151.84,268.293a5.05,5.05,0,0,0-6.021-3.947L96.653,275.14a5.042,5.042,0,0,0-3.87,5.875Z" transform="translate(-77.117 -169.61)" fill="#e0e0e0"/>
      <path id="Path_2185" data-name="Path 2185" d="M136,311.71l4.156-2.059s1.349-7.124,3.539-9.637,5.4-5.4,5.4-6.083,1.018-5.4,1.018-5.4,1.935-1.688,2.313,1.688a24.716,24.716,0,0,1,0,5.906l13-3.238c1.349-.339,3.038-.208,2.868,1.141a4.209,4.209,0,0,1-1.927,2.891,4.355,4.355,0,0,1-1.241.725s2.166,2,2.166,3.955,2.22,6.507.2,8.7-11.3,8.774-16.191,9.614-6.091,2.313-8.357,5.2Z" transform="translate(-87.035 -175.079)" fill="#ffbe9d"/>
      <path id="Path_2186" data-name="Path 2186" d="M156.814,298.21c.054.108-1.488,1.01-3.23,2.352s-3.022,2.575-3.084,2.5a16.329,16.329,0,0,1,6.345-4.849Z" transform="translate(-90.356 -177.391)" fill="#eb996e"/>
      <path id="Path_2187" data-name="Path 2187" d="M172.861,300a11.07,11.07,0,0,1-3.122,1.28,19.439,19.439,0,0,1-3.238.887,11.2,11.2,0,0,1,3.122-1.272,20.964,20.964,0,0,1,3.238-.894Z" transform="translate(-94.02 -177.801)" fill="#eb996e"/>
      <path id="Path_2188" data-name="Path 2188" d="M98.41,327.765l28.627-12.135,10.74,21.41L98.41,357.117Z" transform="translate(-78.427 -181.381)" fill="#0761e9"/>
      <path id="Path_2189" data-name="Path 2189" d="M124.522,316.489c.046.108-7.71,3.292-17.278,7.124s-17.386,6.846-17.424,6.746,7.71-3.292,17.278-7.124S124.483,316.389,124.522,316.489Z" transform="translate(-76.459 -181.577)" fill="#263238"/>
      <g id="Group_58" data-name="Group 58" transform="translate(5.905 145.066)" opacity="0.3">
        <path id="Path_2190" data-name="Path 2190" d="M96.117,329.66a55.011,55.011,0,0,0-10.169,3.084,13.47,13.47,0,0,0-3.77,2.1,5.482,5.482,0,0,0-2.028,3.7A12.338,12.338,0,0,0,82.787,337c3.254-3.261,8.859-5.158,13.608-6.939Z" transform="translate(-80.15 -329.66)"/>
      </g>
    </g>
    <g id="freepik--Desk--inject-2" transform="translate(32.238 354.374)">
      <path id="Path_2191" data-name="Path 2191" d="M367.423,452.34c0,.108-74.786.2-167.034.2s-167.049-.093-167.049-.2,74.786-.2,167.049-.2S367.423,452.225,367.423,452.34Z" transform="translate(-33.34 -452.14)" fill="#263238"/>
    </g>
  </g>
</svg>
