<svg xmlns="http://www.w3.org/2000/svg" width="158.851" height="118.363" viewBox="0 0 158.851 118.363">
  <g id="Waiters-rafiki" transform="translate(0 -55)">
    <g id="freepik--background-complete--inject-31" transform="translate(0 55)">
      <rect id="Rectangle_192" data-name="Rectangle 192" width="158.851" height="0.079" transform="translate(0 104.016)" fill="#ebebeb"/>
      <rect id="Rectangle_193" data-name="Rectangle 193" width="6.643" height="0.079" transform="translate(20.546 107.04)" fill="#ebebeb"/>
      <rect id="Rectangle_194" data-name="Rectangle 194" width="7.685" height="0.079" transform="translate(54.371 106.179)" fill="#ebebeb"/>
      <rect id="Rectangle_195" data-name="Rectangle 195" width="6.097" height="0.079" transform="translate(37.746 108.076)" fill="#ebebeb"/>
      <rect id="Rectangle_196" data-name="Rectangle 196" width="8.864" height="0.079" transform="translate(134.07 109.458)" fill="#ebebeb"/>
      <rect id="Rectangle_197" data-name="Rectangle 197" width="6.872" height="0.079" transform="translate(123.176 107.119)" fill="#ebebeb"/>
      <rect id="Rectangle_198" data-name="Rectangle 198" width="15.393" height="0.079" transform="translate(88.07 108.117)" fill="#ebebeb"/>
      <path id="Path_495" data-name="Path 495" d="M101.366,144.846H40.021a1.814,1.814,0,0,1-1.811-1.814V56.8A1.814,1.814,0,0,1,40.021,55h61.345a1.814,1.814,0,0,1,1.814,1.814v86.218A1.814,1.814,0,0,1,101.366,144.846ZM40.021,55.064A1.735,1.735,0,0,0,38.289,56.8v86.234a1.735,1.735,0,0,0,1.731,1.735h61.345a1.738,1.738,0,0,0,1.735-1.735V56.8a1.738,1.738,0,0,0-1.735-1.735Z" transform="translate(-26.071 -55)" fill="#ebebeb"/>
      <path id="Path_496" data-name="Path 496" d="M317.662,144.846H256.314a1.817,1.817,0,0,1-1.814-1.814V56.8a1.817,1.817,0,0,1,1.814-1.8h61.348a1.814,1.814,0,0,1,1.808,1.8v86.234A1.814,1.814,0,0,1,317.662,144.846ZM256.314,55.064a1.738,1.738,0,0,0-1.735,1.735v86.234a1.738,1.738,0,0,0,1.735,1.735h61.348a1.738,1.738,0,0,0,1.735-1.735V56.8a1.738,1.738,0,0,0-1.735-1.735Z" transform="translate(-173.645 -55)" fill="#ebebeb"/>
      <path id="Path_497" data-name="Path 497" d="M37.364,275.545H35.35a62.952,62.952,0,0,0,.083-49.755h2.011A64.811,64.811,0,0,1,37.364,275.545Z" transform="translate(-24.119 -171.53)" fill="#ebebeb"/>
      <path id="Path_498" data-name="Path 498" d="M82.864,275.545H80.85a62.953,62.953,0,0,0,.083-49.755h2.011a64.811,64.811,0,0,1-.079,49.755Z" transform="translate(-55.164 -171.53)" fill="#ebebeb"/>
      <path id="Path_499" data-name="Path 499" d="M124.29,310.3a64.773,64.773,0,0,0,4.972,22.906h2.014a62.9,62.9,0,0,1-5.131-22.906Z" transform="translate(-84.803 -229.191)" fill="#f5f5f5"/>
      <path id="Path_500" data-name="Path 500" d="M78.79,310.3a64.773,64.773,0,0,0,4.972,22.906h2.014A62.9,62.9,0,0,1,80.645,310.3Z" transform="translate(-53.758 -229.191)" fill="#f5f5f5"/>
      <path id="Path_501" data-name="Path 501" d="M77.509,308.033H56.693a1.976,1.976,0,0,1-1.973-1.97h0a1.976,1.976,0,0,1,1.973-1.973H77.509a1.976,1.976,0,0,1,1.973,1.973h0A1.976,1.976,0,0,1,77.509,308.033Z" transform="translate(-37.335 -224.954)" fill="#e0e0e0"/>
      <path id="Path_502" data-name="Path 502" d="M60.215,237.318H49.934a5.587,5.587,0,0,1-4.963-3.812l-3.577-11.863a2.739,2.739,0,0,1,2.662-3.812H54.328a5.587,5.587,0,0,1,4.963,3.812l3.58,11.863C63.5,235.6,62.306,237.318,60.215,237.318Z" transform="translate(-28.127 -166.099)" fill="#e0e0e0"/>
      <path id="Path_503" data-name="Path 503" d="M437.925,275.545h2.008a62.953,62.953,0,0,1-.083-49.755H437.84A64.811,64.811,0,0,0,437.925,275.545Z" transform="translate(-295.379 -171.53)" fill="#ebebeb"/>
      <path id="Path_504" data-name="Path 504" d="M392.432,275.545h2.014a62.953,62.953,0,0,1-.083-49.755h-2.011a64.811,64.811,0,0,0,.079,49.755Z" transform="translate(-264.341 -171.53)" fill="#ebebeb"/>
      <path id="Path_505" data-name="Path 505" d="M351.066,310.3a64.773,64.773,0,0,1-4.972,22.906H344.08a62.9,62.9,0,0,0,5.131-22.906Z" transform="translate(-234.765 -229.191)" fill="#f5f5f5"/>
      <path id="Path_506" data-name="Path 506" d="M396.566,310.3a64.774,64.774,0,0,1-4.972,22.906H389.58a62.9,62.9,0,0,0,5.131-22.906Z" transform="translate(-265.81 -229.191)" fill="#f5f5f5"/>
      <path id="Path_507" data-name="Path 507" d="M359.673,308.033h20.819a1.976,1.976,0,0,0,1.97-1.97h0a1.976,1.976,0,0,0-1.97-1.973H359.673a1.979,1.979,0,0,0-1.973,1.973h0A1.979,1.979,0,0,0,359.673,308.033Z" transform="translate(-244.058 -224.954)" fill="#e0e0e0"/>
      <path id="Path_508" data-name="Path 508" d="M383.3,237.318h10.271a5.587,5.587,0,0,0,4.962-3.812l3.577-11.863a2.738,2.738,0,0,0-2.659-3.812H389.178a5.587,5.587,0,0,0-4.962,3.812l-3.581,11.863A2.741,2.741,0,0,0,383.3,237.318Z" transform="translate(-259.591 -166.099)" fill="#e0e0e0"/>
      <path id="Path_509" data-name="Path 509" d="M154.592,260.19H150.78v38.826h2.157Z" transform="translate(-102.877 -195.001)" fill="#f5f5f5"/>
      <path id="Path_510" data-name="Path 510" d="M323.68,260.19h3.809v38.826h-2.157Z" transform="translate(-220.846 -195.001)" fill="#f5f5f5"/>
      <rect id="Rectangle_199" data-name="Rectangle 199" width="7.202" height="38.305" transform="translate(44.894 63.185)" fill="#e0e0e0"/>
      <rect id="Rectangle_200" data-name="Rectangle 200" width="4.308" height="35.799" transform="translate(52.1 63.185)" fill="#ebebeb"/>
      <rect id="Rectangle_201" data-name="Rectangle 201" width="7.202" height="38.305" transform="translate(56.405 63.185)" fill="#e0e0e0"/>
      <rect id="Rectangle_202" data-name="Rectangle 202" width="4.308" height="35.799" transform="translate(63.61 63.185)" fill="#ebebeb"/>
      <rect id="Rectangle_203" data-name="Rectangle 203" width="7.202" height="38.305" transform="translate(67.915 63.185)" fill="#e0e0e0"/>
      <rect id="Rectangle_204" data-name="Rectangle 204" width="4.308" height="35.799" transform="translate(75.121 63.185)" fill="#ebebeb"/>
      <rect id="Rectangle_205" data-name="Rectangle 205" width="7.202" height="38.305" transform="translate(79.425 63.185)" fill="#e0e0e0"/>
      <rect id="Rectangle_206" data-name="Rectangle 206" width="4.308" height="35.799" transform="translate(86.631 63.185)" fill="#ebebeb"/>
      <rect id="Rectangle_207" data-name="Rectangle 207" width="7.202" height="38.305" transform="translate(90.936 63.185)" fill="#e0e0e0"/>
      <rect id="Rectangle_208" data-name="Rectangle 208" width="4.308" height="35.799" transform="translate(98.141 63.185)" fill="#ebebeb"/>
      <rect id="Rectangle_209" data-name="Rectangle 209" width="7.202" height="38.305" transform="translate(102.446 63.185)" fill="#e0e0e0"/>
      <path id="Path_511" data-name="Path 511" d="M171.892,278.424l32.838-25.213a.518.518,0,0,0-.318-.931H138.736a.518.518,0,0,0-.318.931l32.838,25.213A.521.521,0,0,0,171.892,278.424Z" transform="translate(-94.303 -189.604)" fill="#f5f5f5"/>
      <rect id="Rectangle_210" data-name="Rectangle 210" width="108.254" height="38.645" transform="translate(25.299 5.083)" fill="#f0f0f0"/>
      <path id="Path_512" data-name="Path 512" d="M416.945,190.79a1.459,1.459,0,0,1-.318-.032,1.588,1.588,0,0,1-.3-.089,1.765,1.765,0,0,1-.276-.146,1.544,1.544,0,0,1-.438-.438,1.736,1.736,0,0,1-.146-.273,1.689,1.689,0,0,1-.089-.3,1.459,1.459,0,0,1-.032-.318,1.5,1.5,0,0,1,.032-.318,1.658,1.658,0,0,1,.089-.3,1.738,1.738,0,0,1,.146-.273,1.448,1.448,0,0,1,.2-.241,1.587,1.587,0,0,1,.241-.2,1.532,1.532,0,0,1,.276-.146,1.55,1.55,0,0,1,1.214,0,1.647,1.647,0,0,1,.276.146,1.589,1.589,0,0,1,.241.2,1.451,1.451,0,0,1,.2.241,1.735,1.735,0,0,1,.146.273,1.655,1.655,0,0,1,.089.3,1.5,1.5,0,0,1,.032.318,1.459,1.459,0,0,1-.032.318,1.689,1.689,0,0,1-.089.3,1.735,1.735,0,0,1-.146.273,1.543,1.543,0,0,1-.438.438,1.905,1.905,0,0,1-.276.146,1.588,1.588,0,0,1-.3.089A1.48,1.48,0,0,1,416.945,190.79Z" transform="translate(-283.392 -145.473)" fill="#f0f0f0"/>
      <path id="Path_513" data-name="Path 513" d="M186.537,189.229a1.589,1.589,0,0,1,1.589-1.589h0a1.589,1.589,0,0,1,1.589,1.589h0a1.589,1.589,0,0,1-1.589,1.589h0A1.589,1.589,0,0,1,186.537,189.229Zm-3.177,0a1.589,1.589,0,0,1,1.589-1.589h0a1.589,1.589,0,0,1,1.589,1.589h0a1.589,1.589,0,0,1-1.589,1.589h0a1.588,1.588,0,0,1-1.595-1.589Zm-3.177,0a1.589,1.589,0,0,1,1.589-1.589h0a1.589,1.589,0,0,1,1.589,1.589h0a1.589,1.589,0,0,1-1.589,1.589h0a1.589,1.589,0,0,1-1.6-1.589Zm-3.177,0a1.589,1.589,0,0,1,1.589-1.589h0a1.589,1.589,0,0,1,1.589,1.589h0a1.589,1.589,0,0,1-1.589,1.589h0a1.588,1.588,0,0,1-1.611-1.589Zm-3.177,0a1.589,1.589,0,0,1,1.589-1.589h0a1.589,1.589,0,0,1,1.589,1.589h0a1.589,1.589,0,0,1-1.589,1.589h0a1.589,1.589,0,0,1-1.617-1.589Zm-3.177,0a1.589,1.589,0,0,1,1.589-1.589h0a1.589,1.589,0,0,1,1.589,1.589h0a1.589,1.589,0,0,1-1.589,1.589h0a1.589,1.589,0,0,1-1.623-1.589Zm-3.177,0a1.589,1.589,0,0,1,1.589-1.589h0a1.589,1.589,0,0,1,1.589,1.589h0a1.589,1.589,0,0,1-1.589,1.589h0a1.589,1.589,0,0,1-1.63-1.589Zm-3.177,0a1.589,1.589,0,0,1,1.589-1.589h0a1.589,1.589,0,0,1,1.589,1.589h0a1.589,1.589,0,0,1-1.589,1.589h0a1.589,1.589,0,0,1-1.636-1.589Zm-3.177,0a1.589,1.589,0,0,1,1.589-1.589h0a1.589,1.589,0,0,1,1.589,1.589h0a1.589,1.589,0,0,1-1.589,1.589h0a1.589,1.589,0,0,1-1.643-1.589Zm-3.177,0a1.589,1.589,0,0,1,1.589-1.589h0a1.589,1.589,0,0,1,1.589,1.589h0a1.589,1.589,0,0,1-1.589,1.589h0a1.588,1.588,0,0,1-1.652-1.589Zm-3.177,0a1.589,1.589,0,0,1,1.589-1.589h0a1.589,1.589,0,0,1,1.589,1.589h0a1.589,1.589,0,0,1-1.589,1.589h0a1.589,1.589,0,0,1-1.658-1.589Zm-3.177,0a1.589,1.589,0,0,1,1.589-1.589h0a1.589,1.589,0,0,1,1.589,1.589h0a1.589,1.589,0,0,1-1.589,1.589h0a1.589,1.589,0,0,1-1.665-1.589Zm-3.177,0A1.589,1.589,0,0,1,150,187.64h0a1.589,1.589,0,0,1,1.589,1.589h0A1.589,1.589,0,0,1,150,190.817h0a1.589,1.589,0,0,1-1.671-1.589Zm-3.177,0a1.589,1.589,0,0,1,1.589-1.589h0a1.589,1.589,0,0,1,1.589,1.589h0a1.589,1.589,0,0,1-1.589,1.589h0a1.589,1.589,0,0,1-1.681-1.589Zm-3.177,0a1.589,1.589,0,0,1,1.589-1.589h0a1.589,1.589,0,0,1,1.589,1.589h0a1.589,1.589,0,0,1-1.589,1.589h0a1.588,1.588,0,0,1-1.7-1.589Zm-3.177,0a1.589,1.589,0,0,1,1.589-1.589h0a1.589,1.589,0,0,1,1.589,1.589h0a1.589,1.589,0,0,1-1.589,1.589h0a1.588,1.588,0,0,1-1.7-1.589Zm-3.177,0a1.589,1.589,0,0,1,1.589-1.589h0a1.589,1.589,0,0,1,1.589,1.589h0a1.588,1.588,0,0,1-1.589,1.589h0a1.588,1.588,0,0,1-1.7-1.589Zm-3.177,0a1.589,1.589,0,0,1,1.589-1.589h0a1.589,1.589,0,0,1,1.589,1.589h0a1.588,1.588,0,0,1-1.589,1.589h0a1.589,1.589,0,0,1-1.7-1.589Zm-3.177,0a1.589,1.589,0,0,1,1.589-1.589h0a1.589,1.589,0,0,1,1.589,1.589h0a1.588,1.588,0,0,1-1.589,1.589h0a1.589,1.589,0,0,1-1.7-1.589Zm-3.177,0a1.589,1.589,0,0,1,1.589-1.589h0a1.589,1.589,0,0,1,1.589,1.589h0a1.588,1.588,0,0,1-1.589,1.589h0a1.589,1.589,0,0,1-1.719-1.589Zm-3.177,0a1.589,1.589,0,0,1,1.589-1.589h0a1.589,1.589,0,0,1,1.589,1.589h0a1.588,1.588,0,0,1-1.589,1.589h0a1.589,1.589,0,0,1-1.728-1.589Zm-3.177,0a1.589,1.589,0,0,1,1.589-1.589h0A1.589,1.589,0,0,1,123,189.229h0a1.588,1.588,0,0,1-1.589,1.589h0a1.589,1.589,0,0,1-1.735-1.589Zm-3.177,0a1.589,1.589,0,0,1,1.589-1.589h0a1.589,1.589,0,0,1,1.589,1.589h0a1.588,1.588,0,0,1-1.589,1.589h0a1.589,1.589,0,0,1-1.741-1.589Zm-3.177,0a1.589,1.589,0,0,1,1.589-1.589h0a1.589,1.589,0,0,1,1.589,1.589h0a1.588,1.588,0,0,1-1.589,1.589h0a1.588,1.588,0,0,1-1.747-1.589Zm-3.177,0a1.589,1.589,0,0,1,1.589-1.589h0a1.589,1.589,0,0,1,1.589,1.589h0a1.588,1.588,0,0,1-1.589,1.589h0a1.588,1.588,0,0,1-1.754-1.589Zm-3.177,0a1.589,1.589,0,0,1,1.589-1.589h0a1.589,1.589,0,0,1,1.589,1.589h0a1.588,1.588,0,0,1-1.589,1.589h0a1.588,1.588,0,0,1-1.76-1.589Zm-3.177,0a1.589,1.589,0,0,1,1.589-1.589h0a1.589,1.589,0,0,1,1.589,1.589h0a1.589,1.589,0,0,1-1.589,1.589h0a1.589,1.589,0,0,1-1.77-1.589Zm-3.177,0a1.589,1.589,0,0,1,1.589-1.589h0a1.589,1.589,0,0,1,1.589,1.589h0a1.589,1.589,0,0,1-1.589,1.589h0a1.589,1.589,0,0,1-1.776-1.589Zm-3.177,0a1.589,1.589,0,0,1,1.589-1.589h0a1.589,1.589,0,0,1,1.589,1.589h0a1.589,1.589,0,0,1-1.589,1.589h0a1.589,1.589,0,0,1-1.782-1.589Zm-3.177,0a1.589,1.589,0,0,1,1.589-1.589h0a1.589,1.589,0,0,1,1.589,1.589h0a1.589,1.589,0,0,1-1.589,1.589h0a1.589,1.589,0,0,1-1.789-1.589Zm-3.177,0a1.589,1.589,0,0,1,1.589-1.589h0a1.589,1.589,0,0,1,1.589,1.589h0a1.589,1.589,0,0,1-1.589,1.589h0a1.589,1.589,0,0,1-1.8-1.589Zm-3.177,0a1.589,1.589,0,0,1,1.589-1.589h0a1.589,1.589,0,0,1,1.589,1.589h0a1.589,1.589,0,0,1-1.589,1.589h0a1.589,1.589,0,0,1-1.8-1.589Zm-3.177,0a1.589,1.589,0,0,1,1.589-1.589h0a1.589,1.589,0,0,1,1.589,1.589h0a1.589,1.589,0,0,1-1.589,1.589h0a1.589,1.589,0,0,1-1.811-1.589Z" transform="translate(-57.756 -145.5)" fill="#f0f0f0"/>
      <path id="Path_514" data-name="Path 514" d="M76.206,190.817a1.482,1.482,0,0,1-.318-.032,1.588,1.588,0,0,1-.3-.089,1.9,1.9,0,0,1-.276-.146,1.589,1.589,0,0,1,0-2.64,1.649,1.649,0,0,1,.276-.146,1.386,1.386,0,0,1,.3-.092,1.589,1.589,0,1,1,.318,3.145Z" transform="translate(-50.907 -145.5)" fill="#f0f0f0"/>
      <path id="Path_515" data-name="Path 515" d="M74.63,109.934a1.589,1.589,0,0,1,1.589-1.589h0a1.589,1.589,0,0,1,1.589,1.589h0a1.589,1.589,0,0,1-1.589,1.589h0A1.589,1.589,0,0,1,74.63,109.934Zm0-3.221a1.589,1.589,0,0,1,1.589-1.589h0a1.589,1.589,0,0,1,1.589,1.589h0a1.589,1.589,0,0,1-1.589,1.589h0A1.589,1.589,0,0,1,74.63,106.712Zm0-3.221a1.589,1.589,0,0,1,1.589-1.589h0a1.589,1.589,0,0,1,1.589,1.589h0a1.589,1.589,0,0,1-1.589,1.589h0A1.589,1.589,0,0,1,74.63,103.491Zm0-3.221a1.589,1.589,0,0,1,1.589-1.589h0a1.589,1.589,0,0,1,1.589,1.589h0a1.589,1.589,0,0,1-1.589,1.589h0A1.589,1.589,0,0,1,74.63,100.269Zm0-3.218a1.589,1.589,0,0,1,1.589-1.589h0a1.589,1.589,0,0,1,1.589,1.589h0a1.589,1.589,0,0,1-1.589,1.589h0a1.589,1.589,0,0,1-1.589-1.576Zm0-3.221a1.589,1.589,0,0,1,1.589-1.589h0a1.589,1.589,0,0,1,1.589,1.589h0a1.589,1.589,0,0,1-1.589,1.589h0A1.589,1.589,0,0,1,74.63,93.83Zm0-3.221a1.589,1.589,0,0,1,1.589-1.589h0a1.589,1.589,0,0,1,1.589,1.589h0A1.589,1.589,0,0,1,76.219,92.2h0a1.589,1.589,0,0,1-1.589-1.589Zm0-3.218A1.589,1.589,0,0,1,76.219,85.8h0a1.589,1.589,0,0,1,1.589,1.589h0a1.589,1.589,0,0,1-1.589,1.589h0A1.589,1.589,0,0,1,74.63,87.39Zm0-3.221a1.589,1.589,0,0,1,1.589-1.589h0a1.589,1.589,0,0,1,1.589,1.589h0a1.589,1.589,0,0,1-1.589,1.589h0A1.589,1.589,0,0,1,74.63,84.168Zm0-3.221a1.589,1.589,0,0,1,1.589-1.589h0a1.589,1.589,0,0,1,1.589,1.589h0a1.589,1.589,0,0,1-1.589,1.589h0A1.589,1.589,0,0,1,74.63,80.947Zm0-3.218a1.589,1.589,0,0,1,1.589-1.589h0a1.589,1.589,0,0,1,1.589,1.589h0a1.589,1.589,0,0,1-1.589,1.589h0A1.589,1.589,0,0,1,74.63,77.729Z" transform="translate(-50.92 -69.424)" fill="#f0f0f0"/>
      <path id="Path_516" data-name="Path 516" d="M76.2,69.163a1.48,1.48,0,0,1-.318-.032,1.588,1.588,0,0,1-.3-.089,1.906,1.906,0,0,1-.276-.146,1.618,1.618,0,0,1-.241-.2,1.452,1.452,0,0,1-.2-.241,1.735,1.735,0,0,1-.146-.273,1.588,1.588,0,0,1-.089-.3,1.458,1.458,0,0,1-.032-.318,1.6,1.6,0,0,1,.464-1.125,1.815,1.815,0,0,1,.241-.2,1.906,1.906,0,0,1,.276-.146,1.591,1.591,0,0,1,2.2,1.468,1.458,1.458,0,0,1-.032.318,1.588,1.588,0,0,1-.089.3,1.735,1.735,0,0,1-.146.273,1.452,1.452,0,0,1-.2.241A1.589,1.589,0,0,1,76.2,69.163Z" transform="translate(-50.906 -62.491)" fill="#f0f0f0"/>
      <path id="Path_517" data-name="Path 517" d="M186.537,67.589A1.589,1.589,0,0,1,188.125,66h0a1.589,1.589,0,0,1,1.589,1.589h0a1.589,1.589,0,0,1-1.589,1.589h0A1.589,1.589,0,0,1,186.537,67.589Zm-3.177,0A1.589,1.589,0,0,1,184.948,66h0a1.589,1.589,0,0,1,1.589,1.589h0a1.589,1.589,0,0,1-1.589,1.589h0a1.589,1.589,0,0,1-1.6-1.589Zm-3.177,0A1.589,1.589,0,0,1,181.771,66h0a1.589,1.589,0,0,1,1.589,1.589h0a1.589,1.589,0,0,1-1.589,1.589h0a1.589,1.589,0,0,1-1.6-1.589Zm-3.177,0A1.589,1.589,0,0,1,178.594,66h0a1.589,1.589,0,0,1,1.589,1.589h0a1.589,1.589,0,0,1-1.589,1.589h0a1.588,1.588,0,0,1-1.611-1.589Zm-3.177,0A1.589,1.589,0,0,1,175.417,66h0a1.589,1.589,0,0,1,1.589,1.589h0a1.589,1.589,0,0,1-1.589,1.589h0a1.589,1.589,0,0,1-1.617-1.589Zm-3.177,0A1.589,1.589,0,0,1,172.24,66h0a1.589,1.589,0,0,1,1.589,1.589h0a1.589,1.589,0,0,1-1.589,1.589h0a1.589,1.589,0,0,1-1.623-1.589Zm-3.177,0A1.589,1.589,0,0,1,169.063,66h0a1.589,1.589,0,0,1,1.589,1.589h0a1.589,1.589,0,0,1-1.589,1.589h0a1.589,1.589,0,0,1-1.63-1.589Zm-3.177,0A1.589,1.589,0,0,1,165.886,66h0a1.589,1.589,0,0,1,1.589,1.589h0a1.589,1.589,0,0,1-1.589,1.589h0a1.589,1.589,0,0,1-1.636-1.589Zm-3.177,0A1.589,1.589,0,0,1,162.709,66h0a1.589,1.589,0,0,1,1.589,1.589h0a1.589,1.589,0,0,1-1.589,1.589h0a1.589,1.589,0,0,1-1.646-1.589Zm-3.177,0A1.589,1.589,0,0,1,159.532,66h0a1.589,1.589,0,0,1,1.589,1.589h0a1.589,1.589,0,0,1-1.589,1.589h0a1.588,1.588,0,0,1-1.652-1.589Zm-3.177,0A1.589,1.589,0,0,1,156.355,66h0a1.589,1.589,0,0,1,1.589,1.589h0a1.589,1.589,0,0,1-1.589,1.589h0a1.589,1.589,0,0,1-1.658-1.589Zm-3.177,0A1.589,1.589,0,0,1,153.178,66h0a1.589,1.589,0,0,1,1.589,1.589h0a1.589,1.589,0,0,1-1.589,1.589h0a1.589,1.589,0,0,1-1.665-1.589Zm-3.177,0A1.589,1.589,0,0,1,150,66h0a1.589,1.589,0,0,1,1.589,1.589h0A1.589,1.589,0,0,1,150,69.177h0a1.589,1.589,0,0,1-1.671-1.589Zm-3.177,0A1.589,1.589,0,0,1,146.824,66h0a1.589,1.589,0,0,1,1.589,1.589h0a1.589,1.589,0,0,1-1.589,1.589h0a1.589,1.589,0,0,1-1.677-1.589Zm-3.177,0A1.589,1.589,0,0,1,143.647,66h0a1.589,1.589,0,0,1,1.589,1.589h0a1.589,1.589,0,0,1-1.589,1.589h0a1.588,1.588,0,0,1-1.7-1.589Zm-3.177,0A1.589,1.589,0,0,1,140.47,66h0a1.589,1.589,0,0,1,1.589,1.589h0a1.589,1.589,0,0,1-1.589,1.589h0a1.588,1.588,0,0,1-1.7-1.589Zm-3.177,0A1.589,1.589,0,0,1,137.293,66h0a1.589,1.589,0,0,1,1.589,1.589h0a1.588,1.588,0,0,1-1.589,1.589h0a1.588,1.588,0,0,1-1.7-1.589Zm-3.177,0A1.589,1.589,0,0,1,134.116,66h0a1.589,1.589,0,0,1,1.589,1.589h0a1.588,1.588,0,0,1-1.589,1.589h0a1.589,1.589,0,0,1-1.7-1.589Zm-3.177,0A1.589,1.589,0,0,1,130.939,66h0a1.589,1.589,0,0,1,1.589,1.589h0a1.588,1.588,0,0,1-1.589,1.589h0a1.589,1.589,0,0,1-1.7-1.589Zm-3.177,0A1.589,1.589,0,0,1,127.762,66h0a1.589,1.589,0,0,1,1.589,1.589h0a1.588,1.588,0,0,1-1.589,1.589h0a1.589,1.589,0,0,1-1.722-1.589Zm-3.177,0A1.589,1.589,0,0,1,124.585,66h0a1.589,1.589,0,0,1,1.589,1.589h0a1.588,1.588,0,0,1-1.589,1.589h0a1.589,1.589,0,0,1-1.728-1.589Zm-3.177,0A1.589,1.589,0,0,1,121.408,66h0A1.589,1.589,0,0,1,123,67.589h0a1.588,1.588,0,0,1-1.589,1.589h0a1.589,1.589,0,0,1-1.735-1.589Zm-3.177,0A1.589,1.589,0,0,1,118.231,66h0a1.589,1.589,0,0,1,1.589,1.589h0a1.589,1.589,0,0,1-1.589,1.589h0a1.588,1.588,0,0,1-1.741-1.589Zm-3.177,0A1.589,1.589,0,0,1,115.054,66h0a1.589,1.589,0,0,1,1.589,1.589h0a1.588,1.588,0,0,1-1.589,1.589h0a1.589,1.589,0,0,1-1.747-1.589Zm-3.177,0A1.589,1.589,0,0,1,111.877,66h0a1.589,1.589,0,0,1,1.589,1.589h0a1.588,1.588,0,0,1-1.589,1.589h0a1.588,1.588,0,0,1-1.754-1.589Zm-3.177,0A1.589,1.589,0,0,1,108.7,66h0a1.589,1.589,0,0,1,1.589,1.589h0a1.588,1.588,0,0,1-1.589,1.589h0a1.588,1.588,0,0,1-1.76-1.589Zm-3.177,0A1.589,1.589,0,0,1,105.523,66h0a1.589,1.589,0,0,1,1.589,1.589h0a1.589,1.589,0,0,1-1.589,1.589h0a1.589,1.589,0,0,1-1.77-1.589Zm-3.177,0A1.589,1.589,0,0,1,102.346,66h0a1.589,1.589,0,0,1,1.589,1.589h0a1.589,1.589,0,0,1-1.589,1.589h0a1.589,1.589,0,0,1-1.776-1.589Zm-3.177,0A1.589,1.589,0,0,1,99.169,66h0a1.589,1.589,0,0,1,1.589,1.589h0a1.589,1.589,0,0,1-1.589,1.589h0a1.589,1.589,0,0,1-1.782-1.589Zm-3.177,0A1.589,1.589,0,0,1,95.992,66h0a1.589,1.589,0,0,1,1.589,1.589h0a1.589,1.589,0,0,1-1.589,1.589h0A1.589,1.589,0,0,1,94.2,67.589Zm-3.177,0A1.589,1.589,0,0,1,92.815,66h0A1.589,1.589,0,0,1,94.4,67.589h0a1.589,1.589,0,0,1-1.589,1.589h0a1.589,1.589,0,0,1-1.8-1.589Zm-3.177,0A1.589,1.589,0,0,1,89.638,66h0a1.589,1.589,0,0,1,1.589,1.589h0a1.589,1.589,0,0,1-1.589,1.589h0a1.589,1.589,0,0,1-1.8-1.589Zm-3.177,0A1.589,1.589,0,0,1,86.461,66h0a1.589,1.589,0,0,1,1.589,1.589h0a1.589,1.589,0,0,1-1.589,1.589h0a1.589,1.589,0,0,1-1.811-1.589Z" transform="translate(-57.756 -62.505)" fill="#f0f0f0"/>
      <path id="Path_518" data-name="Path 518" d="M416.945,69.15a1.458,1.458,0,0,1-.318-.032,1.588,1.588,0,0,1-.3-.089,1.766,1.766,0,0,1-.276-.146,1.544,1.544,0,0,1-.438-.438,1.763,1.763,0,0,1-.146-.276,1.592,1.592,0,0,1-.089-.3,1.458,1.458,0,0,1-.032-.318,1.5,1.5,0,0,1,.032-.318,1.585,1.585,0,0,1,.089-.3,1.907,1.907,0,0,1,.146-.276,1.544,1.544,0,0,1,.438-.438,1.765,1.765,0,0,1,.276-.146,1.588,1.588,0,0,1,1.214,0,1.905,1.905,0,0,1,.276.146,1.587,1.587,0,0,1,.241.2,1.813,1.813,0,0,1,.2.241,1.765,1.765,0,0,1,.146.276,1.592,1.592,0,0,1,.089.3,1.5,1.5,0,0,1,.032.318,1.458,1.458,0,0,1-.032.318,1.589,1.589,0,0,1-.089.3,1.765,1.765,0,0,1-.146.276,1.814,1.814,0,0,1-.2.241,1.589,1.589,0,0,1-.241.2,1.908,1.908,0,0,1-.276.146,1.59,1.59,0,0,1-.3.089A1.458,1.458,0,0,1,416.945,69.15Z" transform="translate(-283.392 -62.479)" fill="#f0f0f0"/>
      <path id="Path_519" data-name="Path 519" d="M415.37,109.934a1.588,1.588,0,0,1,1.589-1.589h0a1.588,1.588,0,0,1,1.589,1.589h0a1.588,1.588,0,0,1-1.589,1.589h0A1.588,1.588,0,0,1,415.37,109.934Zm0-3.221a1.589,1.589,0,0,1,1.589-1.589h0a1.589,1.589,0,0,1,1.589,1.589h0a1.588,1.588,0,0,1-1.589,1.589h0A1.588,1.588,0,0,1,415.37,106.712Zm0-3.221a1.588,1.588,0,0,1,1.589-1.589h0a1.588,1.588,0,0,1,1.589,1.589h0a1.588,1.588,0,0,1-1.589,1.589h0A1.588,1.588,0,0,1,415.37,103.491Zm0-3.218a1.588,1.588,0,0,1,1.589-1.589h0a1.588,1.588,0,0,1,1.589,1.589h0a1.589,1.589,0,0,1-1.589,1.589h0a1.588,1.588,0,0,1-1.589-1.589Zm0-3.221a1.588,1.588,0,0,1,1.589-1.589h0a1.588,1.588,0,0,1,1.589,1.589h0a1.588,1.588,0,0,1-1.589,1.589h0a1.589,1.589,0,0,1-1.589-1.576Zm0-3.221a1.588,1.588,0,0,1,1.589-1.589h0a1.588,1.588,0,0,1,1.589,1.589h0a1.588,1.588,0,0,1-1.589,1.589h0a1.588,1.588,0,0,1-1.589-1.589Zm0-3.218a1.589,1.589,0,0,1,1.589-1.589h0a1.589,1.589,0,0,1,1.589,1.589h0a1.588,1.588,0,0,1-1.589,1.589h0A1.588,1.588,0,0,1,415.37,90.611Zm0-3.221a1.588,1.588,0,0,1,1.589-1.589h0a1.588,1.588,0,0,1,1.589,1.589h0a1.588,1.588,0,0,1-1.589,1.589h0A1.588,1.588,0,0,1,415.37,87.39Zm0-3.221a1.588,1.588,0,0,1,1.589-1.589h0a1.588,1.588,0,0,1,1.589,1.589h0a1.588,1.588,0,0,1-1.589,1.589h0A1.588,1.588,0,0,1,415.37,84.168Zm0-3.218a1.588,1.588,0,0,1,1.589-1.589h0a1.588,1.588,0,0,1,1.589,1.589h0a1.588,1.588,0,0,1-1.589,1.589h0A1.588,1.588,0,0,1,415.37,80.95Zm0-3.221a1.588,1.588,0,0,1,1.589-1.589h0a1.588,1.588,0,0,1,1.589,1.589h0a1.588,1.588,0,0,1-1.589,1.589h0A1.588,1.588,0,0,1,415.37,77.729Z" transform="translate(-283.406 -69.424)" fill="#f0f0f0"/>
      <rect id="Rectangle_211" data-name="Rectangle 211" width="33.562" height="103.17" transform="translate(131.011 7.625) rotate(90)" fill="#fafafa"/>
    </g>
    <g id="freepik--Shadow--inject-31" transform="translate(17.826 166.17)">
      <ellipse id="freepik--path--inject-31" cx="61.599" cy="3.596" rx="61.599" ry="3.596" fill="#f5f5f5"/>
    </g>
    <g id="freepik--character-1--inject-31" transform="translate(38.725 68.709)">
      <path id="Path_520" data-name="Path 520" d="M185.023,116.71c-2.475,2.04-4.893,5.328-3.476,8.9s10.484,3.927,12.39,2.459c2.478-1.906.289-10.4-1.643-10.446C192.149,114.47,187.091,115,185.023,116.71Z" transform="translate(-162.307 -109.88)" fill="#263238"/>
      <path id="Path_521" data-name="Path 521" d="M182.48,227.8s.994,18.09,2.09,27.885c.111,9.2,2.224,29.975,2.224,29.975h2.322c.391-10.309,3.26-19.936,1.353-29.028,4.448-17.855,1.4-28.819,1.4-28.819Z" transform="translate(-163.23 -186.61)" fill="#ffb573"/>
      <path id="Path_522" data-name="Path 522" d="M190.44,227.84s4.781,20.066,6.09,28.612c1.379,8.978,3.431,26.4,3.336,29.229h2s3.368-17.626.251-28.911c2.57-25.416-3.771-28.911-3.771-28.911Z" transform="translate(-168.662 -186.637)" fill="#ffb573"/>
      <path id="Path_523" data-name="Path 523" d="M144.648,151c-.149-1.083-2.138-1.176-2.138-1.176l-.953-.48a.756.756,0,0,0-1.026.229l-.318.527a.953.953,0,0,0,.353,1.188l.289.21a3.177,3.177,0,0,0,1.677.588l.88.048a1.617,1.617,0,0,0,.572-.07.953.953,0,0,0,.654-1.064Z" transform="translate(-134.335 -133.001)" fill="#ffb573"/>
      <path id="Path_524" data-name="Path 524" d="M161.4,160.164c-.121.124-.184.184-.273.264l-.251.222c-.165.14-.337.27-.505.4-.343.254-.693.489-1.052.712a14.461,14.461,0,0,1-2.262,1.106,14.027,14.027,0,0,1-4.9.953h-.146a1.852,1.852,0,0,1-.229-.019,1.905,1.905,0,0,1-.435-.118,2.056,2.056,0,0,1-.635-.413,2.8,2.8,0,0,1-.575-.813,6.18,6.18,0,0,1-.442-1.344,15.73,15.73,0,0,1-.318-2.421,31,31,0,0,1,.1-4.677.712.712,0,0,1,1.414-.019v.019c.172,1.48.369,2.983.635,4.422a16.48,16.48,0,0,0,.486,2.062,3.838,3.838,0,0,0,.337.794c.057.092.114.137.089.1a.391.391,0,0,0-.152-.1.6.6,0,0,0-.162-.048h-.086a13.977,13.977,0,0,0,2.027-.337,14.157,14.157,0,0,0,1.938-.635,12.663,12.663,0,0,0,1.808-.953c.289-.178.569-.365.839-.566.133-.1.261-.2.388-.3l.184-.152.14-.124.083-.073a1.426,1.426,0,0,1,1.957,2.075Z" transform="translate(-140.613 -135.831)" fill="#ffb573"/>
      <path id="Path_525" data-name="Path 525" d="M177.953,163.5c-2.513-.419-5.15,1.29-6.516,2.681-.705,2.122,1.554,4.7,1.554,4.7a25.533,25.533,0,0,0,4.378-3.326C178.528,166.208,179.4,163.743,177.953,163.5Z" transform="translate(-155.603 -142.695)" fill="#e0e0e0"/>
      <path id="Path_526" data-name="Path 526" d="M190.656,226.639s3.546,2.516,4.213,10.881c.267,3.295.747,16.438,1.757,22.093-3.638,2.6-14.528,2.243-16.235.724.483-11.437-3.889-26.608-.718-33.584A59.5,59.5,0,0,1,190.656,226.639Z" transform="translate(-160.522 -185.678)" fill="#263238"/>
      <path id="Path_527" data-name="Path 527" d="M199.382,269.642c.048-4.807-.661-11.421-2.812-15.342C197.3,259.193,199.382,269.642,199.382,269.642Z" transform="translate(-172.844 -204.691)" opacity="0.2"/>
      <path id="Path_528" data-name="Path 528" d="M175.029,167.3c0,2.723-2.17,4.152.286,6.249a84.713,84.713,0,0,0,1.039,10.4c.747,1.039,6.2.953,11.876-.276-.74-3.288-.467-8.645,1.474-15.971a3.047,3.047,0,0,0-2.427-3.752c-.467-.083-.953-.159-1.468-.222a37.449,37.449,0,0,0-5.356-.4c-.578,0-1.179.038-1.751.076A3.914,3.914,0,0,0,175.029,167.3Z" transform="translate(-157.543 -142.615)" fill="#e0e0e0"/>
      <rect id="Rectangle_212" data-name="Rectangle 212" width="7.765" height="10.697" rx="1.48" transform="matrix(0.975, -0.221, 0.221, 0.975, 21.957, 31.02)" fill="#076aff"/>
      <path id="Path_529" data-name="Path 529" d="M191.628,174.37a6.147,6.147,0,0,1-1.967,1.589l-.1.635a4.823,4.823,0,0,0,2.932-1.512Z" transform="translate(-168.061 -150.155)" fill="#076aff"/>
      <path id="Path_530" data-name="Path 530" d="M184.438,171.852a6.256,6.256,0,0,0,.419,2.5l-.346.546a4.832,4.832,0,0,1-1.2-3.075Z" transform="translate(-163.797 -148.415)" fill="#076aff"/>
      <path id="Path_531" data-name="Path 531" d="M194.848,145.56c-.426,1.69-.925,4.807.219,6.036a14.3,14.3,0,0,0-7.037,4.975c-1.271-4.006,1.693-5.376,1.693-5.376,1.941-.318,1.967-1.735,1.7-3.094Z" transform="translate(-166.801 -130.498)" fill="#ffb573"/>
      <path id="Path_532" data-name="Path 532" d="M201.427,148.83l-2.027,1.509a5.565,5.565,0,0,1,.114.953,2.306,2.306,0,0,0,1.906-1.538,2.678,2.678,0,0,0,.006-.925Z" transform="translate(-174.775 -132.729)" opacity="0.2"/>
      <path id="Path_533" data-name="Path 533" d="M198.009,125.018c-.816,2.739-1.1,3.917-2.821,4.994a3.648,3.648,0,0,1-5.738-2.99c0-2.65,1.325-6.672,4.27-7.11A3.928,3.928,0,0,1,198.009,125.018Z" transform="translate(-167.986 -112.967)" fill="#ffb573"/>
      <path id="Path_534" data-name="Path 534" d="M208.977,122.221c-.772,2.64-.111,5.4,1.465,5.719,2.189-.816,2.081-3.247,1.522-4.359S209.421,120.7,208.977,122.221Z" transform="translate(-181.089 -114.17)" fill="#263238"/>
      <path id="Path_535" data-name="Path 535" d="M210.322,138.42a2.105,2.105,0,0,0-1.452,1.22,2.689,2.689,0,0,1,1.636-.48A1.716,1.716,0,0,1,210.322,138.42Z" transform="translate(-181.236 -125.626)" fill="#263238"/>
      <path id="Path_536" data-name="Path 536" d="M202.674,134.227c-.054.226-.216.378-.365.343s-.229-.254-.175-.48.216-.381.365-.343S202.715,134,202.674,134.227Z" transform="translate(-176.628 -122.434)" fill="#263238"/>
      <path id="Path_537" data-name="Path 537" d="M193.8,132.117c-.054.226-.216.378-.365.34s-.229-.251-.175-.48.216-.378.365-.34S193.861,131.888,193.8,132.117Z" transform="translate(-170.576 -120.994)" fill="#263238"/>
      <path id="Path_538" data-name="Path 538" d="M193.572,131.105l-.512-.3S193.241,131.306,193.572,131.105Z" transform="translate(-170.449 -120.434)" fill="#263238"/>
      <path id="Path_539" data-name="Path 539" d="M194.21,134.32a6,6,0,0,1-1.15,1.239,1.036,1.036,0,0,0,.778.359Z" transform="translate(-170.449 -122.829)" fill="#ed893e"/>
      <path id="Path_540" data-name="Path 540" d="M212.186,140.928a1.808,1.808,0,0,1-1.363.635c-.664-.019-.778-.782-.413-1.407.318-.566,1.067-1.236,1.646-.915A1.11,1.11,0,0,1,212.186,140.928Z" transform="translate(-182.147 -126.13)" fill="#ffb573"/>
      <path id="Path_541" data-name="Path 541" d="M203.689,129.885a.146.146,0,0,1-.073-.083,1.137,1.137,0,0,0-.686-.731.14.14,0,0,1-.1-.168.13.13,0,0,1,.165-.1,1.4,1.4,0,0,1,.88.912.13.13,0,0,1-.086.172A.14.14,0,0,1,203.689,129.885Z" transform="translate(-177.113 -119.064)" fill="#263238"/>
      <path id="Path_542" data-name="Path 542" d="M191.485,127.411a.143.143,0,0,1-.1-.035.14.14,0,0,1,0-.194,1.344,1.344,0,0,1,1.156-.457.143.143,0,0,1,.118.159.137.137,0,0,1-.156.114,1.058,1.058,0,0,0-.912.369.14.14,0,0,1-.108.044Z" transform="translate(-169.28 -117.641)" fill="#263238"/>
      <path id="Path_543" data-name="Path 543" d="M202.422,133.219l-.512-.3S202.091,133.419,202.422,133.219Z" transform="translate(-176.488 -121.874)" fill="#263238"/>
      <path id="Path_544" data-name="Path 544" d="M197.542,203.8,195,203.31l.286,2.92a6.06,6.06,0,0,0,2.993-.953l.1-.381A1.149,1.149,0,0,0,197.542,203.8Z" transform="translate(-171.773 -169.9)" fill="#ffb573"/>
      <path id="Path_545" data-name="Path 545" d="M190.147,204.555l.3,1.236a.731.731,0,0,0,.82.55l.712-.111-.286-2.92-1.083.394A.728.728,0,0,0,190.147,204.555Z" transform="translate(-168.448 -169.9)" fill="#ffb573"/>
      <path id="Path_546" data-name="Path 546" d="M205.207,170.492a37.97,37.97,0,0,1,2.017,4.575c.286.785.556,1.589.772,2.411a14.952,14.952,0,0,1,.477,2.605c.019.232.029.47.032.712v.222a1.407,1.407,0,0,1-.051.276,1.8,1.8,0,0,1-.216.5,1.986,1.986,0,0,1-.566.575,2.98,2.98,0,0,1-.9.4,6.067,6.067,0,0,1-.74.156,14.963,14.963,0,0,1-2.612.1,33.8,33.8,0,0,1-4.921-.591.708.708,0,0,1,.121-1.407h0c1.589-.029,3.2-.07,4.743-.187a15.02,15.02,0,0,0,2.2-.318,3.249,3.249,0,0,0,.435-.133.5.5,0,0,0,.191-.1.4.4,0,0,0-.146.149.8.8,0,0,0-.1.216,1.041,1.041,0,0,0-.025.13.405.405,0,0,0,0,.064h0a3.522,3.522,0,0,0-.054-.5,21.163,21.163,0,0,0-1.293-4.292c-.575-1.433-1.233-2.891-1.906-4.267v-.025a1.43,1.43,0,0,1,2.542-1.29Z" transform="translate(-173.754 -147.03)" fill="#ffb573"/>
      <path id="Path_547" data-name="Path 547" d="M211.649,165.513c1.82.337,2.631,1.973,3.952,5.239-.4,2.2-3.634,3.355-3.634,3.355a25.951,25.951,0,0,1-2.224-5.032C209.374,167.331,209.812,165.173,211.649,165.513Z" transform="translate(-181.75 -144.088)" fill="#e0e0e0"/>
      <path id="Path_548" data-name="Path 548" d="M189.985,409.646a.2.2,0,0,0-.21-.13l-2.154-.032a1.182,1.182,0,0,0-.635.137,8.066,8.066,0,0,1-3.247,1.16c-.457.07-.251.842.829.855,1.782.019,2.106-.114,3.628-.1,1.3.016.68.073,1.712.1.248,0,.451-.156.419-.318Z" transform="translate(-163.934 -310.571)" fill="#263238"/>
      <path id="Path_549" data-name="Path 549" d="M216.927,409.646a.2.2,0,0,0-.21-.13l-1.757-.032a1.163,1.163,0,0,0-.635.137c-.635.442-.546.953-2,1.16-.457.07-.232.842.848.855,1.782.019,1.674-.1,2.4-.1s.28.073,1.315.1c.248,0,.448-.156.41-.318Z" transform="translate(-183.444 -310.57)" fill="#263238"/>
      <path id="Path_550" data-name="Path 550" d="M192.38,167.033a4.921,4.921,0,0,1,3.088,1.569c.75-.778,3.679-2.586,3.73-5.036a2.541,2.541,0,0,0-1.3-.667S193.991,164.79,192.38,167.033Z" transform="translate(-169.985 -142.329)" fill="#fafafa"/>
      <path id="Path_551" data-name="Path 551" d="M184.01,166.957s-.245-1.979,2.151-3.9c-.241-.2-1.188.025-1.188.025a4.718,4.718,0,0,0-2.716,4.321A2.4,2.4,0,0,1,184.01,166.957Z" transform="translate(-163.076 -142.379)" fill="#fafafa"/>
      <path id="Path_552" data-name="Path 552" d="M185.988,177.9c-.346.162-.483,1.29,0,1.554s.435-.813.715-1.182S186.595,177.621,185.988,177.9Z" transform="translate(-165.41 -152.488)" fill="#076aff"/>
      <path id="Path_553" data-name="Path 553" d="M187.817,178.67c-.248.318.073,1.4.607,1.395s.073-.953.178-1.423S188.24,178.111,187.817,178.67Z" transform="translate(-166.814 -152.816)" fill="#076aff"/>
      <path id="Path_554" data-name="Path 554" d="M187.4,181.814c-.594-.918-.635,3.92.8,5.827C188.1,185.763,189.112,183.1,187.4,181.814Z" transform="translate(-166.32 -155.155)" fill="#076aff"/>
      <path id="Path_555" data-name="Path 555" d="M185.755,181.637c-.264-.934-1.589,3.158-.855,5.156C185.316,185.176,186.87,183.181,185.755,181.637Z" transform="translate(-164.732 -155.02)" fill="#076aff"/>
      <path id="Path_556" data-name="Path 556" d="M198.183,141.333a2.582,2.582,0,0,0,.4-.216.076.076,0,0,0,0-.108.086.086,0,0,0-.114-.019,2.281,2.281,0,0,1-1.951.283.077.077,0,1,0-.057.143A2.414,2.414,0,0,0,198.183,141.333Z" transform="translate(-172.732 -127.37)" fill="#263238"/>
      <rect id="Rectangle_213" data-name="Rectangle 213" width="16.231" height="0.527" transform="translate(0 16.203)" fill="#076aff"/>
      <path id="Path_557" data-name="Path 557" d="M138.566,150.81H123.11l.68.369h14.1Z" transform="translate(-122.722 -134.08)" fill="#076aff"/>
      <path id="Path_558" data-name="Path 558" d="M138.566,150.81H123.11l.68.369h14.1Z" transform="translate(-122.722 -134.08)" opacity="0.2"/>
      <path id="Path_559" data-name="Path 559" d="M137.489,100.552h0a.362.362,0,0,1-.359-.359v-1.2a.362.362,0,0,1,.359-.359h0a.362.362,0,0,1,.359.359v1.2A.362.362,0,0,1,137.489,100.552Z" transform="translate(-132.288 -98.478)" fill="#263238"/>
      <rect id="Rectangle_214" data-name="Rectangle 214" width="0.718" height="1.156" rx="0.359" transform="translate(5.779) rotate(90)" fill="#263238"/>
      <path id="Path_560" data-name="Path 560" d="M134.966,105.227v-3.434a.143.143,0,0,0-.14-.143h-.87a.143.143,0,0,0-.14.143v3.434a1.827,1.827,0,0,1-.613,1.366h0a1.849,1.849,0,0,0-.613,1.369v8.81h3.6v-8.81a1.839,1.839,0,0,0-.613-1.369h0A1.833,1.833,0,0,1,134.966,105.227Z" transform="translate(-129.191 -100.538)" fill="#076aff"/>
      <rect id="Rectangle_215" data-name="Rectangle 215" width="2.376" height="5.696" transform="translate(4.623 8.467)" fill="#e0e0e0"/>
      <path id="Path_561" data-name="Path 561" d="M153.619,149.15h-.429a3.193,3.193,0,0,0,.429,0Z" transform="translate(-143.246 -132.947)" fill="#076aff"/>
      <path id="Path_562" data-name="Path 562" d="M161.762,149.15h-.432A3.251,3.251,0,0,0,161.762,149.15Z" transform="translate(-148.8 -132.947)" fill="#076aff"/>
      <path id="Path_563" data-name="Path 563" d="M152.73,128v1.446a2.105,2.105,0,0,0,1.484,2.224v2.542c0,.391-.381.5-.677.527h1.693c-.3-.025-.677-.137-.677-.527v-2.542a2.1,2.1,0,0,0,1.484-2.224V128Z" transform="translate(-142.932 -118.517)" fill="#076aff" opacity="0.2"/>
      <path id="Path_564" data-name="Path 564" d="M199.236,119.822a18.949,18.949,0,0,1-7.2.343C193.765,117.728,197.641,117.013,199.236,119.822Z" transform="translate(-169.753 -111.698)" fill="#263238"/>
      <path id="Path_565" data-name="Path 565" d="M218.842,131.543a.083.083,0,0,1-.064-.032c-.041-.057-.979-1.436-1-5.128a4.275,4.275,0,0,0-1.271-3.406,1.719,1.719,0,0,0-1.509-.343.08.08,0,1,1-.035-.156,1.906,1.906,0,0,1,1.639.372,4.447,4.447,0,0,1,1.338,3.53c.019,3.635.953,5.026.953,5.039a.079.079,0,0,1-.019.111A.089.089,0,0,1,218.842,131.543Z" transform="translate(-185.353 -114.714)" fill="#263238"/>
    </g>
    <g id="freepik--character-2--inject-31" transform="translate(78.512 63.473)">
      <path id="Path_566" data-name="Path 566" d="M297.6,92.25a5.237,5.237,0,0,1,.581,4.13c-1.589-.721-1.341-2.793-1.341-2.793Z" transform="translate(-281.036 -88.889)" fill="#263238"/>
      <path id="Path_567" data-name="Path 567" d="M303.7,137.165l.915,1.007.953,1.023c.635.677,1.271,1.338,1.925,1.973.318.318.635.635.975.915s.635.578.969.836.635.486.931.683a5.177,5.177,0,0,0,.7.394l-.486-.076a.635.635,0,0,0-.413.092.4.4,0,0,0,.184-.064,4.642,4.642,0,0,0,.816-.635,19.978,19.978,0,0,0,1.82-1.979c.607-.728,1.2-1.5,1.785-2.287s1.175-1.589,1.754-2.38l.029-.035a1.433,1.433,0,0,1,2.516,1.271,31.32,31.32,0,0,1-1.115,2.958c-.416.953-.877,1.906-1.4,2.859a19.643,19.643,0,0,1-1.868,2.818,9.559,9.559,0,0,1-1.411,1.423,5.4,5.4,0,0,1-1.121.7,4.162,4.162,0,0,1-1.884.388,1.881,1.881,0,0,1-.356-.048l-.133-.029a8.838,8.838,0,0,1-2-.747,14.18,14.18,0,0,1-1.541-.912,24.44,24.44,0,0,1-2.586-2c-.8-.7-1.544-1.423-2.265-2.164-.356-.375-.712-.75-1.052-1.137s-.667-.766-1.026-1.207a2.859,2.859,0,0,1,4.321-3.7Z" transform="translate(-282.391 -118.783)" fill="#e0e0e0"/>
      <path id="Path_568" data-name="Path 568" d="M356.554,135.466l2.831.137-.918-3.812s-2.634.194-3.056,1.547a.686.686,0,0,0,.025.457l.521,1.249a.683.683,0,0,0,.6.423Z" transform="translate(-320.989 -115.867)" fill="#ff8b7b"/>
      <path id="Path_569" data-name="Path 569" d="M368.527,132.466l-.546-1.271a1.137,1.137,0,0,0-1.312-.654l-1.589.391.918,3.812,1.906-.769a1.134,1.134,0,0,0,.623-1.509Z" transform="translate(-327.606 -114.993)" fill="#ff8b7b"/>
      <path id="Path_570" data-name="Path 570" d="M282.694,246.5c-3.005-13.22-4.864-29.159-4.864-29.159l12.324-.2s-.172,21.48-.146,30.477c.032,9.356.68,29.947.68,29.947h-3.739S282.122,258.06,282.694,246.5Z" transform="translate(-268.075 -174.101)" fill="#263238"/>
      <path id="Path_571" data-name="Path 571" d="M285.931,252.13l-1.951,2.891c.581,3.609,1.271,7.584,2.075,11.479C286.391,260.514,286.334,253.56,285.931,252.13Z" transform="translate(-272.271 -197.975)"/>
      <path id="Path_572" data-name="Path 572" d="M315.967,408.74s-5.15-1.214-5.538-2.03H307.57l.019,3.028h1.766l.27-.28.448.28a35.534,35.534,0,0,0,6.128-.378A.67.67,0,0,0,315.967,408.74Z" transform="translate(-288.367 -303.444)" fill="#263238"/>
      <path id="Path_573" data-name="Path 573" d="M252.665,246.308c1.426-13.3,1.382-22.179,3.12-28.73l11.221-.168s-4.673,21.089-6.843,29.864-5.884,30.468-5.884,30.468h-3.463S249.726,256.589,252.665,246.308Z" transform="translate(-249.508 -174.285)" fill="#263238"/>
      <path id="Path_574" data-name="Path 574" d="M259.686,226.09c-.248,1.589-1.131,10.986-2.046,14.408,7.482,3.32,18.919,2.014,19.272-.14-.1-3.99-.318-14.268-.318-14.268Z" transform="translate(-254.299 -180.208)" fill="#e0e0e0"/>
      <path id="Path_575" data-name="Path 575" d="M265.39,231.58a11.371,11.371,0,0,0,1.878,2.3A2.517,2.517,0,0,1,265.39,231.58Z" transform="translate(-259.587 -183.953)" opacity="0.1"/>
      <path id="Path_576" data-name="Path 576" d="M312.73,234.136a9.3,9.3,0,0,0,1.036-2.056S313.839,233.7,312.73,234.136Z" transform="translate(-291.887 -184.294)" opacity="0.1"/>
      <path id="Path_577" data-name="Path 577" d="M265.513,235.35a7.539,7.539,0,0,0,.759,1.817A1.674,1.674,0,0,1,265.513,235.35Z" transform="translate(-259.64 -186.526)" opacity="0.1"/>
      <path id="Path_578" data-name="Path 578" d="M258.347,408.74s-3.212-1.214-3.58-2.03h-2.859l-.057,3.028h2.341l.276-.28.442.28a12.038,12.038,0,0,0,3.657-.378A.651.651,0,0,0,258.347,408.74Z" transform="translate(-250.349 -303.444)" fill="#263238"/>
      <path id="Path_579" data-name="Path 579" d="M258,133.74a52.476,52.476,0,0,1,13.423.21,4.6,4.6,0,0,1,3.73,3.866c.8,5.735.111,15.755-.4,25.842-8.673,2.967-17.823-.041-17.823-.041-.318-2.033.394-8.7.87-12.26-.715-3.676-2.224-7.885-3.234-12.768A4,4,0,0,1,258,133.74Z" transform="translate(-252.139 -116.972)" fill="#263238"/>
      <path id="Path_580" data-name="Path 580" d="M258,133.74a52.476,52.476,0,0,1,13.423.21,4.6,4.6,0,0,1,3.73,3.866c.8,5.735.111,15.755-.4,25.842-8.673,2.967-17.823-.041-17.823-.041-.318-2.033.394-8.7.87-12.26-.715-3.676-2.224-7.885-3.234-12.768A4,4,0,0,1,258,133.74Z" transform="translate(-252.139 -116.972)" fill="#fff" opacity="0.1"/>
      <path id="Path_581" data-name="Path 581" d="M277.043,110.62l4.511,3.7c-.585,1.554-.769,3.177,1.779,3.79.635.842-.318,2.319-1.449,2.894-2.675-.61-4.216-1.328-5.255-2.754A23.462,23.462,0,0,0,277.043,110.62Z" transform="translate(-267.256 -101.423)" fill="#ff8b7b"/>
      <path id="Path_582" data-name="Path 582" d="M283.437,115.48l2.631,2.154a5.816,5.816,0,0,0-.318,1.112,2.626,2.626,0,0,1-2.5-1.887A3.79,3.79,0,0,1,283.437,115.48Z" transform="translate(-271.77 -104.739)" opacity="0.2"/>
      <path id="Path_583" data-name="Path 583" d="M275.786,92.891c.413,2.831.508,4.508,2.068,5.836a3.828,3.828,0,0,0,6.2-2.542c.4-2.615-.343-6.805-3.225-7.682a3.943,3.943,0,0,0-5.042,4.387Z" transform="translate(-266.647 -86.216)" fill="#ff8b7b"/>
      <path id="Path_584" data-name="Path 584" d="M270.013,89.651a2.224,2.224,0,0,0,2.341.6c-.68-.689-.019-3.212-.7-4.238,1.315.261,6.437,1,6.926-.772.531-1.906-1.589-3.428-2.777-3.571.349.794.318,1.369-.985,1.112s-6.672-1.5-6.078,1.02c-1.728,0-1.846,2.516-.581,3.72A13.025,13.025,0,0,1,270.013,89.651Z" transform="translate(-260.9 -81.67)" fill="#263238"/>
      <path id="Path_585" data-name="Path 585" d="M269.87,85.189c-1.036-.257-.712-1.21-.48-1.309-.969.235-1.322,1.188-.152,1.627S269.87,85.189,269.87,85.189Z" transform="translate(-261.71 -83.178)" fill="#263238"/>
      <path id="Path_586" data-name="Path 586" d="M273.212,104.858a2.459,2.459,0,0,0,1.214,1.452c.778.4,1.344-.257,1.271-1.077-.06-.74-.534-1.836-1.385-1.906a1.121,1.121,0,0,0-1.1,1.531Z" transform="translate(-264.871 -96.446)" fill="#ff8b7b"/>
      <path id="Path_587" data-name="Path 587" d="M288.4,102.043c.019.232.159.41.318.4s.26-.216.241-.445-.159-.41-.318-.4S288.376,101.812,288.4,102.043Z" transform="translate(-275.282 -95.267)" fill="#263238"/>
      <path id="Path_588" data-name="Path 588" d="M297.115,101.833c.019.232.159.41.318.394s.257-.213.238-.445-.159-.407-.318-.394S297.1,101.6,297.115,101.833Z" transform="translate(-281.232 -95.124)" fill="#263238"/>
      <path id="Path_589" data-name="Path 589" d="M295.35,103.77a8.19,8.19,0,0,0,1.271,1.881,1.369,1.369,0,0,1-1.09.318Z" transform="translate(-280.029 -96.749)" fill="#ff5652"/>
      <path id="Path_590" data-name="Path 590" d="M286.72,98.477a.124.124,0,0,1-.067,0,.133.133,0,0,1-.076-.178,1.376,1.376,0,0,1,.925-.845.138.138,0,0,1,.054.27h0a1.09,1.09,0,0,0-.728.677A.137.137,0,0,1,286.72,98.477Z" transform="translate(-274.035 -92.438)" fill="#263238"/>
      <path id="Path_591" data-name="Path 591" d="M299.881,97.644a.133.133,0,0,1-.114-.064,1.074,1.074,0,0,0-.823-.537.137.137,0,0,1-.133-.14.14.14,0,0,1,.143-.133,1.357,1.357,0,0,1,1.048.667.14.14,0,0,1-.044.187A.114.114,0,0,1,299.881,97.644Z" transform="translate(-282.39 -91.973)" fill="#263238"/>
      <path id="Path_592" data-name="Path 592" d="M276.63,134.34s4.629,7.034,6.389,12c1.735-5.823,1.935-10.484.318-12.136C282.816,134.858,280.719,135.747,276.63,134.34Z" transform="translate(-267.256 -117.511)" fill="#e0e0e0"/>
      <path id="Path_593" data-name="Path 593" d="M254.92,142.706l-.448,1.271-.445,1.322c-.3.88-.566,1.763-.816,2.631-.127.435-.238.867-.34,1.293s-.2.848-.27,1.252-.124.794-.159,1.144a5.947,5.947,0,0,0,0,.8l-.165-.464a.677.677,0,0,0-.276-.318.488.488,0,0,0,.143.133,4.589,4.589,0,0,0,.937.419,20.015,20.015,0,0,0,2.583.68c.931.184,1.89.318,2.859.477s1.967.27,2.926.407h.044a1.433,1.433,0,0,1,.073,2.824,31.359,31.359,0,0,1-3.129.432c-1.048.1-2.106.143-3.177.137a19.748,19.748,0,0,1-3.368-.3,9.725,9.725,0,0,1-1.906-.562,5.252,5.252,0,0,1-1.15-.654,4.152,4.152,0,0,1-1.239-1.468,1.907,1.907,0,0,1-.13-.337l-.035-.13a8.9,8.9,0,0,1-.3-2.119,14.2,14.2,0,0,1,.067-1.789,24.094,24.094,0,0,1,.524-3.225c.226-1.036.512-2.036.82-3.025.159-.492.318-.982.5-1.468s.356-.953.575-1.477a2.859,2.859,0,0,1,5.341,2.036Z" transform="translate(-247.125 -120.679)" fill="#e0e0e0"/>
      <path id="Path_594" data-name="Path 594" d="M290.42,187.059l2.808.349L291.678,191s-2.564-.635-2.748-2.046a.671.671,0,0,1,.1-.445l.724-1.141A.686.686,0,0,1,290.42,187.059Z" transform="translate(-275.646 -153.573)" fill="#ff8b7b"/>
      <path id="Path_595" data-name="Path 595" d="M301.247,190.829,300.491,192a1.134,1.134,0,0,1-1.4.419l-1.5-.654,1.55-3.593,1.751,1.083a1.131,1.131,0,0,1,.356,1.576Z" transform="translate(-281.557 -154.335)" fill="#ff8b7b"/>
      <path id="Path_596" data-name="Path 596" d="M274.044,131.2a2.64,2.64,0,0,0-1.534.826,9.213,9.213,0,0,0,5.083,3.4,3.718,3.718,0,0,1,.775-2.415A15.357,15.357,0,0,1,274.044,131.2Z" transform="translate(-264.445 -115.464)" fill="#fafafa"/>
      <path id="Path_597" data-name="Path 597" d="M291.472,131.75a4.368,4.368,0,0,1,1.681.689s1.779,1.986-.318,3.107c.143-.486-.953-1.782-1.935-2.16C292.673,133.122,291.472,131.75,291.472,131.75Z" transform="translate(-276.993 -115.84)" fill="#fafafa"/>
      <path id="Path_598" data-name="Path 598" d="M285.632,138.42c-1.4-.753-3.142-1.569-2.659-.251s-.156,1.776.473,2.224,1.906-.782,2.329-.953S285.632,138.42,285.632,138.42Z" transform="translate(-271.528 -119.742)" fill="#076aff"/>
      <path id="Path_599" data-name="Path 599" d="M294.3,138.489c1.071-.721,2.411-1.5,2.173-.216s.353,1.735-.114,2.17-1.668-.782-2.049-.953S294.3,138.489,294.3,138.489Z" transform="translate(-279.202 -119.82)" fill="#076aff"/>
      <path id="Path_600" data-name="Path 600" d="M290.92,139.655c.318-.191,1.093-.432,1.477.086s.26,1.385-.27,1.49a1.071,1.071,0,0,1-1.036-.365.953.953,0,0,0-.172-1.21Z" transform="translate(-277.006 -121.079)" fill="#076aff"/>
      <path id="Path_601" data-name="Path 601" d="M254.037,403.175l-3.854.108-.2-2.183,4.476.267Z" transform="translate(-249.073 -299.617)"/>
      <path id="Path_602" data-name="Path 602" d="M308.8,402.827l-4.162.114-.461-1.89,4.648-.451Z" transform="translate(-286.054 -299.275)"/>
      <path id="Path_603" data-name="Path 603" d="M276.122,182.523a26.113,26.113,0,0,0-5.979-1.033c-.432.025-.6,9.788-.562,13.782,0,.54,6.214.432,7.8.187.089-1.115.108-9.255.521-11.8a.9.9,0,0,0-.54-.972,2.522,2.522,0,0,0-1.242-.165Z" transform="translate(-262.443 -149.777)" fill="#fff"/>
      <rect id="Rectangle_216" data-name="Rectangle 216" width="17.639" height="0.502" transform="translate(28.569 17.118)" fill="#076aff"/>
      <path id="Path_604" data-name="Path 604" d="M355.112,137.13h-16.9l.648.353h15.609Z" transform="translate(-309.272 -119.51)" fill="#076aff"/>
      <path id="Path_605" data-name="Path 605" d="M355.112,137.13h-16.9l.648.353h15.609Z" transform="translate(-309.272 -119.51)" opacity="0.2"/>
      <path id="Path_606" data-name="Path 606" d="M363.975,111.674a.724.724,0,1,1-.213-.513A.727.727,0,0,1,363.975,111.674Z" transform="translate(-325.859 -101.648)" fill="#076aff"/>
      <path id="Path_607" data-name="Path 607" d="M383.065,119.439a8.009,8.009,0,0,0-2.675-3.838l.2-.251a8.33,8.33,0,0,1,2.783,3.994Z" transform="translate(-338.052 -104.65)" fill="#076aff"/>
      <path id="Path_608" data-name="Path 608" d="M374.539,112.114a7.918,7.918,0,0,0-1.109-.505l.108-.3a8.382,8.382,0,0,1,1.153.537Z" transform="translate(-333.303 -101.893)" fill="#076aff"/>
      <path id="Path_609" data-name="Path 609" d="M349.315,113.23a7.215,7.215,0,0,0-7.215,7.215h14.43A7.215,7.215,0,0,0,349.315,113.23Z" transform="translate(-311.926 -103.203)" fill="#076aff"/>
      <path id="Path_610" data-name="Path 610" d="M344.632,121.3H346.5a.28.28,0,0,0,.27-.229,8.781,8.781,0,0,1,3.428-5.194.251.251,0,0,0-.187-.445,6.586,6.586,0,0,0-5.652,5.557.276.276,0,0,0,.276.311Z" transform="translate(-313.464 -104.707)" fill="#fff" opacity="0.3"/>
      <path id="Path_611" data-name="Path 611" d="M289.184,111.614a2.383,2.383,0,0,0,.445-.022.076.076,0,0,0,.06-.089.089.089,0,0,0-.1-.067,2.224,2.224,0,0,1-1.849-.578.076.076,0,0,0-.111,0,.083.083,0,0,0,0,.111A2.361,2.361,0,0,0,289.184,111.614Z" transform="translate(-274.749 -101.569)" fill="#263238"/>
    </g>
  </g>
</svg>
