<svg width="117" height="94" viewBox="0 0 117 94" fill="none" xmlns="http://www.w3.org/2000/svg">
<rect x="1.25" y="1.25" width="114.5" height="91.5" rx="12.75" fill="#F2F6FC" stroke="#076AFF" stroke-width="1.5" stroke-linejoin="bevel" stroke-dasharray="5 5"/>
<path d="M19.6832 53H17.8196L22.0071 41.3636H24.0355L28.223 53H26.3594L23.0696 43.4773H22.9787L19.6832 53ZM19.9957 48.4432H26.0412V49.9205H19.9957V48.4432ZM32.8935 53.1705C32.1889 53.1705 31.5601 52.9905 31.0071 52.6307C30.4579 52.267 30.026 51.75 29.7116 51.0795C29.401 50.4053 29.2457 49.5966 29.2457 48.6534C29.2457 47.7102 29.4029 46.9034 29.7173 46.233C30.0355 45.5625 30.4711 45.0492 31.0241 44.6932C31.5772 44.3371 32.2041 44.1591 32.9048 44.1591C33.4465 44.1591 33.8821 44.25 34.2116 44.4318C34.545 44.6098 34.8026 44.8182 34.9844 45.0568C35.17 45.2955 35.3139 45.5057 35.4162 45.6875H35.5185V41.3636H37.2173V53H35.5582V51.642H35.4162C35.3139 51.8277 35.1662 52.0398 34.973 52.2784C34.7836 52.517 34.5223 52.7254 34.1889 52.9034C33.8556 53.0814 33.4238 53.1705 32.8935 53.1705ZM33.2685 51.7216C33.7571 51.7216 34.17 51.5928 34.5071 51.3352C34.848 51.0739 35.1056 50.7121 35.2798 50.25C35.4579 49.7879 35.5469 49.25 35.5469 48.6364C35.5469 48.0303 35.4598 47.5 35.2855 47.0455C35.1113 46.5909 34.8556 46.2367 34.5185 45.983C34.1813 45.7292 33.7647 45.6023 33.2685 45.6023C32.7571 45.6023 32.331 45.7348 31.9901 46C31.6491 46.2652 31.3916 46.6269 31.2173 47.0852C31.0469 47.5436 30.9616 48.0606 30.9616 48.6364C30.9616 49.2197 31.0488 49.7443 31.223 50.2102C31.3973 50.6761 31.6548 51.0455 31.9957 51.3182C32.3404 51.5871 32.7647 51.7216 33.2685 51.7216ZM42.9091 53.1705C42.2045 53.1705 41.5758 52.9905 41.0227 52.6307C40.4735 52.267 40.0417 51.75 39.7273 51.0795C39.4167 50.4053 39.2614 49.5966 39.2614 48.6534C39.2614 47.7102 39.4186 46.9034 39.733 46.233C40.0511 45.5625 40.4867 45.0492 41.0398 44.6932C41.5928 44.3371 42.2197 44.1591 42.9205 44.1591C43.4621 44.1591 43.8977 44.25 44.2273 44.4318C44.5606 44.6098 44.8182 44.8182 45 45.0568C45.1856 45.2955 45.3295 45.5057 45.4318 45.6875H45.5341V41.3636H47.233V53H45.5739V51.642H45.4318C45.3295 51.8277 45.1818 52.0398 44.9886 52.2784C44.7992 52.517 44.5379 52.7254 44.2045 52.9034C43.8712 53.0814 43.4394 53.1705 42.9091 53.1705ZM43.2841 51.7216C43.7727 51.7216 44.1856 51.5928 44.5227 51.3352C44.8636 51.0739 45.1212 50.7121 45.2955 50.25C45.4735 49.7879 45.5625 49.25 45.5625 48.6364C45.5625 48.0303 45.4754 47.5 45.3011 47.0455C45.1269 46.5909 44.8712 46.2367 44.5341 45.983C44.197 45.7292 43.7803 45.6023 43.2841 45.6023C42.7727 45.6023 42.3466 45.7348 42.0057 46C41.6648 46.2652 41.4072 46.6269 41.233 47.0852C41.0625 47.5436 40.9773 48.0606 40.9773 48.6364C40.9773 49.2197 41.0644 49.7443 41.2386 50.2102C41.4129 50.6761 41.6705 51.0455 42.0114 51.3182C42.3561 51.5871 42.7803 51.7216 43.2841 51.7216ZM55.7841 41.3636V53H54.0284V41.3636H55.7841ZM58.2045 53V44.2727H59.8352V45.6932H59.9432C60.125 45.2121 60.4223 44.8371 60.8352 44.5682C61.2481 44.2955 61.7424 44.1591 62.3182 44.1591C62.9015 44.1591 63.3902 44.2955 63.7841 44.5682C64.1818 44.8409 64.4754 45.2159 64.6648 45.6932H64.7557C64.964 45.2273 65.2955 44.8561 65.75 44.5795C66.2045 44.2992 66.7462 44.1591 67.375 44.1591C68.1667 44.1591 68.8125 44.4072 69.3125 44.9034C69.8163 45.3996 70.0682 46.1477 70.0682 47.1477V53H68.3693V47.3068C68.3693 46.7159 68.2083 46.2879 67.8864 46.0227C67.5644 45.7576 67.1799 45.625 66.733 45.625C66.1799 45.625 65.75 45.7955 65.4432 46.1364C65.1364 46.4735 64.983 46.9072 64.983 47.4375V53H63.2898V47.1989C63.2898 46.7254 63.142 46.3447 62.8466 46.0568C62.5511 45.7689 62.1667 45.625 61.6932 45.625C61.3712 45.625 61.0739 45.7102 60.8011 45.8807C60.5322 46.0473 60.3144 46.2803 60.1477 46.5795C59.9848 46.8788 59.9034 47.2254 59.9034 47.6193V53H58.2045ZM74.8849 53.1932C74.3319 53.1932 73.8319 53.0909 73.3849 52.8864C72.938 52.678 72.5838 52.3769 72.3224 51.983C72.0649 51.589 71.9361 51.1061 71.9361 50.5341C71.9361 50.0417 72.0308 49.6364 72.2202 49.3182C72.4096 49 72.6652 48.7481 72.9872 48.5625C73.3092 48.3769 73.669 48.2367 74.0668 48.142C74.4645 48.0473 74.8698 47.9754 75.2827 47.9261C75.8054 47.8655 76.2296 47.8163 76.5554 47.7784C76.8812 47.7367 77.1179 47.6705 77.2656 47.5795C77.4134 47.4886 77.4872 47.3409 77.4872 47.1364V47.0966C77.4872 46.6004 77.3471 46.2159 77.0668 45.9432C76.7902 45.6705 76.3774 45.5341 75.8281 45.5341C75.2562 45.5341 74.8054 45.661 74.4759 45.9148C74.1501 46.1648 73.9247 46.4432 73.7997 46.75L72.2031 46.3864C72.3925 45.8561 72.669 45.428 73.0327 45.1023C73.4001 44.7727 73.8224 44.5341 74.2997 44.3864C74.777 44.2348 75.2789 44.1591 75.8054 44.1591C76.1539 44.1591 76.5232 44.2008 76.9134 44.2841C77.3073 44.3636 77.6747 44.5114 78.0156 44.7273C78.3603 44.9432 78.6425 45.2519 78.8622 45.6534C79.0819 46.0511 79.1918 46.5682 79.1918 47.2045V53H77.5327V51.8068H77.4645C77.3546 52.0265 77.1899 52.2424 76.9702 52.4545C76.7505 52.6667 76.4683 52.8428 76.1236 52.983C75.7789 53.1231 75.366 53.1932 74.8849 53.1932ZM75.2543 51.8295C75.724 51.8295 76.1255 51.7367 76.4588 51.5511C76.7959 51.3655 77.0516 51.1231 77.2259 50.8239C77.4039 50.5208 77.4929 50.197 77.4929 49.8523V48.7273C77.4323 48.7879 77.3149 48.8447 77.1406 48.8977C76.9702 48.947 76.7751 48.9905 76.5554 49.0284C76.3357 49.0625 76.1217 49.0947 75.9134 49.125C75.705 49.1515 75.5308 49.1742 75.3906 49.1932C75.0611 49.2348 74.7599 49.3049 74.4872 49.4034C74.2183 49.5019 74.0024 49.6439 73.8395 49.8295C73.6804 50.0114 73.6009 50.2538 73.6009 50.5568C73.6009 50.9773 73.7562 51.2955 74.0668 51.5114C74.3774 51.7235 74.7732 51.8295 75.2543 51.8295ZM85.1136 56.4545C84.4205 56.4545 83.8239 56.3636 83.3239 56.1818C82.8277 56 82.4223 55.7595 82.108 55.4602C81.7936 55.161 81.5587 54.8333 81.4034 54.4773L82.8636 53.875C82.9659 54.0417 83.1023 54.2178 83.2727 54.4034C83.447 54.5928 83.6818 54.7538 83.9773 54.8864C84.2765 55.0189 84.661 55.0852 85.1307 55.0852C85.7746 55.0852 86.3068 54.928 86.7273 54.6136C87.1477 54.303 87.358 53.8068 87.358 53.125V51.4091H87.25C87.1477 51.5947 87 51.8011 86.8068 52.0284C86.6174 52.2557 86.3561 52.4527 86.0227 52.6193C85.6894 52.786 85.2557 52.8693 84.7216 52.8693C84.0322 52.8693 83.411 52.7083 82.858 52.3864C82.3087 52.0606 81.8731 51.5814 81.5511 50.9489C81.233 50.3125 81.0739 49.5303 81.0739 48.6023C81.0739 47.6742 81.2311 46.8788 81.5455 46.2159C81.8636 45.553 82.2992 45.0455 82.8523 44.6932C83.4053 44.3371 84.0322 44.1591 84.733 44.1591C85.2746 44.1591 85.7121 44.25 86.0455 44.4318C86.3788 44.6098 86.6383 44.8182 86.8239 45.0568C87.0133 45.2955 87.1591 45.5057 87.2614 45.6875H87.3864V44.2727H89.0511V53.1932C89.0511 53.9432 88.8769 54.5587 88.5284 55.0398C88.1799 55.5208 87.7083 55.8769 87.1136 56.108C86.5227 56.339 85.8561 56.4545 85.1136 56.4545ZM85.0966 51.4602C85.5852 51.4602 85.9981 51.3466 86.3352 51.1193C86.6761 50.8883 86.9337 50.5587 87.108 50.1307C87.286 49.6989 87.375 49.1818 87.375 48.5795C87.375 47.9924 87.2879 47.4754 87.1136 47.0284C86.9394 46.5814 86.6837 46.233 86.3466 45.983C86.0095 45.7292 85.5928 45.6023 85.0966 45.6023C84.5852 45.6023 84.1591 45.7348 83.8182 46C83.4773 46.2614 83.2197 46.6174 83.0455 47.0682C82.875 47.5189 82.7898 48.0227 82.7898 48.5795C82.7898 49.1515 82.8769 49.6534 83.0511 50.0852C83.2254 50.517 83.483 50.8542 83.8239 51.0966C84.1686 51.339 84.5928 51.4602 85.0966 51.4602ZM95.0909 53.1761C94.2311 53.1761 93.4905 52.9924 92.8693 52.625C92.2519 52.2538 91.7746 51.733 91.4375 51.0625C91.1042 50.3883 90.9375 49.5985 90.9375 48.6932C90.9375 47.7992 91.1042 47.0114 91.4375 46.3295C91.7746 45.6477 92.2443 45.1155 92.8466 44.733C93.4527 44.3504 94.161 44.1591 94.9716 44.1591C95.464 44.1591 95.9413 44.2405 96.4034 44.4034C96.8655 44.5663 97.2803 44.822 97.6477 45.1705C98.0152 45.5189 98.3049 45.9716 98.517 46.5284C98.7292 47.0814 98.8352 47.7538 98.8352 48.5455V49.1477H91.8977V47.875H97.1705C97.1705 47.428 97.0795 47.0322 96.8977 46.6875C96.7159 46.339 96.4602 46.0644 96.1307 45.8636C95.8049 45.6629 95.4223 45.5625 94.983 45.5625C94.5057 45.5625 94.089 45.6799 93.733 45.9148C93.3807 46.1458 93.108 46.4489 92.9148 46.8239C92.7254 47.1951 92.6307 47.5985 92.6307 48.0341V49.0284C92.6307 49.6117 92.733 50.108 92.9375 50.517C93.1458 50.9261 93.4356 51.2386 93.8068 51.4545C94.178 51.6667 94.6117 51.7727 95.108 51.7727C95.4299 51.7727 95.7235 51.7273 95.9886 51.6364C96.2538 51.5417 96.483 51.4015 96.6761 51.2159C96.8693 51.0303 97.017 50.8011 97.1193 50.5284L98.7273 50.8182C98.5985 51.2917 98.3674 51.7064 98.0341 52.0625C97.7045 52.4148 97.2898 52.6894 96.7898 52.8864C96.2936 53.0795 95.7273 53.1761 95.0909 53.1761Z" fill="#B4B4B4"/>
</svg>
