<svg xmlns="http://www.w3.org/2000/svg" width="24.864" height="24.864" viewBox="0 0 24.864 24.864">
  <g id="vuesax_outline_sms" data-name="vuesax/outline/sms" transform="translate(-556 -252)">
    <g id="sms" transform="translate(556 252)">
      <g id="Vector" transform="translate(1.295 2.849)" fill="none">
        <path d="M16.317,19.166H5.957C2.176,19.166,0,16.99,0,13.209V5.957C0,2.176,2.176,0,5.957,0h10.36c3.781,0,5.957,2.176,5.957,5.957v7.252C22.274,16.99,20.1,19.166,16.317,19.166ZM5.957,1.554c-2.963,0-4.4,1.44-4.4,4.4v7.252c0,2.963,1.44,4.4,4.4,4.4h10.36c2.963,0,4.4-1.44,4.4-4.4V5.957c0-2.963-1.44-4.4-4.4-4.4Z" stroke="none"/>
        <path d="M 16.31684684753418 19.16582107543945 L 5.956945896148682 19.16582107543945 C 2.175576210021973 19.16582107543945 -3.866577117150882e-06 16.9902400970459 -3.866577117150882e-06 13.20888042449951 L -3.866577117150882e-06 5.956940650939941 C -3.866577117150882e-06 2.175580501556396 2.175576210021973 5.377196998779254e-07 5.956945896148682 5.377196998779254e-07 L 16.31684684753418 5.377196998779254e-07 C 20.09821701049805 5.377196998779254e-07 22.27379608154297 2.175580501556396 22.27379608154297 5.956940650939941 L 22.27379608154297 13.20888042449951 C 22.27379608154297 16.9902400970459 20.09821701049805 19.16582107543945 16.31684684753418 19.16582107543945 Z M 5.956945896148682 1.553990483283997 C 2.994016170501709 1.553990483283997 1.553986191749573 2.994010448455811 1.553986191749573 5.956940650939941 L 1.553986191749573 13.20888042449951 C 1.553986191749573 16.17181015014648 2.994016170501709 17.61184120178223 5.956945896148682 17.61184120178223 L 16.31684684753418 17.61184120178223 C 19.27978706359863 17.61184120178223 20.71980667114258 16.17181015014648 20.71980667114258 13.20888042449951 L 20.71980667114258 5.956940650939941 C 20.71980667114258 2.994010448455811 19.27978706359863 1.553990483283997 16.31684684753418 1.553990483283997 L 5.956945896148682 1.553990483283997 Z" stroke="none" fill="#076aff"/>
      </g>
      <g id="Vector-2" data-name="Vector" transform="translate(6.472 8.541)" fill="none">
        <path d="M5.96,4.792a3.851,3.851,0,0,1-2.424-.818L.293,1.384A.774.774,0,1,1,1.256.172L4.5,2.762a2.472,2.472,0,0,0,2.911,0L10.653.172A.765.765,0,0,1,11.741.3a.765.765,0,0,1-.124,1.088L8.374,3.974A3.8,3.8,0,0,1,5.96,4.792Z" stroke="none"/>
        <path d="M 5.959752559661865 4.792306900024414 C 5.089512825012207 4.792306900024414 4.208932876586914 4.522956848144531 3.535532712936401 3.973886728286743 L 0.2928826808929443 1.383906841278076 C -0.03863732144236565 1.114546775817871 -0.1007873192429543 0.6276368498802185 0.1685626804828644 0.296116828918457 C 0.4379226863384247 -0.03540320694446564 0.9248425364494324 -0.09755317121744156 1.256362676620483 0.1717968285083771 L 4.499002456665039 2.761776924133301 C 5.28635311126709 3.393726825714111 6.622772693634033 3.39372730255127 7.410132884979248 2.761776924133301 L 10.65278244018555 0.1717968285083771 C 10.98430442810059 -0.09755393117666245 11.48158359527588 -0.04576246067881584 11.74058246612549 0.296116828918457 C 12.00993251800537 0.6276368498802185 11.95814228057861 1.124906778335571 11.61626243591309 1.383906841278076 L 8.373612403869629 3.973886728286743 C 7.710572719573975 4.522956848144531 6.829982757568359 4.792306900024414 5.959752559661865 4.792306900024414 Z" stroke="none" fill="#076aff"/>
      </g>
      <g id="Vector-3" data-name="Vector" fill="none" opacity="0">
        <path d="M0,0H24.864V24.864H0Z" stroke="none"/>
        <path d="M 0.9999942779541016 0.9999942779541016 L 0.9999942779541016 23.86376571655273 L 23.86376571655273 23.86376571655273 L 23.86376571655273 0.9999942779541016 L 0.9999942779541016 0.9999942779541016 M -5.7220458984375e-06 -5.7220458984375e-06 L 24.86376571655273 -5.7220458984375e-06 L 24.86376571655273 24.86376571655273 L -5.7220458984375e-06 24.86376571655273 L -5.7220458984375e-06 -5.7220458984375e-06 Z" stroke="none" fill="#076aff"/>
      </g>
    </g>
  </g>
</svg>
