<svg xmlns="http://www.w3.org/2000/svg" width="24" height="24" viewBox="0 0 24 24">
  <g id="vuesax_outline_setting-5" data-name="vuesax/outline/setting-5" transform="translate(24) rotate(90)">
    <g id="setting-5" transform="translate(0 0)">
      <path id="Vector" d="M.75,12.5A.755.755,0,0,1,0,11.75V.75A.755.755,0,0,1,.75,0,.755.755,0,0,1,1.5.75v11A.755.755,0,0,1,.75,12.5Z" transform="translate(18.25 10.25)" fill="#2f2e41"/>
      <path id="Vector-2" data-name="Vector" d="M.75,6.5A.755.755,0,0,1,0,5.75v-5A.755.755,0,0,1,.75,0,.755.755,0,0,1,1.5.75v5A.755.755,0,0,1,.75,6.5Z" transform="translate(18.25 1.25)" fill="#2f2e41"/>
      <path id="Vector-3" data-name="Vector" d="M.75,6.5A.755.755,0,0,1,0,5.75v-5A.755.755,0,0,1,.75,0,.755.755,0,0,1,1.5.75v5A.755.755,0,0,1,.75,6.5Z" transform="translate(11.25 16.25)" fill="#2f2e41"/>
      <path id="Vector-4" data-name="Vector" d="M.75,12.5A.755.755,0,0,1,0,11.75V.75A.755.755,0,0,1,.75,0,.755.755,0,0,1,1.5.75v11A.755.755,0,0,1,.75,12.5Z" transform="translate(11.25 1.25)" fill="#2f2e41"/>
      <path id="Vector-5" data-name="Vector" d="M.75,12.5A.755.755,0,0,1,0,11.75V.75A.755.755,0,0,1,.75,0,.755.755,0,0,1,1.5.75v11A.755.755,0,0,1,.75,12.5Z" transform="translate(4.25 10.25)" fill="#2f2e41"/>
      <path id="Vector-6" data-name="Vector" d="M.75,6.5A.755.755,0,0,1,0,5.75v-5A.755.755,0,0,1,.75,0,.755.755,0,0,1,1.5.75v5A.755.755,0,0,1,.75,6.5Z" transform="translate(4.25 1.25)" fill="#2f2e41"/>
      <path id="Vector-7" data-name="Vector" d="M4.75,1.5h-4A.755.755,0,0,1,0,.75.755.755,0,0,1,.75,0h4A.755.755,0,0,1,5.5.75.755.755,0,0,1,4.75,1.5Z" transform="translate(2.25 10.25)" fill="#2f2e41"/>
      <path id="Vector-8" data-name="Vector" d="M4.75,1.5h-4A.755.755,0,0,1,0,.75.755.755,0,0,1,.75,0h4A.755.755,0,0,1,5.5.75.755.755,0,0,1,4.75,1.5Z" transform="translate(16.25 10.25)" fill="#2f2e41"/>
      <path id="Vector-9" data-name="Vector" d="M4.75,1.5h-4A.755.755,0,0,1,0,.75.755.755,0,0,1,.75,0h4A.755.755,0,0,1,5.5.75.755.755,0,0,1,4.75,1.5Z" transform="translate(9.25 12.25)" fill="#2f2e41"/>
      <path id="Vector-10" data-name="Vector" d="M0,0H24V24H0Z" fill="none" opacity="0"/>
    </g>
  </g>
</svg>
