<svg xmlns="http://www.w3.org/2000/svg" width="24" height="24" viewBox="0 0 24 24">
  <g id="vuesax_outline_global" data-name="vuesax/outline/global" transform="translate(-172 -252)">
    <g id="global">
      <g id="Vector" transform="translate(173.25 253.25)" fill="none">
        <path d="M10.75,21.5A10.75,10.75,0,1,1,21.5,10.75,10.759,10.759,0,0,1,10.75,21.5Zm0-20A9.25,9.25,0,1,0,20,10.75,9.261,9.261,0,0,0,10.75,1.5Z" stroke="none"/>
        <path d="M 10.75 21.5 C 4.820000171661377 21.5 0 16.68000030517578 0 10.75 C 0 4.820000171661377 4.820000171661377 0 10.75 0 C 16.68000030517578 0 21.5 4.820000171661377 21.5 10.75 C 21.5 16.68000030517578 16.68000030517578 21.5 10.75 21.5 Z M 10.75 1.5 C 5.650000095367432 1.5 1.5 5.650000095367432 1.5 10.75 C 1.5 15.85000038146973 5.650000095367432 20 10.75 20 C 15.85000038146973 20 20 15.85000038146973 20 10.75 C 20 5.650000095367432 15.85000038146973 1.5 10.75 1.5 Z" stroke="none" fill="#076aff"/>
      </g>
      <g id="Vector-2" data-name="Vector" transform="translate(178.803 254.25)" fill="none">
        <path d="M2.2,19.5h-1a.755.755,0,0,1-.75-.75.745.745,0,0,1,.73-.75,29.49,29.49,0,0,1,0-16.5A.745.745,0,0,1,.448.75.755.755,0,0,1,1.2,0h1a.767.767,0,0,1,.61.31.751.751,0,0,1,.1.68,27.948,27.948,0,0,0,0,17.53.751.751,0,0,1-.1.68A.787.787,0,0,1,2.2,19.5Z" stroke="none"/>
        <path d="M 2.197500228881836 19.5 L 1.197500109672546 19.5 C 0.7875001430511475 19.5 0.4475001394748688 19.15999984741211 0.4475001394748688 18.75 C 0.4475001394748688 18.34000015258789 0.7675001621246338 18.01000022888184 1.177500128746033 18 C -0.3924998641014099 12.64000034332275 -0.3924998641014099 6.860000133514404 1.177500128746033 1.5 C 0.7675001621246338 1.490000009536743 0.4475001394748688 1.159999966621399 0.4475001394748688 0.75 C 0.4475001394748688 0.3400000035762787 0.7875001430511475 0 1.197500109672546 0 L 2.197500228881836 0 C 2.437500238418579 0 2.667500019073486 0.119999997317791 2.807500123977661 0.3100000023841858 C 2.947500228881836 0.5099999904632568 2.987500190734863 0.7599999904632568 2.907500028610229 0.9900000095367432 C 1.027500152587891 6.639999866485596 1.027500152587891 12.85999965667725 2.907500028610229 18.52000045776367 C 2.987500190734863 18.75 2.947500228881836 19 2.807500123977661 19.20000076293945 C 2.667500019073486 19.3799991607666 2.437500238418579 19.5 2.197500228881836 19.5 Z" stroke="none" fill="#076aff"/>
      </g>
      <g id="Vector-3" data-name="Vector" transform="translate(186.248 254.242)" fill="none">
        <path d="M.752,19.508a.672.672,0,0,1-.24-.04.745.745,0,0,1-.47-.95,27.948,27.948,0,0,0,0-17.53.749.749,0,0,1,1.42-.48,29.318,29.318,0,0,1,0,18.47A.744.744,0,0,1,.752,19.508Z" stroke="none"/>
        <path d="M 0.7523501515388489 19.50848007202148 C 0.6723501682281494 19.50848007202148 0.59235018491745 19.49847984313965 0.5123501420021057 19.46847915649414 C 0.1223501637578011 19.33847999572754 -0.09764983505010605 18.90847969055176 0.0423501618206501 18.51848030090332 C 1.922350168228149 12.86847972869873 1.922350168228149 6.64847993850708 0.0423501618206501 0.9884798526763916 C -0.08764983713626862 0.5984798669815063 0.1223501637578011 0.1684798747301102 0.5123501420021057 0.03847987949848175 C 0.9123504161834717 -0.09152011573314667 1.332350254058838 0.1184798926115036 1.462350130081177 0.50847989320755 C 3.45235013961792 6.468480110168457 3.45235013961792 13.02847957611084 1.462350130081177 18.97847938537598 C 1.362350106239319 19.30847930908203 1.062350153923035 19.50848007202148 0.7523501515388489 19.50848007202148 Z" stroke="none" fill="#076aff"/>
      </g>
      <g id="Vector-4" data-name="Vector" transform="translate(174.25 266.249)" fill="none">
        <path d="M9.75,2.951A29.176,29.176,0,0,1,1.5,1.771.75.75,0,0,1,0,1.751v-1A.767.767,0,0,1,.31.141a.751.751,0,0,1,.68-.1,27.948,27.948,0,0,0,17.53,0,.751.751,0,0,1,.68.1.74.74,0,0,1,.31.61v1a.755.755,0,0,1-.75.75.745.745,0,0,1-.75-.73A29.3,29.3,0,0,1,9.75,2.951Z" stroke="none"/>
        <path d="M 9.75 2.9507737159729 C 6.960000038146973 2.9507737159729 4.180000305175781 2.560773611068726 1.50000011920929 1.770773768424988 C 1.490000128746033 2.17077374458313 1.160000085830688 2.500773668289185 0.7500001192092896 2.500773668289185 C 0.3400001227855682 2.500773668289185 1.144409154107962e-07 2.160773754119873 1.144409154107962e-07 1.750773668289185 L 1.144409154107962e-07 0.7507737278938293 C 1.144409154107962e-07 0.5107737183570862 0.1200001165270805 0.2807736992835999 0.3100001215934753 0.1407737135887146 C 0.5100001096725464 0.0007736962288618088 0.7600001096725464 -0.03922627493739128 0.9900001287460327 0.04077371209859848 C 6.640000343322754 1.92077374458313 12.86999893188477 1.920773386955261 18.52000045776367 0.04077371209859848 C 18.75 -0.03922698274254799 19 0.0007743353489786386 19.20000076293945 0.1407737135887146 C 19.39999961853027 0.2807736992835999 19.51000022888184 0.5107737183570862 19.51000022888184 0.7507737278938293 L 19.51000022888184 1.750773668289185 C 19.51000022888184 2.160773754119873 19.17000007629395 2.500773668289185 18.76000022888184 2.500773668289185 C 18.35000038146973 2.500773668289185 18.02000045776367 2.180773735046387 18.01000022888184 1.770773768424988 C 15.31999969482422 2.560773611068726 12.53999996185303 2.9507737159729 9.75 2.9507737159729 Z" stroke="none" fill="#076aff"/>
      </g>
      <g id="Vector-5" data-name="Vector" transform="translate(174.246 258.797)" fill="none">
        <path d="M18.754,2.953a.672.672,0,0,1-.24-.04,27.948,27.948,0,0,0-17.53,0,.749.749,0,0,1-.95-.47.763.763,0,0,1,.48-.95,29.318,29.318,0,0,1,18.47,0,.745.745,0,0,1,.47.95A.729.729,0,0,1,18.754,2.953Z" stroke="none"/>
        <path d="M 18.75369071960449 2.952500104904175 C 18.67369079589844 2.952500104904175 18.59369087219238 2.942500114440918 18.51369094848633 2.912500143051147 C 12.86369132995605 1.032500147819519 6.633691787719727 1.03249990940094 0.9836907386779785 2.912500143051147 C 0.5836905241012573 3.04249906539917 0.1636907011270523 2.832499742507935 0.03369072079658508 2.442500114440918 C -0.0863092839717865 2.042500019073486 0.1236907169222832 1.622500061988831 0.513690710067749 1.492500066757202 C 6.473690986633301 -0.4975000023841858 13.03368949890137 -0.4975000023841858 18.98369026184082 1.492500066757202 C 19.37369155883789 1.622500061988831 19.59369087219238 2.052500009536743 19.45369148254395 2.442500114440918 C 19.36369132995605 2.752500057220459 19.06369018554688 2.952500104904175 18.75369071960449 2.952500104904175 Z" stroke="none" fill="#076aff"/>
      </g>
      <g id="Vector-6" data-name="Vector" transform="translate(172 252)" fill="none" opacity="0">
        <path d="M0,0H24V24H0Z" stroke="none"/>
        <path d="M 1 1 L 1 23 L 23 23 L 23 1 L 1 1 M 0 0 L 24 0 L 24 24 L 0 24 L 0 0 Z" stroke="none" fill="#076aff"/>
      </g>
    </g>
  </g>
</svg>
