<svg xmlns="http://www.w3.org/2000/svg" width="26.797" height="26.797" viewBox="0 0 26.797 26.797">
  <g id="vuesax_bold_heart" data-name="vuesax/bold/heart" transform="translate(-236 -188)">
    <g id="heart" transform="translate(236 188)">
      <g id="Vector" transform="translate(2.233 3.461)" fill="#428dff">
        <path d="M 11.16546630859375 18.87453269958496 C 10.97897624969482 18.87453269958496 10.85176658630371 18.84719276428223 10.80600643157959 18.8310432434082 L 10.8006763458252 18.82916259765625 L 10.79531669616699 18.82734298706055 C 9.597455978393555 18.41977310180664 7.664326190948486 17.42291259765625 5.83116626739502 15.84744262695312 C 4.369296073913574 14.59106254577637 2.43713641166687 12.49357318878174 1.534136295318604 9.635952949523926 L 1.533106327056885 9.632693290710449 L 1.532046318054199 9.629443168640137 C 1.179006338119507 8.538203239440918 0.9999963045120239 7.398333072662354 0.9999963045120239 6.241492748260498 C 0.9999963045120239 3.351322889328003 3.336296319961548 1.000002861022949 6.207996368408203 1.000002861022949 C 7.832226276397705 1.000002861022949 9.38615608215332 1.780922889709473 10.36475658416748 3.088952779769897 L 11.16546630859375 4.159213066101074 L 11.96617603302002 3.088952779769897 C 12.94477653503418 1.780922889709473 14.49870586395264 1.000002861022949 16.1229362487793 1.000002861022949 C 18.99463653564453 1.000002861022949 21.33093643188477 3.351322889328003 21.33093643188477 6.241492748260498 C 21.33093643188477 7.398333072662354 21.15192604064941 8.538203239440918 20.79888725280762 9.629443168640137 L 20.79782676696777 9.632693290710449 L 20.79679679870605 9.635952949523926 C 19.89379692077637 12.49357318878174 17.96163558959961 14.59106254577637 16.49976539611816 15.84744262695312 C 14.66660594940186 17.42291259765625 12.73347663879395 18.41977310180664 11.53561592102051 18.82734298706055 L 11.5302562713623 18.82916259765625 L 11.52492618560791 18.8310432434082 C 11.47916603088379 18.84719276428223 11.35195636749268 18.87453269958496 11.16546630859375 18.87453269958496 Z" stroke="none"/>
        <path d="M 6.207996368408203 2.000003814697266 C 3.887697219848633 2.000003814697266 1.999996185302734 3.90272331237793 1.999996185302734 6.241493225097656 C 1.999996185302734 7.293672561645508 2.162666320800781 8.329973220825195 2.483495712280273 9.321622848510742 L 2.487655639648438 9.334632873535156 C 3.319755554199219 11.96785354614258 5.119596481323242 13.91732215881348 6.482966423034668 15.08904266357422 C 8.192950248718262 16.55866241455078 9.976630210876465 17.48686599731445 11.08822059631348 17.87062835693359 C 11.10487842559814 17.87247467041016 11.13174343109131 17.8745231628418 11.16546630859375 17.8745231628418 C 11.19918918609619 17.8745231628418 11.22605419158936 17.87247467041016 11.24271202087402 17.87062835693359 C 12.35430240631104 17.48686599731445 14.13798236846924 16.55866241455078 15.84796619415283 15.08904266357422 C 17.21133613586426 13.91732215881348 19.01117706298828 11.96785354614258 19.84327697753906 9.334632873535156 L 19.84743690490723 9.321622848510742 C 20.16826629638672 8.329973220825195 20.33093643188477 7.293672561645508 20.33093643188477 6.241493225097656 C 20.33093643188477 3.90272331237793 18.4432373046875 2.000003814697266 16.1229362487793 2.000003814697266 C 14.812255859375 2.000003814697266 13.55765628814697 2.631032943725586 12.76688671112061 3.688003540039062 L 11.16546630859375 5.828522682189941 L 9.564045906066895 3.688003540039062 C 8.773276329040527 2.631032943725586 7.5186767578125 2.000003814697266 6.207996368408203 2.000003814697266 M 6.207996368408203 3.814697265625e-06 C 8.228946685791016 3.814697265625e-06 10.03775596618652 0.9825630187988281 11.16546630859375 2.489902496337891 C 12.29317665100098 0.9825630187988281 14.10198593139648 3.814697265625e-06 16.1229362487793 3.814697265625e-06 C 19.55073547363281 3.814697265625e-06 22.33093643188477 2.791362762451172 22.33093643188477 6.241493225097656 C 22.33093643188477 7.570182800292969 22.1187858581543 8.798382759094238 21.75032615661621 9.937262535095215 C 19.98618698120117 15.51999282836914 14.54860687255859 18.85847282409668 11.85772609710693 19.7740421295166 C 11.4780969619751 19.90802192687988 10.8528356552124 19.90802192687988 10.47320652008057 19.7740421295166 C 7.782326698303223 18.85847282409668 2.344745635986328 15.51999282836914 0.5806064605712891 9.937262535095215 C 0.2121467590332031 8.798382759094238 -3.814697265625e-06 7.570182800292969 -3.814697265625e-06 6.241493225097656 C -3.814697265625e-06 2.791362762451172 2.780197143554688 3.814697265625e-06 6.207996368408203 3.814697265625e-06 Z" stroke="none" fill="#428dff"/>
      </g>
      <g id="Vector-2" data-name="Vector" transform="translate(26.797 26.797) rotate(180)" fill="#428dff" opacity="0">
        <path d="M 25.797119140625 25.797119140625 L 0.9999995827674866 25.797119140625 L 0.9999995827674866 0.9999995827674866 L 25.797119140625 0.9999995827674866 L 25.797119140625 25.797119140625 Z" stroke="none"/>
        <path d="M 2 2 L 2 24.797119140625 L 24.797119140625 24.797119140625 L 24.797119140625 2 L 2 2 M 0 0 L 26.797119140625 0 L 26.797119140625 26.797119140625 L 0 26.797119140625 L 0 0 Z" stroke="none" fill="#428dff"/>
      </g>
    </g>
  </g>
</svg>
