<svg xmlns="http://www.w3.org/2000/svg" width="24" height="24" viewBox="0 0 24 24">
  <g id="vuesax_outline_briefcase" data-name="vuesax/outline/briefcase" transform="translate(-108 -188)">
    <g id="briefcase">
      <g id="Vector" transform="translate(109.498 193.26)" fill="none">
        <path d="M14.5,17.49h-8c-4.62,0-5.48-2.15-5.7-4.24L.052,5.24a4.742,4.742,0,0,1,.9-3.76C1.852.48,3.342,0,5.5,0h10c2.17,0,3.66.49,4.55,1.48a4.756,4.756,0,0,1,.9,3.77l-.75,7.99C19.982,15.34,19.122,17.49,14.5,17.49Zm-9-16c-1.69,0-2.85.33-3.44.99a3.236,3.236,0,0,0-.52,2.61l.75,8.01c.17,1.58.6,2.89,4.21,2.89h8c3.6,0,4.04-1.31,4.21-2.9l.75-7.99a3.25,3.25,0,0,0-.52-2.62c-.59-.66-1.75-.99-3.44-.99Z" stroke="none"/>
        <path d="M 14.50217914581299 17.48999977111816 L 6.502179145812988 17.48999977111816 C 1.882179141044617 17.48999977111816 1.022179126739502 15.34000015258789 0.8021791577339172 13.25 L 0.05217914655804634 5.239999771118164 C -0.05782085284590721 4.190000057220459 -0.08782085776329041 2.639999866485596 0.9521791338920593 1.479999899864197 C 1.852179169654846 0.4799998998641968 3.3421790599823 -1.144409225162235e-07 5.502179145812988 -1.144409225162235e-07 L 15.50217914581299 -1.144409225162235e-07 C 17.67217826843262 -1.144409225162235e-07 19.16217994689941 0.4899998903274536 20.05217933654785 1.479999899864197 C 21.09217834472656 2.639999866485596 21.06217956542969 4.190000057220459 20.95217895507812 5.25 L 20.20217895507812 13.23999977111816 C 19.98217964172363 15.34000015258789 19.12217903137207 17.48999977111816 14.50217914581299 17.48999977111816 Z M 5.502179145812988 1.489999890327454 C 3.812179088592529 1.489999890327454 2.65217924118042 1.819999933242798 2.062179088592529 2.479999780654907 C 1.572179198265076 3.019999980926514 1.412179112434387 3.849999904632568 1.542179107666016 5.089999675750732 L 2.292179107666016 13.09999942779541 C 2.462179183959961 14.68000030517578 2.892179250717163 15.98999977111816 6.502179145812988 15.98999977111816 L 14.50217914581299 15.98999977111816 C 18.1021785736084 15.98999977111816 18.54217910766602 14.68000030517578 18.71217918395996 13.09000015258789 L 19.46217918395996 5.099999904632568 C 19.59217834472656 3.849999904632568 19.43217849731445 3.019999980926514 18.94217872619629 2.479999780654907 C 18.3521785736084 1.819999933242798 17.19217872619629 1.489999890327454 15.50217914581299 1.489999890327454 L 5.502179145812988 1.489999890327454 Z" stroke="none" fill="#076aff"/>
      </g>
      <g id="Vector-2" data-name="Vector" transform="translate(115.25 189.25)" fill="none">
        <path d="M8.75,5.5A.755.755,0,0,1,8,4.75v-.8C8,2.17,8,1.5,5.55,1.5H3.95C1.5,1.5,1.5,2.17,1.5,3.95v.8a.755.755,0,0,1-.75.75A.755.755,0,0,1,0,4.75v-.8C0,2.19,0,0,3.95,0h1.6C9.5,0,9.5,2.19,9.5,3.95v.8A.755.755,0,0,1,8.75,5.5Z" stroke="none"/>
        <path d="M 8.75 5.5 C 8.340000152587891 5.5 8 5.159999847412109 8 4.75 L 8 3.950000047683716 C 8 2.170000076293945 8 1.5 5.550000190734863 1.5 L 3.950000047683716 1.5 C 1.5 1.5 1.5 2.170000076293945 1.5 3.950000047683716 L 1.5 4.75 C 1.5 5.159999847412109 1.159999966621399 5.5 0.75 5.5 C 0.3400000035762787 5.5 0 5.159999847412109 0 4.75 L 0 3.950000047683716 C 0 2.190000057220459 0 -4.440892098500626e-16 3.950000047683716 -4.440892098500626e-16 L 5.550000190734863 -4.440892098500626e-16 C 9.5 -4.440892098500626e-16 9.5 2.190000057220459 9.5 3.950000047683716 L 9.5 4.75 C 9.5 5.159999847412109 9.159999847412109 5.5 8.75 5.5 Z" stroke="none" fill="#076aff"/>
      </g>
      <g id="Vector-3" data-name="Vector" transform="translate(117.25 199.25)" fill="none">
        <path d="M2.75,5.5C0,5.5,0,3.8,0,2.78V1.75C0,.34.34,0,1.75,0h2C5.16,0,5.5.34,5.5,1.75v1C5.5,3.79,5.5,5.5,2.75,5.5ZM1.5,1.5V2.78C1.5,3.81,1.5,4,2.75,4S4,3.84,4,2.77V1.5H1.5Z" stroke="none"/>
        <path d="M 2.75 5.5 C -4.440892098500626e-16 5.5 -4.440892098500626e-16 3.799999952316284 -4.440892098500626e-16 2.779999971389771 L -4.440892098500626e-16 1.75 C -4.440892098500626e-16 0.3400000035762787 0.3400000035762787 -4.440892098500626e-16 1.75 -4.440892098500626e-16 L 3.75 -4.440892098500626e-16 C 5.159999847412109 -4.440892098500626e-16 5.5 0.3400000035762787 5.5 1.75 L 5.5 2.75 C 5.5 3.789999961853027 5.5 5.5 2.75 5.5 Z M 1.5 1.5 C 1.5 1.580000042915344 1.5 1.669999957084656 1.5 1.75 L 1.5 2.779999971389771 C 1.5 3.809999942779541 1.5 4 2.75 4 C 4 4 4 3.839999914169312 4 2.769999980926514 L 4 1.75 C 4 1.669999957084656 4 1.580000042915344 4 1.5 C 3.920000076293945 1.5 3.829999923706055 1.5 3.75 1.5 L 1.75 1.5 C 1.669999957084656 1.5 1.580000042915344 1.5 1.5 1.5 Z" stroke="none" fill="#076aff"/>
      </g>
      <g id="Vector-4" data-name="Vector" transform="translate(121.254 198.244)" fill="none">
        <path d="M.746,4.526a.746.746,0,0,1-.74-.66.753.753,0,0,1,.65-.84,15.775,15.775,0,0,0,7.3-2.88.745.745,0,0,1,1.05.17.754.754,0,0,1-.17,1.05,17.364,17.364,0,0,1-8,3.16Z" stroke="none"/>
        <path d="M 0.8356055021286011 4.526099681854248 C 0.8056054711341858 4.526099681854248 0.7756054997444153 4.526099681854248 0.74560546875 4.526099681854248 C 0.3756054937839508 4.526099681854248 0.04560548812150955 4.246099472045898 0.005605487618595362 3.86609959602356 C -0.04439451172947884 3.456099510192871 0.2456054836511612 3.076099634170532 0.6556054949760437 3.026099681854248 C 3.295605421066284 2.696099519729614 5.825605392456055 1.696099638938904 7.955605506896973 0.1460996270179749 C 8.285606384277344 -0.1039012968540192 8.755606651306152 -0.02389956638216972 9.005605697631836 0.316099613904953 C 9.24560546875 0.6460996270179749 9.175605773925781 1.11609959602356 8.835605621337891 1.36609959602356 C 6.49560546875 3.066099643707275 3.735605478286743 4.156099796295166 0.8356055021286011 4.526099681854248 Z" stroke="none" fill="#076aff"/>
      </g>
      <g id="Vector-5" data-name="Vector" transform="translate(109.863 198.523)" fill="none">
        <path d="M8.137,4.257h-.09a17.152,17.152,0,0,1-7.72-2.89.749.749,0,0,1,.84-1.24,15.753,15.753,0,0,0,7.04,2.64.751.751,0,0,1,.66.83A.722.722,0,0,1,8.137,4.257Z" stroke="none"/>
        <path d="M 8.137441635131836 4.257441520690918 C 8.107441902160645 4.257441520690918 8.077441215515137 4.257441520690918 8.047441482543945 4.257441520690918 C 5.307441711425781 3.947441339492798 2.637441635131836 2.947441339492798 0.3274416029453278 1.367441415786743 C -0.01255838386714458 1.137441396713257 -0.1025583818554878 0.6674414277076721 0.1274416148662567 0.3274414539337158 C 0.3574415743350983 -0.01255848724395037 0.8274414539337158 -0.1025586128234863 1.167441606521606 0.1274414509534836 C 3.277441501617432 1.567441463470459 5.707441806793213 2.477441549301147 8.207441329956055 2.767441511154175 C 8.617441177368164 2.817441463470459 8.917441368103027 3.187441349029541 8.867441177368164 3.597441434860229 C 8.837441444396973 3.977441549301147 8.517441749572754 4.257441520690918 8.137441635131836 4.257441520690918 Z" stroke="none" fill="#076aff"/>
      </g>
      <g id="Vector-6" data-name="Vector" transform="translate(108 188)" fill="none" opacity="0">
        <path d="M0,0H24V24H0Z" stroke="none"/>
        <path d="M 1 1 L 1 23 L 23 23 L 23 1 L 1 1 M 0 0 L 24 0 L 24 24 L 0 24 L 0 0 Z" stroke="none" fill="#076aff"/>
      </g>
    </g>
  </g>
</svg>
