<svg xmlns="http://www.w3.org/2000/svg" width="24" height="24" viewBox="0 0 24 24">
  <g id="vuesax_outline_search-normal" data-name="vuesax/outline/search-normal" transform="translate(-108 -188)">
    <g id="search-normal">
      <g id="Vector" transform="translate(109.25 189.25)" fill="none">
        <path d="M9.75,19.5A9.75,9.75,0,1,1,19.5,9.75,9.756,9.756,0,0,1,9.75,19.5Zm0-18A8.25,8.25,0,1,0,18,9.75,8.258,8.258,0,0,0,9.75,1.5Z" stroke="none"/>
        <path d="M 9.75 19.5 C 4.369999885559082 19.5 0 15.13000011444092 0 9.75 C 0 4.369999885559082 4.369999885559082 0 9.75 0 C 15.13000011444092 0 19.5 4.369999885559082 19.5 9.75 C 19.5 15.13000011444092 15.13000011444092 19.5 9.75 19.5 Z M 9.75 1.5 C 5.199999809265137 1.5 1.5 5.199999809265137 1.5 9.75 C 1.5 14.30000019073486 5.199999809265137 18 9.75 18 C 14.30000019073486 18 18 14.30000019073486 18 9.75 C 18 5.199999809265137 14.30000019073486 1.5 9.75 1.5 Z" stroke="none" fill="#076aff"/>
      </g>
      <g id="Vector-2" data-name="Vector" transform="translate(125.991 206)" fill="none">
        <path d="M2.169,4.79a1.641,1.641,0,0,1-.23-.02c-.47-.06-1.32-.38-1.8-1.81A2.266,2.266,0,0,1,.389.89,2.272,2.272,0,0,1,2.279,0a2.322,2.322,0,0,1,2.18,1.08,2.355,2.355,0,0,1-.31,2.42A2.406,2.406,0,0,1,2.169,4.79Zm-.6-2.3c.17.52.41.78.57.8s.46-.17.77-.62c.29-.43.31-.74.24-.88s-.35-.29-.87-.29a.807.807,0,0,0-.67.27A.8.8,0,0,0,1.569,2.49Z" stroke="none"/>
        <path d="M 2.168877840042114 4.789999961853027 C 2.08887767791748 4.789999961853027 2.008877754211426 4.78000020980835 1.938877820968628 4.769999980926514 C 1.468877792358398 4.710000038146973 0.6188777685165405 4.389999866485596 0.1388777792453766 2.960000038146973 C -0.1111222207546234 2.210000038146973 -0.02112221717834473 1.460000038146973 0.3888777792453766 0.8899999856948853 C 0.7988777756690979 0.3199999928474426 1.488877773284912 -1.907348590179936e-08 2.278877735137939 -1.907348590179936e-08 C 3.298877716064453 -1.907348590179936e-08 4.098877906799316 0.3899999856948853 4.458877563476562 1.079999923706055 C 4.818877696990967 1.769999980926514 4.718877792358398 2.650000095367432 4.148877620697021 3.5 C 3.438877820968628 4.570000171661377 2.668877840042114 4.789999961853027 2.168877840042114 4.789999961853027 Z M 2.278877735137939 1.5 C 1.968877792358398 1.5 1.738877773284912 1.600000023841858 1.608877778053284 1.769999980926514 C 1.488877773284912 1.939999938011169 1.468877792358398 2.200000047683716 1.568877816200256 2.490000009536743 C 1.738877773284912 3.009999990463257 1.978877782821655 3.269999980926514 2.138877868652344 3.289999961853027 C 2.298878908157349 3.309999227523804 2.598877668380737 3.119999885559082 2.908877849578857 2.670000076293945 C 3.198877811431885 2.240000009536743 3.218877792358398 1.929999947547913 3.148877859115601 1.789999961853027 C 3.078877687454224 1.649999976158142 2.798877716064453 1.5 2.278877735137939 1.5 Z" stroke="none" fill="#076aff"/>
      </g>
      <g id="Vector-3" data-name="Vector" transform="translate(108 188)" fill="none" opacity="0">
        <path d="M0,0H24V24H0Z" stroke="none"/>
        <path d="M 1 1 L 1 23 L 23 23 L 23 1 L 1 1 M 0 0 L 24 0 L 24 24 L 0 24 L 0 0 Z" stroke="none" fill="#076aff"/>
      </g>
    </g>
  </g>
</svg>
