<svg xmlns="http://www.w3.org/2000/svg" width="24" height="24" viewBox="0 0 24 24">
  <g id="vuesax_linear_add-circle" data-name="vuesax/linear/add-circle" transform="translate(-108 -252)">
    <path id="Vector" d="M10,20A10,10,0,1,0,0,10,10.029,10.029,0,0,0,10,20Z" transform="translate(110 254)" fill="#428dff" stroke="#428dff" stroke-linecap="round" stroke-linejoin="round" stroke-width="1.5"/>
    <path id="Vector-2" data-name="Vector" d="M0,0H8" transform="translate(116 264)" fill="#fff" stroke="#fff" stroke-linecap="round" stroke-linejoin="round" stroke-width="1.5"/>
    <path id="Vector-3" data-name="Vector" d="M0,8V0" transform="translate(120 260)" fill="#fff" stroke="#fff" stroke-linecap="round" stroke-linejoin="round" stroke-width="1.5"/>
    <g id="Vector-4" data-name="Vector" transform="translate(108 252)" fill="#428dff" opacity="0">
      <path d="M 23.5 23.5 L 0.5 23.5 L 0.5 0.5 L 23.5 0.5 L 23.5 23.5 Z" stroke="none"/>
      <path d="M 1 1 L 1 23 L 23 23 L 23 1 L 1 1 M 0 0 L 24 0 L 24 24 L 0 24 L 0 0 Z" stroke="none" fill="#428dff"/>
    </g>
  </g>
</svg>
