<svg xmlns="http://www.w3.org/2000/svg" width="24" height="24" viewBox="0 0 24 24">
  <g id="vuesax_outline_teacher" data-name="vuesax/outline/teacher" transform="translate(-172 -252)">
    <g id="teacher">
      <g id="Vector" transform="translate(173.82 253.249)" fill="none">
        <path d="M10.19,15.751a4.475,4.475,0,0,1-2.38-.65l-6.02-3.93a3.937,3.937,0,0,1,0-6.6L7.82.651a4.644,4.644,0,0,1,4.76.01l5.99,3.93a3.93,3.93,0,0,1,0,6.58L12.58,15.1A4.4,4.4,0,0,1,10.19,15.751Zm0-14.25a2.8,2.8,0,0,0-1.55.41L2.62,5.831a2.43,2.43,0,0,0,0,4.08l6.02,3.93a3.207,3.207,0,0,0,3.12,0l5.99-3.93a2.442,2.442,0,0,0,0-4.08L11.76,1.9A3.052,3.052,0,0,0,10.19,1.5Z" stroke="none"/>
        <path d="M 10.19000053405762 15.75125503540039 C 9.340000152587891 15.75125503540039 8.480000495910645 15.5312557220459 7.810000419616699 15.10125541687012 L 1.790000200271606 11.17125511169434 C 0.6700001955032349 10.44125556945801 1.907348661234209e-07 9.211255073547363 1.907348661234209e-07 7.871255397796631 C 1.907348661234209e-07 6.53125524520874 0.6700001955032349 5.301255226135254 1.790000200271606 4.571255207061768 L 7.820000171661377 0.6512553691864014 C 9.159998893737793 -0.2187441885471344 11.24999904632568 -0.2187449932098389 12.57999992370605 0.6612553596496582 L 18.56999969482422 4.591255187988281 C 19.68000030517578 5.321255207061768 20.35000038146973 6.551255226135254 20.35000038146973 7.881255149841309 C 20.35000038146973 9.211255073547363 19.68000030517578 10.44125556945801 18.56999969482422 11.17125511169434 L 12.57999992370605 15.10125541687012 C 11.90999984741211 15.54125499725342 11.05000019073486 15.75125503540039 10.19000053405762 15.75125503540039 Z M 10.19000053405762 1.501255393028259 C 9.619999885559082 1.501255393028259 9.050000190734863 1.631255388259888 8.640000343322754 1.911255359649658 L 2.620000123977661 5.831255435943604 C 1.920000195503235 6.291255474090576 1.510000228881836 7.03125524520874 1.510000228881836 7.871255397796631 C 1.510000228881836 8.711255073547363 1.910000205039978 9.451255798339844 2.620000123977661 9.911255836486816 L 8.640000343322754 13.84125518798828 C 9.470000267028809 14.38125705718994 10.93000030517578 14.38125514984131 11.76000022888184 13.84125518798828 L 17.75 9.911255836486816 C 18.45000076293945 9.451255798339844 18.85000038146973 8.711255073547363 18.85000038146973 7.871255397796631 C 18.85000038146973 7.03125524520874 18.45000076293945 6.291255474090576 17.75 5.831255435943604 L 11.76000022888184 1.901255369186401 C 11.34000015258789 1.641255378723145 10.77000045776367 1.501255393028259 10.19000053405762 1.501255393028259 Z" stroke="none" fill="#2f2e41"/>
      </g>
      <g id="Vector-2" data-name="Vector" transform="translate(176.87 264.33)" fill="none">
        <path d="M7.13,10.42a4.1,4.1,0,0,1-1.25-.18L2.69,9.18A4.133,4.133,0,0,1,0,5.44L.01.75A.755.755,0,0,1,.76,0a.755.755,0,0,1,.75.75L1.5,5.44A2.69,2.69,0,0,0,3.17,7.76L6.36,8.82a3.089,3.089,0,0,0,1.54,0l3.19-1.06a2.688,2.688,0,0,0,1.67-2.31V.81a.75.75,0,0,1,1.5,0V5.45a4.159,4.159,0,0,1-2.69,3.74L8.38,10.25A4.445,4.445,0,0,1,7.13,10.42Z" stroke="none"/>
        <path d="M 7.130062580108643 10.42000007629395 C 6.690062522888184 10.42000007629395 6.240062236785889 10.35999965667725 5.880062580108643 10.23999977111816 L 2.690062522888184 9.180000305175781 C 1.180062413215637 8.680000305175781 -0.009937534108757973 7.03000020980835 6.246566772460938e-05 5.440000057220459 L 0.01006246544420719 0.7500000596046448 C 0.01006246544420719 0.3400000333786011 0.3500624597072601 3.814697180359872e-08 0.7600624561309814 3.814697180359872e-08 C 1.17006242275238 3.814697180359872e-08 1.510062456130981 0.3400000333786011 1.510062456130981 0.7500000596046448 L 1.500062465667725 5.440000057220459 C 1.500062465667725 6.380000114440918 2.280062437057495 7.460000038146973 3.17006254196167 7.760000228881836 L 6.360062599182129 8.819999694824219 C 6.760061740875244 8.950000762939453 7.500061511993408 8.950000762939453 7.900062561035156 8.819999694824219 L 11.09006214141846 7.760000228881836 C 11.98006248474121 7.460000038146973 12.7600622177124 6.380000114440918 12.7600622177124 5.449999809265137 L 12.7600622177124 0.8100000619888306 C 12.7600622177124 0.4000000357627869 13.10006237030029 0.06000003963708878 13.5100622177124 0.06000003963708878 C 13.92006206512451 0.06000003963708878 14.2600622177124 0.4000000357627869 14.2600622177124 0.8100000619888306 L 14.2600622177124 5.449999809265137 C 14.2600622177124 7.039999961853027 13.08006286621094 8.680000305175781 11.5700626373291 9.189999580383301 L 8.380062103271484 10.25 C 8.020062446594238 10.35999965667725 7.570062637329102 10.42000007629395 7.130062580108643 10.42000007629395 Z" stroke="none" fill="#2f2e41"/>
      </g>
      <g id="Vector-3" data-name="Vector" transform="translate(192.65 260.25)" fill="none">
        <path d="M.75,7.5A.755.755,0,0,1,0,6.75v-6A.755.755,0,0,1,.75,0,.755.755,0,0,1,1.5.75v6A.755.755,0,0,1,.75,7.5Z" stroke="none"/>
        <path d="M 0.75 7.5 C 0.3400000035762787 7.5 -1.110223024625157e-16 7.159999847412109 -1.110223024625157e-16 6.75 L -1.110223024625157e-16 0.75 C -1.110223024625157e-16 0.3400000035762787 0.3400000035762787 -4.440892098500626e-16 0.75 -4.440892098500626e-16 C 1.159999966621399 -4.440892098500626e-16 1.5 0.3400000035762787 1.5 0.75 L 1.5 6.75 C 1.5 7.159999847412109 1.159999966621399 7.5 0.75 7.5 Z" stroke="none" fill="#2f2e41"/>
      </g>
      <g id="Vector-4" data-name="Vector" transform="translate(172 252)" fill="none" opacity="0">
        <path d="M0,0H24V24H0Z" stroke="none"/>
        <path d="M 1 1 L 1 23 L 23 23 L 23 1 L 1 1 M 0 0 L 24 0 L 24 24 L 0 24 L 0 0 Z" stroke="none" fill="#2f2e41"/>
      </g>
    </g>
  </g>
</svg>
