<svg xmlns="http://www.w3.org/2000/svg" width="27.511" height="30" viewBox="0 0 27.511 30">
  <g id="vuesax_outline_airplane" data-name="vuesax/outline/airplane" transform="translate(215.51 -108) rotate(90)">
    <g id="airplane" transform="translate(108 188)">
      <g id="Vector" transform="translate(1.92 1.239)" fill="none">
        <path d="M8.5,25.029a2.522,2.522,0,0,1-.885-.154,2.215,2.215,0,0,1-1.327-1.281L5.7,22.029a2.021,2.021,0,0,1,.563-2.135L9.3,17.19a.438.438,0,0,0,.094-.225V14.036L3.284,16.372a2.66,2.66,0,0,1-2.279-.095A2.042,2.042,0,0,1,0,14.474v-1.53a3.235,3.235,0,0,1,2.131-2.823L9.383,7.347V3.979A4.544,4.544,0,0,1,11.97.231a2.7,2.7,0,0,1,2.185,0,4.515,4.515,0,0,1,2.6,3.736V7.335l7.292,2.775a3.249,3.249,0,0,1,2.1,2.834v1.53a2,2,0,0,1-1.005,1.8,2.7,2.7,0,0,1-2.279.107l-6.112-2.336v2.929a.405.405,0,0,0,.094.2l3.056,2.716a2.021,2.021,0,0,1,.563,2.135l-.59,1.565a2.212,2.212,0,0,1-1.354,1.269,2.645,2.645,0,0,1-1.93-.059,1.78,1.78,0,0,1-.2-.119L13.27,22.361a.4.4,0,0,0-.416,0L9.731,24.685a.575.575,0,0,1-.188.107A2.275,2.275,0,0,1,8.5,25.029ZM9.812,12.091a1.642,1.642,0,0,1,.858.225,1.443,1.443,0,0,1,.737,1.281v3.38a2.121,2.121,0,0,1-.684,1.471l-3.043,2.7a.434.434,0,0,0-.08.308l.59,1.577a.318.318,0,0,0,.188.19.31.31,0,0,0,.188.012l3-2.241a2.607,2.607,0,0,1,3.016,0l2.989,2.23a.49.49,0,0,0,.2-.012.334.334,0,0,0,.2-.19l.59-1.565a.406.406,0,0,0-.08-.308l-3.043-2.7a2.069,2.069,0,0,1-.7-1.471V13.6a1.441,1.441,0,0,1,.71-1.269,1.85,1.85,0,0,1,1.608-.095l6.595,2.514a.588.588,0,0,0,.375.047c.04-.024.094-.13.094-.32v-1.53a1.48,1.48,0,0,0-.885-1.2L15.763,8.889a1.536,1.536,0,0,1-1.005-1.364V3.967a2.7,2.7,0,0,0-1.5-2.147.478.478,0,0,0-.362,0,2.778,2.778,0,0,0-1.488,2.158V7.537A1.549,1.549,0,0,1,10.4,8.9L2.922,11.759a1.469,1.469,0,0,0-.9,1.186v1.53c0,.19.054.3.094.32a.588.588,0,0,0,.375-.047l6.581-2.514A2.034,2.034,0,0,1,9.812,12.091Z" stroke="none"/>
        <path d="M 10.37738227844238 17.16513824462891 C 10.39658355712891 17.09605407714844 10.40690326690674 17.03125381469727 10.40690326690674 16.97663497924805 L 10.40690326690674 13.59672546386719 C 10.40690326690674 13.55622673034668 10.40340137481689 13.51833915710449 10.39628314971924 13.48285293579102 L 10.39628314971924 16.96477508544922 C 10.39628314971924 17.02607727050781 10.39006519317627 17.09386825561523 10.37738227844238 17.16513824462891 M 15.77011013031006 17.15178871154785 C 15.76029682159424 17.09250831604004 15.75514316558838 17.03376770019531 15.75514316558838 16.97663497924805 L 15.75514316558838 13.48154258728027 C 15.74804878234863 13.51749515533447 15.74452304840088 13.5558614730835 15.74452304840088 13.59672546386719 L 15.74452304840088 16.97663497924805 C 15.74452304840088 17.02997016906738 15.75371360778809 17.08973693847656 15.77011013031006 17.15178871154785 M 25.06698036193848 14.93790817260742 C 25.1318359375 14.77875709533691 25.15142250061035 14.61455059051514 25.15142250061035 14.47431564331055 L 25.15142250061035 12.94446563720703 C 25.15142250061035 12.75625610351562 25.10948181152344 12.56103706359863 25.03378868103027 12.36956787109375 C 25.09432601928711 12.56033515930176 25.12740325927734 12.75459003448486 25.12740325927734 12.94446563720703 L 25.12740325927734 14.47431564331055 C 25.12740325927734 14.63970756530762 25.10671043395996 14.79535388946533 25.06698036193848 14.93790817260742 M 1.072303891181946 14.89151477813721 C 1.040504217147827 14.76178932189941 1.024023175239563 14.62195205688477 1.024023175239563 14.47431564331055 L 1.024023175239563 12.94446563720703 C 1.024023175239563 12.7559232711792 1.057078003883362 12.56338214874268 1.117699384689331 12.37422180175781 C 1.042105436325073 12.56430435180664 1.000003099441528 12.75807094573975 1.000003099441528 12.94446563720703 L 1.000003099441528 14.47431564331055 C 1.000003099441528 14.623610496521 1.024878978729248 14.76410388946533 1.072303891181946 14.89151477813721 M 10.38288307189941 7.640551567077637 C 10.39864826202393 7.602187633514404 10.40690326690674 7.566384792327881 10.40690326690674 7.536605834960938 L 10.40690326690674 3.978805780410767 C 10.40690326690674 3.726706266403198 10.45011425018311 3.465054988861084 10.52940464019775 3.204301595687866 C 10.43510150909424 3.467657327651978 10.38288307189941 3.730590105056763 10.38288307189941 3.978805780410767 L 10.38288307189941 7.640551567077637 M 8.498212814331055 25.02911567687988 C 8.203323364257812 25.02911567687988 7.895023345947266 24.98168563842773 7.613533020019531 24.87494659423828 C 6.983543395996094 24.63776588439941 6.500993251800537 24.17524528503418 6.286533355712891 23.59414672851562 L 5.696753025054932 22.02870559692383 C 5.42866325378418 21.31714630126953 5.669943332672119 20.42769622802734 6.25972318649292 19.8940258026123 L 9.30245304107666 17.19009590148926 C 9.342673301696777 17.15452575683594 9.396283149719238 17.02407646179199 9.396283149719238 16.96477508544922 L 9.396283149719238 14.03551578521729 L 3.284013271331787 16.37180519104004 C 2.466353178024292 16.68015670776367 1.635303139686584 16.64457893371582 1.005313158035278 16.27693557739258 C 0.3753131628036499 15.9092960357666 3.157653736707289e-06 15.24516582489014 3.157653736707289e-06 14.47431564331055 L 3.157653736707289e-06 12.94446563720703 C 3.157653736707289e-06 11.78224563598633 0.9382931590080261 10.53701591491699 2.131253242492676 10.12193584442139 L 9.382883071899414 7.346855640411377 L 9.382883071899414 3.978805780410767 C 9.382883071899414 2.54382586479187 10.52223300933838 0.8953757882118225 11.96987342834473 0.2312557846307755 C 12.66689300537109 -0.07708385586738586 13.47113227844238 -0.07708460837602615 14.15474319458008 0.2312557846307755 C 15.61579322814941 0.8953757882118225 16.75514221191406 2.531965732574463 16.75514221191406 3.966945886611938 L 16.75514221191406 7.334995746612549 L 24.04698371887207 10.11008548736572 C 25.23995399475098 10.56073570251465 26.15142250061035 11.7703857421875 26.15142250061035 12.94446563720703 L 26.15142250061035 14.47431564331055 C 26.15142250061035 15.25702571868896 25.78951263427734 15.9092960357666 25.1461238861084 16.27693557739258 C 24.50272560119629 16.64457511901855 23.6850757598877 16.6801586151123 22.86742401123047 16.38366508483887 L 16.75514221191406 14.04737567901611 L 16.75514221191406 16.97663497924805 C 16.75514221191406 17.02407646179199 16.80876350402832 17.14266586303711 16.84897232055664 17.17824554443359 L 19.90511322021484 19.8940258026123 C 20.49489402770996 20.41583633422852 20.73616409301758 21.32900619506836 20.46808242797852 22.02870559692383 L 19.87830352783203 23.59414672851562 C 19.65043258666992 24.17524528503418 19.16788291931152 24.63776588439941 18.52448272705078 24.86308670043945 C 17.89449501037598 25.08841323852539 17.19748306274414 25.064697265625 16.59429359436035 24.80379486083984 C 16.52727317810059 24.76821517944336 16.46025276184082 24.73263549804688 16.39323234558105 24.68519592285156 L 13.27007293701172 22.36076545715332 C 13.16284275054932 22.27775573730469 12.94837284088135 22.28961563110352 12.85454273223877 22.36076545715332 L 9.731383323669434 24.68519592285156 C 9.677773475646973 24.73263549804688 9.610753059387207 24.76821517944336 9.543733596801758 24.79193496704102 C 9.222033500671387 24.95796585083008 8.860123634338379 25.02911567687988 8.498212814331055 25.02911567687988 Z M 9.811813354492188 12.09058570861816 C 10.12010288238525 12.09058570861816 10.41499328613281 12.16174602508545 10.66967296600342 12.31591606140137 C 11.13882350921631 12.5886754989624 11.40690326690674 13.05119609832764 11.40690326690674 13.59672546386719 L 11.40690326690674 16.97663497924805 C 11.40690326690674 17.48658561706543 11.125412940979 18.09141540527344 10.72329330444336 18.44719505310059 L 7.680552959442139 21.15111541748047 C 7.626943111419678 21.21041488647461 7.573323249816895 21.3883056640625 7.600132942199707 21.45946502685547 L 8.189912796020508 23.03675651550293 C 8.230123519897461 23.15534591674805 8.323953628540039 23.20278549194336 8.377573013305664 23.22650527954102 C 8.417783737182617 23.23836517333984 8.48480224609375 23.26208305358887 8.56523323059082 23.23836517333984 L 11.56775283813477 20.99694633483887 C 12.4122142791748 20.35654640197754 13.73921203613281 20.35654640197754 14.58367347717285 20.99694633483887 L 17.57279396057129 23.22650527954102 C 17.66662216186523 23.23836708068848 17.733642578125 23.22650527954102 17.77385330200195 23.21464538574219 C 17.82747268676758 23.19092559814453 17.9347038269043 23.14348602294922 17.97491264343262 23.0248966217041 L 18.5647029876709 21.45946502685547 C 18.59151268005371 21.37644577026367 18.53789329528809 21.19855499267578 18.48427391052246 21.15111541748047 L 15.44154357910156 18.44719505310059 C 15.03941345214844 18.11512565612793 14.74452304840088 17.49844551086426 14.74452304840088 16.97663497924805 L 14.74452304840088 13.59672546386719 C 14.74452304840088 13.06305599212646 14.99920272827148 12.60053539276123 15.45494270324707 12.3277759552002 C 15.91068267822266 12.05501461029053 16.50046348571777 12.01943588256836 17.06344223022461 12.23290538787842 L 23.65826225280762 14.7470760345459 C 23.85932540893555 14.8182373046875 23.99336624145508 14.81823539733887 24.03357315063477 14.79451560974121 C 24.07379341125488 14.77079582214355 24.12740325927734 14.66406536102295 24.12740325927734 14.47431564331055 L 24.12740325927734 12.94446563720703 C 24.12740325927734 12.49380588531494 23.69847297668457 11.91269588470459 23.24273300170898 11.74666595458984 L 15.76323318481445 8.888566017150879 C 15.17346286773682 8.663235664367676 14.75793361663818 8.093996047973633 14.75793361663818 7.524745941162109 L 14.75793361663818 3.966945886611938 C 14.75793361663818 3.184235811233521 14.0609130859375 2.176185846328735 13.25667285919189 1.820405721664429 C 13.14943599700928 1.772976398468018 13.01539516448975 1.772975564002991 12.89476299285889 1.820405721664429 C 12.11732292175293 2.176185846328735 11.40690326690674 3.207945823669434 11.40690326690674 3.978805780410767 L 11.40690326690674 7.536605834960938 C 11.40690326690674 8.093996047973633 10.99137306213379 8.675106048583984 10.40159320831299 8.900425910949707 L 2.922093152999878 11.75852584838867 C 2.452953100204468 11.92455577850342 2.024023056030273 12.50566577911377 2.024023056030273 12.94446563720703 L 2.024023056030273 14.47431564331055 C 2.024023056030273 14.66406536102295 2.077643156051636 14.77079582214355 2.117853164672852 14.79451560974121 C 2.158062934875488 14.81823825836182 2.292103290557861 14.81823539733887 2.493163108825684 14.7470760345459 L 9.074583053588867 12.23290538787842 C 9.315863609313965 12.13802623748779 9.57054328918457 12.09058570861816 9.811813354492188 12.09058570861816 Z" stroke="none" fill="#076aff"/>
      </g>
      <g id="Vector-2" data-name="Vector" fill="none" opacity="0">
        <path d="M0,0H30V27.511H0Z" stroke="none"/>
        <path d="M 0.9999961853027344 0.9999942779541016 L 0.9999961853027344 26.51054382324219 L 28.99999618530273 26.51054382324219 L 28.99999618530273 0.9999942779541016 L 0.9999961853027344 0.9999942779541016 M -3.814697265625e-06 -5.7220458984375e-06 L 29.99999618530273 -5.7220458984375e-06 L 29.99999618530273 27.51054382324219 L -3.814697265625e-06 27.51054382324219 L -3.814697265625e-06 -5.7220458984375e-06 Z" stroke="none" fill="#076aff"/>
      </g>
    </g>
  </g>
</svg>
